<svg width="130" height="100" viewBox="0 0 130 100" fill="none" xmlns="http://www.w3.org/2000/svg">
<path d="M124.322 34.724H77.1784V89.12H124.322V34.724Z" fill="#FAFAFA"/>
<path d="M124.322 89.12C124.322 88.736 124.306 67.342 124.283 34.72L124.322 34.766H77.1836L77.2287 34.714C77.2287 54.634 77.2287 73.302 77.2287 89.114L77.1888 89.07L124.335 89.114L77.1888 89.16H77.1333V89.114C77.1333 73.314 77.1333 54.638 77.1333 34.714V34.662H77.1836H124.33H124.37V34.706C124.337 67.342 124.322 88.736 124.322 89.12Z" fill="#263238"/>
<path d="M80.3625 37.444C80.3719 37.6149 80.3366 37.785 80.2611 37.9325C80.1856 38.0799 80.0734 38.1977 79.9392 38.2706C79.8049 38.3436 79.6548 38.3682 79.5082 38.3415C79.3616 38.3147 79.2254 38.2378 79.1172 38.1206C79.0091 38.0034 78.9339 37.8513 78.9016 37.6842C78.8692 37.5171 78.8811 37.3427 78.9358 37.1835C78.9904 37.0243 79.0853 36.8877 79.208 36.7915C79.3308 36.6953 79.4757 36.6439 79.6241 36.644C79.8138 36.638 79.9978 36.7188 80.136 36.8686C80.2743 37.0184 80.3557 37.2252 80.3625 37.444Z" fill="#E0E0E0"/>
<path d="M81.8879 38.246C82.2957 38.246 82.6263 37.8869 82.6263 37.444C82.6263 37.001 82.2957 36.642 81.8879 36.642C81.4801 36.642 81.1495 37.001 81.1495 37.444C81.1495 37.8869 81.4801 38.246 81.8879 38.246Z" fill="#E0E0E0"/>
<path d="M84.1499 38.246C84.5577 38.246 84.8883 37.8869 84.8883 37.444C84.8883 37.001 84.5577 36.642 84.1499 36.642C83.7421 36.642 83.4115 37.001 83.4115 37.444C83.4115 37.8869 83.7421 38.246 84.1499 38.246Z" fill="#E0E0E0"/>
<path d="M124.322 39.666C124.322 39.696 113.767 39.72 100.748 39.72C87.7292 39.72 77.1749 39.696 77.1749 39.666C77.1749 39.636 87.7275 39.614 100.748 39.614C113.769 39.614 124.322 39.638 124.322 39.666Z" fill="#E0E0E0"/>
<path d="M94.0524 59.9999L95.1305 50.9499L94.8619 48.3259C94.8619 48.3259 90.7244 48.2179 90.1385 43.5499C89.856 41.2959 89.5995 36.5979 89.4105 32.3499C89.3143 30.1426 89.9414 27.9743 91.1672 26.2761C92.3931 24.5779 94.1278 23.474 96.0267 23.1839L96.4184 23.1239C100.667 22.7639 103.307 26.7239 103.499 31.6379L105.425 49.1999L94.0524 59.9999Z" fill="#705142"/>
<path d="M94.8567 48.3279C94.8567 48.3279 97.4463 48.1779 99.9423 45.7899C99.9423 45.7899 99.0756 49.3459 94.9867 49.5419L94.8567 48.3279Z" fill="#523729"/>
<path d="M90.7712 35.7299C90.7895 35.9041 90.8661 36.0631 90.9846 36.1729C91.1032 36.2828 91.2543 36.3348 91.4056 36.3179C91.4793 36.3123 91.5512 36.29 91.6174 36.2521C91.6835 36.2142 91.7424 36.1615 91.7908 36.0972C91.8392 36.0328 91.876 35.958 91.8991 35.8771C91.9223 35.7962 91.9313 35.7108 91.9256 35.6259C91.9073 35.4516 91.8308 35.2924 91.7123 35.1822C91.5938 35.072 91.4427 35.0195 91.2912 35.0359C91.2174 35.0417 91.1454 35.0643 91.0793 35.1024C91.0132 35.1405 90.9542 35.1934 90.9059 35.2579C90.8575 35.3224 90.8207 35.3973 90.7976 35.4784C90.7745 35.5594 90.7655 35.6449 90.7712 35.7299Z" fill="#263238"/>
<path d="M90.4557 34.264C90.5372 34.34 90.9324 33.9 91.5564 33.806C92.1804 33.712 92.6761 34.006 92.7351 33.904C92.7628 33.86 92.6727 33.704 92.4543 33.578C92.1599 33.4026 91.8254 33.3376 91.4975 33.392C91.1724 33.4389 90.8688 33.6043 90.6308 33.864C90.4627 34.064 90.4159 34.23 90.4557 34.264Z" fill="#263238"/>
<path d="M96.2347 35.0879C96.2534 35.2619 96.3301 35.4206 96.4485 35.5303C96.567 35.6401 96.7178 35.6923 96.8691 35.6759C96.9428 35.6701 97.0148 35.6475 97.081 35.6094C97.1471 35.5713 97.206 35.5184 97.2544 35.4539C97.3027 35.3894 97.3395 35.3145 97.3626 35.2334C97.3857 35.1524 97.3947 35.0669 97.3891 34.9819C97.3703 34.8076 97.2934 34.6486 97.1746 34.5387C97.0557 34.4289 96.9045 34.3769 96.7529 34.3939C96.6793 34.3997 96.6073 34.4223 96.5413 34.4605C96.4752 34.4986 96.4164 34.5515 96.3682 34.616C96.32 34.6806 96.2834 34.7555 96.2604 34.8365C96.2375 34.9175 96.2288 35.003 96.2347 35.0879Z" fill="#263238"/>
<path d="M96.4271 33.1539C96.4999 33.2399 96.9349 32.8499 97.5641 32.8359C98.1933 32.8219 98.6596 33.1699 98.7255 33.0799C98.7584 33.0399 98.6821 32.8799 98.4776 32.7199C98.2016 32.5094 97.8757 32.4032 97.5451 32.4159C97.2184 32.4229 96.9021 32.5497 96.642 32.7779C96.4531 32.9539 96.3907 33.1139 96.4271 33.1539Z" fill="#263238"/>
<path d="M95.0335 39.374C95.0335 39.334 94.6348 39.316 93.9935 39.318C93.8323 39.318 93.678 39.318 93.6364 39.19C93.6017 39.0025 93.6168 38.8074 93.6797 38.63C93.778 38.162 93.8814 37.672 93.99 37.16C94.4147 35.07 94.7007 33.36 94.6279 33.344C94.5551 33.328 94.1512 35.002 93.7265 37.092C93.6243 37.606 93.5289 38.092 93.4371 38.566C93.4007 38.784 93.3244 39.036 93.4371 39.3C93.4672 39.3612 93.5092 39.4135 93.5597 39.4531C93.6102 39.4926 93.6678 39.5182 93.7283 39.528C93.8198 39.541 93.9123 39.541 94.0039 39.528C94.64 39.472 95.0352 39.416 95.0335 39.374Z" fill="#263238"/>
<path d="M96.2381 30.5999C96.3231 30.7859 96.9315 30.5999 97.6751 30.5879C98.4187 30.5759 99.0357 30.7179 99.112 30.5279C99.1467 30.4379 99.0219 30.2699 98.7653 30.1159C98.4208 29.9325 98.0445 29.8422 97.6651 29.8519C97.2858 29.8616 96.9133 29.9711 96.5761 30.1719C96.3196 30.3279 96.2 30.5019 96.2381 30.5999Z" fill="#263238"/>
<path d="M90.3881 32.244C90.5164 32.392 90.9255 32.156 91.4403 32.07C91.9551 31.984 92.4057 32.034 92.4803 31.848C92.5149 31.758 92.4265 31.606 92.2185 31.48C91.9407 31.3343 91.6317 31.2869 91.3306 31.3439C91.0295 31.4008 90.7497 31.5596 90.5268 31.8C90.3708 32 90.3292 32.172 90.3881 32.244Z" fill="#263238"/>
<path d="M103.56 35.1519C103.624 35.1059 106.234 33.7759 106.506 36.9859C106.779 40.1959 103.934 39.8579 103.92 39.7659C103.906 39.6739 103.56 35.1519 103.56 35.1519Z" fill="#705142"/>
<path d="M104.673 38.452C104.683 38.44 104.725 38.484 104.809 38.518C104.93 38.5617 105.06 38.5503 105.173 38.486C105.456 38.328 105.657 37.76 105.621 37.18C105.604 36.9035 105.533 36.6348 105.414 36.394C105.38 36.297 105.325 36.2111 105.256 36.1439C105.186 36.0766 105.103 36.03 105.014 36.008C104.957 35.9974 104.898 36.0102 104.848 36.0442C104.798 36.0781 104.76 36.1311 104.74 36.194C104.711 36.288 104.74 36.35 104.719 36.358C104.699 36.366 104.655 36.31 104.666 36.176C104.675 36.0944 104.708 36.0189 104.759 35.962C104.794 35.9241 104.835 35.8946 104.879 35.875C104.924 35.8555 104.971 35.8463 105.019 35.848C105.136 35.8606 105.248 35.9077 105.344 35.9848C105.44 36.0619 105.518 36.1663 105.569 36.288C105.712 36.5523 105.796 36.8531 105.815 37.164C105.853 37.812 105.619 38.452 105.227 38.632C105.155 38.6658 105.077 38.6803 104.998 38.6744C104.92 38.6685 104.845 38.6424 104.777 38.598C104.683 38.528 104.662 38.458 104.673 38.452Z" fill="#523729"/>
<path d="M96.9228 39.6C96.8205 39.6 96.9089 40.388 96.4028 41.03C95.8967 41.672 95.1583 41.698 95.1652 41.806C95.1652 41.858 95.3385 41.934 95.6488 41.898C96.0457 41.8449 96.4138 41.6325 96.6888 41.298C96.9522 40.9733 97.0952 40.5427 97.0875 40.098C97.0667 39.762 96.9679 39.58 96.9228 39.6Z" fill="#263238"/>
<path d="M86.0357 26.892C86.0383 26.5818 86.1075 26.2773 86.2373 26.0057C86.3671 25.7341 86.5534 25.5039 86.7793 25.336C86.7613 25.1581 86.7578 24.9786 86.7689 24.8C86.8435 23.714 87.6217 22.708 88.5629 22.624C88.5919 22.2028 88.7199 21.7987 88.9332 21.4553C89.1465 21.1118 89.4369 20.8421 89.7732 20.675C90.1095 20.5079 90.479 20.4499 90.8418 20.5071C91.2046 20.5644 91.5469 20.7348 91.832 21C92.1403 20.6024 92.5411 20.3156 92.9868 20.1738C93.4324 20.0319 93.904 20.041 94.3453 20.2C94.458 20.233 94.5602 20.3023 94.64 20.4C94.6632 20.4345 94.6801 20.4741 94.6897 20.5164C94.6992 20.5587 94.7012 20.6028 94.6955 20.646C94.7959 20.3884 94.949 20.1629 95.1416 19.9887C95.3342 19.8145 95.5606 19.6969 95.8013 19.646C95.9648 19.613 96.1319 19.613 96.2953 19.646C96.7401 19.6218 97.1755 19.799 97.5087 20.14C98.0455 19.8473 98.6568 19.792 99.2266 19.9844C99.7965 20.1768 100.285 20.6036 100.601 21.184C101.059 21.1516 101.514 21.2774 101.91 21.5453C102.305 21.8132 102.623 22.211 102.821 22.688C103.117 22.6712 103.411 22.7444 103.674 22.9002C103.937 23.056 104.16 23.289 104.321 23.5757C104.481 23.8625 104.574 24.1928 104.589 24.5338C104.603 24.8747 104.54 25.2141 104.406 25.518C104.406 25.518 106.404 25.73 106.13 27.804C105.99 28.864 104.78 28.868 104.78 28.868L104.035 35.554C104.062 35.584 103.776 36.396 103.423 36.284C103.069 36.172 102.835 35.804 102.601 35.484C102.334 35.112 102.029 34.758 101.875 34.31C101.721 33.862 101.769 33.272 102.112 32.994C101.611 32.884 101.246 32.368 101.083 31.81C100.92 31.252 100.948 30.652 100.97 30.066C101.004 29.2006 101.037 28.334 101.071 27.466C100.564 27.5213 100.054 27.4158 99.5961 27.1609C99.1378 26.9061 98.7487 26.5115 98.4707 26.02C97.8259 26.768 96.5848 26.62 96.096 25.722C95.9865 26.3203 95.6832 26.8479 95.248 27.1969C94.8128 27.5459 94.2785 27.6901 93.7543 27.6C93.9397 28.246 92.9812 29.018 92.4369 29.278C91.8927 29.538 91.1335 29.188 91.1335 29.188C90.8142 29.4733 90.4523 29.6889 90.0657 29.824L90.0068 29.838C89.2337 30.038 88.3757 29.344 87.9043 28.608C87.7052 28.6609 87.4988 28.667 87.2976 28.626C86.9513 28.5371 86.6401 28.3191 86.412 28.0057C86.1839 27.6923 86.0517 27.3008 86.0357 26.892Z" fill="#263238"/>
<path d="M99.3009 36.086C99.3564 36.0974 99.4079 36.1263 99.4499 36.1696C99.4919 36.2129 99.5226 36.2688 99.5386 36.331C99.5546 36.3933 99.5553 36.4595 99.5406 36.5222C99.5258 36.5849 99.4963 36.6416 99.4552 36.686C99.3061 36.8032 99.1325 36.8722 98.9525 36.886C98.7165 36.918 98.4779 36.918 98.2419 36.886C98.0685 36.864 97.8397 36.76 97.8501 36.552C97.8602 36.4912 97.8823 36.4339 97.9148 36.3846C97.9472 36.3353 97.9892 36.2954 98.0373 36.268C98.3545 36.028 98.5955 36.014 98.9751 36L99.3009 36.086Z" fill="#98675A"/>
<path d="M95.7545 52.6039L97.6144 51.0359L105.144 44.4979L105.96 48.0339L99.0756 55.5379L97.1377 64.0299L92.482 67.4919L93.9848 60.2539L94.8567 52.1039L95.0404 50.0739L95.7545 52.6039Z" fill="#F5F5F5"/>
<path d="M105.425 45.4679L105.818 47.1759C105.818 47.1759 109.077 48.7119 110.907 51.4259C112.738 54.1399 115.688 59.5379 117.168 67.0759C118.648 74.6139 119.227 88.9999 119.227 88.9999H95.0404L96.122 62.0719L97.4133 55.9999L100.88 50.5799L105.425 45.4679Z" fill="#C53F3F"/>
<path d="M105.818 47.176C105.81 47.1884 105.801 47.1998 105.791 47.21L105.7 47.302L105.354 47.648C105.199 47.796 105.017 47.986 104.806 48.206L104.459 48.556L104.088 48.956C103.568 49.52 102.97 50.226 102.324 51.022C101.677 51.818 101.005 52.738 100.325 53.724C99.6459 54.71 99.0461 55.694 98.5261 56.606C98.0061 57.518 97.5745 58.368 97.2504 59.104C97.1672 59.286 97.0875 59.46 97.0129 59.626L96.8205 60.102C96.6992 60.398 96.5935 60.654 96.5224 60.87L96.3491 61.362L96.3023 61.488L96.2832 61.53C96.5305 60.6832 96.836 59.8606 97.1967 59.07C97.5156 58.328 97.9524 57.47 98.4585 56.554C98.9647 55.638 99.5835 54.656 100.258 53.66C100.932 52.664 101.624 51.762 102.267 50.958C102.91 50.154 103.518 49.46 104.049 48.902L104.423 48.502L104.77 48.156C104.985 47.94 105.17 47.756 105.328 47.612L105.688 47.28L105.784 47.196C105.806 47.182 105.818 47.174 105.818 47.176Z" fill="#263238"/>
<path d="M105.213 64.0299C105.213 64.0599 102.929 63.9999 100.11 63.8959C97.292 63.7919 95.0092 63.6859 95.0109 63.6579C95.0127 63.6299 97.2955 63.6879 100.114 63.7919C102.932 63.8959 105.213 63.9999 105.213 64.0299Z" fill="#C53F3F"/>
<path d="M78.5547 65.5239L86.6355 71.4039L87.0948 71.4359L92.5392 63.6579L93.6884 55.5319L94.8671 52.2899L93.3799 66.3719L93.7023 81.0379L85.4637 82.9019L74.2473 74.1519L78.5547 65.5239Z" fill="#C53F3F"/>
<path d="M93.5359 64.8879C93.5116 64.8879 93.7889 62.0619 94.1564 58.5839C94.5239 55.1059 94.8411 52.2859 94.8671 52.2899C94.8931 52.2939 94.614 55.1159 94.2465 58.5959C93.8791 62.0759 93.5619 64.8919 93.5359 64.8879Z" fill="#263238"/>
<path d="M93.6503 68.9619C93.6193 68.8918 93.5949 68.818 93.5775 68.7419C93.5359 68.5999 93.4821 68.3899 93.4197 68.1299C93.2932 67.6079 93.1389 66.8819 93.0089 66.0719C92.8789 65.2619 92.7992 64.5179 92.7559 63.9799C92.7333 63.7119 92.7195 63.4939 92.7143 63.3419C92.7053 63.2643 92.7053 63.1856 92.7143 63.1079C92.7324 63.1831 92.744 63.2601 92.7489 63.3379C92.768 63.5099 92.7905 63.7219 92.8183 63.9719C92.8772 64.5059 92.9691 65.2439 93.0991 66.0519C93.2291 66.8599 93.3712 67.5859 93.4804 68.1099C93.5324 68.3559 93.5757 68.5639 93.6121 68.7319C93.6315 68.8069 93.6443 68.884 93.6503 68.9619Z" fill="#C53F3F"/>
<path d="M88.9789 75.044C88.8725 74.8707 88.7769 74.689 88.6929 74.5C88.5196 74.16 88.2856 73.7 87.9996 73.192C87.7136 72.684 87.4501 72.248 87.2508 71.928C87.1371 71.762 87.0329 71.5876 86.9388 71.406C87.0745 71.55 87.1965 71.7102 87.3028 71.884C87.5143 72.192 87.7933 72.632 88.0759 73.136C88.3584 73.64 88.5959 74.114 88.7449 74.464C88.839 74.6482 88.9173 74.8424 88.9789 75.044Z" fill="#263238"/>
<path d="M86.6355 76.9999C86.6112 77.0099 86.2697 75.9779 85.8711 74.6959C85.4724 73.4139 85.1691 72.3659 85.1933 72.3559C85.2176 72.3459 85.5573 73.3779 85.956 74.6619C86.3547 75.9459 86.6667 76.9999 86.6355 76.9999Z" fill="#263238"/>
<path d="M100.147 54.2319C99.4512 55.0757 98.8006 55.9674 98.1985 56.9019C96.5467 59.5839 86.892 77.5779 85.9144 80.1999C84.9368 82.8219 83.6472 86.3539 87.4519 88.5479C90.6325 90.3839 92.5513 88.0919 94.3505 86.0559C96.1497 84.0199 107.697 69.8779 107.697 69.8779C107.697 69.8779 111.443 64.1959 110.049 58.8339" fill="#C53F3F"/>
<path d="M110.048 58.832C110.048 58.832 110.067 58.9 110.098 59.032C110.148 59.2254 110.189 59.4216 110.221 59.62C110.353 60.3833 110.399 61.163 110.36 61.94C110.29 63.1745 110.066 64.391 109.696 65.552C109.212 67.0983 108.547 68.5612 107.72 69.9L99.7152 79.684C98.1916 81.534 96.5952 83.484 94.9052 85.484C94.4805 85.982 94.0489 86.484 93.6 86.966C93.1535 87.467 92.6704 87.9227 92.1561 88.328C91.633 88.7421 91.0438 89.0324 90.4228 89.182C89.7883 89.3144 89.136 89.2768 88.5161 89.072L88.0655 88.904C87.9181 88.838 87.7777 88.76 87.6339 88.688C87.3484 88.5415 87.0726 88.3711 86.8088 88.178C86.2774 87.8033 85.817 87.3087 85.4551 86.724C85.1107 86.1337 84.9091 85.4482 84.8709 84.738C84.8417 84.044 84.9125 83.3492 85.0807 82.682C85.2399 82.0293 85.4374 81.3898 85.6717 80.768C85.8892 80.1502 86.1405 79.549 86.424 78.968C86.9665 77.814 87.5316 76.708 88.0811 75.626C90.2928 71.314 92.3485 67.476 94.0871 64.26C95.8256 61.044 97.2452 58.46 98.3043 56.718C98.8555 55.87 99.3443 55.26 99.6597 54.844L100.032 54.378C100.117 54.274 100.162 54.224 100.162 54.224C100.162 54.224 100.123 54.28 100.039 54.386L99.6719 54.858C99.3547 55.278 98.878 55.892 98.332 56.742C97.2833 58.48 95.8793 61.086 94.1408 64.298C92.4023 67.51 90.3587 71.36 88.1521 75.676C87.6044 76.756 87.0411 77.864 86.4985 79.016C86.3633 79.302 86.2247 79.592 86.1051 79.89C85.9855 80.188 85.8641 80.49 85.7584 80.798C85.5273 81.4166 85.3316 82.0519 85.1725 82.7C85.0078 83.3563 84.9381 84.0395 84.9663 84.722C85.0035 85.4144 85.2004 86.0828 85.5365 86.658C85.8922 87.2303 86.3436 87.7145 86.8643 88.082C87.1168 88.276 87.3809 88.4491 87.6547 88.6C87.7968 88.67 87.9372 88.748 88.0811 88.812L88.5248 88.978C89.1334 89.1792 89.7739 89.2161 90.3968 89.086C91.0091 88.9404 91.5901 88.6555 92.1059 88.248C92.6152 87.8453 93.0941 87.3937 93.5376 86.898C93.9831 86.41 94.4164 85.914 94.8393 85.418C96.5259 83.418 98.1327 81.472 99.6528 79.618L107.673 69.85C108.498 68.5181 109.163 67.0636 109.651 65.526C110.024 64.3695 110.252 63.1571 110.327 61.926C110.369 61.1518 110.329 60.3746 110.205 59.612C110.167 59.35 110.12 59.154 110.091 59.022C110.061 58.89 110.048 58.832 110.048 58.832Z" fill="#263238"/>
<path d="M91.9083 68.1059C91.884 68.1059 92.2549 65.2819 92.7541 61.8099C93.2533 58.3379 93.6641 55.5259 93.6884 55.5299C93.7127 55.5339 93.3417 58.3539 92.8443 61.8259C92.3468 65.2979 91.9325 68.1099 91.9083 68.1059Z" fill="#263238"/>
<path d="M106.874 89.0299C106.85 89.0299 106.643 85.2659 106.413 80.6299C106.182 75.9939 106.016 72.2 106.042 72.2C106.068 72.2 106.272 75.964 106.503 80.6119C106.733 85.2599 106.9 89.0279 106.874 89.0299Z" fill="#263238"/>
<g opacity="0.3">
<path d="M95.2172 85.1539C99.8123 82.7359 103.49 78.4799 106.657 73.9399C108.096 71.8779 109.034 69.5519 109.096 66.9039C104.78 73.2339 100.027 79.2299 95.2172 85.1539Z" fill="black"/>
</g>
<path d="M108.214 55.116C108.143 55.0355 108.076 54.95 108.014 54.86C107.837 54.6263 107.647 54.4058 107.446 54.2C106.783 53.5159 105.993 53.016 105.137 52.7387C104.28 52.4613 103.381 52.4139 102.506 52.6C102.241 52.6541 101.979 52.7282 101.722 52.822C101.629 52.8619 101.535 52.8953 101.438 52.922C101.459 52.9039 101.483 52.8897 101.507 52.88C101.554 52.858 101.622 52.82 101.712 52.784C101.966 52.6744 102.228 52.5888 102.494 52.528C103.378 52.3192 104.292 52.357 105.161 52.638C106.03 52.9191 106.828 53.4354 107.489 54.144C107.689 54.356 107.874 54.586 108.042 54.832C108.103 54.918 108.144 54.99 108.174 55.032C108.19 55.0578 108.204 55.0861 108.214 55.116Z" fill="#263238"/>
<path d="M97.4133 55.9999C97.3953 56.0524 97.3739 56.1032 97.3492 56.1519L97.1516 56.5759C96.9783 56.9499 96.7183 57.4699 96.4132 58.1019L96.3629 58.2039L96.3473 58.0879C96.2017 57.0579 96.018 55.7539 95.8169 54.3339L95.602 52.7779H95.6869L94.7665 55.9139C94.6504 56.2939 94.5585 56.5999 94.4892 56.8239L94.4112 57.0659C94.3939 57.1219 94.3835 57.1499 94.38 57.1479C94.383 57.1186 94.3888 57.0897 94.3973 57.0619L94.4615 56.8139L94.7128 55.8939C94.9381 55.0939 95.2484 54.0059 95.6037 52.7459L95.6609 52.5459L95.6887 52.7459C95.758 53.2359 95.8308 53.7619 95.9071 54.3019C96.0995 55.7219 96.278 57.0279 96.4271 58.0579L96.3595 58.0439L97.1256 56.5359L97.3405 56.1239C97.3615 56.0801 97.3859 56.0386 97.4133 55.9999Z" fill="#263238"/>
<path d="M78.7592 67.7499L75.998 65.6439C75.998 65.6439 73.4673 61.7339 72.9352 61.4179C72.4031 61.1019 70.1255 59.2179 70.1255 59.2179L65.8667 59.4919C65.7378 59.6674 65.6568 59.8828 65.6337 60.1113C65.6105 60.3397 65.6464 60.5709 65.7367 60.7759C65.7367 60.7759 64.8579 61.8719 65.364 62.7559C65.364 62.7559 64.4592 63.3099 65.1803 64.1899C65.5876 64.6859 65.728 64.8199 65.7748 64.8419C65.6916 65.0419 65.2323 66.1919 65.6448 66.5819C66.3064 67.1346 67.0347 67.5726 67.8063 67.8819C67.9482 67.9301 68.0983 67.937 68.2432 67.9021C68.388 67.8673 68.5231 67.7916 68.6365 67.6819L69.9712 68.4299C69.9712 68.4299 72.0113 69.8719 73.2143 70.1819L73.9787 70.2839L76.596 72.4659C77.6672 71.1179 78.4663 69.5999 78.7592 67.7499Z" fill="#705142"/>
<path d="M65.6933 60.6439C65.924 61.4905 66.3021 62.2738 66.8044 62.9459C66.8647 63.0322 66.9419 63.1008 67.0297 63.1459C67.2603 63.2419 67.5012 63.0079 67.6 62.7459C67.6744 62.5117 67.7015 62.2609 67.6793 62.0128C67.6571 61.7646 67.5861 61.5256 67.4717 61.3139C67.2603 60.8819 67.1545 60.5279 66.9015 60.1499" fill="#705142"/>
<path d="M66.9067 60.1539C66.9629 60.2126 67.0119 60.2799 67.0523 60.3539C67.165 60.5538 67.2669 60.7615 67.3573 60.9759C67.4215 61.1099 67.4891 61.2559 67.5619 61.4099C67.6375 61.5825 67.6901 61.7672 67.7179 61.9579C67.7514 62.1705 67.7443 62.3889 67.6971 62.5979C67.6749 62.7134 67.6327 62.8224 67.5731 62.9187C67.5136 63.0149 67.4378 63.0963 67.3504 63.1579C67.3018 63.1894 67.248 63.2088 67.1925 63.215C67.137 63.2212 67.081 63.2141 67.028 63.1939C66.9334 63.1471 66.8505 63.0735 66.7871 62.9799C66.6613 62.8259 66.5454 62.6615 66.4404 62.4879C66.2658 62.1952 66.1149 61.8846 65.9897 61.5599C65.9036 61.3426 65.8272 61.1203 65.7609 60.8939C65.7323 60.8129 65.712 60.7284 65.7003 60.6419C65.7364 60.7185 65.7677 60.7981 65.7939 60.8799C65.8511 61.0339 65.9325 61.2599 66.0469 61.5279C66.1796 61.8429 66.3338 62.1452 66.508 62.4319C66.6118 62.6 66.7247 62.7603 66.846 62.9119C66.9015 62.9917 66.9728 63.0549 67.054 63.0959C67.0949 63.1114 67.1382 63.1166 67.181 63.1111C67.2237 63.1056 67.265 63.0895 67.3019 63.0639C67.3802 63.0103 67.4482 62.9388 67.5018 62.8539C67.5554 62.769 67.5936 62.6724 67.6139 62.5699C67.6592 62.3743 67.6674 62.1696 67.6381 61.9699C67.6126 61.7884 67.5647 61.6119 67.496 61.4459C67.4301 61.2919 67.3573 61.1439 67.3036 61.0079C67.1909 60.7339 67.0991 60.5179 67.0228 60.3739C66.9465 60.2299 66.9067 60.1579 66.9067 60.1539Z" fill="#523729"/>
<path d="M67.3539 63.088C67.3741 63.097 67.3928 63.1098 67.4093 63.126C67.4605 63.1653 67.5091 63.2087 67.5549 63.256C67.7234 63.4328 67.8601 63.6462 67.9571 63.884C68.1008 64.2394 68.1669 64.6302 68.1495 65.0219C68.1451 65.1423 68.1193 65.2604 68.0737 65.3688C68.028 65.4772 67.9636 65.5736 67.8843 65.652C67.7952 65.7384 67.6826 65.7858 67.5662 65.7858C67.4498 65.7858 67.3372 65.7384 67.2481 65.652C67.0871 65.4891 66.9423 65.3059 66.8165 65.106C66.69 64.92 66.5721 64.736 66.4699 64.558C66.2584 64.206 66.0677 63.888 65.9048 63.612C65.7419 63.336 65.6084 63.13 65.5131 62.984C65.4593 62.9116 65.4112 62.834 65.3692 62.752C65.4332 62.811 65.4914 62.8781 65.5425 62.952C65.6465 63.09 65.7904 63.298 65.9585 63.562L66.5392 64.494C66.649 64.67 66.7645 64.85 66.8859 65.034C67.0087 65.2257 67.1481 65.4026 67.3019 65.562C67.378 65.6327 67.4728 65.6715 67.5705 65.6719C67.6656 65.6675 67.7569 65.6275 67.8305 65.558C67.9009 65.4891 67.9582 65.4041 67.9988 65.3084C68.0394 65.2127 68.0623 65.1084 68.0663 65.002C68.0837 64.6247 68.0243 64.248 67.8929 63.902C67.8037 63.6686 67.6787 63.4558 67.5237 63.274C67.4267 63.158 67.3487 63.096 67.3539 63.088Z" fill="#523729"/>
<path d="M68.1287 64.7999C68.1539 64.8053 68.1784 64.8147 68.2015 64.8279C68.2689 64.8601 68.3348 64.8961 68.3991 64.9359C68.635 65.0874 68.8485 65.2811 69.0317 65.5099C69.318 65.8438 69.4967 66.2807 69.5379 66.7479C69.5656 67.0333 69.4967 67.3199 69.3455 67.5479C69.3029 67.6083 69.2504 67.6581 69.1908 67.6946C69.1312 67.731 69.0659 67.7532 68.9988 67.7599C68.862 67.7629 68.7275 67.719 68.6123 67.6339C68.2126 67.3128 67.8343 66.9579 67.4804 66.5719L66.6137 65.6459C66.3659 65.3839 66.1613 65.1759 66.0175 65.0359C65.939 64.9675 65.8648 64.8926 65.7956 64.8119C65.8195 64.8232 65.8417 64.8388 65.8615 64.8579C65.9031 64.8899 65.9637 64.9379 66.0348 65.0039C66.1856 65.1359 66.3988 65.3339 66.6536 65.5899L67.5376 66.5019C67.8916 66.8776 68.2668 67.2257 68.6608 67.5439C68.76 67.6193 68.8766 67.6583 68.9953 67.6559C69.0511 67.6513 69.1054 67.6334 69.1549 67.6035C69.2044 67.5735 69.248 67.5322 69.2831 67.4819C69.4172 67.2748 69.479 67.0171 69.4564 66.7599C69.4191 66.3102 69.2526 65.8878 68.9832 65.5599C68.7382 65.2519 68.4492 64.9949 68.1287 64.7999Z" fill="#523729"/>
<path d="M78.9464 65.6959C78.951 65.7317 78.951 65.7681 78.9464 65.8039V66.1159C78.9464 66.1859 78.9464 66.2599 78.9464 66.3419L78.9273 66.6099C78.9157 66.8277 78.8943 67.0447 78.8632 67.2599C78.8476 67.3819 78.8303 67.5059 78.8129 67.6379C78.7956 67.7699 78.7627 67.9019 78.7367 68.0379C78.6899 68.3179 78.6032 68.6079 78.5269 68.9179C78.3337 69.5792 78.081 70.2153 77.7729 70.8159C77.4596 71.4142 77.0829 71.9651 76.6515 72.4559L76.3533 72.7759C76.2528 72.8759 76.1488 72.9619 76.0517 73.0519C75.8697 73.2145 75.6793 73.3641 75.4815 73.4999C75.4381 73.5319 75.3948 73.5659 75.3515 73.5939L75.2215 73.6699L74.9823 73.8119C74.8553 73.8892 74.7239 73.956 74.5888 74.0119L74.3357 74.1219C74.3072 74.1371 74.2768 74.1472 74.2456 74.1519C74.2718 74.132 74.2997 74.1152 74.3288 74.1019L74.5749 73.9739C74.7071 73.9132 74.8357 73.8423 74.9597 73.7619L75.1937 73.6179L75.3203 73.5379C75.3636 73.5079 75.4052 73.4739 75.4485 73.4419C75.6418 73.3029 75.8276 73.1506 76.0049 72.9859C76.1003 72.8979 76.2025 72.8099 76.2996 72.7119L76.5925 72.3919C77.016 71.9032 77.3867 71.3572 77.6967 70.7659C78.0008 70.171 78.2528 69.5425 78.4489 68.8899C78.5252 68.5859 78.6136 68.2999 78.6639 68.0219C78.6916 67.8839 78.7176 67.7499 78.7453 67.6219C78.7731 67.4939 78.7835 67.3679 78.8008 67.2499C78.8407 67.0119 78.858 66.7939 78.8771 66.6039C78.8857 66.5099 78.8961 66.4219 78.9031 66.3379C78.91 66.2539 78.9031 66.1839 78.9135 66.1139C78.9221 65.9899 78.9273 65.8859 78.9325 65.8039C78.933 65.7674 78.9377 65.7311 78.9464 65.6959Z" fill="#263238"/>
<path d="M70.2468 60.984C71.9299 60.516 73.1623 59.254 73.4691 56.784C73.8019 54.084 72.1188 49.584 72.1188 49.584L69.0629 49.644L66.4629 49.716C66.4629 49.716 64.9029 54.26 65.3051 56.948C65.7072 59.636 67.1753 60.856 69.1028 61.162H69.1323L69.3056 61.508L69.4789 69.468L67.7699 70.268C67.753 70.2796 67.7398 70.2971 67.7321 70.3179C67.7243 70.3386 67.7224 70.3617 67.7266 70.3838C67.7308 70.4059 67.7409 70.4259 67.7555 70.441C67.7701 70.4561 67.7885 70.4656 67.808 70.468L72.1708 70.378C72.1928 70.3776 72.214 70.3684 72.2307 70.3518C72.2473 70.3352 72.2584 70.3123 72.2619 70.2873C72.2654 70.2622 72.2612 70.2365 72.2499 70.2147C72.2386 70.1929 72.2211 70.1763 72.2003 70.168L70.2555 69.4L70.0821 61.446L70.2468 60.984Z" fill="white"/>
<path d="M70.2468 60.984C70.2468 60.984 70.2347 61.026 70.2069 61.104C70.1792 61.182 70.1376 61.304 70.0821 61.46C70.1064 62.544 70.174 65.366 70.2693 69.412L70.2485 69.38L72.0772 70.098L72.1985 70.146C72.2261 70.1582 72.2492 70.1811 72.2638 70.2107C72.2785 70.2404 72.2838 70.2749 72.2789 70.3086C72.274 70.3422 72.2592 70.3728 72.237 70.3953C72.2147 70.4178 72.1865 70.4308 72.1569 70.432H72.0269L71.5069 70.444L70.4236 70.468L68.1339 70.52H67.8357C67.8064 70.5253 67.7766 70.5253 67.7473 70.52C67.7302 70.5136 67.7145 70.5029 67.7013 70.4887C67.6881 70.4746 67.6778 70.4572 67.6711 70.438C67.664 70.4196 67.6601 70.3998 67.6598 70.3797C67.6594 70.3596 67.6626 70.3397 67.669 70.321C67.6755 70.3024 67.6852 70.2854 67.6974 70.2711C67.7097 70.2569 67.7243 70.2456 67.7404 70.238L68.302 69.97L69.4477 69.428L69.4235 69.474C69.3697 67.016 69.3143 64.326 69.2501 61.514V61.538L69.0768 61.192L69.1167 61.218H69.0803C68.5839 61.145 68.099 60.9915 67.6399 60.762C67.1681 60.5195 66.7422 60.1722 66.3867 59.74C65.8463 59.0511 65.4784 58.2056 65.3224 57.294C65.1682 56.4123 65.1529 55.5058 65.2773 54.618C65.3845 53.7596 65.5408 52.9104 65.7453 52.076C65.9447 51.256 66.1683 50.46 66.4248 49.694L66.4352 49.664H66.4629L69.394 49.588L72.1223 49.538H72.1465L72.1569 49.564C72.4791 50.4608 72.758 51.3775 72.9924 52.31C73.2093 53.1479 73.3704 54.0037 73.4743 54.87C73.573 55.6322 73.5613 56.4081 73.4396 57.166C73.3364 57.8081 73.1319 58.4229 72.8364 58.98C72.596 59.4275 72.2843 59.8184 71.9177 60.132C71.6508 60.3618 71.3596 60.5513 71.0511 60.696L70.8777 60.78L70.7183 60.84C70.6366 60.8741 70.5532 60.9028 70.4687 60.926L70.2624 60.984C70.2624 60.984 70.33 60.958 70.4652 60.914C70.5328 60.894 70.616 60.862 70.7131 60.822L70.8708 60.758L71.0441 60.672C71.3526 60.5246 71.6437 60.3331 71.9108 60.102C72.2709 59.7878 72.5766 59.3984 72.8121 58.954C73.1015 58.4001 73.3012 57.7902 73.4015 57.154C73.5186 56.4027 73.5268 55.6343 73.4257 54.88C73.2333 53.258 72.7653 51.468 72.0997 49.598L72.1344 49.624L69.4061 49.68L66.4768 49.76L66.5149 49.73C66.2619 50.49 66.0383 51.286 65.8424 52.102C65.6385 52.9323 65.4833 53.7776 65.3779 54.632C65.2554 55.5079 65.2701 56.402 65.4212 57.272C65.573 58.1659 65.9324 58.9955 66.4612 59.672C66.8146 60.0953 67.2361 60.435 67.7023 60.672C68.1539 60.8966 68.6306 61.0474 69.1184 61.12H69.16L69.1739 61.146L69.3472 61.494V61.504V61.518C69.4044 64.328 69.4599 67.02 69.5084 69.476V69.51L69.4824 69.522L68.3332 70.064L67.7733 70.314C67.7664 70.317 67.7602 70.3216 67.755 70.3276C67.7497 70.3336 67.7457 70.3408 67.7431 70.3488C67.7404 70.3567 67.7393 70.3652 67.7398 70.3737C67.7402 70.3822 67.7422 70.3904 67.7456 70.398C67.7612 70.432 67.7768 70.436 67.8357 70.432H68.1339L70.4236 70.388L71.5069 70.366L72.0269 70.356H72.1569C72.1704 70.3557 72.1834 70.3499 72.1935 70.3396C72.2037 70.3294 72.2104 70.3153 72.2124 70.3C72.2146 70.2844 72.2123 70.2685 72.2056 70.2547C72.199 70.2409 72.1886 70.2301 72.176 70.224L72.0564 70.178L70.2312 69.452H70.2104V69.426C70.1393 65.378 70.0873 62.556 70.0683 61.472C70.1272 61.316 70.1723 61.2 70.2017 61.118L70.2468 60.984Z" fill="#263238"/>
<path d="M73.1623 56.61C72.8589 59.058 71.5589 60.2 69.8187 60.524H69.7927V60.566L69.1999 60.582C67.4509 60.304 66.1197 59.198 65.7523 56.76C65.7523 56.76 66.404 55.68 67.4735 55.524C68.6348 55.354 69.0577 56.71 70.4323 56.95C71.4584 57.13 73.1623 56.61 73.1623 56.61Z" fill="#C53F3F"/>
<path d="M72.2644 49.614C72.2008 49.6691 72.1329 49.7173 72.0616 49.758C71.9821 49.8139 71.8992 49.8633 71.8137 49.906C71.7009 49.9709 71.5852 50.029 71.4671 50.08C71.1682 50.2149 70.8604 50.3219 70.5467 50.4C70.1607 50.4967 69.768 50.5536 69.3732 50.57C68.9783 50.5798 68.5834 50.5503 68.1928 50.482C67.8745 50.4228 67.5609 50.3339 67.2551 50.216C67.1233 50.172 67.0089 50.114 66.9084 50.068C66.8213 50.0299 66.7362 49.9858 66.6536 49.936C66.5803 49.9003 66.5101 49.8568 66.4439 49.806C66.4439 49.786 66.7559 49.964 67.2759 50.146C67.5807 50.2518 67.8918 50.332 68.2067 50.386C68.9794 50.5196 69.7666 50.4925 70.5311 50.306C70.8428 50.2308 71.1493 50.1292 71.448 50.002C71.9628 49.8 72.2557 49.6 72.2644 49.614Z" fill="#263238"/>
<path d="M70.4028 59.986C70.0761 60.1577 69.7183 60.2359 69.3598 60.214C69.0013 60.1921 68.6527 60.0706 68.3436 59.86C68.6744 59.9885 69.017 60.0724 69.3645 60.11C69.7136 60.1141 70.0619 60.0725 70.4028 59.986Z" fill="white"/>
<path d="M67.4769 59.4499C67.4078 59.3899 67.3435 59.3229 67.2845 59.2499C67.2095 59.1688 67.14 59.0812 67.0765 58.9879C66.9872 58.87 66.9044 58.7458 66.8287 58.6159L66.6969 58.3879C66.6536 58.3079 66.6155 58.2199 66.5721 58.1299C66.4817 57.9355 66.4013 57.7352 66.3312 57.5299C66.18 57.0615 66.0742 56.5752 66.0157 56.0799C65.9233 55.1785 65.9496 54.2662 66.0937 53.3739C66.1492 53.0339 66.2029 52.7599 66.248 52.5739C66.2661 52.4753 66.2922 52.3788 66.326 52.2859C66.3184 52.3857 66.3039 52.4847 66.2827 52.5819C66.2463 52.7719 66.2029 53.0459 66.1579 53.3819C66.033 54.2681 66.0155 55.1701 66.1059 56.0619C66.1631 56.5495 66.2648 57.0288 66.4092 57.4919C66.4766 57.6917 66.553 57.8873 66.638 58.0779C66.6796 58.1659 66.716 58.2559 66.7576 58.3359L66.8824 58.5619C67.2117 59.1439 67.4925 59.4319 67.4769 59.4499Z" fill="white"/>
<path d="M72.4533 61.932L67.6191 62.212C67.6485 63.052 68.2673 63.744 68.9572 64.012C69.6471 64.28 70.3976 64.238 71.1273 64.184C70.9395 65.0268 71.0119 65.9187 71.332 66.7067C71.6521 67.4946 72.1999 68.1294 72.8815 68.502" fill="#705142"/>
<path d="M72.8763 68.5099C72.8484 68.5021 72.8216 68.49 72.7965 68.4739C72.7463 68.4439 72.6683 68.4119 72.5747 68.3479C72.3042 68.169 72.0597 67.9423 71.8501 67.6759C71.5267 67.2678 71.2831 66.7842 71.136 66.2579C70.9415 65.5858 70.9222 64.8626 71.0805 64.1779L71.1239 64.2399C70.7429 64.2771 70.3604 64.2898 69.9781 64.2779C69.562 64.2703 69.1506 64.1741 68.7648 63.9939C68.4395 63.8334 68.1524 63.5851 67.9276 63.2699C67.7112 62.972 67.583 62.6019 67.5619 62.2139V62.1639H67.6035L71.0701 61.9819L72.0737 61.9379H72.3424C72.3735 61.9336 72.4049 61.9336 72.436 61.9379C72.4052 61.9458 72.3739 61.9505 72.3424 61.9519L72.0755 61.9759L71.0719 62.0479L67.6052 62.2659L67.6451 62.2159C67.6651 62.5834 67.7866 62.9338 67.9917 63.2159C68.2079 63.5176 68.4837 63.755 68.796 63.9079C69.1687 64.082 69.5658 64.1762 69.9677 64.1859C70.347 64.1977 70.7265 64.187 71.1048 64.1539H71.1637L71.1481 64.2199C70.9907 64.8863 71.0058 65.5913 71.1915 66.2479C71.3311 66.7649 71.5638 67.242 71.8744 67.6479C72.0756 67.9134 72.3092 68.1438 72.5677 68.3319C72.774 68.4459 72.8797 68.5039 72.8763 68.5099Z" fill="#523729"/>
<path d="M64.4609 45.8519C64.4401 45.8679 63.9409 45.0339 63.3464 43.9879C62.7519 42.9419 62.2856 42.0819 62.3064 42.0679C62.3272 42.0539 62.8264 42.8859 63.4209 43.9319C64.0155 44.9779 64.48 45.8359 64.4609 45.8519Z" fill="#263238"/>
<path d="M66.196 45.644C66.1747 45.5441 66.1602 45.4425 66.1527 45.34C66.1319 45.14 66.1024 44.86 66.0712 44.506C66.0088 43.802 65.9325 42.828 65.8684 41.75C65.8043 40.672 65.7644 39.694 65.7436 38.986C65.7332 38.632 65.728 38.346 65.7263 38.148C65.7177 38.0455 65.7177 37.9424 65.7263 37.84C65.7426 37.9409 65.7519 38.0433 65.754 38.146C65.7661 38.362 65.7817 38.644 65.8008 38.982C65.8407 39.706 65.8927 40.674 65.9516 41.742C66.0105 42.81 66.0816 43.776 66.1249 44.5C66.1457 44.838 66.1648 45.12 66.1787 45.336C66.1928 45.4378 66.1986 45.5409 66.196 45.644Z" fill="#263238"/>
<path d="M69.8204 41.3359C69.742 41.5801 69.6384 41.8124 69.5119 42.0279C69.3004 42.4439 69.0023 43.0119 68.6643 43.6279C68.3263 44.2439 68.016 44.8099 67.7872 45.2099C67.6711 45.4099 67.5775 45.5719 67.5116 45.6839C67.4806 45.7442 67.4427 45.7993 67.3989 45.8479C67.4191 45.7822 67.4465 45.7197 67.4804 45.6619C67.5515 45.5259 67.6347 45.3619 67.7317 45.1719C67.9484 44.7599 68.2517 44.1959 68.588 43.5719L69.4547 41.9839C69.5587 41.7959 69.6471 41.6379 69.7199 41.5039C69.7506 41.4458 69.7842 41.3897 69.8204 41.3359Z" fill="#263238"/>
<path d="M53.7784 35.1799H7.83294V89.5759H53.7784V35.1799Z" fill="#FAFAFA"/>
<path d="M53.7784 89.576C53.7784 89.19 53.7628 67.776 53.7403 35.176L53.7784 35.222H7.84507L7.89014 35.17C7.89014 55.118 7.89014 73.794 7.89014 89.57L7.852 89.526L53.7975 89.57L7.852 89.616H7.8V89.57C7.8 73.798 7.8 55.122 7.8 35.17V35.118H7.85027H53.7836H53.8235V35.162C53.794 67.768 53.7801 89.2 53.7784 89.576Z" fill="#263238"/>
<path d="M10.8351 37.9C10.8445 38.0709 10.8091 38.2411 10.7336 38.3885C10.6581 38.5359 10.546 38.6537 10.4117 38.7267C10.2775 38.7996 10.1273 38.8243 9.98074 38.7975C9.83418 38.7708 9.69797 38.6938 9.58979 38.5766C9.48161 38.4594 9.40647 38.3074 9.3741 38.1403C9.34174 37.9732 9.35365 37.7987 9.4083 37.6395C9.46295 37.4804 9.5578 37.3438 9.68055 37.2476C9.8033 37.1514 9.94828 37.1 10.0967 37.1C10.2863 37.0941 10.4703 37.1748 10.6086 37.3247C10.7469 37.4745 10.8283 37.6813 10.8351 37.9Z" fill="#E0E0E0"/>
<path d="M13.0988 37.9C13.1082 38.0709 13.0728 38.2411 12.9973 38.3885C12.9219 38.5359 12.8097 38.6537 12.6754 38.7267C12.5412 38.7996 12.391 38.8243 12.2445 38.7975C12.0979 38.7708 11.9617 38.6938 11.8535 38.5766C11.7453 38.4594 11.6702 38.3074 11.6378 38.1403C11.6055 37.9732 11.6174 37.7987 11.672 37.6395C11.7267 37.4804 11.8215 37.3438 11.9443 37.2476C12.067 37.1514 12.212 37.1 12.3604 37.1C12.55 37.0941 12.734 37.1748 12.8723 37.3247C13.0106 37.4745 13.092 37.6813 13.0988 37.9Z" fill="#E0E0E0"/>
<path d="M15.3625 37.9C15.3719 38.0709 15.3366 38.2411 15.2611 38.3885C15.1856 38.5359 15.0734 38.6537 14.9392 38.7267C14.8049 38.7996 14.6548 38.8243 14.5082 38.7975C14.3616 38.7708 14.2254 38.6938 14.1173 38.5766C14.0091 38.4594 13.9339 38.3074 13.9016 38.1403C13.8692 37.9732 13.8811 37.7987 13.9358 37.6395C13.9904 37.4804 14.0853 37.3438 14.208 37.2476C14.3308 37.1514 14.4757 37.1 14.6241 37.1C14.8138 37.0941 14.9978 37.1748 15.1361 37.3247C15.2743 37.4745 15.3557 37.6813 15.3625 37.9Z" fill="#E0E0E0"/>
<path d="M53.7784 40.124C53.7784 40.152 43.4928 40.176 30.8065 40.176C18.1203 40.176 7.83294 40.152 7.83294 40.124C7.83294 40.096 18.1168 40.072 30.8065 40.072C43.4963 40.072 53.7784 40.094 53.7784 40.124Z" fill="#E0E0E0"/>
<path d="M40.1007 57.7039C40.0313 56.4779 40.4248 55.2899 40.7749 54.1299C41.9189 50.3299 43.1583 43.4299 43.4755 39.4299L37.1505 44.7719C35.5042 49.1186 34.5642 53.7773 34.3772 58.5159C34.3044 60.4059 34.3564 62.3339 34.8608 64.1339C35.3652 65.9339 36.3705 67.6099 37.8248 68.4819C38.7695 69.0499 39.9499 69.2379 40.8928 68.6679C41.8357 68.0979 42.3488 66.9159 42.4303 65.7239C42.5117 64.5319 42.1893 63.3459 41.7369 62.2699C41.1095 60.7779 40.1943 59.3599 40.1007 57.7039Z" fill="#263238"/>
<path d="M29.1044 34.244C29.1556 33.7917 29.3519 33.378 29.6545 33.0844C29.957 32.7908 30.344 32.6387 30.7389 32.658L38.5615 29.858C41.2568 29.996 43.3039 35.898 43.0681 38.998C42.8099 42.444 41.964 46.506 41.2811 48.998C39.91 53.998 36.9061 53.65 36.9061 53.65L35.0931 61.792L26.4611 60.492L29.1044 34.244Z" fill="#855747"/>
<path d="M41.6693 42.6C41.6486 42.7713 41.5706 42.9264 41.4521 43.0322C41.3335 43.1379 41.1838 43.186 41.0349 43.166C40.9616 43.1603 40.89 43.1376 40.8244 43.0994C40.7588 43.0611 40.7005 43.008 40.653 42.9433C40.6055 42.8786 40.5697 42.8036 40.5478 42.7226C40.5258 42.6417 40.5182 42.5564 40.5253 42.472C40.5461 42.3008 40.6241 42.1457 40.7426 42.0399C40.8612 41.9341 41.0109 41.8861 41.1597 41.906C41.2331 41.9118 41.3047 41.9345 41.3703 41.9727C41.4359 42.011 41.4942 42.064 41.5417 42.1287C41.5892 42.1934 41.625 42.2685 41.6469 42.3495C41.6688 42.4304 41.6765 42.5156 41.6693 42.6Z" fill="#263238"/>
<path d="M41.9761 41.2C41.9068 41.254 41.4683 41.104 40.8512 41.168C40.2341 41.232 39.7869 41.464 39.7193 41.426C39.6864 41.41 39.7575 41.32 39.9516 41.214C40.2382 41.0683 40.5442 40.9797 40.8564 40.952C41.157 40.9159 41.4607 40.9437 41.7525 41.034C41.9467 41.106 42.0108 41.182 41.9761 41.2Z" fill="#263238"/>
<path d="M35.9545 41.648C35.9334 41.8194 35.8551 41.9745 35.7362 42.0803C35.6174 42.186 35.4675 42.234 35.3184 42.214C35.2451 42.2083 35.1735 42.1856 35.1079 42.1473C35.0423 42.1091 34.984 42.056 34.9365 41.9913C34.8889 41.9266 34.8532 41.8515 34.8312 41.7706C34.8093 41.6896 34.8017 41.6044 34.8088 41.52C34.8295 41.3488 34.9075 41.1937 35.0261 41.0879C35.1446 40.9821 35.2943 40.9341 35.4432 40.954C35.5167 40.9595 35.5885 40.982 35.6543 41.0201C35.7201 41.0583 35.7786 41.1113 35.8263 41.176C35.874 41.2408 35.9099 41.3159 35.9319 41.397C35.954 41.4781 35.9617 41.5634 35.9545 41.648Z" fill="#263238"/>
<path d="M35.9424 40.54C35.8523 40.564 35.464 40.196 34.8192 39.974C34.1744 39.752 33.6405 39.786 33.5851 39.712C33.5591 39.678 33.6613 39.618 33.8971 39.596C34.2378 39.576 34.5789 39.6268 34.9041 39.746C35.2189 39.8508 35.5131 40.0247 35.7708 40.258C35.9459 40.42 35.9857 40.532 35.9424 40.54Z" fill="#263238"/>
<path d="M37.5059 45.7439C37.5059 45.7019 37.8993 45.6919 38.5268 45.7079C38.6863 45.7179 38.8388 45.7079 38.8735 45.5879C38.9101 45.4041 38.898 45.2118 38.8388 45.0359C38.7469 44.5739 38.6533 44.0899 38.5545 43.5819C38.168 41.5139 37.9115 39.8239 37.9843 39.8059C38.0571 39.7879 38.4297 41.4519 38.8163 43.5199C38.9087 44.0279 38.9965 44.5139 39.0797 44.9779C39.1127 45.1939 39.1837 45.4439 39.0676 45.6999C39.0368 45.7598 38.9946 45.8108 38.9441 45.8489C38.8936 45.887 38.8363 45.9113 38.7764 45.9199C38.6866 45.9332 38.5958 45.9332 38.506 45.9199C37.8889 45.8479 37.5024 45.7839 37.5059 45.7439Z" fill="#263238"/>
<path d="M36.9027 53.69C34.8088 53.3636 32.8346 52.3728 31.2 50.828C31.2 50.828 32.084 54.802 36.5872 55.094L36.9027 53.69Z" fill="#814F40"/>
<path d="M37.18 47.444C36.946 46.866 36.5335 46.434 36.1227 46.338C35.9843 46.2989 35.8389 46.3087 35.7053 46.3661C35.5718 46.4235 35.4563 46.5259 35.3739 46.66C35.2809 46.8398 35.2272 47.0429 35.2172 47.2519C35.2072 47.4609 35.2414 47.6696 35.3167 47.86C35.3869 48.0595 35.5066 48.2306 35.6608 48.3519C35.815 48.4732 35.9967 48.5394 36.1833 48.542C36.4971 48.528 36.7675 48.316 37.0257 48.1C37.1044 48.0445 37.1694 47.9667 37.2147 47.874C37.2391 47.815 37.2518 47.7504 37.2518 47.685C37.2518 47.6196 37.2391 47.555 37.2147 47.496" fill="#814F40"/>
<path d="M35.6391 45.92C35.7396 45.93 35.6391 46.696 36.14 47.34C36.6409 47.984 37.3533 48.022 37.3533 48.14C37.3533 48.19 37.18 48.262 36.8767 48.22C36.4867 48.1575 36.128 47.9396 35.8627 47.604C35.6087 47.2799 35.4738 46.8546 35.4865 46.418C35.4952 46.084 35.594 45.906 35.6391 45.92Z" fill="#263238"/>
<path d="M36.7813 37.692C36.6791 37.862 36.1001 37.596 35.3739 37.492C34.6476 37.388 34.0305 37.436 33.9751 37.24C33.9508 37.146 34.0895 36.998 34.3581 36.884C34.7141 36.7501 35.0918 36.7118 35.4625 36.7721C35.8333 36.8325 36.1871 36.9898 36.4971 37.232C36.7276 37.424 36.8264 37.61 36.7813 37.692Z" fill="#263238"/>
<path d="M42.0489 38.8599C41.9363 39.0319 41.4509 38.8979 40.8755 38.9319C40.3 38.9659 39.8233 39.1179 39.702 38.9559C39.6483 38.8779 39.7159 38.7099 39.9204 38.5399C40.1997 38.3295 40.5246 38.2138 40.8581 38.2059C41.1907 38.1852 41.5215 38.2747 41.8115 38.4639C42.0229 38.6159 42.0992 38.7779 42.0489 38.8599Z" fill="#263238"/>
<path d="M23.1348 46.25C23.7727 44.03 25.7868 36.91 27.9777 33.368C30.1687 29.826 32.3544 28.622 34.3789 28.368C36.4035 28.114 37.9773 29.064 38.7365 30.124C39.4957 31.184 39.5911 34.086 39.5911 34.086C39.5911 34.086 34.3703 34.372 32.3821 37.178C30.0993 40.4 29.4233 42.1 29.4233 42.1L28.5792 43.936C28.5792 43.936 27.7125 52.708 27.6692 54.598L22.5975 66.908C18.7373 63.154 22.4969 48.47 23.1348 46.25Z" fill="#263238"/>
<path d="M39.3467 34.042C39.3467 34.042 42.0732 34.18 42.6019 37.842C42.8411 39.502 42.3731 44.156 42.3731 44.156C42.3731 44.156 43.4495 40.574 43.5864 38.478C43.7233 36.382 43.1669 33.61 41.9848 31.918C40.8339 30.274 39.7956 29.414 37.3828 29.16C37.3828 29.16 38.4367 29.8 38.9099 30.96C39.1404 31.536 39.2149 32 39.3467 34.042Z" fill="#263238"/>
<path d="M29.4199 42.376C29.5204 41.234 28.5532 40.29 27.6259 40.708C27.1163 40.936 26.676 41.508 26.5599 42.708C26.2496 45.936 29.1235 45.63 29.1373 45.538C29.1443 45.482 29.302 43.712 29.4199 42.376Z" fill="#855747"/>
<path d="M28.3989 44.2C28.3885 44.188 28.3469 44.234 28.2603 44.266C28.1387 44.3085 28.0076 44.2948 27.8945 44.228C27.612 44.066 27.4144 43.492 27.4577 42.908C27.4769 42.6303 27.5497 42.361 27.6709 42.12C27.707 42.0229 27.7629 41.9372 27.8338 41.8704C27.9047 41.8035 27.9886 41.7574 28.0783 41.736C28.137 41.7267 28.1968 41.7417 28.2469 41.7783C28.297 41.8149 28.3343 41.8707 28.3521 41.936C28.3799 42.03 28.3521 42.092 28.3712 42.1C28.3903 42.108 28.4353 42.054 28.4267 41.918C28.4186 41.8358 28.3869 41.759 28.3365 41.7C28.2653 41.6242 28.1717 41.5827 28.0748 41.584C27.9573 41.5959 27.8444 41.6422 27.7467 41.7185C27.6491 41.7948 27.5699 41.8986 27.5167 42.02C27.3711 42.2844 27.2836 42.5858 27.2619 42.898C27.2168 43.55 27.4473 44.196 27.8391 44.382C27.9117 44.4173 27.9903 44.4332 28.0689 44.4283C28.1476 44.4235 28.2243 44.3981 28.2932 44.354C28.3868 44.286 28.4093 44.216 28.3989 44.2Z" fill="#814F40"/>
<path d="M35.958 57.2C35.958 57.2 44.0336 67.576 44.0579 71.96C44.0839 76.96 41.7196 81.192 41.7196 81.192L40.1145 89.534L22.3427 89.472C22.6339 85.796 24.908 86.154 24.596 80.978C24.5232 79.778 22.3895 70.03 22.3704 65.26C22.3461 59.65 27.7333 53.28 27.7333 53.28L35.958 57.2Z" fill="#C53F3F"/>
<g opacity="0.3">
<path d="M35.308 75.958C34.8591 75.438 34.3408 74.884 33.7047 74.878C33.2367 74.878 32.8051 75.176 32.3405 75.252C31.5189 75.388 30.7459 74.808 30.0872 74.232C28.1483 72.5681 26.3383 70.7131 24.6775 68.688H24.5995C25.8319 73.458 28.2932 77.954 31.2312 81.6C31.6177 81.2 31.7061 80.54 31.8379 79.954C31.9696 79.368 32.2313 78.722 32.7409 78.576C33.2505 78.43 33.7376 78.846 34.1432 79.226C35.4326 80.4334 36.7931 81.536 38.2148 82.526C38.6481 82.826 39.1075 83.126 39.6119 83.148C40.1163 83.17 40.6692 82.826 40.7628 82.254L35.308 75.958Z" fill="black"/>
</g>
<path d="M36.9027 62.892C37.3221 62.876 40.9587 66.072 40.9587 66.072L36.2267 56.714L30.238 54.474L33.6527 60.524L36.9027 62.892Z" fill="#855747"/>
<path d="M36.972 61C36.5265 59.4 35.6685 57.9 34.3859 57.12C33.2939 56.456 31.8743 56.274 31.1896 55.088C30.6453 54.142 30.7805 52.904 30.6315 51.782C30.3073 49.35 30.2363 45.602 27.2567 45.308L25.3067 50.056C25.0283 50.8181 24.9344 51.6531 25.0348 52.4719C25.1352 53.2908 25.4263 54.0629 25.8769 54.706C26.6309 55.752 27.7437 56.338 28.7352 57.074C32.0285 59.518 34.8019 63.544 37.5752 66.53C37.4989 64.86 37.4157 62.582 36.972 61Z" fill="#263238"/>
<path d="M26.8667 44.952C26.8317 44.9783 26.7952 45.0016 26.7575 45.022L26.6223 45.1L26.4489 45.236C26.2983 45.366 26.1651 45.521 26.0537 45.696C25.9102 45.9312 25.7996 46.1911 25.7261 46.466C25.6365 46.7999 25.5875 47.1466 25.5805 47.496C25.5748 47.689 25.587 47.8821 25.6169 48.072C25.6514 48.2717 25.7098 48.4649 25.7903 48.646C25.9625 49.039 26.2206 49.3733 26.5391 49.616C26.8879 49.8643 27.3056 49.9501 27.7073 49.856C28.113 49.7814 28.4964 49.5925 28.8236 49.306C29.1222 49.0317 29.3407 48.6582 29.4493 48.236C29.5535 47.8553 29.5767 47.4512 29.5169 47.058C29.4662 46.715 29.3515 46.3888 29.1807 46.102C28.9301 45.6843 28.5864 45.3526 28.1857 45.142C28.0374 45.0649 27.8851 44.9982 27.7299 44.942C27.8922 44.9651 28.0506 45.0163 28.1996 45.094C28.6171 45.2939 28.9774 45.6252 29.2396 46.05C29.4197 46.3433 29.5422 46.6785 29.5984 47.032C29.6634 47.4392 29.642 47.8585 29.536 48.254C29.4248 48.6969 29.1971 49.089 28.8843 49.376C28.5465 49.6753 28.1489 49.872 27.7281 49.948C27.5146 49.988 27.2969 49.988 27.0833 49.948C26.8743 49.9091 26.6747 49.8198 26.4975 49.686C26.1672 49.4315 25.9002 49.082 25.7227 48.672C25.6379 48.4827 25.576 48.2808 25.5389 48.072C25.5083 47.8741 25.4973 47.6728 25.506 47.472C25.5155 47.1157 25.5692 46.7628 25.6655 46.424C25.7437 46.1429 25.8608 45.8781 26.0121 45.64C26.1293 45.4639 26.2689 45.3095 26.4264 45.182L26.5997 45.054L26.7401 44.984C26.7812 44.968 26.8236 44.9573 26.8667 44.952Z" fill="white"/>
<path d="M61.7292 61.5579C63.4331 61.2179 64.7313 60.0699 65.1664 57.6659C65.6413 55.0479 64.1975 50.5259 64.1975 50.5259L61.1433 50.3699L58.5433 50.2579C58.5433 50.2579 56.7441 54.5959 57.0076 57.2579C57.2711 59.9199 58.6699 61.2139 60.5783 61.6579H60.6077L60.7568 62.0159L60.4933 69.9619L58.6577 70.6819C58.6416 70.689 58.6279 70.7022 58.6191 70.7194C58.6103 70.7366 58.6068 70.7568 58.6092 70.7765C58.6117 70.7963 58.6198 70.8145 58.6324 70.8283C58.645 70.842 58.6613 70.8503 58.6785 70.8519L63.2303 71.0799C63.2478 71.0802 63.2648 71.0736 63.2786 71.0611C63.2924 71.0486 63.302 71.0311 63.3058 71.0114C63.3097 70.9917 63.3076 70.971 63.2998 70.9529C63.2921 70.9348 63.2791 70.9203 63.2632 70.9119L61.2716 69.9639L61.5333 62.0139L61.7292 61.5579Z" fill="white"/>
<path d="M61.7292 61.558C61.7292 61.558 61.7153 61.598 61.6841 61.674L61.542 62.018C61.5108 63.098 61.4276 65.922 61.308 69.968L61.2889 69.934L63.1315 70.8L63.2528 70.856L63.284 70.872C63.2984 70.8796 63.3114 70.8905 63.3221 70.904C63.3336 70.9181 63.3421 70.9351 63.3472 70.9535C63.3522 70.972 63.3536 70.9915 63.3513 71.0107C63.349 71.0298 63.343 71.0481 63.3337 71.0643C63.3245 71.0804 63.3122 71.094 63.2979 71.104C63.2717 71.1195 63.2422 71.1258 63.2129 71.122H63.0795L62.5387 71.096L61.4224 71.042L59.0581 70.928L58.7513 70.912C58.7236 70.912 58.7028 70.912 58.6699 70.912C58.6502 70.9087 58.6315 70.8996 58.6157 70.8856C58.6 70.8716 58.5876 70.8531 58.5797 70.832C58.5723 70.8109 58.5695 70.7879 58.5716 70.7652C58.5737 70.7425 58.5807 70.7208 58.5919 70.702C58.6139 70.6707 58.6444 70.6489 58.6785 70.64L59.28 70.4L60.4933 69.922L60.4639 69.966C60.5436 67.506 60.6372 64.818 60.7187 62.01V62.034L60.5696 61.678L60.6077 61.706H60.5713C59.722 61.506 58.8224 61.106 58.1447 60.334C57.5745 59.6544 57.192 58.7947 57.0457 57.864C56.8984 56.9648 56.9084 56.0407 57.0752 55.146C57.22 54.2807 57.4223 53.4295 57.6801 52.6C57.9263 51.784 58.2001 51 58.5035 50.242L58.5156 50.214H58.5433L61.4761 50.346L64.1992 50.488H64.2235L64.2321 50.516C64.5075 51.4197 64.739 52.3405 64.9255 53.274C65.0984 54.113 65.2143 54.9662 65.2721 55.826C65.3298 56.5825 65.2747 57.3449 65.1092 58.08C64.9671 58.703 64.7261 59.2903 64.3985 59.812C64.1326 60.2292 63.8002 60.5842 63.4192 60.858C63.1408 61.0622 62.8408 61.2242 62.5265 61.34C62.4131 61.386 62.2973 61.4241 62.1799 61.454C62.0811 61.486 61.9979 61.506 61.9303 61.52L61.724 61.562L61.9268 61.508C61.9938 61.492 62.077 61.468 62.1764 61.436C62.2735 61.408 62.3861 61.368 62.5127 61.316C62.8233 61.1957 63.1197 61.0311 63.3949 60.826C63.77 60.5514 64.0964 60.1971 64.3569 59.782C64.6777 59.2634 64.9128 58.681 65.0503 58.064C65.2114 57.3355 65.263 56.5806 65.2028 55.832C65.1448 54.9762 65.0289 54.1269 64.8561 53.292C64.6687 52.3621 64.4373 51.4447 64.1628 50.544L64.1957 50.572L61.4727 50.436L58.5399 50.31L58.5797 50.282C58.2799 51.032 58.006 51.818 57.7616 52.63C57.507 53.4548 57.3065 54.3005 57.1619 55.16C56.9978 56.0415 56.9878 56.9519 57.1324 57.838C57.2758 58.7492 57.6504 59.5908 58.2088 60.256C58.8657 61.006 59.748 61.41 60.5852 61.6H60.6355L60.6459 61.628L60.7949 61.986V61.998V62C60.7031 64.8 60.6216 67.496 60.5349 69.956V70L60.5072 70.01L59.2939 70.484L58.6993 70.716C58.6716 70.728 58.6595 70.732 58.6543 70.742C58.6512 70.7484 58.6496 70.7557 58.6496 70.763C58.6496 70.7703 58.6512 70.7775 58.6543 70.784C58.6565 70.7906 58.6603 70.7963 58.6652 70.8005C58.6701 70.8048 58.6759 70.8074 58.682 70.808H58.7548L59.0616 70.824L61.4259 70.944L62.5421 71.002L63.0829 71.03H63.2164C63.2615 71.03 63.2719 71.03 63.2805 70.992C63.2818 70.9852 63.2816 70.9781 63.2797 70.9714C63.2779 70.9647 63.2746 70.9587 63.2701 70.954C63.2701 70.944 63.2493 70.938 63.2268 70.926L63.1055 70.868L61.2647 70H61.2456V69.974C61.3877 65.928 61.4883 63.106 61.5264 62.026L61.6772 61.684C61.7067 61.6 61.7292 61.558 61.7292 61.558Z" fill="#263238"/>
<path d="M64.7729 57.2C64.3413 59.622 62.9824 60.67 61.2283 60.87H61.2023V60.914L60.6077 60.888C58.8744 60.488 57.6091 59.288 57.3716 56.828C57.3716 56.828 58.9004 57.08 59.9716 57.126C61.5732 57.194 62.3064 55.96 63.3412 56.004C64.376 56.048 64.7729 57.2 64.7729 57.2Z" fill="#C53F3F"/>
<path d="M64.2408 50.536C64.1808 50.5969 64.1151 50.6499 64.0449 50.694C63.8594 50.8235 63.6659 50.9371 63.466 51.034C62.8019 51.3558 62.084 51.503 61.3645 51.4649C60.645 51.4269 59.9418 51.2045 59.306 50.814C59.114 50.6965 58.9298 50.5628 58.7548 50.414C58.6878 50.3639 58.6266 50.304 58.5728 50.236C58.5832 50.22 58.8484 50.468 59.3355 50.748C59.9682 51.1141 60.6607 51.3225 61.3678 51.3597C62.075 51.3969 62.781 51.2621 63.44 50.964C63.9496 50.736 64.2321 50.518 64.2408 50.536Z" fill="#263238"/>
<path d="M64.3344 57.542C64.321 57.6248 64.2989 57.7054 64.2685 57.782C64.1946 57.9912 64.104 58.192 63.9981 58.382C63.6461 59.0256 63.1437 59.5414 62.5488 59.8701C61.9539 60.1987 61.2907 60.327 60.6355 60.24C60.4386 60.2154 60.2441 60.1692 60.0548 60.102C59.9846 60.0826 59.9169 60.0524 59.8537 60.012C60.1137 60.0817 60.377 60.1331 60.6424 60.166C61.2842 60.2322 61.9296 60.0975 62.5107 59.7762C63.0918 59.4548 63.5871 58.9587 63.9444 58.34C64.0875 58.0828 64.2177 57.8163 64.3344 57.542Z" fill="white"/>
<path d="M30.5067 60.738C28.9137 58.958 25.8925 58.274 24.4573 60.906C24.1731 61.424 24.0621 64.01 24.0864 64.746C24.1991 68.272 25.1645 67.72 26.4853 69.428C27.4369 70.656 39.9603 82.694 42.5273 84.148C45.0944 85.602 46.6769 84.034 46.6769 84.034L55.5308 70.746L53.0903 66.134L44.4115 74.95L30.5067 60.738Z" fill="#855747"/>
<path d="M52.5997 66.698C52.5997 66.698 57.4843 61.854 57.7235 61.826C57.9627 61.798 61.9129 61.974 61.9129 61.974C61.9129 61.974 63.1072 62.34 63.0639 62.9C63.0365 63.2356 62.8995 63.5466 62.6808 63.77C62.875 64.0554 63.0462 64.3606 63.1921 64.682C63.2875 64.966 62.9651 65.53 62.9651 65.53C62.9651 65.53 63.362 65.976 63.3117 66.446C63.288 66.7138 63.1922 66.9662 63.0379 67.168C63.0379 67.168 63.5457 67.456 63.4227 68.042C63.2996 68.628 62.6999 69.794 62.6999 69.794C62.6999 69.794 62.1712 69.704 62.1383 69.244C62.1146 69.011 62.1252 68.775 62.1695 68.546L60.0704 68.972C60.0704 68.972 58.8796 69.824 58.2088 69.972C57.538 70.12 55.2431 71.172 55.2431 71.172L52.5997 66.698Z" fill="#855747"/>
<path d="M62.6843 63.886C62.5703 63.7587 62.4448 63.6461 62.3099 63.55C61.9668 63.3511 61.5835 63.2627 61.2005 63.294C60.7516 63.318 60.3443 63.41 60.0427 63.432C59.8814 63.4581 59.7175 63.454 59.5573 63.42C59.5573 63.404 59.7428 63.404 60.0375 63.358C60.3321 63.312 60.7308 63.216 61.1971 63.188C61.5955 63.1555 61.9934 63.2591 62.3411 63.486C62.4447 63.5579 62.5367 63.6499 62.6132 63.758C62.6669 63.834 62.6895 63.882 62.6843 63.886Z" fill="#814F40"/>
<path d="M63.0933 65.498C62.9449 65.48 62.7978 65.4499 62.6531 65.408C61.9486 65.2562 61.2274 65.2373 60.5176 65.352C60.3711 65.3852 60.2229 65.4073 60.0739 65.418C60.2122 65.349 60.3579 65.3019 60.5072 65.278C60.8636 65.1998 61.2262 65.1656 61.5888 65.176C61.9515 65.1858 62.3122 65.2394 62.6652 65.336C62.8134 65.3683 62.9573 65.4228 63.0933 65.498Z" fill="#814F40"/>
<path d="M63.2008 67.304C63.0722 67.2312 62.9367 67.1761 62.7969 67.14C62.4508 67.0995 62.1016 67.1069 61.7569 67.162C61.3461 67.198 60.9735 67.226 60.7031 67.24C60.5573 67.257 60.4103 67.257 60.2645 67.24C60.4064 67.1979 60.5516 67.1725 60.6979 67.164C60.9665 67.132 61.3392 67.094 61.75 67.056C62.1023 66.9958 62.4603 66.9958 62.8125 67.056C62.9618 67.088 63.098 67.1751 63.2008 67.304Z" fill="#814F40"/>
<path d="M44.9696 78.712C44.944 78.5294 44.9301 78.3449 44.928 78.16C44.9089 77.818 44.8743 77.348 44.8119 76.832C44.7495 76.316 44.668 75.852 44.6039 75.518C44.5619 75.3394 44.5306 75.1576 44.5103 74.974C44.5799 75.1417 44.6323 75.3182 44.6663 75.5C44.8693 76.3665 44.9787 77.2586 44.9921 78.156C45.0033 78.3417 44.9958 78.5283 44.9696 78.712Z" fill="#814F40"/>
<path d="M28.0904 57.332C27.2439 57.1005 26.3533 57.2332 25.5856 57.7053C24.8178 58.1773 24.2256 58.9562 23.92 59.896C23.5984 60.8331 23.4224 61.8283 23.4 62.836C23.4173 65.352 24.1297 67.868 25.6377 70.522C26.9308 72.798 30.7996 78.946 30.7996 78.946L31.3092 77.43C31.4484 77.1479 31.6344 76.9003 31.8566 76.7013C32.0787 76.5022 32.3327 76.3557 32.604 76.27L32.9507 76.166C33.6561 75.95 34.4847 75.74 34.9163 75.064L35.6096 73.568L39.0537 68.21C39.0537 68.21 31.4808 59.51 29.77 58.058C29.3765 57.736 28.5341 57.452 28.0904 57.332Z" fill="#C53F3F"/>
<path d="M39.0399 68.21C39.0208 68.23 37.2372 66.21 35.0532 63.704C32.8692 61.198 31.1133 59.144 31.1307 59.124C31.148 59.104 32.9333 61.124 35.1173 63.63C37.3013 66.136 39.0572 68.2 39.0399 68.21Z" fill="#263238"/>
<path d="M39.0399 68.2099L39.0035 68.2719L38.8925 68.446L38.454 69.1099C38.0692 69.6879 37.4937 70.51 36.8039 71.582C36.4572 72.116 36.0845 72.708 35.7309 73.382C35.6408 73.55 35.5576 73.726 35.4779 73.908L35.2525 74.478C35.0995 74.8888 34.8549 75.2456 34.5436 75.512C34.1964 75.7568 33.8171 75.9352 33.4204 76.04L32.8172 76.24C32.6109 76.293 32.4081 76.3632 32.2105 76.45C31.8223 76.6776 31.5094 77.0457 31.3196 77.4979C31.1123 77.9656 30.9495 78.4578 30.8343 78.9659L30.8083 79.0659L30.7563 78.982L28.2915 75C26.9291 72.764 25.5337 70.692 24.5891 68.57C24.131 67.5721 23.7817 66.5127 23.5491 65.4159C23.3556 64.457 23.2971 63.4684 23.3757 62.488C23.4402 61.6793 23.6097 60.8865 23.8784 60.1359C24.0855 59.5715 24.3597 59.0431 24.6931 58.5659C24.9077 58.2714 25.1482 58.0033 25.4107 57.7659L25.6204 57.5859L25.6932 57.528L25.6256 57.596L25.4211 57.782C25.1647 58.0271 24.9296 58.3004 24.7191 58.5979C24.3937 59.0757 24.1266 59.6026 23.9252 60.164C23.6634 60.9104 23.4992 61.6977 23.4381 62.5C23.3615 63.4718 23.42 64.4515 23.6115 65.402C23.8447 66.4909 24.194 67.5422 24.6515 68.532C25.5944 70.638 26.9897 72.708 28.3539 74.946C29.2084 76.328 30.0369 77.67 30.8152 78.926L30.7372 78.9419C30.8553 78.4274 31.0215 77.9291 31.2329 77.456C31.4312 76.9845 31.7591 76.6019 32.1655 76.368C32.3667 76.278 32.5736 76.2058 32.7843 76.152L33.3857 75.962C33.777 75.8584 34.1511 75.6821 34.4933 75.44C34.7973 75.1835 35.0366 74.8384 35.1867 74.44C35.2647 74.24 35.3392 74.056 35.4155 73.87C35.4917 73.684 35.5888 73.51 35.672 73.34C36.0308 72.662 36.4121 72.074 36.7571 71.54C37.4504 70.48 38.0363 69.6559 38.428 69.0859C38.6221 68.8019 38.7747 68.584 38.8787 68.4299L38.9965 68.262C39.0096 68.2431 39.0241 68.2257 39.0399 68.2099Z" fill="#263238"/>
<path d="M69.7877 32.36L72.7014 32.96L71.2558 30.2C71.873 28.9039 72.1858 27.4441 72.163 25.9654C72.1402 24.4868 71.7827 23.0407 71.1259 21.7708C70.4691 20.5008 69.5359 19.4511 68.4188 18.7259C67.3018 18.0006 66.0399 17.6251 64.7582 17.6365C63.4765 17.6479 62.2197 18.0458 61.1125 18.7908C60.0053 19.5358 59.0863 20.602 58.4465 21.8834C57.8067 23.1649 57.4685 24.6172 57.4655 26.0961C57.4624 27.575 57.7946 29.029 58.4291 30.314L56.7773 33.422L60.1278 32.65C61.4957 33.9621 63.23 34.6566 65.0083 34.6043C66.7866 34.5521 68.488 33.7567 69.7963 32.366L69.7877 32.36Z" fill="#FAFAFA"/>
<path d="M69.8204 32.326C69.8204 32.326 69.7736 32.38 69.6817 32.476C69.5899 32.572 69.4477 32.714 69.2571 32.888C67.9403 34.048 66.3228 34.6616 64.6664 34.6292C63.0099 34.5969 61.4114 33.9207 60.1293 32.71L60.1813 32.654C60.184 32.6583 60.1858 32.6632 60.1868 32.6684C60.1878 32.6735 60.1879 32.6789 60.1871 32.6841C60.1863 32.6893 60.1846 32.6943 60.1821 32.6987C60.1797 32.7032 60.1764 32.707 60.1727 32.71H60.1588L56.8135 33.51C56.8031 33.5124 56.7924 33.5099 56.7836 33.5031C56.7748 33.4964 56.7688 33.4859 56.7667 33.474C56.763 33.4637 56.763 33.4522 56.7667 33.442L58.4133 30.332V30.382C57.6242 28.8166 57.2924 26.9997 57.4669 25.2C57.5567 24.2576 57.7786 23.3383 58.1239 22.478C58.9534 20.472 60.4237 18.9145 62.2267 18.132C63.6085 17.537 65.1131 17.4332 66.5466 17.8339C67.98 18.2345 69.2766 19.1213 70.2693 20.38C70.8604 21.1181 71.3302 21.974 71.656 22.906C71.9513 23.767 72.1279 24.676 72.1795 25.6C72.2657 27.1888 71.9617 28.7735 71.3024 30.172V30.14L72.7567 32.904C72.7598 32.9086 72.7614 32.9142 72.7614 32.92C72.7614 32.9258 72.7598 32.9314 72.7567 32.936C72.7522 32.9378 72.7473 32.9378 72.7428 32.936L70.5761 32.49L70.0197 32.372L69.8291 32.328C69.8291 32.328 69.8915 32.328 70.0163 32.36L70.5727 32.466L72.7497 32.89L72.7289 32.926L71.2625 30.172C71.2599 30.1672 71.2585 30.1617 71.2585 30.156C71.2585 30.1503 71.2599 30.1448 71.2625 30.14C71.9075 28.748 72.2 27.1747 72.1067 25.6C72.0539 24.6869 71.8784 23.7889 71.5867 22.938C71.2634 22.0177 70.7989 21.1722 70.2156 20.442C69.5945 19.6598 68.852 19.0187 68.0264 18.552C67.1546 18.0604 66.2063 17.7755 65.2375 17.714C64.2247 17.646 63.2108 17.821 62.2596 18.228C60.4793 19.0052 59.0284 20.5467 58.2105 22.53C57.8694 23.3796 57.6499 24.2874 57.5605 25.218C57.3872 26.9936 57.7116 28.7867 58.4861 30.334C58.4899 30.3416 58.4919 30.3502 58.4919 30.359C58.4919 30.3678 58.4899 30.3764 58.4861 30.384L56.8481 33.5L56.8065 33.432L60.1536 32.632L60.1311 32.698C60.1246 32.6902 60.121 32.6798 60.121 32.669C60.121 32.6582 60.1246 32.6478 60.1311 32.64C60.1375 32.6342 60.1454 32.631 60.1536 32.631C60.1618 32.631 60.1697 32.6342 60.1761 32.64C61.1678 33.5817 62.3563 34.2065 63.6229 34.4522C64.8894 34.6979 66.1897 34.5557 67.3937 34.04C68.0557 33.7539 68.679 33.3606 69.2449 32.872C69.4373 32.702 69.5829 32.568 69.6765 32.472C69.7701 32.376 69.8204 32.326 69.8204 32.326Z" fill="#263238"/>
<path d="M66.7957 25.772C66.7957 25.9362 66.8379 26.0966 66.9169 26.2331C66.996 26.3696 67.1083 26.476 67.2398 26.5388C67.3712 26.6017 67.5158 26.6181 67.6554 26.5861C67.7949 26.554 67.9231 26.475 68.0237 26.3589C68.1243 26.2428 68.1928 26.0949 68.2206 25.9339C68.2483 25.7729 68.2341 25.6061 68.1796 25.4544C68.1252 25.3027 68.033 25.1731 67.9147 25.0819C67.7964 24.9907 67.6573 24.942 67.5151 24.942C67.3243 24.942 67.1413 25.0295 67.0064 25.1851C66.8715 25.3408 66.7957 25.5519 66.7957 25.772Z" fill="#263238"/>
<path d="M63.9219 25.772C63.9219 25.9363 63.9641 26.0968 64.0432 26.2334C64.1223 26.3699 64.2348 26.4763 64.3663 26.539C64.4979 26.6018 64.6426 26.6181 64.7822 26.5859C64.9218 26.5537 65.0499 26.4745 65.1505 26.3582C65.251 26.2419 65.3194 26.0939 65.3469 25.9327C65.3745 25.7716 65.36 25.6046 65.3053 25.453C65.2506 25.3014 65.1581 25.1719 65.0396 25.0809C64.921 24.99 64.7818 24.9416 64.6395 24.942C64.449 24.9425 64.2665 25.0302 64.1319 25.1858C63.9974 25.3414 63.9219 25.5522 63.9219 25.772Z" fill="#263238"/>
<path d="M61.0549 25.356C60.9834 25.498 60.95 25.6614 60.9589 25.8253C60.9679 25.9893 61.0188 26.1465 61.1052 26.2771C61.1917 26.4076 61.3098 26.5056 61.4445 26.5587C61.5793 26.6117 61.7247 26.6174 61.8622 26.5751C61.9998 26.5327 62.1234 26.4442 62.2174 26.3208C62.3113 26.1973 62.3714 26.0445 62.39 25.8816C62.4086 25.7187 62.3849 25.5531 62.3219 25.4058C62.2589 25.2585 62.1594 25.136 62.036 25.054C61.9545 24.9992 61.8643 24.9635 61.7708 24.949C61.6773 24.9345 61.5822 24.9415 61.491 24.9696C61.3999 24.9976 61.3144 25.0462 61.2395 25.1125C61.1647 25.1789 61.102 25.2616 61.0549 25.356Z" fill="#263238"/>
</svg>
