<svg width="126" height="113" viewBox="0 0 126 113" fill="none" xmlns="http://www.w3.org/2000/svg">
<path d="M63 96.6286C89.9848 96.6286 111.86 95.4832 111.86 94.0703C111.86 92.6574 89.9848 91.512 63 91.512C36.0152 91.512 14.1397 92.6574 14.1397 94.0703C14.1397 95.4832 36.0152 96.6286 63 96.6286Z" fill="#F5F5F5"/>
<path d="M70.245 74.528C70.245 74.5122 70.245 74.4964 70.2324 74.4805L69.5747 70.7651C69.5537 70.6661 69.5576 70.5642 69.586 70.4667C69.6145 70.3692 69.6668 70.2786 69.7393 70.2015C69.8117 70.1245 69.9023 70.0629 70.0046 70.0212C70.1069 69.9795 70.2183 69.9588 70.3307 69.9605H77.5026L79.2187 59.8041C79.2688 59.5491 79.415 59.3172 79.6329 59.1473C79.8508 58.9774 80.1271 58.8798 80.4157 58.8707H91.8742C92.0052 58.8671 92.1355 58.8901 92.2552 58.9379C92.375 58.9857 92.4812 59.0571 92.566 59.1468C92.6508 59.2365 92.7119 59.3422 92.7448 59.456C92.7777 59.5698 92.7816 59.6888 92.7562 59.8041L90.3924 73.8003C90.3423 74.0553 90.1961 74.2872 89.9782 74.4571C89.7603 74.627 89.484 74.7246 89.1954 74.7337H88.9762L88.7594 75.3823C88.6886 75.5925 88.5443 75.7767 88.3479 75.9078C88.1514 76.0388 87.9131 76.1097 87.6683 76.11H69.4487C69.448 75.8106 69.5187 75.5146 69.656 75.2418C69.7934 74.9689 69.9942 74.7255 70.245 74.528Z" fill="#C53F3F"/>
<path opacity="0.5" d="M70.245 74.528C70.245 74.5122 70.245 74.4964 70.2324 74.4805L69.5747 70.7651C69.5537 70.6661 69.5576 70.5642 69.586 70.4667C69.6145 70.3692 69.6668 70.2786 69.7393 70.2015C69.8117 70.1245 69.9023 70.0629 70.0046 70.0212C70.1069 69.9795 70.2183 69.9588 70.3307 69.9605H77.5026L79.2187 59.8041C79.2688 59.5491 79.415 59.3172 79.6329 59.1473C79.8508 58.9774 80.1271 58.8798 80.4157 58.8707H91.8742C92.0052 58.8671 92.1355 58.8901 92.2552 58.9379C92.375 58.9857 92.4812 59.0571 92.566 59.1468C92.6508 59.2365 92.7119 59.3422 92.7448 59.456C92.7777 59.5698 92.7816 59.6888 92.7562 59.8041L90.3924 73.8003C90.3423 74.0553 90.1961 74.2872 89.9782 74.4571C89.7603 74.627 89.484 74.7246 89.1954 74.7337H88.9762L88.7594 75.3823C88.6886 75.5925 88.5443 75.7767 88.3479 75.9078C88.1514 76.0388 87.9131 76.1097 87.6683 76.11H69.4487C69.448 75.8106 69.5187 75.5146 69.656 75.2418C69.7934 74.9689 69.9942 74.7255 70.245 74.528Z" fill="black"/>
<path d="M82.2024 92.73H83.0012L81.9076 76.1077H81.1062L82.2024 92.73Z" fill="#C53F3F"/>
<path opacity="0.5" d="M82.2024 92.73H83.0012L81.9076 76.1077H81.1062L82.2024 92.73Z" fill="white"/>
<path d="M70.2954 92.73H69.494L70.5902 76.1077H71.3891L70.2954 92.73Z" fill="#C53F3F"/>
<path opacity="0.5" d="M70.2954 92.73H69.494L70.5902 76.1077H71.3891L70.2954 92.73Z" fill="white"/>
<path d="M87.2121 92.73H88.011L86.9148 76.1077H86.116L87.2121 92.73Z" fill="#C53F3F"/>
<path opacity="0.5" d="M87.2121 92.73H88.011L86.9148 76.1077H86.116L87.2121 92.73Z" fill="white"/>
<path d="M75.3051 92.73H74.5038L75.6 76.1077H76.3988L75.3051 92.73Z" fill="#C53F3F"/>
<path opacity="0.5" d="M75.3051 92.73H74.5038L75.6 76.1077H76.3988L75.3051 92.73Z" fill="white"/>
<path d="M61.5711 91.399L59.8223 90.6939L61.0319 86.8225L62.7807 87.5276L61.5711 91.399Z" fill="#694B47"/>
<path d="M59.8802 90.2011L61.8433 90.9921C61.8768 91.0046 61.9036 91.0285 61.9177 91.0585C61.9318 91.0885 61.9323 91.1223 61.9189 91.1526L61.3166 92.5832C61.2802 92.6566 61.2129 92.7142 61.1294 92.7434C61.0458 92.7726 60.9528 92.771 60.8706 92.7391C60.1927 92.4521 59.8828 92.2871 59.0209 91.9368C58.4892 91.7221 56.6546 90.9989 55.9667 90.6237C55.2787 90.2486 55.7147 89.6497 56.0423 89.7536C57.5165 90.2192 58.8621 90.3254 59.5299 90.1763C59.6465 90.1489 59.7699 90.1576 59.8802 90.2011Z" fill="#263238"/>
<path opacity="0.2" d="M62.7808 87.5299L61.0319 86.8225L60.4094 88.8181L62.1583 89.5255L62.7808 87.5299Z" fill="black"/>
<path d="M76.8751 65.8247C76.8751 65.8247 62.7152 66.4801 62.6951 71.4069C62.6648 78.4897 59.8676 87.3602 59.8676 87.3602L63.1235 88.5354C63.1235 88.5354 68.0375 78.2072 67.9669 72.6793C71.8376 71.6826 81.8571 73.3573 83.0415 70.478C83.6222 68.9849 83.7755 67.3849 83.4876 65.8247H76.8751Z" fill="#C53F3F"/>
<path opacity="0.3" d="M76.8751 65.8247C76.8751 65.8247 62.7152 66.4801 62.6951 71.4069C62.6648 78.4897 59.8676 87.3602 59.8676 87.3602L63.1235 88.5354C63.1235 88.5354 68.0375 78.2072 67.9669 72.6793C71.8376 71.6826 81.8571 73.3573 83.0415 70.478C83.6222 68.9849 83.7755 67.3849 83.4876 65.8247H76.8751Z" fill="black"/>
<path d="M63.1613 89.3852L59.4317 87.8823L59.7316 86.5105L63.6678 87.7309L63.1613 89.3852Z" fill="#263238"/>
<path d="M59.1242 90.2237C59.2863 90.2845 59.4553 90.3293 59.6282 90.3571C59.6369 90.3583 59.6459 90.3573 59.6539 90.3541C59.662 90.3509 59.6688 90.3456 59.6736 90.339C59.6784 90.3326 59.6809 90.3252 59.6809 90.3175C59.6809 90.3099 59.6784 90.3024 59.6736 90.296C59.6358 90.2395 59.2931 89.7355 59.0411 89.7265C59.0126 89.7245 58.9841 89.7293 58.9585 89.7405C58.9328 89.7516 58.9109 89.7686 58.8949 89.7898C58.8651 89.8202 58.8449 89.8572 58.8365 89.8969C58.8281 89.9367 58.8317 89.9777 58.847 90.0158C58.9076 90.1134 59.0063 90.1875 59.1242 90.2237ZM59.5325 90.2576C59.1923 90.1875 58.9655 90.0859 58.9201 89.9796C58.9117 89.9554 58.9107 89.9296 58.9174 89.9049C58.924 89.8802 58.938 89.8576 58.9579 89.8395C58.9647 89.8283 58.975 89.8191 58.9876 89.8131C59.0001 89.8071 59.0143 89.8045 59.0285 89.8056C59.162 89.8124 59.3863 90.061 59.5325 90.2576Z" fill="#C53F3F"/>
<path d="M59.6081 90.3525C59.6146 90.3548 59.6218 90.3548 59.6282 90.3525C59.6359 90.3521 59.6433 90.35 59.6499 90.3465C59.6565 90.3429 59.662 90.338 59.666 90.3322C59.666 90.3141 59.9407 89.8802 59.8424 89.6542C59.8292 89.6255 59.809 89.5999 59.7832 89.5792C59.7575 89.5584 59.7269 89.5431 59.6938 89.5344C59.6586 89.521 59.6194 89.5188 59.5827 89.5283C59.546 89.5377 59.514 89.5582 59.4922 89.5864C59.3662 89.74 59.4619 90.1717 59.5904 90.3344C59.5914 90.3385 59.5936 90.3423 59.5967 90.3455C59.5997 90.3487 59.6037 90.3511 59.6081 90.3525ZM59.6862 89.6225C59.7191 89.6351 59.7453 89.6586 59.7593 89.6881C59.7809 89.878 59.7332 90.0692 59.6232 90.2327C59.5204 90.0477 59.4988 89.8347 59.5627 89.6361C59.5751 89.6223 59.5923 89.6127 59.6116 89.609C59.6309 89.6053 59.651 89.6077 59.6686 89.6157L59.6862 89.6225Z" fill="#C53F3F"/>
<path d="M77.8025 53.3563C77.6387 53.8083 77.4749 54.2286 77.2985 54.6558C77.1221 55.0829 76.9331 55.4987 76.7365 55.9146C76.3409 56.7485 75.9074 57.5734 75.416 58.3802C74.9228 59.2084 74.3574 60.0004 73.7251 60.7487C73.3902 61.1441 73.023 61.5165 72.6264 61.8629C72.1937 62.2457 71.7065 62.5755 71.1774 62.8437L71.0716 62.8957L71.0186 62.9115C70.6862 63.0213 70.3301 63.0607 69.9779 63.0268C69.7504 63.008 69.5252 62.9709 69.305 62.9161C68.9439 62.8253 68.5902 62.712 68.2466 62.5771C67.6263 62.3292 67.023 62.0484 66.4398 61.7363C65.8703 61.4335 65.3209 61.1171 64.7841 60.7849C64.2474 60.4527 63.7257 60.1069 63.2117 59.7317L63.9677 58.6401C64.5372 58.8661 65.1118 59.108 65.6888 59.3181C66.2659 59.5283 66.8354 59.7701 67.405 59.9735C67.9745 60.1769 68.544 60.3736 69.0883 60.525C69.3355 60.5963 69.5882 60.6514 69.8443 60.69C69.9334 60.7033 70.0236 60.7093 70.114 60.708C70.1694 60.708 70.1845 60.6764 70.0157 60.7239L69.8569 60.7939C70.4974 60.3753 71.0481 59.8562 71.4823 59.2616C71.9912 58.5921 72.45 57.8929 72.8557 57.1689C73.2715 56.4299 73.6596 55.666 74.0225 54.8863C74.2039 54.4998 74.3803 54.1066 74.5491 53.7133C74.718 53.3201 74.8843 52.9133 75.0254 52.5449L77.8025 53.3563Z" fill="#694B47"/>
<path d="M75.6479 51.485C73.5386 52.4568 72.7196 55.779 72.7196 55.779L76.8978 58.2808C78.2435 57.1508 79.438 54.6648 79.6698 53.5212C79.9974 51.7833 78.1528 50.3301 75.6479 51.485Z" fill="#263238"/>
<path opacity="0.3" d="M76.4215 54.3282C75.7159 55.0718 75.4387 56.1859 75.4437 57.4131L76.8978 58.2832C78.2031 57.1781 79.38 54.8006 79.632 53.6299C78.3997 53.4536 76.9583 53.7564 76.4215 54.3282Z" fill="black"/>
<path d="M76.6811 91.6271H74.7659L73.8889 87.6472H75.8041L76.6811 91.6271Z" fill="#694B47"/>
<path d="M74.7079 91.2091H76.86C76.8779 91.2085 76.8957 91.211 76.9125 91.2166C76.9292 91.2222 76.9446 91.2307 76.9577 91.2416C76.9708 91.2525 76.9814 91.2656 76.9889 91.2802C76.9963 91.2948 77.0005 91.3106 77.0011 91.3266L77.107 92.8544C77.107 92.9349 77.0715 93.0121 77.0082 93.0693C76.945 93.1264 76.8591 93.1589 76.7693 93.1595C76.0133 93.1595 75.663 93.1075 74.7155 93.1075C74.1334 93.1075 72.1577 93.1617 71.3538 93.1617C70.5499 93.1617 70.5726 92.4498 70.9128 92.3843C72.4424 92.095 73.836 91.7063 74.3778 91.3153C74.471 91.2469 74.5875 91.2094 74.7079 91.2091Z" fill="#263238"/>
<path opacity="0.2" d="M75.8041 87.6497H73.8889L74.3652 89.8057L76.2577 89.6995L75.8041 87.6497Z" fill="black"/>
<path d="M80.64 65.8247C80.64 65.8247 68.0047 66.7829 68.3172 71.7007C68.6574 77.0863 73.521 89.2021 73.521 89.2021H77.0288C77.0288 89.2021 75.4438 78.2411 74.6726 72.7561C78.2334 72.7561 85.622 73.3573 86.8064 70.4758C87.3947 69.0127 87.6808 67.4657 87.6506 65.9106L80.64 65.8247Z" fill="#C53F3F"/>
<path opacity="0.3" d="M80.64 65.8247C80.64 65.8247 68.0047 66.7829 68.3172 71.7007C68.6574 77.0863 73.521 89.2021 73.521 89.2021H77.0288C77.0288 89.2021 75.4438 78.2411 74.6726 72.7561C78.2334 72.7561 85.622 73.3573 86.8064 70.4758C87.3947 69.0127 87.6808 67.4657 87.6506 65.9106L80.64 65.8247Z" fill="black"/>
<path d="M77.2405 89.1886L73.0397 89.4802L72.6591 87.8688L77.0616 87.7581L77.2405 89.1886Z" fill="#263238"/>
<path d="M74.0275 91.5096C74.1976 91.5049 74.3665 91.4836 74.5315 91.4463C74.5399 91.4446 74.5475 91.4407 74.5533 91.435C74.5591 91.4294 74.563 91.4223 74.5643 91.4147C74.5652 91.4075 74.5641 91.4002 74.561 91.3934C74.5579 91.3867 74.553 91.3808 74.5466 91.3763C74.4836 91.3379 73.9418 91.0056 73.7075 91.087C73.6811 91.0967 73.6579 91.1121 73.6399 91.1318C73.6218 91.1515 73.6096 91.175 73.6041 91.2C73.5898 91.2387 73.5874 91.2801 73.5972 91.3198C73.6069 91.3596 73.6285 91.3963 73.6596 91.426C73.7659 91.4947 73.8975 91.5246 74.0275 91.5096ZM74.4156 91.3898C74.0729 91.4509 73.8209 91.4418 73.7301 91.3605C73.7109 91.3416 73.6978 91.3183 73.6925 91.2931C73.6871 91.268 73.6897 91.242 73.6999 91.2181C73.7018 91.2058 73.7072 91.1941 73.7156 91.1842C73.724 91.1743 73.7351 91.1665 73.7478 91.1616C73.8738 91.1164 74.1938 91.2633 74.4156 91.3898Z" fill="#C53F3F"/>
<path d="M74.529 91.4487H74.5491C74.5556 91.4456 74.5611 91.4411 74.5651 91.4356C74.5691 91.43 74.5714 91.4237 74.5718 91.4171C74.5718 91.3945 74.6172 90.9018 74.4231 90.7391C74.3986 90.7173 74.3688 90.7008 74.336 90.691C74.3032 90.6812 74.2684 90.6783 74.2341 90.6826C74.1958 90.6835 74.1589 90.6961 74.1296 90.7182C74.1003 90.7404 74.0803 90.7709 74.0729 90.8046C74.0275 90.9922 74.3249 91.3493 74.5063 91.451C74.5139 91.4529 74.522 91.4521 74.529 91.4487ZM74.277 90.7526C74.3126 90.7525 74.3469 90.7646 74.3727 90.7865C74.4781 90.9524 74.5222 91.1438 74.4987 91.3335C74.3324 91.2069 74.1409 90.9335 74.1711 90.8114C74.1711 90.7888 74.1913 90.7594 74.2543 90.7526H74.277Z" fill="#C53F3F"/>
<path d="M64.4364 58.8256L62.6547 57.7905L62.0096 59.7906C62.0096 59.7906 64.0256 60.3647 64.3935 59.8765L64.4364 58.8256Z" fill="#694B47"/>
<path d="M60.6589 58.1295L60.7169 59.6754L62.0096 59.7906L62.6548 57.7905L60.6589 58.1295Z" fill="#694B47"/>
<path d="M86.8543 50.7189C86.6628 50.2669 85.7833 49.8149 85.239 49.8149H84.8811C84.2587 49.8149 83.4775 49.8579 82.7215 49.9392C81.281 50.0804 79.8506 50.2954 78.4375 50.5833C77.7874 50.737 77.1599 50.9314 76.6735 51.0986C76.036 51.3246 75.6655 51.476 75.6655 51.476C75.6655 51.476 76.7264 61.5172 76.9053 65.9039H87.6582C88.0286 64.0213 87.7867 60.5703 87.817 57.1667C87.817 55.1259 87.633 52.5812 86.8543 50.7189Z" fill="#263238"/>
<path d="M87.3633 52.4319C87.4163 52.7777 87.4515 53.0692 87.4742 53.3856C87.4969 53.702 87.5171 54.0048 87.5271 54.3145C87.5448 54.9337 87.5271 55.5552 87.4818 56.179C87.4333 56.8087 87.3416 57.4352 87.2071 58.0548L87.1013 58.5271L86.9652 58.9859C86.9223 59.1418 86.8593 59.3 86.8064 59.456L86.7207 59.682L86.7006 59.7385L86.6527 59.8515C86.6202 59.9288 86.5823 60.0043 86.5393 60.0775C86.2678 60.504 85.8747 60.8582 85.4003 61.1035C85.0547 61.2894 84.6902 61.4453 84.3116 61.5691C83.6395 61.7855 82.9482 61.9511 82.2452 62.064C80.9089 62.2797 79.5533 62.3848 78.1956 62.3781L78.0469 61.0967C79.2792 60.8278 80.5342 60.5272 81.706 60.1769C82.2716 60.0113 82.8239 59.8112 83.3591 59.578C83.5852 59.4803 83.7997 59.3621 83.9991 59.2254C84.168 59.1124 84.2512 58.9836 84.2184 59.0107L84.2033 59.0311L84.2159 58.9836L84.2612 58.796C84.2915 58.6695 84.3318 58.5474 84.352 58.4164L84.4275 58.0299L84.488 57.6344C84.5586 57.1056 84.604 56.5654 84.6191 56.0208C84.6342 55.4761 84.6317 54.9224 84.6191 54.371C84.6191 54.0952 84.5939 53.8195 84.5712 53.5461L84.5359 53.137L84.5006 52.7505L87.3633 52.4319Z" fill="#694B47"/>
<path d="M87.3608 50.4342C85.7631 49.4195 84.3771 49.5122 83.6463 51.7902C83.165 53.2796 83.3263 56.4707 83.3263 56.4707L88.1143 56.1633C88.6863 53.7881 88.7443 51.3156 87.3608 50.4342Z" fill="#263238"/>
<path d="M82.089 45.426L81.0205 46.5379L79.564 48.0499C79.6522 48.2443 79.7262 48.4436 79.7857 48.6465C80.0377 49.4556 79.9319 50.2285 78.6366 50.728C78.6366 50.728 77.5177 52.0388 80.1788 51.6749C82.84 51.3111 83.2406 50.0635 83.2406 50.0635C82.0638 49.3245 81.9958 46.825 82.089 45.426Z" fill="#694B47"/>
<path opacity="0.2" d="M79.5639 48.0544C79.6522 48.2488 79.7262 48.4481 79.7857 48.6511C80.3955 48.4431 81.1263 47.7132 81.1062 47.1233C81.1008 46.9275 81.0721 46.7328 81.0205 46.5425L79.5639 48.0544Z" fill="black"/>
<path d="M77.0162 41.4777C76.1745 41.8122 76.2879 44.1513 77.0162 44.5219C77.7445 44.8926 78.8079 40.7613 77.0162 41.4777Z" fill="#263238"/>
<path d="M82.2427 43.4258C82.1419 45.2699 82.1873 46.3525 81.1667 47.3401C80.8387 47.6644 80.4182 47.9021 79.9506 48.0277C79.483 48.1532 78.986 48.1618 78.5133 48.0524C78.0406 47.9431 77.6103 47.72 77.2687 47.4072C76.9271 47.0945 76.6873 46.704 76.5752 46.2779C76.1115 44.6416 76.3535 41.9003 78.3392 41.0799C78.7666 40.8911 79.2418 40.8066 79.7172 40.8349C80.1925 40.8633 80.6511 41.0034 81.0468 41.2412C81.4426 41.479 81.7615 41.8062 81.9714 42.1897C82.1813 42.5732 82.2749 42.9995 82.2427 43.4258Z" fill="#694B47"/>
<path opacity="0.3" d="M80.4031 45.069C80.3603 45.3538 79.952 45.5391 79.4884 45.4848C79.0247 45.4306 78.6845 45.1549 78.7324 44.8701C78.7802 44.5853 79.1809 44.4023 79.6446 44.4565C80.1083 44.5108 80.4434 44.7865 80.4031 45.069Z" fill="#ED847E"/>
<path opacity="0.3" d="M76.8298 44.8905C76.7916 44.8088 76.729 44.7382 76.649 44.6864C76.569 44.6345 76.4746 44.6035 76.3762 44.5967C76.3689 44.9114 76.3849 45.2263 76.424 45.5391C76.739 45.3809 76.9129 45.1165 76.8298 44.8905Z" fill="#ED847E"/>
<path d="M76.7894 41.663C77.4698 42.7297 81.1062 42.1669 81.1062 42.1669C80.8914 43.0897 80.7959 44.0315 80.8214 44.9739C81.1887 45.1198 81.6043 45.1343 81.9832 45.0145L82.8778 44.384C82.8778 44.384 84.3268 42.915 83.6842 41.8415C84.2638 41.1499 74.6903 39.9386 76.7894 41.663Z" fill="#263238"/>
<path d="M84.294 41.6314C84.299 41.517 84.2681 41.4036 84.2048 41.3042C84.1416 41.2047 84.0485 41.1231 83.9361 41.0687C83.94 40.9181 83.88 40.7718 83.7682 40.6593C83.6564 40.5469 83.5012 40.4767 83.3339 40.463C83.2976 40.3623 83.2366 40.2701 83.1554 40.1933C83.0741 40.1165 82.9747 40.0571 82.8644 40.0194C82.7541 39.9816 82.6358 39.9666 82.5182 39.9753C82.4006 39.984 82.2866 40.0163 82.1847 40.0698C82.1451 39.9758 82.0835 39.8905 82.004 39.8196C81.9245 39.7488 81.829 39.6941 81.7239 39.6592C81.6188 39.6242 81.5066 39.6099 81.3948 39.6172C81.283 39.6245 81.1743 39.6532 81.0759 39.7014C80.9523 39.5423 80.7655 39.4314 80.5539 39.3915C80.3422 39.3516 80.1215 39.3857 79.9369 39.4867C79.8039 39.5453 79.6882 39.6312 79.5992 39.7376C79.4652 39.6353 79.299 39.5732 79.1237 39.5598C78.9484 39.5464 78.7728 39.5825 78.6215 39.663C78.4441 39.7394 78.301 39.8678 78.2157 40.0268C78.0898 39.9535 77.9438 39.9124 77.7937 39.908C77.6436 39.9036 77.495 39.9361 77.364 40.002C77.2554 40.0474 77.1595 40.114 77.0832 40.1969C77.0069 40.2798 76.9522 40.3769 76.923 40.4811C76.8691 40.4946 76.8167 40.5128 76.7667 40.5353C76.6843 40.5675 76.6103 40.6149 76.5497 40.6745C76.4891 40.7341 76.4433 40.8046 76.4152 40.8812C76.3871 40.9578 76.3774 41.0389 76.3867 41.1191C76.3961 41.1994 76.4242 41.2769 76.4694 41.3467C76.4414 41.4217 76.431 41.5011 76.4388 41.5799C76.4466 41.6587 76.4725 41.7352 76.5149 41.8046C76.5572 41.874 76.6151 41.9348 76.6849 41.9831C76.7547 42.0315 76.8349 42.0664 76.9205 42.0857C77.0199 42.1206 77.1273 42.1334 77.2335 42.1232C77.3397 42.113 77.4416 42.08 77.5306 42.0271C77.6196 41.9741 77.693 41.9027 77.7447 41.8189C77.7964 41.7351 77.8249 41.6413 77.8277 41.5456C77.8301 41.514 77.8301 41.4822 77.8277 41.4506C78.3085 41.6337 78.819 41.7466 79.3397 41.7851C81.0911 41.9682 82.2704 41.7625 82.7669 41.4755C82.8137 41.5142 82.8663 41.5469 82.9231 41.5727C82.9186 41.6497 82.9324 41.7267 82.9634 41.7987C82.8659 41.8628 82.7909 41.9505 82.747 42.0515C82.7032 42.1525 82.6924 42.2627 82.716 42.369C82.7395 42.4753 82.7964 42.5734 82.88 42.6517C82.9636 42.73 83.0703 42.7854 83.1877 42.8112C83.2872 42.8466 83.3947 42.8599 83.5011 42.8499C83.6076 42.8399 83.7097 42.807 83.7989 42.7539C83.888 42.7008 83.9615 42.6292 84.0131 42.5451C84.0646 42.461 84.0927 42.367 84.0949 42.271C84.0969 42.202 84.0859 42.1333 84.0621 42.0676C84.1316 42.0127 84.188 41.9458 84.2279 41.8708C84.2677 41.7958 84.2902 41.7144 84.294 41.6314Z" fill="#263238"/>
<path d="M83.0138 45.0418C82.7647 45.4591 82.3543 45.7805 81.8597 45.9458C81.2171 46.1492 80.9121 45.6316 81.1037 45.0576C81.2775 44.5401 81.8244 43.8101 82.462 43.8553C83.0995 43.9005 83.3213 44.522 83.0138 45.0418Z" fill="#694B47"/>
<path d="M78.876 44.0994C78.876 44.2486 78.7928 44.3752 78.6845 44.3797C78.5761 44.3842 78.4854 44.2667 78.4829 44.1153C78.4804 43.9638 78.566 43.8418 78.6769 43.8373C78.7878 43.8328 78.876 43.9503 78.876 44.0994Z" fill="#263238"/>
<path d="M76.986 44.1785C76.986 44.33 76.9028 44.4543 76.7945 44.4588C76.6861 44.4633 76.5954 44.3458 76.5929 44.1966C76.5904 44.0475 76.676 43.9209 76.7869 43.9164C76.8978 43.9119 76.986 44.0294 76.986 44.1785Z" fill="#263238"/>
<path d="M77.5606 44.1536C77.4268 44.5607 77.2327 44.9499 76.9835 45.3107C77.0872 45.3625 77.2023 45.3933 77.3206 45.4011C77.439 45.4089 77.5579 45.3935 77.6689 45.3559L77.5606 44.1536Z" fill="#ED847E"/>
<path d="M77.805 46.0747C77.9988 46.0719 78.19 46.034 78.3672 45.9634C78.5443 45.8927 78.7036 45.7906 78.8357 45.6633C78.8409 45.6542 78.8426 45.6437 78.8403 45.6336C78.838 45.6236 78.832 45.6145 78.8232 45.6079C78.8143 45.6013 78.8033 45.5976 78.7918 45.5974C78.7804 45.5972 78.7692 45.6006 78.7601 45.6068C78.6152 45.7437 78.437 45.8488 78.2395 45.9138C78.0419 45.9789 77.8303 46.0022 77.621 45.982C77.6145 45.9814 77.608 45.982 77.6017 45.9837C77.5955 45.9854 77.5897 45.9883 77.5848 45.9921C77.5798 45.9959 77.5758 46.0006 77.5729 46.0058C77.5701 46.0111 77.5684 46.0168 77.5681 46.0227C77.5674 46.0283 77.568 46.034 77.5698 46.0395C77.5715 46.0449 77.5745 46.05 77.5785 46.0544C77.5825 46.0588 77.5874 46.0625 77.593 46.0652C77.5985 46.0679 77.6047 46.0696 77.611 46.0701C77.6755 46.075 77.7403 46.0765 77.805 46.0747Z" fill="#263238"/>
<path d="M79.5539 43.5683C79.57 43.5639 79.5846 43.5561 79.5967 43.5457C79.615 43.5291 79.6253 43.5068 79.6253 43.4835C79.6253 43.4602 79.615 43.4379 79.5967 43.4214C79.4907 43.3208 79.3586 43.2454 79.2122 43.2016C79.0658 43.1578 78.9097 43.1472 78.7576 43.1705C78.7452 43.173 78.7334 43.1777 78.723 43.1843C78.7126 43.1909 78.7038 43.1993 78.697 43.2089C78.6902 43.2186 78.6856 43.2293 78.6835 43.2406C78.6813 43.2518 78.6817 43.2633 78.6845 43.2745C78.6873 43.2856 78.6925 43.2961 78.6999 43.3054C78.7072 43.3148 78.7165 43.3227 78.7273 43.3288C78.7381 43.3349 78.7501 43.339 78.7626 43.3409C78.7751 43.3428 78.788 43.3425 78.8004 43.34C78.9202 43.3242 79.0424 43.3344 79.1569 43.3698C79.2714 43.4052 79.3747 43.4647 79.4581 43.5434C79.4702 43.5548 79.4854 43.5632 79.5022 43.5675C79.5191 43.5719 79.5369 43.5722 79.5539 43.5683Z" fill="#263238"/>
<path d="M76.3862 43.6181C76.4018 43.618 76.4171 43.6145 76.4307 43.6078C76.4444 43.6011 76.4559 43.5914 76.4644 43.5797C76.5295 43.483 76.6187 43.4011 76.7249 43.3403C76.8311 43.2796 76.9515 43.2416 77.0767 43.2294C77.1023 43.2282 77.1264 43.2181 77.1439 43.2012C77.1613 43.1843 77.1707 43.162 77.17 43.139C77.17 43.1273 77.1673 43.1158 77.1622 43.105C77.1571 43.0943 77.1496 43.0846 77.1402 43.0766C77.1307 43.0686 77.1196 43.0623 77.1074 43.0583C77.0951 43.0543 77.0821 43.0525 77.0692 43.0531C76.9126 43.066 76.7615 43.1115 76.6281 43.186C76.4946 43.2606 76.3824 43.3621 76.3006 43.4825C76.2936 43.4923 76.2888 43.5032 76.2865 43.5146C76.2843 43.5261 76.2846 43.5378 76.2874 43.5492C76.2902 43.5605 76.2955 43.5712 76.3029 43.5807C76.3104 43.5902 76.3198 43.5983 76.3308 43.6045C76.3385 43.61 76.3474 43.6141 76.357 43.6164C76.3665 43.6187 76.3765 43.6193 76.3862 43.6181Z" fill="#263238"/>
<path d="M78.4274 61.0516L76.6634 60.9612L77.4194 62.6923C77.4194 62.6923 79.1582 62.7579 79.123 61.9511L78.4274 61.0516Z" fill="#694B47"/>
<path d="M74.907 61.9624L75.7411 63.1037L77.4093 62.6923L76.6634 60.9612L74.907 61.9624Z" fill="#694B47"/>
<path d="M88.898 68.6747H81.1717C80.934 68.682 80.7062 68.762 80.526 68.9013C80.3459 69.0407 80.2243 69.231 80.1813 69.4408L79.5539 72.9981C79.5321 73.0924 79.5345 73.19 79.5608 73.2834C79.5871 73.3768 79.6367 73.4636 79.7058 73.5373C79.7749 73.6111 79.8618 73.6698 79.9599 73.7091C80.058 73.7484 80.1647 73.7672 80.2721 73.7642H87.9984C88.2361 73.7569 88.4639 73.6769 88.6441 73.5376C88.8242 73.3983 88.9458 73.2079 88.9887 72.9981L89.6162 69.4499C89.6398 69.3549 89.6387 69.2564 89.6132 69.1618C89.5877 69.0672 89.5384 68.9792 89.4691 68.9043C89.3998 68.8295 89.3122 68.7699 89.2133 68.7301C89.1143 68.6903 89.0064 68.6713 88.898 68.6747Z" fill="#C53F3F"/>
<path opacity="0.5" d="M88.898 68.6747H81.1717C80.934 68.682 80.7062 68.762 80.526 68.9013C80.3459 69.0407 80.2243 69.231 80.1813 69.4408L79.5539 72.9981C79.5321 73.0924 79.5345 73.19 79.5608 73.2834C79.5871 73.3768 79.6367 73.4636 79.7058 73.5373C79.7749 73.6111 79.8618 73.6698 79.9599 73.7091C80.058 73.7484 80.1647 73.7672 80.2721 73.7642H87.9984C88.2361 73.7569 88.4639 73.6769 88.6441 73.5376C88.8242 73.3983 88.9458 73.2079 88.9887 72.9981L89.6162 69.4499C89.6398 69.3549 89.6387 69.2564 89.6132 69.1618C89.5877 69.0672 89.5384 68.9792 89.4691 68.9043C89.3998 68.8295 89.3122 68.7699 89.2133 68.7301C89.1143 68.6903 89.0064 68.6713 88.898 68.6747Z" fill="black"/>
<path d="M67.6242 63.142C67.6098 63.154 67.5909 63.1606 67.5713 63.1606C67.5517 63.1606 67.5328 63.154 67.5183 63.142L57.6324 54.2738C57.6193 54.2612 57.612 54.2447 57.612 54.2275C57.612 54.2103 57.6193 54.1937 57.6324 54.1811C57.6464 54.1694 57.6649 54.1628 57.684 54.1628C57.7032 54.1628 57.7217 54.1694 57.7357 54.1811L67.6242 63.0539C67.6354 63.0664 67.6416 63.0819 67.6416 63.098C67.6416 63.114 67.6354 63.1296 67.6242 63.142Z" fill="#C53F3F"/>
<path d="M56.9847 54.7192L56.5765 54.353C56.414 54.2065 56.3228 54.0083 56.3228 53.8016C56.3228 53.5949 56.414 53.3967 56.5765 53.2502C56.6664 53.1684 56.7754 53.1057 56.8958 53.0666C57.0161 53.0275 57.1446 53.013 57.272 53.0242C57.0612 53.2586 56.9235 53.5391 56.873 53.8368C56.8225 54.1346 56.8611 54.4391 56.9847 54.7192Z" fill="#C53F3F"/>
<path d="M57.0452 53.6252C57.1803 53.83 57.4 53.9789 57.6566 54.0394C57.9133 54.0999 58.1862 54.0672 58.4161 53.9484L57.4081 52.3958C57.1793 52.5165 57.0128 52.7134 56.9448 52.9436C56.8769 53.1738 56.913 53.4187 57.0452 53.6252Z" fill="#C53F3F"/>
<path d="M58.7513 54.0953C58.9147 54.2415 59.0066 54.44 59.0069 54.6471C59.0071 54.8541 58.9156 55.0527 58.7525 55.1993C58.5895 55.3458 58.3681 55.4283 58.1373 55.4285C57.9064 55.4287 57.6849 55.3467 57.5215 55.2004L56.9848 54.719C56.862 54.4396 56.824 54.136 56.8744 53.8391C56.9249 53.5422 57.0621 53.2625 57.272 53.0286C57.4754 53.0436 57.666 53.1238 57.8088 53.2546L58.7513 54.0953Z" fill="#C53F3F"/>
<path d="M57.0326 53.7881C57.2606 53.9096 57.426 54.1068 57.493 54.3369C57.56 54.5671 57.5232 54.8116 57.3905 55.0175L55.6592 54.1135C55.7939 53.9077 56.0139 53.758 56.2711 53.697C56.5284 53.636 56.8022 53.6688 57.0326 53.7881Z" fill="#C53F3F"/>
<path d="M57.708 53.6841C57.676 53.5344 57.7109 53.3794 57.8052 53.2525C57.8995 53.1257 58.0456 53.0372 58.212 53.0061L58.464 54.1361C58.2971 54.1642 58.1246 54.1327 57.9833 54.0482C57.8421 53.9637 57.7432 53.8331 57.708 53.6841Z" fill="#C53F3F"/>
<path d="M60.296 56.5859C59.472 55.9915 57.96 56.274 57.2872 57.178C58.716 57.4153 61.8307 57.7001 60.296 56.5859Z" fill="#C53F3F"/>
<path d="M65.331 61.0946C64.7237 60.6539 63.5998 60.855 63.0932 61.5466C64.1567 61.7093 66.47 61.924 65.331 61.0946Z" fill="#C53F3F"/>
<path d="M62.6497 58.6605C62.1003 58.0526 62.3498 56.9248 63.2016 56.4141C63.4183 57.483 63.6829 59.8041 62.6497 58.6605Z" fill="#C53F3F"/>
<path opacity="0.2" d="M56.9847 54.7192L56.5765 54.353C56.414 54.2065 56.3228 54.0083 56.3228 53.8016C56.3228 53.5949 56.414 53.3967 56.5765 53.2502C56.6664 53.1684 56.7754 53.1057 56.8958 53.0666C57.0161 53.0275 57.1446 53.013 57.272 53.0242C57.0612 53.2586 56.9235 53.5391 56.873 53.8368C56.8225 54.1346 56.8611 54.4391 56.9847 54.7192Z" fill="black"/>
<path d="M65.5528 91.1685H69.7259C70.4986 91.177 71.2488 91.4031 71.8704 91.8148L74.345 93.3968C74.5592 93.5324 74.4811 93.9437 74.2442 93.9437H61.0344C60.795 93.9437 60.7194 93.5324 60.9336 93.3968L63.4082 91.8148C64.0297 91.4029 64.78 91.1767 65.5528 91.1685Z" fill="#C53F3F"/>
<path d="M68.4054 92.538V63.5784H66.8707V92.538H68.4054Z" fill="#C53F3F"/>
<path opacity="0.3" d="M68.4054 65.5717V63.5784H66.8707V65.5717H68.4054Z" fill="black"/>
<path d="M89.528 62.7083H45.7506V64.4507H89.528V62.7083Z" fill="#C53F3F"/>
<path opacity="0.3" d="M61.1402 62.7083H45.7506V64.4507H61.1402V62.7083Z" fill="black"/>
<path d="M69.7259 90.477C69.5623 90.623 69.3815 90.7526 69.1866 90.8634C69.1763 90.869 69.1646 90.872 69.1526 90.872C69.1406 90.872 69.1288 90.869 69.1186 90.8634C69.1085 90.8584 69.1004 90.8507 69.0955 90.8414C69.0905 90.8321 69.0889 90.8216 69.0908 90.8115C69.1085 90.7211 69.2647 89.9187 69.5747 89.8057C69.6095 89.7929 69.6473 89.7881 69.6846 89.7917C69.722 89.7952 69.7579 89.807 69.7889 89.8261C69.8402 89.8513 69.8833 89.8882 69.9138 89.933C69.9443 89.9778 69.9612 90.029 69.9628 90.0815C69.942 90.2353 69.8574 90.3765 69.7259 90.477ZM69.242 90.703C69.6175 90.4657 69.8393 90.2397 69.8393 90.0837C69.8373 90.0488 69.8251 90.0149 69.8039 89.9855C69.7826 89.9562 69.7531 89.9324 69.7183 89.9165C69.7052 89.9076 69.6897 89.9018 69.6734 89.8999C69.657 89.8979 69.6404 89.8997 69.6251 89.9052C69.4613 89.9617 69.3151 90.382 69.242 90.7007V90.703Z" fill="#C53F3F"/>
<path d="M69.1992 90.8521C69.1916 90.8594 69.1821 90.8649 69.1715 90.8679C69.1612 90.8709 69.1502 90.8714 69.1396 90.8694C69.129 90.8674 69.1192 90.863 69.111 90.8566C69.0858 90.8386 68.5289 90.4046 68.5339 90.0769C68.5337 90.0356 68.5441 89.9948 68.5642 89.9576C68.5842 89.9203 68.6136 89.8877 68.6498 89.8622C68.685 89.831 68.7306 89.8108 68.7796 89.8047C68.8287 89.7986 68.8786 89.8069 68.922 89.8283C69.174 89.9617 69.2773 90.5877 69.2143 90.8295C69.2118 90.8382 69.2065 90.846 69.1992 90.8521ZM68.7128 89.9594C68.6955 89.9747 68.6818 89.993 68.6727 90.0132C68.6636 90.0335 68.6592 90.0551 68.6599 90.0769C68.6599 90.2713 68.9296 90.5515 69.1085 90.7052C69.1286 90.434 69.0152 90.0001 68.8565 89.9187C68.8313 89.9052 68.7935 89.8961 68.733 89.9413C68.7255 89.9475 68.7188 89.9543 68.7128 89.9617V89.9594Z" fill="#C53F3F"/>
<path d="M67.1126 92.73L68.8892 91.0667L64.5775 87.3896L62.8009 89.053L67.1126 92.73Z" fill="#785651"/>
<path d="M68.7784 90.7842L66.78 92.66C66.7495 92.6913 66.7327 92.7315 66.7327 92.773C66.7327 92.8146 66.7495 92.8547 66.78 92.886L68.292 94.4409C68.3329 94.4791 68.382 94.5095 68.4364 94.5303C68.4907 94.5511 68.5492 94.5618 68.6083 94.5618C68.6673 94.5618 68.7258 94.5511 68.7802 94.5303C68.8345 94.5095 68.8836 94.4791 68.9245 94.4409C69.6049 93.7787 69.8972 93.4307 70.7742 92.6081C71.3135 92.1018 72.1652 91.4103 72.9112 90.7119C73.6571 90.0136 72.8885 89.3559 72.5054 89.5819C70.7843 90.6306 70.1115 90.4859 69.2093 90.5921C69.0448 90.6083 68.8921 90.6764 68.7784 90.7842Z" fill="#263238"/>
<path opacity="0.2" d="M62.8009 89.0553L64.5775 87.3896L66.8002 89.2858L65.0236 90.9514L62.8009 89.0553Z" fill="black"/>
<path d="M40.2595 67.8678C44.8988 68.0734 54.2254 71.3256 55.0318 72.7923C57.6022 77.466 68.0198 89.6903 66.1701 88.0586L63.4334 90.0451C64.9152 91.0328 51.035 80.2435 50.7276 75.3551C46.0933 75.1133 39.8185 74.9981 37.1851 73.4025C35.3682 72.3019 34.8214 70.0125 35.1691 67.9062C35.1616 67.9039 35.6227 67.6598 40.2595 67.8678Z" fill="#263238"/>
<path d="M67.0093 88.0769L63.7938 90.8522L62.6245 89.9143L66.082 86.7231L67.0093 88.0769Z" fill="#263238"/>
<path d="M54.1094 92.8997C53.8848 92.8948 53.6616 92.8668 53.4442 92.816C53.4332 92.8137 53.4234 92.8082 53.4162 92.8005C53.4089 92.7928 53.4046 92.7832 53.4038 92.7731C53.4045 92.7616 53.4083 92.7505 53.4149 92.7406C53.4215 92.7308 53.4307 92.7225 53.4416 92.7166C53.5374 92.6646 54.3917 92.2149 54.6714 92.3347C54.7025 92.3489 54.7283 92.3711 54.7453 92.3984C54.7624 92.4258 54.77 92.4571 54.7672 92.4883C54.7681 92.5438 54.7553 92.5987 54.7295 92.6492C54.7038 92.6996 54.6659 92.7443 54.6185 92.7799C54.4676 92.8679 54.2891 92.9099 54.1094 92.8997ZM53.6281 92.7392C54.0616 92.8183 54.4018 92.8047 54.5479 92.6985C54.5804 92.6756 54.6062 92.646 54.6229 92.6121C54.6396 92.5782 54.6467 92.5411 54.6437 92.5042C54.6459 92.4902 54.6433 92.4759 54.636 92.4633C54.6288 92.4508 54.6174 92.4405 54.6034 92.4341C54.4572 92.3708 53.9759 92.5652 53.6281 92.7392Z" fill="#C53F3F"/>
<path d="M53.4568 92.8183C53.4478 92.8214 53.4379 92.8214 53.429 92.8183C53.4202 92.814 53.4132 92.8073 53.4091 92.7991C53.405 92.7909 53.4041 92.7818 53.4064 92.773C53.4064 92.7437 53.5248 92.0815 53.8398 91.869C53.8766 91.8406 53.9195 91.8194 53.9659 91.8065C54.0123 91.7937 54.0612 91.7896 54.1094 91.7945C54.1556 91.7944 54.2 91.8104 54.2334 91.839C54.2667 91.8677 54.2864 91.9068 54.2884 91.9482C54.3035 92.2081 53.7541 92.703 53.4895 92.8295C53.4778 92.8281 53.4666 92.8242 53.4568 92.8183ZM54.049 91.8849C53.997 91.8844 53.9467 91.9013 53.9078 91.9323C53.7188 92.0634 53.6004 92.4363 53.5475 92.6578C53.8222 92.4815 54.175 92.1086 54.1649 91.9504C54.1649 91.9255 54.1523 91.8939 54.0767 91.8849H54.049Z" fill="#C53F3F"/>
<path d="M40.7711 47.9121C40.6829 49.363 40.8064 52.8592 39.4859 53.6751C39.4859 53.6751 39.2137 54.8255 42.0336 55.1667C45.1307 55.5441 43.9034 53.9147 43.9034 53.9147C42.8224 53.4152 42.9836 51.3925 43.5784 50.3303L40.7711 47.9121Z" fill="#785651"/>
<path d="M45.6725 46.5199C45.653 46.52 45.6338 46.5153 45.617 46.5064C45.5893 46.4917 45.569 46.4679 45.5605 46.4401C45.5521 46.4122 45.5561 46.3825 45.5717 46.3572C45.6632 46.2047 45.7939 46.0739 45.953 45.9757C46.1121 45.8774 46.2949 45.8145 46.4864 45.7922C46.5199 45.7904 46.5527 45.8006 46.5778 45.8205C46.6028 45.8404 46.618 45.8684 46.62 45.8984C46.622 45.9284 46.6107 45.9578 46.5884 45.9803C46.5662 46.0028 46.535 46.0164 46.5016 46.0182C46.3503 46.0368 46.2063 46.0875 46.0813 46.1661C45.9564 46.2447 45.8542 46.349 45.7834 46.4702C45.7716 46.4867 45.7551 46.5 45.7356 46.5088C45.716 46.5175 45.6942 46.5214 45.6725 46.5199Z" fill="#263238"/>
<path d="M46.5343 47.7561C46.753 48.1649 47.0328 48.5451 47.3659 48.8861C47.2667 48.9612 47.1502 49.0158 47.0247 49.0459C46.8993 49.076 46.768 49.0808 46.6402 49.0601L46.5343 47.7561Z" fill="#FF5652"/>
<path d="M46.3226 47.4601C46.3378 47.6454 46.4587 47.7878 46.5948 47.7787C46.7309 47.7697 46.8266 47.6138 46.8115 47.4284C46.7964 47.2431 46.6729 47.1007 46.5394 47.1098C46.4058 47.1188 46.3075 47.2635 46.3226 47.4601Z" fill="#263238"/>
<path d="M46.4814 47.1121L46.9652 46.9517C46.9652 46.9517 46.741 47.3155 46.4814 47.1121Z" fill="#263238"/>
<path d="M50.5159 92.7641H53.0838L54.2556 87.4282H51.6852L50.5159 92.7641Z" fill="#785651"/>
<path d="M53.2955 92.4975H50.4C50.3482 92.4989 50.2981 92.5146 50.2566 92.5425C50.2151 92.5705 50.1842 92.6092 50.1682 92.6534L49.5104 94.6942C49.4936 94.7422 49.4897 94.7931 49.4992 94.8428C49.5088 94.8924 49.5313 94.9392 49.5651 94.9795C49.5989 95.0197 49.6428 95.0521 49.6934 95.074C49.7439 95.096 49.7996 95.1067 49.8557 95.1055C50.8637 95.0897 51.3677 95.0354 52.6277 95.0354C53.4089 95.0354 54.5378 95.11 55.6164 95.11C56.695 95.11 56.9117 94.1518 56.4757 94.0659C54.5278 93.6772 54.2984 93.1416 53.7037 92.6308C53.5923 92.5401 53.4458 92.4923 53.2955 92.4975Z" fill="#263238"/>
<path opacity="0.2" d="M51.6852 87.4282H54.2556L53.6508 90.1786H51.0804L51.6852 87.4282Z" fill="black"/>
<path d="M39.564 55.3701C39.622 55.4967 39.7076 55.6639 39.7832 55.8221C39.8588 55.9803 39.9395 56.1295 40.0352 56.2741C40.2032 56.5755 40.3763 56.8768 40.5544 57.1781C40.898 57.7694 41.2853 58.3394 41.7136 58.8844C42.1101 59.4033 42.569 59.8815 43.0819 60.3105C43.2054 60.4099 43.3339 60.5003 43.4549 60.5862C43.5179 60.6246 43.5809 60.6721 43.6439 60.7037L43.7396 60.758L43.7875 60.7874C43.8077 60.7987 43.7875 60.7874 43.7875 60.7874C43.7467 60.7805 43.7055 60.776 43.664 60.7738C43.5702 60.7702 43.4767 60.7872 43.3919 60.8235C43.3138 60.8619 43.286 60.8868 43.2785 60.9004C43.2709 60.9139 43.2911 60.9004 43.3138 60.8665C43.4589 60.6499 43.5652 60.4143 43.6288 60.1681C43.722 59.8698 43.7926 59.5444 43.8581 59.2144C43.9841 58.5477 44.0622 57.8584 44.1302 57.1533C44.2537 55.7543 44.3218 54.3215 44.3596 52.9045L45.6574 52.8276C45.8819 54.2795 46.0107 55.742 46.0429 57.2075C46.061 57.9562 46.0366 58.7052 45.9698 59.4517C45.9338 59.8447 45.8733 60.2355 45.7884 60.6224C45.7416 60.8329 45.6827 61.0411 45.612 61.2461C45.5289 61.4873 45.4174 61.7199 45.2794 61.94C45.1882 62.0826 45.08 62.216 44.9568 62.3377C44.7865 62.5008 44.584 62.6341 44.3596 62.731C44.0906 62.8414 43.7956 62.8911 43.5002 62.8756C43.2587 62.8601 43.0223 62.8058 42.8022 62.7151L42.6712 62.6609L42.588 62.6225L42.4217 62.5411C42.3108 62.4891 42.21 62.4281 42.1042 62.3716C41.9012 62.2567 41.7052 62.1322 41.517 61.9987C40.8111 61.4902 40.1802 60.9031 39.6396 60.2517C39.1219 59.6341 38.6505 58.9863 38.2284 58.3127C38.0243 57.9782 37.8328 57.6347 37.6488 57.2979C37.5556 57.1262 37.4674 56.9521 37.3792 56.7781C37.291 56.6041 37.2179 56.4346 37.1272 56.2289L39.564 55.3701Z" fill="#785651"/>
<path d="M39.1054 53.6751C40.3477 54.0639 41.7488 57.707 41.7488 57.707L37.3892 59.359C37.3892 59.359 35.474 56.3035 36.0234 55.1283C36.5954 53.9057 37.6009 53.2051 39.1054 53.6751Z" fill="#C53F3F"/>
<path d="M45.1282 53.4355L46.7536 52.6016L45.8464 51.397C45.8464 51.397 43.6565 52.2128 44.4175 53.1892L45.1282 53.4355Z" fill="#785651"/>
<path d="M47.1593 51.3969L46.3856 50.3708L45.8464 51.3969L46.7536 52.6015L47.1593 51.3969Z" fill="#785651"/>
<path opacity="0.2" d="M46.3856 50.3708L45.8464 51.3969C45.8464 51.3969 44.6191 51.8489 44.3218 52.493L46.1891 51.8511L46.7536 50.859L46.3856 50.3708Z" fill="black"/>
<path d="M48.8401 56.8887C48.6562 58.8368 47.1013 62.672 45.3121 67.8677H34.8692C35.023 64.5116 36.0184 62.1273 35.7034 56.1768C35.6227 54.6987 36.6433 53.3721 38.2939 53.2907C38.7349 53.2681 39.1961 53.2546 39.6572 53.2568C41.2383 53.2259 42.8198 53.2962 44.3898 53.467C44.9946 53.5439 45.6196 53.6433 46.2017 53.7473C46.9953 53.8881 47.7032 54.2864 48.19 54.866C48.6767 55.4455 48.9082 56.1657 48.8401 56.8887Z" fill="#C53F3F"/>
<path opacity="0.2" d="M46.998 57.7158C46.7334 58.6605 47.0963 60.2018 47.696 61.1058C47.948 60.3871 48.1597 59.734 48.3336 59.1441C47.9687 58.612 47.5187 58.1308 46.998 57.7158Z" fill="black"/>
<path d="M48.195 55.3091C49.1677 56.1566 50.1908 57.0131 51.219 57.8335C51.723 58.2426 52.2547 58.6426 52.7764 59.0245C53.298 59.4065 53.8322 59.7794 54.3665 60.1093C54.4975 60.1907 54.6336 60.2788 54.7646 60.3353L55.1401 60.5432C55.3032 60.6269 55.4847 60.6778 55.6718 60.6924C56.2163 60.7142 56.7596 60.6302 57.2645 60.4461C57.869 60.2429 58.4532 59.9942 59.0108 59.7025C59.2981 59.5511 59.5879 59.3974 59.8702 59.2324C60.1524 59.0675 60.4397 58.8912 60.6992 58.7285L61.5989 59.5714C61.3469 59.8404 61.0949 60.0686 60.8278 60.3014C60.5606 60.5342 60.2885 60.7534 59.9987 60.9794C59.4107 61.4225 58.7711 61.8074 58.091 62.1275C57.3275 62.5031 56.4766 62.7136 55.6063 62.7422C55.0851 62.7483 54.5688 62.651 54.0943 62.4575L54.0011 62.419L53.9381 62.3897L53.807 62.3286L53.555 62.2043C53.3786 62.123 53.2199 62.0326 53.051 61.9444C51.8045 61.2464 50.6207 60.4621 49.5104 59.5986C48.4042 58.7624 47.3584 57.9013 46.3378 56.9657L48.195 55.3091Z" fill="#785651"/>
<path d="M45.9094 53.7202C47.2072 53.5326 50.5764 56.5882 50.5764 56.5882L48.699 60.4143C48.699 60.4143 44.1 57.5803 43.969 56.3124C43.8228 54.9926 44.3369 53.9462 45.9094 53.7202Z" fill="#C53F3F"/>
<path d="M61.0117 60.003L63.1361 59.82L62.2994 57.9849C62.2994 57.9849 60.732 58.3939 60.1776 59.212L61.0117 60.003Z" fill="#785651"/>
<path d="M64.643 59.5284L63.9551 58.195L62.2994 57.9849L63.1336 59.82L64.643 59.5284Z" fill="#785651"/>
<path d="M39.312 47.2726C39.6547 49.5326 39.7454 50.5044 41.1239 51.5869C43.1953 53.2164 46.2244 52.344 46.6427 50.032C47.0207 47.9506 46.3907 44.5945 43.8379 43.8532C43.2746 43.6871 42.6732 43.653 42.091 43.7541C41.5088 43.8553 40.9651 44.0882 40.5116 44.4308C40.0581 44.7735 39.7098 45.2144 39.4998 45.7118C39.2899 46.2092 39.2252 46.7465 39.312 47.2726Z" fill="#785651"/>
<path d="M43.9463 44.5605C44.7678 44.8678 45.7481 46.5176 45.5566 47.6476C45.365 48.7776 44.1605 50.8116 45.7078 51.6614C45.7078 51.6614 42.9181 53.0581 37.984 51.8196C36.4241 51.4286 36.3838 50.5201 36.3838 50.5201C36.3838 50.5201 38.2738 49.7879 37.6614 48.5946C37.049 47.4013 36.6736 44.8814 38.3418 44.5605C38.5938 43.2045 42.7039 42.7276 44.546 43.9797C46.3882 45.2317 43.9463 44.5605 43.9463 44.5605Z" fill="#263238"/>
<path d="M42.5225 44.7595C43.7044 45.8782 46.8871 45.5731 46.4814 44.599C46.0757 43.625 44.6292 43.3628 44.6292 43.3628C44.6292 43.3628 45.1559 43.9414 43.412 43.4803C41.6682 43.0193 41.832 44.095 42.5225 44.7595Z" fill="#263238"/>
<path d="M45.6826 47.7946C45.8895 48.1904 45.9392 48.6377 45.8237 49.0624C45.6624 49.6229 45.1055 49.5822 44.7502 49.1619C44.4301 48.7822 44.1277 48.0319 44.478 47.6002C44.8283 47.1686 45.4255 47.3177 45.6826 47.7946Z" fill="#785651"/>
<path d="M47.061 67.8678C51.6978 68.0735 59.288 68.982 58.8143 72.1324C57.7307 79.3531 54.238 89.6474 54.238 89.6474H50.7352C50.7352 89.6474 51.1283 77.4434 52.7184 75.1111C48.1396 75.3371 42.4267 74.9574 39.7404 73.4297C37.4724 72.137 36.6282 70.0058 36.9684 67.904C36.9684 67.904 42.4217 67.6599 47.061 67.8678Z" fill="#C53F3F"/>
<path d="M54.6991 89.7084H50.2362L50.4328 88.305L55.1981 88.1626L54.6991 89.7084Z" fill="#263238"/>
<path d="M34.713 67.3187L34.2418 68.1549C34.2065 68.2205 34.2922 68.286 34.4131 68.286H45.36C45.4532 68.286 45.5314 68.2453 45.5389 68.1934L45.6322 67.3549C45.6322 67.2961 45.5566 67.2487 45.4532 67.2487H34.8844C34.8515 67.2461 34.8184 67.2512 34.7884 67.2635C34.7584 67.2758 34.7324 67.2948 34.713 67.3187Z" fill="#263238"/>
<path d="M36.1318 68.3786H35.8495C35.7941 68.3786 35.7512 68.3515 35.7538 68.3199L35.8873 67.2306C35.8873 67.1989 35.9402 67.1741 35.9957 67.1741H36.288C36.3434 67.1741 36.3863 67.1989 36.3812 67.2306L36.2502 68.3199C36.2376 68.3515 36.1897 68.3786 36.1318 68.3786Z" fill="#C53F3F"/>
<path d="M42.9912 68.3786H42.709C42.6535 68.3786 42.6082 68.3515 42.6132 68.3199L42.7468 67.2306C42.7468 67.1989 42.7997 67.1741 42.8551 67.1741H43.1374C43.1953 67.1741 43.2382 67.1989 43.2331 67.2306L43.092 68.3199C43.092 68.3515 43.0492 68.3786 42.9912 68.3786Z" fill="#C53F3F"/>
<path d="M52.2875 74.528C52.2875 74.5122 52.2875 74.4964 52.2875 74.4805L52.9452 70.7651C52.9662 70.6661 52.9623 70.5642 52.9338 70.4667C52.9054 70.3692 52.853 70.2786 52.7806 70.2015C52.7082 70.1245 52.6175 70.0629 52.5152 70.0212C52.4129 69.9795 52.3015 69.9588 52.1892 69.9605H45.0324L43.3188 59.8041C43.2686 59.5487 43.1221 59.3166 42.9036 59.1466C42.6852 58.9767 42.4083 58.8792 42.1193 58.8707H30.6608C30.5298 58.8671 30.3995 58.8901 30.2798 58.9379C30.16 58.9857 30.0537 59.0571 29.969 59.1468C29.8842 59.2365 29.8231 59.3422 29.7902 59.456C29.7573 59.5698 29.7534 59.6888 29.7788 59.8041L32.1426 73.8003C32.1928 74.0557 32.3393 74.2878 32.5578 74.4578C32.7762 74.6277 33.0531 74.7252 33.3421 74.7337H33.5588L33.7756 75.3823C33.8464 75.5925 33.9907 75.7767 34.1871 75.9078C34.3836 76.0388 34.6219 76.1097 34.8667 76.11H53.0863C53.0867 75.8105 53.0156 75.5143 52.8778 75.2415C52.74 74.9686 52.5388 74.7253 52.2875 74.528Z" fill="#C53F3F"/>
<path opacity="0.3" d="M52.2875 74.528C52.2875 74.5122 52.2875 74.4964 52.2875 74.4805L52.9452 70.7651C52.9662 70.6661 52.9623 70.5642 52.9338 70.4667C52.9054 70.3692 52.853 70.2786 52.7806 70.2015C52.7082 70.1245 52.6175 70.0629 52.5152 70.0212C52.4129 69.9795 52.3015 69.9588 52.1892 69.9605H45.0324L43.3188 59.8041C43.2686 59.5487 43.1221 59.3166 42.9036 59.1466C42.6852 58.9767 42.4083 58.8792 42.1193 58.8707H30.6608C30.5298 58.8671 30.3995 58.8901 30.2798 58.9379C30.16 58.9857 30.0537 59.0571 29.969 59.1468C29.8842 59.2365 29.8231 59.3422 29.7902 59.456C29.7573 59.5698 29.7534 59.6888 29.7788 59.8041L32.1426 73.8003C32.1928 74.0557 32.3393 74.2878 32.5578 74.4578C32.7762 74.6277 33.0531 74.7252 33.3421 74.7337H33.5588L33.7756 75.3823C33.8464 75.5925 33.9907 75.7767 34.1871 75.9078C34.3836 76.0388 34.6219 76.1097 34.8667 76.11H53.0863C53.0867 75.8105 53.0156 75.5143 52.8778 75.2415C52.74 74.9686 52.5388 74.7253 52.2875 74.528Z" fill="black"/>
<path d="M40.3301 95.1168H39.5312L40.6274 76.1079H41.4263L40.3301 95.1168Z" fill="#C53F3F"/>
<path opacity="0.5" d="M40.3301 95.1168H39.5312L40.6274 76.1079H41.4263L40.3301 95.1168Z" fill="white"/>
<path d="M52.2371 95.1168H53.0384L51.9422 76.1079H51.1434L52.2371 95.1168Z" fill="#C53F3F"/>
<path opacity="0.5" d="M52.2371 95.1168H53.0384L51.9422 76.1079H51.1434L52.2371 95.1168Z" fill="white"/>
<path d="M35.3228 95.1168H34.5215L35.6177 76.1079H36.4165L35.3228 95.1168Z" fill="#C53F3F"/>
<path opacity="0.5" d="M35.3228 95.1168H34.5215L35.6177 76.1079H36.4165L35.3228 95.1168Z" fill="white"/>
<path d="M47.2298 95.1168H48.0287L46.935 76.1079H46.1336L47.2298 95.1168Z" fill="#C53F3F"/>
<path opacity="0.5" d="M47.2298 95.1168H48.0287L46.935 76.1079H46.1336L47.2298 95.1168Z" fill="white"/>
<path d="M62.9546 38.9782C69.4347 38.9782 74.6878 34.2671 74.6878 28.4557C74.6878 22.6442 69.4347 17.9331 62.9546 17.9331C56.4746 17.9331 51.2215 22.6442 51.2215 28.4557C51.2215 34.2671 56.4746 38.9782 62.9546 38.9782Z" fill="white"/>
<path opacity="0.2" d="M62.9546 38.9782C69.4347 38.9782 74.6878 34.2671 74.6878 28.4557C74.6878 22.6442 69.4347 17.9331 62.9546 17.9331C56.4746 17.9331 51.2215 22.6442 51.2215 28.4557C51.2215 34.2671 56.4746 38.9782 62.9546 38.9782Z" fill="#C53F3F"/>
<path d="M50.8064 41.6995C51.5819 41.004 51.5819 39.8764 50.8064 39.1809C50.031 38.4854 48.7736 38.4854 47.9982 39.1809C47.2227 39.8764 47.2227 41.004 47.9982 41.6995C48.7736 42.3949 50.031 42.3949 50.8064 41.6995Z" fill="white"/>
<path opacity="0.2" d="M50.8064 41.6995C51.5819 41.004 51.5819 39.8764 50.8064 39.1809C50.031 38.4854 48.7736 38.4854 47.9982 39.1809C47.2227 39.8764 47.2227 41.004 47.9982 41.6995C48.7736 42.3949 50.031 42.3949 50.8064 41.6995Z" fill="#C53F3F"/>
<path d="M57.3137 36.9022C57.7124 35.3874 56.6663 33.8695 54.9771 33.512C53.288 33.1545 51.5956 34.0926 51.1969 35.6075C50.7982 37.1223 51.8443 38.6402 53.5334 38.9977C55.2226 39.3552 56.915 38.4171 57.3137 36.9022Z" fill="white"/>
<path opacity="0.2" d="M57.3137 36.9022C57.7124 35.3874 56.6663 33.8695 54.9771 33.512C53.288 33.1545 51.5956 34.0926 51.1969 35.6075C50.7982 37.1223 51.8443 38.6402 53.5334 38.9977C55.2226 39.3552 56.915 38.4171 57.3137 36.9022Z" fill="#C53F3F"/>
<path d="M73.2186 38.4358C73.1692 38.649 73.1915 38.8706 73.2826 39.0724C73.3737 39.2743 73.5295 39.4474 73.7303 39.5698C73.9311 39.6922 74.1679 39.7585 74.4107 39.7601C74.6535 39.7618 74.8915 39.6989 75.0944 39.5792C75.2973 39.4596 75.456 39.2887 75.5506 39.0881C75.6451 38.8875 75.6712 38.6663 75.6255 38.4525C75.5798 38.2386 75.4644 38.0417 75.2939 37.8866C75.1234 37.7316 74.9054 37.6254 74.6676 37.5815C74.3492 37.5234 74.0181 37.5806 73.7466 37.7406C73.4751 37.9007 73.2853 38.1506 73.2186 38.4358Z" fill="white"/>
<path opacity="0.2" d="M73.2186 38.4358C73.1692 38.649 73.1915 38.8706 73.2826 39.0724C73.3737 39.2743 73.5295 39.4474 73.7303 39.5698C73.9311 39.6922 74.1679 39.7585 74.4107 39.7601C74.6535 39.7618 74.8915 39.6989 75.0944 39.5792C75.2973 39.4596 75.456 39.2887 75.5506 39.0881C75.6451 38.8875 75.6712 38.6663 75.6255 38.4525C75.5798 38.2386 75.4644 38.0417 75.2939 37.8866C75.1234 37.7316 74.9054 37.6254 74.6676 37.5815C74.3492 37.5234 74.0181 37.5806 73.7466 37.7406C73.4751 37.9007 73.2853 38.1506 73.2186 38.4358Z" fill="#C53F3F"/>
<path d="M69.5923 35.6357C69.5132 35.9811 69.55 36.3398 69.6982 36.6665C69.8464 36.9931 70.0992 37.273 70.4247 37.4708C70.7503 37.6686 71.1339 37.7754 71.5271 37.7777C71.9203 37.7799 72.3054 37.6776 72.6338 37.4836C72.9621 37.2896 73.219 37.0127 73.3718 36.6878C73.5247 36.3629 73.5667 36.0046 73.4925 35.6583C73.4184 35.312 73.2314 34.9932 72.9552 34.7422C72.679 34.4911 72.3261 34.3192 71.941 34.2481C71.6851 34.2008 71.4215 34.1992 71.165 34.2434C70.9085 34.2876 70.6642 34.3767 70.4461 34.5055C70.228 34.6344 70.0403 34.8005 69.8938 34.9944C69.7473 35.1884 69.6449 35.4063 69.5923 35.6357Z" fill="white"/>
<path opacity="0.2" d="M69.5923 35.6357C69.5132 35.9811 69.55 36.3398 69.6982 36.6665C69.8464 36.9931 70.0992 37.273 70.4247 37.4708C70.7503 37.6686 71.1339 37.7754 71.5271 37.7777C71.9203 37.7799 72.3054 37.6776 72.6338 37.4836C72.9621 37.2896 73.219 37.0127 73.3718 36.6878C73.5247 36.3629 73.5667 36.0046 73.4925 35.6583C73.4184 35.312 73.2314 34.9932 72.9552 34.7422C72.679 34.4911 72.3261 34.3192 71.941 34.2481C71.6851 34.2008 71.4215 34.1992 71.165 34.2434C70.9085 34.2876 70.6642 34.3767 70.4461 34.5055C70.228 34.6344 70.0403 34.8005 69.8938 34.9944C69.7473 35.1884 69.6449 35.4063 69.5923 35.6357Z" fill="#C53F3F"/>
<path d="M56.3321 30.5709C55.6885 29.9941 55.2276 29.2742 54.9965 28.485L55.2485 28.4285C55.465 29.1777 55.8998 29.8618 56.5085 30.4105L56.3321 30.5709Z" fill="#C53F3F"/>
<path d="M55.0847 27.3211H54.8327C54.8306 26.7177 54.9621 26.12 55.2195 25.5625C55.4769 25.0051 55.855 24.4989 56.3321 24.0735L56.511 24.2317C56.0574 24.6365 55.6977 25.118 55.4529 25.6483C55.2081 26.1786 55.0829 26.7472 55.0847 27.3211Z" fill="#C53F3F"/>
<path d="M68.9522 24.6339C68.1569 23.9207 67.0782 23.52 65.9534 23.52C64.8287 23.52 63.75 23.9207 62.9546 24.6339C62.1566 23.9325 61.0821 23.5419 59.9647 23.547C58.8473 23.552 57.7773 23.9524 56.9872 24.661C56.197 25.3696 55.7507 26.3292 55.745 27.3313C55.7394 28.3334 56.1749 29.297 56.957 30.0127L62.9546 35.3938L68.9522 30.0127C69.3463 29.6597 69.6589 29.2404 69.8722 28.779C70.0855 28.3175 70.1953 27.8229 70.1953 27.3233C70.1953 26.8238 70.0855 26.3291 69.8722 25.8677C69.6589 25.4062 69.3463 24.987 68.9522 24.6339Z" fill="#C53F3F"/>
</svg>
