<svg width="96" height="96" viewBox="0 0 96 96" fill="none" xmlns="http://www.w3.org/2000/svg">
<path d="M47.9731 92.4479C70.7301 92.4479 89.1782 82.234 89.1782 69.6345C89.1782 57.035 70.7301 46.821 47.9731 46.821C25.2162 46.821 6.76801 57.035 6.76801 69.6345C6.76801 82.234 25.2162 92.4479 47.9731 92.4479Z" fill="#EBEBEB"/>
<g opacity="0.1">
<path d="M41.5104 83.8715C48.8642 83.8715 54.8256 80.8517 54.8256 77.1266C54.8256 73.4014 48.8642 70.3816 41.5104 70.3816C34.1566 70.3816 28.1952 73.4014 28.1952 77.1266C28.1952 80.8517 34.1566 83.8715 41.5104 83.8715Z" fill="black"/>
<path d="M61.9277 77.7409C57.2294 80.1198 49.6128 80.1198 44.9145 77.7409C40.2163 75.362 40.2163 71.5028 44.9145 69.122C49.6128 66.7412 57.2294 66.7432 61.9277 69.122C66.6259 71.5009 66.624 75.3601 61.9277 77.7409Z" fill="black"/>
</g>
<path d="M73.824 57.2909L72.3072 56.4135C72.3072 56.4135 71.4029 52.6618 71.7638 49.2845C72.2688 44.5383 75.3945 42.7565 76.583 43.1616C77.7715 43.5668 78.119 44.9511 76.1491 47.7696C74.9894 49.4477 73.5629 52.9229 73.824 57.2909Z" fill="#155332"/>
<g opacity="0.15">
<path d="M73.824 57.2909L72.3072 56.4135C72.3072 56.4135 71.4029 52.6618 71.7638 49.2845C72.2688 44.5383 75.3945 42.7565 76.583 43.1616C77.7715 43.5668 78.119 44.9511 76.1491 47.7696C74.9894 49.4477 73.5629 52.9229 73.824 57.2909Z" fill="black"/>
</g>
<path d="M73.1942 55.4477H73.2096C73.2371 55.4426 73.2614 55.4268 73.2772 55.4038C73.2931 55.3807 73.2991 55.3523 73.2941 55.3249C72.4608 50.9453 73.991 46.0263 75.8861 43.9777C75.9026 43.9567 75.9106 43.9303 75.9084 43.9037C75.9063 43.8771 75.8941 43.8523 75.8744 43.8343C75.8547 43.8163 75.8289 43.8064 75.8022 43.8066C75.7755 43.8069 75.7499 43.8172 75.7306 43.8356C73.8106 45.9207 72.2419 50.9204 73.0867 55.3556C73.09 55.3815 73.1029 55.4053 73.1227 55.4223C73.1426 55.4394 73.1681 55.4484 73.1942 55.4477Z" fill="white"/>
<path d="M77.7984 59.5872C78.0384 59.7081 78.6758 59.1629 78.8544 59.0304C79.1586 58.799 79.3985 58.4936 79.5513 58.1433C79.7214 57.7462 79.7637 57.306 79.6723 56.8838C79.6238 56.6607 79.5597 56.4413 79.4803 56.2272L79.2614 55.5897C79.176 55.3848 79.1329 55.1647 79.1347 54.9427C79.1693 54.4992 79.5456 54.1747 79.8893 53.8848C80.2733 53.5699 80.6573 53.159 80.6304 52.6272C80.5798 52.2157 80.3949 51.8323 80.1043 51.5366C79.8336 51.2275 79.5283 50.9606 79.271 50.6304C79.0789 50.4025 78.9699 50.1161 78.9619 49.8182C78.9773 49.6343 79.0295 49.4554 79.1155 49.2921C79.3155 48.9524 79.487 48.5966 79.6281 48.2285C79.7395 47.8445 79.6973 47.3875 79.3939 47.136C79.2591 47.0458 79.1076 46.9834 78.9484 46.9524C78.7892 46.9214 78.6254 46.9225 78.4665 46.9555C78.1668 47.0079 77.8819 47.1245 77.6313 47.2973C76.8115 47.8099 76.3795 48.8333 75.5021 49.2403C75.1521 49.3697 74.7942 49.4768 74.4307 49.5609C74.249 49.6043 74.0782 49.6851 73.9295 49.7982C73.7807 49.9112 73.6572 50.0541 73.5667 50.2176C73.271 50.8915 73.9238 51.6691 73.7261 52.3795C73.5533 53.0054 72.9581 53.2723 72.6566 53.8464C72.5326 54.0986 72.4916 54.3835 72.5395 54.6605C72.5936 55.1297 72.7328 55.5852 72.9504 56.0045C73.1942 56.4363 73.4648 56.8525 73.7606 57.2505L77.7984 59.5872Z" fill="#155332"/>
<path d="M75.4771 58.3679C75.4911 58.367 75.5047 58.3632 75.5172 58.3568C75.5297 58.3505 75.5408 58.3416 75.5497 58.3309C75.5587 58.3201 75.5654 58.3076 75.5694 58.2942C75.5735 58.2808 75.5747 58.2667 75.5731 58.2527C75.1891 54.0883 76.9171 49.3823 78.2861 47.9711C78.2959 47.9613 78.3038 47.9497 78.3091 47.9368C78.3145 47.924 78.3172 47.9102 78.3172 47.8963C78.3172 47.8823 78.3145 47.8686 78.3091 47.8557C78.3038 47.8429 78.2959 47.8312 78.2861 47.8214C78.266 47.8019 78.2392 47.791 78.2112 47.791C78.1832 47.791 78.1564 47.8019 78.1363 47.8214C76.7462 49.2595 74.976 54.046 75.3658 58.27C75.3665 58.2838 75.37 58.2973 75.376 58.3098C75.382 58.3222 75.3905 58.3333 75.4008 58.3424C75.4112 58.3515 75.4233 58.3585 75.4364 58.3629C75.4495 58.3673 75.4633 58.369 75.4771 58.3679Z" fill="white"/>
<path d="M75.8899 53.2417H75.9206C76.8961 52.9198 77.9036 52.7048 78.9254 52.6004C78.9511 52.5954 78.9741 52.5811 78.9898 52.5601C79.0056 52.5392 79.0129 52.5131 79.0105 52.4871C79.0082 52.461 78.9961 52.4367 78.9769 52.419C78.9576 52.4013 78.9324 52.3913 78.9062 52.3911C77.8661 52.4972 76.8405 52.7161 75.8477 53.0439C75.8231 53.0521 75.8024 53.0689 75.7895 53.0913C75.7766 53.1137 75.7723 53.1401 75.7775 53.1654C75.7827 53.1907 75.797 53.2133 75.8177 53.2287C75.8385 53.2442 75.8641 53.2515 75.8899 53.2494V53.2417Z" fill="white"/>
<path d="M20.9702 57.2909L22.487 56.4135C22.487 56.4135 23.3914 52.6618 23.0304 49.2845C22.5254 44.5383 19.3997 42.7565 18.2112 43.1616C17.0227 43.5668 16.6752 44.9511 18.6451 47.7696C19.8048 49.4477 21.2314 52.9229 20.9702 57.2909Z" fill="#155332"/>
<g opacity="0.15">
<path d="M20.9702 57.2909L22.487 56.4135C22.487 56.4135 23.3914 52.6618 23.0304 49.2845C22.5254 44.5383 19.3997 42.7565 18.2112 43.1616C17.0227 43.5668 16.6752 44.9511 18.6451 47.7696C19.8048 49.4477 21.2314 52.9229 20.9702 57.2909Z" fill="black"/>
</g>
<path d="M21.6 55.4477H21.5846C21.5572 55.4426 21.5328 55.4268 21.517 55.4038C21.5012 55.3807 21.4951 55.3523 21.5002 55.3249C22.3334 50.9453 20.8032 46.0263 18.9082 43.9777C18.8916 43.9567 18.8837 43.9303 18.8858 43.9037C18.888 43.8771 18.9001 43.8523 18.9198 43.8343C18.9395 43.8163 18.9653 43.8064 18.992 43.8066C19.0187 43.8069 19.0443 43.8172 19.0637 43.8356C20.9837 45.9207 22.5523 50.9204 21.7075 55.3556C21.7042 55.3815 21.6914 55.4053 21.6715 55.4223C21.6516 55.4394 21.6262 55.4484 21.6 55.4477Z" fill="white"/>
<path d="M16.9958 59.5872C16.7558 59.7082 16.1184 59.1629 15.9398 59.0304C15.6357 58.799 15.3957 58.4937 15.2429 58.1434C15.0728 57.7463 15.0306 57.3061 15.1219 56.8839C15.1695 56.6605 15.2337 56.441 15.3139 56.2272C15.3869 56.0141 15.4598 55.801 15.5309 55.5898C15.6178 55.3853 15.6616 55.165 15.6595 54.9428C15.625 54.4992 15.2486 54.1748 14.905 53.8848C14.521 53.57 14.137 53.1591 14.1638 52.6272C14.2144 52.2157 14.3993 51.8324 14.6899 51.5367C14.9606 51.2276 15.2659 50.9607 15.5232 50.6304C15.7153 50.4026 15.8243 50.1162 15.8323 49.8183C15.8169 49.6344 15.7647 49.4555 15.6787 49.2922C15.4794 48.9524 15.3085 48.5966 15.168 48.2285C15.0566 47.8445 15.0989 47.3876 15.4022 47.136C15.5368 47.046 15.6879 46.9837 15.8468 46.9527C16.0057 46.9217 16.1692 46.9227 16.3277 46.9556C16.6281 47.0077 16.9137 47.1243 17.1648 47.2973C17.9846 47.81 18.4166 48.8333 19.2941 49.2404C19.6441 49.3698 20.0019 49.4769 20.3654 49.561C20.5472 49.6044 20.7179 49.6852 20.8667 49.7982C21.0154 49.9113 21.139 50.0541 21.2294 50.2176C21.5251 50.8916 20.8723 51.6692 21.0701 52.3796C21.2429 53.0055 21.8381 53.2724 22.1395 53.8464C22.2639 54.0985 22.3043 54.3838 22.2547 54.6605C22.2022 55.1299 22.0636 55.5855 21.8458 56.0045C21.6019 56.4364 21.3313 56.8526 21.0355 57.2506L16.9958 59.5872Z" fill="#155332"/>
<path d="M19.3171 58.3679C19.3031 58.367 19.2895 58.3632 19.277 58.3568C19.2645 58.3505 19.2535 58.3416 19.2445 58.3309C19.2355 58.3201 19.2288 58.3076 19.2248 58.2942C19.2208 58.2808 19.2195 58.2667 19.2211 58.2527C19.6051 54.0883 17.8771 49.3823 16.5082 47.9711C16.4983 47.9613 16.4905 47.9497 16.4851 47.9368C16.4798 47.924 16.477 47.9102 16.477 47.8963C16.477 47.8823 16.4798 47.8686 16.4851 47.8557C16.4905 47.8429 16.4983 47.8312 16.5082 47.8214C16.5282 47.8019 16.5551 47.791 16.583 47.791C16.611 47.791 16.6379 47.8019 16.6579 47.8214C18.048 49.2595 19.8182 54.046 19.4285 58.27C19.4278 58.2838 19.4243 58.2973 19.4183 58.3098C19.4122 58.3222 19.4038 58.3333 19.3934 58.3424C19.383 58.3515 19.3709 58.3585 19.3578 58.3629C19.3447 58.3673 19.3309 58.369 19.3171 58.3679Z" fill="white"/>
<path d="M18.9043 53.2417H18.8736C17.8982 52.9198 16.8907 52.7048 15.8688 52.6004C15.8431 52.5954 15.8201 52.5811 15.8044 52.5601C15.7887 52.5392 15.7813 52.5131 15.7837 52.4871C15.7861 52.461 15.7981 52.4367 15.8173 52.419C15.8366 52.4013 15.8618 52.3913 15.888 52.3911C16.9282 52.4972 17.9537 52.7161 18.9466 53.0439C18.9711 53.0521 18.9918 53.0689 19.0047 53.0913C19.0177 53.1137 19.0219 53.1401 19.0167 53.1654C19.0115 53.1907 18.9972 53.2133 18.9765 53.2287C18.9558 53.2442 18.9301 53.2515 18.9043 53.2494V53.2417Z" fill="white"/>
<path d="M59.9424 72.5875H57.5578L57.239 68.4595L59.9424 69.1142V72.5875Z" fill="#694B47"/>
<path d="M54.3667 76.3987C54.2823 76.4775 54.2995 76.9075 54.3936 77.0535C54.4877 77.1994 55.056 77.7254 56.0871 77.8003C57.0739 77.8714 57.913 77.7504 58.4909 77.3818C59.0688 77.0131 59.353 76.5773 59.4067 76.0147C59.4605 75.4522 59.3933 74.976 59.6602 74.544C59.9079 74.1446 60.4282 73.6435 60.4896 73.4208C60.6087 73.0368 60.457 72.3687 60.457 72.3687L54.3667 76.3987Z" fill="#263238"/>
<path d="M57.0662 71.4931C57.0585 71.7061 57.0203 71.9169 56.9529 72.119C56.8015 72.5539 56.5984 72.969 56.3481 73.3555C56.2242 73.5565 56.0869 73.7489 55.9373 73.9315C55.6377 74.2867 55.2672 74.5786 54.9523 74.9184C54.6155 75.2398 54.4004 75.6679 54.3437 76.1299C54.3014 76.8979 55.1405 77.1667 55.7875 77.2819C56.4862 77.4062 57.2039 77.3727 57.888 77.184C58.2462 77.0903 58.5699 76.8958 58.8207 76.6235C59.0716 76.3512 59.239 76.0126 59.303 75.648C59.3376 75.433 59.3261 75.2122 59.351 74.9971C59.4364 74.5032 59.6428 74.0381 59.952 73.6435C60.1316 73.4146 60.2867 73.1675 60.4147 72.9062C60.6067 72.4282 60.4531 71.8886 60.3245 71.4125C60.2131 70.9997 60.0883 70.5331 59.9405 70.5734C59.9405 70.7866 59.9405 70.8077 59.7888 70.9574C59.5968 71.1398 59.5853 71.4163 59.3817 71.5776C59.4478 71.3991 59.4961 71.2146 59.5257 71.0266C59.5377 70.9507 59.5221 70.873 59.4816 70.8077C59.4126 70.7483 59.3313 70.705 59.2435 70.681C58.9386 70.5783 58.624 70.5069 58.3046 70.4678C58.0007 70.4179 57.6908 70.4179 57.3869 70.4678C57.2972 70.4856 57.2161 70.533 57.1565 70.6022C57.103 70.6803 57.0743 70.7726 57.0739 70.8672C57.0624 70.969 57.072 71.2877 57.0662 71.4931Z" fill="#155332"/>
<path opacity="0.5" d="M57.0662 71.4931C57.0585 71.7061 57.0203 71.9169 56.9529 72.119C56.8015 72.5539 56.5984 72.969 56.3481 73.3555C56.2242 73.5565 56.0869 73.7489 55.9373 73.9315C55.6377 74.2867 55.2672 74.5786 54.9523 74.9184C54.6155 75.2398 54.4004 75.6679 54.3437 76.1299C54.3014 76.8979 55.1405 77.1667 55.7875 77.2819C56.4862 77.4062 57.2039 77.3727 57.888 77.184C58.2462 77.0903 58.5699 76.8958 58.8207 76.6235C59.0716 76.3512 59.239 76.0126 59.303 75.648C59.3376 75.433 59.3261 75.2122 59.351 74.9971C59.4364 74.5032 59.6428 74.0381 59.952 73.6435C60.1316 73.4146 60.2867 73.1675 60.4147 72.9062C60.6067 72.4282 60.4531 71.8886 60.3245 71.4125C60.2131 70.9997 60.0883 70.5331 59.9405 70.5734C59.9405 70.7866 59.9405 70.8077 59.7888 70.9574C59.5968 71.1398 59.5853 71.4163 59.3817 71.5776C59.4478 71.3991 59.4961 71.2146 59.5257 71.0266C59.5377 70.9507 59.5221 70.873 59.4816 70.8077C59.4126 70.7483 59.3313 70.705 59.2435 70.681C58.9386 70.5783 58.624 70.5069 58.3046 70.4678C58.0007 70.4179 57.6908 70.4179 57.3869 70.4678C57.2972 70.4856 57.2161 70.533 57.1565 70.6022C57.103 70.6803 57.0743 70.7726 57.0739 70.8672C57.0624 70.969 57.072 71.2877 57.0662 71.4931Z" fill="black"/>
<path d="M56.2445 73.5167C56.5325 73.3016 57.1776 73.2978 57.5309 73.3362C57.8893 73.368 58.234 73.4895 58.5331 73.6895C58.5774 73.7208 58.6314 73.7355 58.6855 73.7309C58.7396 73.7264 58.7903 73.7028 58.8288 73.6645C58.8514 73.6428 58.869 73.6165 58.8804 73.5873C58.8918 73.5581 58.8966 73.5267 58.8946 73.4954C58.8926 73.4642 58.8838 73.4337 58.8688 73.4062C58.8537 73.3787 58.8329 73.3548 58.8077 73.3362C58.4775 73.0946 58.0866 72.9497 57.6787 72.9176C56.8089 72.8562 56.5555 73.0059 56.5555 73.0059C56.5555 73.0059 56.1581 73.2613 56.2445 73.5167Z" fill="#263238"/>
<path d="M55.5821 74.3039C55.9431 74.0908 56.6535 74.1215 57.0067 74.158C57.3589 74.1944 57.6953 74.3229 57.9821 74.5305C58.0263 74.5617 58.0801 74.5765 58.1341 74.5723C58.1881 74.5681 58.2389 74.5451 58.2778 74.5074C58.3004 74.4856 58.3181 74.4591 58.3295 74.4297C58.3408 74.4003 58.3457 74.3689 58.3437 74.3374C58.3417 74.306 58.3328 74.2754 58.3178 74.2477C58.3028 74.2201 58.2819 74.196 58.2567 74.1772C57.9218 73.9232 57.523 73.767 57.1047 73.726C56.2349 73.6646 56.0103 73.8431 56.0103 73.8431C55.9086 73.8824 55.8172 73.9443 55.743 74.0241C55.6688 74.104 55.6138 74.1997 55.5821 74.3039Z" fill="#263238"/>
<path d="M58.0243 72.0864C57.6583 72.0228 57.282 72.0545 56.9318 72.1786C56.7782 72.265 56.6784 72.5069 56.7763 72.5626C57.0804 72.4396 57.4101 72.3934 57.7363 72.4282C58.0624 72.4604 58.3805 72.5481 58.6771 72.6874C58.7501 72.72 58.8384 72.7661 58.9152 72.8083C58.9396 72.8222 58.9665 72.8309 58.9944 72.834C59.0223 72.837 59.0505 72.8343 59.0773 72.826C59.1041 72.8178 59.129 72.8041 59.1503 72.7859C59.1716 72.7676 59.1889 72.7452 59.2013 72.72C59.2219 72.6768 59.2257 72.6275 59.2118 72.5817C59.198 72.5359 59.1675 72.4969 59.1264 72.4723C58.7906 72.2669 58.4149 72.1353 58.0243 72.0864Z" fill="#263238"/>
<path d="M51.5021 68.5075L48.9734 67.367V63.7555L51.8054 63.719L51.7152 66.5203L51.5021 68.5075Z" fill="#694B47"/>
<path d="M43.4918 70.9728C43.4168 71.1991 43.4305 71.4455 43.5302 71.6621C43.6262 71.8637 44.8185 72.3552 46.2374 72.2592C47.2372 72.2169 48.2054 71.8964 49.0329 71.3338C49.5744 70.9766 50.1389 70.9094 50.8416 70.8691C51.5443 70.8288 52.4678 70.4851 52.6214 70.1491C52.775 69.8131 52.5984 69.2544 52.5984 69.2544L43.4918 70.9728Z" fill="#263238"/>
<path d="M49.2192 66.5435L49.1078 66.5185C49.0451 66.5024 48.9798 66.4991 48.9158 66.5089C48.8471 66.5304 48.7863 66.5718 48.7411 66.6279C48.6023 66.8081 48.4808 67.001 48.3782 67.2039C48.0806 67.6897 47.4566 68.091 46.775 68.4577C46.3104 68.7073 45.8573 68.9012 45.3773 69.1163C44.8973 69.3313 44.2406 69.4695 43.8586 69.7287C43.3018 70.1031 43.2288 71.0459 43.8586 71.4183C44.4058 71.7409 45.8458 72.0884 47.3568 71.6603C48.1805 71.4279 49.0944 70.5486 50.1754 70.4641C50.8608 70.4103 52.1606 70.2164 52.6022 69.6961C52.7654 69.4638 52.5485 68.7361 52.368 68.0967C52.176 67.4055 51.9398 66.3227 51.7114 66.3841C51.6787 66.843 51.0854 66.9159 50.7302 66.9102C50.2118 66.8948 49.728 66.6529 49.2192 66.5435Z" fill="#155332"/>
<path opacity="0.5" d="M49.2192 66.5435L49.1078 66.5185C49.0451 66.5024 48.9798 66.4991 48.9158 66.5089C48.8471 66.5304 48.7863 66.5718 48.7411 66.6279C48.6023 66.8081 48.4808 67.001 48.3782 67.2039C48.0806 67.6897 47.4566 68.091 46.775 68.4577C46.3104 68.7073 45.8573 68.9012 45.3773 69.1163C44.8973 69.3313 44.2406 69.4695 43.8586 69.7287C43.3018 70.1031 43.2288 71.0459 43.8586 71.4183C44.4058 71.7409 45.8458 72.0884 47.3568 71.6603C48.1805 71.4279 49.0944 70.5486 50.1754 70.4641C50.8608 70.4103 52.1606 70.2164 52.6022 69.6961C52.7654 69.4638 52.5485 68.7361 52.368 68.0967C52.176 67.4055 51.9398 66.3227 51.7114 66.3841C51.6787 66.843 51.0854 66.9159 50.7302 66.9102C50.2118 66.8948 49.728 66.6529 49.2192 66.5435Z" fill="black"/>
<path d="M47.424 68.0775C47.4733 67.983 47.5456 67.9023 47.6341 67.843C47.7227 67.7836 47.8247 67.7474 47.9309 67.7377C48.2439 67.6801 48.7949 67.9105 49.1386 68.1927C49.1712 68.219 49.1969 68.2528 49.2133 68.2914C49.2298 68.3299 49.2365 68.3719 49.2329 68.4136C49.2293 68.4554 49.2155 68.4956 49.1927 68.5307C49.1699 68.5658 49.1387 68.5948 49.1021 68.6151C49.056 68.641 49.0029 68.652 48.9503 68.6465C48.8977 68.641 48.8481 68.6193 48.8083 68.5844C48.4307 68.2412 47.9339 68.0593 47.424 68.0775Z" fill="#263238"/>
<path d="M46.4506 68.6189C46.5186 68.523 46.6087 68.4448 46.7133 68.391C46.8179 68.3372 46.9339 68.3094 47.0515 68.3098C47.0515 68.3098 47.8694 68.3329 48.3744 68.8052C48.4051 68.8311 48.4292 68.864 48.4446 68.9011C48.46 68.9383 48.4662 68.9785 48.4628 69.0186C48.4594 69.0586 48.4465 69.0973 48.4251 69.1313C48.4037 69.1653 48.3745 69.1937 48.3398 69.2141C48.2951 69.2383 48.2441 69.2482 48.1936 69.2423C48.1431 69.2365 48.0956 69.2152 48.0576 69.1815C47.8489 68.9735 47.5961 68.815 47.318 68.7176C47.0399 68.6203 46.7434 68.5865 46.4506 68.6189Z" fill="#263238"/>
<path d="M45.3811 69.1085C45.4589 69.0197 45.5549 68.9487 45.6626 68.9003C45.7703 68.8519 45.8871 68.8273 46.0051 68.8281C46.4699 68.8569 46.9136 69.0323 47.2723 69.3293C47.3031 69.3552 47.3271 69.3881 47.3425 69.4252C47.3579 69.4623 47.3641 69.5026 47.3608 69.5427C47.3574 69.5827 47.3444 69.6214 47.323 69.6554C47.3016 69.6894 47.2724 69.7178 47.2378 69.7382C47.1931 69.7627 47.142 69.7727 47.0915 69.7668C47.0409 69.761 46.9934 69.7396 46.9555 69.7056C46.7578 69.4902 46.5125 69.3241 46.2391 69.2204C45.9657 69.1168 45.6719 69.0784 45.3811 69.1085Z" fill="#263238"/>
<path d="M59.8022 34.126C59.9942 36.7103 60.2361 51.3426 60.2361 51.3426C60.2918 51.9993 60.768 54.0556 60.6355 56.5727C60.455 59.9903 59.9424 69.6517 59.9424 69.6517C59.9424 69.6517 59.0208 70.4447 57.3427 69.8034C57.3427 69.8034 55.2845 55.5532 54.8582 52.1644C54.4742 49.2076 53.9654 42.5913 53.9654 42.5913L53.3107 50.8281C53.3107 50.8281 53.5027 53.2031 53.3107 54.9311C53.1302 56.4921 51.7305 66.021 51.7305 66.021C50.8293 66.3021 49.8608 66.2799 48.9734 65.9577C48.9734 65.9577 48.2323 52.389 48.1171 50.9548C47.9597 48.9695 48.1325 34.2853 48.1325 34.2853L59.8022 34.126Z" fill="#37474F"/>
<path d="M53.8445 41.2474C53.8445 41.2474 51.9456 40.6388 50.5305 39.2717C50.5305 39.2717 51.1718 40.4717 53.0765 41.5873L53.376 49.5572L53.952 42.5914L53.8445 41.2474Z" fill="#263238"/>
<path d="M55.9795 19.6243C56.16 19.6684 57.504 19.8796 58.3162 20.0294C59.161 20.1868 60.6586 21.6537 60.6586 22.5139L59.6986 30.551L60.0077 37.271C58.3354 39.0892 50.4768 39.383 46.825 36.7199C46.825 36.7199 46.7443 27.9475 47.1782 25.0713C47.7542 21.214 49.5571 19.9583 52.4083 19.7913L55.9795 19.6243Z" fill="#155332"/>
<path opacity="0.5" d="M55.9795 19.6243C56.16 19.6684 57.504 19.8796 58.3162 20.0294C59.161 20.1868 60.6586 21.6537 60.6586 22.5139L59.6986 30.551L60.0077 37.271C58.3354 39.0892 50.4768 39.383 46.825 36.7199C46.825 36.7199 46.7443 27.9475 47.1782 25.0713C47.7542 21.214 49.5571 19.9583 52.4083 19.7913L55.9795 19.6243Z" fill="#155332"/>
<path opacity="0.05" d="M59.712 30.5511L60.5549 23.4471L60.288 23.4241L53.9654 31.5457C53.9654 31.5457 49.536 34.1761 49.2058 34.3335C48.7453 34.6621 48.3048 35.018 47.8867 35.3991C47.8867 36.3092 47.904 36.8871 47.904 36.8871C48.3153 37.1859 48.7552 37.4431 49.2173 37.6551C50.6131 36.9466 55.7587 34.6446 56.5862 33.8478C57.2848 33.1378 57.9183 32.3667 58.4794 31.5438C58.4794 31.5438 58.4794 32.523 58.3546 34.1031C58.2298 35.6833 56.4864 38.9031 52.5235 38.571L52.5638 38.5998C55.7779 38.9166 59.0112 38.3751 60.0154 37.2826L59.712 30.5511Z" fill="black"/>
<path d="M56.3558 10.0837C56.5454 10.0468 56.741 10.0536 56.9276 10.1035C57.1142 10.1534 57.287 10.2451 57.4329 10.3717C57.9187 10.7979 57.8899 11.6581 57.6845 13.6357L56.3059 13.9026L56.3558 10.0837Z" fill="#263238"/>
<path d="M48.192 10.1432C47.8926 10.168 47.5912 10.1308 47.3069 10.0338C46.8614 9.82066 46.7866 10.3141 47.0534 10.7192C47.2308 11.0109 47.4799 11.2522 47.7771 11.4202C48.0742 11.5883 48.4094 11.6775 48.7507 11.6792C48.7507 11.6178 49.0656 10.5618 49.0656 10.5618L48.192 10.1432Z" fill="#263238"/>
<path d="M52.9709 13.2569C53.6419 11.9089 53.093 10.2722 51.745 9.60128C50.3969 8.93036 48.7603 9.47925 48.0894 10.8273C47.4184 12.1753 47.9673 13.812 49.3153 14.4829C50.6634 15.1538 52.3 14.6049 52.9709 13.2569Z" fill="#263238"/>
<path d="M55.9968 13.9354C56.2118 14.0429 56.3366 13.6013 56.5728 13.3152C56.809 13.0291 57.7498 12.6221 58.2336 13.465C58.7174 14.3078 58.0262 15.5616 57.3869 15.817C56.2829 16.2586 56.064 15.552 56.064 15.552L55.9853 19.6282C55.726 20.1667 55.348 20.6394 54.8798 21.0108C54.4116 21.3823 53.8653 21.6428 53.2819 21.7728C51.3024 22.199 51.8266 20.663 52.4218 19.8029L52.5197 18.5645C52.5197 18.5645 51.5098 18.7987 51.0048 18.7565C50.1638 18.6912 49.6147 18.5318 49.2154 17.6045C48.6278 16.2202 48.3475 14.256 48.4474 11.7043C48.5626 8.56319 52.3949 8.32895 54.4416 9.40031C56.4883 10.4717 55.9968 13.9354 55.9968 13.9354Z" fill="#694B47"/>
<path d="M52.0858 13.728C52.1253 13.8603 52.2084 13.9754 52.3215 14.0546C52.4347 14.1337 52.5712 14.1723 52.7091 14.1641C52.8469 14.1559 52.978 14.1013 53.0809 14.0093C53.1838 13.9172 53.2527 13.7931 53.2762 13.657C53.1228 13.8122 52.9179 13.9058 52.7002 13.92C52.4787 13.9337 52.26 13.8654 52.0858 13.728Z" fill="#263238"/>
<path d="M49.0579 14.0506C49.107 14.1793 49.1978 14.2878 49.3159 14.3587C49.434 14.4295 49.5725 14.4587 49.7091 14.4414C49.8457 14.4241 49.9726 14.3615 50.0694 14.2634C50.1661 14.1654 50.2271 14.0377 50.2426 13.9009C50.0998 14.0697 49.8992 14.1792 49.68 14.2081C49.4604 14.2332 49.2391 14.1772 49.0579 14.0506Z" fill="#263238"/>
<path d="M52.5389 12.3956L53.4067 12.7028C53.447 12.5838 53.4392 12.4538 53.3851 12.3405C53.3309 12.2272 53.2347 12.1395 53.1168 12.0961C53.0592 12.0762 52.9983 12.0683 52.9376 12.0727C52.8768 12.0772 52.8177 12.0939 52.7636 12.1219C52.7096 12.1499 52.6618 12.1886 52.6231 12.2357C52.5845 12.2827 52.5558 12.3371 52.5389 12.3956Z" fill="#263238"/>
<path d="M52.3757 16.3833L51.5424 16.7673C51.5654 16.8233 51.5994 16.8741 51.6424 16.9167C51.6855 16.9593 51.7367 16.9928 51.7929 17.0152C51.8492 17.0376 51.9094 17.0484 51.9699 17.0471C52.0304 17.0457 52.0901 17.0322 52.1453 17.0073C52.2562 16.9525 52.3419 16.8572 52.3847 16.7412C52.4276 16.6251 52.4243 16.497 52.3757 16.3833Z" fill="#AD6359"/>
<path d="M48.96 13.0561L49.6493 12.4378C49.6112 12.3908 49.5639 12.352 49.5103 12.3238C49.4566 12.2956 49.3978 12.2787 49.3375 12.274C49.2771 12.2694 49.2164 12.277 49.1591 12.2966C49.1018 12.3162 49.0491 12.3473 49.0042 12.3879C48.9125 12.4724 48.8568 12.5888 48.8486 12.7132C48.8403 12.8375 48.8802 12.9603 48.96 13.0561Z" fill="#263238"/>
<path d="M51.2026 13.561L51.2506 15.8286L50.041 15.5156L51.2026 13.561Z" fill="#AD6359"/>
<path d="M55.9353 14.5171C56.0179 14.4537 56.2214 13.5878 56.7033 13.1904C57.0777 12.8851 56.3482 10.0838 56.3482 10.0838C56.3482 10.0838 56.64 8.94334 55.872 8.25598C55.104 7.56862 53.76 7.80286 52.7539 7.84318C51.7133 7.88542 50.5958 7.90846 49.1328 7.40158C47.6697 6.8947 47.5565 6.82558 47.4278 7.46686C47.2992 8.10814 47.3433 9.53278 48.263 10.4237L48.9869 10.6272C48.9869 10.6272 49.392 10.9363 50.7264 10.9958C51.7281 11.0229 52.7298 10.9412 53.7139 10.752C54.0979 10.6713 54.5222 10.9075 54.745 12.1075C54.912 12.9984 55.0541 15.2025 55.9353 14.5171Z" fill="#263238"/>
<path d="M56.3712 10.3124L57.5693 9.54437C57.5228 9.46472 57.4609 9.39517 57.3871 9.33981C57.3134 9.28446 57.2293 9.24442 57.1398 9.22205C57.0504 9.19969 56.9574 9.19545 56.8662 9.20959C56.7751 9.22372 56.6877 9.25595 56.6093 9.30437C56.4473 9.40934 56.3322 9.57277 56.2878 9.76057C56.2435 9.94837 56.2733 10.146 56.3712 10.3124Z" fill="#263238"/>
<path d="M52.5139 18.5606C52.5139 18.5606 53.8579 18.0921 54.4819 17.6985C54.8477 17.4687 55.136 17.1342 55.3094 16.7385C55.24 17.1243 55.0944 17.4924 54.8813 17.8214C54.4531 18.4646 52.5523 19.0483 52.5523 19.0483L52.5139 18.5606Z" fill="#694B47"/>
<path d="M40.4083 31.899C39.0528 31.874 37.6109 31.6667 36.553 30.8218C35.3837 29.8887 34.6714 28.3834 34.9901 26.9377C35.3184 25.4401 36.215 24.7182 37.0656 23.7428C38.9683 21.5578 38.8166 19.1809 38.8166 16.7425C38.8166 16.0721 38.9487 15.4082 39.2052 14.7888C39.4618 14.1694 39.8379 13.6066 40.3119 13.1325C41.2694 12.1751 42.5679 11.6372 43.9219 11.6372H44.352C45.1477 11.6367 45.9325 11.8224 46.6437 12.1794C47.3548 12.5365 47.9725 13.055 48.4474 13.6935C48.5798 15.4753 48.8314 17.0574 49.4573 18.0462V20.4231C49.4682 21.9491 49.2355 23.4671 48.768 24.9198C48.0806 27.0318 46.9728 28.9518 45.5885 30.1998C44.2042 31.4478 42.24 31.9354 40.4083 31.899Z" fill="#263238"/>
<path d="M38.6899 31.0176C38.6899 31.0176 36.8506 33.6038 36.4973 34.6963C36.3053 35.2723 36.3053 35.9155 37.0733 36.119C37.8413 36.3225 40.8288 33.431 40.8288 33.431L38.6899 31.0176Z" fill="#694B47"/>
<path d="M41.3741 22.7271C40.4352 22.562 39.193 22.5524 38.3981 23.6679C37.6762 24.6836 37.5744 28.704 37.5744 28.704L41.3741 22.7271Z" fill="#694B47"/>
<path d="M39.7114 14.2079C39.6652 14.2927 39.6019 14.3669 39.5255 14.4259C39.4491 14.4848 39.3613 14.5272 39.2676 14.5503C39.1739 14.5735 39.0764 14.5768 38.9813 14.5602C38.8863 14.5436 38.7957 14.5074 38.7154 14.4539C38.6351 14.4003 38.5669 14.3307 38.515 14.2493C38.4631 14.1679 38.4287 14.0767 38.414 13.9813C38.3993 13.8859 38.4047 13.7885 38.4297 13.6953C38.4547 13.6021 38.4989 13.5151 38.5594 13.4399L39.7114 14.2079Z" fill="#263238"/>
<path d="M39.817 14.231C39.7242 14.2403 39.6305 14.2308 39.5415 14.2031C39.4524 14.1755 39.3699 14.1302 39.2987 14.07C39.2275 14.0097 39.1692 13.9358 39.1272 13.8526C39.0852 13.7694 39.0603 13.6785 39.0541 13.5855C39.048 13.4925 39.0606 13.3991 39.0912 13.3111C39.1218 13.223 39.1698 13.142 39.2324 13.0729C39.295 13.0038 39.3708 12.948 39.4554 12.9088C39.54 12.8696 39.6316 12.8478 39.7248 12.8447L39.817 14.231Z" fill="#263238"/>
<path d="M37.4688 71.2165V70.8479C37.3267 71.2703 35.7562 72.8332 34.3565 73.5589C33.3466 74.0831 32.0947 74.59 31.968 75.31C31.8163 76.1836 32.6342 76.654 34.201 76.677C35.9674 76.7154 36.96 75.717 37.6973 75.0988C38.1589 74.7238 38.6567 74.3957 39.1834 74.1196C39.6499 73.8661 40.2163 73.6223 40.3814 73.1442C40.4717 72.8831 40.3968 72.2591 40.3219 71.7733C40.2528 71.3202 40.1299 70.8805 39.9802 70.9228C39.9802 70.9765 39.9802 71.1378 39.9802 71.1378C39.7882 71.3394 39.3005 71.5218 38.7302 71.5487C38.3597 71.5698 37.4669 71.4969 37.4688 71.2165Z" fill="#37474F"/>
<path d="M43.1443 42.9561C42.5587 46.1779 41.9674 49.5245 41.3837 52.6733C41.6602 54.3533 41.785 54.9043 41.8752 57.0701C42.0211 60.4915 40.2125 65.76 39.984 69.4368C39.9245 70.3968 40.0032 70.4928 39.9706 71.28C39.9706 71.28 39.9706 71.3318 39.961 71.3395C39.913 71.7235 38.711 72.5357 38.0986 73.0771C37.2576 73.8201 36.3475 74.5709 35.0266 74.7667C34.0666 74.9107 33.3466 74.7667 33.2582 74.4998C33.2064 74.3405 33.5731 74.0717 33.7152 73.9833C34.4139 73.5522 35.0754 73.0635 35.6928 72.5222C36.5914 71.7869 37.056 71.1283 37.1616 70.0934C37.3248 68.4979 36.4666 56.3597 36.5741 52.4525C36.72 47.1533 37.1501 43.5533 37.801 38.711C37.8509 38.327 38.2272 37.1213 38.3501 36.1593C38.3863 35.9115 38.3959 35.6605 38.3789 35.4105C38.3501 35.1302 38.3405 34.7289 38.3366 34.3008V34.512C38.3366 34.512 39.6653 35.639 42.5837 35.6736C45.1507 35.712 46.656 34.992 47.232 34.56C47.407 35.1175 47.6279 35.6595 47.8925 36.1805C48.3994 37.2192 49.0003 38.2425 49.3075 39.2006L43.1443 42.9561Z" fill="#694B47"/>
<path d="M48.3302 73.2595C48.441 73.9956 48.5115 74.7372 48.5414 75.481C48.5779 76.3622 48.8448 77.5411 48.8563 77.8752C48.8947 78.9485 48.7565 80.3424 48.0749 81.2102C47.3933 82.0781 46.2125 82.0858 45.6845 81.0528C45.1565 80.0198 45.3005 78.3398 45.433 77.2915C45.5654 76.2432 45.575 75.9322 45.6403 75.0931C45.696 74.3539 45.7536 74.0544 45.8323 73.4189C46.656 73.4304 47.5181 73.2691 48.3302 73.2595Z" fill="#37474F"/>
<path d="M42.6663 43.1999C42.8928 46.1836 43.6896 52.5138 43.8394 55.3496C44.0122 58.5964 45.4311 68.7896 45.4541 68.9356C45.5808 69.8956 45.792 71.8636 45.8381 73.2805C45.8746 74.5093 45.7498 76.8344 45.9706 77.9461C46.297 79.5724 47.8119 79.4495 48.2151 77.8904C48.4839 76.8517 48.2611 74.6264 48.336 73.2594C48.3917 72.2668 48.5587 70.6712 48.6125 69.8495C48.7565 68.6399 49.3536 62.3192 49.1885 60.165C49.0464 58.318 48.7815 56.7839 48.5818 55.0732C49.5994 49.8988 50.1447 44.421 49.3095 39.1909" fill="#694B47"/>
<path d="M47.3722 32.6209C47.5642 31.8663 48.0518 30.6337 48.1171 29.0132C46.9094 27.1393 46.6464 25.2078 47.5546 23.2532C46.5946 23.1937 46.4563 23.1898 45.4906 23.1284C44.5248 23.067 42.9581 22.9095 42.169 22.8634L41.3741 22.731C40.2797 23.906 38.7187 24.793 37.8048 26.2753C36.9446 27.6692 37.0886 29.2513 38.2042 30.6337C38.2406 31.3518 38.2906 32.0314 38.3328 32.7342L38.3654 32.7476H38.3328C38.3328 33.1604 38.3328 33.7518 38.3328 34.3047V34.5159C38.3328 34.5159 39.6614 35.643 42.5798 35.6775C45.1507 35.7121 46.656 34.9921 47.232 34.5601L47.1974 34.4372C47.063 33.9476 47.184 33.3774 47.3722 32.6209Z" fill="#BA68C8"/>
<path opacity="0.8" d="M47.3722 32.6209C47.5642 31.8663 48.0518 30.6337 48.1171 29.0132C46.9094 27.1393 46.6464 25.2078 47.5546 23.2532C46.5946 23.1937 46.4563 23.1898 45.4906 23.1284C44.5248 23.067 42.9581 22.9095 42.169 22.8634L41.3741 22.731C40.2797 23.906 38.7187 24.793 37.8048 26.2753C36.9446 27.6692 37.0886 29.2513 38.2042 30.6337C38.2406 31.3518 38.2906 32.0314 38.3328 32.7342L38.3654 32.7476H38.3328C38.3328 33.1604 38.3328 33.7518 38.3328 34.3047V34.5159C38.3328 34.5159 39.6614 35.643 42.5798 35.6775C45.1507 35.7121 46.656 34.9921 47.232 34.5601L47.1974 34.4372C47.063 33.9476 47.184 33.3774 47.3722 32.6209Z" fill="white"/>
<path opacity="0.05" d="M41.28 30.7314C41.28 30.7314 42 31.7529 43.6992 31.6165C45.3984 31.4802 46.1146 29.9519 46.1146 29.9519C46.1146 29.9519 45.8938 31.8393 43.9872 32.0639C41.7005 32.3173 41.28 30.7314 41.28 30.7314Z" fill="black"/>
<path d="M38.0506 35.9136C37.7242 38.1101 36.0077 48.1862 35.8445 50.8896C35.6813 53.5929 35.0227 65.856 35.0227 65.856C35.0227 65.856 36.5395 69.0432 43.0714 69.4176C49.6032 69.792 52.0954 66.8985 52.0954 66.8985C52.0954 66.8985 51.6019 53.4489 51.2199 48.6029C50.8378 43.7568 50.2445 39.5942 48.1728 36.0057L42.7968 36.5625L38.0506 35.9136Z" fill="#155332"/>
<path opacity="0.07" d="M45.5136 39.7575C45.784 39.6523 46.0611 39.565 46.343 39.4963C47.3818 39.228 48.4386 39.0354 49.5053 38.9203C49.3306 38.4269 49.1366 37.945 48.9293 37.4707L48.912 37.4304C48.8141 37.2154 48.7104 37.0042 48.6029 36.7949C48.5894 36.7661 48.576 36.7373 48.5606 36.7085C48.4416 36.4743 48.3149 36.2439 48.1766 36.0154C47.5315 36.1018 46.8922 36.2803 46.2566 36.409C45.1028 36.6248 43.9301 36.7232 42.7565 36.7027C42.1613 36.7027 41.5661 36.6778 40.9728 36.6471C40.7162 36.6517 40.4595 36.6382 40.2048 36.6067C39.9072 36.5472 39.6288 36.3975 39.3293 36.3514C38.8807 36.3002 38.4268 36.3222 37.9853 36.4167C37.8643 37.1943 37.6666 38.4039 37.44 39.8093C37.836 39.9141 38.2513 39.9233 38.6515 39.8362C38.7008 39.8199 38.754 39.8199 38.8032 39.8362C38.8365 39.8554 38.8653 39.8816 38.8877 39.913C39.198 40.2652 39.5952 40.53 40.0397 40.681C41.4528 41.2359 42.9619 40.9959 44.3059 40.3757C44.7034 40.1741 45.0912 39.936 45.5136 39.7575Z" fill="black"/>
<path d="M38.3405 34.5159C38.3405 34.5159 39.6691 35.6429 42.5875 35.6679C45.1527 35.6967 46.6637 34.9824 47.2301 34.5408L47.1936 34.4199C47.3568 34.4064 47.7466 35.1879 48.1709 35.9885C48.1709 35.9885 46.1914 37.4036 42.8563 37.4036C39.5213 37.4036 38.0563 35.906 38.0563 35.906C38.0563 35.906 38.1562 35.09 38.1907 34.754C38.2464 34.2202 38.3424 34.2855 38.3424 34.2855L38.3405 34.5159Z" fill="#BA68C8"/>
<path opacity="0.25" d="M48.1709 35.9962C48.1709 35.9962 48.0749 36.0653 47.8886 36.1709C47.2339 36.5549 45.4579 37.4112 42.8582 37.4112C40.3776 37.4112 38.928 36.5837 38.3482 36.1594C38.2432 36.084 38.1438 36.0012 38.0506 35.9117C38.0506 35.9117 38.1504 35.0976 38.185 34.7712C38.2349 34.2893 38.3194 34.297 38.3347 34.3008V34.512C38.3347 34.512 39.6634 35.6391 42.5818 35.6736C45.1507 35.712 46.656 34.992 47.232 34.56L47.1955 34.4391C47.3587 34.4141 47.7466 35.1936 48.1709 35.9962Z" fill="black"/>
<path opacity="0.15" d="M41.664 41.522C41.664 41.522 39.8035 64.1319 39.9783 68.9588C40.3258 69.0452 40.6944 69.122 41.088 69.1892C41.0573 67.2327 41.28 48.3245 41.664 41.522Z" fill="black"/>
<path opacity="0.15" d="M45.8323 69.3678C45.7766 66.2151 45.4195 47.3223 44.7149 42.457C44.7149 42.457 45.2064 52.777 44.6016 69.435C45.0317 69.4273 45.4445 69.4042 45.8323 69.3678Z" fill="black"/>
<path opacity="0.15" d="M50.0256 68.2905C49.9718 65.7024 49.5456 48.4992 47.664 40.032C47.664 40.032 49.6128 54.5337 49.0694 68.6803C49.3946 68.5668 49.7138 68.4368 50.0256 68.2905Z" fill="black"/>
<path opacity="0.15" d="M37.5379 68.0544C37.5821 66.0173 37.8739 53.0227 38.3674 45.3677C38.3674 45.3677 36.8467 58.9325 36.5894 67.4803C36.8923 67.6929 37.2091 67.8847 37.5379 68.0544Z" fill="black"/>
<path d="M47.2147 13.7356C47.7754 14.2079 48.4973 15.2562 48.576 18.405C48.6413 21.0719 47.8426 21.7708 47.4355 21.9801C47.0285 22.1894 46.2989 22.1126 45.5155 22.0146V23.0399C45.5155 23.0399 45.5155 23.5718 44.7475 24.1439C44.1523 24.5817 42.8871 25.0079 42.1863 24.5145C41.5661 24.0748 42.1863 22.8518 42.1863 22.8518V20.2137C42.1863 20.2137 41.5123 20.6994 40.6983 20.0217C40.0282 19.4668 39.7632 18.4857 40.2413 17.9346C40.7194 17.3836 41.6506 17.4815 42.0423 18.2207C43.0992 18.1535 44.1215 17.8178 45.0125 17.2454C45.6161 16.8594 46.1267 16.3445 46.5075 15.7376C46.8883 15.1307 47.1298 14.447 47.2147 13.7356Z" fill="#694B47"/>
<path d="M45.504 22.0147C44.6746 21.9398 42.8755 21.5136 42.5798 20.8301C42.6999 21.175 42.9214 21.4755 43.2154 21.6922C43.7434 22.1184 45.504 22.5523 45.504 22.5523V22.0147Z" fill="#694B47"/>
<path d="M42.0192 17.9097L42.0576 19.0367C42.1298 19.0368 42.2012 19.0222 42.2675 18.9936C42.3338 18.9651 42.3935 18.9232 42.443 18.8707C42.4925 18.8182 42.5306 18.756 42.5552 18.6882C42.5797 18.6203 42.5901 18.5481 42.5856 18.4761C42.5831 18.3266 42.5227 18.184 42.417 18.0783C42.3113 17.9726 42.1686 17.9121 42.0192 17.9097Z" fill="#263238"/>
<path d="M45.4829 17.9097C45.4643 18.0325 45.4048 18.1455 45.3139 18.2303C45.2231 18.315 45.1063 18.3666 44.9824 18.3766C44.8586 18.3866 44.735 18.3545 44.6317 18.2854C44.5284 18.2163 44.4515 18.1144 44.4135 17.9961C44.5716 18.1145 44.7676 18.1712 44.9645 18.1552C45.1615 18.1393 45.3458 18.052 45.4829 17.9097Z" fill="#263238"/>
<path d="M48.2592 17.6641C48.233 17.7857 48.1663 17.8949 48.0701 17.9738C47.9739 18.0528 47.8538 18.0968 47.7294 18.0988C47.605 18.1008 47.4836 18.0607 47.3849 17.9849C47.2862 17.9091 47.2161 17.8021 47.1859 17.6813C47.3361 17.8094 47.5281 17.8777 47.7254 17.8733C47.9227 17.8701 48.1123 17.7958 48.2592 17.6641Z" fill="#263238"/>
<path d="M44.9491 16.6367L44.2157 17.0207C44.1656 16.9199 44.1564 16.8037 44.1901 16.6964C44.2237 16.589 44.2976 16.4988 44.3962 16.4447C44.4449 16.42 44.4981 16.4054 44.5526 16.4018C44.6071 16.3981 44.6618 16.4055 44.7134 16.4234C44.765 16.4413 44.8124 16.4694 44.8529 16.5061C44.8934 16.5427 44.9261 16.5871 44.9491 16.6367Z" fill="#263238"/>
<path d="M45.6 20.1697L46.3911 20.4078C46.3779 20.4603 46.3544 20.5098 46.3217 20.553C46.2891 20.5963 46.2481 20.6326 46.2011 20.6596C46.1542 20.6867 46.1023 20.704 46.0485 20.7105C45.9947 20.7171 45.9401 20.7127 45.888 20.6977C45.7808 20.6643 45.6908 20.5906 45.637 20.492C45.5833 20.3935 45.57 20.2779 45.6 20.1697Z" fill="#AD6359"/>
<path d="M48.217 16.7713L47.5238 16.3066C47.5519 16.2589 47.5896 16.2176 47.6345 16.1852C47.6794 16.1527 47.7304 16.13 47.7845 16.1182C47.8386 16.1065 47.8946 16.1061 47.9488 16.117C48.0031 16.128 48.0545 16.15 48.0998 16.1818C48.1913 16.2463 48.2544 16.3434 48.2762 16.4531C48.298 16.5628 48.2768 16.6767 48.217 16.7713Z" fill="#263238"/>
<path d="M46.1914 17.4028L46.4371 19.4304L47.4739 18.9984L46.1914 17.4028Z" fill="#AD6359"/>
<path d="M42.9696 35.6123C42.9696 35.6315 42.768 36.0405 41.184 36.269C39.0355 36.5781 38.8896 37.1099 40.2855 38.4117C41.1668 39.2335 42.4474 39.0568 45.1661 38.2927C46.0918 38.0606 47.0008 37.7662 47.8868 37.4114C50.1178 36.4514 50.8973 36.0136 52.416 35.2648C53.9348 34.516 56.1005 33.2181 56.5076 32.5768C61.2538 25.181 62.0756 20.6402 58.5908 20.1755C57.529 20.4232 57.3831 21.4197 56.4557 24.1499C56.4557 24.1499 54.2535 28.4891 52.9843 30.3112C51.3811 31.5938 47.8771 34.0783 45.8938 34.7272C45.3639 34.8981 44.7898 34.6677 44.2618 34.5544C44.0187 34.4966 43.7716 34.4568 43.5226 34.4354C43.2771 34.4261 43.0313 34.4351 42.7872 34.4623L41.4164 34.5832C41.3435 34.5827 41.2718 34.6019 41.209 34.6389C41.1686 34.6711 41.1386 34.7145 41.1229 34.7637C41.1072 34.813 41.1064 34.8657 41.1207 34.9154C41.15 35.015 41.2089 35.1034 41.2896 35.1688C41.5768 35.3823 41.9264 35.495 42.2842 35.4895C42.4032 35.4952 42.9792 35.4856 42.9696 35.6123Z" fill="#694B47"/>
<path opacity="0.5" d="M45.1661 38.2927C46.0918 38.0606 47.0008 37.7662 47.8867 37.4114C50.0391 36.4802 50.8416 36.0424 52.2605 35.3416L50.233 32.3311C49.6455 32.7266 49.0368 33.1183 48.4416 33.4831L48.5799 34.3106C48.5799 34.3106 46.5139 35.7621 45.0279 36.3227C44.8179 36.3946 44.5969 36.4284 44.3751 36.4226C43.9435 36.4614 43.5146 36.5255 43.0906 36.6146C42.5402 36.699 41.9802 36.699 41.4298 36.6146C41.1994 36.557 41.1725 36.8661 41.4067 37.1791C41.557 37.3347 41.7513 37.4406 41.9635 37.4824C41.3031 37.6879 40.2567 37.6091 40.2567 37.6091C40.3181 37.3346 40.0647 36.7432 39.8247 36.6165C39.7838 36.6346 39.7441 36.6552 39.7056 36.6779L39.6883 36.6875C39.6222 36.7244 39.562 36.771 39.5098 36.8258L39.4983 36.8373C39.4785 36.8596 39.4606 36.8833 39.4445 36.9083C39.4284 36.9345 39.4149 36.9621 39.4042 36.9909C39.4042 36.9909 39.4042 36.9909 39.4042 37.0024C39.3966 37.0276 39.3908 37.0532 39.3869 37.0792C39.3869 37.0792 39.3869 37.0888 39.3869 37.0946C39.384 37.1252 39.384 37.1561 39.3869 37.1867C39.39 37.2173 39.3958 37.2474 39.4042 37.277V37.2981C39.428 37.3722 39.4595 37.4437 39.4983 37.5112L39.5136 37.5362C39.5333 37.5714 39.5551 37.6054 39.5789 37.6379L39.5885 37.6552L39.6807 37.7781L39.7037 37.805C39.7306 37.8395 39.7613 37.8741 39.792 37.9106L39.8189 37.9413C39.8573 37.9855 39.8995 38.0315 39.9437 38.0776L39.9667 38.1007L40.0858 38.2216L40.1261 38.2619L40.2855 38.4136C41.1667 39.2335 42.4474 39.0568 45.1661 38.2927Z" fill="#B16668"/>
<path d="M38.3328 34.103C38.3576 34.7492 38.561 35.3759 38.9203 35.9136C39.2179 36.311 40.7885 37.7011 39.5155 38.0717C38.4787 38.377 37.7607 37.7146 37.369 37.1117C37.0733 36.6624 36.9235 35.5757 37.2499 34.487C37.5763 33.3984 38.3347 33.0566 38.3347 33.0566L38.3328 34.103Z" fill="#694B47"/>
<path d="M58.3162 20.0295C58.3162 20.0295 59.9251 20.1159 60.5491 20.715C61.1731 21.314 61.7011 23.1419 60.7853 25.6763C60.3264 27.4446 57.5693 31.5399 57.5693 31.5399C56.7801 31.415 56.0282 31.1179 55.3669 30.6696C54.7055 30.2213 54.151 29.6328 53.7427 28.946L56.3059 23.7812C56.3059 23.7812 56.7283 21.0337 58.3162 20.0295Z" fill="#37474F"/>
<path d="M52.249 33.8918C51.7421 32.1216 50.4787 26.1696 49.9738 24.8448C49.4688 23.52 48.1766 23.2877 47.5546 23.2493C46.9517 23.3453 46.4141 24.743 46.6426 26.2944C46.7783 27.2018 47.059 28.0815 47.4739 28.8998L49.0579 34.416C49.0579 34.416 46.7347 35.7945 45.3754 36.4032C45.1315 36.503 44.4403 36.6777 44.185 36.6144C43.2365 36.3801 42.9389 36.6528 42.2861 36.5971C41.7773 36.551 41.4125 36.3744 41.3491 36.4838C41.2685 36.6259 41.2954 36.9389 41.6698 37.1942C42.0357 37.4213 42.4604 37.5355 42.8909 37.5225C42.0924 37.7324 41.2721 37.8477 40.4467 37.8662C39.1142 37.8662 38.4288 38.2694 39.4867 39.6057C40.1453 40.4429 41.8157 40.4717 43.9277 39.7344C44.2176 39.6345 45.2717 39.1065 46.1088 38.8301C48.5261 38.1657 50.2483 37.6473 50.9261 37.3632C52.6829 36.6278 52.8 35.8214 52.249 33.8918Z" fill="#694B47"/>
<path d="M39.8189 37.9392L39.8515 37.8989C38.9933 38.0122 38.6458 38.4327 39.3351 39.41C39.4327 39.3729 39.5265 39.3266 39.6154 39.2717C40.7309 38.5709 39.8189 37.9392 39.8189 37.9392Z" fill="#AD6359"/>
<path d="M36.5203 34.6292C36.1805 35.4875 36.215 36.8487 36.4627 37.6897C36.7104 38.5307 37.6339 39.3044 38.2291 39.3044C39.4426 39.3044 40.3181 38.2465 39.5731 37.8375C39.12 37.5688 38.7129 37.2291 38.3674 36.8315C38.2351 36.6878 38.1268 36.5238 38.0467 36.3457C38.4307 36.5742 39.1565 36.9332 39.5136 36.5511C39.533 36.5336 39.5487 36.5123 39.5596 36.4886C39.5704 36.4648 39.5764 36.439 39.577 36.4129C39.577 36.3169 39.4637 36.267 39.3734 36.2209C39.258 36.1713 39.1496 36.1067 39.0509 36.0289C38.951 35.9521 38.8589 35.8619 38.7629 35.7831C38.5588 35.6427 38.3466 35.5145 38.1274 35.3991C37.9488 35.2728 37.7846 35.1273 37.6378 34.9652C37.5213 34.8668 37.4304 34.7416 37.3728 34.6004C37.3391 34.5011 37.3184 34.3978 37.3114 34.2932L36.5203 34.6292Z" fill="#694B47"/>
<path d="M35.2454 18.2498C35.1546 18.0022 34.9754 17.797 34.7424 17.6738C34.6084 17.6038 34.4612 17.5628 34.3104 17.5535C34.1595 17.5443 34.0084 17.5669 33.8669 17.62C33.3561 17.812 33.1449 18.5282 33.2659 19.0466C33.0163 18.5762 32.3846 18.1749 31.8739 18.3669C31.7324 18.4199 31.6036 18.5022 31.4961 18.6084C31.3885 18.7146 31.3047 18.8423 31.2499 18.9832C31.1548 19.2304 31.1548 19.504 31.2499 19.7512C31.5475 20.5442 32.448 20.7112 33.2582 20.9973L34.1126 21.2987L34.5581 20.5096C34.9728 19.757 35.543 19.0446 35.2454 18.2498Z" fill="#155332"/>
<path d="M65.3242 17.0651C65.4354 16.8314 65.4572 16.565 65.3856 16.3163C65.3434 16.1732 65.2717 16.0405 65.1752 15.9267C65.0786 15.813 64.9593 15.7207 64.825 15.6558C64.3392 15.4235 63.6826 15.7633 63.3984 16.2049C63.5616 15.7057 63.4138 14.9819 62.928 14.7496C62.7932 14.6856 62.6464 14.6507 62.4973 14.647C62.3481 14.6434 62.1998 14.6711 62.0621 14.7284C61.8232 14.8284 61.6298 15.013 61.5187 15.2468C61.1578 16.0014 61.6589 16.754 62.0083 17.5297L62.377 18.3438L63.2448 18.1211C64.0627 17.9022 64.9632 17.8196 65.3242 17.0651Z" fill="#155332"/>
</svg>
