<svg width="124" height="113" viewBox="0 0 124 113" fill="none" xmlns="http://www.w3.org/2000/svg">
<path d="M116.153 103.614C116.153 103.646 92.0427 103.673 62.31 103.673C32.5773 103.673 8.46423 103.646 8.46423 103.614C8.46423 103.583 32.5674 103.555 62.31 103.555C92.0526 103.555 116.153 103.583 116.153 103.614Z" fill="#263238"/>
<path d="M69.3929 88.8474C52.0329 87.1592 37.7307 79.7418 30.8537 73.1924C27.9895 70.4561 25.8344 67.1697 24.5469 63.5748C23.2594 59.9798 22.8722 56.1677 23.4137 52.4184C24.4974 44.8158 29.1474 37.4889 36.4312 33.6604C43.715 29.832 53.5978 29.9992 60.1375 34.8221C63.1284 28.25 70.995 24.008 78.802 24.1074C86.609 24.2069 94.0391 28.3042 98.4362 34.1825C102.833 40.0608 104.331 47.5165 103.334 54.5767C102.337 61.637 98.9743 68.2995 94.426 74.0828C88.4442 81.6922 79.6402 88.1875 69.3954 88.8564" fill="#FFC727"/>
<path opacity="0.8" d="M69.3929 88.8474C52.0329 87.1592 37.7307 79.7418 30.8537 73.1924C27.9895 70.4561 25.8344 67.1697 24.5469 63.5748C23.2594 59.9798 22.8722 56.1677 23.4137 52.4184C24.4974 44.8158 29.1474 37.4889 36.4312 33.6604C43.715 29.832 53.5978 29.9992 60.1375 34.8221C63.1284 28.25 70.995 24.008 78.802 24.1074C86.609 24.2069 94.0391 28.3042 98.4362 34.1825C102.833 40.0608 104.331 47.5165 103.334 54.5767C102.337 61.637 98.9743 68.2995 94.426 74.0828C88.4442 81.6922 79.6402 88.1875 69.3954 88.8564" fill="white"/>
<path d="M104.795 98.4841C104.782 98.4387 104.764 98.3948 104.74 98.353L104.559 97.9711C104.342 97.4796 104.17 96.9723 104.046 96.4546C103.716 95.0986 103.657 93.0646 104.294 90.66C104.64 89.3486 105.08 88.0591 105.611 86.7999C106.156 85.4326 106.789 83.9817 107.317 82.411C107.845 80.8403 108.269 79.1385 108.259 77.3373C108.25 75.536 107.729 73.7213 107.146 71.9133C106.563 70.1053 105.963 68.3266 105.824 66.5571C105.664 64.8537 106.098 63.1476 107.064 61.6822C107.967 60.2765 109.083 59.0832 109.928 57.8402C110.72 56.6866 111.317 55.4311 111.699 54.1158C112.25 52.2096 112.355 50.2191 112.007 48.2737C111.883 47.563 111.683 46.865 111.409 46.1899C111.416 46.2375 111.427 46.2845 111.444 46.3301C111.474 46.4272 111.513 46.5561 111.565 46.7278C111.716 47.2406 111.837 47.7604 111.927 48.285C112.243 50.219 112.118 52.1915 111.56 54.0796C111.172 55.3785 110.575 56.6177 109.787 57.7566C108.941 58.9883 107.823 60.1748 106.903 61.5986C105.911 63.0914 105.464 64.8319 105.626 66.5706C105.765 68.3786 106.37 70.155 106.952 71.9652C107.535 73.7755 108.051 75.5812 108.064 77.344C108.03 79.0492 107.718 80.7403 107.136 82.3612C106.615 83.9252 105.993 85.3761 105.45 86.7456C104.926 88.0116 104.495 89.3079 104.16 90.6261C103.535 93.051 103.617 95.1144 103.972 96.4659C104.105 96.9859 104.291 97.4935 104.527 97.9824L104.725 98.3553C104.744 98.4001 104.767 98.4432 104.795 98.4841Z" fill="#263238"/>
<path d="M108.793 59.0494C108.793 59.0494 110.588 54.3463 107.761 51.4806C107.739 51.4578 107.71 51.441 107.678 51.4322C107.646 51.4233 107.612 51.4227 107.58 51.4304C107.547 51.4382 107.518 51.4539 107.495 51.4759C107.472 51.498 107.456 51.5254 107.448 51.5552C107.265 52.3349 106.987 54.717 108.793 59.0494Z" fill="#FFC727"/>
<path d="M108.024 53.074C108.017 53.3687 108.043 53.6634 108.103 53.9531C108.188 54.5588 108.289 55.273 108.401 56.0594L108.693 58.1635C108.712 58.4577 108.76 58.7497 108.837 59.0359C108.875 58.7423 108.875 58.4457 108.837 58.1522C108.803 57.6075 108.723 56.8595 108.604 56.0346C108.485 55.2097 108.356 54.4684 108.245 53.9328C108.206 53.64 108.132 53.3521 108.024 53.074Z" fill="#263238"/>
<path d="M106.489 70.1979C106.489 70.1979 105.663 65.2757 101.692 63.949C101.661 63.9351 101.626 63.9298 101.591 63.934C101.556 63.9382 101.523 63.9516 101.497 63.9726C101.471 63.9935 101.451 64.0211 101.442 64.0519C101.433 64.0827 101.434 64.1153 101.444 64.1457C101.692 64.9141 102.672 67.1379 106.489 70.1979Z" fill="#FFC727"/>
<path d="M102.741 65.2439C102.888 65.5068 103.062 65.7559 103.262 65.9874L104.609 67.7209L105.948 69.4565C106.114 69.71 106.305 69.9485 106.521 70.1684C106.405 69.8921 106.252 69.6295 106.067 69.3865C105.757 68.9187 105.303 68.2904 104.775 67.6124C104.247 66.9344 103.751 66.3355 103.379 65.9083C103.195 65.6653 102.981 65.4423 102.741 65.2439Z" fill="#263238"/>
<path d="M107.148 82.5059C107.148 82.5059 107.925 77.5769 104.549 75.2558C104.523 75.237 104.492 75.2253 104.458 75.2218C104.425 75.2183 104.391 75.2233 104.361 75.2361C104.331 75.249 104.305 75.2693 104.287 75.2947C104.268 75.3201 104.258 75.3497 104.257 75.3801C104.242 76.1779 104.468 78.5667 107.148 82.5059Z" fill="#FFC727"/>
<path d="M105.152 76.7722C105.209 77.0625 105.298 77.3471 105.415 77.622L106.159 79.6379L106.888 81.6538C106.966 81.939 107.074 82.2168 107.21 82.4832C107.186 82.1885 107.125 81.8972 107.027 81.6154C106.878 81.0888 106.642 80.3656 106.352 79.5814C106.062 78.7972 105.779 78.0875 105.561 77.5813C105.46 77.298 105.322 77.0265 105.152 76.7722Z" fill="#263238"/>
<path d="M103.696 94.7664C103.696 94.7664 104.279 89.8148 100.814 87.6045C100.787 87.5871 100.755 87.5768 100.722 87.5748C100.689 87.5728 100.656 87.5792 100.627 87.5932C100.597 87.6072 100.572 87.6283 100.555 87.6542C100.538 87.6801 100.529 87.7098 100.529 87.7401C100.544 88.5379 100.864 90.9177 103.696 94.7664Z" fill="#FFC727"/>
<path d="M101.467 89.1028C101.532 89.391 101.631 89.6721 101.762 89.9412C101.995 90.5153 102.27 91.1888 102.575 91.9323L103.381 93.9234C103.47 94.2065 103.589 94.4813 103.736 94.7437C103.701 94.4498 103.628 94.1607 103.518 93.8827C103.349 93.3584 103.086 92.6442 102.774 91.8668C102.461 91.0893 102.141 90.3932 101.903 89.8938C101.79 89.6165 101.643 89.3513 101.467 89.1028Z" fill="#263238"/>
<path d="M111.28 54.9451C111.28 54.9451 116.2 52.78 116.431 48.9312C116.433 48.9009 116.426 48.8706 116.41 48.8438C116.394 48.817 116.371 48.7946 116.342 48.7792C116.314 48.7638 116.281 48.7559 116.247 48.7564C116.214 48.7569 116.181 48.7658 116.153 48.7821C115.417 49.2137 113.371 50.7189 111.28 54.9451Z" fill="#FFC727"/>
<path d="M115.38 50.2263C115.145 50.4318 114.935 50.659 114.752 50.9043L113.336 52.579L111.905 54.2536C111.689 54.4733 111.497 54.7109 111.33 54.9633C111.585 54.781 111.816 54.5716 112.017 54.3395C112.416 53.9327 112.942 53.3519 113.505 52.692C114.068 52.0321 114.544 51.4241 114.884 50.9766C115.078 50.7435 115.244 50.492 115.38 50.2263Z" fill="#263238"/>
<path d="M105.727 64.9954C105.727 64.9954 110.784 63.1083 111.27 59.2799C111.274 59.2496 111.269 59.2188 111.256 59.191C111.242 59.1632 111.22 59.1394 111.192 59.1223C111.164 59.1052 111.132 59.0954 111.098 59.0941C111.065 59.0928 111.032 59.1 111.002 59.1149C110.238 59.5059 108.096 60.8935 105.727 64.9954Z" fill="#FFC727"/>
<path d="M110.134 60.5115C109.887 60.7029 109.662 60.9164 109.462 61.1488L107.93 62.7466C107.354 63.3433 106.833 63.8766 106.392 64.3422C106.162 64.5506 105.953 64.7775 105.767 65.0202C106.035 64.8533 106.28 64.6575 106.496 64.4371C106.92 64.0529 107.488 63.5015 108.083 62.8754C108.679 62.2494 109.207 61.6663 109.571 61.2369C109.789 61.0155 109.978 60.7721 110.134 60.5115Z" fill="#263238"/>
<path d="M108.202 76.4582C108.202 76.4582 111.759 72.6772 110.278 69.068C110.267 69.0394 110.247 69.0143 110.221 68.9954C110.195 68.9765 110.163 68.9645 110.13 68.9607C110.097 68.957 110.064 68.9616 110.033 68.9742C110.003 68.9867 109.977 69.0067 109.958 69.0318C109.475 69.6963 108.259 71.8229 108.202 76.4582Z" fill="#FFC727"/>
<path d="M109.884 70.6387C109.764 70.9117 109.674 71.1948 109.616 71.4839C109.452 72.076 109.261 72.7721 109.051 73.5428C108.84 74.3134 108.641 75.0073 108.478 75.5994C108.377 75.8791 108.304 76.1665 108.259 76.4582C108.414 76.1987 108.534 75.9233 108.617 75.6378C108.803 75.118 109.028 74.3948 109.249 73.588C109.47 72.7811 109.643 72.0467 109.745 71.511C109.827 71.2258 109.873 70.9333 109.884 70.6387Z" fill="#263238"/>
<path d="M104.346 89.7492C104.346 89.7492 109.368 87.7853 109.78 83.9501C109.784 83.9199 109.779 83.8893 109.765 83.8617C109.751 83.834 109.728 83.8105 109.701 83.7938C109.673 83.7771 109.64 83.7679 109.607 83.7671C109.574 83.7664 109.541 83.7742 109.512 83.7896C108.755 84.1919 106.64 85.6112 104.346 89.7492Z" fill="#FFC727"/>
<path d="M108.669 85.2021C108.426 85.3972 108.205 85.6137 108.009 85.8485L106.506 87.4621L104.996 89.078C104.772 89.2878 104.568 89.5146 104.386 89.756C104.651 89.5856 104.891 89.386 105.102 89.1617C105.522 88.7707 106.075 88.2125 106.662 87.5797C107.25 86.9469 107.761 86.3547 108.123 85.9208C108.334 85.7005 108.517 85.4594 108.669 85.2021Z" fill="#263238"/>
<path d="M95.17 69.8995C95.1641 69.9355 95.1641 69.9721 95.17 70.008C95.17 70.0939 95.17 70.2001 95.17 70.3267C95.17 70.625 95.17 71.0295 95.1874 71.5358C95.2146 72.598 95.2518 74.0783 95.2965 75.8524C95.5866 77.6604 96.5241 79.6944 97.8087 81.6651C98.7511 83.1228 99.7456 84.4494 100.599 85.6834C101.375 86.7643 102.068 87.8933 102.672 89.0621C103.07 89.8523 103.385 90.6748 103.614 91.5187C103.691 91.817 103.748 92.052 103.781 92.2125C103.793 92.2949 103.814 92.376 103.845 92.4543C103.848 92.371 103.84 92.2876 103.823 92.2057C103.803 92.043 103.758 91.8057 103.694 91.5029C103.491 90.6487 103.192 89.8157 102.803 89.0169C102.212 87.8373 101.527 86.6989 100.752 85.6111C99.9043 84.3681 98.9148 83.0392 97.9774 81.5905C96.7002 79.622 95.7652 77.6287 95.4602 75.8456V75.8569C95.3858 74.0851 95.3213 72.6025 95.2766 71.5403C95.2494 71.0363 95.2295 70.6363 95.2122 70.3334C95.2122 70.2069 95.1948 70.1075 95.1874 70.0171C95.1799 69.9267 95.175 69.8973 95.17 69.8995Z" fill="#263238"/>
<path d="M97.7244 81.3013C97.7244 81.3013 95.7875 76.6457 98.5279 73.71C98.5493 73.6865 98.5774 73.6689 98.6091 73.6591C98.6408 73.6493 98.6749 73.6477 98.7075 73.6545C98.7401 73.6613 98.7701 73.6762 98.794 73.6976C98.8179 73.7189 98.8348 73.7459 98.8429 73.7755C99.0487 74.5507 99.3984 76.926 97.7244 81.3013Z" fill="#FFC727"/>
<path d="M98.3146 75.3079C98.213 75.5886 98.1473 75.879 98.1187 76.1734C98.0245 76.7113 97.9154 77.4571 97.8211 78.2843C97.7269 79.1114 97.6723 79.8663 97.6525 80.4064C97.6242 80.7009 97.6334 80.9975 97.6798 81.2901C97.748 81.0024 97.787 80.7096 97.7963 80.4155C97.8633 79.8053 97.9402 79.0911 98.0245 78.3024C98.1088 77.5136 98.1931 76.7995 98.2601 76.1893C98.3105 75.8979 98.3288 75.6026 98.3146 75.3079Z" fill="#263238"/>
<g opacity="0.3">
<path d="M97.7244 81.3013C97.7244 81.3013 95.7875 76.6457 98.5279 73.71C98.5493 73.6865 98.5774 73.6689 98.6091 73.6591C98.6408 73.6493 98.6749 73.6477 98.7075 73.6545C98.7401 73.6613 98.7701 73.6762 98.794 73.6976C98.8179 73.7189 98.8348 73.7459 98.8429 73.7755C99.0487 74.5507 99.3984 76.926 97.7244 81.3013Z" fill="black"/>
</g>
<path d="M103.83 92.565C103.83 92.565 102.315 87.7806 105.306 85.0573C105.329 85.0358 105.359 85.0206 105.392 85.0134C105.424 85.0061 105.458 85.0071 105.49 85.0161C105.522 85.0252 105.55 85.042 105.573 85.0648C105.595 85.0876 105.61 85.1155 105.616 85.1454C105.752 85.9342 105.896 88.3275 103.83 92.565Z" fill="#FFC727"/>
<path d="M104.951 86.635C104.825 86.9071 104.733 87.1914 104.678 87.4825C104.537 88.0113 104.363 88.7458 104.195 89.564C104.026 90.3821 103.905 91.1256 103.838 91.6658C103.781 91.9573 103.764 92.2541 103.788 92.5494C103.88 92.2674 103.945 91.9785 103.981 91.6861C104.1 91.085 104.242 90.3776 104.396 89.5979C104.549 88.8182 104.698 88.1108 104.82 87.5096C104.896 87.2228 104.94 86.9298 104.951 86.635Z" fill="#263238"/>
<g opacity="0.3">
<path d="M103.83 92.565C103.83 92.565 102.315 87.7806 105.306 85.0573C105.329 85.0358 105.359 85.0206 105.392 85.0134C105.424 85.0061 105.458 85.0071 105.49 85.0161C105.522 85.0252 105.55 85.042 105.573 85.0648C105.595 85.0876 105.61 85.1155 105.616 85.1454C105.752 85.9342 105.896 88.3275 103.83 92.565Z" fill="black"/>
</g>
<path d="M95.2494 75.6083C95.2494 75.6083 90.8746 72.6251 91.4599 68.808C91.4638 68.778 91.4766 68.7496 91.497 68.7259C91.5173 68.7021 91.5444 68.6838 91.5754 68.6731C91.6063 68.6624 91.6399 68.6596 91.6724 68.6651C91.705 68.6705 91.7353 68.684 91.76 68.704C92.3949 69.2623 94.0887 71.0974 95.2494 75.6083Z" fill="#FFC727"/>
<g opacity="0.3">
<path d="M95.2494 75.6083C95.2494 75.6083 90.8746 72.6251 91.4599 68.808C91.4638 68.778 91.4766 68.7496 91.497 68.7259C91.5173 68.7021 91.5444 68.6838 91.5754 68.6731C91.6063 68.6624 91.6399 68.6596 91.6724 68.6651C91.705 68.6705 91.7353 68.684 91.76 68.704C92.3949 69.2623 94.0887 71.0974 95.2494 75.6083Z" fill="black"/>
</g>
<path d="M92.2188 70.2612C92.3005 70.5475 92.4161 70.8249 92.5635 71.0884C92.8115 71.5878 93.1488 72.2704 93.5555 73.0139C93.9622 73.7574 94.3566 74.4174 94.6616 74.8874C94.8117 75.15 94.9948 75.3957 95.2072 75.6197C95.0946 75.3433 94.9543 75.077 94.7881 74.8242L93.744 72.9303C93.3522 72.2206 93 71.5743 92.6999 71.0319C92.5683 70.761 92.4071 70.5028 92.2188 70.2612Z" fill="#263238"/>
<path d="M102.188 87.8191C102.188 87.8191 96.8192 86.8948 95.4924 83.2358C95.4814 83.2071 95.4793 83.1761 95.4864 83.1464C95.4934 83.1166 95.5094 83.0892 95.5325 83.0672C95.5556 83.0452 95.585 83.0295 95.6173 83.0218C95.6496 83.014 95.6836 83.0146 95.7156 83.0234C96.5563 83.2675 98.9644 84.2348 102.188 87.8191Z" fill="#FFC727"/>
<g opacity="0.3">
<path d="M102.188 87.8191C102.188 87.8191 96.8192 86.8948 95.4924 83.2358C95.4814 83.2071 95.4793 83.1761 95.4864 83.1464C95.4934 83.1166 95.5094 83.0892 95.5325 83.0672C95.5556 83.0452 95.585 83.0295 95.6173 83.0218C95.6496 83.014 95.6836 83.0146 95.7156 83.0234C96.5563 83.2675 98.9644 84.2348 102.188 87.8191Z" fill="black"/>
</g>
<path d="M96.8837 84.2349C97.0935 84.4597 97.3306 84.6622 97.5905 84.8383C98.0468 85.1908 98.6866 85.6632 99.4133 86.1672C100.14 86.6711 100.812 87.1073 101.313 87.4056C101.573 87.5824 101.855 87.7304 102.154 87.8463C101.921 87.6422 101.667 87.459 101.395 87.2994L99.5373 86.0203L97.6798 84.7343C97.4339 84.5434 97.1671 84.376 96.8837 84.2349Z" fill="#263238"/>
<path d="M107.022 97.015L107.865 103.614H98.9222L100.058 96.8162L107.022 97.015Z" fill="#455A64"/>
<path d="M99.5621 99.7948C99.5621 99.8468 101.33 99.9395 103.515 100.003C105.7 100.066 107.483 100.075 107.483 100.023C107.483 99.9711 105.715 99.8807 103.53 99.8174C101.345 99.7542 99.5646 99.7451 99.5621 99.7948Z" fill="#263238"/>
<path d="M99.3414 100.57C99.3414 100.622 101.167 100.715 103.423 100.78C105.68 100.846 107.51 100.857 107.513 100.805C107.515 100.753 105.685 100.66 103.428 100.595C101.172 100.529 99.3438 100.507 99.3414 100.57Z" fill="#263238"/>
<path d="M34.8688 50.0883C34.6976 49.7337 34.4111 49.4355 34.0479 49.2341C33.701 49.0243 33.2909 48.9184 32.8749 48.9312C32.6555 48.9449 32.4413 48.9988 32.2453 49.0896C32.0493 49.1805 31.8754 49.3065 31.7341 49.4601C31.5663 49.6443 31.4506 49.8631 31.3968 50.0974C31.2261 49.9471 31.0212 49.8329 30.7966 49.7629C30.5877 49.6996 30.3669 49.6754 30.1474 49.6917C29.928 49.708 29.7144 49.7645 29.5194 49.8578C29.1572 50.0457 28.8692 50.3327 28.6961 50.6782C28.5029 51.0229 28.431 51.4136 28.4902 51.7969C28.5753 52.2847 28.83 52.7347 29.2169 53.0806C29.6447 53.419 30.1547 53.66 30.7049 53.7834C31.6101 54.0094 32.793 54.2761 32.793 54.2761C32.793 54.2761 33.4701 53.467 34.1099 52.8433C34.5113 52.4746 34.8098 52.0235 34.9804 51.528C35.1138 51.0496 35.0746 50.5448 34.8688 50.0883Z" fill="#FFC727"/>
<path d="M108.078 26.0487C108.313 25.4362 108.336 24.7727 108.143 24.1481C107.978 23.5326 107.606 22.9795 107.079 22.5661C106.623 22.2232 106.055 22.0272 105.464 22.0084C104.873 21.9896 104.292 22.1491 103.81 22.4621C103.788 22.0999 103.679 21.7465 103.49 21.427C103.313 21.1326 103.072 20.8737 102.782 20.666C102.493 20.4582 102.16 20.3058 101.804 20.2179C101.125 20.0724 100.413 20.1246 99.7679 20.3671C99.0997 20.5908 98.5231 20.9964 98.1162 21.5287C97.6112 22.2151 97.3608 23.031 97.402 23.8565C97.5045 24.7214 97.8327 25.5514 98.3593 26.277C99.1901 27.4906 100.306 29.05 100.306 29.05C100.306 29.05 102.151 28.7607 103.716 28.6613C104.67 28.624 105.6 28.3791 106.429 27.9471C107.189 27.4929 107.768 26.827 108.078 26.0487Z" fill="#FFC727"/>
<path d="M95.0014 52.1539C95.0659 51.8169 95.0157 51.4699 94.8575 51.1595C94.7155 50.8505 94.471 50.5897 94.1582 50.4137C93.889 50.2702 93.5753 50.2117 93.2659 50.2472C92.9565 50.2828 92.6686 50.4104 92.447 50.6104C92.4027 50.4229 92.3128 50.2468 92.1841 50.0951C92.0646 49.9548 91.915 49.8382 91.7444 49.7524C91.5739 49.6665 91.386 49.6132 91.1921 49.5956C90.826 49.5705 90.4603 49.6495 90.1455 49.8216C89.8216 49.9911 89.5621 50.2465 89.4015 50.5539C89.2009 50.9493 89.1461 51.3933 89.2453 51.8195C89.3776 52.2621 89.6252 52.6691 89.967 53.006C90.5101 53.5755 91.2342 54.3009 91.2342 54.3009C91.2342 54.3009 92.1692 54.0094 92.9702 53.8376C93.4628 53.7439 93.9241 53.5457 94.3169 53.2591C94.6677 52.9661 94.9074 52.5791 95.0014 52.1539Z" fill="#FFC727"/>
<path d="M35.1763 61.5738C35.114 61.4207 35.0014 61.2889 34.8539 61.1963C34.7134 61.1021 34.5447 61.0493 34.3703 61.0449C34.2226 61.0461 34.0793 61.0907 33.9618 61.1722C33.8442 61.2536 33.7587 61.3675 33.7181 61.4969C33.6494 61.429 33.5646 61.3764 33.4701 61.3432C33.3841 61.3118 33.292 61.2969 33.1994 61.2992C33.1069 61.3015 33.0158 61.3211 32.9319 61.3568C32.7747 61.427 32.6461 61.541 32.5649 61.6822C32.4752 61.8231 32.4346 61.9854 32.4483 62.1478C32.472 62.3548 32.5676 62.5496 32.7211 62.7038C32.8933 62.8552 33.1024 62.9675 33.3312 63.0315C33.7057 63.1445 34.1967 63.2823 34.1967 63.2823C34.1967 63.2823 34.5018 62.9569 34.787 62.7083C34.9652 62.5624 35.1022 62.3794 35.1862 62.1749C35.2533 61.9787 35.2498 61.7681 35.1763 61.5738Z" fill="#FFC727"/>
<path d="M22.1464 69.3051C22.0828 69.1534 21.9705 69.0226 21.824 68.93C21.6798 68.834 21.5065 68.7811 21.328 68.7786C21.2349 68.7797 21.143 68.7979 21.0578 68.8321C20.9726 68.8663 20.8958 68.9157 20.832 68.9774C20.7578 69.0514 20.7042 69.1405 20.6758 69.2373C20.6074 69.1692 20.5224 69.1166 20.4278 69.0837C20.3418 69.0523 20.2497 69.0373 20.1571 69.0396C20.0646 69.0419 19.9735 69.0615 19.8896 69.0972C19.7329 69.168 19.6045 69.2819 19.5226 69.4227C19.4326 69.5633 19.3927 69.726 19.4085 69.8882C19.4322 70.0953 19.5278 70.29 19.6813 70.4442C19.8531 70.5961 20.0623 70.7084 20.2914 70.7719C20.6658 70.8849 21.1544 71.0227 21.1544 71.0227C21.1544 71.0227 21.4619 70.6973 21.7471 70.4487C21.9245 70.3026 22.0606 70.1196 22.1439 69.9153C22.2171 69.7175 22.218 69.5034 22.1464 69.3051Z" fill="#FFC727"/>
<path d="M97.5533 60.5296C97.4901 60.3776 97.3777 60.2467 97.2309 60.1544C97.0877 60.0564 96.914 60.0025 96.7349 60.0007C96.5876 60.0024 96.4449 60.0472 96.3278 60.1286C96.2108 60.2101 96.1257 60.3237 96.0851 60.4527C95.9883 60.3566 95.8603 60.2911 95.7198 60.2659C95.5792 60.2407 95.4335 60.2571 95.3039 60.3126C95.1466 60.3834 95.0174 60.4972 94.9344 60.6381C94.8466 60.7795 94.8069 60.9416 94.8203 61.1036C94.8435 61.3108 94.9392 61.5057 95.0931 61.6596C95.265 61.8115 95.4741 61.9238 95.7032 61.9873C96.0777 62.1003 96.5687 62.2381 96.5687 62.2381C96.5687 62.2381 96.8738 61.9127 97.159 61.6641C97.3367 61.5178 97.4736 61.3349 97.5583 61.1307C97.6257 60.9348 97.624 60.7245 97.5533 60.5296Z" fill="#FFC727"/>
<path d="M48.2087 39.1454C46.3859 38.2414 43.5562 38.2414 41.5698 40.7613C39.5337 43.3399 40.2826 45.3491 40.791 47.4599C41.0638 48.5899 41.6466 49.799 41.1457 50.8703C40.61 52.0206 39.0873 52.4523 38.0829 53.2998C37.4869 53.8239 37.079 54.5001 36.9125 55.2394C36.7461 55.9788 36.829 56.7467 37.1504 57.4423C37.8696 58.9181 39.6304 59.8899 40.0594 61.4538C40.4314 62.7872 39.7197 64.193 38.7252 65.228C37.7307 66.2631 36.456 67.0473 35.3995 68.0259C34.343 69.0045 33.4478 70.2859 33.5346 71.6419C33.6511 73.4499 35.3673 74.8059 36.9718 75.8726C37.9366 76.5213 38.931 77.1654 40.0619 77.527C42.718 78.3767 49.7463 79.4367 52.3131 78.3858C56.1497 76.8038 58.4561 73.529 60.9708 70.4554C63.9939 66.7581 65.8862 59.1554 61.1766 54.5292" fill="#263238"/>
<path d="M34.968 74.0309C34.8977 73.9231 34.8347 73.8114 34.7795 73.6965C34.6026 73.3685 34.5077 73.0088 34.5018 72.6433C34.5018 72.1597 34.8316 71.6105 35.3499 71.1381C35.9478 70.6057 36.6459 70.1755 37.4108 69.868C38.2441 69.5019 39.2063 69.2171 40.2058 68.8442C41.2052 68.4713 42.2567 67.9922 43.0478 67.1583C43.4581 66.7422 43.7561 66.2446 43.9183 65.7051C44.0692 65.1381 44.0338 64.5432 43.8166 63.9943C43.5838 63.4238 43.2818 62.8788 42.9164 62.3693C42.5314 61.8385 42.1994 61.2773 41.9244 60.6924C41.6418 60.0981 41.5365 59.4463 41.6194 58.8031C41.6728 58.4855 41.8052 58.1833 42.0062 57.9194C42.2098 57.6645 42.4618 57.4448 42.7502 57.2708C43.3008 56.9182 43.8985 56.6719 44.3771 56.3035C44.8479 55.9465 45.1571 55.4434 45.2451 54.891C45.329 54.3638 45.2728 53.8259 45.0814 53.3226C44.8986 52.8469 44.6564 52.3919 44.3598 51.9666C43.7918 51.1304 43.1594 50.4139 42.6238 49.7359C41.738 48.6774 41.0477 47.4942 40.5802 46.2329C40.4502 45.8919 40.3539 45.541 40.2926 45.1843C40.2696 45.0596 40.2588 44.9333 40.2603 44.8069C40.2603 44.8069 40.2752 44.9357 40.3248 45.1798C40.3983 45.5319 40.5028 45.878 40.6373 46.2149C41.1229 47.4621 41.8236 48.6309 42.713 49.6772C43.2586 50.3552 43.8985 51.0648 44.4763 51.9055C44.7822 52.3388 45.0318 52.803 45.2203 53.2887C45.4217 53.8103 45.4813 54.3687 45.3939 54.9159C45.3049 55.5001 44.9794 56.033 44.4813 56.4097C43.9853 56.7962 43.3802 57.0448 42.8494 57.3883C42.5782 57.5531 42.3421 57.7613 42.1526 58.003C41.9637 58.2495 41.8406 58.5327 41.793 58.8302C41.7166 59.446 41.8183 60.0693 42.0881 60.6382C42.3647 61.2144 42.6967 61.7672 43.0801 62.2902C43.4507 62.8099 43.7568 63.3655 43.9927 63.9468C44.2187 64.5206 44.2541 65.1424 44.0944 65.7345C43.9249 66.2939 43.614 66.8094 43.1867 67.2396C42.3683 68.0962 41.2821 68.5753 40.2851 68.9482C39.2882 69.3211 38.3185 69.5968 37.4877 69.9539C36.7318 70.2528 36.0399 70.6714 35.4442 71.1901C34.9258 71.6421 34.6034 72.1732 34.5935 72.6411C34.5945 72.9997 34.679 73.354 34.8415 73.6806C34.9184 73.9021 34.9829 74.0264 34.968 74.0309Z" fill="#455A64"/>
<path d="M40.2355 45.069C40.2173 45.0347 40.2048 44.9982 40.1983 44.9605C40.169 44.857 40.1458 44.7522 40.1289 44.6464C40.0681 44.2536 40.0681 43.855 40.1289 43.4622C40.2178 42.8771 40.4256 42.3123 40.7414 41.7965C41.121 41.1562 41.67 40.6124 42.3387 40.2146C43.0074 39.8168 43.7746 39.5775 44.5706 39.5185C45.2156 39.4622 45.8665 39.5159 46.4901 39.6767C46.9094 39.7831 47.3101 39.9429 47.6805 40.1513C47.7805 40.2075 47.8766 40.2694 47.9682 40.3366C48.0025 40.3573 48.0341 40.3816 48.0624 40.4089C47.5618 40.1332 47.023 39.9196 46.4603 39.7738C45.8487 39.6297 45.2137 39.5869 44.5854 39.6473C43.8138 39.7109 43.0712 39.9461 42.4226 40.3323C41.774 40.7184 41.2393 41.2437 40.8654 41.8621C40.5507 42.3617 40.3381 42.9092 40.238 43.478C40.158 44.0058 40.1572 44.541 40.2355 45.069Z" fill="#455A64"/>
<path d="M61.5338 42.8473L73.8693 62.3511L64.9413 68.487L59.52 61.4132C59.52 61.4132 54.8923 63.4947 51.9089 59.7272C49.8279 57.0046 47.9783 54.1412 46.376 51.1618C43.8464 46.4158 45.3418 42.4721 49.7166 40.1172C54.0194 37.8052 58.9694 38.951 61.5338 42.8473Z" fill="#977264"/>
<path d="M59.401 61.3635C59.401 61.3635 62.1885 59.8697 63.7534 56.4729C63.7534 56.4729 64.5792 60.0301 60.1524 62.3489L59.401 61.3635Z" fill="#A36957"/>
<path d="M57.2037 46.6644C57.0772 46.635 56.8267 47.2181 56.1646 47.5978C55.5024 47.9775 54.8055 47.9549 54.7857 48.0701C54.7857 48.1244 54.9419 48.2102 55.2519 48.2283C55.6637 48.2453 56.0711 48.145 56.4175 47.9413C56.7626 47.744 57.03 47.452 57.1814 47.1074C57.288 46.8475 57.2632 46.6757 57.2037 46.6644Z" fill="#263238"/>
<path d="M50.6267 50.1064C50.5002 50.0793 50.2497 50.6623 49.5876 51.042C48.9254 51.4217 48.2285 51.3991 48.2087 51.5144C48.2087 51.5663 48.365 51.6545 48.675 51.6726C49.0866 51.6882 49.4936 51.588 49.8406 51.3855C50.1863 51.188 50.4539 50.8951 50.6044 50.5493C50.7086 50.2917 50.6862 50.1177 50.6267 50.1064Z" fill="#263238"/>
<path d="M56.6035 54.8932C56.5142 54.8341 56.44 54.758 56.3861 54.6702C56.3321 54.5824 56.2997 54.485 56.291 54.3847C56.276 54.1846 56.2936 53.9835 56.3431 53.7881C56.3665 53.5314 56.4678 53.2856 56.6357 53.0784C56.8127 52.9198 57.0401 52.8162 57.2855 52.7824C57.5451 52.7181 57.8205 52.7307 58.0717 52.8185C58.2545 52.9076 58.402 53.0466 58.4937 53.2161C58.5853 53.3855 58.6164 53.5768 58.5826 53.7632C58.5417 53.9483 58.4556 54.1227 58.3307 54.2733C58.2058 54.424 58.0452 54.547 57.8609 54.6333C57.4888 54.8015 57.0753 54.8794 56.6606 54.8593" fill="#A36957"/>
<path d="M57.0846 52.353C56.978 52.414 57.4641 53.0491 57.2161 53.8808C56.9681 54.7125 56.172 55.117 56.2241 55.2097C56.2439 55.2549 56.4845 55.2277 56.8019 55.0334C57.2142 54.7789 57.5139 54.3993 57.6476 53.9621C57.7778 53.5418 57.7226 53.0917 57.4938 52.7078C57.3277 52.4321 57.1293 52.3191 57.0846 52.353Z" fill="#263238"/>
<path d="M56.7374 45.1029C56.5911 44.9447 55.8918 45.2747 54.989 45.4645C54.0863 45.6544 53.3026 45.6702 53.253 45.8713C53.2332 45.9663 53.4217 46.0973 53.7738 46.1832C54.2363 46.2755 54.7157 46.2708 55.1759 46.1694C55.636 46.068 56.0649 45.8726 56.4299 45.5979C56.7002 45.3764 56.792 45.1798 56.7374 45.1029Z" fill="#263238"/>
<path d="M48.4096 47.9776C48.1839 47.964 47.9657 48.4431 47.5416 48.8929C47.1175 49.3426 46.6562 49.6387 46.7133 49.8376C46.743 49.9302 46.934 49.9777 47.2093 49.9167C47.5746 49.8188 47.8996 49.624 48.143 49.3572C48.3864 49.0903 48.537 48.7635 48.5757 48.4183C48.608 48.1516 48.5137 47.9889 48.4096 47.9776Z" fill="#263238"/>
<path d="M54.9469 53.2999C54.9295 53.2637 54.4757 53.397 53.759 53.6389C53.5779 53.7044 53.3993 53.7496 53.3076 53.6569C53.2011 53.5032 53.1492 53.3233 53.1588 53.1417C53.1018 52.6897 53.0447 52.2151 52.9827 51.7156C52.7174 49.6952 52.4297 48.0657 52.3404 48.0747C52.2511 48.0838 52.3949 49.7336 52.6603 51.754C52.7297 52.2512 52.7967 52.7258 52.8612 53.1778C52.8579 53.4152 52.9456 53.6462 53.1092 53.831C53.1658 53.8736 53.2321 53.9042 53.3033 53.9206C53.3745 53.937 53.4488 53.9388 53.5209 53.9259C53.6288 53.9025 53.7336 53.8684 53.8334 53.8242C54.5426 53.5349 54.9642 53.336 54.9469 53.2999Z" fill="#263238"/>
<path d="M64.9388 51.4896C64.7255 52.6196 64.9636 53.8965 65.0058 55.0514C65.0479 56.2062 65.5241 57.4266 66.593 58.0414C67.6618 58.6561 69.254 58.6809 69.7574 59.7273C69.9707 60.1793 69.9062 60.6878 70.0526 61.1534C70.2658 61.8314 70.9131 62.3421 71.6274 62.6156C71.8007 62.6824 71.9788 62.7383 72.1606 62.7828L73.1302 64.2993C74.3281 66.1751 75.6574 68.1571 77.8199 69.0634C78.4043 69.3212 79.0396 69.4693 79.6881 69.4988C80.3365 69.5283 80.9848 69.4386 81.5945 69.2351C82.7973 68.799 83.757 67.7639 83.8736 66.5887C83.9604 65.696 83.5859 64.8168 83.571 63.9219C83.5388 62.0551 85.059 60.2675 84.563 58.4595C83.948 56.2514 80.791 55.5034 79.551 53.5259C79.0351 52.701 78.8913 51.7179 78.3878 50.8885C77.443 49.3336 75.4664 48.6126 73.6882 47.8781C73.0832 47.632 72.4989 47.3457 71.9398 47.0216C72.0288 46.9449 72.1117 46.8626 72.1878 46.7753C72.9318 45.93 72.9666 44.6667 72.3912 43.7175C72.087 43.2503 71.6742 42.8494 71.182 42.5429C70.6898 42.2364 70.1299 42.0318 69.5417 41.9434C68.7803 41.8168 67.952 41.8439 67.2948 41.471C66.5508 41.0552 66.1763 40.2077 65.3802 39.9026C64.79 39.6766 64.1179 39.8145 63.4781 39.8371C62.0645 39.889 60.5442 38.967 58.8603 37.9002C57.6575 36.9962 56.3059 36.2075 54.7708 36.1329C52.948 36.0448 51.279 36.9895 49.7463 37.898C48.3575 38.7229 46.8001 39.8325 46.8943 41.3422C48.7394 44.1876 51.5567 46.8521 56.6035 44.5446C57.7666 44.0135 59.4382 43.9819 60.3062 44.8656C61.2312 45.8057 60.7154 47.6499 61.9504 48.2217C62.2095 48.3285 62.4895 48.3869 62.7738 48.3934C63.1497 48.4698 63.5011 48.6246 63.8005 48.8454C63.8005 48.8454 65.0231 50.2037 64.9388 51.4896Z" fill="#263238"/>
<path d="M67.3047 47.5595C67.3047 47.5595 67.3444 47.4917 67.3766 47.3516C67.4129 47.1469 67.3709 46.937 67.2576 46.7572C67.0801 46.4723 66.7901 46.2598 66.4466 46.1628C65.985 46.0406 65.5142 45.9492 65.038 45.8894C64.7548 45.8425 64.4823 45.7523 64.232 45.6227C63.9639 45.471 63.7401 45.2624 63.5798 45.0148C63.2375 44.5108 63.0838 43.8848 62.8358 43.2994C62.5461 42.6587 62.0912 42.0911 61.5097 41.6446C60.9282 41.1981 60.2372 40.8858 59.4952 40.7343C59.1074 40.6535 58.7097 40.6193 58.3122 40.6326C57.9256 40.6526 57.5428 40.7133 57.1714 40.8134C56.4274 41.0078 55.7628 41.2971 55.0932 41.5231C54.4573 41.7484 53.7891 41.8892 53.1092 41.9412C52.5194 41.9781 51.9268 41.9462 51.3459 41.8462C50.505 41.7043 49.7024 41.4149 48.9825 40.9942C48.7864 40.8811 48.5991 40.7557 48.422 40.6191C48.3591 40.5736 48.2995 40.5245 48.2434 40.4722C48.3142 40.5071 48.3807 40.5488 48.4418 40.5965C48.6259 40.7224 48.8171 40.8393 49.0147 40.9468C49.737 41.3443 50.5343 41.6157 51.3658 41.7468C51.9385 41.8391 52.5219 41.8649 53.1018 41.8236C53.7651 41.7663 54.4163 41.624 55.0362 41.401C55.6958 41.175 56.3729 40.8812 57.1218 40.6801C57.5046 40.5771 57.899 40.5142 58.2974 40.4925C58.709 40.4777 59.1209 40.5127 59.5225 40.5965C60.2883 40.7528 61.0012 41.0761 61.5998 41.5386C62.1985 42.0011 62.6651 42.5891 62.9598 43.252C63.2078 43.8622 63.3491 44.4701 63.6715 44.9537C63.8198 45.1871 64.0273 45.3848 64.2766 45.53C64.5156 45.6548 64.7753 45.7433 65.0454 45.7922C65.5249 45.8584 65.9983 45.9574 66.4615 46.0883C66.8189 46.1989 67.1167 46.4291 67.2948 46.7324C67.4078 46.9239 67.4413 47.1462 67.389 47.3584C67.377 47.4302 67.3483 47.4987 67.3047 47.5595Z" fill="#455A64"/>
<path d="M60.264 38.7635C60.2368 38.7288 60.215 38.6908 60.1995 38.6505C60.1507 38.539 60.0927 38.4309 60.0259 38.3274C59.9245 38.1605 59.7967 38.0082 59.6465 37.8754C59.4426 37.7123 59.1909 37.6071 58.9223 37.5725C58.3197 37.4912 57.6054 37.7669 56.9656 38.2098C56.3257 38.6528 55.5247 39.0754 54.7137 39.5274C53.2875 40.2666 51.6572 40.6143 50.0191 40.5286C49.5271 40.5038 49.0389 40.4365 48.5609 40.3275C48.3922 40.2913 48.2633 40.2506 48.1765 40.2258C48.1307 40.2149 48.0866 40.1989 48.045 40.1783C48.2231 40.2009 48.3995 40.2334 48.5733 40.2755C49.0516 40.3617 49.5368 40.4131 50.0241 40.4292C51.6362 40.4852 53.2336 40.1306 54.6369 39.4054C55.4404 38.9534 56.2191 38.5353 56.8689 38.1059C57.5186 37.6765 58.28 37.3736 58.9273 37.4753C59.2141 37.5168 59.4805 37.6366 59.6911 37.8189C59.8436 37.9573 59.9701 38.1177 60.0656 38.2935C60.1275 38.4019 60.1781 38.5154 60.2169 38.6325C60.2393 38.6739 60.2551 38.718 60.264 38.7635Z" fill="#455A64"/>
<path d="M86.1428 75.8976C83.3974 77.0276 82.2219 77.5519 79.4765 77.8503V77.8819L75.826 69.8951C76.2153 69.5651 76.6618 69.1651 77.1627 68.6747C77.5919 68.2517 77.9384 67.7648 78.1869 67.235C78.492 66.5932 78.8565 65.7254 78.8962 65.201C78.9433 64.5434 79.8436 64.2812 80.1957 64.7852C80.5479 65.2892 80.4661 67.1062 79.355 68.9707C78.244 70.8352 81.6317 69.5651 82.8766 69.1199L86.1428 75.8976Z" fill="#977264"/>
<path d="M63.984 65.1582C64.654 64.3736 65.4914 63.7209 66.4457 63.2393C67.4 62.7576 68.4515 62.4571 69.5367 62.3558C71.5058 62.1456 73.1451 61.9467 75.0671 62.7264C79.3525 64.4666 80.0271 66.6294 82.3112 70.3607C84.0918 73.2625 85.2128 78.4131 84.6473 83.6088C84.0769 88.8859 83.0601 95.5868 83.0601 95.5868L88.6501 103.612H59.7432V88.3864L50.1406 82.7364L63.984 65.1582Z" fill="#455A64"/>
<path d="M83.4669 70.9166L82.031 73.3778C81.7978 73.7778 81.4655 74.2343 80.9695 74.2253C80.5157 74.2253 80.1834 73.7846 80.1635 73.371C80.1851 72.9567 80.3189 72.5538 80.5529 72.1981L82.1798 69.2036L82.2715 68.9256C82.2715 68.9256 82.7948 68.1097 83.4123 68.3922C83.9753 68.6476 84.201 69.6578 83.4669 70.9166Z" fill="#977264"/>
<path d="M84.4886 72.9437C84.0125 73.7634 83.5347 74.5837 83.0552 75.4049C82.8221 75.8049 82.4897 76.2614 81.9913 76.2524C81.5374 76.2524 81.2076 75.8117 81.1877 75.4004C81.2069 74.9853 81.3399 74.5813 81.5746 74.2252L83.204 71.2307L83.2957 70.9527C83.2957 70.9527 83.8165 70.1368 84.4365 70.4193C84.9995 70.6747 85.2227 71.6849 84.4886 72.9437Z" fill="#977264"/>
<path d="M85.4533 75.0321L84.0918 77.3666C83.8711 77.7441 83.5561 78.178 83.0849 78.169C82.6559 78.169 82.3409 77.7531 82.3211 77.3599C82.3408 76.967 82.4678 76.5848 82.6906 76.248C83.2032 75.3018 83.7173 74.3556 84.2332 73.4094L84.32 73.145C84.32 73.145 84.816 72.3721 85.4013 72.6387C85.9369 72.8783 86.1477 73.8343 85.4533 75.0321Z" fill="#977264"/>
<path d="M86.3313 76.0513L85.312 77.7892C85.1458 78.0717 84.9127 78.3926 84.568 78.3859C84.4094 78.3656 84.2643 78.2934 84.1598 78.1827C84.0553 78.0721 83.9985 77.9306 84.0001 77.7847C84.0144 77.4916 84.109 77.2064 84.2754 76.9553L85.4236 74.8399L85.4881 74.6433C85.4881 74.6433 85.8576 74.067 86.2941 74.2659C86.7306 74.4647 86.8496 75.1608 86.3313 76.0513Z" fill="#977264"/>
<path d="M83.6554 70.4441C83.6042 70.5778 83.5403 70.7071 83.4644 70.8306L82.894 71.8657L82.0285 73.3912C81.8812 73.7181 81.6331 73.9991 81.3142 74.2002C81.2188 74.2481 81.1134 74.2771 81.0048 74.2853C80.8963 74.2934 80.7871 74.2806 80.6843 74.2477C80.4778 74.1765 80.3032 74.0444 80.1883 73.8725C80.0904 73.7047 80.0323 73.52 80.0178 73.3304C80.0032 73.1408 80.0326 72.9505 80.104 72.7719C80.2374 72.452 80.3965 72.1416 80.5802 71.8431C80.9075 71.2781 81.2026 70.7628 81.4556 70.3221C81.7086 69.8814 81.902 69.5672 82.0558 69.3028C82.1262 69.175 82.2092 69.0532 82.3038 68.939C82.2546 69.0733 82.1923 69.2034 82.1178 69.3277L81.5598 70.3695C81.3118 70.8215 81.029 71.3323 80.7141 71.9041C80.5376 72.1947 80.3851 72.4969 80.2578 72.8081C80.19 72.9686 80.16 73.1402 80.1698 73.3119C80.1797 73.4837 80.2291 73.6516 80.3148 73.8047C80.4005 73.9509 80.5447 74.0614 80.7174 74.1131C80.8902 74.1649 81.0782 74.154 81.2423 74.0827C81.5332 73.8936 81.7607 73.6347 81.8995 73.3347L82.7948 71.8227C83.0428 71.4114 83.2511 71.0724 83.4098 70.8102C83.4801 70.682 83.5622 70.5596 83.6554 70.4441Z" fill="#A36957"/>
<path d="M84.6573 72.6161C84.6078 72.75 84.5447 72.8794 84.4688 73.0025C84.32 73.2692 84.1266 73.6172 83.8959 74.0376L83.0304 75.5631C82.8831 75.89 82.635 76.1711 82.3162 76.3722C82.2207 76.4201 82.1153 76.449 82.0068 76.4572C81.8982 76.4654 81.789 76.4526 81.6862 76.4197C81.4797 76.3484 81.3051 76.2164 81.1902 76.0445C81.0929 75.8742 81.0364 75.687 81.0245 75.4953C81.0125 75.3036 81.0453 75.1118 81.1208 74.9326C81.2523 74.6123 81.4107 74.3018 81.5945 74.0037C81.9218 73.4387 82.217 72.9234 82.4699 72.4827C82.7229 72.042 82.9163 71.7279 83.0726 71.4635C83.1425 71.3354 83.2256 71.2135 83.3206 71.0996C83.2713 71.234 83.2091 71.364 83.1346 71.4883L82.5766 72.5302L81.7334 74.0647C81.556 74.3553 81.4027 74.6574 81.2746 74.9687C81.2069 75.1292 81.1771 75.3009 81.1869 75.4726C81.1967 75.6443 81.246 75.8122 81.3316 75.9654C81.4173 76.1116 81.5615 76.222 81.7342 76.2738C81.907 76.3256 82.095 76.3147 82.2591 76.2434C82.55 76.0543 82.7775 75.7953 82.9163 75.4953C83.2511 74.9326 83.5512 74.4218 83.8116 73.9834L84.4266 72.9709C84.4938 72.8476 84.5709 72.729 84.6573 72.6161Z" fill="#A36957"/>
<path d="M85.808 74.2252C85.7553 74.3601 85.6923 74.4915 85.6195 74.6184L85.1012 75.6874C84.883 76.1394 84.63 76.6818 84.3051 77.2694C84.1567 77.5975 83.9215 77.8871 83.6206 78.1124C83.5297 78.1685 83.4269 78.2066 83.3189 78.2245C83.2109 78.2424 83.1 78.2397 82.9932 78.2164C82.7763 78.1619 82.5869 78.0405 82.4575 77.8728C82.3475 77.7063 82.2795 77.5195 82.2585 77.326C82.2375 77.1325 82.2639 76.9371 82.336 76.7541C82.4635 76.428 82.622 76.1127 82.8097 75.8117C83.1395 75.2399 83.4371 74.7201 83.6926 74.2749C83.948 73.8297 84.1439 73.511 84.3002 73.2444C84.3701 73.1148 84.4531 72.9915 84.5482 72.876C84.4974 73.0116 84.4343 73.1431 84.3597 73.2692L83.7967 74.3201L82.9411 75.8727C82.7606 76.1666 82.6087 76.4744 82.4873 76.7926C82.4228 76.9557 82.3985 77.1297 82.4161 77.3023C82.4336 77.475 82.4927 77.642 82.589 77.7915C82.6974 77.9308 82.855 78.0321 83.0354 78.0785C83.1217 78.0984 83.2118 78.1012 83.2995 78.0868C83.3872 78.0724 83.4705 78.041 83.5438 77.9949C83.8245 77.7849 84.0435 77.5147 84.1811 77.2084C84.511 76.6321 84.7738 76.0965 85.0045 75.649C85.2351 75.2015 85.4286 74.8422 85.5724 74.5981C85.6362 74.4666 85.7152 74.3416 85.808 74.2252Z" fill="#A36957"/>
<path d="M68.944 38.0967L67.9942 38.1804L62.7093 47.756L60.822 51.1708C60.363 51.8426 59.8402 52.4763 59.2596 53.0647C57.0623 55.2569 50.6887 58.3712 50.6887 58.3712L62.9498 64.5048L69.4747 60.3984L69.4921 60.412C69.4921 60.412 74.2338 62.2652 76.9941 58.3576C79.7543 54.4501 85.2277 44.9739 85.2277 44.9739C83.4315 42.6099 80.9751 40.726 78.1123 39.517C75.2495 38.308 72.0844 37.8176 68.944 38.0967Z" fill="#846457"/>
<path d="M69.5466 60.3579C68.2689 59.8782 67.1392 59.1211 66.2561 58.1525C65.373 57.1839 64.7633 56.0331 64.48 54.8005C64.48 54.8005 63.7732 59.0177 68.329 61.1285L69.5466 60.3579Z" fill="#A36957"/>
<path d="M65.72 42.5626C65.6679 42.4926 63.302 40.0766 61.5462 42.8135C59.7903 45.5503 63.4062 46.6849 63.4632 46.6103C63.5202 46.5357 65.72 42.5626 65.72 42.5626Z" fill="#977264"/>
<path d="M62.992 44.9944C62.992 44.9786 62.9176 44.9944 62.806 44.9944C62.6498 44.9776 62.5073 44.9053 62.4092 44.7933C62.1612 44.5176 62.186 43.9164 62.4861 43.4124C62.6296 43.1736 62.8295 42.9667 63.0714 42.8068C63.1543 42.7356 63.255 42.6841 63.3648 42.6565C63.4746 42.6289 63.5901 42.6262 63.7013 42.6486C63.7708 42.6662 63.8315 42.7055 63.8727 42.7595C63.9139 42.8136 63.9331 42.879 63.9269 42.9446C63.9269 43.0418 63.865 43.087 63.8774 43.1006C63.8898 43.1141 63.9716 43.0893 64.0212 42.9627C64.0482 42.8894 64.0482 42.81 64.0212 42.7367C63.9986 42.6858 63.965 42.6395 63.9224 42.6007C63.8798 42.5619 63.8291 42.5313 63.7732 42.5107C63.6352 42.4675 63.4874 42.4571 63.3438 42.4804C63.2001 42.5037 63.0654 42.56 62.9523 42.644C62.6709 42.8166 62.4401 43.0494 62.2802 43.322C61.9479 43.887 61.9256 44.5696 62.2802 44.9153C62.3476 44.9799 62.4301 45.0296 62.5216 45.061C62.6131 45.0923 62.7112 45.1043 62.8085 45.0961C62.9399 45.0577 62.992 45.0057 62.992 44.9944Z" fill="#A36957"/>
<path d="M77.9414 48.6601C78.0654 48.6217 78.368 49.1821 79.0649 49.5076C79.7618 49.833 80.4537 49.7562 80.4834 49.8692C80.5033 49.9212 80.3421 50.0206 80.0346 50.0635C79.626 50.1127 79.2108 50.0448 78.8466 49.8692C78.4828 49.7013 78.188 49.4311 78.0059 49.0985C77.872 48.8499 77.872 48.6759 77.9414 48.6601Z" fill="#263238"/>
<path d="M71.424 45.1775C71.5505 45.1459 71.8158 45.7222 72.4904 46.0815C73.1649 46.4409 73.8569 46.407 73.8817 46.5335C73.8941 46.5855 73.7304 46.6782 73.4204 46.703C73.0086 46.7284 72.5982 46.6376 72.2449 46.4431C71.8951 46.2533 71.62 45.9678 71.4587 45.6273C71.3347 45.3628 71.3521 45.2001 71.424 45.1775Z" fill="#263238"/>
<path d="M73.3237 52.3053C73.3435 52.2692 73.8023 52.4387 74.524 52.7438C74.705 52.8229 74.8861 52.8839 74.9878 52.7958C75.1111 52.6442 75.1811 52.4622 75.1886 52.2737C75.2878 51.8081 75.3903 51.32 75.4962 50.8092C75.9525 48.7368 76.3939 47.0712 76.4882 47.0893C76.5824 47.1073 76.2848 48.8023 75.8309 50.8748L75.4962 52.3325C75.4751 52.5792 75.3592 52.8113 75.1688 52.9879C75.1068 53.0292 75.0351 53.0568 74.9593 53.0686C74.8836 53.0804 74.8059 53.0759 74.7323 53.0557C74.6226 53.0248 74.5176 52.9816 74.4198 52.9268C73.7229 52.5765 73.3038 52.3415 73.3237 52.3053Z" fill="#263238"/>
<path d="M71.0817 51.6071C71.1933 51.6636 70.7445 52.3212 71.0396 53.1393C71.3347 53.9575 72.1531 54.3236 72.0961 54.4185C72.0787 54.466 71.8481 54.4479 71.5083 54.2716C71.0818 54.0364 70.7603 53.6714 70.6006 53.241C70.4454 52.8274 70.4739 52.3748 70.68 51.98C70.8437 51.6929 71.0346 51.5754 71.0817 51.6071Z" fill="#263238"/>
<path d="M75.8012 44.1672C75.6226 44.296 75.0126 43.8395 74.1743 43.4892C73.3361 43.1389 72.5722 42.9626 72.5722 42.7569C72.5722 42.6598 72.7905 42.5671 73.1526 42.5535C73.6271 42.5469 74.0964 42.6438 74.5215 42.836C74.9505 43.0189 75.3248 43.2934 75.6127 43.6361C75.826 43.8937 75.888 44.1062 75.8012 44.1672Z" fill="#263238"/>
<path d="M81.5622 48.1652C81.3514 48.2352 80.9918 47.8307 80.4462 47.5098C79.9006 47.1888 79.3674 47.0239 79.36 46.8182C79.36 46.721 79.5286 46.6261 79.8213 46.6125C80.2019 46.6125 80.574 46.7157 80.8902 46.9088C81.2063 47.102 81.4524 47.3765 81.5969 47.6973C81.6937 47.9482 81.6614 48.138 81.5622 48.1652Z" fill="#263238"/>
<path d="M89.032 43.6971C89.2302 43.4704 89.3621 43.2017 89.4155 42.9159C89.4688 42.6302 89.4418 42.3368 89.337 42.0631C89.2196 41.7937 89.0003 41.5714 88.7188 41.4363C88.4374 41.3012 88.1122 41.2622 87.8019 41.3264C87.9556 41.1851 88.075 41.016 88.1523 40.8299C88.2297 40.6439 88.2632 40.4452 88.2508 40.2465C88.2384 40.0479 88.1804 39.8539 88.0804 39.6771C87.9804 39.5002 87.8408 39.3445 87.6705 39.2201C86.9934 38.7681 86.0585 38.9172 85.2599 38.7003C84.4614 38.4833 83.8662 37.9364 83.39 37.3443C82.9138 36.7521 82.5369 36.0809 82.0359 35.4956C80.9811 34.2595 79.4336 33.4529 77.7297 33.251C76.0258 33.0492 74.3033 33.4684 72.9368 34.4176C72.1779 33.6085 70.804 33.4322 69.7128 33.83C68.6216 34.2277 67.8206 35.1001 67.3221 36.0606C66.9998 36.7177 66.7577 37.4051 66.6004 38.1104C66.5657 38.1601 66.526 38.2076 66.4938 38.2596C65.0504 40.4495 63.5698 43.1457 64.5742 43.7378C66.3226 44.7729 67.9867 41.4981 67.9867 41.4981C70.68 41.9727 71.9076 38.5601 72.7582 38.411C73.6089 38.2618 75.4614 37.8754 78.5466 42.5807C79.7469 44.409 82.1078 45.7198 83.5686 46.1967L83.695 46.2396H83.7248H83.7719C84.248 46.3841 84.7458 46.4603 85.2475 46.4656C85.8255 46.4847 86.3952 46.3359 86.8744 46.0407C87.1097 45.8892 87.2916 45.6787 87.3981 45.4348C87.5047 45.1909 87.5312 44.9241 87.4746 44.6667C88.0872 44.4904 88.6291 44.1531 89.032 43.6971Z" fill="#263238"/>
<path d="M85.4905 42.6688C85.409 42.6269 85.3381 42.57 85.2822 42.5016C85.1213 42.3021 85.0439 42.0569 85.064 41.81C85.072 41.631 85.1255 41.4562 85.2202 41.2992C85.3342 41.1094 85.5138 40.9592 85.7311 40.8721C85.9979 40.7746 86.2901 40.7505 86.5718 40.8027C86.8534 40.8549 87.1121 40.9812 87.3158 41.1659C87.551 41.4036 87.6992 41.702 87.7401 42.0198C87.781 42.3377 87.7125 42.6592 87.544 42.94C87.347 43.2555 87.0598 43.5164 86.7131 43.6951C86.3664 43.8737 85.9731 43.9635 85.5749 43.9547C84.6971 43.9312 83.8649 43.5934 83.2585 43.0146C82.606 42.4162 82.099 41.6993 81.7705 40.9105C81.4134 40.115 81.153 39.315 80.8554 38.5601C80.5934 37.8296 80.2256 37.1341 79.7617 36.4922L79.5882 36.2662C79.5286 36.1939 79.4592 36.1306 79.3947 36.0628L79.2037 35.8639C79.1343 35.8029 79.0673 35.7419 78.9954 35.6854C78.7216 35.4613 78.4194 35.2679 78.0952 35.1091C77.3797 34.754 76.5755 34.574 75.761 34.5867C74.9464 34.5994 74.1494 34.8043 73.4477 35.1814C73.2207 35.3016 73.0043 35.4376 72.8004 35.5882C72.7326 35.6448 72.6605 35.6969 72.5846 35.7442C72.8273 35.5055 73.1073 35.3006 73.4154 35.1362C74.254 34.6632 75.2337 34.4404 76.2178 34.4989C77.2803 34.5658 78.2889 34.9503 79.0872 35.5927C79.1616 35.6492 79.231 35.7125 79.3029 35.7758L79.5013 35.9792C79.5658 36.047 79.6377 36.1125 79.6997 36.1871C79.7617 36.2617 79.8163 36.3363 79.8783 36.4131C80.3532 37.0626 80.7302 37.7672 80.9993 38.5081C81.2993 39.2675 81.5597 40.0653 81.9144 40.8518C82.2312 41.6224 82.7221 42.3238 83.3553 42.9106C83.9355 43.4627 84.7291 43.787 85.5674 43.8146C85.9409 43.8245 86.3103 43.7424 86.6368 43.577C86.9633 43.4115 87.2347 43.1688 87.4225 42.8745C87.5803 42.6163 87.647 42.3202 87.6138 42.0262C87.5805 41.7323 87.4488 41.4548 87.2365 41.2314C87.0483 41.058 86.8089 40.9382 86.5474 40.8864C86.2859 40.8346 86.0135 40.8532 85.7633 40.9399C85.5792 41.0169 85.4218 41.1386 85.3085 41.2917C85.1952 41.4447 85.1304 41.6233 85.121 41.8077C85.0956 42.0468 85.1623 42.2865 85.3095 42.4857C85.3657 42.5501 85.4262 42.6112 85.4905 42.6688Z" fill="#FAFAFA"/>
<path d="M59.7432 87.715L67.5849 65.9919L65.72 62.7601L54.3914 56.0637C53.9772 56.3146 40.7514 60.9905 36.7834 71.9922C33.9388 79.8864 32.2474 96.1358 32.2474 96.1358L30.7594 103.614H59.7432V87.715Z" fill="#FFC727"/>
<g opacity="0.2">
<path d="M37.1504 95.6838C39.2361 97.0149 41.3466 98.3596 43.7298 99.1732C46.1131 99.9868 48.8337 100.226 51.1698 99.3269C52.2213 98.9224 53.263 98.285 54.3938 98.4229C55.7454 98.5834 56.6258 99.7608 57.7741 100.43C58.3866 100.787 59.0885 101.248 59.644 100.818L59.6861 98.9653C59.6564 96.6194 59.7308 91.5073 59.7308 91.5073C59.711 91.2519 59.7308 91.4485 59.6341 91.3875C59.1381 91.0666 58.4734 91.322 58.0121 91.6881C55.8669 93.3921 54.064 95.5301 51.5021 96.6601C49.2875 97.6387 46.7083 97.7449 44.2854 97.3742C41.8624 97.0036 39.5485 96.1855 37.257 95.3719" fill="black"/>
</g>
<path d="M57.288 64.514C57.288 64.514 50.4853 69.034 54.6046 78.0966C58.7239 87.1592 62.4637 91.8509 62.4637 91.8509L75.64 82.0493L73.2642 78.0084C72.214 76.2362 71.4569 74.3323 71.0173 72.3584C70.4543 69.7865 69.0779 65.8157 65.782 63.5444C63.7732 62.1726 60.8369 62.541 57.288 64.514Z" fill="#FFC727"/>
<path d="M46.7083 60.1499C47.0947 60.1484 47.4802 60.1825 47.859 60.2516C48.309 60.3246 48.7413 60.4692 49.1362 60.6788C49.3827 60.8147 49.6023 60.9873 49.786 61.1895C49.9889 61.4189 50.1444 61.6801 50.2448 61.9602C50.4806 62.599 50.5193 63.2847 50.3564 63.9422C50.1756 64.7028 49.7303 65.39 49.0866 65.9016C48.417 66.4418 47.5714 66.8056 46.7654 67.2712C46.3526 67.4947 45.9726 67.765 45.6345 68.0757C45.2939 68.3982 45.043 68.7903 44.9029 69.2193C44.6202 70.0939 44.7194 71.0115 44.6549 71.8838C44.6347 72.3176 44.5513 72.747 44.4069 73.1607C44.2633 73.5561 44.0596 73.9311 43.8018 74.2749C43.3244 74.9137 42.6823 75.4359 41.9318 75.7959C41.2768 76.1037 40.5509 76.2655 39.8139 76.2682C39.2079 76.2705 38.6064 76.1733 38.0382 75.9812C37.6104 75.8396 37.2063 75.6441 36.8379 75.4004C36.6053 75.2471 36.3894 75.0738 36.1931 74.8829L36.0468 74.7292C36.0146 74.693 35.9997 74.6749 36.0022 74.6727C36.2691 74.9223 36.5605 75.1492 36.8726 75.3507C37.2415 75.5834 37.6437 75.769 38.068 75.9021C38.6251 76.082 39.213 76.17 39.804 76.162C40.5224 76.1541 41.2286 75.9915 41.8649 75.6874C42.5928 75.3332 43.2143 74.8218 43.6753 74.1981C44.1861 73.5089 44.4716 72.7016 44.4986 71.8703C44.5631 71.0115 44.459 70.0871 44.7466 69.1741C44.8931 68.7241 45.1569 68.3132 45.5154 67.9763C45.8626 67.6562 46.2535 67.3782 46.6786 67.1491C47.4945 66.6971 48.3327 66.322 48.985 65.7931C49.611 65.3035 50.046 64.6422 50.225 63.9083C50.3894 63.2711 50.3585 62.605 50.1357 61.9828C50.0428 61.7128 49.8975 61.4602 49.7066 61.237C49.5312 61.0408 49.3218 60.8721 49.0866 60.7375C48.7048 60.5232 48.2854 60.3703 47.8466 60.2855C47.4846 60.2132 47.1994 60.1861 47.0059 60.1635L46.7827 60.1409C46.7586 60.1473 46.7335 60.1504 46.7083 60.1499Z" fill="#FAFAFA"/>
<path d="M53.0199 58.2245C53.0199 58.2245 53.0571 58.2019 53.1365 58.1702C53.2538 58.1258 53.3749 58.0903 53.4986 58.064C53.9599 57.9702 54.4408 57.9953 54.8874 58.1363C55.1982 58.2354 55.4787 58.4004 55.7058 58.6177C55.9623 58.8742 56.1342 59.1915 56.2018 59.533C56.2877 59.912 56.2245 60.3064 56.0232 60.6472C55.7874 61.0037 55.4185 61.2709 54.9841 61.3998C54.5724 61.5294 54.1294 61.5533 53.7038 61.4688C53.2782 61.3842 52.8863 61.1946 52.571 60.9206C52.3182 60.6935 52.1347 60.4102 52.0386 60.0987C51.9425 59.7872 51.9371 59.4583 52.023 59.1443C52.1539 58.7252 52.4591 58.3693 52.8736 58.1521C52.9847 58.095 53.1029 58.0503 53.2258 58.0188C53.2684 58.0071 53.3127 58.001 53.3572 58.0007C53.2016 58.0576 53.05 58.1232 52.9034 58.1974C52.5217 58.4232 52.2459 58.7704 52.1296 59.1714C52.0564 59.4668 52.0679 59.7744 52.163 60.0645C52.2581 60.3547 52.4337 60.6176 52.6727 60.828C52.9696 61.0819 53.3371 61.257 53.7353 61.3343C54.1335 61.4115 54.5473 61.3881 54.932 61.2664C55.3301 61.1526 55.67 60.9119 55.8893 60.5884C56.075 60.2756 56.1364 59.9139 56.0629 59.5646C56.0026 59.2458 55.8463 58.9485 55.6115 58.7059C55.3998 58.4984 55.1384 58.3383 54.8477 58.238C54.4206 58.0946 53.9595 58.0564 53.511 58.1273C53.191 58.1702 53.0249 58.238 53.0199 58.2245Z" fill="#FAFAFA"/>
<path d="M58.776 86.1061C58.8768 86.2306 58.9971 86.3411 59.1331 86.4338C59.5352 86.687 60.0305 86.786 60.512 86.7095C61.2655 86.5552 61.9456 86.1863 62.4538 85.6563C62.7822 85.3384 63.0685 84.9864 63.307 84.6077C63.5626 84.1796 63.7584 83.7241 63.8898 83.2517C64.1971 82.1574 64.1172 81.0026 63.6616 79.9521C63.3902 79.3799 63.0284 78.8469 62.5878 78.3701C62.1513 77.8593 61.6652 77.3531 61.2535 76.77C60.8119 76.1767 60.5548 75.4856 60.5095 74.7699C60.4974 74.0314 60.5806 73.2941 60.7575 72.5732C60.9402 71.8383 61.0095 71.0837 60.9634 70.3313C60.8446 69.1661 60.2955 68.0721 59.4059 67.2283C59.1072 66.9581 58.7742 66.7214 58.4139 66.5232C57.7034 66.1298 56.8777 65.9445 56.048 65.9921C55.6494 66.0135 55.2553 66.0803 54.875 66.191C54.5038 66.3034 54.1484 66.4551 53.816 66.643C53.4988 66.8384 53.2104 67.07 52.9579 67.3323C52.716 67.5926 52.5225 67.8873 52.385 68.2046C52.149 68.8312 52.0243 69.4881 52.0155 70.1505C52.0019 70.7864 51.9002 71.4181 51.713 72.0308C51.4846 72.5886 51.1643 73.1113 50.7631 73.5812C50.3986 74.0332 50.0315 74.4693 49.7364 74.91C49.4463 75.321 49.2545 75.783 49.1734 76.266C49.1094 76.698 49.144 77.1373 49.2751 77.5565C49.4004 77.9178 49.5906 78.2577 49.8381 78.5622C49.9503 78.6945 50.0739 78.8184 50.2076 78.9328L50.3961 79.091L50.592 79.2221C50.9918 79.4747 51.4415 79.6543 51.9163 79.751C52.08 79.7803 52.2065 79.7894 52.2908 79.8052L52.4198 79.8255C52.3768 79.8286 52.3337 79.8286 52.2908 79.8255C52.204 79.8255 52.075 79.8097 51.9089 79.7849C51.4247 79.6996 50.9647 79.525 50.5573 79.2718L50.3564 79.143L50.1605 78.9848C49.7061 78.6061 49.372 78.1229 49.1933 77.5859C49.0531 77.1567 49.0134 76.7055 49.0767 76.2615C49.1559 75.7654 49.3494 75.2902 49.6446 74.8671C49.9373 74.4151 50.3068 73.9857 50.6664 73.5269C51.0577 73.0648 51.3696 72.5512 51.5914 72.0037C51.7717 71.3993 51.8683 70.7767 51.8791 70.1505C51.8877 69.4746 52.0132 68.8042 52.2511 68.1639C52.3958 67.8358 52.5967 67.5307 52.8463 67.2599C53.1064 66.9857 53.4058 66.7447 53.7366 66.5435C54.0782 66.3455 54.4446 66.1854 54.8278 66.0667C55.2207 65.9506 55.6283 65.8808 56.0406 65.8587C56.461 65.8371 56.8826 65.8699 57.293 65.9559C57.7073 66.0525 58.1053 66.2 58.4759 66.3944C58.8473 66.5986 59.1896 66.8438 59.4952 67.1243C59.8003 67.4111 60.0682 67.7288 60.2938 68.0713C60.7409 68.754 61.0146 69.5192 61.0948 70.3109C61.1425 71.0762 61.0724 71.8438 60.8865 72.5913C60.7123 73.3011 60.6291 74.0268 60.6385 74.7541C60.6849 75.4479 60.935 76.1176 61.3626 76.6932C62.1686 77.8232 63.2822 78.7272 63.7707 79.9092C64.2311 80.9819 64.3067 82.16 63.9865 83.2743C63.8497 83.7564 63.6472 84.2211 63.3838 84.6574C63.1391 85.0424 62.8443 85.399 62.5059 85.7196C61.9841 86.2533 61.2891 86.6214 60.5219 86.7705C60.2769 86.8067 60.0264 86.7981 59.785 86.7454C59.5436 86.6926 59.3161 86.5967 59.1158 86.4632C59.0138 86.3918 58.9228 86.3081 58.8454 86.2146C58.8197 86.1798 58.7965 86.1436 58.776 86.1061Z" fill="#FAFAFA"/>
<path d="M69.502 69.2508C69.4843 69.2915 69.4601 69.3296 69.4301 69.3638C69.3591 69.4695 69.276 69.568 69.1821 69.6576C68.8269 69.9949 68.3843 70.2451 67.8949 70.3853C67.1656 70.6006 66.3769 70.579 65.6629 70.3243C64.7884 70.0106 64.0583 69.4331 63.5946 68.6881C63.1402 67.9455 62.9172 67.1038 62.9498 66.2541C62.9746 65.4811 63.1532 64.7692 63.5302 64.2766C63.6719 64.0796 63.8567 63.9115 64.0731 63.7828C64.2894 63.6541 64.5327 63.5675 64.7875 63.5285C64.9247 63.5081 65.0645 63.5081 65.2017 63.5285C65.2501 63.5337 65.2971 63.5467 65.3406 63.5669C65.1595 63.5444 64.976 63.5444 64.7949 63.5669C64.5541 63.6146 64.3262 63.7055 64.1243 63.8343C63.9225 63.9631 63.7509 64.1273 63.6194 64.3172C63.2548 64.9026 63.073 65.5677 63.0937 66.2405C63.069 67.0654 63.2883 67.8811 63.7286 68.6022C64.1758 69.3179 64.8748 69.8752 65.7126 70.1842C66.3974 70.4357 67.1559 70.4668 67.8627 70.2723C68.3416 70.1422 68.7795 69.9097 69.1399 69.5943C69.383 69.3955 69.4896 69.2418 69.502 69.2508Z" fill="#FAFAFA"/>
<path d="M72.1333 75.9767C71.9996 75.8302 71.8424 75.703 71.667 75.5993C71.4201 75.474 71.146 75.3995 70.864 75.3812C70.5821 75.3628 70.2992 75.401 70.0352 75.493C69.3631 75.719 68.758 76.3586 68.4554 77.179C68.1529 77.9994 68.1256 78.987 67.9942 79.9904C67.8627 80.9939 67.6842 81.9544 67.6023 82.829C67.5142 83.6011 67.5233 84.3798 67.6296 85.15C67.7044 85.6683 67.8493 86.1762 68.0611 86.662C68.2149 87.0055 68.3265 87.184 68.3091 87.1908C68.2736 87.1526 68.2428 87.1109 68.2174 87.0665C68.1369 86.943 68.064 86.8155 67.9991 86.6846C67.7633 86.1998 67.6007 85.6881 67.5155 85.1636C67.3933 84.3866 67.3734 83.599 67.456 82.8177C67.5304 81.9363 67.704 80.9803 67.8354 79.9724C67.9669 78.9644 67.9818 77.9858 68.3141 77.1361C68.6464 76.2863 69.2763 75.6286 69.993 75.3981C70.2711 75.3054 70.5687 75.2713 70.8633 75.2983C71.1579 75.3253 71.442 75.4127 71.6943 75.5541C71.8282 75.6334 71.9464 75.7327 72.044 75.8479C72.0811 75.8862 72.1112 75.9297 72.1333 75.9767Z" fill="#FAFAFA"/>
<path d="M31.744 99.4785C31.744 99.4785 31.7961 99.6051 31.9225 99.8333C32.1054 100.167 32.3364 100.477 32.6095 100.755C32.8081 100.953 33.0302 101.131 33.2717 101.284C33.5572 101.466 33.8879 101.58 34.2339 101.616C34.6338 101.631 35.03 101.542 35.3772 101.361C35.7848 101.18 36.1813 100.98 36.5651 100.76C37.3761 100.308 38.2813 99.7655 39.4072 99.5508C40.5331 99.3361 41.7384 99.3 42.8941 98.8457C44.0883 98.3348 45.0651 97.4804 45.6741 96.4139C46.3202 95.2661 46.6984 94.0087 46.7852 92.7211C46.9435 91.4387 46.835 90.1406 46.4653 88.8949C46.2768 88.31 45.9826 87.7577 45.5948 87.261C45.2199 86.7881 44.7378 86.3942 44.1812 86.1061C43.6381 85.8168 43.0652 85.5999 42.5444 85.3151C42.0333 85.0429 41.5879 84.6793 41.2349 84.2461C40.5505 83.4122 40.1809 82.5014 39.7742 81.7172C39.447 80.9944 38.9818 80.3303 38.4003 79.7555C37.9474 79.3337 37.3704 79.0402 36.7387 78.9103C36.34 78.8271 35.9247 78.8364 35.5309 78.9374C35.2631 79.0165 35.1391 79.0911 35.1341 79.082C35.2537 79.0086 35.3839 78.9508 35.521 78.9103C35.9223 78.7949 36.3495 78.7762 36.761 78.856C37.4094 78.9789 38.0043 79.2719 38.4722 79.699C39.0675 80.2759 39.5453 80.9447 39.8833 81.6742C40.2975 82.4607 40.672 83.3647 41.349 84.1761C41.6935 84.5957 42.1281 84.9471 42.6262 85.2089C43.1346 85.4869 43.7075 85.7016 44.263 85.9931C44.8374 86.2899 45.3354 86.6952 45.7237 87.1819C46.1229 87.69 46.4264 88.2552 46.6215 88.8543C46.999 90.1172 47.1109 91.4338 46.9513 92.7347C46.8587 94.0412 46.473 95.3165 45.818 96.4818C45.19 97.5731 44.1863 98.4465 42.961 98.9678C42.3834 99.1815 41.7784 99.328 41.1605 99.4039C40.5678 99.4921 39.99 99.5576 39.4444 99.6684C38.3433 99.8718 37.4604 100.401 36.6321 100.846C36.2435 101.065 35.842 101.265 35.4293 101.445C35.238 101.528 35.0398 101.598 34.8365 101.653C34.7845 101.664 34.7349 101.68 34.6853 101.687L34.534 101.702C34.435 101.71 34.3354 101.71 34.2364 101.702C33.8779 101.662 33.5366 101.539 33.2444 101.345C32.9991 101.188 32.7752 101.004 32.5773 100.798C32.3052 100.514 32.0797 100.195 31.9077 99.8514C31.8395 99.7325 31.7846 99.6075 31.744 99.4785Z" fill="#FAFAFA"/>
<path d="M75.64 82.0494L75.5805 82.0991L75.3994 82.2415L74.6877 82.7839L71.9894 84.8179L62.5158 91.903L62.4563 91.9482L62.4142 91.8917C61.9182 91.2431 61.4643 90.5357 61.0105 89.8261C60.5566 89.1165 60.1053 88.3684 59.649 87.6113C58.7438 86.0926 57.846 84.4993 56.9606 82.8495C56.1001 81.2471 55.2941 79.6674 54.5575 78.1261C54.193 77.3532 53.8383 76.5915 53.5308 75.8322C53.3746 75.4525 53.2307 75.0728 53.1092 74.7022C53.0571 74.5078 53.005 74.3157 52.9554 74.1259C52.9058 73.936 52.8786 73.7394 52.8414 73.5473C52.5952 72.087 52.7338 70.5942 53.2456 69.1923C53.6939 67.9747 54.3999 66.849 55.3238 65.8791C56.0883 65.0823 57.0029 64.4164 58.0246 63.9129C58.792 63.5277 59.6189 63.2504 60.4773 63.0903C61.0177 62.9911 61.5677 62.9418 62.119 62.9434L62.5506 62.966C62.6473 62.966 62.6944 62.9773 62.6944 62.9773H62.5481H62.119C61.5712 62.9876 61.0256 63.0452 60.4897 63.1491C59.6416 63.3186 58.8253 63.6003 58.0667 63.9853C57.0595 64.4917 56.1586 65.1566 55.4057 65.9492C54.4985 66.9123 53.8069 68.0279 53.3696 69.233C52.8699 70.6163 52.7373 72.0879 52.9827 73.527C53.0199 73.7146 53.0571 73.9044 53.0968 74.0965C53.1365 74.2886 53.1985 74.4739 53.2506 74.6638C53.3696 75.0412 53.5134 75.4163 53.6672 75.7938C53.9772 76.5509 54.3318 77.3102 54.6964 78.0786C55.4404 79.6177 56.239 81.1952 57.0995 82.7952C57.9849 84.4428 58.8802 86.0383 59.7829 87.5548C60.2375 88.3081 60.6897 89.0456 61.1394 89.7673C61.5908 90.4838 62.0372 91.1821 62.5282 91.8262L62.4266 91.8126C66.3078 88.9357 69.6037 86.4926 71.9374 84.766L74.6654 82.7636L75.392 82.237L75.5805 82.1037C75.6177 82.0607 75.64 82.0381 75.64 82.0494Z" fill="#263238"/>
<path d="M86.9066 91.6883C86.2494 88.7865 84.1191 88.0949 84.1191 88.0949L83.6231 91.6566L77.9191 89.53L73.47 83.7354L64.0981 90.7188C64.0981 90.7188 71.5678 97.7248 74.7075 98.0208C77.8472 98.3169 85.2549 98.0027 85.2549 98.0027C85.2549 98.0027 87.5613 94.5901 86.9066 91.6883Z" fill="#846457"/>
<path d="M51.6237 83.6201L45.8304 89.9165L33.4577 88.2848L33.48 88.1401L33.8619 84.5671C30.1717 85.0597 29.5963 87.6542 29.4302 89.4622C29.2466 91.4623 31.9498 93.3359 32.5128 93.702V93.7924C32.5128 93.7924 45.0318 99.9644 50.7061 98.2694C53.3398 97.483 59.7531 91.3471 59.7531 91.3471V88.3865L51.6237 83.6201Z" fill="#977264"/>
<path d="M50.0018 82.6957L59.7432 89.4508L60.269 88.6485C58.1992 85.2564 56.3267 81.7674 54.6592 78.196L50.0018 82.6957Z" fill="#455A64"/>
<path d="M37.6439 68.5572L39.0798 71.0183C39.3129 71.4184 39.6453 71.8749 40.1413 71.8658C40.5951 71.8658 40.9274 71.4251 40.9473 71.0116C40.9257 70.5973 40.7919 70.1943 40.5579 69.8386C40.0156 68.8397 39.4733 67.8415 38.931 66.8441L38.8393 66.5661C38.8393 66.5661 38.316 65.7503 37.6985 66.0305C37.1355 66.2882 36.9098 67.2984 37.6439 68.5572Z" fill="#977264"/>
<path d="M36.6222 70.5844C37.0983 71.404 37.5761 72.2244 38.0556 73.0455C38.2887 73.4455 38.5913 74.0354 39.0898 74.0263C39.3285 73.9985 39.5498 73.8974 39.717 73.7396C39.8843 73.5819 39.9875 73.3769 40.0098 73.1585C40.0297 72.7472 39.737 72.2364 39.5362 71.8658L37.9068 68.8713L37.815 68.5933C37.815 68.5933 37.2942 67.7774 36.6742 68.0599C36.1113 68.3153 35.8881 69.3256 36.6222 70.5844Z" fill="#977264"/>
<path d="M35.6574 72.6681L37.019 75.0004C37.2397 75.3801 37.5546 75.814 38.0258 75.8049C38.4549 75.8049 38.7698 75.3868 38.7897 74.9959C38.77 74.603 38.643 74.2208 38.4202 73.8839L36.8776 71.0431L36.7908 70.781C36.7908 70.781 36.2948 70.008 35.7095 70.2747C35.1738 70.512 34.968 71.4748 35.6574 72.6681Z" fill="#977264"/>
<path d="M34.7795 73.6919L35.7913 75.4276C35.9575 75.7101 36.1906 76.0332 36.5353 76.0265C36.694 76.0062 36.8391 75.934 36.9436 75.8234C37.0481 75.7128 37.1048 75.5713 37.1033 75.4253C37.089 75.1322 36.9943 74.8471 36.828 74.5959L35.6797 72.4805L35.6153 72.2839C35.6153 72.2839 35.2457 71.7076 34.8093 71.9065C34.4174 72.0941 34.2612 72.8015 34.7795 73.6919Z" fill="#977264"/>
<path d="M37.448 68.0825C37.5413 68.1975 37.6243 68.3192 37.696 68.4464C37.8547 68.7063 38.063 69.0475 38.311 69.4588C38.559 69.8702 38.874 70.4058 39.2063 70.9708C39.3452 71.2714 39.5737 71.5306 39.866 71.7188C40.0298 71.79 40.2174 71.8008 40.3897 71.7491C40.5621 71.6973 40.7058 71.5869 40.791 71.4409C40.8767 71.2872 40.926 71.119 40.9358 70.9469C40.9457 70.7748 40.9158 70.6028 40.8481 70.4419C40.7204 70.1308 40.5679 69.8287 40.3918 69.5379L39.5461 68.0011L38.9881 66.9615C38.9132 66.8366 38.8509 66.7058 38.8021 66.5706C38.8962 66.6858 38.9792 66.8083 39.0501 66.9367L39.6502 67.9559L40.5257 69.4769C40.7093 69.7754 40.8685 70.0859 41.0018 70.4058C41.0769 70.5852 41.1093 70.7771 41.0969 70.9688C41.0845 71.1605 41.0276 71.3476 40.9299 71.5177C40.8158 71.6897 40.6409 71.8212 40.4339 71.8906C40.3313 71.9239 40.2222 71.9371 40.1137 71.9293C40.0051 71.9215 39.8996 71.8929 39.804 71.8454C39.4844 71.644 39.2362 71.362 39.0898 71.0341L38.2242 69.5108L37.6464 68.478C37.5677 68.3517 37.5013 68.2194 37.448 68.0825Z" fill="#A36957"/>
<path d="M36.456 70.2543C36.5482 70.37 36.6311 70.4916 36.704 70.6182L37.319 71.6307L38.2143 73.1426C38.3532 73.4426 38.5807 73.7016 38.8715 73.8907C39.0357 73.9619 39.2237 73.9728 39.3964 73.9211C39.5692 73.8693 39.7134 73.7588 39.799 73.6127C39.8847 73.4591 39.934 73.2908 39.9438 73.1187C39.9537 72.9467 39.9238 72.7746 39.8561 72.6137C39.727 72.3028 39.5737 72.0007 39.3973 71.7097C39.0823 71.138 38.7971 70.6204 38.5541 70.1752L37.9961 69.1356C37.9212 69.0107 37.8589 68.8798 37.8101 68.7446C37.9046 68.8596 37.9876 68.9822 38.0581 69.1107C38.2143 69.3729 38.4177 69.7164 38.6607 70.13L39.5362 71.651C39.7204 71.9489 39.8788 72.2594 40.0098 72.5798C40.0809 72.7576 40.1103 72.947 40.0962 73.1358C40.0821 73.3246 40.0248 73.5086 39.928 73.676C39.8139 73.8479 39.639 73.9794 39.432 74.0488C39.3294 74.0821 39.2203 74.0953 39.1117 74.0875C39.0032 74.0797 38.8977 74.0512 38.8021 74.0037C38.4825 73.8022 38.2343 73.5203 38.0878 73.1923L37.2223 71.6691L36.6519 70.634C36.5737 70.5133 36.5081 70.3862 36.456 70.2543Z" fill="#A36957"/>
<path d="M35.3078 71.8681C35.4054 71.9828 35.4886 72.1071 35.5558 72.2387C35.6996 72.4828 35.893 72.8421 36.1237 73.2896C36.3543 73.7371 36.6197 74.2727 36.947 74.849C37.0862 75.1545 37.3049 75.4245 37.5844 75.6355C37.6564 75.6796 37.7376 75.7098 37.8229 75.7241C37.9082 75.7385 37.9958 75.7368 38.0804 75.7191C38.2608 75.6727 38.4183 75.5714 38.5268 75.4321C38.6231 75.2826 38.6821 75.1156 38.6997 74.943C38.7173 74.7703 38.693 74.5963 38.6285 74.4332C38.5065 74.1145 38.3547 73.806 38.1746 73.5111C37.8547 72.9348 37.567 72.4105 37.319 71.9607L36.7561 70.9098C36.6828 70.7831 36.6198 70.6517 36.5676 70.5166C36.6626 70.6321 36.7456 70.7554 36.8156 70.885C36.9718 71.1517 37.1752 71.4974 37.4232 71.9155C37.6712 72.3336 37.9762 72.8806 38.3061 73.4523C38.4943 73.7531 38.6528 74.0685 38.7798 74.3948C38.8518 74.5778 38.8783 74.7731 38.8573 74.9666C38.8363 75.1601 38.7683 75.3469 38.6582 75.5135C38.5275 75.6799 38.3386 75.8011 38.1226 75.857C38.0156 75.8804 37.9045 75.883 37.7964 75.8647C37.6883 75.8464 37.5857 75.8076 37.4951 75.7508C37.1938 75.5267 36.9585 75.2378 36.8106 74.91C36.4858 74.3247 36.2328 73.78 36.0146 73.328L35.4962 72.2591C35.4236 72.1329 35.3606 72.0022 35.3078 71.8681Z" fill="#A36957"/>
</svg>
