<svg width="85" height="300" viewBox="0 0 85 300" fill="none" xmlns="http://www.w3.org/2000/svg">
<path d="M36.5845 57.2385C35.3003 62.9999 33.8766 68.7161 32.3132 74.3872C30.7313 80.0969 29.14 85.6905 27.2231 91.4874C26.9904 92.1745 26.6926 93.0358 26.3856 93.8294C26.0785 94.6229 25.7342 95.4165 25.4085 96.1036C24.7571 97.5456 24.0778 98.8811 23.3892 100.217C22.0119 102.888 20.5975 105.481 19.1458 108.046C16.2518 113.184 13.2182 118.197 10.0449 123.162L4.97339 120.481C7.13229 115.043 9.30049 109.43 11.4873 104.03C12.5761 101.329 13.6741 98.6488 14.7071 95.9778C15.2282 94.652 15.7307 93.3165 16.1773 92.039C16.4193 91.381 16.5775 90.81 16.7729 90.21C16.9683 89.61 17.0707 89.068 17.2289 88.3519L21.0255 71.3291C22.3097 65.6096 23.6963 59.8999 25.1758 54.2385L36.5845 57.2385Z" fill="#785651"/>
<path d="M9.82185 121.827L5.09459 120.201C3.31423 124.477 2.06347 128.971 1.37236 133.575C0.944302 136.575 4.85264 140.92 4.85264 140.92C4.85264 140.92 5.78322 144.791 6.88128 143.911C7.97934 143.03 6.52766 137.64 6.66724 136.498C7.08599 132.946 7.47683 129.346 7.85836 128.94C8.23988 128.533 7.30933 133.382 8.52836 134.746C9.74739 136.111 9.83114 129.82 10.7617 127.875C11.6923 125.93 10.9106 122.281 9.82185 121.827Z" fill="#785651"/>
<path opacity="0.2" d="M4.49875 140.359C3.66044 138.084 3.44777 135.611 3.88457 133.217C3.88457 133.023 4.21955 133.043 4.18233 133.217C3.75174 135.562 3.95799 137.984 4.7779 140.214C4.84304 140.398 4.58248 140.524 4.50803 140.34L4.49875 140.359Z" fill="black"/>
<path opacity="0.2" d="M3.02852 134.349C2.86113 135.57 2.96297 136.814 3.32631 137.988C3.38214 138.172 3.09367 138.22 3.03784 138.036C2.66677 136.838 2.56176 135.567 2.73074 134.32C2.73074 134.127 3.05644 134.156 3.02852 134.32V134.349Z" fill="black"/>
<path d="M30.0519 22.38C30.3404 21.8768 26.4506 16.1089 32.3504 11.996C33.1652 9.7686 34.7519 7.93894 36.7984 6.86688C37.7577 6.46243 38.787 6.2691 39.8217 6.29908C40.8563 6.32906 41.8738 6.5817 42.8098 7.04107C42.8098 7.04107 44.0847 3.30553 49.5378 4.02167C51.0041 4.1457 52.3776 4.81788 53.404 5.91386C54.4305 7.00983 55.0405 8.45539 55.1211 9.98304C55.1211 9.98304 59.7739 11.9863 59.7739 17.0477C59.7564 18.0088 59.5375 18.9544 59.1325 19.8185C58.7275 20.6826 58.1461 21.4445 57.4289 22.0509C57.4289 22.0509 59.6344 26.793 58.1175 29.493C57.7072 30.162 57.1693 30.7365 56.5371 31.1809C55.9049 31.6254 55.1918 31.9303 54.4418 32.0769C54.4418 32.0769 54.3395 35.7834 50.9057 36.4995C47.472 37.2157 42.1585 31.0898 42.1585 31.0898L30.0519 22.38Z" fill="#263238"/>
<path d="M54.9165 8.90881C54.9165 8.90881 51.5664 6.17972 54.2371 3.93453C54.2371 3.93453 53.8463 0.557064 56.852 0.0635085C59.8577 -0.430047 60.4067 2.11516 60.4067 2.11516C60.4067 2.11516 61.1512 -0.788103 65.1898 0.22804C69.2285 1.24418 67.4697 6.42167 67.4697 6.42167C68.1994 6.86739 68.7584 7.56193 69.0518 8.38744C69.3453 9.21295 69.3551 10.1186 69.0796 10.9508C68.8238 11.7452 68.3006 12.4169 67.6064 12.8419C66.9121 13.2669 66.0936 13.4167 65.3015 13.2637C65.3015 13.2637 66.2321 16.3412 63.8498 16.9315C63.1719 17.1124 62.4659 17.1499 61.7738 17.0418C61.0817 16.9338 60.4175 16.6824 59.8205 16.3025L54.9165 8.90881Z" fill="#263238"/>
<path d="M55.1214 10.1959C56.3128 10.751 57.3579 11.5968 58.1679 12.6615C58.9779 13.7263 59.5289 14.9786 59.7742 16.3122C59.7742 16.3122 61.2072 14.3766 59.5881 11.5314C57.6339 8.15397 54.8701 8.90883 54.8701 8.90883L55.1214 10.1959Z" fill="#C53F3F"/>
<path d="M39.5436 45.8093L39.4134 46.0706C37.8873 53.2224 47.2208 51.4127 51.0175 45.2093C48.4956 41.7254 48.0024 35.6479 48.5887 31.2543L40.9767 37.7963L39.4971 39.2673C39.8404 40.3495 40.0591 41.4703 40.1485 42.6061C40.2605 43.7128 40.0498 44.8289 39.5436 45.8093Z" fill="#785651"/>
<g opacity="0.2">
<path d="M40.1392 42.606C40.0498 41.4702 39.8311 40.3495 39.4878 39.2673L40.9674 37.7963L44.913 37.6995C44.913 37.6995 43.0612 41.6576 40.1392 42.606Z" fill="black"/>
</g>
<path d="M51.4548 23.0381C50.4126 30.9737 50.0776 33.006 45.9832 36.7996C39.8229 42.5093 30.9174 40.8061 29.6984 32.706C28.6003 25.4091 30.4893 13.6508 38.0734 11.0573C45.6575 8.46367 52.4971 15.1025 51.4548 23.0381Z" fill="#785651"/>
<path d="M36.1845 32.5704C35.742 32.5845 35.3025 32.4917 34.9003 32.2995C34.8528 32.2693 34.8185 32.2212 34.8046 32.1652C34.7907 32.1092 34.7984 32.0497 34.8259 31.9995C34.8392 31.9751 34.8572 31.954 34.8788 31.9372C34.9003 31.9205 34.925 31.9086 34.9512 31.9022C34.9774 31.8958 35.0046 31.8952 35.0311 31.9003C35.0575 31.9054 35.0827 31.9161 35.105 31.9317C35.8589 32.2196 36.6892 32.2024 37.4314 31.8833C37.8209 31.6924 38.158 31.4026 38.4117 31.0407C38.6654 30.6788 38.8275 30.2564 38.8831 29.8123C38.8873 29.7837 38.897 29.7563 38.9117 29.7317C38.9265 29.7071 38.9459 29.6859 38.9687 29.6694C38.9916 29.6529 39.0175 29.6414 39.0447 29.6356C39.072 29.6299 39.1002 29.63 39.1274 29.6359C39.1547 29.6418 39.1805 29.6535 39.2033 29.6701C39.226 29.6868 39.2453 29.7081 39.2599 29.7328C39.2745 29.7575 39.2841 29.785 39.2881 29.8136C39.2921 29.8423 39.2904 29.8715 39.2832 29.8994C39.2148 30.4094 39.025 30.8934 38.7308 31.3075C38.4366 31.7216 38.0475 32.0526 37.5989 32.2704C37.152 32.4697 36.6707 32.5718 36.1845 32.5704Z" fill="#263238"/>
<path d="M48.0582 18.7992C48.0582 18.7992 45.6109 22.5348 46.56 25.9897C47.5092 29.4446 52.2644 25.9897 52.2644 25.9897C52.2644 25.9897 56.1634 17.3089 48.0582 18.7992Z" fill="#263238"/>
<path d="M31.7642 14.9476C31.7642 14.9476 32.1922 16.3605 34.4628 15.2669C35.2405 14.9156 35.9525 14.4241 36.5658 13.8153C36.8176 14.1482 37.1548 14.4003 37.5384 14.5425C37.9221 14.6846 38.3366 14.711 38.734 14.6185C39.46 14.4392 40.1296 14.0694 40.6789 13.5443C40.6789 13.5443 41.2466 16.3315 42.7541 16.3121C43.5612 16.3239 44.3641 16.1897 45.127 15.9153C45.127 15.9153 43.9452 17.967 45.6481 19.0702C46.0469 19.3938 46.5163 19.6099 47.0146 19.6993C47.513 19.7888 48.0249 19.7489 48.5049 19.5831C48.5049 19.5831 49.1656 22.4864 51.4455 23.038C53.7253 23.5896 52.953 16.6411 52.953 16.6411C52.953 16.6411 41.0697 2.1248 31.7642 14.9476Z" fill="#263238"/>
<path d="M40.6884 24.1316C40.6884 24.78 40.2696 25.2832 39.8602 25.2445C39.4507 25.2058 39.1623 24.6639 39.2088 24.0155C39.2553 23.3671 39.6182 22.8639 40.0277 22.8929C40.4371 22.9219 40.7349 23.4832 40.6884 24.1316Z" fill="#263238"/>
<path d="M34.1649 23.7929C34.1184 24.4413 33.7462 24.9445 33.3367 24.9058C32.9273 24.8671 32.6388 24.3251 32.6853 23.6767C32.7319 23.0283 33.0948 22.5251 33.5042 22.5541C33.9137 22.5832 34.2115 23.1445 34.1649 23.7929Z" fill="#263238"/>
<path d="M33.6812 22.6122L32.2202 22.0413C32.2202 22.0413 32.8995 23.3187 33.6812 22.6122Z" fill="#263238"/>
<path d="M35.4862 24.0832C35.4862 24.0832 34.2858 25.7187 33.0109 27.1219C32.9107 27.2271 32.835 27.3548 32.7897 27.4951C32.7443 27.6355 32.7305 27.7848 32.7494 27.9316C32.7683 28.0784 32.8193 28.2187 32.8985 28.3417C32.9778 28.4648 33.0831 28.5673 33.2064 28.6413C33.7962 28.9899 34.4201 29.2721 35.0675 29.4833L35.4862 24.0832Z" fill="#604541"/>
<path d="M41.1816 22.6993C41.1355 22.6798 41.0936 22.651 41.0585 22.6144C41.0233 22.5778 40.9956 22.5343 40.9768 22.4864C40.8196 22.0357 40.5624 21.63 40.2261 21.3021C39.8898 20.9742 39.4839 20.7334 39.0413 20.5993C38.9465 20.5761 38.8637 20.5161 38.8101 20.4315C38.7565 20.3469 38.736 20.2442 38.7528 20.1444C38.773 20.0466 38.8289 19.9607 38.9087 19.9047C38.9885 19.8488 39.0861 19.8272 39.1809 19.8444C39.7462 20.0031 40.2668 20.3002 40.6991 20.7111C41.1314 21.1219 41.4628 21.6344 41.6655 22.2057C41.6833 22.2527 41.6919 22.3029 41.6907 22.3534C41.6896 22.4038 41.6787 22.4535 41.6587 22.4996C41.6388 22.5456 41.6102 22.587 41.5745 22.6213C41.5389 22.6556 41.4971 22.6821 41.4514 22.6993C41.4088 22.7182 41.3629 22.7279 41.3165 22.7279C41.2701 22.7279 41.2242 22.7182 41.1816 22.6993Z" fill="#263238"/>
<path d="M30.8336 20.6477C30.7382 20.6328 30.6518 20.581 30.5917 20.5025C30.5616 20.4638 30.5392 20.4193 30.5257 20.3715C30.5122 20.3238 30.5079 20.2737 30.5131 20.2243C30.5183 20.1748 30.5329 20.1269 30.5559 20.0833C30.579 20.0397 30.6101 20.0013 30.6475 19.9702C31.0961 19.5815 31.6264 19.3081 32.1954 19.1719C32.7644 19.0357 33.3562 19.0407 33.9231 19.1864C34.0149 19.2194 34.0907 19.2886 34.1342 19.379C34.1776 19.4694 34.1854 19.574 34.1557 19.6702C34.1238 19.7661 34.0578 19.8456 33.9713 19.8924C33.8847 19.9391 33.7842 19.9497 33.6905 19.9218C33.2431 19.8039 32.775 19.8004 32.3261 19.9116C31.8772 20.0228 31.4609 20.2455 31.1128 20.5606C31.0336 20.6251 30.9339 20.6562 30.8336 20.6477Z" fill="#263238"/>
<path d="M40.2044 22.9509L38.7434 22.3799C38.7434 22.3799 39.4227 23.6574 40.2044 22.9509Z" fill="#263238"/>
<path d="M53.7811 28.7768C53.4504 29.4187 52.9923 29.9801 52.4373 30.4239C51.8822 30.8676 51.2428 31.1837 50.5613 31.3511C48.8212 31.7091 48.114 29.7059 48.7002 27.7704C49.2679 26.0284 50.8405 23.7348 52.5248 24.2574C54.2091 24.78 54.6651 27.0929 53.7532 28.7768" fill="#785651"/>
<path d="M50.2173 32.1543C50.4193 32.3041 50.6595 32.3884 50.9075 32.3965C51.1555 32.4046 51.4002 32.3362 51.6109 32.1998C51.8215 32.0634 51.9886 31.8652 52.0911 31.6302C52.1935 31.3952 52.2268 31.1339 52.1866 30.8793C52.1464 30.6246 52.0347 30.3881 51.8654 30.1994C51.6961 30.0107 51.4769 29.8784 51.2354 29.8192C50.9939 29.7599 50.741 29.7763 50.5085 29.8664C50.2759 29.9565 50.0743 30.1161 49.9289 30.3252C49.7353 30.608 49.657 30.9589 49.711 31.3015C49.7651 31.6441 49.947 31.9506 50.2173 32.1543Z" fill="white"/>
<path d="M72.4017 112.149C72.4017 118.846 44.9968 134.63 39.767 133.546C34.5373 132.462 18.1687 122.523 20.2253 111.578C20.7172 109.558 21.3998 107.594 22.2632 105.713C24.1243 101.417 26.7392 96.2391 28.6561 92.6003C30.0985 89.8713 31.1314 88.0132 31.1314 88.0132C31.0384 86.368 30.8802 84.7809 30.6754 83.2325C30.5917 82.5744 30.508 81.926 30.4056 81.297C27.3906 80.3292 22.654 77.7743 24.7757 70.6516C25.471 68.307 25.9111 65.8886 26.0878 63.4419C25.5423 61.5771 25.1531 59.6667 24.9246 57.7321C24.7271 56.36 24.8812 54.958 25.3713 53.6675C27.6511 48.8868 40.6697 45.1416 40.6697 45.1416C45.3969 44.619 71.1362 45.1416 69.5728 53.5514C69.5728 53.7643 69.4891 53.9869 69.4425 54.2288C68.2142 60.1902 63.7568 74.6969 61.5793 81.6647L60.3603 85.5357C59.681 87.4712 60.9745 89.4067 62.9193 91.7971C65.1899 94.5552 68.3631 97.8843 70.3638 102.53C71.7084 105.543 72.4039 108.826 72.4017 112.149Z" fill="#785651"/>
<path d="M71.071 104.165C71.071 104.165 77.5849 119.407 71.8061 167.979C66.4182 213.008 63.4032 289.248 63.4032 289.248H56.2007C55.4376 281.051 46.2344 218.873 50.273 199.015C44.5873 189.502 38.8271 133.207 44.5873 124.759C52.3202 113.368 71.071 104.165 71.071 104.165Z" fill="#785651"/>
<path d="M56.1169 288.697C56.1169 288.697 56.1169 294.426 55.7354 295.606C55.465 296.321 55.362 297.092 55.4348 297.856C55.5076 298.62 55.7542 299.355 56.1541 300H68.9865C68.9865 300 69.6751 298.703 67.8698 296.942C66.0646 295.181 63.6079 292.703 63.4404 291.203C63.3293 289.298 63.348 287.386 63.4962 285.484L56.1169 288.697Z" fill="#785651"/>
<path d="M20.7278 109.759C20.7278 109.759 -2.68507 178.663 0.255493 197.582C3.19606 216.502 33.6253 289.248 33.6253 289.248L41.0698 288.919C41.0698 288.919 34.1557 241.78 30.8336 227.747C26.7578 210.376 22.3749 197.331 22.3749 197.331C36.3333 172.856 45.3411 139.662 40.6324 127.449L20.7278 109.759Z" fill="#785651"/>
<path d="M33.1137 288.155C33.1137 288.155 34.3978 292.742 30.1545 294.377C27.7629 295.345 21.6306 297.552 20.3929 298.016C19.1553 298.481 18.9599 299.342 19.5833 299.797C20.2068 300.252 42.5868 299.797 42.5868 299.797C42.5868 299.797 43.9919 298.374 42.9404 295.723C42.1123 293.272 41.4439 290.766 40.9396 288.222L33.1137 288.155Z" fill="#785651"/>
<path d="M67.7767 60.9063C66.2692 66.2193 63.8311 74.3678 62.3143 79.2937C62.0351 80.1744 61.8025 80.9486 61.5978 81.5969C55.9679 82.4195 39.5622 84.6067 30.6939 83.1938C30.6102 82.5357 30.5264 81.8873 30.4241 81.2582C27.4091 80.2905 22.6725 77.7356 24.7942 70.6129C25.5573 68.0581 25.5666 63.6838 25.7248 61.9031C33.8578 63.8096 49.361 64.6419 67.7767 60.9063Z" fill="#C53F3F"/>
<path opacity="0.3" d="M62.3146 79.3324C62.0354 80.2131 61.8028 80.9873 61.598 81.6357C55.9682 82.4583 39.5624 84.6454 30.6942 83.2325C30.6104 82.5744 30.5267 81.926 30.4243 81.2969C33.2718 82.0131 52.9345 82.0131 62.3146 79.3324Z" fill="black"/>
<path d="M28.1724 62.4354C30.9879 58.4124 32.3099 53.4664 31.8946 48.5094L33.2253 47.89C33.2253 47.89 30.2568 60.9644 35.1795 63.2677C35.1609 63.2677 32.2296 66.2774 28.1724 62.4354Z" fill="#C53F3F"/>
<path d="M58.1641 62.174C58.1641 62.174 54.7211 56.0482 56.5822 45.819C56.1582 45.6024 55.6773 45.5377 55.2143 45.6351C55.2143 45.6351 55.9773 60.4611 50.822 63.0547C50.822 63.0354 53.716 66.2386 58.1641 62.174Z" fill="#C53F3F"/>
<path d="M70.4102 102.471C65.8784 105.375 58.4525 110.562 52.3388 117.046C47.3138 122.368 42.9588 134.92 42.1678 134.92C41.3768 134.92 41.079 132.646 38.7898 127.817C36.5007 122.988 32.9925 117.026 28.1722 112.497C25.925 110.525 23.9437 108.246 22.2817 105.723C23.5659 102.713 25.2502 99.2681 26.8043 96.2197C27.465 94.9229 28.0977 93.6939 28.6654 92.61C30.3497 95.5132 36.1099 104.533 43.5543 104.175C50.3102 103.855 59.1691 95.6294 62.9658 91.768C63.6916 92.6487 64.5012 93.5874 65.348 94.6036C67.3855 96.9634 69.09 99.6125 70.4102 102.471Z" fill="#C53F3F"/>
<path opacity="0.3" d="M65.3203 94.5939C61.4305 98.9585 49.2123 111.297 40.2975 108.626C32.5925 106.323 28.5911 99.1327 26.8044 96.21C27.4651 94.9133 28.0979 93.6842 28.6656 92.6003C30.3499 95.5036 36.11 104.523 43.5545 104.165C50.3104 103.846 59.1693 95.6197 62.9659 91.7584C63.6639 92.639 64.4734 93.5778 65.3203 94.5939Z" fill="black"/>
<path d="M69.5078 51.7804C71.918 57.2482 74.1048 62.7354 76.1241 68.3677C77.1105 71.1839 78.1155 74.0097 79.0088 76.913C79.4555 78.3549 79.9394 79.8162 80.3209 81.3163C80.7024 82.8163 81.1212 84.326 81.4655 86.0389C81.5493 86.4551 81.633 86.9196 81.7075 87.4131C81.7075 87.626 81.7819 87.9357 81.8098 88.2164L81.8563 88.6519V88.9712C81.8563 89.7841 81.9401 90.5777 81.9587 91.3325C81.9587 92.8713 82.0145 94.3616 82.0239 95.8616C82.0239 98.8617 82.0239 101.842 82.0239 104.813C81.9494 110.762 81.7633 116.71 81.4655 122.659L75.6588 122.891C74.902 117.02 74.2289 111.136 73.6395 105.239L72.709 96.452C72.5508 94.9907 72.3832 93.5487 72.2064 92.1164C72.1227 91.4003 72.0389 90.7229 71.9459 90.0551C71.9459 89.9874 71.9459 89.8712 71.9459 89.8325V89.7067L71.8715 89.4261C71.8063 89.1841 71.7412 88.9325 71.6388 88.6325C71.2852 87.4712 70.8013 86.1551 70.3174 84.8583C69.8335 83.5615 69.3124 82.2163 68.7727 80.8905C67.6932 78.2388 66.6045 75.5485 65.4785 72.8678C63.2545 67.5161 61.0118 62.087 58.8809 56.6966L69.5078 51.7804Z" fill="#785651"/>
<path d="M76.431 121.827L81.149 120.172C82.9624 124.436 84.2445 128.924 84.9643 133.527C85.4109 136.527 81.5212 140.901 81.5212 140.901C81.5212 140.901 80.6465 144.772 79.5205 143.891C78.3945 143.011 79.8276 137.62 79.688 136.478C79.2506 132.927 78.8319 129.336 78.4597 128.93C78.0874 128.523 79.0273 133.372 77.8176 134.736C76.6078 136.101 76.4776 129.82 75.547 127.885C74.6164 125.949 75.3516 122.31 76.431 121.827Z" fill="#785651"/>
<path opacity="0.2" d="M81.8656 140.349C82.6867 138.069 82.8863 135.598 82.4426 133.207C82.4426 133.014 82.1076 133.033 82.1448 133.207C82.5843 135.548 82.3943 137.969 81.5958 140.204C81.5306 140.388 81.8005 140.514 81.8656 140.33V140.349Z" fill="black"/>
<path opacity="0.2" d="M83.2987 134.33C83.4754 135.548 83.3831 136.793 83.0288 137.969C82.9637 138.153 83.2614 138.211 83.3173 138.017C83.6793 136.816 83.7748 135.546 83.5965 134.301C83.5965 134.107 83.2707 134.136 83.2987 134.301V134.33Z" fill="black"/>
</svg>
