<svg width="111" height="320" viewBox="0 0 111 320" fill="none" xmlns="http://www.w3.org/2000/svg">
<path d="M105.343 138.557C104.518 138.85 103.615 138.837 102.799 138.522C101.983 138.206 101.306 137.609 100.893 136.837C99.1527 133.617 97.5427 130.387 95.8927 127.127C94.2427 123.867 92.6927 120.597 91.1627 117.287C90.8627 116.637 90.5527 115.977 90.2627 115.287C89.0427 112.617 87.8627 109.927 86.7227 107.197C85.2281 103.707 83.9228 100.138 82.8127 96.5072C82.7127 96.1672 82.6227 95.8272 82.5327 95.5072C82.3527 94.8272 82.2027 94.1272 82.0527 93.5072L81.3327 90.9072L79.9027 85.6972C78.9827 82.2172 78.0427 78.6972 77.2027 75.2472C75.4627 68.2472 73.8927 61.2472 72.6027 54.2472C72.2428 52.3435 72.6449 50.3745 73.7225 48.7644C74.8 47.1542 76.4668 46.0316 78.3639 45.6383C80.261 45.245 82.2367 45.6124 83.8655 46.6615C85.4944 47.7105 86.6461 49.3573 87.0727 51.2472C88.7127 58.3072 90.0727 65.4272 91.2527 72.5672C91.8827 76.1372 92.4027 79.7272 92.9527 83.3072L93.7227 88.6872L94.0927 91.3772C94.1927 92.2272 94.2927 92.8772 94.4427 93.6472C95.0727 96.7372 96.1327 100.147 97.1427 103.497C98.1527 106.847 99.3427 110.237 100.473 113.627L103.983 123.787L107.573 133.927C107.884 134.837 107.824 135.833 107.407 136.699C106.99 137.566 106.248 138.233 105.343 138.557Z" fill="#694B47"/>
<path d="M102.303 135.197L107.763 134.707C109.321 139.125 110.25 143.74 110.523 148.417C110.723 151.637 106.023 155.857 106.023 155.857C106.023 155.857 104.683 159.857 103.523 158.857C102.363 157.857 104.523 152.257 104.443 151.037C104.313 147.237 104.203 143.397 103.833 142.927C103.463 142.457 104.023 147.687 102.553 149.047C101.083 150.407 101.553 143.717 100.733 141.577C99.9127 139.437 101.063 135.587 102.303 135.197Z" fill="#694B47"/>
<path opacity="0.2" d="M106.443 155.267C107.572 152.942 108.036 150.35 107.783 147.777C107.783 147.567 107.433 147.567 107.453 147.777C107.71 150.29 107.264 152.824 106.163 155.097C106.073 155.287 106.353 155.457 106.443 155.267Z" fill="black"/>
<path opacity="0.2" d="M108.613 149.097C108.686 150.401 108.46 151.704 107.953 152.907C107.873 153.097 108.193 153.187 108.273 152.987C108.788 151.758 109.017 150.428 108.943 149.097C108.943 148.887 108.603 148.887 108.613 149.097Z" fill="black"/>
<path d="M41.6227 56.6372L27.7527 74.6972C25.4627 77.6972 23.1527 80.6972 20.9427 83.6972C18.7327 86.6972 16.5127 89.6972 14.6627 92.6972C14.2127 93.4272 13.7627 94.1372 13.4127 94.7772C13.2427 95.0872 13.0527 95.4072 12.9627 95.6172L12.8327 95.8672C12.8327 95.8672 12.7827 95.9672 12.8327 95.6672C12.9427 94.8272 12.8327 94.7472 12.8327 94.7872C12.8281 94.9705 12.8551 95.1532 12.9127 95.3272C13.0968 96.0089 13.3273 96.6771 13.6027 97.3272C15.0306 100.591 16.6639 103.76 18.4927 106.817C20.3627 110.037 22.3327 113.267 24.3527 116.477C26.3727 119.687 28.4327 122.917 30.4527 126.107L24.7627 130.707C19.2726 125.102 14.117 119.178 9.32274 112.967C8.11274 111.387 6.93274 109.777 5.78274 108.087C4.63274 106.397 3.51275 104.657 2.44275 102.687C1.8593 101.616 1.34816 100.507 0.912748 99.3672C0.634524 98.639 0.413844 97.89 0.252744 97.1272C-0.0326864 95.9008 -0.0768444 94.6305 0.122739 93.3872C0.167501 93.0869 0.23096 92.7896 0.312741 92.4972L0.492734 91.8472C0.622734 91.3572 0.742745 91.0872 0.862745 90.7472C1.11274 90.0572 1.35274 89.5172 1.59274 88.9572C2.08274 87.8772 2.59274 86.9072 3.07274 85.9572C5.07274 82.2472 7.16274 78.9072 9.32274 75.6072C11.4827 72.3072 13.6827 69.0872 15.9527 65.9272C20.4727 59.5772 25.1427 53.4572 30.0827 47.4072L41.6227 56.6372Z" fill="#694B47"/>
<path opacity="0.2" d="M90.2827 115.317C89.0627 112.647 87.8827 109.957 86.7427 107.227C85.2403 103.727 83.9284 100.149 82.8127 96.5072C82.7127 96.1672 82.6227 95.8272 82.5327 95.5072L85.2127 62.2672L90.2827 115.317Z" fill="black"/>
<path d="M87.8127 307.647L79.5427 307.717C78.5427 281.327 66.5427 244.387 66.6227 206.807C65.9561 204.087 65.2894 201.421 64.6227 198.807C63.2727 193.127 62.0527 187.727 60.9727 182.657C53.8627 149.527 52.0927 129.767 52.0927 129.767H88.0927C88.0927 129.767 93.1727 173.967 91.6027 207.267C93.8727 231.267 90.8127 279.067 87.8127 307.647Z" fill="#694B47"/>
<path opacity="0.2" d="M64.7027 198.837C63.3527 193.157 62.1327 187.757 61.0527 182.687L65.5127 137.777C65.5127 137.777 71.2127 172.267 64.7027 198.837Z" fill="black"/>
<path opacity="0.2" d="M67.8127 165.967C66.6327 165.857 65.4627 165.717 64.2927 165.547C64.2927 165.547 63.7327 165.697 62.7327 165.917L65.5327 137.767C66.9296 147.105 67.6914 156.526 67.8127 165.967Z" fill="black"/>
<path d="M37.2127 309.177L44.5827 310.837C46.2027 284.007 58.0327 231.267 59.3327 207.267C65.7727 173.967 67.1327 129.767 67.1327 129.767L27.2227 137.837C27.2227 137.837 26.8227 159.587 31.7427 207.027C26.1827 244.627 34.5327 284.527 37.2127 309.177Z" fill="#694B47"/>
<path d="M87.8127 307.647C87.6659 309.024 87.9959 310.41 88.7475 311.573C89.4992 312.736 90.627 313.606 91.9428 314.037C94.6128 315.037 101.463 317.297 102.853 317.767C104.243 318.237 104.573 319.127 103.993 319.597C103.413 320.067 79.6427 319.597 79.6427 319.597C79.1123 319.057 78.7389 318.382 78.5627 317.646C78.3866 316.91 78.4142 316.139 78.6427 315.417C79.1345 312.876 79.4453 310.303 79.5727 307.717L87.8127 307.647Z" fill="#694B47"/>
<path d="M37.2227 308.197C37.2227 308.197 37.2227 314.037 36.8227 315.197C36.5336 315.923 36.4226 316.708 36.4992 317.486C36.5757 318.263 36.8375 319.012 37.2627 319.667H50.8627C50.8627 319.667 51.6027 318.347 49.6827 316.557C47.7627 314.767 45.1727 312.247 44.9927 310.717C44.8733 308.778 44.8934 306.833 45.0527 304.897L37.2227 308.197Z" fill="#694B47"/>
<path d="M87.8127 125.407C55.1727 136.407 27.2227 128.537 27.2227 128.537C27.2227 128.537 27.8827 100.327 28.0427 78.7872V78.7072C28.0427 77.1672 28.0427 75.7072 28.0427 74.2272C28.0427 72.7472 28.0427 71.5672 28.0427 70.3172C28.0427 63.4172 27.9727 58.0372 27.7627 55.8072C26.8827 46.6172 34.0627 43.2472 39.7627 42.7272C45.4627 42.2072 56.4727 41.3472 56.4727 41.3472C56.4727 41.3472 74.4727 41.0372 79.5527 42.7272C84.6328 44.4172 87.6127 49.2472 86.3327 58.0472C85.0527 66.8472 87.8127 125.407 87.8127 125.407Z" fill="#694B47"/>
<g opacity="0.2">
<path d="M48.4627 70.9272C48.4627 71.0696 48.4205 71.2088 48.3414 71.3272C48.2623 71.4456 48.1498 71.5379 48.0183 71.5924C47.8867 71.6469 47.7419 71.6612 47.6023 71.6334C47.4626 71.6056 47.3343 71.537 47.2336 71.4363C47.1329 71.3356 47.0644 71.2073 47.0366 71.0677C47.0088 70.928 47.023 70.7832 47.0775 70.6517C47.132 70.5201 47.2243 70.4077 47.3427 70.3286C47.4611 70.2494 47.6003 70.2072 47.7427 70.2072C47.9329 70.2098 48.1145 70.2865 48.249 70.421C48.3835 70.5554 48.4601 70.7371 48.4627 70.9272Z" fill="black"/>
</g>
<g opacity="0.2">
<path d="M72.8127 70.0272C72.8127 70.1696 72.7705 70.3088 72.6914 70.4272C72.6123 70.5456 72.4998 70.6379 72.3683 70.6924C72.2367 70.7469 72.0919 70.7612 71.9523 70.7334C71.8126 70.7056 71.6843 70.637 71.5836 70.5363C71.4829 70.4357 71.4144 70.3074 71.3866 70.1677C71.3588 70.028 71.3731 69.8833 71.4275 69.7517C71.482 69.6201 71.5743 69.5077 71.6927 69.4286C71.8111 69.3495 71.9503 69.3072 72.0927 69.3072C72.2837 69.3072 72.4668 69.3831 72.6019 69.5181C72.7369 69.6531 72.8127 69.8363 72.8127 70.0272Z" fill="black"/>
</g>
<g opacity="0.2">
<path d="M60.6727 114.417C60.6727 115.107 60.3927 115.667 60.0427 115.667C59.6927 115.667 59.4027 115.107 59.4027 114.417C59.4027 113.727 59.6827 113.177 60.0427 113.177C60.4027 113.177 60.6727 113.737 60.6727 114.417Z" fill="black"/>
</g>
<g opacity="0.2">
<path d="M59.2827 52.6872C57.5127 52.6872 56.4927 50.9972 56.2127 50.4772L47.9027 50.5772C47.8364 50.5772 47.7729 50.5509 47.726 50.504C47.6791 50.4571 47.6527 50.3935 47.6527 50.3272C47.6527 50.2636 47.678 50.2025 47.723 50.1575C47.768 50.1125 47.8291 50.0872 47.8927 50.0872L56.3627 49.9772C56.4107 49.9804 56.4571 49.9958 56.4974 50.0221C56.5377 50.0484 56.5705 50.0846 56.5927 50.1272C56.6427 50.2472 57.8627 52.9272 60.2627 51.9972C60.3199 51.9881 60.3784 51.9991 60.4283 52.0284C60.4782 52.0576 60.5165 52.1032 60.5365 52.1575C60.5566 52.2117 60.5572 52.2713 60.5383 52.3259C60.5193 52.3806 60.482 52.427 60.4327 52.4572C60.067 52.6045 59.677 52.6825 59.2827 52.6872Z" fill="black"/>
</g>
<g opacity="0.2">
<path d="M62.1328 50.4772C62.0664 50.4772 62.0028 50.4509 61.956 50.404C61.9091 50.3571 61.8828 50.2935 61.8828 50.2272C61.8828 50.1609 61.9091 50.0973 61.956 50.0504C62.0028 50.0036 62.0664 49.9772 62.1328 49.9772L70.2027 49.7172C70.2593 49.7287 70.3101 49.7594 70.3466 49.804C70.3831 49.8487 70.403 49.9046 70.403 49.9622C70.403 50.0199 70.3831 50.0758 70.3466 50.1204C70.3101 50.1651 70.2593 50.1958 70.2027 50.2072L62.1427 50.4772H62.1328Z" fill="black"/>
</g>
<path d="M58.6827 0.637215C58.6827 0.637215 68.8528 -1.14278 71.9128 1.24722C74.7928 3.47722 71.5927 5.12722 71.5927 5.12722C71.5927 5.12722 76.2727 6.91723 76.1927 9.58723C76.1127 12.2572 72.9128 11.3772 72.9128 11.3772C72.9128 11.3772 78.2427 14.5972 75.6127 16.9172C72.9827 19.2372 70.3527 15.3572 70.3527 15.3572L58.6827 0.637215Z" fill="#263238"/>
<path d="M60.4327 0.75725C58.3987 0.484837 56.3303 0.63271 54.3557 1.19173C52.3811 1.75075 50.5422 2.70902 48.9527 4.00725C46.8827 5.74725 45.2527 8.06724 45.9527 10.8572C47.5127 17.3672 51.7427 27.8572 51.7427 27.8572L71.6227 13.0073C71.6227 13.0073 71.8027 6.70725 68.6827 3.53725C67.0327 1.92725 63.4727 1.13725 60.4327 0.75725Z" fill="#263238"/>
<path d="M47.8127 5.06723C47.4256 4.58152 46.8806 4.24661 46.2724 4.12058C45.6642 3.99455 45.031 4.08535 44.4827 4.37723C42.6027 5.47723 44.9527 6.25724 44.9527 6.25724C44.9527 6.25724 42.6327 8.44723 43.7527 9.38723C44.8727 10.3272 47.0627 7.74723 47.0627 7.74723L47.8127 5.06723Z" fill="#263238"/>
<path d="M63.3427 35.3272C63.3442 35.3572 63.3442 35.3872 63.3427 35.4172L62.7527 39.3372C62.7546 40.1124 62.8283 40.8857 62.9727 41.6472C63.0937 42.2635 63.254 42.8714 63.4527 43.4672C64.4527 44.5172 65.1027 47.0872 62.1227 47.4672C58.3727 47.8972 50.8627 43.4672 50.4427 41.8772C51.6127 36.5472 52.4427 30.0272 51.5927 25.1472L56.3927 29.3172L63.3427 35.3272Z" fill="#694B47"/>
<g opacity="0.2">
<path d="M63.3227 35.4172L62.7327 39.3372C60.2627 38.5172 57.5527 36.4772 56.7327 34.0372C56.1427 32.2672 56.7327 30.4872 57.4827 30.3172L63.3227 35.4172Z" fill="black"/>
</g>
<path d="M71.9727 26.3872C71.8428 27.2372 71.6827 28.0872 71.5027 28.9172C69.9127 36.2872 61.2027 37.9172 55.1727 33.2472C54.6265 32.8217 54.1118 32.3572 53.6328 31.8572C49.6328 27.6672 50.1528 24.0672 49.8028 16.0472C49.7172 14.189 50.1043 12.3393 50.9279 10.6713C51.7514 9.0033 52.9846 7.57139 54.512 6.50951C56.0394 5.44762 57.8111 4.79043 59.6616 4.59941C61.512 4.40839 63.3806 4.68977 65.0927 5.41724C72.1427 8.43724 73.3027 17.8472 71.9727 26.3872Z" fill="#694B47"/>
<path d="M66.5828 26.7273L66.7828 26.6473C66.8384 26.6194 66.8808 26.5706 66.9005 26.5115C66.9202 26.4524 66.9156 26.3879 66.8877 26.3323C66.8599 26.2766 66.8111 26.2342 66.752 26.2145C66.6929 26.1948 66.6284 26.1994 66.5727 26.2273C66.1629 26.4214 65.7178 26.5301 65.2646 26.5467C64.8114 26.5633 64.3596 26.4874 63.9367 26.3236C63.5137 26.1599 63.1286 25.9117 62.8047 25.5943C62.4808 25.2769 62.225 24.8968 62.0528 24.4773C62.0382 24.4498 62.0182 24.4256 61.994 24.4062C61.9698 24.3867 61.9419 24.3723 61.912 24.3639C61.8821 24.3555 61.8508 24.3532 61.82 24.3572C61.7892 24.3612 61.7595 24.3714 61.7327 24.3872C61.6801 24.4169 61.6406 24.4652 61.6221 24.5227C61.6036 24.5801 61.6074 24.6425 61.6328 24.6972C62.0277 25.6164 62.7674 26.3439 63.693 26.7235C64.6186 27.1031 65.6562 27.1044 66.5828 26.7273Z" fill="#263238"/>
<path d="M65.5827 4.53722C61.5127 2.40722 53.8227 2.72722 51.1627 6.81722C48.5027 10.9072 49.7827 16.8172 49.7827 16.8172C50.4447 16.7972 51.0982 16.971 51.6627 17.3172C52.0124 17.526 52.3209 17.7971 52.5727 18.1172C52.7642 18.3223 53.0139 18.4637 53.2883 18.5223C53.5627 18.5808 53.8484 18.5538 54.1069 18.4447C54.3654 18.3356 54.5841 18.1498 54.7336 17.9124C54.8831 17.675 54.9561 17.3975 54.9427 17.1172C54.8327 15.2772 54.9427 13.5172 55.9427 13.4572C58.0227 13.3172 55.3927 10.0472 56.5727 9.39722C59.3727 7.86722 67.3427 6.90722 70.9627 11.3972C71.0027 11.3272 69.6527 6.67722 65.5827 4.53722Z" fill="#263238"/>
<path d="M46.2527 21.3172C46.7869 23.2627 48.0707 24.9169 49.8227 25.9172C52.1527 27.2272 53.9527 25.2972 53.8227 22.7672C53.7227 20.4872 52.3727 17.0572 49.8227 16.7672C47.2727 16.4772 45.6627 18.9072 46.2927 21.2972" fill="#694B47"/>
<path d="M61.1127 18.2672C61.1127 18.8972 61.4327 19.4172 61.8427 19.4272C62.2527 19.4372 62.5927 18.9272 62.6127 18.2972C62.6327 17.6672 62.2928 17.1472 61.8828 17.1372C61.4728 17.1272 61.1227 17.6372 61.1127 18.2672Z" fill="#263238"/>
<path d="M68.0327 18.2672C68.0327 18.8972 68.3427 19.4172 68.7627 19.4272C69.1827 19.4372 69.5127 18.9272 69.5327 18.2972C69.5527 17.6672 69.2127 17.1472 68.8027 17.1372C68.3927 17.1272 68.0427 17.6372 68.0327 18.2672Z" fill="#263238"/>
<path d="M70.9927 15.9972C70.9378 15.996 70.8841 15.9806 70.8368 15.9526C70.7895 15.9246 70.7502 15.8848 70.7227 15.8372C70.6269 15.6288 70.4884 15.4427 70.3161 15.2911C70.1439 15.1395 69.9417 15.0258 69.7227 14.9572C69.2826 14.8662 68.8247 14.9261 68.4227 15.1272C68.3874 15.1488 68.3482 15.163 68.3072 15.1691C68.2663 15.1752 68.2246 15.1731 68.1846 15.1629C68.1445 15.1526 68.1069 15.1344 68.0739 15.1094C68.041 15.0844 68.0134 15.0531 67.9927 15.0172C67.971 14.9811 67.9566 14.9411 67.9503 14.8994C67.9441 14.8578 67.9461 14.8152 67.9563 14.7744C67.9665 14.7335 67.9847 14.695 68.0099 14.6612C68.035 14.6274 68.0666 14.5988 68.1027 14.5772C68.6517 14.2858 69.2879 14.2041 69.8927 14.3472C70.1902 14.4391 70.465 14.5926 70.6993 14.7976C70.9336 15.0026 71.1222 15.2546 71.2527 15.5372C71.2735 15.5738 71.2866 15.6141 71.2913 15.6559C71.296 15.6976 71.2921 15.7399 71.28 15.7801C71.2678 15.8203 71.2476 15.8576 71.2206 15.8898C71.1935 15.922 71.1603 15.9483 71.1227 15.9672C71.0823 15.9872 71.0378 15.9975 70.9927 15.9972Z" fill="#263238"/>
<path d="M59.8127 16.0672C59.7637 16.0809 59.7118 16.0809 59.6628 16.0672C59.5833 16.0246 59.5234 15.953 59.4955 15.8673C59.4675 15.7816 59.4737 15.6885 59.5127 15.6072C59.8404 15.0184 60.3694 14.5675 61.0027 14.3372C61.3272 14.2458 61.6671 14.2225 62.001 14.269C62.3349 14.3155 62.6556 14.4306 62.9427 14.6072C63.023 14.6516 63.0826 14.7257 63.1088 14.8136C63.135 14.9015 63.1256 14.9962 63.0827 15.0772C63.0384 15.1575 62.9643 15.2171 62.8764 15.2433C62.7885 15.2695 62.6938 15.2601 62.6127 15.2172C62.4069 15.0866 62.1764 14.9997 61.9356 14.9619C61.6948 14.9241 61.4487 14.9361 61.2127 14.9972C60.7508 15.1641 60.3663 15.4951 60.1328 15.9272C60.0979 15.9782 60.0494 16.0183 59.9928 16.043C59.9362 16.0678 59.8738 16.0762 59.8127 16.0672Z" fill="#263238"/>
<path d="M66.3327 18.0872C66.6472 19.414 67.3423 20.62 68.3327 21.5572C69.9427 22.9672 66.7027 24.1272 66.7027 24.1272L66.3327 18.0872Z" fill="#543C39"/>
<path opacity="0.2" d="M34.8127 64.0272L28.0427 78.7872V78.7072C28.0427 77.1672 28.0427 75.7072 28.0427 74.2272L34.8127 64.0272Z" fill="black"/>
<path d="M92.4927 162.437C83.9627 166.367 75.8027 166.787 67.7827 165.967C66.6027 165.857 65.4327 165.717 64.2627 165.547C64.2627 165.547 63.7027 165.697 62.7027 165.917C56.9327 167.237 36.5928 171.217 27.2228 164.367C26.9828 162.567 26.7828 160.777 26.6128 158.997C25.4128 147.676 25.6918 136.247 27.4428 124.997C27.4428 124.997 64.2628 131.287 87.6928 122.647C87.6928 122.647 90.8128 144.847 92.0528 157.207C92.2628 159.267 92.4227 161.067 92.4927 162.437Z" fill="#C53F3F"/>
<g opacity="0.2">
<path d="M53.8127 130.417C44.8977 130.413 35.9912 129.865 27.1427 128.777L27.2127 128.287C27.5827 128.337 64.7127 133.187 88.0527 125.537L88.1328 126.087C78.0028 129.417 65.0027 130.417 53.8127 130.417Z" fill="black"/>
</g>
<path opacity="0.2" d="M92.4927 162.437C83.9627 166.367 75.8027 166.787 67.7827 165.967C66.6027 165.857 65.4327 165.717 64.2627 165.547C64.2627 165.547 63.7027 165.697 62.7027 165.917C56.9327 167.237 36.5927 171.217 27.2227 164.367C26.9827 162.567 26.7827 160.777 26.6127 158.997C31.9627 161.197 44.1427 164.397 65.2827 160.617C65.2827 160.617 81.4528 162.057 92.0527 157.177C92.2627 159.267 92.4227 161.067 92.4927 162.437Z" fill="black"/>
<path opacity="0.2" d="M67.8127 165.967C66.8127 165.877 65.8128 165.767 64.8828 165.627C65.5928 157.737 66.0927 150.467 66.4527 144.577C67.0027 149.717 67.6727 157.347 67.8127 165.967Z" fill="black"/>
<path d="M27.1427 124.947C27.1427 124.947 35.0327 128.287 35.4327 129.807C35.8327 131.327 33.4327 130.637 33.4327 130.637C33.4327 130.637 36.0127 131.537 35.8027 132.547C35.5627 133.757 33.0727 133.027 33.0727 133.027C33.0727 133.027 35.1527 133.837 34.9027 134.717C34.6527 135.597 31.7827 134.987 31.7827 134.987C31.7827 134.987 33.1427 135.797 32.5727 136.297C32.0027 136.797 26.6727 135.717 25.1227 134.297C23.5727 132.877 24.9227 126.197 25.6127 124.787C26.3027 123.377 24.7327 121.787 27.3827 120.057L27.1227 124.967L27.1427 124.947Z" fill="#694B47"/>
<path opacity="0.2" d="M33.3327 130.747L28.9127 128.997C28.8986 128.992 28.8857 128.984 28.8749 128.973C28.864 128.962 28.8556 128.949 28.8499 128.935C28.8443 128.921 28.8416 128.906 28.8421 128.891C28.8426 128.876 28.8462 128.861 28.8527 128.847C28.864 128.819 28.8858 128.795 28.9137 128.782C28.9417 128.769 28.9735 128.767 29.0027 128.777L33.4127 130.537C33.4414 130.548 33.4647 130.57 33.4777 130.598C33.4908 130.626 33.4926 130.658 33.4827 130.687C33.4773 130.701 33.469 130.714 33.4584 130.725C33.4477 130.736 33.435 130.744 33.4209 130.75C33.4068 130.756 33.3917 130.758 33.3765 130.758C33.3613 130.757 33.3464 130.754 33.3327 130.747Z" fill="black"/>
<path opacity="0.2" d="M32.8127 133.107L28.4427 131.717C28.428 131.714 28.4141 131.707 28.402 131.698C28.3899 131.689 28.3797 131.678 28.3722 131.665C28.3647 131.652 28.36 131.637 28.3583 131.622C28.3567 131.607 28.3582 131.592 28.3627 131.577C28.3673 131.562 28.3748 131.548 28.3848 131.536C28.3949 131.524 28.4072 131.514 28.4211 131.506C28.4351 131.499 28.4503 131.494 28.466 131.493C28.4818 131.491 28.4976 131.493 28.5127 131.497L32.8827 132.887C32.9114 132.898 32.9347 132.92 32.9478 132.948C32.9608 132.976 32.9626 133.008 32.9527 133.037C32.9416 133.064 32.9214 133.085 32.8957 133.098C32.87 133.111 32.8406 133.114 32.8127 133.107Z" fill="black"/>
<path opacity="0.2" d="M31.5328 135.057L28.2528 134.057C28.2377 134.053 28.2237 134.045 28.2118 134.035C28.1999 134.025 28.1904 134.012 28.1837 133.998C28.1771 133.984 28.1736 133.968 28.1734 133.953C28.1733 133.937 28.1764 133.922 28.1827 133.907C28.1859 133.893 28.1923 133.879 28.2015 133.867C28.2106 133.855 28.2224 133.845 28.2359 133.838C28.2493 133.832 28.2641 133.828 28.2792 133.828C28.2942 133.828 28.3091 133.831 28.3227 133.837L31.5927 134.787C31.6075 134.791 31.6214 134.797 31.6335 134.806C31.6456 134.815 31.6558 134.827 31.6633 134.84C31.6708 134.853 31.6755 134.868 31.6771 134.883C31.6788 134.898 31.6773 134.913 31.6728 134.927C31.6772 134.946 31.6765 134.966 31.6708 134.984C31.6652 135.003 31.6547 135.02 31.6405 135.033C31.6263 135.046 31.6088 135.055 31.5899 135.06C31.571 135.064 31.5513 135.063 31.5328 135.057Z" fill="black"/>
</svg>
