<svg width="65" height="50" viewBox="0 0 65 50" fill="none" xmlns="http://www.w3.org/2000/svg">
<path d="M58.1101 32.712C57.2768 33.225 56.0158 33.254 56.0158 33.254C56.0158 33.254 55.2358 32.492 55.2085 31.672C55.1877 30.988 55.7779 30.472 56.4214 30.54C57.3444 30.64 56.8959 31.8 56.8959 31.8C56.8959 31.8 57.7604 30.79 58.4559 31.269C58.946 31.6 58.8082 32.284 58.1101 32.712Z" fill="#EBEBEB"/>
<path d="M9.72011 35.1C9.88521 35.91 9.29241 36.767 9.29241 36.767C9.29241 36.767 8.04441 36.912 7.10711 36.522C6.32711 36.197 6.03071 35.545 6.42981 35.15C7.00311 34.584 8.08861 35.458 8.08861 35.458C8.08861 35.458 7.37751 34.38 8.26281 34.152C8.87901 34 9.58101 34.425 9.72011 35.1Z" fill="#EBEBEB"/>
<path d="M36.4793 9.73799C36.361 10.173 35.8488 10.521 35.8488 10.521C35.8488 10.521 35.1793 10.411 34.801 10.076C34.4851 9.79599 34.4981 9.42199 34.801 9.27599C35.2313 9.07599 35.5654 9.67599 35.5654 9.67599C35.5654 9.67599 35.4718 9.02499 35.9775 9.03999C36.3272 9.05399 36.5768 9.37499 36.4793 9.73799Z" fill="#EBEBEB"/>
<path d="M16.237 42.169C14.677 43.347 12.1017 43.606 12.1017 43.606C12.1017 43.606 10.3012 42.172 10.0308 40.5C9.80587 39.106 10.8745 37.951 12.2096 37.995C14.1232 38.058 13.5096 40.495 13.5096 40.495C13.5096 40.495 15.0072 38.295 16.5568 39.164C17.641 39.771 17.5422 41.186 16.237 42.169Z" fill="#EBEBEB"/>
<path d="M53.0087 31.955C46.9364 41.374 32.4999 46.963 32.4999 46.963C32.4999 46.963 18.0517 41.374 11.9911 31.955C6.93544 24.1 10.1399 15.608 18.1193 13.753C29.5593 11.092 32.4947 21.185 32.4947 21.185C32.4947 21.185 35.4301 11.092 46.8805 13.753C54.8599 15.608 58.0644 24.1 53.0087 31.955Z" fill="#8A8A8A"/>
<path opacity="0.5" d="M53.0087 31.955C46.9364 41.374 32.4999 46.963 32.4999 46.963C32.4999 46.963 18.0517 41.374 11.9911 31.955C6.93544 24.1 10.1399 15.608 18.1193 13.753C29.5593 11.092 32.4947 21.185 32.4947 21.185C32.4947 21.185 35.4301 11.092 46.8805 13.753C54.8599 15.608 58.0644 24.1 53.0087 31.955Z" fill="white"/>
<path d="M34.866 14.83C33.5322 15.53 31.6277 15.457 31.6277 15.457C31.6277 15.457 30.5643 14.239 30.6514 13.001C30.7242 11.969 31.6914 11.239 32.6521 11.401C34.0288 11.638 33.1721 13.343 33.1721 13.343C33.1721 13.343 34.632 11.9 35.607 12.687C36.2882 13.233 35.9775 14.248 34.866 14.83Z" fill="#8A8A8A"/>
<path d="M30.632 9.08899C30.4708 9.89999 29.5699 10.579 29.5699 10.579C29.5699 10.579 28.3232 10.428 27.5822 9.83799C26.9634 9.34599 26.94 8.65599 27.4756 8.37299C28.2452 7.96599 28.9355 9.05199 28.9355 9.05199C28.9355 9.05199 28.6755 7.85899 29.6141 7.85199C30.2654 7.83999 30.7659 8.41199 30.632 9.08899Z" fill="#8A8A8A"/>
<path d="M10.3545 29.362C10.1933 30.173 9.29241 30.852 9.29241 30.852C9.29241 30.852 8.04571 30.7 7.30471 30.111C6.68591 29.619 6.66251 28.929 7.19811 28.645C7.96641 28.239 8.65801 29.325 8.65801 29.325C8.65801 29.325 8.39801 28.131 9.33661 28.12C9.98791 28.112 10.4884 28.685 10.3545 29.362Z" fill="#8A8A8A"/>
<path d="M57.98 22.061C57.3716 23.21 55.7362 23.961 55.7362 23.961C55.7362 23.961 53.9734 23.4 53.1544 22.332C52.4706 21.442 52.7527 20.422 53.6744 20.15C54.99 19.761 55.5074 21.544 55.5074 21.544C55.5074 21.544 55.6803 19.721 57.057 19.958C58.0099 20.126 58.4831 21.1 57.98 22.061Z" fill="#8A8A8A"/>
<path d="M55.93 0C55.3476 4.064 54.5416 8.24 53.9345 10.8C52.7138 15.945 49.9721 23.227 48.7787 26.4C48.7791 26.4043 48.7791 26.4087 48.7787 26.413C48.4602 27.264 48.2587 27.813 48.2184 27.95C48.1105 28.361 47.2161 28.501 45.8784 28.45C45.013 28.4122 44.1515 28.3323 43.2992 28.211C40.8025 27.8558 38.3438 27.3574 35.9438 26.72C33.6376 26.109 31.7136 25.441 30.9583 24.904C30.6827 24.704 30.5683 24.53 30.6385 24.377C30.671 24.31 30.7334 24.201 30.8231 24.053C30.9128 23.905 31.0116 23.74 31.139 23.535C31.5082 22.94 32.049 22.092 32.6847 21.092C33.0123 20.575 33.3659 20.018 33.7364 19.436C33.7949 19.344 33.8547 19.251 33.9132 19.157C33.9483 19.104 33.9808 19.051 34.0146 18.997C34.122 18.8283 34.2304 18.6573 34.3396 18.484C36.521 15.04 39.0378 11 40.0401 8.948C40.4522 8.111 42.3801 4.206 44.4601 0H55.93Z" fill="#694B47"/>
<path d="M34.2615 38.338C34.3044 39.196 36.2336 41.086 36.5105 41.086C36.7874 41.086 41.3556 41.566 41.5324 42.724C41.7742 44.297 36.5612 44.524 35.0467 44.297C33.0642 43.997 29.5581 41.771 29.0836 40.497C28.6091 39.223 28.4622 33.273 28.4622 33.273L35.0792 33.479C35.0792 33.479 34.229 37.676 34.2615 38.338Z" fill="#694B47"/>
<path opacity="0.1" d="M34.2615 38.338C34.3044 39.196 36.2336 41.086 36.5105 41.086C36.7874 41.086 41.3556 41.566 41.5324 42.724C41.7742 44.297 36.5612 44.524 35.0467 44.297C33.0642 43.997 29.5581 41.771 29.0836 40.497C28.6091 39.223 28.4622 33.273 28.4622 33.273L35.0792 33.479C35.0792 33.479 34.229 37.676 34.2615 38.338Z" fill="black"/>
<path d="M28.2789 28.744C28.2789 28.744 26.0533 36.075 25.909 38.065C25.7647 40.055 28.1645 43.774 30.0911 44.729C32.0177 45.684 32.9927 44.119 32.5403 42.041C32.0879 39.963 31.2754 37.666 31.5822 37.007C31.889 36.348 34.4292 31.643 34.4292 31.643L28.2789 28.744Z" fill="#694B47"/>
<path d="M34.2914 19.638C34.2914 19.638 32.9641 20.725 30.2614 24.705C27.3624 28.98 26.4524 36.37 27.5119 39.542C28.1424 41.43 32.9589 47.097 35.8683 45.616C37.6155 44.727 34.1133 40.143 33.7948 39.347C33.3541 38.247 34.6957 35.13 36.2349 34.363C37.2554 33.855 38.4449 33.654 39.5421 33.832C41.0475 34.074 44.2325 33.398 45.9043 32.144C47.0535 31.282 49.2388 29.593 48.5589 26.519L34.2914 19.638Z" fill="#694B47"/>
<path d="M48.5642 26.519C48.5642 26.519 49.4313 30.271 46.9587 34.97C45.7419 37.282 45.2947 41.038 44.8033 42.996C44.2105 45.356 41.0788 44.027 40.6355 41.817C40.0986 39.132 40.7655 37.274 40.8578 36.184C41.0086 34.317 39.5474 33.832 39.5474 33.832L48.5642 26.519Z" fill="#694B47"/>
<path d="M27.109 35.457C27.2247 36.741 27.2325 38.057 27.6719 39.287C28.451 40.8937 29.5244 42.4067 30.8595 43.78C31.1975 44.124 31.5615 44.452 31.9398 44.78C31.488 44.5145 31.0638 44.2223 30.671 43.906C29.1138 42.6082 27.929 41.073 27.1935 39.4C26.7957 38.111 26.8906 36.765 27.109 35.462V35.457Z" fill="#263238"/>
<path d="M35.1454 26.722C33.3647 27.9073 31.4819 28.9988 29.5099 29.989C28.8742 30.312 28.2372 30.62 27.621 30.903L27.556 30.933C26.2703 31.52 25.0704 31.998 24.1084 32.28C23.8731 32.349 23.6508 32.406 23.4467 32.451C22.6563 32.622 22.1142 32.6 21.9478 32.311C21.8893 32.211 21.5708 31.788 21.0716 31.128C20.8662 30.856 20.6309 30.544 20.3709 30.197C17.6669 26.591 13.1988 19.228 11.3749 14.431C10.3271 11.673 9.22992 5.244 8.68652 0H19.4336C21.8139 4.494 24.2111 9 24.8767 9.789C26.5147 11.722 29.5034 15.844 32.7196 19.205C32.7586 19.2463 32.7976 19.2863 32.8366 19.325L32.9406 19.436C33.2006 19.7027 33.4502 19.9633 33.6894 20.218L34.6176 21.185L35.4457 22.049C36.5468 23.199 37.3268 24.018 37.5257 24.249C37.8494 24.624 36.8159 25.583 35.1454 26.722Z" fill="#AD6359"/>
<path d="M29.0758 37.34C28.2243 36.812 27.859 37.152 28.2958 38.61C28.7313 40.086 30.8035 44.379 27.0881 45.159C25.805 45.428 25.0783 42.713 23.9993 40.659C22.906 38.578 21.4721 36.535 21.2056 35.254C20.7545 33.084 21.2368 29.488 21.2368 29.488C22.5173 30.866 26.52 34.658 29.0758 37.34Z" fill="#AD6359"/>
<path d="M34.684 21.147C36.504 22.8 40.0699 25.865 41.6702 27.447C43.6046 29.354 43.7593 30.666 44.7382 32.938C45.1177 33.8829 45.4002 34.8492 45.5832 35.828C45.7938 36.928 45.1997 37.56 45.1997 37.56C45.2088 38.642 45.2062 39.316 45.0346 39.751C44.8947 40.1364 44.6487 40.4942 44.3131 40.8C44.1272 41.825 43.6631 42.382 43.1106 42.69C42.4606 43.059 41.5896 42.89 41.5896 42.89C41.5896 42.89 41.8106 43.39 41.8106 43.563C41.8106 44.416 40.209 45.42 39.1599 45.219C37.4088 44.885 34.7893 43.853 34.0782 43.195C32.9472 42.148 27.5288 37.829 25.7582 35.763C24.3139 34.078 21.8179 29.613 20.8611 28.752L34.684 21.147Z" fill="#AD6359"/>
<path d="M41.9431 30.324C41.9431 30.802 42.272 31.242 42.4956 31.678C42.6581 31.97 43.0884 32.689 43.2665 32.988C43.9295 34.152 44.6887 35.352 45.0865 36.588C45.1633 36.907 45.2016 37.2307 45.2009 37.555C45.1219 37.2414 45.0208 36.9312 44.898 36.626C44.2792 35.446 43.4901 34.305 42.8687 33.12C42.539 32.5254 42.2619 31.9144 42.0393 31.291C41.9535 30.978 41.8261 30.64 41.9444 30.323L41.9431 30.324Z" fill="#263238"/>
<path d="M34.4655 35.381C35.7473 36.581 36.9082 37.853 38.0275 39.147C39.1247 40.438 40.4169 41.632 41.5895 42.889C40.1374 41.801 38.7802 40.639 37.6492 39.339C36.552 38.058 35.4223 36.725 34.4655 35.381Z" fill="#263238"/>
<path d="M44.313 40.8C44.092 40.261 43.923 39.7 43.6526 39.178C43.4563 38.855 42.7036 38.092 42.4423 37.778C41.752 36.999 41.0591 36.195 40.4143 35.39C40.0568 34.908 39.5862 34.39 39.3509 33.869C39.1897 33.5056 39.0807 33.1297 39.0259 32.748C39.1544 33.1133 39.3196 33.4704 39.5199 33.816C39.6837 34.116 40.0607 34.497 40.2999 34.763C41.154 35.694 41.9899 36.637 42.7972 37.593C43.1872 38.093 43.6448 38.557 43.9347 39.093C44.1219 39.6504 44.2455 40.2192 44.3039 40.793L44.313 40.8Z" fill="#263238"/>
<path d="M28.7299 38.61C27.9369 38.11 27.3415 37.41 26.7695 36.766C26.1975 36.122 25.6645 35.449 25.0314 34.819C25.8855 35.28 26.5212 35.942 27.0945 36.6C27.6678 37.258 28.1748 37.952 28.7299 38.61Z" fill="#263238"/>
<path d="M36.2205 21.42L35.2299 21.956L35.0596 22.049L29.7699 24.906L28.9015 25.376L21.1483 29.567L20.9975 29.649L20.8116 29.749L19.9861 30.2L19.0761 30.693C19.0761 30.693 10.0398 16.249 9.38853 14.107C8.72943 11.938 8.12362 5.663 7.74792 0H19.5571C21.7671 3.961 23.916 7.779 24.4555 8.664C25.1393 9.785 29.6204 15.079 33.1538 18.484C34.6644 19.939 35.8305 21.05 36.1438 21.343L36.2205 21.42Z" fill="#8A8A8A"/>
<path d="M19.9952 20.329C19.5412 20.4539 19.1126 20.628 18.7225 20.846C19.6851 20.7761 20.6071 20.5134 21.3966 20.084C20.9167 20.114 20.4448 20.1965 19.9952 20.329ZM10.0541 11.136C9.64023 11.2508 9.24706 11.4057 8.88411 11.597C8.85031 11.614 8.81651 11.633 8.78401 11.652C8.82041 11.652 8.85551 11.652 8.89061 11.644C9.33519 11.6057 9.77187 11.5251 10.1906 11.404C10.6446 11.2791 11.0732 11.105 11.4633 10.887C10.9801 10.9158 10.5052 10.9997 10.0541 11.136ZM20.3345 28.8C19.8796 28.9255 19.4499 29.0995 19.0579 29.317C19.539 29.2862 20.0121 29.2034 20.4632 29.071C20.9174 28.9463 21.346 28.7722 21.7359 28.554C21.2561 28.585 20.7843 28.6678 20.3345 28.8ZM8.72291 0.249C8.39879 0.34028 8.08597 0.453735 7.78821 0.588C7.78821 0.636 7.79471 0.688 7.79731 0.733C8.15672 0.686422 8.50969 0.614107 8.85161 0.517C9.30564 0.392099 9.73419 0.218012 10.1243 0C9.64381 0.0295923 9.1716 0.113494 8.72291 0.249ZM32.8418 19.949C32.3882 20.0729 31.9597 20.2456 31.5691 20.462C32.5321 20.3934 33.4545 20.1305 34.2432 19.7C33.7626 19.7299 33.2904 19.8142 32.8418 19.95V19.949ZM25.4422 15.822C25.2812 15.4731 25.0566 15.1435 24.7753 14.843C24.8645 15.5838 25.2062 16.2933 25.7659 16.9C25.7268 16.5308 25.6178 16.1679 25.4422 15.823V15.822ZM19.7378 3.055C19.5754 2.70596 19.3495 2.37635 19.067 2.076C19.1061 2.44544 19.2147 2.80856 19.3894 3.154C19.5504 3.50315 19.7754 3.83281 20.0576 4.133C20.0201 3.76357 19.9124 3.40037 19.7378 3.055ZM14.8589 16.047C14.4246 15.8864 13.9621 15.7756 13.4861 15.718C13.8526 15.959 14.2636 16.1568 14.7055 16.305C15.1419 16.4639 15.6054 16.5744 16.0822 16.633C15.7137 16.3929 15.3016 16.1955 14.8589 16.047ZM12.2511 4.538C12.0464 4.87253 11.9046 5.22775 11.8299 5.593C12.1426 5.31051 12.4009 4.99496 12.5969 4.656C12.7993 4.32069 12.9398 3.96525 13.0142 3.6C12.7023 3.88269 12.4453 4.19863 12.2511 4.538ZM25.6957 23.952C25.4887 24.2876 25.3447 24.6442 25.268 25.011C25.8858 24.4362 26.2961 23.7464 26.4575 23.011C26.1475 23.2956 25.891 23.6124 25.6957 23.952ZM15.1475 24.313C15.1956 24.391 15.2424 24.469 15.2892 24.546C15.3642 24.3721 15.4186 24.1934 15.4517 24.012C15.3414 24.1068 15.2398 24.2074 15.1475 24.313ZM18.7966 10.326C18.5903 10.6601 18.448 11.0155 18.3741 11.381C18.6857 11.0985 18.9427 10.7829 19.1372 10.444C19.3436 10.1083 19.4872 9.75172 19.5636 9.385C19.2517 9.66938 18.9935 9.98616 18.7966 10.326Z" fill="white"/>
<path d="M32.8899 18.976C31.5405 19.476 26.5368 22.052 25.2771 22.713C24.0174 23.374 19.1411 26.164 17.9243 26.86C17.8697 26.892 17.9529 26.96 18.0101 26.935C19.3101 26.304 31.8551 19.818 32.9341 19.024C32.951 19.007 32.9198 18.963 32.8899 18.976Z" fill="#263238"/>
</svg>
