<svg width="67" height="72" viewBox="0 0 67 72" fill="none" xmlns="http://www.w3.org/2000/svg">
<path d="M4.31786 57.3378H4.10275C3.09643 57.3378 2.28064 58.0328 2.28064 58.89V67.5865C2.28064 68.4437 3.09643 69.1386 4.10275 69.1386H4.31786C5.32418 69.1386 6.13997 68.4437 6.13997 67.5865V58.89C6.13997 58.0328 5.32418 57.3378 4.31786 57.3378Z" fill="#263238"/>
<path d="M17.7584 71.5919C17.7584 71.5919 12.7274 71.5919 10.508 71.5919C8.28852 71.5919 5.89953 71.8075 4.9404 70.6908C4.18118 69.8285 4.31784 68.6665 4.37604 67.6231C4.54476 64.6869 4.70757 61.7507 4.86447 58.8145C4.9075 58.0191 4.95811 57.2063 5.34784 56.4626C5.73757 55.7188 7.49641 45.4292 8.55425 45.2525H17.518L17.7584 71.5919Z" fill="#263238"/>
<path d="M15.873 66.8858C15.873 66.916 13.4714 66.9419 10.5079 66.9419C7.54446 66.9419 5.14282 66.916 5.14282 66.8858C5.14282 66.8557 7.54446 66.8276 10.5079 66.8276C13.4714 66.8276 15.873 66.8535 15.873 66.8858Z" fill="#455A64"/>
<path d="M11.5986 54.9665C11.6366 54.9665 11.6644 57.631 11.6644 60.9186C11.6644 64.2062 11.6366 66.8729 11.5986 66.8729C11.5607 66.8729 11.5328 64.2083 11.5328 60.9186C11.5328 57.6289 11.5632 54.9665 11.5986 54.9665Z" fill="#455A64"/>
<path d="M4.89992 68.4445C4.88832 68.4087 4.8832 68.3716 4.88474 68.3345C4.88474 68.2504 4.88474 68.147 4.86702 68.0219C4.85184 67.7481 4.83919 67.3536 4.82653 66.8664C4.80123 65.892 4.78604 64.5446 4.80122 63.0571C4.81641 61.5697 4.8569 60.2201 4.90245 59.2457C4.9227 58.7585 4.94547 58.364 4.96319 58.0924L4.9885 57.7776C4.9885 57.7412 4.99446 57.7049 5.00621 57.6698C5.0123 57.7063 5.0123 57.7433 5.00621 57.7798V58.0924C5.00621 58.3834 5.00621 58.7736 4.98344 59.2479C4.96825 60.2374 4.948 61.5761 4.9227 63.0571C4.89739 64.5382 4.9227 65.8748 4.91004 66.8664C4.91004 67.3407 4.91004 67.7287 4.91004 68.0219C4.91004 68.147 4.91004 68.2504 4.91004 68.3345C4.91221 68.3714 4.90881 68.4083 4.89992 68.4445Z" fill="#455A64"/>
<path d="M54.4739 30.3646C54.4739 30.3646 58.4092 31.0113 60.4135 36.4159C62.7038 42.6052 66.5682 55.2941 66.5378 56.7579C66.5075 58.2217 62.1243 60.5715 62.1243 60.5715L55.8456 58.7887L52.5557 48.2253L54.4739 30.3646Z" fill="#155332"/>
<path d="M54.474 30.3646L44.7915 27.3055L44.1259 26.5812L31.6394 26.911L30.7131 27.4198C30.7131 27.4198 21.3267 29.1724 20.3549 29.2802C18.0773 29.5281 15.6908 32.197 15.6908 32.197C15.4378 32.4449 3.65479 47.0569 3.65479 47.0569L6.4006 56.2599C6.4006 56.2599 7.69886 56.6501 11.4317 54.5655C14.3875 52.912 16.6854 50.2949 17.5054 49.2773L17.4927 71.6005H54.0766L52.085 57.4413L54.474 30.3646Z" fill="#155332"/>
<path d="M52.6164 45.0714C52.6147 45.0343 52.6198 44.9972 52.6316 44.9614C52.6519 44.8773 52.6746 44.7739 52.7025 44.6488L52.9733 43.5019C53.1985 42.534 53.4794 41.1909 53.7527 39.7034C54.026 38.216 54.2006 36.8578 54.3196 35.8769C54.3778 35.3983 54.4233 35.0038 54.4588 34.7128C54.474 34.5856 54.4866 34.4821 54.4993 34.3959C54.5008 34.3585 54.5084 34.3215 54.522 34.2859C54.528 34.3231 54.528 34.3609 54.522 34.398C54.522 34.4843 54.522 34.5878 54.5069 34.7171C54.4917 34.993 54.4588 35.3919 54.4107 35.8834C54.3145 36.8686 54.1424 38.2267 53.8793 39.7185C53.6161 41.2103 53.3098 42.5512 53.0618 43.517C52.9378 43.9999 52.8315 44.3901 52.7505 44.6574C52.7126 44.7803 52.6822 44.8838 52.6544 44.9657C52.6468 45.0021 52.6341 45.0376 52.6164 45.0714Z" fill="#263238"/>
<path d="M16.3514 39.0956C16.3678 39.1397 16.3788 39.1853 16.3843 39.2314C16.402 39.3305 16.4248 39.4599 16.4551 39.6172C16.5133 39.9557 16.5893 40.4429 16.6778 41.0487C16.8524 42.2581 17.0574 43.9331 17.2169 45.7914C17.3763 47.6497 17.4699 49.3291 17.4902 50.5449C17.5054 51.155 17.513 51.6487 17.513 51.9893C17.513 52.1489 17.513 52.2782 17.513 52.3817C17.5173 52.4269 17.5173 52.4723 17.513 52.5175C17.5013 52.4729 17.4953 52.4274 17.4952 52.3817C17.4952 52.2804 17.4826 52.1489 17.475 51.9893C17.4573 51.6358 17.437 51.1464 17.4092 50.5493C17.351 49.3312 17.2548 47.6519 17.0979 45.8065C16.941 43.9612 16.7487 42.2818 16.5918 41.0638C16.5159 40.4688 16.4551 39.9859 16.4121 39.6302C16.3919 39.4707 16.3767 39.3413 16.3666 39.24C16.3542 39.1926 16.3491 39.1441 16.3514 39.0956Z" fill="#263238"/>
<path d="M44.7864 28.4115C44.7492 28.452 44.7067 28.4889 44.6599 28.5214C44.5713 28.5882 44.4397 28.6874 44.2702 28.8103C43.926 29.0604 43.4249 29.4117 42.7821 29.8235C42.035 30.3173 41.2351 30.7504 40.3931 31.117C39.3297 31.5196 38.1873 31.7492 37.0247 31.7939C35.8632 31.8672 34.6965 31.7313 33.6007 31.3951C32.7166 31.0964 31.9338 30.6148 31.3231 29.9938C30.9081 29.5768 30.5995 29.0908 30.4171 28.5667C30.3686 28.4255 30.333 28.2814 30.3108 28.1355C30.2976 28.0853 30.2916 28.0339 30.293 27.9825C30.3137 28.0306 30.3281 28.0804 30.3361 28.1312C30.3704 28.2767 30.4135 28.4206 30.4651 28.5624C30.6647 29.0726 30.9803 29.5443 31.3939 29.9507C32.0061 30.5539 32.7831 31.0196 33.6564 31.3067C34.7351 31.6281 35.88 31.7566 37.0197 31.6839C38.1651 31.6391 39.2912 31.4163 40.3425 31.0264C41.179 30.6665 41.9768 30.2445 42.7264 29.7653C43.3743 29.3622 43.8855 29.0194 44.2448 28.7823L44.6498 28.5085C44.6929 28.4738 44.7386 28.4414 44.7864 28.4115Z" fill="#263238"/>
<g opacity="0.3">
<path d="M26.1072 38.7441C24.6495 39.6065 24.4724 41.3462 24.3914 42.8552C24.0497 49.051 19.4084 60.8798 17.5002 66.8643C23.5081 58.9568 27.1929 48.1197 26.1072 38.7441Z" fill="black"/>
</g>
<path d="M26.5045 28.1959C26.5045 28.1959 26.0186 41.5294 24.6773 49.5382C23.336 57.5469 16.8321 68.1879 16.8321 68.1879L15.7819 66.4353C15.7819 66.4353 19.3755 57.5534 21.0027 50.1008C22.1542 44.8385 21.0027 28.9741 21.0027 28.9741C22.647 28.1127 24.6216 27.8334 26.5045 28.1959Z" fill="#263238"/>
<path d="M23.0501 41.3979C23.0147 41.3979 23.0982 38.6213 23.2399 35.1979C23.3816 31.7745 23.5259 29 23.5613 29.0021C23.5968 29.0043 23.5132 31.7788 23.3715 35.2022C23.2298 38.6256 23.0856 41.4001 23.0501 41.3979Z" fill="#455A64"/>
<path d="M2.77409 42.1632L1.52645 44.9097C1.52645 44.9097 -0.128638 47.7834 0.00801985 49.7365C0.144678 51.6896 3.02462 58.8253 8.8655 56.5121C14.7064 54.199 11.7809 50.4393 11.7809 50.4393L9.03759 44.0409L4.73539 41.6286C4.57054 41.5358 4.38335 41.4756 4.18761 41.4526C3.99187 41.4296 3.79256 41.4443 3.60436 41.4956C3.41616 41.5469 3.24387 41.6335 3.10018 41.749C2.95649 41.8646 2.84505 42.0061 2.77409 42.1632Z" fill="#155332"/>
<path d="M9.66767 34.5317C10.0498 34.9629 12.2541 34.4671 12.7551 35.3445C12.9044 35.5811 12.9826 35.8455 12.9826 36.1141C12.9826 36.3827 12.9044 36.6471 12.7551 36.8837C13.007 37.1547 13.162 37.4818 13.2015 37.8259C13.241 38.17 13.1633 38.5164 12.9778 38.8239C13.1892 39.2297 13.2705 39.6761 13.2132 40.1174C13.1292 40.5594 12.867 40.9627 12.4717 41.2578C12.5195 41.4827 12.4906 41.7146 12.3883 41.9259C12.286 42.1372 12.1147 42.3191 11.8947 42.45C11.1355 42.8811 9.1261 43.2131 9.1261 43.2131L8.30109 44.5066C8.30109 44.5066 7.15721 45.5845 5.74002 45.1016C4.32282 44.6187 3.36621 42.2107 3.36621 42.2107C3.42948 41.9024 5.02129 39.6582 5.02129 39.6582C5.02129 39.6582 5.33763 36.3189 6.03358 35.5062C6.72952 34.6934 7.04586 34.5296 7.04586 34.5296C7.04586 34.5296 7.65323 33.415 7.65323 32.9365C7.65323 32.4579 7.1319 30.9273 7.44571 30.6168C7.75952 30.3064 9.04259 30.522 9.60441 31.7874C10.1662 33.0529 9.66767 34.5317 9.66767 34.5317Z" fill="#664635"/>
<path d="M12.6817 36.7824C12.6817 36.8169 11.9225 36.7048 10.9912 36.7005C10.0599 36.6962 9.30325 36.7996 9.29565 36.7651C9.45133 36.7101 9.6161 36.6759 9.78408 36.6638C10.5837 36.5589 11.3978 36.5632 12.1958 36.6768C12.3632 36.6906 12.5271 36.7262 12.6817 36.7824Z" fill="#463026"/>
<path d="M12.8564 38.9878C12.8564 39.0222 12.1427 38.8994 11.262 38.8994C10.3814 38.8994 9.67275 39.0115 9.66516 38.977C10.7082 38.7204 11.8158 38.7242 12.8564 38.9878Z" fill="#463026"/>
<path d="M12.6793 41.2147C12.2402 41.3711 11.7709 41.4574 11.295 41.469C10.8219 41.5161 10.3426 41.4898 9.88037 41.3914C9.88037 41.3591 10.513 41.4065 11.2849 41.3569C12.0568 41.3074 12.6692 41.1823 12.6793 41.2147Z" fill="#463026"/>
<path d="M10.7459 42.8164C10.5664 42.9154 10.3688 42.9883 10.1613 43.032C9.16581 43.2968 8.09384 43.2625 7.12444 42.935C6.92205 42.8761 6.73229 42.7894 6.56262 42.6785C7.22557 42.9107 7.92785 43.0512 8.64286 43.0945C9.35683 43.0984 10.0669 43.0045 10.7459 42.8164Z" fill="#463026"/>
<path d="M10.7686 34.8076C10.7686 34.8443 9.95116 34.6955 8.93888 34.7279C7.92659 34.7602 7.13195 34.9435 7.12183 34.9068C7.28101 34.8372 7.45166 34.7885 7.62797 34.7624C8.05456 34.6755 8.49038 34.6257 8.92875 34.6136C9.366 34.6015 9.80357 34.6275 10.2346 34.6912C10.4184 34.7071 10.5984 34.7463 10.7686 34.8076Z" fill="#463026"/>
<path d="M11.2089 53.6471C11.1963 53.6471 11.2747 53.5113 11.3861 53.2655C11.5453 52.9183 11.6574 52.5566 11.7201 52.1876C11.8158 51.6433 11.8081 51.0894 11.6973 50.5471C11.5632 49.8842 11.2694 49.2523 10.8344 48.691C10.3738 48.0916 9.86005 47.5441 9.56902 46.9534C9.31821 46.4377 9.13983 45.8986 9.03757 45.3473C8.94647 44.8795 8.90345 44.4979 8.87561 44.2328C8.87561 44.1121 8.85536 44.0172 8.84777 43.9288C8.84111 43.8938 8.84111 43.8582 8.84777 43.8232C8.86228 43.8565 8.87164 43.8913 8.87561 43.9267C8.87561 44.0086 8.90598 44.1077 8.92622 44.2285C8.96924 44.4915 9.02745 44.8752 9.13121 45.3322C9.24143 45.8754 9.42573 46.4057 9.68037 46.9124C9.96381 47.4859 10.47 48.0227 10.9457 48.6371C11.3924 49.2099 11.6901 49.8574 11.8188 50.5363C11.927 51.0894 11.927 51.6539 11.8188 52.207C11.7449 52.5783 11.6174 52.9403 11.4392 53.2849C11.3927 53.3796 11.3394 53.4717 11.2798 53.5609C11.2596 53.5916 11.2358 53.6204 11.2089 53.6471Z" fill="#263238"/>
<g opacity="0.3">
<path d="M8.93384 43.7563C8.96674 43.8728 9.00723 43.9849 9.05025 44.097V43.7563H8.93384Z" fill="black"/>
</g>
<g opacity="0.3">
<path d="M11.4442 47.6131C10.5762 46.4748 9.54113 45.3861 9.05017 44.1056C9.05017 45.1943 9.11091 46.3023 9.64489 47.2854C9.99666 47.9321 10.5332 48.4862 10.9811 49.0855C11.429 49.6848 11.796 50.3682 11.7403 51.0774C11.6874 51.3257 11.6797 51.5795 11.7175 51.8298C11.7909 52.0755 12.087 52.2997 12.3654 52.2157C12.4639 52.1704 12.5484 52.1061 12.6122 52.0278C12.6759 51.9495 12.7171 51.8595 12.7324 51.7651C13.1676 50.338 12.3856 48.8505 11.4442 47.6131Z" fill="black"/>
</g>
<path d="M50.9158 15.7181C50.3362 15.9962 49.5593 15.6384 49.2961 15.1188C49.0329 14.5993 49.1569 14 49.3568 13.4589C49.5568 12.9178 49.8326 12.381 49.863 11.8269C49.8883 11.3106 49.7175 10.8011 49.3761 10.374C49.0346 9.94681 48.5407 9.62476 47.9675 9.45558C49.0936 8.69459 49.1873 7.06265 48.1497 6.2219C47.6663 5.82307 47.021 5.6075 46.4592 5.29491C46.1392 5.11302 45.8401 4.90587 45.5658 4.6762C46.0689 4.78154 46.5925 4.79477 47.102 4.715C47.5116 4.63882 47.8919 4.4755 48.2075 4.24027C48.523 4.00504 48.7634 3.70557 48.9064 3.36979C49.0393 3.03139 49.0588 2.66813 48.9626 2.32081C48.8665 1.9735 48.6586 1.6559 48.3623 1.40371C48.0557 1.15985 47.6692 1.00122 47.2543 0.94885C46.8393 0.896484 46.4155 0.952868 46.0391 1.11052C45.3128 1.4382 44.9129 2.11296 44.5586 2.74461L44.2296 3.33314C43.2047 2.17764 42.2405 0.981171 40.6613 0.575883C39.2264 0.207243 37.6852 0.619 36.1921 0.526301C35.1039 0.459471 34.0612 0.123168 32.9781 0.0240015C31.8949 -0.0751648 30.66 0.118858 30.0197 0.871228C29.6426 1.31317 29.5135 1.88445 29.1441 2.32423C28.3595 3.22966 26.6665 3.35254 26.0212 4.33558C25.4973 5.13322 25.8997 6.14213 25.6745 7.03678C25.4214 8.0112 24.4901 8.72261 23.7182 9.46851C22.9464 10.2144 22.2757 11.2449 22.7059 12.1697C23.0855 12.9825 24.1991 13.4201 24.5635 14.2393C24.8166 14.8364 24.6343 15.5004 24.6217 16.1385C24.609 16.7766 24.9077 17.5355 25.634 17.6799L33.9473 19.5511C36.8096 20.5428 39.768 21.5517 42.8554 21.5474C45.9429 21.5431 49.2455 20.2798 50.4653 17.861C50.0132 17.8442 49.5858 17.6807 49.2708 17.404C49.6763 17.2466 50.0349 17.0133 50.3197 16.7214C50.6046 16.4295 50.8083 16.0865 50.9158 15.7181Z" fill="#263238"/>
<path d="M44.1031 17.9408C44.789 16.145 45.4646 14.3341 45.7785 12.4651C46.0923 10.596 46.0315 8.64501 45.2495 6.87511C45.1331 6.60563 44.136 4.80555 43.7994 4.83358C43.5616 4.85298 44.1765 6.53449 44.0525 6.71127C42.8985 8.39925 42.5847 10.4278 42.7694 12.3745C42.9694 14.2663 43.4158 16.1332 44.1006 17.9408" fill="#263238"/>
<path d="M35.8555 1.93405L35.3494 1.95777C32.8546 2.07182 30.5017 2.98172 28.7587 4.50644C27.0157 6.03117 26.0103 8.05896 25.9427 10.1864C25.8137 14.2824 25.634 18.2297 25.8035 20.4199C26.1553 24.9471 31.6242 25.43 31.6242 25.43V27.7712C31.8595 30.1598 35.4911 30.5888 36.8678 30.4853C41.623 30.4853 44.1031 27.1697 44.1031 27.1697L44.3258 10.7275C44.5029 5.99987 41.418 1.96423 35.8555 1.93405Z" fill="#664635"/>
<path d="M31.6191 25.4321C31.6191 25.4321 34.9875 25.4472 38.4521 23.369C38.4521 23.369 36.9691 26.7472 31.6191 26.5812V25.4321Z" fill="#463026"/>
<path d="M28.3875 13.9137C28.3954 14.083 28.4809 14.2429 28.6257 14.359C28.7705 14.4751 28.963 14.5381 29.1618 14.5346C29.26 14.5378 29.3579 14.5241 29.4497 14.4944C29.5415 14.4646 29.6253 14.4194 29.6962 14.3615C29.767 14.3035 29.8235 14.234 29.8621 14.1571C29.9007 14.0802 29.9208 13.9974 29.9211 13.9137C29.9131 13.7445 29.8276 13.5846 29.6828 13.4685C29.538 13.3524 29.3455 13.2893 29.1467 13.2929C29.0485 13.2897 28.9506 13.3034 28.8588 13.3331C28.767 13.3629 28.6832 13.4081 28.6123 13.466C28.5415 13.5239 28.485 13.5935 28.4464 13.6704C28.4078 13.7473 28.3877 13.8301 28.3875 13.9137Z" fill="#263238"/>
<path d="M27.1929 12.0231C27.2916 12.1051 27.8458 11.7149 28.6633 11.6782C29.4807 11.6416 30.1058 11.9649 30.1817 11.8744C30.2222 11.8356 30.1159 11.6868 29.8451 11.5359C29.4773 11.3433 29.0486 11.2522 28.6177 11.2751C28.1923 11.2932 27.7846 11.4261 27.4536 11.6545C27.2182 11.8313 27.1423 11.9886 27.1929 12.0231Z" fill="#263238"/>
<path d="M35.7974 13.9288C35.8053 14.0981 35.8908 14.258 36.0356 14.3741C36.1804 14.4902 36.3729 14.5532 36.5718 14.5497C36.67 14.5532 36.768 14.5397 36.86 14.5101C36.952 14.4804 37.0359 14.4353 37.1069 14.3773C37.1778 14.3193 37.2342 14.2496 37.2727 14.1726C37.3113 14.0955 37.3311 14.0126 37.331 13.9288C37.3231 13.7596 37.2375 13.5997 37.0927 13.4836C36.9479 13.3675 36.7554 13.3045 36.5566 13.308C36.4583 13.3045 36.3603 13.318 36.2683 13.3476C36.1764 13.3772 36.0924 13.4224 36.0215 13.4804C35.9505 13.5384 35.8941 13.6081 35.8556 13.6851C35.8171 13.7622 35.7973 13.8451 35.7974 13.9288Z" fill="#263238"/>
<path d="M35.2304 11.939C35.3317 12.021 35.8859 11.6308 36.7033 11.5941C37.5207 11.5575 38.1433 11.8808 38.2217 11.7903C38.2648 11.7515 38.1585 11.6027 37.8851 11.4518C37.5183 11.2591 37.0904 11.168 36.6603 11.191C36.2342 11.2096 35.8259 11.3424 35.4936 11.5704C35.2684 11.7472 35.1823 11.9045 35.2304 11.939Z" fill="#263238"/>
<path d="M32.6314 17.4342C32.6314 17.3932 32.1252 17.3415 31.2876 17.2897C31.0775 17.2897 30.8776 17.2552 30.8346 17.1345C30.8049 16.9512 30.842 16.7646 30.9409 16.5999C31.1096 16.1601 31.2876 15.6988 31.4748 15.2159C32.2113 13.2455 32.7402 11.6286 32.639 11.6049C32.5377 11.5812 31.8798 13.1571 31.1357 15.1275C30.967 15.6132 30.7983 16.0775 30.6296 16.5201C30.5124 16.7407 30.4891 16.9892 30.5638 17.2229C30.5985 17.2845 30.649 17.3385 30.7117 17.3811C30.7744 17.4237 30.8475 17.4536 30.9257 17.4687C31.0431 17.489 31.1628 17.4976 31.2825 17.4945C32.1151 17.4945 32.6289 17.473 32.6314 17.4342Z" fill="#263238"/>
<path d="M35.071 17.8071C34.9369 17.8071 34.9824 18.5638 34.2561 19.1351C33.5298 19.7064 32.5782 19.6676 32.5782 19.7818C32.5782 19.8292 32.7984 19.9198 33.1983 19.9112C33.7198 19.8935 34.2173 19.7194 34.6028 19.4196C34.9725 19.1327 35.1967 18.7346 35.2279 18.3094C35.2431 17.9817 35.1317 17.7985 35.071 17.8071Z" fill="#263238"/>
<path d="M35.0988 9.10637C35.19 9.29392 36.0023 9.16673 36.969 9.22062C37.9358 9.27452 38.7279 9.46207 38.8443 9.28745C38.8949 9.20338 38.7507 9.03091 38.4242 8.85629C37.9913 8.65141 37.5096 8.53275 37.0152 8.50923C36.5208 8.4857 36.0265 8.55793 35.5696 8.72048C35.2254 8.8606 35.0584 9.01798 35.0988 9.10637Z" fill="#263238"/>
<path d="M27.3853 9.69489C27.5396 9.84579 28.0913 9.65608 28.7696 9.61728C29.4478 9.57848 30.0349 9.66687 30.1513 9.4944C30.2045 9.41033 30.1032 9.25726 29.8426 9.11929C29.498 8.94748 29.0988 8.87208 28.7012 8.90371C28.3026 8.92837 27.9226 9.05709 27.613 9.27235C27.3853 9.44913 27.3169 9.61512 27.3853 9.69489Z" fill="#263238"/>
<path d="M44.098 14.1164C44.1866 14.0776 47.7017 13.0256 47.7802 16.1342C47.8587 19.2429 44.179 18.6694 44.1714 18.5811C44.1638 18.4927 44.098 14.1164 44.098 14.1164Z" fill="#664635"/>
<path d="M45.2546 17.3824C45.2697 17.3824 45.3203 17.4191 45.4292 17.4579C45.5809 17.5105 45.7507 17.5105 45.9024 17.4579C46.2871 17.3307 46.5984 16.8112 46.6009 16.242C46.6037 15.9754 46.5363 15.7117 46.4035 15.4703C46.3668 15.3738 46.3032 15.2863 46.2181 15.2153C46.1331 15.1444 46.0291 15.092 45.9151 15.0628C45.8415 15.0476 45.7641 15.0548 45.6961 15.0831C45.6282 15.1115 45.574 15.1592 45.5431 15.218C45.4975 15.3064 45.5203 15.3689 45.5026 15.3732C45.4848 15.3776 45.4216 15.3237 45.4494 15.1943C45.4665 15.1173 45.5149 15.0478 45.5861 14.9981C45.6845 14.9311 45.8101 14.9001 45.9353 14.9119C46.0862 14.934 46.228 14.9888 46.3468 15.0711C46.4656 15.1535 46.5574 15.2605 46.6135 15.3819C46.7776 15.6479 46.8644 15.9436 46.8666 16.2442C46.8666 16.8694 46.4971 17.4644 45.9733 17.6023C45.8758 17.6286 45.7727 17.6359 45.6715 17.6236C45.5702 17.6113 45.4736 17.5797 45.3887 17.5312C45.2647 17.4557 45.2419 17.3868 45.2546 17.3824Z" fill="#463026"/>
<path d="M28.2178 5.01681C27.6231 4.74518 29.3718 3.096 30.8143 2.51825C32.9958 1.65593 36.3388 1.08896 38.3685 1.55461C40.8131 2.11727 42.8504 3.12618 44.1031 5.00387C45.3558 6.88157 45.8467 9.074 45.8062 11.2298C45.8062 11.8765 45.7252 12.575 45.3229 13.1355C44.8167 13.8275 43.85 14.2716 43.9082 15.218C43.9364 15.5612 43.8056 15.9002 43.5438 16.1622C42.8858 16.7745 42.0582 16.214 41.6736 15.6492C40.8536 14.4398 40.7423 12.9868 40.6613 11.592C40.5955 10.6003 40.5348 9.58924 40.8486 8.63207C41.0181 8.11252 41.299 7.621 41.4357 7.09283C41.5724 6.56466 41.5445 5.96751 41.1523 5.54282C41.0618 5.45131 40.9618 5.36689 40.8536 5.29059C40.3376 4.91652 39.7139 4.66639 39.0466 4.56598C38.3794 4.46556 37.6928 4.51849 37.0576 4.71931C35.0102 5.36604 31.5153 6.32537 30.5891 5.74115C29.2579 4.90039 28.934 4.34636 28.934 4.34636L28.2178 5.01681Z" fill="#263238"/>
<path d="M38.1712 1.13423C36.1466 0.586656 33.869 0.640552 32.0089 1.48993C31.0194 1.94049 30.1311 2.65622 29.8401 3.57889C29.5491 4.50157 30.0299 5.63121 31.0751 5.98044L31.1459 6.01709C32.7099 6.44825 33.7197 6.25854 35.2659 5.78427C36.5642 5.38329 37.7182 4.68481 39.019 4.2903C40.4152 3.87116 41.9266 3.81711 43.3591 4.13509C41.9419 2.79634 40.1856 1.68395 38.1712 1.13423Z" fill="#263238"/>
<path d="M45.1102 4.2084C45.0799 4.23211 44.7863 3.93461 44.1941 3.58538C43.8497 3.37994 43.4776 3.21057 43.0857 3.08092C42.6166 2.91531 42.1097 2.84164 41.6027 2.86534C40.6743 2.95456 39.7944 3.26544 39.0644 3.76215C38.5 4.14372 38.2394 4.46278 38.2039 4.44122C38.1685 4.41967 38.2444 4.34637 38.3634 4.20193C38.5358 3.99957 38.7344 3.81444 38.9556 3.65005C39.6923 3.09322 40.6154 2.74715 41.5951 2.66054C42.1389 2.63412 42.6824 2.71683 43.1818 2.90199C43.5859 3.04524 43.9649 3.2353 44.308 3.46681C44.885 3.85916 45.1381 4.19762 45.1102 4.2084Z" fill="#455A64"/>
<path d="M45.4748 5.31002C45.5026 5.31002 45.4393 5.66573 45.1989 6.19821C44.5424 7.59165 43.3372 8.7471 41.79 9.46638C41.4833 9.62973 41.1448 9.74508 40.7904 9.807C40.7474 9.74664 42.3215 9.23787 43.6476 7.94655C44.9737 6.65523 45.3912 5.282 45.4748 5.31002Z" fill="#455A64"/>
<path d="M46.9603 5.81445C46.9882 5.93079 46.9933 6.05024 46.9755 6.168C46.9548 6.48967 46.9015 6.80921 46.816 7.12302C46.5372 8.16946 45.958 9.14064 45.1303 9.94955C44.3027 10.7585 43.2523 11.3798 42.0735 11.758C41.7202 11.8725 41.3562 11.9612 40.9853 12.0231C40.8547 12.0555 40.7188 12.0701 40.5829 12.0662C40.5829 12.0296 41.1574 11.9434 42.0203 11.6351C43.1474 11.2312 44.1514 10.6134 44.9558 9.82887C45.7601 9.04432 46.3436 8.11369 46.6616 7.10793C46.9097 6.3146 46.9097 5.81445 46.9603 5.81445Z" fill="#455A64"/>
<path d="M34.003 0.85614C34.003 0.890633 33.6259 0.966086 33.0363 1.16657C31.4961 1.6867 30.1868 2.60598 29.2934 3.79448C28.9492 4.2472 28.7872 4.55763 28.7493 4.54254C28.8228 4.25034 28.9564 3.97152 29.1441 3.71903C29.5624 3.08913 30.1131 2.53011 30.7688 2.06985C31.4231 1.60916 32.1723 1.25608 32.9781 1.0286C33.3043 0.91761 33.6518 0.859132 34.003 0.85614Z" fill="#455A64"/>
<path d="M48.1042 1.24205C48.1649 1.24205 48.0055 2.14317 47.1805 2.96668C46.3554 3.7902 45.3482 4.09416 45.3406 4.04458C45.333 3.995 46.2238 3.62851 46.9932 2.83518C47.7625 2.04185 48.0333 1.2205 48.1042 1.24205Z" fill="#455A64"/>
<path d="M36.5591 15.8195C36.5591 15.8425 36.5511 15.865 36.5361 15.8842C36.521 15.9033 36.4997 15.9182 36.4747 15.927C36.4498 15.9358 36.4223 15.9381 36.3958 15.9337C36.3693 15.9292 36.3449 15.9181 36.3258 15.9018C36.3067 15.8855 36.2937 15.8648 36.2884 15.8422C36.2831 15.8196 36.2858 15.7962 36.2962 15.7749C36.3065 15.7537 36.324 15.7355 36.3465 15.7227C36.369 15.7099 36.3954 15.7031 36.4224 15.7031C36.4587 15.7031 36.4934 15.7153 36.5191 15.7372C36.5447 15.759 36.5591 15.7886 36.5591 15.8195Z" fill="#463026"/>
<path d="M37.4271 15.9359C37.5025 15.9359 37.5637 15.8838 37.5637 15.8195C37.5637 15.7552 37.5025 15.7031 37.4271 15.7031C37.3516 15.7031 37.2904 15.7552 37.2904 15.8195C37.2904 15.8838 37.3516 15.9359 37.4271 15.9359Z" fill="#463026"/>
<path d="M53.4017 37.6106L37.6935 33.6139C37.4256 33.5457 37.1436 33.6754 37.0636 33.9036L30.5866 52.3764C30.5066 52.6046 30.6588 52.8448 30.9267 52.9129L46.6349 56.9097C46.9027 56.9778 47.1847 56.8481 47.2647 56.6199L53.7418 38.1471C53.8218 37.9189 53.6695 37.6787 53.4017 37.6106Z" fill="#455A64"/>
<path d="M31.4065 50.1806C31.0851 50.1282 30.7965 49.9792 30.5931 49.7608C30.3896 49.5425 30.285 49.2692 30.2981 48.9906C30.3195 48.6857 30.48 48.4001 30.7453 48.1946C31.0105 47.9891 31.3596 47.88 31.7179 47.8907C32.0762 47.9014 32.4155 48.031 32.6632 48.2518C32.9109 48.4726 33.0476 48.7671 33.0439 49.0725H32.7908C32.7984 48.8902 32.7446 48.7098 32.6356 48.5527C32.5266 48.3957 32.3671 48.2685 32.1759 48.1862C31.9847 48.1039 31.7699 48.0701 31.5568 48.0885C31.3437 48.107 31.1413 48.1771 30.9736 48.2906C30.8058 48.404 30.6796 48.556 30.6101 48.7285C30.5405 48.9011 30.5305 49.087 30.5811 49.2643C30.6317 49.4416 30.7409 49.6028 30.8957 49.7289C31.0505 49.855 31.2444 49.9407 31.4546 49.9758L31.4065 50.1806Z" fill="#263238"/>
<path d="M31.9784 48.5939C31.7208 48.551 31.483 48.446 31.2932 48.2915C31.1034 48.1371 30.9695 47.9395 30.9073 47.7223C30.8452 47.505 30.8574 47.2771 30.9425 47.0656C31.0277 46.854 31.1821 46.6677 31.3877 46.5286C31.5932 46.3895 31.8412 46.3034 32.1024 46.2806C32.3635 46.2578 32.6269 46.2992 32.8613 46.3999C33.0957 46.5006 33.2913 46.6564 33.425 46.8489C33.5587 47.0413 33.6249 47.2623 33.6158 47.4858H33.3627C33.3728 47.3582 33.3526 47.2302 33.3035 47.1094C33.2544 46.9885 33.1772 46.8773 33.0767 46.7823C32.9761 46.6873 32.8542 46.6105 32.7182 46.5565C32.5821 46.5024 32.4347 46.4721 32.2847 46.4675C32.1346 46.4629 31.985 46.484 31.8447 46.5296C31.7044 46.5751 31.5763 46.6442 31.468 46.7328C31.3597 46.8213 31.2733 46.9275 31.214 47.045C31.1548 47.1625 31.1238 47.289 31.1231 47.4169C31.1117 47.644 31.1968 47.8671 31.3627 48.0453C31.5286 48.2234 31.7642 48.3447 32.0265 48.387L31.9784 48.5939Z" fill="#263238"/>
<path d="M32.5402 47.0051C32.2825 46.9621 32.0447 46.8571 31.8548 46.7025C31.665 46.548 31.5311 46.3503 31.4691 46.1329C31.407 45.9155 31.4194 45.6875 31.5047 45.476C31.5901 45.2644 31.7448 45.0781 31.9506 44.9391C32.1564 44.8001 32.4046 44.7143 32.6659 44.6917C32.9272 44.6692 33.1906 44.7109 33.4249 44.8119C33.6592 44.9129 33.8546 45.069 33.988 45.2617C34.1214 45.4544 34.1872 45.6756 34.1776 45.8992H33.9245C33.9334 45.7103 33.876 45.5234 33.7598 45.3623C33.6435 45.2012 33.4737 45.0732 33.2718 44.9946C33.0699 44.916 32.8451 44.8904 32.6261 44.921C32.407 44.9515 32.2036 45.0369 32.0417 45.1662C31.8902 45.2858 31.7806 45.4388 31.7249 45.6083C31.6693 45.7777 31.6698 45.957 31.7264 46.1262C31.783 46.2954 31.8935 46.4479 32.0456 46.5669C32.1977 46.6859 32.3856 46.7667 32.5883 46.8003L32.5402 47.0051Z" fill="#263238"/>
<path d="M33.1071 45.4185C32.8494 45.3755 32.6115 45.2704 32.4217 45.1159C32.2319 44.9613 32.098 44.7636 32.036 44.5462C31.9739 44.3288 31.9863 44.1009 32.0716 43.8893C32.157 43.6777 32.3117 43.4914 32.5175 43.3524C32.7233 43.2134 32.9715 43.1276 33.2328 43.1051C33.4941 43.0825 33.7574 43.1242 33.9918 43.2252C34.2261 43.3262 34.4215 43.4824 34.5549 43.6751C34.6883 43.8677 34.7541 44.089 34.7445 44.3125H34.4914C34.499 44.1302 34.4451 43.9498 34.3362 43.7927C34.2272 43.6357 34.0677 43.5085 33.8765 43.4262C33.6853 43.344 33.4705 43.3101 33.2574 43.3286C33.0443 43.3471 32.8419 43.4172 32.6741 43.5306C32.5064 43.644 32.3802 43.796 32.3107 43.9685C32.2411 44.1411 32.2311 44.327 32.2817 44.5043C32.3323 44.6816 32.4414 44.8428 32.5963 44.9689C32.7511 45.095 32.945 45.1807 33.1552 45.2158L33.1071 45.4185Z" fill="#263238"/>
<path d="M33.674 43.8318C33.4254 43.7903 33.1952 43.6912 33.0086 43.5453C32.8221 43.3994 32.6865 43.2124 32.6168 43.0049C32.5472 42.7975 32.5462 42.5777 32.6139 42.3698C32.6817 42.1619 32.8156 41.9741 33.0008 41.8269C33.1997 41.6689 33.4492 41.5647 33.7177 41.5275C33.9862 41.4904 34.2616 41.5219 34.509 41.6182C34.7564 41.7144 34.9647 41.8711 35.1076 42.0683C35.2504 42.2655 35.3213 42.4943 35.3114 42.7259H35.0583C35.0685 42.4729 34.9605 42.2268 34.7579 42.0417C34.5552 41.8566 34.2746 41.7475 33.9777 41.7385C33.8307 41.7339 33.6842 41.754 33.5464 41.7977C33.4086 41.8414 33.2823 41.9077 33.1747 41.993C33.067 42.0783 32.9801 42.1809 32.9191 42.2948C32.858 42.4087 32.8238 42.5317 32.8186 42.6569C32.8072 42.8843 32.8921 43.1077 33.058 43.2862C33.2239 43.4647 33.4596 43.5864 33.7221 43.6292L33.674 43.8318Z" fill="#263238"/>
<path d="M34.2409 42.2473C33.9923 42.2058 33.7621 42.1067 33.5755 41.9607C33.389 41.8148 33.2534 41.6278 33.1837 41.4204C33.1141 41.213 33.1131 40.9932 33.1808 40.7853C33.2486 40.5774 33.3825 40.3895 33.5677 40.2424C33.8357 40.0317 34.1902 39.9194 34.5547 39.9298C34.7349 39.9348 34.9123 39.9701 35.0765 40.0337C35.2407 40.0972 35.3885 40.1878 35.5115 40.3002C35.6345 40.4126 35.7302 40.5445 35.7932 40.6885C35.8561 40.8325 35.885 40.9857 35.8782 41.1392H35.6252C35.6354 40.8862 35.5274 40.6402 35.3247 40.455C35.1221 40.2699 34.8415 40.1608 34.5446 40.1518C34.2641 40.1454 33.991 40.2288 33.7792 40.3855C33.5674 40.5422 33.4322 40.7609 33.4004 40.9983C33.3687 41.2358 33.4425 41.4748 33.6075 41.6681C33.7725 41.8614 34.0165 41.995 34.2915 42.0425L34.2409 42.2473Z" fill="#263238"/>
<path d="M34.8079 40.6585C34.4733 40.6031 34.1749 40.4437 33.9705 40.2113C33.7661 39.979 33.6704 39.6902 33.7019 39.4011C33.7335 39.112 33.89 38.8432 34.1412 38.6469C34.3923 38.4506 34.7201 38.3408 35.0609 38.3389H35.1116C35.4754 38.3507 35.819 38.4848 36.067 38.7118C36.3151 38.9389 36.4474 39.2404 36.4351 39.5504H36.182C36.1921 39.4228 36.172 39.2948 36.1228 39.1739C36.0737 39.0531 35.9966 38.9419 35.896 38.8469C35.7955 38.7519 35.6735 38.6751 35.5375 38.621C35.4014 38.567 35.254 38.5367 35.104 38.5321C34.9539 38.5275 34.8043 38.5486 34.664 38.5941C34.5238 38.6397 34.3956 38.7088 34.2873 38.7973C34.179 38.8859 34.0926 38.9921 34.0334 39.1096C33.9741 39.2271 33.9432 39.3535 33.9424 39.4814C33.931 39.7086 34.0161 39.9317 34.182 40.1098C34.3479 40.288 34.5835 40.4093 34.8458 40.4515L34.8079 40.6585Z" fill="#263238"/>
<path d="M35.3747 39.0718C35.1171 39.0288 34.8793 38.9239 34.6895 38.7695C34.4996 38.615 34.3657 38.4174 34.3036 38.2002C34.2414 37.9829 34.2537 37.755 34.3388 37.5435C34.4239 37.3319 34.5784 37.1456 34.7839 37.0065C34.9895 36.8674 35.2375 36.7813 35.4986 36.7585C35.7598 36.7357 36.0231 36.7771 36.2575 36.8778C36.4919 36.9786 36.6875 37.1343 36.8212 37.3268C36.955 37.5192 37.0212 37.7403 37.012 37.9637H36.759C36.7671 37.7813 36.7136 37.6008 36.6049 37.4434C36.4963 37.2861 36.3369 37.1586 36.1458 37.076C35.9547 36.9934 35.7398 36.9593 35.5266 36.9775C35.3134 36.9957 35.1108 37.0656 34.9428 37.1789C34.7748 37.2923 34.6484 37.4442 34.5786 37.6168C34.5089 37.7894 34.4986 37.9754 34.5491 38.1528C34.5996 38.3302 34.7088 38.4916 34.8636 38.6178C35.0184 38.744 35.2125 38.8297 35.4228 38.8649L35.3747 39.0718Z" fill="#263238"/>
<path d="M35.9416 37.483C35.693 37.4416 35.4627 37.3424 35.2762 37.1965C35.0896 37.0506 34.954 36.8636 34.8844 36.6561C34.8148 36.4487 34.8138 36.2289 34.8815 36.021C34.9493 35.8132 35.0832 35.6253 35.2684 35.4781C35.4673 35.3201 35.7168 35.2159 35.9853 35.1787C36.2538 35.1416 36.5292 35.1731 36.7766 35.2694C37.024 35.3656 37.2323 35.5223 37.3752 35.7195C37.518 35.9167 37.5889 36.1455 37.5789 36.3771H37.3259C37.3335 36.1948 37.2796 36.0144 37.1706 35.8573C37.0616 35.7002 36.9021 35.573 36.7109 35.4908C36.5197 35.4085 36.3049 35.3746 36.0918 35.3931C35.8787 35.4116 35.6763 35.4817 35.5086 35.5951C35.3408 35.7086 35.2147 35.8605 35.1451 36.0331C35.0756 36.2057 35.0655 36.3916 35.1161 36.5689C35.1667 36.7462 35.2759 36.9074 35.4307 37.0335C35.5855 37.1596 35.7795 37.2452 35.9896 37.2804L35.9416 37.483Z" fill="#263238"/>
<path d="M36.5084 35.8963C36.2599 35.8549 36.0296 35.7557 35.8431 35.6098C35.6565 35.4639 35.5209 35.2769 35.4513 35.0695C35.3816 34.862 35.3807 34.6422 35.4484 34.4344C35.5162 34.2265 35.6501 34.0386 35.8353 33.8915C36.0342 33.7334 36.2837 33.6292 36.5522 33.5921C36.8207 33.5549 37.0961 33.5864 37.3435 33.6827C37.5909 33.779 37.7992 33.9356 37.942 34.1328C38.0849 34.33 38.1558 34.5589 38.1458 34.7904H37.8927C37.9003 34.6081 37.8465 34.4277 37.7375 34.2706C37.6285 34.1136 37.469 33.9864 37.2778 33.9041C37.0866 33.8218 36.8718 33.788 36.6587 33.8065C36.4456 33.8249 36.2432 33.8951 36.0755 34.0085C35.9077 34.1219 35.7816 34.2739 35.712 34.4464C35.6425 34.619 35.6324 34.8049 35.683 34.9822C35.7336 35.1595 35.8428 35.3207 35.9976 35.4468C36.1524 35.5729 36.3464 35.6586 36.5565 35.6937L36.5084 35.8963Z" fill="#263238"/>
<path d="M30.8397 51.7673C30.583 51.7232 30.3463 51.6176 30.1577 51.4628C29.9691 51.308 29.8363 51.1105 29.7751 50.8935C29.7138 50.6766 29.7266 50.4493 29.8119 50.2384C29.8973 50.0274 30.0516 49.8416 30.2567 49.7029C30.4619 49.5642 30.7093 49.4783 30.9698 49.4554C31.2303 49.4324 31.4931 49.4734 31.7272 49.5734C31.9613 49.6734 32.157 49.8284 32.2912 50.02C32.4254 50.2116 32.4925 50.4319 32.4847 50.6549H32.2316C32.2392 50.4664 32.1811 50.2802 32.0646 50.1198C31.9482 49.9593 31.7785 49.8319 31.5771 49.7535C31.3757 49.6751 31.1516 49.6493 30.933 49.6792C30.7144 49.7092 30.5111 49.7937 30.3488 49.9219C30.1975 50.0418 30.088 50.195 30.0325 50.3645C29.9769 50.534 29.9775 50.7133 30.034 50.8826C30.0906 51.0519 30.2009 51.2046 30.3529 51.3238C30.5049 51.443 30.6927 51.5241 30.8954 51.5582L30.8397 51.7673Z" fill="#263238"/>
<path d="M32.7504 50.5341C33.0313 49.9241 36.0605 40.846 37.4448 37.1187C37.6113 36.7125 37.955 36.3766 38.4046 36.1807C38.8542 35.9848 39.3751 35.9439 39.8591 36.0666L55.4205 40.0074C55.8732 40.133 56.251 40.4036 56.4739 40.762C56.6968 41.1204 56.7474 41.5386 56.6149 41.9282L49.7365 62.225C49.6031 62.6191 49.2934 62.9529 48.8741 63.1544C48.4547 63.356 47.9593 63.4093 47.4943 63.3029L31.6368 59.6531C31.402 59.5989 31.1822 59.5054 30.9901 59.3782C30.798 59.2509 30.6375 59.0925 30.5179 58.912C30.3983 58.7315 30.322 58.5325 30.2934 58.3267C30.2648 58.1208 30.2844 57.9122 30.3512 57.7129L32.7149 50.6161L32.7504 50.5341Z" fill="white"/>
<path d="M38.3053 35.6204C38.0034 35.5518 37.682 35.5855 37.4088 35.7146C37.1355 35.8437 36.9316 36.0579 36.84 36.3124C35.6834 39.5461 31.9456 49.9607 31.6672 50.6096L28.9113 58.3036C28.8633 58.4359 28.8474 58.5752 28.8644 58.7129C28.8814 58.8506 28.9311 58.9839 29.0103 59.1049C29.0895 59.2258 29.1968 59.3317 29.3255 59.4163C29.4542 59.5009 29.6017 59.5624 29.7591 59.5971L46.8439 63.374C47.1481 63.4413 47.4711 63.4048 47.7443 63.2724C48.0174 63.1399 48.2192 62.9219 48.3066 62.6648L55.7494 40.6757C55.7939 40.5446 55.8073 40.4073 55.7888 40.2718C55.7702 40.1363 55.7201 40.0053 55.6414 39.8864C55.5627 39.7676 55.457 39.6633 55.3304 39.5797C55.2038 39.4961 55.0589 39.4348 54.9042 39.3995L38.3053 35.6204Z" fill="#E0E0E0"/>
<path d="M38.3052 35.6204L38.5583 35.67L39.2643 35.8252L41.9697 36.4267L51.9407 38.6838L53.5553 39.0503L54.3904 39.24L54.813 39.337C54.9627 39.3638 55.1063 39.4111 55.2382 39.4771C55.5088 39.6165 55.7084 39.8373 55.7975 40.0958C55.843 40.2257 55.8584 40.3619 55.843 40.4968C55.8205 40.6294 55.7841 40.7599 55.7342 40.887L55.2129 42.4327C54.5043 44.5281 53.7501 46.768 52.9529 49.1156C52.1558 51.4633 51.3206 53.9468 50.4526 56.5121C50.0207 57.7941 49.5795 59.0984 49.129 60.4249C48.9063 61.0874 48.6811 61.7543 48.4533 62.4255L48.3673 62.6777C48.3361 62.7661 48.2918 62.8509 48.2357 62.9299C48.1236 63.0895 47.9649 63.2217 47.7751 63.3137C47.4865 63.4516 47.1466 63.4894 46.8261 63.4193L46.5249 63.3525L37.1335 61.2721L32.6693 60.2826L30.5056 59.8019L29.9716 59.6833C29.7868 59.652 29.6079 59.599 29.4401 59.5259C29.2741 59.4455 29.1317 59.3341 29.0234 59.2C28.9151 59.066 28.8439 58.9128 28.815 58.752C28.7871 58.5927 28.8 58.4302 28.853 58.2756C28.9061 58.1311 28.9593 57.9845 29.0099 57.8444L29.3212 56.9821C29.5262 56.4108 29.7286 55.846 29.9286 55.292L31.0902 52.0583L33.1932 46.2592C34.4838 42.7172 35.5265 39.8522 36.2503 37.8689C36.4325 37.373 36.5919 36.9333 36.7336 36.5517C36.7848 36.3715 36.8649 36.1981 36.9715 36.0365C37.0708 35.9059 37.2042 35.7967 37.3612 35.7174C37.5727 35.6086 37.8182 35.5575 38.0648 35.5708C38.1507 35.5745 38.2358 35.5876 38.3179 35.6096C38.3179 35.6096 38.2369 35.5924 38.0648 35.5837C37.8226 35.5754 37.5829 35.6286 37.3764 35.7368C37.2253 35.8164 37.0973 35.9239 37.0019 36.0515C36.8983 36.2122 36.8208 36.3841 36.7716 36.5625L36.3009 37.8818C35.5872 39.8673 34.5572 42.7366 33.2843 46.2894C32.6465 48.0614 31.9455 50.006 31.1964 52.0906C30.8236 53.134 30.4389 54.2119 30.0424 55.3243C29.8434 55.8805 29.6417 56.4446 29.4376 57.0166C29.3338 57.3012 29.2326 57.59 29.1289 57.8789C29.0757 58.0234 29.0251 58.1699 28.9719 58.3101C28.9236 58.4499 28.9115 58.597 28.9365 58.7412C28.9626 58.8866 29.0273 59.0251 29.1255 59.1461C29.2237 59.2671 29.3529 59.3675 29.5034 59.4397C29.6634 59.5081 29.8337 59.5574 30.0095 59.5863L30.5435 59.7049L32.7098 60.1835L37.174 61.1708L46.5654 63.249C46.757 63.3033 46.9561 63.3359 47.1576 63.346C47.3539 63.3462 47.5469 63.303 47.7176 63.2206C47.8884 63.1382 48.0312 63.0195 48.1319 62.876C48.2231 62.7245 48.2912 62.5637 48.3344 62.3974C48.5622 61.727 48.7874 61.0587 49.0126 60.3969C49.4614 59.0732 49.9026 57.7697 50.3362 56.4863C51.2068 53.923 52.0444 51.4482 52.8441 49.0919C53.6438 46.7356 54.403 44.4979 55.1218 42.409L55.6456 40.8633C55.6936 40.7418 55.7291 40.617 55.7519 40.4903C55.7651 40.3664 55.7514 40.2414 55.7114 40.1217C55.6311 39.8852 55.4508 39.6825 55.2053 39.5525C55.0809 39.4911 54.946 39.4467 54.8054 39.421L54.3828 39.324L53.5477 39.1343L51.9331 38.7635L41.9747 36.4719L39.2669 35.8446L38.5659 35.6764C38.3887 35.6441 38.3052 35.6204 38.3052 35.6204Z" fill="#263238"/>
<g opacity="0.3">
<path d="M39.5276 56.967L29.4048 56.303C29.5339 56.9498 30.121 57.4564 30.7967 57.7496C31.4903 58.015 32.2278 58.1881 32.9832 58.2627L36.4224 58.7499C36.8603 58.8124 37.3234 58.8835 37.6498 59.1401C37.9763 59.3966 38.1231 59.845 38.3964 60.1791C38.8494 60.7267 39.6617 60.9531 40.421 61.1428C43.4006 61.9142 46.4256 62.5525 49.4834 63.055C50.3312 63.1865 51.2119 63.3029 52.0521 63.1283C52.8923 62.9536 53.6869 62.4212 53.8236 61.6947L39.5276 56.967Z" fill="black"/>
</g>
<path d="M39.0164 35.9955C39.0493 35.9955 37.1336 41.2987 34.7345 47.8222C32.3353 54.3456 30.3639 59.6251 30.3285 59.6165C30.2931 59.6079 32.2113 54.3111 34.6104 47.7877C37.0096 41.2643 38.981 35.9826 39.0164 35.9955Z" fill="#263238"/>
<path d="M50.8458 43.4172L40.9912 40.9098L39.5181 45.1113L49.3727 47.6186L50.8458 43.4172Z" fill="white"/>
<path d="M40.9701 50.7734C40.9701 50.7734 38.4698 47.9364 37.5663 47.2918C36.6629 46.6473 32.9174 47.1625 32.9174 47.1625L31.2927 48.6198C31.2927 48.6198 31.6116 49.7279 33.13 49.1803L33.5526 48.9087H35.2887L36.3668 49.9866L32.9908 49.9262C32.9908 49.9262 31.3281 49.0057 30.9485 49.0057C30.5689 49.0057 29.6579 49.6287 30.3184 50.7303C30.3184 50.7303 29.053 51.0774 29.4908 52.5455C29.4908 52.5455 28.4305 52.7934 29.3972 54.5331L29.5187 54.7315C29.5187 54.7315 28.4102 55.1799 29.1391 56.1737C29.8679 57.1675 31.7077 57.4672 32.262 57.4413C32.8162 57.4154 42.7948 58.6679 42.7948 58.6679L45.49 52.6964L40.9701 50.7734Z" fill="#664635"/>
<path d="M33.4082 52.2243C33.2302 52.2457 33.0491 52.2384 32.8743 52.2027C32.0105 52.0772 31.2221 51.7064 30.6371 51.1507C30.5091 51.0429 30.4045 50.9167 30.3284 50.7777C31.116 51.5612 32.2101 52.0751 33.4082 52.2243Z" fill="#463026"/>
<path d="M31.8089 54.1343C31.6517 54.122 31.4987 54.0839 31.3584 54.0222C30.653 53.7738 30.0404 53.3661 29.587 52.843C29.4855 52.7409 29.4066 52.6241 29.3541 52.498C29.6921 52.8425 30.0619 53.1633 30.46 53.4574C30.8862 53.7154 31.3375 53.9418 31.8089 54.1343Z" fill="#463026"/>
<path d="M31.814 55.8654C31.3457 55.8212 30.8946 55.6894 30.493 55.4795C30.0704 55.3019 29.6982 55.0481 29.4022 54.7358C29.4301 54.7099 29.8881 55.0721 30.5562 55.3825C31.2243 55.6929 31.8241 55.8288 31.814 55.8654Z" fill="#463026"/>
<path d="M66.1052 54.5633L55.2611 53.1254L42.5139 51.0731L39.5327 59.61C39.5327 59.61 54.7676 63.415 58.9407 63.8828C63.3998 64.383 65.1283 63.8828 66.5329 61.3864C67.4388 59.7954 66.8796 56.6027 66.1052 54.5633Z" fill="#155332"/>
<path d="M55.9999 63.3935C55.9724 63.392 55.9452 63.3877 55.9189 63.3805L55.681 63.3309L54.7624 63.1283L51.3307 62.3565L39.5098 59.6618L39.4465 59.6489L39.4668 59.595C40.0615 57.8897 40.7043 56.0465 41.3673 54.1408L42.4454 51.058L42.4631 51.0085L42.5213 51.0192L56.4833 53.3733L60.6083 54.0826L61.7193 54.2766L62.0053 54.3305L62.1014 54.3521C62.0686 54.3544 62.0356 54.3544 62.0027 54.3521L61.7142 54.309L60.5982 54.1322L56.4656 53.4574L42.496 51.1378L42.5694 51.099C42.2253 52.0907 41.8634 53.1276 41.4939 54.1818C40.8283 56.0896 40.183 57.9328 39.5883 59.6359L39.5427 59.5691L51.351 62.2962L54.7725 63.0981L55.6861 63.3137L55.9214 63.3719L55.9999 63.3935Z" fill="#263238"/>
</svg>
