<svg width="105" height="95" viewBox="0 0 105 95" fill="none" xmlns="http://www.w3.org/2000/svg">
<path d="M97.8243 90.1835C97.8243 90.212 77.511 90.2329 52.4643 90.2329C27.4176 90.2329 7.10431 90.212 7.10431 90.1835C7.10431 90.155 27.4134 90.1341 52.4748 90.1341C77.5362 90.1341 97.8243 90.1569 97.8243 90.1835Z" fill="#263238"/>
<path d="M35.7231 46.3828L35.9688 28.12C36.1935 23.5771 33.4593 19.6726 28.4319 19.5947L27.9678 19.6118C25.7115 19.6957 23.5728 20.5452 21.9773 21.9911C20.3819 23.4371 19.4466 25.3735 19.3578 27.4151C19.1877 31.35 19.0554 35.701 19.1793 37.81C19.4376 42.1667 24.2886 42.6645 24.2886 42.6645C24.2886 42.6645 24.318 45.3245 24.3159 46.5975L24.5847 49.6071L27.1488 48.716L35.7231 46.3828Z" fill="#9F6958"/>
<path d="M24.3138 42.6854C24.3138 42.6854 27.3588 42.7348 30.513 40.774C30.513 40.774 29.1522 44.1085 24.3264 43.8957L24.3138 42.6854Z" fill="#6F4439"/>
<path d="M21.5019 31.0194C21.5079 31.1817 21.5837 31.3355 21.7131 31.448C21.8426 31.5605 22.0154 31.6228 22.1949 31.6217C22.2826 31.6248 22.3701 31.6119 22.4522 31.5839C22.5344 31.5558 22.6094 31.5132 22.673 31.4585C22.7367 31.4037 22.7875 31.338 22.8226 31.2652C22.8577 31.1924 22.8763 31.114 22.8774 31.0346C22.8719 30.8723 22.7967 30.7184 22.6676 30.6055C22.5386 30.4927 22.366 30.4299 22.1865 30.4304C22.0986 30.4276 22.0109 30.4407 21.9287 30.469C21.8464 30.4972 21.7712 30.54 21.7075 30.5948C21.6437 30.6497 21.5927 30.7155 21.5574 30.7884C21.5221 30.8613 21.5032 30.9398 21.5019 31.0194Z" fill="#263238"/>
<path d="M20.4708 29.1441C20.559 29.222 21.0651 28.8534 21.8064 28.8287C22.5477 28.804 23.1042 29.1175 23.1819 29.032C23.2197 28.994 23.1252 28.842 22.8816 28.7033C22.5515 28.5146 22.1649 28.423 21.7749 28.4411C21.3922 28.4544 21.0242 28.5783 20.7249 28.7945C20.4981 28.9598 20.4267 29.1099 20.4708 29.1441Z" fill="#263238"/>
<path d="M28.0245 30.8978C28.0305 31.0603 28.1062 31.2143 28.2356 31.3271C28.365 31.4399 28.5378 31.5026 28.7175 31.502C28.8053 31.5051 28.8929 31.4922 28.9751 31.4642C29.0574 31.4362 29.1326 31.3936 29.1964 31.3389C29.2602 31.2842 29.3112 31.2185 29.3465 31.1457C29.3819 31.0729 29.4007 30.9944 29.4021 30.9149C29.3966 30.7523 29.321 30.5981 29.1915 30.4852C29.0621 30.3723 28.8889 30.3097 28.7091 30.3107C28.6213 30.3077 28.5337 30.3206 28.4514 30.3486C28.3692 30.3766 28.294 30.4192 28.2302 30.4739C28.1664 30.5286 28.1153 30.5943 28.08 30.6671C28.0447 30.7399 28.0258 30.8183 28.0245 30.8978Z" fill="#263238"/>
<path d="M27.7368 29.0282C27.8271 29.1061 28.3332 28.7375 29.0724 28.7128C29.8116 28.6881 30.3702 29.0016 30.4479 28.9161C30.4857 28.8781 30.3933 28.7356 30.1476 28.5874C29.8181 28.3991 29.4323 28.3075 29.043 28.3252C28.6603 28.339 28.2925 28.4628 27.993 28.6786C27.7641 28.8439 27.6927 28.994 27.7368 29.0282Z" fill="#263238"/>
<path d="M25.3155 34.276C25.3155 34.238 24.8535 34.1829 24.1038 34.1259C23.9127 34.1145 23.7342 34.0879 23.6964 33.972C23.6726 33.7955 23.7085 33.6167 23.7993 33.459C23.9589 33.0385 24.1255 32.5951 24.2991 32.129C24.99 30.2442 25.4835 28.6976 25.3995 28.6729C25.3155 28.6482 24.6855 30.1568 23.9946 32.0397C23.8287 32.5052 23.6691 32.9479 23.5179 33.3697C23.4089 33.5805 23.3851 33.8192 23.4507 34.0442C23.4812 34.1035 23.5261 34.1559 23.5821 34.1973C23.6381 34.2388 23.7037 34.2683 23.7741 34.2836C23.8795 34.305 23.9874 34.3146 24.0954 34.3121C24.8493 34.3292 25.3134 34.314 25.3155 34.276Z" fill="#263238"/>
<path d="M35.7231 31.2056C35.8029 31.1714 38.9928 30.1967 39.0243 33.1816C39.0558 36.1665 35.7357 35.5775 35.7294 35.492C35.7231 35.4065 35.7231 31.2056 35.7231 31.2056Z" fill="#9F6958"/>
<path d="M36.7248 34.3539C36.7395 34.3444 36.7836 34.39 36.8802 34.428C37.0151 34.4761 37.1652 34.4761 37.3002 34.428C37.6467 34.3083 37.9302 33.8048 37.947 33.2671C37.9519 33.0111 37.8938 32.7574 37.7769 32.5242C37.745 32.4315 37.6888 32.3472 37.6131 32.2784C37.5374 32.2096 37.4445 32.1583 37.3422 32.129C37.2758 32.1136 37.2056 32.1199 37.1438 32.1466C37.082 32.1734 37.0325 32.2189 37.0041 32.2753C36.96 32.3589 36.981 32.4178 36.9642 32.4235C36.9474 32.4292 36.8928 32.3741 36.918 32.2506C36.935 32.1758 36.9803 32.1086 37.0461 32.0606C37.1366 31.9984 37.2501 31.9698 37.3632 31.9808C37.4987 32.0044 37.6253 32.0589 37.7311 32.139C37.8369 32.2191 37.9184 32.3222 37.968 32.4387C38.1121 32.6958 38.1842 32.9809 38.178 33.269C38.1633 33.8713 37.8294 34.4375 37.3527 34.5648C37.2647 34.5892 37.1717 34.5952 37.0808 34.5823C36.9899 34.5695 36.9033 34.5382 36.8277 34.4907C36.7332 34.4261 36.7143 34.3596 36.7248 34.3539Z" fill="#6F4439"/>
<path d="M12.6987 23.3301C12.7563 23.1544 12.8864 23.0054 13.062 22.914C13.4379 22.7088 13.8726 22.724 14.2926 22.724C15.3432 22.6936 16.3726 22.4487 17.304 22.0077C16.9754 21.8666 16.6734 21.6793 16.4094 21.4529C15.8697 20.976 15.5526 20.2426 15.7794 19.5966C15.7943 19.534 15.825 19.4754 15.8691 19.4253C15.9132 19.3752 15.9694 19.335 16.0335 19.3078C16.2435 19.2451 16.4367 19.4351 16.5879 19.5833C17.0856 20.0754 17.5434 20.2844 18.2679 20.2103C18.7116 20.181 19.1423 20.0615 19.5279 19.8607C19.5405 19.8474 19.5531 19.8322 19.5678 19.8189C19.7379 19.6574 19.9038 19.5016 20.0655 19.3534C21.2919 18.2286 22.3482 17.4534 23.4423 17.0335C25.0467 16.4312 27.7368 16.1652 29.421 16.5471C31.1052 16.929 32.6298 18.145 32.8818 19.6992C33.8142 18.9696 35.2296 18.9601 36.3804 19.3667L36.4098 19.3534C37.6929 19.7524 38.4342 20.9665 38.8248 22.1407C38.8458 22.2053 38.8647 22.2699 38.8857 22.3307C39.3235 22.9508 39.9199 23.4663 40.6245 23.8336C40.7484 23.8963 40.8912 23.9742 40.908 24.1034C40.9248 24.2326 40.8051 24.3371 40.698 24.4131C40.3921 24.6137 40.0405 24.7501 39.669 24.8121C39.7866 25.0926 39.9321 25.3629 40.1037 25.6196C40.2507 25.84 40.425 26.1022 40.3011 26.334C40.2446 26.4193 40.1606 26.4869 40.0603 26.5277C39.9601 26.5685 39.8484 26.5804 39.7404 26.562C39.5247 26.5216 39.3208 26.4407 39.1419 26.3245C39.2889 26.6323 39.4359 26.9382 39.5808 27.246C39.1177 27.3216 38.6415 27.2975 38.1906 27.1757C37.9344 28.2815 37.7559 30.324 37.4514 31.0745C36.5757 31.0973 36.3615 31.0137 35.9205 31.1505C35.3535 31.3291 35.5824 32.2411 34.8348 31.9884C34.4547 31.8611 33.8583 30.5691 33.726 30.2214C32.8566 27.9057 32.5479 25.4479 32.8209 23.0147C32.2813 22.5091 31.6398 22.1015 30.9309 21.8139L30.9897 21.8595C29.6352 21.4491 28.1043 21.0482 26.8317 21.6353C25.8447 22.0894 25.2714 23.028 24.5385 23.7785C23.1504 25.2016 21.567 25.9711 19.4712 26.0737C19.299 27.3942 19.2612 29.5488 19.215 30.78L18.0306 28.329V28.3385C17.9361 28.196 17.8563 28.0516 17.7786 27.9053L17.7534 27.8616C17.6316 27.6298 17.514 27.3961 17.3628 27.1662L17.3481 27.1776C16.6194 27.7723 15.5232 26.885 16.0881 26.163C16.2003 26.0179 16.3371 25.8897 16.4934 25.783C16.3283 25.9302 16.1241 26.0363 15.9004 26.0912C15.6768 26.1461 15.4412 26.148 15.2166 26.0965C14.9943 26.0379 14.7996 25.9145 14.6629 25.7454C14.5262 25.5764 14.455 25.3712 14.4606 25.1617C14.4779 25.0201 14.5363 24.8852 14.63 24.7707C14.7237 24.6562 14.8493 24.5663 14.994 24.51C14.3955 24.5583 13.7946 24.4446 13.2678 24.1832C12.9255 24.0046 12.6 23.7196 12.6987 23.3301Z" fill="#263238"/>
<path d="M31.3803 20.2103C31.5541 20.3308 31.7176 20.4629 31.8696 20.6055C32.2556 21.0197 32.5168 21.5171 32.6277 22.0495C32.7143 22.4137 32.7608 22.7847 32.7663 23.1572C32.7663 23.56 32.7432 23.9913 32.7138 24.4454C32.6746 24.9221 32.6683 25.4006 32.6949 25.878C32.7131 26.1338 32.7531 26.3879 32.8146 26.638C32.8592 26.9044 32.9793 27.1557 33.1632 27.3676C33.2485 27.4516 33.3563 27.5143 33.4763 27.5496C33.5962 27.5849 33.7242 27.5916 33.8478 27.569C34.0848 27.5267 34.2992 27.4136 34.4568 27.2479C34.7634 26.9173 34.8348 26.5012 34.9083 26.1326L34.8075 26.1459C34.9579 26.473 35.1594 26.7789 35.406 27.0541C35.6449 27.3096 35.9832 27.4722 36.351 27.5082C36.5224 27.5218 36.6947 27.4922 36.8487 27.4227C36.9917 27.3546 37.1082 27.2485 37.1826 27.1187C37.2514 27.002 37.2847 26.8709 37.2792 26.7387C37.2723 26.6124 37.2157 26.4924 37.1196 26.4005L37.0692 26.4423C37.3617 26.7369 37.7195 26.9725 38.1192 27.1339C38.2243 27.1769 38.3323 27.2137 38.4426 27.2441C38.4798 27.2565 38.5186 27.2648 38.5581 27.2688C38.523 27.2528 38.4865 27.2394 38.4489 27.2289C38.3775 27.2023 38.2704 27.1643 38.136 27.1054C37.7505 26.934 37.407 26.6943 37.1259 26.4005L37.0755 26.4423C37.1542 26.5338 37.2002 26.6449 37.2073 26.7606C37.2144 26.8764 37.1824 26.9914 37.1154 27.0902C37.0467 27.206 36.9414 27.3006 36.813 27.3619C36.6724 27.4221 36.5162 27.4464 36.3615 27.4322C36.0172 27.3893 35.7048 27.2272 35.49 26.98C35.251 26.7105 35.0564 26.4109 34.9125 26.0908L34.8411 25.9521L34.8117 26.1022C34.7382 26.4708 34.6605 26.8622 34.3917 27.1681C34.2505 27.3156 34.0592 27.4165 33.8478 27.455C33.7429 27.4738 33.6345 27.4681 33.5328 27.4385C33.431 27.409 33.3392 27.3564 33.2661 27.2859C33.0955 27.0866 32.9842 26.8512 32.9427 26.6019C32.8819 26.3588 32.8426 26.1116 32.8251 25.8628C32.7969 25.39 32.8004 24.916 32.8356 24.4435C32.8629 23.9894 32.8881 23.5562 32.8776 23.1477C32.8695 22.7696 32.8182 22.3933 32.7243 22.0248C32.6046 21.484 32.3268 20.9821 31.92 20.5713C31.7647 20.4235 31.582 20.3013 31.3803 20.2103Z" fill="#7E7E7E"/>
<path d="M16.4976 24.6145C16.4976 24.6145 16.5102 24.6259 16.5354 24.643L16.6572 24.7228C16.7244 24.7655 16.7945 24.8042 16.8672 24.8387C16.963 24.8894 17.0618 24.935 17.1633 24.9755C17.8139 25.2344 18.5255 25.3428 19.2339 25.2909C20.2879 25.2165 21.2957 24.8681 22.1361 24.2877C23.1456 23.5715 23.9843 22.6776 24.6015 21.66C24.9459 21.128 25.2315 20.5827 25.536 20.0792C25.8169 19.5886 26.174 19.1369 26.5965 18.7378C26.9786 18.3786 27.4534 18.1109 27.9783 17.9588C28.2164 17.8971 28.4636 17.8689 28.7112 17.8752C28.9402 17.8856 29.1668 17.9226 29.3853 17.9854C30.0512 18.1851 30.6102 18.6034 30.9519 19.1577C31.0655 19.365 31.1515 19.5838 31.2081 19.8094C31.2104 19.7943 31.2104 19.779 31.2081 19.7638C31.2081 19.7277 31.1934 19.684 31.1829 19.6308C31.1432 19.4602 31.0797 19.2949 30.9939 19.1387C30.8557 18.8901 30.6718 18.6646 30.45 18.4718C30.1559 18.2166 29.8041 18.0222 29.4189 17.9018C29.1942 17.8337 28.9604 17.7934 28.7238 17.7821C28.4665 17.7722 28.2091 17.7998 27.9615 17.8638C27.4189 18.0141 26.9275 18.2867 26.5335 18.6561C26.1005 19.0588 25.7347 19.5164 25.4478 20.0146C25.1349 20.5219 24.8535 21.0672 24.5133 21.5935C23.9035 22.6036 23.075 23.4921 22.0773 24.206C21.254 24.7799 20.2669 25.1292 19.2318 25.213C18.5351 25.2701 17.8334 25.1743 17.1864 24.9337C16.9506 24.8387 16.7206 24.7321 16.4976 24.6145Z" fill="#7E7E7E"/>
<path d="M16.0335 22.6993C16.0861 22.7421 16.1447 22.7785 16.2078 22.8076C16.3736 22.8955 16.5462 22.9724 16.7244 23.0375C16.9883 23.1354 17.2609 23.2129 17.5392 23.2693C18.2237 23.4079 18.932 23.4215 19.6224 23.3092C19.9033 23.2624 20.1793 23.1944 20.4477 23.1059C20.6284 23.0479 20.8039 22.9774 20.9727 22.895C21.0378 22.8694 21.0987 22.8355 21.1533 22.7943C21.1533 22.7772 20.8782 22.9045 20.4204 23.0375C20.1542 23.1156 19.8818 23.1753 19.6056 23.2161C18.9268 23.315 18.2339 23.3021 17.5602 23.1781C17.286 23.1269 17.0164 23.057 16.7538 22.9691C16.3023 22.819 16.044 22.6822 16.0335 22.6993Z" fill="#7E7E7E"/>
<path d="M25.3848 36.3166C25.4226 36.2083 26.2017 36.48 27.0123 36.0715C27.8229 35.663 28.0623 34.884 28.1715 34.9163C28.224 34.9163 28.2513 35.1367 28.1232 35.4559C27.954 35.8712 27.6273 36.2187 27.2013 36.4363C26.7927 36.6463 26.3097 36.7035 25.8552 36.5959C25.5192 36.5085 25.3596 36.3622 25.3848 36.3166Z" fill="#263238"/>
<path d="M24.3138 45.9059C24.3138 45.9059 16.2708 48.9459 14.1141 50.3728C11.9574 51.7997 13.4841 61.5581 13.3077 63.5854C13.1313 65.6127 13.4631 80.6854 13.4631 80.6854C13.4631 80.6854 12.3165 88.7034 12.7575 90.1208C12.7575 90.1208 25.7775 90.5521 30.8343 90.326C35.8911 90.0999 46.1643 90.3906 46.1643 90.3906L45.8556 79.7335L45.4356 63.0572L48.5856 48.5583L36.1221 44.3954L35.8575 43.6772C35.8575 43.6772 31.3026 47.3955 28.4802 47.2454C25.6578 47.0953 24.3138 45.9059 24.3138 45.9059Z" fill="#7E7E7E"/>
<g opacity="0.3">
<path d="M46.3596 76.8721C46.0761 76.2071 45.5196 75.6732 44.9568 75.1735C40.9288 71.5957 36.143 68.7915 30.8868 66.9294C28.8582 66.2112 26.7372 65.6336 24.5595 65.5766C22.3818 65.5196 20.1285 66.0231 18.4443 67.2733C16.2204 68.9282 15.2943 71.6129 14.8743 74.1912C14.4543 76.7695 14.49 79.42 13.6248 81.909L13.1229 84.2023C13.9629 84.5329 14.9688 84.2498 15.6555 83.7083C16.3422 83.1668 16.7685 82.4068 17.1486 81.6563C18.3678 79.2503 19.2836 76.7277 19.8786 74.1361C20.2167 72.6579 20.5338 71.022 21.8295 70.0682C23.2533 69.0194 25.3386 69.1961 27.0942 69.6882C32.8923 71.3032 37.2834 75.5022 42.3717 78.4909C43.4889 79.1483 45.0807 79.7145 46.032 78.8709C46.5885 78.3674 46.6431 77.5352 46.3596 76.8721Z" fill="black"/>
</g>
<path d="M48.594 48.5621C48.594 48.5621 50.7213 49.6242 51.5886 50.8687C52.4559 52.1132 55.9167 61.5087 55.9167 61.5087L44.3877 64.6L42.8778 56.4585L48.594 48.5621Z" fill="#7E7E7E"/>
<path d="M14.49 50.1334C13.2881 50.5194 12.261 51.2542 11.5689 52.2234C10.6491 53.4755 6.59189 63.1598 6.59189 63.1598L14.4018 66.899L14.49 50.1334Z" fill="#7E7E7E"/>
<path d="M13.4631 56.3787C13.4925 56.3787 13.5177 60.5587 13.5177 65.7381C13.5177 70.9175 13.4925 75.0975 13.4631 75.0975C13.4337 75.0975 13.4085 70.908 13.4085 65.7381C13.4085 60.5682 13.44 56.3787 13.4631 56.3787Z" fill="#263238"/>
<path d="M47.8317 49.21C47.7675 49.289 47.6973 49.364 47.6217 49.4342C47.4747 49.5729 47.2668 49.7781 47.0169 50.0384C45.7171 51.3927 44.6907 52.9433 43.9845 54.6193C43.848 54.9404 43.7451 55.2026 43.68 55.3793C43.6503 55.4752 43.6117 55.5687 43.5645 55.6586C43.579 55.5597 43.6043 55.4623 43.6401 55.3679C43.6926 55.1779 43.785 54.9138 43.911 54.5889C44.5828 52.8878 45.619 51.3234 46.9602 49.9852C47.2164 49.7287 47.4348 49.5292 47.5902 49.4C47.6636 49.3297 47.7445 49.2661 47.8317 49.21Z" fill="#263238"/>
<path d="M45.15 65.0066C45.1206 65.0066 44.8896 63.27 44.6355 61.1211C44.3814 58.9722 44.2008 57.2261 44.2302 57.2242C44.2596 57.2223 44.4906 58.9608 44.7447 61.1097C44.9988 63.2586 45.1773 65.0047 45.15 65.0066Z" fill="#263238"/>
<path d="M33.9486 63.4201L45.5805 68.7401L45.696 68.4836L45.1899 64.3929L54.8499 61.7994C54.8499 61.7994 55.7886 71.5559 56.3199 73.6079C57.141 76.8132 54.2577 80.6968 49.0098 80.6911C46.2042 80.6911 29.5743 68.7971 29.5743 68.7971L33.9486 63.4201Z" fill="#9F6958"/>
<path d="M16.0902 63.0363L19.2696 68.5995L17.2557 74.081L16.3947 76.2831C16.3947 76.2831 14.0952 84.379 11.6109 84.5747C9.12659 84.7704 7.23869 84.4246 5.31089 81.0084C3.21089 77.292 6.21389 67.127 7.16309 63.4201L13.2678 66.1656L16.0944 63.0363" fill="#9F6958"/>
<path d="M28.6797 60.8475C28.2072 60.7031 27.0375 61.522 26.3424 62.0597C25.7313 62.4839 25.0757 62.853 24.3852 63.1617C24.3852 63.1617 29.4252 59.1565 29.4252 58.5447C29.4252 57.9329 29.0997 57.5035 28.2324 57.855C28.2324 57.855 29.2278 57.1349 28.3668 56.3464C27.5058 55.5579 22.0668 60.0609 22.0668 60.0609L21.8232 59.85C21.8232 59.85 26.5503 56.1279 26.2689 55.7859C25.9875 55.4439 25.2042 55.1532 24.2235 55.917C23.2428 56.6808 19.4397 59.4339 18.69 60.1578C17.3838 61.4213 16.863 61.2503 16.4073 61.2389L13.2573 66.1656L19.026 69.0574C19.026 69.0574 21.8001 68.1891 24.7443 65.1852C24.7443 65.1852 27.8103 63.0952 28.4424 62.3846C29.0745 61.674 29.1501 60.99 28.6797 60.8475Z" fill="#9F6958"/>
<path d="M29.82 68.9415C29.82 68.9415 26.6973 68.7515 22.743 66.3917C22.743 66.3917 18.9441 65.0104 18.0747 64.4404C17.2053 63.8704 16.926 63.1826 17.3649 62.9204C17.8038 62.6582 19.2549 63.2016 20.1432 63.5797C21.0315 63.9578 22.4889 64.22 22.4889 64.22C22.4889 64.22 16.0671 61.37 15.8907 60.7335C15.7143 60.097 15.9033 59.5802 16.905 59.7227C16.905 59.7227 15.6597 59.2306 16.3023 58.2027C16.8903 57.266 22.7598 59.9032 23.7804 60.3706C23.8209 60.3896 23.8679 60.3934 23.9115 60.3813C23.9551 60.3693 23.9917 60.3422 24.0135 60.306C24.0255 60.2872 24.0331 60.2664 24.0359 60.2448C24.0387 60.2232 24.0366 60.2014 24.0297 60.1806C24.0228 60.1597 24.0113 60.1404 23.9959 60.1238C23.9805 60.1071 23.9614 60.0935 23.94 60.0837C23.1987 59.7398 20.16 58.3167 18.9 57.5168C18.102 57.0114 19.2255 56.0652 20.4687 56.6048C21.7119 57.1444 26.439 59.2363 27.6087 59.3408C28.7784 59.4453 30.3156 59.6372 30.4395 59.356C30.5634 59.0748 29.8851 57.9348 29.5995 57.4408C29.3139 56.9468 28.8414 55.8657 30.2421 55.5408C30.2421 55.5408 32.235 57.798 32.8776 58.6454C33.5202 59.4928 34.6038 63.6804 34.6038 63.6804" fill="#9F6958"/>
<path d="M34.5807 63.688C34.5807 63.688 34.5639 63.6348 34.5345 63.5322C34.5051 63.4296 34.461 63.2757 34.4064 63.0762C34.2909 62.6753 34.1229 62.0806 33.8835 61.3206C33.7659 60.9406 33.6273 60.5169 33.4635 60.0571C33.3816 59.8291 33.2913 59.5897 33.1863 59.3465C33.0854 59.0916 32.9537 58.8476 32.7936 58.6188C32.067 57.7011 31.1766 56.6903 30.1917 55.5788L30.2295 55.5902C30.0261 55.6346 29.8337 55.7133 29.6625 55.822C29.4908 55.9365 29.3719 56.1043 29.3286 56.2932C29.2885 56.4889 29.3022 56.6906 29.3685 56.8803C29.4305 57.0786 29.5172 57.2698 29.6268 57.4503C29.8473 57.8303 30.072 58.2103 30.2568 58.615C30.3633 58.8219 30.4341 59.0423 30.4668 59.2686C30.4686 59.3007 30.4643 59.3329 30.4542 59.3636C30.4442 59.3992 30.4203 59.4302 30.387 59.451C30.3284 59.4855 30.2627 59.5087 30.1938 59.5194C30.067 59.5405 29.9384 59.5514 29.8095 59.5517C29.2899 59.5447 28.7712 59.5123 28.2555 59.4548C27.993 59.4263 27.7305 59.413 27.4617 59.3731C27.1928 59.3267 26.9287 59.26 26.6721 59.1736C25.641 58.8449 24.612 58.4288 23.5578 57.9975C22.5036 57.5662 21.4452 57.0817 20.349 56.62C20.0758 56.5121 19.7747 56.4752 19.4796 56.5136C19.3334 56.5279 19.1922 56.5702 19.0655 56.6377C18.9387 56.7052 18.8293 56.7963 18.7446 56.905C18.7066 56.9581 18.6838 57.0189 18.6783 57.0819C18.6728 57.145 18.6847 57.2082 18.7131 57.266C18.7846 57.3833 18.8917 57.4795 19.0218 57.5434C19.278 57.703 19.5489 57.8512 19.8177 57.9994C20.9076 58.5865 22.0458 59.1394 23.2071 59.6885L23.646 59.8956L23.856 59.9982L23.9694 60.0495C24.0047 60.0681 24.034 60.0947 24.0544 60.1267C24.0747 60.1587 24.0855 60.195 24.0855 60.2319C24.0855 60.2689 24.0747 60.3052 24.0544 60.3372C24.034 60.3692 24.0047 60.3958 23.9694 60.4143C23.9216 60.4388 23.8657 60.4469 23.8119 60.4371C23.767 60.4258 23.7239 60.4092 23.6838 60.3877L23.2386 60.1863C22.6401 59.9222 22.0353 59.6619 21.42 59.413C20.2669 58.9236 19.0732 58.5163 17.85 58.1951C17.5521 58.1212 17.2468 58.0747 16.9386 58.0564C16.7907 58.047 16.6422 58.0645 16.5018 58.1077C16.4398 58.13 16.386 58.1675 16.3464 58.216C16.3107 58.2692 16.2813 58.3357 16.2477 58.3946C16.1871 58.5145 16.1577 58.6453 16.1617 58.7771C16.1657 58.9088 16.203 59.038 16.2708 59.1546C16.4173 59.3826 16.6371 59.5648 16.9008 59.6771L17.2032 59.812L16.8714 59.7702C16.6711 59.7346 16.4647 59.7391 16.2666 59.7835C16.1732 59.8066 16.0884 59.8521 16.0215 59.9154C15.9545 59.9787 15.9079 60.0572 15.8865 60.1426C15.8474 60.3216 15.8546 60.5063 15.9075 60.6822C15.9096 60.703 15.9168 60.7231 15.9285 60.7411C15.9366 60.7597 15.948 60.777 15.9621 60.7924C15.9916 60.8274 16.0246 60.8599 16.0608 60.8893C16.134 60.9535 16.2119 61.0131 16.2939 61.0679C16.9582 61.493 17.6504 61.8813 18.3666 62.2307C19.7673 62.9356 21.1491 63.5778 22.4847 64.1782L22.8249 64.3302L22.4532 64.2599C21.8494 64.1494 21.254 64.0048 20.6703 63.8267C20.3834 63.7365 20.1029 63.6305 19.8303 63.5094C19.5615 63.3992 19.2927 63.2947 19.0239 63.1997C18.7581 63.1063 18.4868 63.0263 18.2112 62.9603C17.9523 62.8831 17.6753 62.87 17.409 62.9223C17.3513 62.9442 17.3 62.9779 17.2592 63.0207C17.2184 63.0636 17.1891 63.1145 17.1738 63.1693C17.149 63.2834 17.1614 63.4016 17.2095 63.5094C17.3063 63.731 17.4553 63.9307 17.6463 64.0946C17.8291 64.2601 18.0328 64.4055 18.2532 64.5278C18.4758 64.6456 18.6984 64.7539 18.9252 64.8546C19.3725 65.0579 19.8177 65.2346 20.2524 65.4246C21.1197 65.7742 21.9324 66.0896 22.7115 66.3746C24.2811 67.3259 25.997 68.0628 27.804 68.5615C28.283 68.6912 28.7696 68.7972 29.2614 68.8788C29.4294 68.9054 29.5575 68.9206 29.6436 68.932L29.7717 68.9491L29.6415 68.9396C29.5554 68.9396 29.4315 68.9187 29.2593 68.894C28.7628 68.8213 28.2718 68.7204 27.7893 68.5919C25.974 68.1039 24.2491 67.3739 22.6716 66.4259C21.9009 66.1447 21.0756 65.8331 20.2062 65.4854C19.7715 65.3106 19.3263 65.1282 18.8748 64.9249C18.69 64.8185 18.48 64.7083 18.2469 64.6C18.018 64.4759 17.8064 64.3273 17.6169 64.1573C17.4173 63.9852 17.2606 63.7767 17.157 63.5455C17.1046 63.4247 17.0915 63.2929 17.1192 63.1655C17.1372 63.0984 17.1724 63.0361 17.222 62.9836C17.2716 62.9311 17.3343 62.8899 17.4048 62.8634C17.6903 62.7993 17.9899 62.8085 18.27 62.89C18.5494 62.9558 18.8242 63.0364 19.0932 63.1313C19.3662 63.2263 19.635 63.3213 19.9059 63.441C20.1726 63.5593 20.4468 63.6634 20.727 63.7526C21.3072 63.9294 21.8992 64.0728 22.4994 64.182L22.47 64.2637C21.1281 63.65 19.74 63.0173 18.3414 62.32C17.6203 61.9705 16.9239 61.5809 16.2561 61.1534C16.1704 61.0949 16.0891 61.0315 16.0125 60.9634C15.9724 60.9298 15.9358 60.893 15.9033 60.8532C15.8663 60.8112 15.8411 60.7616 15.8298 60.7088C15.7723 60.5186 15.7651 60.3188 15.8088 60.1255C15.8319 60.0234 15.884 59.9284 15.96 59.85C16.0403 59.7761 16.14 59.7219 16.2498 59.6923C16.4641 59.6431 16.6879 59.6373 16.905 59.6752L16.8756 59.7683C16.5845 59.6477 16.3418 59.4486 16.1805 59.1983C16.1053 59.0685 16.0637 58.9249 16.059 58.7784C16.0543 58.6319 16.0865 58.4864 16.1532 58.3528C16.191 58.2863 16.2183 58.2236 16.2624 58.1628C16.3144 58.096 16.3877 58.045 16.4724 58.0165C16.6274 57.9678 16.7918 57.9484 16.9554 57.9595C17.2713 57.9778 17.5844 58.0249 17.8899 58.1001C19.1133 58.4226 20.3069 58.8311 21.4599 59.3218C22.0773 59.5752 22.6849 59.8342 23.2827 60.0989L23.73 60.3003C23.7613 60.3167 23.7943 60.3301 23.8287 60.3402C23.85 60.3442 23.872 60.3429 23.8926 60.3365C23.9131 60.3301 23.9314 60.3189 23.9456 60.304C23.9597 60.2891 23.9692 60.271 23.973 60.2516C23.9768 60.2323 23.9748 60.2124 23.9673 60.1939C23.9585 60.1691 23.9398 60.1481 23.9148 60.135L23.8077 60.0856L23.5977 59.983L23.1588 59.7759C21.9954 59.2249 20.8488 58.672 19.7652 58.083C19.4943 57.9329 19.2234 57.7847 18.963 57.6232C18.8176 57.5487 18.6983 57.4388 18.6186 57.3059C18.5829 57.2343 18.5677 57.1557 18.5743 57.0774C18.5809 56.999 18.6091 56.9234 18.6564 56.8575C18.7487 56.7361 18.8689 56.6342 19.0088 56.5588C19.1488 56.4834 19.305 56.4362 19.467 56.4205C19.7805 56.3789 20.1007 56.4178 20.391 56.5326C21.4956 57.0038 22.5603 57.4826 23.6145 57.9082C24.6687 58.3338 25.6935 58.7594 26.7183 59.0881C26.9699 59.1701 27.2283 59.2336 27.4911 59.2781C27.7494 59.318 28.0203 59.3332 28.2807 59.3617C28.7913 59.4227 29.3051 59.4589 29.82 59.47C29.9439 59.4703 30.0675 59.4608 30.1896 59.4415C30.2449 59.4328 30.2978 59.414 30.345 59.3864C30.387 59.3636 30.3912 59.3218 30.3912 59.2686C30.3568 59.0524 30.286 58.8422 30.1812 58.6454C29.9901 58.2407 29.7612 57.8588 29.5512 57.4864C29.4394 57.3004 29.3513 57.1034 29.2887 56.8993C29.22 56.6982 29.2063 56.485 29.2488 56.278C29.2975 56.073 29.4275 55.8912 29.6142 55.7669C29.7944 55.6527 29.9967 55.5702 30.2106 55.5237H30.2316L30.2484 55.5427C31.2291 56.6675 32.1153 57.6802 32.8398 58.6036C33.002 58.8363 33.1345 59.0849 33.2346 59.3446C33.3396 59.5897 33.4278 59.8291 33.5097 60.059C33.6735 60.5188 33.8079 60.9425 33.9297 61.3244C34.1628 62.0844 34.3245 62.6829 34.4316 63.0857L34.5513 63.5455C34.5702 63.6329 34.5807 63.688 34.5807 63.688Z" fill="#6F4439"/>
<path d="M14.07 64.9648C14.045 65.0143 14.0169 65.0625 13.986 65.1092C13.9251 65.2023 13.8411 65.341 13.7214 65.5139C13.4862 65.8616 13.1292 66.3556 12.6714 66.9541C11.76 68.1568 10.395 69.749 9.00689 71.5787C8.34537 72.4308 7.74292 73.3192 7.20299 74.2387C6.7611 74.9928 6.4562 75.8062 6.29999 76.6479C6.19856 77.2142 6.19856 77.7916 6.29999 78.3579C6.32859 78.5115 6.36574 78.6637 6.41129 78.8139C6.42903 78.8658 6.44375 78.9184 6.45539 78.9716C6.42899 78.9227 6.40721 78.8719 6.39029 78.8196C6.33552 78.6703 6.29133 78.518 6.25799 78.3636C6.13722 77.7948 6.12303 77.2116 6.21599 76.6384C6.35695 75.7885 6.65212 74.9655 7.08959 74.2026C7.62684 73.2756 8.22938 72.3808 8.89349 71.5236C10.2858 69.6882 11.6592 68.1036 12.5853 66.9142C13.0536 66.3214 13.4253 65.835 13.6626 65.493C13.7886 65.3239 13.8726 65.189 13.9461 65.0997C13.9822 65.0511 14.0237 65.0059 14.07 64.9648Z" fill="#6F4439"/>
<path d="M23.4213 62.4644C23.3333 62.4406 23.2481 62.4088 23.1672 62.3694C23.0076 62.3029 22.7787 62.2022 22.4973 62.0749L20.3049 61.0736C19.4481 60.6936 18.6585 60.3611 18.081 60.1369L17.3964 59.8728C17.3098 59.8455 17.2267 59.8098 17.1486 59.7664C17.2384 59.782 17.3264 59.8055 17.4111 59.8367C17.5791 59.888 17.8164 59.9678 18.1104 60.0723C18.6963 60.2794 19.4943 60.5967 20.3532 60.9843C21.2121 61.3719 21.9786 61.7443 22.533 62.0141L23.1882 62.3352C23.2712 62.3698 23.3495 62.4132 23.4213 62.4644Z" fill="#6F4439"/>
<path d="M50.4357 71.5027C50.3526 71.4572 50.2752 71.4037 50.2047 71.3431C50.0577 71.2367 49.8435 71.0866 49.5747 70.9099C49.0308 70.5565 48.2475 70.1081 47.3634 69.6426C46.4793 69.1771 45.6561 68.7857 45.0534 68.5026L44.3436 68.1777C44.2536 68.1434 44.1677 68.1007 44.0874 68.0504C44.1819 68.0741 44.274 68.1053 44.3625 68.1435C44.5347 68.21 44.7825 68.3088 45.087 68.4399C45.696 68.7021 46.5213 69.0878 47.4117 69.5514C48.1738 69.944 48.9094 70.3774 49.6146 70.8491C49.8834 71.0391 50.0913 71.193 50.2299 71.307C50.3057 71.3658 50.3746 71.4313 50.4357 71.5027Z" fill="#6F4439"/>
<path d="M56.6328 23.0945C56.7672 22.4048 57.1032 21.7075 57.7395 21.3085C58.5207 20.8202 59.5602 20.8829 60.4968 21.0197C61.8387 21.2097 63.2835 21.5897 64.0479 22.61C64.4698 23.2142 64.6602 23.9273 64.5897 24.6392C64.5159 25.3466 64.3196 26.039 64.008 26.6912L60.48 28.0383C59.64 26.828 57.75 26.4613 56.9625 25.2282C56.579 24.5741 56.4623 23.8187 56.6328 23.0945Z" fill="#263238"/>
<path d="M90.93 50.0764C91.0581 49.7648 91.4445 49.6242 91.77 49.4684C92.3553 49.1883 92.8442 48.7679 93.1832 48.2532C93.5221 47.7385 93.6981 47.1494 93.6918 46.5503C93.6855 45.9512 93.4972 45.3653 93.1475 44.8565C92.7978 44.3477 92.3002 43.9358 91.7091 43.6658C91.4014 43.5618 91.1169 43.4086 90.8691 43.2136C90.321 42.6759 90.6591 41.8152 90.5436 41.0913C90.2832 39.5618 88.0236 38.9652 87.4146 37.5174C87.045 36.6339 87.3768 35.6554 87.5763 34.7282C87.7758 33.801 87.759 32.6857 86.9463 32.0986C86.5053 31.7832 85.9068 31.6882 85.4763 31.3576C84.5964 30.6736 84.8463 29.4215 84.6468 28.3879C84.4661 27.5757 83.9797 26.8453 83.2706 26.3211C82.5614 25.7969 81.6733 25.5114 80.7576 25.5132C80.7576 25.5132 81.6963 24.2003 79.9407 23.2332C77.8218 22.0647 77.4354 23.5144 76.545 22.4599C76.0535 21.9103 75.3703 21.5279 74.6073 21.3754C73.8444 21.2228 73.0467 21.3091 72.345 21.6201C71.9145 21.8234 71.5323 22.1141 71.0745 22.2604C70.5138 22.4371 69.9027 22.3839 69.3105 22.4219C67.0551 22.5663 62.958 24.4777 63.8043 27.2099L75.4152 51.6059C75.4152 51.6059 78.0906 52.4761 80.0541 53.6351C80.4846 53.8897 80.6274 57.2831 81.1146 57.4351C81.734 57.5933 82.391 57.5841 83.0046 57.4085C84.361 57.0618 85.5153 56.2518 86.2239 55.1494C86.8612 55.5161 87.6133 55.6848 88.3661 55.6299C89.119 55.5749 89.8315 55.2993 90.3955 54.8448C90.9596 54.3904 91.3444 53.7819 91.4916 53.1116C91.6389 52.4414 91.5405 51.746 91.2114 51.1309C91.0329 50.7889 90.7809 50.4241 90.93 50.0764Z" fill="#263238"/>
<path d="M62.8971 30.704L62.7585 29.1365L73.0485 26.7767C76.2405 26.296 79.9071 29.0187 80.304 31.9238C80.745 35.1538 81.144 39.1096 80.8794 41.5492C80.3586 46.4569 76.2804 47.31 76.2804 47.31L76.5786 52.136L64.7052 52.9188L62.8971 30.704Z" fill="#694B47"/>
<path d="M78.3657 36.4515C78.3779 36.615 78.3187 36.7762 78.2009 36.9005C78.0831 37.0249 77.9161 37.1025 77.7357 37.1165C77.6484 37.1274 77.5596 37.1224 77.4744 37.1019C77.3893 37.0813 77.3096 37.0455 77.2399 36.9967C77.1703 36.9478 77.1121 36.8869 77.0689 36.8174C77.0256 36.7479 76.9982 36.6713 76.9881 36.5921C76.9764 36.4288 77.0358 36.2679 77.1535 36.1436C77.2712 36.0194 77.4379 35.9417 77.6181 35.9271C77.7053 35.9165 77.7941 35.9217 77.8791 35.9424C77.9641 35.9631 78.0437 35.9988 78.1133 36.0477C78.1829 36.0965 78.241 36.1573 78.2843 36.2266C78.3277 36.296 78.3553 36.3724 78.3657 36.4515Z" fill="#263238"/>
<path d="M79.3128 34.0518C79.233 34.1373 78.6828 33.8162 77.9457 33.8618C77.2086 33.9074 76.6857 34.2684 76.5975 34.1905C76.5555 34.1563 76.6332 34.0005 76.86 33.8371C77.1673 33.6179 77.5423 33.4905 77.9331 33.4723C78.3184 33.4502 78.7015 33.5393 79.0272 33.7269C79.2666 33.8694 79.3527 34.01 79.3128 34.0518Z" fill="#263238"/>
<path d="M71.6814 36.6282C71.6936 36.7918 71.6345 36.9533 71.5168 37.0779C71.399 37.2026 71.2319 37.2806 71.0514 37.2951C70.9641 37.306 70.8753 37.301 70.7901 37.2804C70.705 37.2598 70.6253 37.2241 70.5556 37.1752C70.486 37.1264 70.4278 37.0654 70.3846 36.9959C70.3413 36.9265 70.3139 36.8499 70.3038 36.7707C70.2916 36.6073 70.3507 36.446 70.4685 36.3217C70.5864 36.1973 70.7534 36.1198 70.9338 36.1057C71.0209 36.0948 71.1096 36.0997 71.1946 36.1202C71.2796 36.1406 71.3593 36.1762 71.4289 36.2249C71.4985 36.2735 71.5567 36.3343 71.6 36.4035C71.6434 36.4728 71.6711 36.5492 71.6814 36.6282Z" fill="#263238"/>
<path d="M72.03 34.58C71.9502 34.6674 71.4 34.3463 70.6629 34.39C69.9258 34.4337 69.4029 34.7966 69.3147 34.7187C69.2748 34.6845 69.3504 34.5287 69.5772 34.3634C69.8848 34.1449 70.2597 34.0181 70.6503 34.0005C71.0356 33.9784 71.4187 34.0675 71.7444 34.2551C71.9859 34.39 72.072 34.5344 72.03 34.58Z" fill="#263238"/>
<path d="M75.054 39.4022C75.054 39.3642 75.5055 39.2673 76.2468 39.14C76.4337 39.1115 76.6122 39.0678 76.6353 38.95C76.6397 38.772 76.584 38.597 76.4757 38.4484C76.2699 38.0431 76.0543 37.6187 75.8289 37.1754C74.928 35.359 74.2623 33.8637 74.3442 33.8314C74.4261 33.7991 75.222 35.2431 76.1229 37.0614L76.7529 38.3439C76.8369 38.5339 76.9755 38.7486 76.8957 39.0108C76.8721 39.0729 76.8332 39.1293 76.7819 39.1757C76.7306 39.2222 76.6682 39.2574 76.5996 39.2787C76.4971 39.3101 76.3905 39.3293 76.2825 39.3357C75.5265 39.4117 75.0603 39.4402 75.054 39.4022Z" fill="#263238"/>
<path d="M76.2783 47.31C73.6913 47.4866 71.1 47.0216 68.7834 45.9648C68.7834 45.9648 70.8246 49.2689 76.356 48.5222L76.2783 47.31Z" fill="#2F1E16"/>
<path d="M80.2914 28.4278C79.0642 26.9842 77.3391 25.953 75.39 25.498L66.6918 26.4879L64.3146 27.7818C64.1508 27.2859 64.5918 26.7216 64.5918 26.7216C63.7749 26.1516 60.9819 25.2434 59.0079 27.1016C58.296 27.7761 57.7017 29.5716 57.6849 30.4988C57.6849 30.8522 57.7164 31.2816 57.3909 31.4754C57.2706 31.5343 57.1398 31.5735 57.0045 31.5913C54.7911 32.0302 53.2245 34.2513 53.7096 36.2539C53.7569 36.3882 53.774 36.5296 53.76 36.67C53.6915 36.875 53.557 37.057 53.3736 37.1925C52.8548 37.7072 52.5193 38.3512 52.4107 39.0408C52.302 39.7304 52.4254 40.4337 52.7646 41.059C52.9746 41.439 53.2812 41.7962 53.3547 42.2199C53.4891 42.9799 52.878 43.6506 52.4055 44.2871C50.9859 46.1871 50.6814 48.963 52.3467 50.6996C52.752 51.1214 53.2749 51.4976 53.4261 52.0296C53.4801 52.299 53.4963 52.5735 53.4744 52.8466C53.4618 54.2317 54.2703 55.7802 55.7655 56.0766C56.6055 56.2381 57.6051 56.0272 58.1973 56.5782C58.4535 56.8195 58.5627 57.1482 58.7265 57.456C59.0576 58.021 59.5918 58.467 60.2409 58.7202C60.89 58.9734 61.6151 59.0187 62.2965 58.8487C63.6468 58.4687 64.0941 53.5173 63.8988 52.2519C65.5326 51.7142 66.7422 51.6192 66.6666 50.046C66.6666 50.046 66.4146 47.3404 66.8976 46.0218C67.3806 44.7032 66.4104 41.8969 65.8581 40.5346C65.3058 39.1723 65.9631 36.0012 66.1122 34.7396C66.1211 34.377 66.0823 34.0147 65.9967 33.6604C65.9358 33.3526 65.856 33.0087 65.7615 32.6382C65.7321 32.3 65.7223 31.9608 65.7321 31.6217C65.7394 31.3423 65.8187 31.0683 65.9636 30.8215C66.1086 30.5747 66.3152 30.362 66.567 30.2002C66.8189 30.0383 67.109 29.932 67.4143 29.8895C67.7196 29.847 68.0316 29.8695 68.3256 29.9554C68.6285 30.0476 68.9448 30.0988 69.2643 30.1074C69.7799 30.1163 70.2907 30.017 70.7568 29.8172C71.2228 29.6174 71.6313 29.3226 71.9502 28.956C72.5501 29.5197 73.3073 29.9263 74.1416 30.1327C74.976 30.339 75.8564 30.3375 76.6899 30.1283C77.3619 30.9776 78.0444 31.8383 78.939 32.4957C79.8336 33.1531 80.9802 33.6034 82.1247 33.4875C82.1552 31.663 81.5098 29.8818 80.2914 28.4278Z" fill="#263238"/>
<path d="M79.38 29.83C79.3653 29.83 79.3905 29.6514 79.3611 29.3341C79.3173 28.8824 79.1654 28.4448 78.9159 28.0516C78.5482 27.4551 77.9579 26.9965 77.2506 26.7577C76.8131 26.6106 76.3465 26.548 75.8806 26.5739C75.4148 26.5997 74.9601 26.7135 74.5458 26.9078L74.4828 26.9382L74.4366 26.8888C74.1001 26.5204 73.7002 26.2035 73.2522 25.9502C72.2891 25.4041 71.1497 25.1697 70.0203 25.2852C69.1001 25.3916 68.2317 25.7308 67.515 26.2637C67.0295 26.6219 66.6185 27.0556 66.3012 27.5443C66.0807 27.8939 65.9967 28.1143 65.9799 28.0991C65.9895 28.0453 66.0072 27.9929 66.0324 27.9433C66.0909 27.7958 66.1611 27.6523 66.2424 27.5139C66.5446 27.0065 66.95 26.5552 67.4373 26.1839C68.1642 25.6225 69.0543 25.2624 70.0014 25.1465C70.8556 25.0501 71.723 25.1502 72.5232 25.4375C73.3234 25.7247 74.0306 26.1899 74.5794 26.79L74.4702 26.771C74.9061 26.5679 75.3846 26.4503 75.8742 26.4261C76.3639 26.4019 76.8537 26.4715 77.3115 26.6304C78.0458 26.8866 78.6534 27.3736 79.023 28.0022C79.269 28.4116 79.4076 28.8666 79.4283 29.3322C79.4373 29.459 79.4324 29.5863 79.4136 29.7122C79.4088 29.7527 79.3974 29.7924 79.38 29.83Z" fill="#455A64"/>
<path d="M59.5434 29.7749C59.5749 29.7901 59.7366 29.4709 60.1503 29.0681C60.6831 28.5366 61.3911 28.1747 62.1693 28.0361C62.9474 27.8975 63.7542 27.9895 64.47 28.2986C65.0223 28.5285 65.31 28.7698 65.3268 28.7432C65.3436 28.7166 65.2743 28.6672 65.1462 28.5532C64.9589 28.4053 64.7531 28.2777 64.533 28.1732C63.7983 27.8185 62.9507 27.7043 62.1337 27.8501C61.3166 27.9958 60.5804 28.3926 60.0495 28.9731C59.8878 29.1469 59.7509 29.3384 59.6421 29.5431C59.5915 29.6132 59.5578 29.6922 59.5434 29.7749Z" fill="#455A64"/>
<path d="M59.8773 44.3194C60.135 44.2259 60.3693 44.0863 60.5661 43.909C61.1177 43.4263 61.4616 42.7818 61.5363 42.0907C61.5907 41.7189 61.5586 41.341 61.4422 40.9811C61.3257 40.6212 61.1275 40.2873 60.8601 40.0007C60.6617 39.8072 60.512 39.5771 60.4212 39.3262C60.3967 39.1961 60.4069 39.0626 60.4507 38.9368C60.4945 38.8109 60.5708 38.6963 60.6732 38.6023C60.8832 38.3857 61.1415 38.1995 61.3851 37.9734C61.6502 37.7426 61.8299 37.4433 61.8996 37.1165C61.9607 36.7845 61.9435 36.4446 61.8492 36.119C61.6644 35.4616 61.2759 34.9144 61.0344 34.3501C60.7133 33.6208 60.6706 32.8154 60.9129 32.0616C61.1553 31.3079 61.6688 30.6488 62.3721 30.1891C62.9786 29.8052 63.6895 29.5785 64.428 29.5336C64.953 29.5013 65.2428 29.5602 65.2449 29.5336C65.1772 29.5109 65.1066 29.4956 65.0349 29.488C64.832 29.4603 64.6268 29.4489 64.4217 29.4538C63.6597 29.4732 62.9195 29.6887 62.2881 30.0751C61.8198 30.3649 61.4261 30.7427 61.134 31.1827C60.8418 31.6228 60.6582 32.1147 60.5955 32.6249C60.5127 33.2293 60.5994 33.8429 60.8475 34.409C61.0974 34.9923 61.4775 35.549 61.6497 36.1551C61.7373 36.4551 61.7545 36.7684 61.7001 37.0747C61.6368 37.3648 61.4762 37.6302 61.2402 37.8347C61.0092 38.0513 60.7446 38.2394 60.5241 38.4769C60.4029 38.5915 60.3137 38.7305 60.2636 38.8825C60.2136 39.0345 60.2043 39.195 60.2364 39.3509C60.3346 39.6257 60.4988 39.8775 60.7173 40.0881C60.9755 40.3558 61.1688 40.6693 61.2849 41.0087C61.401 41.348 61.4373 41.7056 61.3914 42.0584C61.3311 42.726 61.0189 43.3546 60.5073 43.8387C60.3123 44.0144 60.1016 44.1752 59.8773 44.3194Z" fill="#455A64"/>
<path d="M58.464 27.8578C58.506 27.8844 58.7076 27.3334 59.4762 26.8261C59.9233 26.5331 60.437 26.3338 60.9798 26.2428C61.6473 26.1409 62.3306 26.1609 62.9895 26.3017C63.1229 26.3323 63.254 26.3703 63.3822 26.4157L63.5019 26.4575L63.5376 26.3492C63.8898 25.3646 64.5688 24.5021 65.4822 23.8792C66.1773 23.4042 66.6981 23.2484 66.6792 23.2123C66.5513 23.2258 66.427 23.2592 66.3117 23.3111C65.9859 23.43 65.676 23.5817 65.3877 23.7633C64.4081 24.3778 63.6796 25.2673 63.315 26.2941L63.4704 26.2295C63.3337 26.1791 63.1934 26.1372 63.0504 26.1041C62.3617 25.9556 61.6462 25.9401 60.9504 26.0585C60.3797 26.1623 59.8443 26.387 59.388 26.714C59.0787 26.9298 58.8209 27.1999 58.6299 27.5082C58.5491 27.6134 58.4927 27.7323 58.464 27.8578Z" fill="#455A64"/>
<path d="M74.5185 41.0286C74.3887 40.8648 74.2149 40.7337 74.0136 40.6476C73.8122 40.5615 73.5899 40.5233 73.3677 40.5365C73.2079 40.5427 73.0511 40.5781 72.9068 40.6404C72.7624 40.7028 72.6335 40.7909 72.5277 40.8994C72.4247 41.0046 72.3598 41.1359 72.3418 41.2755C72.3238 41.4151 72.3535 41.5564 72.4269 41.6803C72.6096 41.9387 73.017 42.0147 73.3677 41.9425C73.717 41.8473 74.0423 41.6911 74.3253 41.4827C74.408 41.432 74.4792 41.3675 74.5353 41.2927C74.5637 41.2575 74.5801 41.2154 74.5823 41.1719C74.5846 41.1283 74.5726 41.085 74.5479 41.0476" fill="#634132"/>
<path d="M72.7482 39.8164C72.8658 39.8164 72.828 40.5289 73.4769 41.0666C74.1258 41.6043 74.9679 41.5644 74.9679 41.6632C74.9784 41.7088 74.7747 41.7943 74.4177 41.7867C73.9554 41.7712 73.5138 41.6091 73.1703 41.3288C72.8406 41.0587 72.6396 40.6834 72.6096 40.2819C72.597 39.9817 72.6936 39.8088 72.7482 39.8164Z" fill="#263238"/>
<path d="M57.1788 52.6718L63.0231 50.5533C63.0231 50.5533 69.4176 52.7611 72.6474 52.5806C75.8772 52.4001 78.8445 50.5533 78.8445 50.5533L87.6057 52.9188L88.1454 62.0996L87.4818 77.767C87.4818 77.767 88.9644 83.0661 88.7838 84.9148C88.6032 86.7635 86.7657 87.6451 86.7657 87.6451L87.1983 90.022H59.2935L59.8647 87.59C59.8647 87.59 56.2086 87.3126 57.1347 82.3365C57.4161 80.8431 59.9676 77.9665 58.8714 71.9188C57.7185 65.5139 57.1788 52.6718 57.1788 52.6718Z" fill="#FFC727"/>
<g opacity="0.3">
<path d="M84.84 71.3222C84.1827 70.2449 83.4435 69.1543 82.32 68.4551C81.144 67.7236 79.6677 67.5051 78.2397 67.4728C76.1208 67.431 73.9515 67.8015 72.1308 68.7857C69.6108 70.1442 68.0001 72.5097 66.5763 74.8258C65.1525 77.1419 63.756 79.5758 61.4733 81.2364L56.8911 84.2764C61.5468 84.9718 66.5511 83.2143 69.4701 79.8608C71.967 76.9918 73.0401 73.0778 76.2867 70.9004C76.9081 70.4741 77.6056 70.147 78.3489 69.9333C79.4514 69.6312 80.7177 69.6578 81.6711 70.2392C82.8828 70.9764 83.3133 72.3824 83.622 73.6725C84.5334 77.4725 85.2663 81.5138 88.0152 84.5025C88.2 84.7039 88.5297 84.911 88.746 84.7362C88.7933 84.6859 88.8292 84.6276 88.8515 84.5646C88.8739 84.5017 88.8823 84.4354 88.8762 84.3695C89.0967 79.8 87.2781 75.3293 84.84 71.3222Z" fill="black"/>
</g>
<path d="M87.5049 52.9093C87.5049 52.9093 91.4781 53.048 93.6117 61.3719C94.5609 65.0788 98.8617 77.7917 96.7617 81.5119C94.8297 84.9319 92.9397 85.2758 90.4617 85.0801C87.9837 84.8844 84.945 76.8455 84.945 76.8455V74.86L82.803 70.3342L85.9824 63.5417" fill="#FFC727"/>
<path d="M85.9803 63.536C85.9803 63.536 85.9656 63.5778 85.9299 63.6557L85.7724 64.0034L85.1529 65.3448C84.6111 66.5152 83.8215 68.2157 82.8324 70.3399V70.3152C83.4624 71.6547 84.1911 73.1747 84.9828 74.8391C84.9828 75.4585 84.9828 76.133 84.9828 76.8265V76.8132C85.4301 77.9627 85.953 79.154 86.562 80.3681C86.8665 80.9742 87.192 81.5841 87.5658 82.1883C87.9311 82.806 88.3525 83.3951 88.8258 83.9496C89.0695 84.2309 89.3518 84.4831 89.6658 84.7001C89.7431 84.7552 89.8261 84.8036 89.9136 84.8445C89.9972 84.8896 90.0859 84.9266 90.1782 84.9547C90.2708 84.981 90.3656 85.0007 90.4617 85.0136L90.7641 85.0326C91.1702 85.0611 91.5781 85.0611 91.9842 85.0326C92.1884 85.0187 92.3916 84.9952 92.5932 84.9623C93.6241 84.7755 94.5512 84.2704 95.2161 83.5335C95.7728 82.9431 96.2481 82.2936 96.6315 81.5993C96.9013 81.1237 97.0782 80.6094 97.1544 80.0793C97.2364 79.5563 97.2757 79.0286 97.272 78.5004C97.2621 77.4734 97.1815 76.4479 97.0305 75.43C96.7428 73.4084 96.306 71.4799 95.8524 69.654C95.3988 67.8281 94.9095 66.1029 94.4454 64.4898C94.2158 63.6829 93.9939 62.9046 93.7797 62.1547C93.5802 61.3947 93.3744 60.6841 93.1791 59.9982C92.7995 58.7724 92.2918 57.5821 91.6629 56.4433C91.1892 55.5817 90.5684 54.793 89.8233 54.1063C89.3528 53.6722 88.7946 53.3239 88.179 53.0803C88.0719 53.0423 87.969 53.0138 87.8934 52.9872L87.6834 52.9359L87.507 52.9093H87.5532L87.6855 52.9264L87.8955 52.972C87.9795 52.9986 88.0782 53.0233 88.1853 53.0613C88.8092 53.2981 89.3752 53.6442 89.8506 54.0797C90.6066 54.7632 91.2363 55.5523 91.7154 56.4167C92.3513 57.5573 92.8653 58.7502 93.2505 59.9792C93.4479 60.667 93.6579 61.3852 93.8595 62.1357C94.0611 62.8862 94.2984 63.6557 94.5315 64.4689C94.9977 66.0801 95.4891 67.8053 95.949 69.6331C96.4089 71.4609 96.8436 73.3913 97.1355 75.4167C97.2904 76.4465 97.3739 77.484 97.3854 78.5232C97.3894 79.0559 97.3493 79.5881 97.2657 80.1154C97.1879 80.6549 97.0074 81.1782 96.7323 81.662C96.3457 82.3636 95.8654 83.0195 95.3022 83.6152C94.7537 84.2091 94.0426 84.6624 93.24 84.93C93.0408 84.9916 92.8374 85.0411 92.631 85.0782C92.421 85.1067 92.211 85.1409 92.001 85.1504C91.59 85.1789 91.1772 85.1789 90.7662 85.1504L90.4617 85.1295C90.357 85.1164 90.2538 85.0955 90.153 85.0668C90.0548 85.036 89.9599 84.9972 89.8695 84.9509C89.7786 84.9072 89.6922 84.8563 89.6112 84.7989C89.2933 84.5778 89.0063 84.3226 88.7565 84.0389C88.2774 83.4804 87.8517 82.8861 87.4839 82.2624C87.1143 81.6525 86.7825 81.0407 86.478 80.4327C85.869 79.2167 85.3482 78.0216 84.9009 76.8683V76.855C84.9009 76.1615 84.9009 75.487 84.9009 74.8676V74.8828L82.7673 70.3532V70.3418V70.3285L85.1172 65.3448C85.3923 64.7653 85.6065 64.3169 85.7472 64.0148C85.8207 63.8666 85.8753 63.7507 85.9152 63.6709L85.9803 63.536Z" fill="#263238"/>
<path d="M87.5049 57.665C87.4985 57.7612 87.4816 57.8567 87.4545 57.95C87.4125 58.1514 87.3558 58.4117 87.2886 58.7252C87.1086 59.5753 86.9921 60.4354 86.94 61.2997C86.8984 62.1637 86.9519 63.0293 87.0996 63.8837C87.1584 64.2124 87.213 64.4765 87.2571 64.6589C87.2854 64.752 87.303 64.8475 87.3096 64.9439C87.2701 64.8545 87.2385 64.7623 87.2151 64.6684C87.1584 64.4879 87.0933 64.2238 87.024 63.897C86.8522 63.0386 86.7874 62.1655 86.8308 61.294C86.8819 60.4248 87.0097 59.5607 87.213 58.71C87.2907 58.3832 87.36 58.121 87.4125 57.9405C87.4347 57.8465 87.4656 57.7543 87.5049 57.665Z" fill="#263238"/>
<path d="M58.9197 52.9359C58.1763 52.4875 57.9726 51.4444 58.3149 50.6559C58.6572 49.8674 59.4174 49.3259 60.228 48.9991C61.572 48.4671 63.0777 48.4652 64.5141 48.659C67.4427 49.077 70.1931 50.1998 72.4773 51.9099C74.7358 50.188 77.2458 48.7559 79.9365 47.6539C80.5518 47.4031 81.2385 47.1694 81.8664 47.386C82.3998 47.576 82.7757 48.0548 82.9605 48.5773C83.1205 49.1103 83.1968 49.661 83.1873 50.2132C83.2146 51.0112 83.1978 51.9232 82.5888 52.4514C82.1961 52.7934 81.6459 52.8922 81.1188 52.9758C77.385 53.5819 73.5588 54.188 69.8397 53.4926C68.0127 53.1506 66.2571 52.4989 64.4259 52.1854C62.5947 51.8719 60.7761 52.6547 58.9113 52.934" fill="#FFC727"/>
<path d="M92.2467 59.7816C92.2467 59.7968 91.9107 59.907 91.3857 60.1369C90.0129 60.7337 88.8036 61.5987 87.8451 62.6696C87.4776 63.08 87.2802 63.3555 87.2634 63.346C87.296 63.2742 87.3376 63.206 87.3873 63.1427C87.5096 62.9643 87.6421 62.7918 87.7842 62.6259C88.2506 62.0748 88.791 61.5782 89.3928 61.1477C89.9948 60.718 90.6528 60.3568 91.3521 60.0723C91.6209 59.9659 91.8435 59.8823 92.001 59.8424C92.0797 59.8127 92.1623 59.7923 92.2467 59.7816Z" fill="#263238"/>
<path d="M72.7125 52.9321C72.733 52.8947 72.7584 52.8596 72.7881 52.8276C72.8406 52.763 72.9204 52.6661 73.0317 52.5483C73.3444 52.2078 73.7152 51.9147 74.13 51.68C74.2678 51.6066 74.4117 51.543 74.5605 51.49C74.6412 51.4561 74.7267 51.4325 74.8146 51.4197C74.8646 51.412 74.916 51.4147 74.9647 51.4275C75.0134 51.4404 75.0583 51.463 75.096 51.4938C75.1662 51.5631 75.2086 51.6518 75.2162 51.7456C75.2238 51.8394 75.1963 51.9327 75.138 52.0106C75.0206 52.1627 74.8706 52.2919 74.697 52.3906C73.969 52.8591 73.0977 53.1108 72.2043 53.1108C71.3109 53.1108 70.4396 52.8591 69.7116 52.3906C69.6243 52.3398 69.5439 52.2799 69.4722 52.212C69.4325 52.1729 69.4069 52.1239 69.3987 52.0714C69.3947 52.0437 69.3971 52.0155 69.4058 51.9887C69.4145 51.9619 69.4292 51.937 69.4491 51.9156C69.5264 51.8481 69.6294 51.8101 69.7368 51.8092C69.8319 51.8053 69.9272 51.8123 70.0203 51.8301C70.3495 51.8901 70.6711 51.9805 70.98 52.0999C71.4259 52.2698 71.8588 52.4666 72.2757 52.6889C72.4227 52.7668 72.534 52.8314 72.6096 52.8789C72.6494 52.9001 72.6867 52.9249 72.7209 52.953C72.6774 52.9382 72.6359 52.9191 72.597 52.896L72.24 52.706C71.8174 52.4987 71.3828 52.3123 70.938 52.1474C70.6326 52.0344 70.3152 51.9497 69.9909 51.8947C69.9052 51.879 69.8178 51.8726 69.7305 51.8757C69.648 51.8767 69.5688 51.9051 69.5079 51.9555C69.4957 51.9694 69.4867 51.9854 69.4814 52.0025C69.476 52.0197 69.4745 52.0376 69.4768 52.0552C69.4792 52.0729 69.4853 52.09 69.495 52.1054C69.5047 52.1209 69.5176 52.1345 69.5331 52.1455C69.6006 52.2065 69.6752 52.2606 69.7557 52.307C70.4687 52.7596 71.3186 53.0024 72.1896 53.0024C73.0606 53.0024 73.9105 52.7596 74.6235 52.307C74.7868 52.2181 74.9295 52.1013 75.0435 51.9631C75.0913 51.9017 75.1152 51.8277 75.1114 51.7527C75.1076 51.6777 75.0763 51.606 75.0225 51.5489C74.9091 51.4482 74.7264 51.4995 74.5794 51.5489C74.4344 51.6028 74.294 51.6663 74.1594 51.7389C73.75 51.9643 73.3804 52.2442 73.0632 52.5692C72.9477 52.6813 72.8637 52.7725 72.8049 52.8352C72.7768 52.8695 72.7459 52.9019 72.7125 52.9321Z" fill="#263238"/>
<path d="M71.8011 60.0058C71.785 59.9128 71.7766 59.8188 71.7759 59.7246C71.7654 59.5441 71.7612 59.2819 71.7633 58.9646C71.7775 57.2765 71.9936 55.5947 72.408 53.9486C72.4899 53.6332 72.5613 53.3786 72.618 53.2057C72.6398 53.1136 72.6722 53.0238 72.7146 52.9378C72.7051 53.0315 72.6869 53.1243 72.66 53.2152C72.6138 53.4052 72.5571 53.6617 72.4857 53.9638C72.345 54.5965 72.1728 55.4743 72.0447 56.4528C71.9166 57.4313 71.8641 58.3205 71.8347 58.9665C71.8347 59.2743 71.8179 59.5365 71.8116 59.7265C71.8189 59.8197 71.8154 59.9133 71.8011 60.0058Z" fill="#263238"/>
<path d="M74.8986 56.9658C74.7946 56.7987 74.7047 56.6246 74.6298 56.4452L74.0187 55.176L73.3887 53.9106C73.2915 53.7399 73.2107 53.5619 73.1472 53.3786C73.2678 53.537 73.3725 53.7049 73.4601 53.8802C73.6386 54.1975 73.8801 54.6402 74.1132 55.1361C74.3463 55.632 74.5584 56.0861 74.697 56.4186C74.7828 56.5949 74.8503 56.7781 74.8986 56.9658Z" fill="#263238"/>
<path d="M71.1585 53.3786C71.1167 53.3686 71.0759 53.3552 71.0367 53.3387L70.6965 53.2095C70.5516 53.1506 70.3731 53.0822 70.1589 53.01C69.9447 52.9378 69.7116 52.8466 69.4386 52.7668C69.1656 52.687 68.8758 52.5901 68.5524 52.5084C68.229 52.4267 67.8846 52.3431 67.5192 52.2595C65.9279 51.92 64.2939 51.7724 62.6598 51.8206C62.2839 51.8358 61.9248 51.8472 61.593 51.8795C61.2612 51.9118 60.9483 51.9384 60.6669 51.9726C60.3855 52.0068 60.1293 52.0486 59.9067 52.0828C59.6841 52.117 59.4867 52.1493 59.3355 52.1816L58.9764 52.2481C58.9345 52.2579 58.8915 52.263 58.8483 52.2633C58.8878 52.2486 58.9286 52.2365 58.9701 52.2272L59.3271 52.1436C59.4825 52.1075 59.6715 52.0657 59.8962 52.0277C60.1209 51.9897 60.3708 51.9365 60.6543 51.9042C60.9378 51.8719 61.2486 51.8225 61.5846 51.7978C61.9206 51.7731 62.2776 51.7484 62.6556 51.7294C63.4767 51.7037 64.2988 51.7259 65.1168 51.7959C65.9333 51.8764 66.7434 52.0034 67.5423 52.1759C67.9098 52.2633 68.2584 52.3412 68.5776 52.4362C68.8968 52.5312 69.1971 52.6262 69.4659 52.7079C69.7347 52.7896 69.972 52.8865 70.182 52.9644C70.392 53.0423 70.5705 53.1164 70.7154 53.181L71.0451 53.3273C71.0848 53.3407 71.1228 53.3579 71.1585 53.3786Z" fill="#263238"/>
<path d="M82.4964 51.3133C82.3843 51.3609 82.2685 51.4009 82.1499 51.433C81.9273 51.5052 81.5997 51.6021 81.1923 51.7161C80.3796 51.9422 79.2477 52.2272 77.9793 52.4761C76.7109 52.725 75.5517 52.9074 74.7096 53.0119C74.2896 53.0651 73.9473 53.1012 73.71 53.1221C73.5876 53.1386 73.4641 53.1468 73.3404 53.1468C73.4595 53.1174 73.581 53.0965 73.7037 53.0841L74.697 52.9435C75.537 52.82 76.692 52.6338 77.9562 52.3735C79.2204 52.1132 80.3544 51.8472 81.1713 51.6363L82.1373 51.3855C82.2544 51.352 82.3746 51.3279 82.4964 51.3133Z" fill="#263238"/>
<path d="M88.8069 66.6672C88.8069 66.6672 85.6569 62.8824 84.6762 62.4625C83.6955 62.0426 76.9209 59.3047 76.3686 59.0729C75.8163 58.8411 75.0246 59.2059 75.1842 59.4852C75.3438 59.7645 75.8142 60.4219 75.8142 60.4219L74.7012 59.9602L73.8108 62.4625C73.8108 62.4625 77.07 66.2131 78.0234 67.26C78.9768 68.3069 82.8009 69.1049 82.8009 69.1049L83.5506 70.4653C87.3096 70.319 88.8069 66.6672 88.8069 66.6672Z" fill="#694B47"/>
<path d="M71.7948 65.1567C71.7948 65.1567 72.7167 61.7519 73.143 61.0983C73.5693 60.4447 75.2724 58.6283 75.4866 57.9747C75.7008 57.3211 75.6441 56.8195 75.9486 56.7416C76.2531 56.6637 77.0196 57.3116 77.0196 58.0146C77.0196 58.7176 75.9486 60.7886 75.9486 60.7886C75.9486 60.7886 79.6194 59.5555 80.7261 59.2097C81.8328 58.8639 84.987 58.7461 84.987 58.7461C84.987 58.7461 85.4973 59.4396 84.8169 59.9032L86.52 59.7493C86.52 59.7493 86.6901 60.5967 86.1378 60.8285L87.0744 60.5967C87.0744 60.5967 87.7044 61.522 86.3919 62.0616L86.0097 62.2155C86.0097 62.2155 86.478 62.871 85.8816 63.3327C85.2852 63.7944 82.7715 64.8755 82.3452 65.2992C81.9189 65.7229 79.3632 67.9193 78.1704 68.267C77.1575 68.5924 76.1648 68.9672 75.1968 69.3899L71.7948 65.1567Z" fill="#694B47"/>
<path d="M71.7948 65.1567L71.8578 65.2289L72.0363 65.4417L72.7125 66.272L75.2325 69.3709L75.1905 69.3614C75.9843 69.0213 76.8705 68.6565 77.8449 68.3316C78.0972 68.2631 78.3419 68.1734 78.5757 68.0637C78.816 67.9465 79.0475 67.8151 79.2687 67.6704C79.7244 67.3797 80.1717 67.0529 80.6211 66.7033C81.0705 66.3537 81.522 65.9832 81.9693 65.5899C82.0806 65.4911 82.1919 65.3999 82.299 65.2878C82.4146 65.1828 82.5428 65.0898 82.6812 65.0104C82.95 64.8489 83.2314 64.7026 83.5212 64.5544C84.0903 64.2599 84.6825 63.9749 85.2663 63.6595C85.4133 63.5797 85.5582 63.498 85.6968 63.4106C85.8372 63.3307 85.9562 63.2237 86.0454 63.0971C86.1182 62.9619 86.1506 62.8118 86.1392 62.6618C86.1277 62.5117 86.0729 62.367 85.9803 62.2421L85.9488 62.1946L86.0013 62.1718C86.3499 62.0255 86.7426 61.9077 86.9841 61.6227C87.1114 61.4867 87.1853 61.3163 87.1941 61.1382C87.1968 60.9574 87.1468 60.7792 87.0492 60.6214L87.1101 60.6442L86.1714 60.876L85.6674 60.9995L86.1357 60.7829C86.2233 60.7427 86.2989 60.6841 86.3562 60.6119C86.4114 60.5318 86.4512 60.4438 86.4738 60.3516C86.5186 60.1559 86.5236 59.9543 86.4885 59.7569L86.5473 59.7968L84.8421 59.9526L84.672 59.9678L84.8043 59.8633C84.8953 59.8052 84.9713 59.7299 85.0271 59.6426C85.0829 59.5554 85.1172 59.4583 85.1277 59.3579C85.1338 59.1567 85.0739 58.9584 84.9555 58.7879L85.0038 58.8088C84.1638 58.843 83.349 58.8962 82.5426 58.976C82.1394 59.0159 81.7404 59.0653 81.3519 59.1337C81.158 59.166 80.9666 59.2092 80.7786 59.2629L80.2242 59.4529L75.9801 60.8532L75.8688 60.8893L75.9192 60.7905C76.1565 60.3212 76.377 59.8538 76.5744 59.3902C76.671 59.1584 76.7613 58.9266 76.839 58.6948C76.926 58.4716 76.9756 58.2378 76.986 58.0013C76.9729 57.7729 76.894 57.5515 76.7571 57.3591C76.6311 57.1668 76.4597 57.002 76.2552 56.8765C76.1565 56.8233 76.0452 56.772 75.9465 56.8119C75.9001 56.8381 75.8605 56.8731 75.8305 56.9144C75.8004 56.9557 75.7805 57.0024 75.7722 57.0513C75.7113 57.2584 75.6819 57.4769 75.6294 57.6859C75.6063 57.7904 75.5748 57.893 75.5433 57.9956C75.5244 58.0469 75.5013 58.0963 75.4824 58.1476L75.4026 58.2882C75.2913 58.4782 75.1716 58.6454 75.0477 58.8107C74.7978 59.1413 74.5437 59.451 74.2959 59.7493L73.5882 60.6024C73.3614 60.853 73.1748 61.1312 73.0338 61.4289C72.7881 61.9989 72.6138 62.5385 72.471 63.0002C72.3282 63.4619 72.2022 63.8609 72.1056 64.1839L71.8956 64.923C71.8704 65.0047 71.8515 65.0674 71.8389 65.113C71.833 65.1351 71.8253 65.1567 71.8158 65.1776C71.8158 65.1776 71.8158 65.1548 71.8305 65.1111C71.8452 65.0674 71.8578 65.0028 71.8788 64.9211C71.925 64.7501 71.9943 64.5012 72.0888 64.1782C72.1833 63.8552 72.2988 63.4562 72.4374 62.9907C72.576 62.5252 72.7461 61.9913 72.9918 61.4099C73.1322 61.1079 73.3188 60.8252 73.5462 60.5701C73.7709 60.2946 74.0061 60.0096 74.2518 59.7113C74.4975 59.413 74.7495 59.1033 74.9952 58.7727C75.2731 58.4485 75.4669 58.0719 75.5622 57.6707C75.6126 57.4636 75.6378 57.2508 75.7029 57.0323C75.7141 56.9721 75.7399 56.9148 75.7784 56.8645C75.8168 56.8143 75.8671 56.7723 75.9255 56.7416C75.993 56.7179 76.068 56.7179 76.1355 56.7416C76.1988 56.7588 76.259 56.7844 76.314 56.8176C76.532 56.948 76.7144 57.1214 76.8474 57.3249C76.9929 57.5292 77.0769 57.7643 77.091 58.007C77.0816 58.2525 77.0314 58.4953 76.9419 58.7271C76.8642 58.9608 76.7739 59.1945 76.6752 59.4282C76.4799 59.8956 76.2552 60.363 76.0221 60.8361L75.9591 60.7753L80.2011 59.3693L80.7576 59.1793C80.9499 59.1254 81.1456 59.0816 81.3435 59.0482C81.7383 58.9779 82.1394 58.9285 82.5426 58.8886C83.3532 58.8088 84.1764 58.7556 85.0122 58.7195H85.0437L85.0584 58.7442C85.1934 58.9348 85.2601 59.1584 85.2495 59.3845C85.2362 59.4974 85.1968 59.6065 85.1338 59.7047C85.0709 59.8029 84.9858 59.888 84.8841 59.9545L84.8463 59.8652L86.5515 59.7113H86.6019V59.7569C86.6391 59.9675 86.6341 60.1825 86.5872 60.3915C86.5617 60.4957 86.5154 60.5949 86.4507 60.6841C86.3834 60.7719 86.2923 60.8426 86.1861 60.8893L86.1504 60.7981L87.087 60.5663L87.1269 60.5568L87.1479 60.5872C87.257 60.7607 87.3121 60.9577 87.3075 61.1572C87.2995 61.3553 87.2199 61.5456 87.0807 61.6987C87.0133 61.7724 86.938 61.8398 86.856 61.9001C86.773 61.9548 86.686 62.0044 86.5956 62.0483C86.415 62.1376 86.2344 62.2003 86.058 62.2744L86.0811 62.2041C86.1767 62.3479 86.2368 62.5086 86.2575 62.6753C86.2805 62.8431 86.243 63.013 86.1504 63.1598C86.0536 63.2981 85.9237 63.415 85.7703 63.5018C85.6254 63.593 85.4805 63.6747 85.3335 63.7545C84.7434 64.0718 84.1533 64.3549 83.5842 64.6475C83.2986 64.7938 83.0193 64.9401 82.7547 65.0997C82.6229 65.175 82.5004 65.2629 82.3893 65.3619C82.2801 65.4683 82.1688 65.5671 82.0554 65.6659C81.606 66.063 81.1524 66.4259 80.7009 66.7831C80.2494 67.1403 79.7979 67.4595 79.338 67.7502C79.1122 67.8949 78.8773 68.0275 78.6345 68.1473C78.396 68.2565 78.1472 68.3461 77.8911 68.4152C76.9125 68.7344 76.0326 69.0954 75.2388 69.4317L75.2136 69.4431L75.1968 69.4222L72.7062 66.2967L72.0447 65.4607L71.8767 65.246C71.82 65.1814 71.7948 65.1567 71.7948 65.1567Z" fill="#9C634A"/>
<path d="M84.8169 59.9032C84.7363 59.9208 84.654 59.931 84.5712 59.9336C84.4137 59.9469 84.1848 59.9697 83.9055 60.002C83.1748 60.087 82.4514 60.2172 81.7404 60.3915C81.3204 60.4979 80.9361 60.6138 80.5854 60.7316C80.2347 60.8494 79.926 60.9691 79.674 61.0831C79.1637 61.3035 78.8676 61.4745 78.8571 61.4631C78.9182 61.4125 78.9851 61.368 79.0566 61.3301C79.1217 61.2902 79.2036 61.2427 79.3023 61.1933C79.401 61.1439 79.5123 61.0812 79.6383 61.0242C79.9342 60.8826 80.2385 60.7558 80.5497 60.6442C80.9004 60.5207 81.2931 60.401 81.7131 60.2946C82.4284 60.1174 83.159 59.9953 83.8971 59.9298C84.1806 59.907 84.4095 59.8956 84.5691 59.8937C84.6518 59.8875 84.735 59.8907 84.8169 59.9032Z" fill="#9C634A"/>
<path d="M80.6694 62.5518C80.7203 62.5022 80.7782 62.4587 80.8416 62.4226C80.955 62.3447 81.1293 62.2326 81.3477 62.1186C81.926 61.8114 82.5402 61.5628 83.1789 61.3776C83.8164 61.1943 84.4686 61.0558 85.1298 60.9634C85.3839 60.9273 85.5897 60.9026 85.7325 60.8893C85.8058 60.8766 85.8807 60.8734 85.9551 60.8798C85.8872 60.9025 85.8168 60.9184 85.7451 60.9273L85.1508 61.0318C84.4979 61.1448 83.8528 61.292 83.2188 61.4726C82.5873 61.6558 81.9763 61.8925 81.3939 62.1794C80.9403 62.4036 80.6799 62.5651 80.6694 62.5518Z" fill="#9C634A"/>
<path d="M85.8228 62.0806C85.8228 62.0958 85.5435 62.1414 85.0983 62.244C84.5179 62.3784 83.9516 62.5583 83.4057 62.7817C82.8607 63.0069 82.338 63.2738 81.8433 63.5797C81.4653 63.8172 81.2427 63.9787 81.2322 63.9597C81.2217 63.9407 81.2763 63.9084 81.3729 63.8305C81.4695 63.7526 81.6144 63.6405 81.7929 63.5151C82.7676 62.8595 83.886 62.4002 85.0731 62.168C85.252 62.1317 85.4328 62.1038 85.6149 62.0844C85.6836 62.0737 85.7537 62.0725 85.8228 62.0806Z" fill="#9C634A"/>
<path d="M57.2775 52.82C57.057 52.8865 56.4522 53.01 54.5349 54.5642C52.92 55.86 51.891 58.3072 51.2505 60.5321C50.6372 62.6924 50.3052 64.9102 50.2614 67.1403C50.1879 70.167 50.0514 75.791 50.0514 76.475C50.0367 77.8677 49.896 83.1402 56.8932 83.8299C61.8387 84.3163 70.1232 77.3547 70.4865 76.2128C70.8498 75.0709 71.2551 73.3742 71.2551 73.3742L75.747 69.73L71.5932 64.562L59.8752 70.9688L61.32 62.6753" fill="#FFC727"/>
<path d="M61.32 62.6753C61.32 62.6753 61.32 62.7247 61.299 62.8178C61.278 62.9109 61.2612 63.0534 61.2297 63.2377L60.9546 64.8603C60.711 66.2815 60.354 68.3525 59.9046 70.9669L59.8563 70.9365L71.568 64.5183L71.6037 64.4993L71.6289 64.5297L75.7869 69.6958L75.8142 69.7281L75.7806 69.7566L71.2845 73.4103L71.3013 73.3837C71.0913 74.2273 70.8813 75.0804 70.623 75.9392C70.5894 76.0475 70.5621 76.1539 70.518 76.2622C70.4684 76.3695 70.4057 76.4714 70.3311 76.5662C70.1876 76.7513 70.0326 76.9289 69.867 77.0982C69.5373 77.4402 69.1866 77.7651 68.817 78.0843C67.3304 79.381 65.7134 80.5495 63.987 81.5746C62.621 82.4112 61.138 83.0796 59.577 83.562C58.8083 83.7968 58.0004 83.9093 57.1893 83.8945C56.3952 83.8474 55.61 83.716 54.8499 83.5031C54.0992 83.2985 53.39 82.9854 52.7499 82.5759C52.1213 82.1723 51.5856 81.6619 51.1728 81.073C50.3433 79.9102 50.0367 78.5422 49.9884 77.2426C49.9653 76.589 49.9884 75.9468 50.0094 75.3122C50.0304 74.6776 50.0388 74.0506 50.0535 73.4331C50.0829 72.2 50.1102 71.0011 50.1375 69.844C50.1648 68.6869 50.1816 67.564 50.2257 66.4905C50.2731 65.4588 50.381 64.43 50.5491 63.4087C50.8311 61.6505 51.3146 59.9235 51.9918 58.2559C52.5987 56.791 53.3547 55.5959 54.2073 54.7979C54.6441 54.4084 55.0662 54.1025 55.4274 53.8327C55.7342 53.6063 56.0539 53.3945 56.385 53.1981C56.5871 53.0751 56.8016 52.9695 57.0255 52.8827C57.102 52.8539 57.1806 52.8297 57.2607 52.8105L57.204 52.8314C57.1447 52.8487 57.0865 52.869 57.0297 52.8922C56.8095 52.9828 56.5987 53.0909 56.3997 53.2152C56.0711 53.4134 55.7543 53.6271 55.4505 53.8555C55.0914 54.1272 54.6693 54.4369 54.2409 54.8245C53.4009 55.6206 52.6512 56.8119 52.0506 58.2749C51.3806 59.9401 50.9035 61.6638 50.6268 63.4182C50.4627 64.4379 50.3575 65.4647 50.3118 66.4943C50.2698 67.5659 50.2593 68.6869 50.2299 69.844C50.2005 71.0011 50.1774 72.2 50.1522 73.435C50.1375 74.0525 50.1249 74.6776 50.1102 75.3122C50.0955 75.9468 50.0682 76.5909 50.0913 77.2388C50.1396 78.5289 50.4462 79.8779 51.261 81.0217C51.4656 81.3073 51.6983 81.5756 51.9561 81.8235C52.2182 82.0716 52.505 82.2974 52.8129 82.498C53.4441 82.9011 54.1434 83.2091 54.8835 83.41C55.634 83.6196 56.4095 83.7472 57.1935 83.79C57.9926 83.8042 58.7884 83.693 59.5455 83.4613C61.0953 82.9824 62.5671 82.3178 63.9219 81.4853C65.6417 80.4635 67.253 79.2995 68.7351 78.0083C69.0963 77.691 69.447 77.368 69.7725 77.0298C69.9351 76.8628 70.0873 76.6878 70.2282 76.5054C70.2987 76.4184 70.3572 76.324 70.4025 76.2242C70.4445 76.1254 70.4739 76.0133 70.5075 75.9088C70.7679 75.0538 70.9842 74.1988 71.1858 73.359V73.3438L71.1984 73.3324L75.6945 69.6825V69.7433C74.2392 67.9326 72.8469 66.196 71.5449 64.5734L71.6058 64.5848L59.892 70.9859L59.8332 71.0201L59.8437 70.9574C60.3057 68.3449 60.6711 66.2758 60.9231 64.8565C61.0512 64.1497 61.1478 63.6044 61.215 63.2339L61.2927 62.8178C61.32 62.7228 61.32 62.6753 61.32 62.6753Z" fill="#263238"/>
<path d="M53.4261 56.7359C53.4611 56.7418 53.495 56.752 53.5269 56.7663L53.8083 56.8708C53.958 56.9239 54.1045 56.9841 54.2472 57.0513C54.4152 57.1273 54.6105 57.209 54.8163 57.3173C55.0221 57.4256 55.2489 57.5358 55.482 57.6745C55.7151 57.8132 55.9608 57.9652 56.217 58.1286C57.3163 58.8584 58.2828 59.7393 59.0814 60.7392C59.2599 60.9729 59.4342 61.1914 59.577 61.408C59.7198 61.6246 59.8563 61.826 59.9676 62.0141C60.0789 62.2022 60.1776 62.377 60.2574 62.529C60.3307 62.6588 60.3966 62.792 60.4548 62.928C60.501 63.0306 60.5388 63.118 60.5682 63.1826C60.5833 63.2124 60.5945 63.2436 60.6018 63.2757C60.5796 63.2501 60.5612 63.222 60.5472 63.1921C60.5136 63.1237 60.4695 63.042 60.417 62.9432C60.3645 62.8444 60.2931 62.7019 60.207 62.5632C60.1209 62.4245 60.0285 62.2383 59.9046 62.0578C59.7807 61.8773 59.6589 61.6778 59.5056 61.4612C59.3523 61.2446 59.1843 61.0318 59.0058 60.8019C58.2028 59.8177 57.2449 58.9452 56.1624 58.2122C55.9083 58.0469 55.6731 57.8854 55.4379 57.7543C55.2027 57.6232 54.9864 57.494 54.7827 57.3876C54.579 57.2812 54.39 57.1976 54.2241 57.1102C54.0582 57.0228 53.9154 56.9658 53.8041 56.9202L53.5311 56.7986C53.4555 56.7549 53.424 56.7397 53.4261 56.7359Z" fill="#263238"/>
<path d="M65.982 67.488C66.0233 67.58 66.0569 67.6746 66.0828 67.7711C66.1458 67.9611 66.2424 68.2138 66.3894 68.5311C66.781 69.3454 67.294 70.1074 67.914 70.7959C68.5422 71.4817 69.2154 72.1327 69.93 72.7453L70.5726 73.3153C70.6547 73.3811 70.7299 73.4536 70.7973 73.5319C70.707 73.475 70.622 73.4115 70.5432 73.3419C70.3836 73.2165 70.1547 73.0322 69.8775 72.7985C69.1423 72.1978 68.4578 71.5481 67.83 70.8548C67.2017 70.1613 66.692 69.3863 66.318 68.5558C66.2068 68.3034 66.1149 68.0444 66.0429 67.7806C66.0156 67.6875 66.003 67.6134 65.9925 67.564C65.982 67.5146 65.9778 67.488 65.982 67.488Z" fill="#263238"/>
<path d="M96.6714 76.665C96.6588 76.665 96.6546 76.475 96.6042 76.1178C96.5375 75.623 96.383 75.1411 96.1464 74.6909C95.7799 74.0289 95.3135 73.4163 94.7604 72.8707L93.8007 71.8827C93.6369 71.7098 93.4647 71.5369 93.3051 71.3469C93.1455 71.1569 92.9943 70.9669 92.8473 70.7579C92.2635 69.9428 91.7742 69.1334 91.2933 68.4171C90.8842 67.7753 90.4171 67.1652 89.8968 66.5931C89.4411 66.1162 88.9665 65.8103 88.5885 65.7305C88.3923 65.689 88.189 65.6826 87.99 65.7115C88.0397 65.6957 88.0911 65.6842 88.1433 65.6773C88.2949 65.6567 88.4495 65.6618 88.599 65.6925C88.9938 65.7647 89.4873 66.0725 89.9535 66.5475C90.4875 67.1154 90.9647 67.7252 91.3794 68.3696C91.8645 69.084 92.358 69.8896 92.9376 70.7028C93.0846 70.9042 93.2316 71.1018 93.3912 71.2861C93.5508 71.4704 93.7188 71.6452 93.8826 71.8181C94.2123 72.162 94.5378 72.4907 94.8381 72.8118C95.3925 73.366 95.8564 73.9892 96.2157 74.6624C96.4494 75.1207 96.5956 75.6115 96.6483 76.114C96.6648 76.2497 96.6732 76.386 96.6735 76.5225C96.6765 76.57 96.6758 76.6176 96.6714 76.665Z" fill="#263238"/>
<path d="M88.8426 66.2283C88.8339 66.322 88.8135 66.4144 88.7817 66.5038C88.7072 66.7506 88.6125 66.9919 88.4982 67.2258C88.1228 68.003 87.5542 68.6912 86.8366 69.237C86.119 69.7827 85.2719 70.1712 84.3612 70.3722C84.0851 70.4336 83.8043 70.4761 83.5212 70.4995C83.4178 70.5087 83.3137 70.5087 83.2104 70.4995C83.3103 70.4767 83.4122 70.4615 83.5149 70.4539C83.791 70.4158 84.0645 70.3631 84.3339 70.2962C85.2251 70.08 86.053 69.6895 86.7595 69.1525C87.4659 68.6155 88.0336 67.9448 88.4226 67.1878C88.542 66.9595 88.6458 66.7247 88.7334 66.4848C88.7632 66.3971 88.7996 66.3114 88.8426 66.2283Z" fill="#263238"/>
<path d="M92.3664 70.9612C92.3679 70.9901 92.3636 71.0191 92.3538 71.0467C92.3389 71.1286 92.3192 71.2098 92.295 71.2899C92.2107 71.5836 92.0953 71.8693 91.9506 72.143C91.4764 73.0605 90.7127 73.8305 89.7556 74.356C88.7986 74.8814 87.691 75.1388 86.5725 75.0956C86.2365 75.0859 85.9024 75.0465 85.575 74.9778C85.4595 74.9569 85.365 74.9284 85.3125 74.9132C85.2805 74.9083 85.2499 74.898 85.2222 74.8828C85.3437 74.8958 85.4642 74.9148 85.5834 74.9398C86.8308 75.1582 88.123 74.9998 89.2612 74.489C90.3994 73.9782 91.3207 73.1433 91.8834 72.1126C92.0324 71.844 92.1574 71.5651 92.2572 71.2785C92.2871 71.171 92.3235 71.065 92.3664 70.9612Z" fill="#263238"/>
<path d="M86.4717 87.8085C86.4717 87.8351 80.6421 87.8579 73.4517 87.8579C66.2613 87.8579 60.4317 87.8351 60.4317 87.8085C60.4317 87.7819 66.2592 87.7591 73.4517 87.7591C80.6442 87.7591 86.4717 87.78 86.4717 87.8085Z" fill="#263238"/>
<path d="M54.4404 53.4831C54.7548 53.9696 55.2119 54.368 55.7609 54.6343C56.31 54.9005 56.9297 55.0243 57.5516 54.9918C58.1735 54.9594 58.7734 54.772 59.285 54.4505C59.7966 54.1289 60.2 53.6856 60.4506 53.1696C61.079 53.529 61.8141 53.7053 62.5567 53.6747C63.2994 53.6441 64.0138 53.4082 64.6035 52.9987C65.1933 52.5892 65.63 52.0258 65.8547 51.3847C66.0794 50.7435 66.0813 50.0555 65.8602 49.4133C67.0068 49.3886 67.7502 48.2942 68.0169 47.2853C68.3014 46.1259 68.2501 44.9197 67.8678 43.7835C67.4855 42.6474 66.7853 41.6199 65.835 40.8006" fill="#263238"/>
<path d="M56.616 73.9366C56.6206 73.8795 56.6362 73.8235 56.6622 73.7713C56.7158 73.6235 56.7811 73.4794 56.8575 73.34C57.3599 72.4075 58.1911 71.6528 59.22 71.1949C59.373 71.1241 59.5316 71.0638 59.6946 71.0144C59.7529 70.9922 59.8144 70.9775 59.8773 70.9707C59.8773 70.9878 59.6316 71.0714 59.2473 71.2557C58.262 71.7417 57.4548 72.4773 56.9247 73.3723C56.7231 73.72 56.6328 73.9423 56.616 73.9366Z" fill="#263238"/>
</svg>
