<svg width="38" height="94" viewBox="0 0 38 94" fill="none" xmlns="http://www.w3.org/2000/svg">
<path d="M28.0389 18.7904C28.0389 18.7904 31.4205 19.1702 32.2777 20.8684C33.1349 22.5666 35.2599 26.3731 35.2599 26.3731L37.8009 32.0924C37.9932 32.5232 38.0479 33.0021 37.9576 33.4646C37.8673 33.9272 37.6365 34.3512 37.2961 34.6796L35.1128 36.7879L30.3692 41.4311L28.0278 39.854L33.0073 32.9402L31.9254 30.9282C31.9254 30.9282 29.6007 29.5823 28.971 26.1281C28.3413 22.674 28.1943 21.829 28.1943 21.829L28.0389 18.7904Z" fill="#A2675F"/>
<path d="M35.4152 32.3126C35.0772 32.3016 34.7388 32.3145 34.4026 32.3511C34.0739 32.4324 33.7514 32.5363 33.4373 32.6621C33.6904 32.4111 34.022 32.2529 34.3777 32.2135C34.7249 32.1303 35.0903 32.1652 35.4152 32.3126Z" fill="#6F4439"/>
<path d="M10.4706 85.0528L10.7481 86.6244C10.7481 86.6244 9.66338 88.4822 9.04476 89.129C8.42613 89.7758 6.82549 90.6924 6.41215 91.2236C5.99881 91.7548 6.34834 93.7007 8.05163 93.9759C9.75492 94.2511 11.1198 92.0905 12.0796 91.1162C12.8592 90.3349 13.7088 89.6255 14.6179 88.9969C14.9896 88.763 14.174 84.3702 14.174 84.3702L10.4706 85.0528Z" fill="#A2675F"/>
<path d="M27.2068 43.7595C27.2068 43.7595 29.2485 49.5119 27.1402 58.6029C25.6921 64.8479 25.0707 66.6562 25.3315 69.1416C25.5922 71.6269 25.4952 76.0472 24.2856 79.6995C23.5551 81.9066 23.0313 84.1759 22.7211 86.4785L19.517 86.2033C19.517 86.2033 18.6043 79.5784 18.6543 75.827C18.7042 72.0755 19.8915 71.8113 19.603 69.4966C19.3145 67.1819 19.0953 67.4241 19.0787 64.3442C19.062 61.2644 17.761 49.5835 17.761 49.5835L27.2068 43.7595Z" fill="#A2675F"/>
<path d="M22.9068 84.9841V86.1731C22.9068 86.1731 23.9915 88.0309 24.6101 88.6805C25.2288 89.33 26.8294 90.2438 27.2428 90.775C27.6561 91.3062 27.3066 93.2521 25.6033 93.5273C23.9 93.8026 22.5351 91.6392 21.5753 90.6677C21.0058 90.0886 20.3346 89.6176 19.5946 89.2777C19.2229 89.0438 19.7 84.8547 19.7 84.8547L22.9068 84.9841Z" fill="#A2675F"/>
<path d="M9.21387 43.2174C9.21387 43.2174 7.60767 46.8725 7.31916 48.7964C6.37874 55.0827 4.853 65.8141 5.09989 68.6875C5.40227 72.4417 10.673 86.4291 10.673 86.4291L14.3626 85.3584C14.3626 85.3584 13.5525 79.2592 13.8216 76.2757C14.0907 73.2922 11.4304 68.316 11.4304 68.316C11.4304 68.316 13.4832 62.5801 14.6289 59.1589C15.9993 55.0717 18.3656 49.0166 18.3656 49.0166L9.21387 43.2174Z" fill="#A2675F"/>
<path d="M17.5446 15.9362C17.3338 15.8839 10.7509 17.4968 10.7509 17.4968C10.7509 17.4968 9.10582 25.7538 9.42484 26.0978C9.74386 26.4418 11.0172 32.2603 11.1753 34.3548C11.3334 36.4493 11.1753 37.1787 11.1753 37.1787L10.5511 39.7797L16.7457 44.6238L26.3135 41.3485L24.9902 37.9383L26.7906 30.9337L29.3927 25.2446L30.8685 19.594L23.8501 16.3711L17.5446 15.9362Z" fill="#A2675F"/>
<path d="M10.54 39.7908L10.8868 38.3458C10.8868 38.3458 15.1617 41.244 18.3075 41.1972C21.4533 41.1505 25.4397 39.1357 25.4813 39.2458C25.5229 39.3559 26.0749 40.2642 26.0749 40.2642L19.5142 43.322L16.3379 43.1239L13.1449 41.5688L10.54 39.7908Z" fill="#E0E0E0"/>
<path d="M27.5369 44.6348C27.3094 42.7082 26.0749 40.2641 26.0749 40.2641C21.04 42.9779 15.8608 43.044 10.5401 39.4714C10.5401 39.4714 8.83398 42.8953 8.52051 44.1779L14.8621 47.5991L15.1062 48.3147C15.2768 48.8118 15.5712 49.2582 15.9621 49.6123C16.353 49.9664 16.8276 50.2169 17.3421 50.3404C17.796 50.4213 18.264 50.3394 18.6626 50.1092L27.5369 44.6348Z" fill="#E92727"/>
<path d="M18.9955 49.9909C18.9955 49.9909 18.9761 50.0129 18.9317 50.0459C18.8684 50.0945 18.8006 50.1369 18.7291 50.1726C18.4637 50.3118 18.1694 50.3881 17.8692 50.3955C17.4221 50.4063 16.9807 50.2949 16.5931 50.0735C16.1191 49.804 15.7257 49.4146 15.4529 48.945C15.1856 48.4842 14.952 48.005 14.7539 47.511C14.5904 47.1144 14.3985 46.73 14.1797 46.3606C14.0265 46.1164 13.846 45.8901 13.6415 45.6862C13.5574 45.6198 13.4794 45.5461 13.4084 45.4661C13.5091 45.5122 13.6025 45.5724 13.6859 45.645C13.9098 45.8392 14.1067 46.0623 14.2712 46.3083C14.5063 46.6749 14.7096 47.0607 14.8787 47.4615C15.0811 47.9461 15.3156 48.4168 15.5806 48.8707C15.839 49.3245 16.2118 49.7038 16.6625 49.9716C17.0298 50.1874 17.4479 50.3032 17.8747 50.3074C18.1616 50.3084 18.4454 50.2483 18.707 50.1313C18.8984 50.0432 18.9955 49.9799 18.9955 49.9909Z" fill="#263238"/>
<path d="M12.3931 17.2573C12.235 17.2738 9.877 17.4032 8.52602 18.7904C7.31737 20.0559 6.18187 21.3884 5.12499 22.7813C5.12499 22.7813 0.933346 26.8877 0.0844755 30.3639C-0.764395 33.8401 5.06397 42.6008 5.06397 42.6008L7.29988 41.4063L4.75325 31.7731L5.6493 30.2704C5.6493 30.2704 7.21665 30.2704 8.62866 28.085C10.2515 25.5776 12.1323 22.2418 12.1323 22.2418L12.3931 17.2573Z" fill="#A2675F"/>
<path d="M4.44521 31.7924C4.44521 31.8337 4.06516 31.7483 3.61299 31.7924C3.16081 31.8364 2.80295 31.963 2.78076 31.9245C3.01417 31.7452 3.30119 31.6484 3.59634 31.6493C3.88746 31.6044 4.18537 31.6547 4.44521 31.7924Z" fill="#6F4439"/>
<path d="M9.91317 19.6052C9.93814 19.6052 9.78279 20.0731 9.63576 20.8355C9.55254 21.2153 9.49151 21.6612 9.43326 22.1869C9.38176 22.7414 9.35953 23.2981 9.36667 23.8548C9.38786 24.869 9.51052 25.8785 9.73285 26.8686C9.81884 27.2485 9.89652 27.554 9.95755 27.7631C9.99435 27.8714 10.0204 27.9829 10.0352 28.0962C9.97953 27.9961 9.93576 27.8898 9.90484 27.7797C9.82716 27.576 9.73562 27.2705 9.62743 26.8907C9.37603 25.9001 9.23922 24.8844 9.21965 23.8631C9.21174 23.3006 9.23767 22.7381 9.29731 22.1787C9.34842 21.7212 9.42717 21.2671 9.53312 20.819C9.57196 20.6291 9.62466 20.4584 9.66627 20.3071C9.70788 20.1557 9.74949 20.0318 9.78556 19.9272C9.81772 19.8161 9.86045 19.7083 9.91317 19.6052Z" fill="#6F4439"/>
<path d="M28.0388 27.5979C27.9939 27.6772 27.9399 27.7511 27.8779 27.8181C27.8132 27.9026 27.7428 27.9826 27.6671 28.0576C27.5718 28.1611 27.4708 28.2594 27.3647 28.3521C27.0898 28.5983 26.7894 28.8151 26.4687 28.9989C26.0707 29.2205 25.6429 29.3845 25.1982 29.486C24.7551 29.5906 24.2989 29.6296 23.8444 29.6016C23.4701 29.5815 23.0986 29.5262 22.7348 29.4365C22.5006 29.3723 22.2708 29.2932 22.0468 29.1998C21.9595 29.1717 21.8758 29.1338 21.7971 29.087C21.7971 29.0594 22.1689 29.2026 22.7764 29.3374C23.1306 29.4123 23.4908 29.4565 23.8527 29.4695C24.2955 29.4913 24.7392 29.4505 25.1704 29.3484C25.6017 29.2494 26.0177 29.0939 26.4077 28.886C26.7251 28.7122 27.0243 28.5076 27.3009 28.275C27.7725 27.8814 28.0166 27.5814 28.0388 27.5979Z" fill="#6F4439"/>
<path d="M30.3442 22.0162C30.3637 22.0162 30.2388 22.2915 30.0668 22.7731C29.8948 23.2548 29.7007 23.8906 29.4732 24.6089C29.2457 25.3273 29.0266 25.9851 28.8379 26.4392C28.7507 26.694 28.6304 26.9364 28.4801 27.1604C28.4606 27.1604 28.5827 26.8714 28.7436 26.4062C28.9045 25.9411 29.1125 25.2888 29.34 24.5677C29.5675 23.8465 29.7867 23.1915 29.9753 22.7373C30.0654 22.4818 30.1894 22.2392 30.3442 22.0162Z" fill="#6F4439"/>
<path d="M4.58667 41.7505C4.58667 41.7505 5.14149 43.1267 5.97371 43.1707C6.80594 43.2148 8.82549 42.345 8.82549 42.345L9.83524 42.4827L11.3 43.3992C11.343 43.3754 11.3807 43.343 11.4107 43.3042C11.4407 43.2654 11.4624 43.2208 11.4743 43.1734C11.4863 43.1259 11.4883 43.0765 11.4803 43.0283C11.4722 42.98 11.4543 42.9339 11.4276 42.8927C11.2445 42.5597 10.2403 42.0285 10.2403 42.0285L9.49126 41.6239L10.3235 41.6404C10.3235 41.6404 11.4914 42.5625 12.0934 42.4111C12.2594 42.376 12.4146 42.302 12.5458 42.1952C12.6771 42.0884 12.7807 41.952 12.8479 41.7973L11.3998 40.4542L10.5676 40.0578C10.9669 39.9215 11.3886 39.8617 11.8104 39.8817C12.2875 39.9643 12.6898 40.5285 13.0005 39.7276C13.0005 39.7276 11.852 38.8771 11.0253 39.0725C10.1987 39.2679 7.67146 39.989 6.88362 39.9202" fill="#A2675F"/>
<path d="M9.28613 40.6275C9.28613 40.6109 9.49142 40.6275 9.82431 40.6275C10.025 40.6171 10.2262 40.631 10.4235 40.6687C10.6611 40.7365 10.8867 40.8405 11.0921 40.977C11.4572 41.2206 11.7989 41.497 12.1129 41.8027C12.2539 41.9163 12.3773 42.0498 12.4791 42.199C12.3264 42.1031 12.1858 41.9894 12.0602 41.8605C11.7329 41.5819 11.3892 41.3227 11.031 41.0843C10.838 40.9555 10.6279 40.8536 10.4069 40.7816C10.2249 40.7397 10.0388 40.7176 9.85204 40.7155C9.65911 40.7292 9.46558 40.6991 9.28613 40.6275Z" fill="#7A4A45"/>
<path d="M26.7629 9.14351C26.6868 9.17372 26.6054 9.18863 26.5235 9.18737C26.4415 9.18612 26.3607 9.16873 26.2856 9.13621C26.2105 9.10369 26.1426 9.05668 26.086 8.99793C26.0293 8.93918 25.985 8.86984 25.9556 8.79396C25.8506 8.47938 25.8614 8.13806 25.9861 7.83064C26.1114 7.52688 26.198 7.20884 26.2441 6.88384C26.2561 6.58412 26.1706 6.28854 26.0002 6.04073C25.8299 5.79293 25.5837 5.60604 25.2981 5.50767C25.4318 5.39194 25.5405 5.25062 25.6178 5.0922C25.6951 4.93377 25.7393 4.7615 25.7478 4.58571C25.7564 4.40991 25.7291 4.23421 25.6675 4.06914C25.606 3.90407 25.5115 3.75303 25.3897 3.62507C25.1303 3.41614 24.8516 3.23184 24.5575 3.07461C24.3975 2.97083 24.2487 2.85092 24.1136 2.7168C24.3635 2.77773 24.6235 2.78523 24.8765 2.73882C25.0809 2.69416 25.2706 2.59913 25.4281 2.46252C25.5857 2.3259 25.7061 2.1521 25.7781 1.95716C25.8426 1.75992 25.8509 1.54879 25.8019 1.34718C25.753 1.14557 25.6487 0.961346 25.5007 0.814937C25.3473 0.673821 25.1544 0.582015 24.9475 0.551562C24.7406 0.521109 24.5292 0.553433 24.3411 0.644294C24.0008 0.876137 23.7426 1.20834 23.6032 1.59385C23.5505 1.70945 23.495 1.82229 23.4395 1.93514C22.9291 1.26357 22.4492 0.558971 21.6613 0.336032C20.9456 0.121349 20.1772 0.360802 19.442 0.305756C18.8872 0.267223 18.3796 0.0718079 17.8386 0.0140089C17.2977 -0.0437902 16.6818 0.0690558 16.3628 0.506677C16.1769 0.762644 16.1159 1.09568 15.9273 1.34889C15.5361 1.87459 14.6928 1.94615 14.371 2.51863C14.1103 2.98103 14.31 3.56727 14.199 4.08746C14.077 4.65169 13.6081 5.06454 13.2225 5.49941C12.8369 5.93428 12.5041 6.52879 12.7177 7.06824C12.9091 7.53889 13.4639 7.79486 13.6442 8.26826C13.7774 8.61506 13.6803 9.00038 13.6747 9.3692C13.6692 9.73801 13.8162 10.1949 14.1824 10.2637L18.3269 11.3646C19.7528 11.9399 21.2258 12.5261 22.7654 12.5234C24.305 12.5206 25.9501 11.7885 26.5576 10.3821C26.3314 10.3696 26.1187 10.271 25.9639 10.1068C26.1602 10.0142 26.3335 9.87992 26.4715 9.71344C26.6096 9.54696 26.7091 9.35239 26.7629 9.14351Z" fill="#263238"/>
<path d="M23.3646 10.4344C23.7326 9.39921 24.011 8.33478 24.1968 7.25268C24.3769 6.16492 24.2816 5.04981 23.9194 4.00768C23.8612 3.8508 23.3646 2.80766 23.1954 2.82142C23.0761 2.83519 23.384 3.80951 23.323 3.92236C22.7767 4.93329 22.5541 6.08547 22.6849 7.22516C22.7837 8.32342 23.0061 9.40724 23.348 10.4564" fill="#263238"/>
<path d="M19.2533 1.14246L18.9953 1.15622C17.7516 1.22279 16.5786 1.7512 15.7095 2.63644C14.8404 3.52168 14.3388 4.69894 14.3043 5.93427C14.2405 8.31779 14.1518 10.6132 14.2378 11.8766C14.4125 14.5105 17.1395 14.7858 17.1395 14.7858V16.1454C17.256 17.5216 19.0813 17.7803 19.7526 17.7225C22.1245 17.7225 23.359 16.6904 23.359 16.6904L23.4699 6.24804C23.5615 3.49846 22.0246 1.15622 19.2533 1.14246Z" fill="#A2675F"/>
<path d="M17.1396 14.7803C18.3666 14.7118 19.548 14.2953 20.5435 13.5803C20.5435 13.5803 19.8028 15.5427 17.1396 15.4464V14.7803Z" fill="#7A4A45"/>
<path d="M15.5278 8.09491C15.5322 8.19347 15.5753 8.28642 15.6479 8.35382C15.7205 8.42122 15.8168 8.45772 15.9162 8.45546C15.9646 8.45656 16.0128 8.44805 16.0578 8.43042C16.1029 8.4128 16.1439 8.38641 16.1786 8.35282C16.2132 8.31923 16.2407 8.27911 16.2595 8.23482C16.2783 8.19052 16.2879 8.14296 16.2879 8.09491C16.2836 7.99683 16.2409 7.90429 16.1689 7.83696C16.0969 7.76963 16.0013 7.73282 15.9023 7.73435C15.8538 7.73325 15.8055 7.74175 15.7603 7.75934C15.7151 7.77694 15.6738 7.80328 15.639 7.83683C15.6041 7.87039 15.5764 7.91048 15.5573 7.95479C15.5382 7.99909 15.5282 8.04673 15.5278 8.09491Z" fill="#263238"/>
<path d="M14.9315 6.99669C14.9814 7.04348 15.2588 6.81779 15.6666 6.79852C16.0744 6.77925 16.3851 6.96366 16.4267 6.91137C16.4683 6.85907 16.3934 6.80127 16.2603 6.71595C16.0768 6.60319 15.8626 6.54937 15.6472 6.56182C15.435 6.57321 15.2319 6.65129 15.0674 6.78476C14.9453 6.88659 14.9093 6.97742 14.9315 6.99669Z" fill="#263238"/>
<path d="M19.2229 8.10309C19.2272 8.20116 19.2699 8.2937 19.3419 8.36102C19.4139 8.42835 19.5096 8.46517 19.6085 8.46364C19.657 8.46512 19.7053 8.45687 19.7506 8.43938C19.7958 8.42189 19.837 8.39553 19.8717 8.36186C19.9064 8.32819 19.9339 8.28792 19.9526 8.24345C19.9712 8.19899 19.9806 8.15125 19.9802 8.10309C19.9759 8.00501 19.9332 7.91247 19.8612 7.84514C19.7892 7.77781 19.6936 7.741 19.5946 7.74253C19.5462 7.74143 19.4981 7.74994 19.453 7.76756C19.4079 7.78519 19.3669 7.81158 19.3323 7.84517C19.2976 7.87876 19.2701 7.91888 19.2513 7.96317C19.2325 8.00746 19.2229 8.05503 19.2229 8.10309Z" fill="#263238"/>
<path d="M18.9398 6.94998C18.9898 6.99677 19.2672 6.76832 19.675 6.74905C20.0828 6.72979 20.3934 6.91419 20.4351 6.8619C20.4767 6.80961 20.4018 6.75456 20.2658 6.66649C20.0836 6.55337 19.87 6.50038 19.6555 6.51511C19.4427 6.52495 19.2385 6.60211 19.073 6.7353C18.9537 6.83713 18.9149 6.92796 18.9398 6.94998Z" fill="#263238"/>
<path d="M17.6445 10.1398C17.4264 10.0821 17.2016 10.0534 16.9759 10.0545C16.8705 10.0545 16.7707 10.0352 16.7485 9.9664C16.7341 9.85983 16.7525 9.75143 16.8012 9.65539C16.8872 9.39942 16.976 9.13245 17.0786 8.85171C17.4448 7.70674 17.7055 6.76819 17.6584 6.75443C17.6112 6.74066 17.2783 7.65719 16.9094 8.79941L16.6569 9.6086C16.5974 9.73624 16.5865 9.88098 16.6264 10.0159C16.6428 10.0519 16.6673 10.0835 16.6981 10.1083C16.729 10.1332 16.7652 10.1506 16.804 10.1591C16.8632 10.1713 16.9238 10.1759 16.9843 10.1728C17.2049 10.1877 17.4265 10.1766 17.6445 10.1398Z" fill="#263238"/>
<path d="M18.8596 10.3545C18.793 10.3545 18.8179 10.7949 18.4545 11.128C18.0911 11.461 17.6223 11.4362 17.6223 11.4968C17.6223 11.5573 17.7333 11.5766 17.933 11.5711C18.1916 11.5645 18.4393 11.467 18.6321 11.2958C18.8167 11.1295 18.9291 10.8987 18.9456 10.6518C18.9456 10.4564 18.8901 10.3518 18.8596 10.3545Z" fill="#263238"/>
<path d="M18.8734 5.30408C18.9205 5.41142 19.3255 5.33711 19.8082 5.37014C20.2909 5.40316 20.6848 5.51051 20.7403 5.40867C20.7681 5.35913 20.6932 5.26005 20.5323 5.16096C20.3173 5.04065 20.077 4.97184 19.8304 4.96004C19.5837 4.94297 19.3365 4.98449 19.1092 5.08114C18.9372 5.16096 18.854 5.25454 18.8734 5.30408Z" fill="#263238"/>
<path d="M15.0283 5.64245C15.106 5.73052 15.3807 5.62043 15.7191 5.59841C16.0575 5.57639 16.346 5.62593 16.4071 5.52685C16.4348 5.47731 16.3849 5.38923 16.2545 5.30666C16.0805 5.2133 15.8827 5.17242 15.6856 5.18904C15.4885 5.20567 15.3005 5.27907 15.1449 5.40024C15.0283 5.50208 14.9951 5.59841 15.0283 5.64245Z" fill="#263238"/>
<path d="M23.3618 8.21328C23.4062 8.19127 25.1566 7.58025 25.1955 9.38578C25.2343 11.1913 23.4007 10.8555 23.3979 10.806C23.3951 10.7564 23.3618 8.21328 23.3618 8.21328Z" fill="#A2675F"/>
<path d="M23.9388 10.1095C23.9388 10.1095 23.9693 10.1288 24.0248 10.1536C24.1006 10.1829 24.1848 10.1829 24.2606 10.1536C24.3768 10.0769 24.4703 9.97105 24.5318 9.84677C24.5932 9.72249 24.6202 9.58426 24.6101 9.44621C24.6102 9.29212 24.5761 9.13991 24.5103 9.00034C24.4924 8.94395 24.4608 8.89282 24.4182 8.85151C24.3756 8.81021 24.3234 8.78002 24.2662 8.76364C24.2297 8.75443 24.1911 8.75821 24.1571 8.7743C24.1232 8.79039 24.096 8.81778 24.0803 8.85171C24.0581 8.90401 24.0803 8.93978 24.0609 8.94254C24.0415 8.94529 24.022 8.91226 24.0331 8.83795C24.0433 8.79389 24.0677 8.75429 24.1025 8.7251C24.1269 8.70578 24.1549 8.69146 24.1849 8.68295C24.2149 8.67445 24.2463 8.67193 24.2772 8.67556C24.3527 8.68877 24.4235 8.72103 24.4828 8.76923C24.542 8.81744 24.5878 8.87996 24.6157 8.95079C24.6967 9.10538 24.7377 9.27752 24.735 9.45172C24.7459 9.6115 24.7098 9.77098 24.6309 9.91075C24.5521 10.0505 24.4341 10.1645 24.2911 10.2389C24.2418 10.2574 24.1888 10.2642 24.1364 10.259C24.0839 10.2537 24.0334 10.2365 23.9887 10.2086C23.9416 10.1536 23.9305 10.1123 23.9388 10.1095Z" fill="#7A4A45"/>
<path d="M15.4446 2.9287C15.1478 2.77182 16.0189 1.81401 16.7401 1.47822C17.8248 0.971792 19.492 0.652521 20.5046 0.927754C21.7224 1.25253 22.7405 1.83878 23.3619 2.9287C23.9643 4.03687 24.2582 5.28424 24.2135 6.54252C24.2322 6.92418 24.149 7.30397 23.9722 7.64345C23.7225 8.04529 23.2371 8.30401 23.2676 8.85448C23.2811 9.05462 23.2154 9.25209 23.0845 9.40495C22.7571 9.76 22.3438 9.43522 22.1524 9.10769C21.7446 8.40585 21.6891 7.56088 21.6419 6.7517C21.5785 6.17794 21.6104 5.59776 21.7363 5.03424C21.8223 4.73148 21.961 4.44524 22.0137 4.13973C22.0577 3.9887 22.0681 3.82999 22.0441 3.67458C22.0202 3.51917 21.9625 3.37079 21.875 3.23971C21.8292 3.18706 21.7791 3.13826 21.7252 3.09384C21.4684 2.87703 21.1581 2.73191 20.8261 2.67338C20.4941 2.61486 20.1524 2.64503 19.836 2.76081C18.8179 3.13513 17.0619 3.69385 16.6125 3.35532C16.2815 3.14579 15.9981 2.87022 15.7803 2.54613L15.4446 2.9287Z" fill="#263238"/>
<path d="M20.4074 0.674497C19.9067 0.505934 19.3773 0.43739 18.8498 0.472819C18.3222 0.508248 17.807 0.646949 17.3337 0.880922C17.0804 1.00064 16.854 1.16985 16.6681 1.3784C16.4822 1.58696 16.3406 1.83059 16.2518 2.0947C16.1726 2.36162 16.191 2.64771 16.3036 2.90251C16.4163 3.15731 16.6161 3.36445 16.8677 3.48738L16.9037 3.5094C17.6832 3.75987 18.1853 3.64977 18.9565 3.37454C19.6057 3.14334 20.1799 2.736 20.829 2.50755C21.5249 2.26337 22.2786 2.23173 22.9928 2.41673C22.2998 1.62125 21.4082 1.02044 20.4074 0.674497Z" fill="#263238"/>
<path d="M23.8666 2.46083C23.85 2.47459 23.703 2.30119 23.4089 2.09752C23.2356 1.97911 23.0495 1.88033 22.8541 1.80302C22.6194 1.70841 22.3663 1.66704 22.1134 1.68191C21.65 1.73206 21.2105 1.91147 20.8457 2.19935C20.5683 2.42229 20.4323 2.6067 20.4157 2.59569C20.399 2.58468 20.4351 2.54064 20.4961 2.45532C20.5813 2.33792 20.68 2.23077 20.7902 2.13605C21.1572 1.81276 21.617 1.6116 22.1051 1.56081C22.3761 1.54535 22.6469 1.59344 22.8957 1.70118C23.0947 1.78494 23.2814 1.89512 23.4505 2.02871C23.6207 2.13924 23.7631 2.28708 23.8666 2.46083Z" fill="#455A64"/>
<path d="M24.047 3.09949C24.033 3.27804 23.986 3.45251 23.9083 3.61417C23.581 4.4231 22.981 5.09431 22.2105 5.51329C22.0571 5.608 21.8881 5.67509 21.7112 5.71145C22.2412 5.42814 22.7225 5.06302 23.1371 4.62978C23.5216 4.17171 23.8288 3.65494 24.047 3.09949Z" fill="#455A64"/>
<path d="M24.7878 3.39124C24.8002 3.4595 24.8002 3.5294 24.7878 3.59766C24.7772 3.78313 24.7503 3.96732 24.7074 4.14813C24.5689 4.7559 24.2804 5.32003 23.8679 5.78986C23.4553 6.25969 22.9316 6.6205 22.3438 6.83991C22.164 6.90777 21.9783 6.95936 21.789 6.99404C21.7221 7.01184 21.6529 7.01927 21.5837 7.01606C21.5837 6.99404 21.8611 6.9445 22.2994 6.76009C22.8621 6.52608 23.3632 6.16723 23.7643 5.71109C24.1653 5.25496 24.4557 4.71369 24.613 4.12886C24.7573 3.68299 24.7656 3.39124 24.7878 3.39124Z" fill="#455A64"/>
<path d="M18.3213 0.509399C18.1655 0.580209 18.0052 0.640888 17.8414 0.691052C17.0733 0.992547 16.4202 1.52595 15.9744 2.21585C15.8902 2.36581 15.7976 2.51099 15.697 2.65071C15.7343 2.48098 15.8009 2.31895 15.894 2.17181C16.1033 1.80648 16.3777 1.48194 16.704 1.214C17.0331 0.946639 17.4093 0.742251 17.8137 0.611237C17.9755 0.548032 18.1474 0.513561 18.3213 0.509399Z" fill="#455A64"/>
<path d="M25.3592 0.737915C25.3197 1.1135 25.158 1.46612 24.8987 1.74252C24.6683 2.04336 24.3463 2.26247 23.9805 2.3673C24.2818 2.16182 24.5608 1.92567 24.8127 1.6627C25.0271 1.37433 25.2103 1.06436 25.3592 0.737915Z" fill="#455A64"/>
<path d="M18.1244 36.0614C18.1244 36.0448 18.2132 36.0063 18.3131 36.1026C18.3313 36.1294 18.344 36.1594 18.3505 36.1911C18.357 36.2227 18.3572 36.2553 18.351 36.287C18.3449 36.3187 18.3324 36.3488 18.3145 36.3758C18.2966 36.4027 18.2735 36.4259 18.2465 36.4439C18.2195 36.462 18.1893 36.4746 18.1574 36.4811C18.1255 36.4876 18.0927 36.4877 18.0607 36.4816C18.0288 36.4755 17.9984 36.4631 17.9712 36.4453C17.9441 36.4275 17.9207 36.4046 17.9025 36.3779C17.8868 36.3408 17.8808 36.3004 17.8852 36.2604C17.8895 36.2205 17.9041 36.1823 17.9275 36.1494C18.0052 36.0366 18.105 36.0531 18.1023 36.0724C18.0995 36.0916 18.0412 36.1137 18.0135 36.1935C18.0035 36.2142 17.9993 36.2371 18.0012 36.26C18.0032 36.2828 18.0112 36.3048 18.0245 36.3235C18.0378 36.3423 18.0559 36.3572 18.0769 36.3668C18.0979 36.3763 18.1211 36.3802 18.1441 36.3779C18.1671 36.3756 18.1891 36.3673 18.2078 36.3538C18.2265 36.3403 18.2413 36.3221 18.2506 36.3011C18.2599 36.2801 18.2633 36.257 18.2607 36.2342C18.258 36.2115 18.2493 36.1898 18.2354 36.1714C18.191 36.0806 18.1244 36.0806 18.1244 36.0614Z" fill="#6F4439"/>
<path d="M14.812 33.4191C14.789 34.2689 14.7205 35.1169 14.6067 35.9595C14.5381 36.8063 14.4232 37.6489 14.2627 38.4834C14.284 37.6335 14.3526 36.7854 14.468 35.943C14.5366 35.0961 14.6514 34.2536 14.812 33.4191Z" fill="#6F4439"/>
<path d="M21.4311 38.7862C21.4914 38.5554 21.5294 38.3195 21.5449 38.0816C21.5478 37.8221 21.5245 37.563 21.4755 37.3082C21.4284 37.0329 21.3535 36.6999 21.3063 36.3586C21.2289 35.7679 21.2877 35.1675 21.4783 34.6026C21.5367 34.3661 21.6223 34.1371 21.7335 33.92C21.7001 34.1599 21.6463 34.3965 21.5726 34.6274C21.4164 35.184 21.3721 35.7657 21.4422 36.3393C21.4894 36.6724 21.5615 36.9917 21.6031 37.2889C21.6463 37.5517 21.6594 37.8186 21.642 38.0843C21.6421 38.3337 21.5688 38.5776 21.4311 38.7862Z" fill="#6F4439"/>
<path d="M16.1574 27.3145C15.9455 27.4385 15.7166 27.5312 15.4778 27.5897C14.9096 27.7568 14.3199 27.8412 13.7273 27.8402C13.134 27.8403 12.5437 27.7569 11.9741 27.5924C11.7352 27.534 11.5063 27.4413 11.2944 27.3172C11.2944 27.2979 11.5718 27.3915 12.0018 27.4961C12.567 27.6304 13.1461 27.6987 13.7273 27.6998C14.3085 27.6966 14.8875 27.6273 15.4528 27.4934C15.6843 27.4213 15.9195 27.3616 16.1574 27.3145Z" fill="#6F4439"/>
<path d="M17.8665 22.7483C17.8967 22.9564 17.8967 23.1677 17.8665 23.3758C17.8287 23.8798 17.7357 24.3781 17.5891 24.8621C17.4383 25.3416 17.2345 25.8031 16.9816 26.2383C16.8865 26.4266 16.7641 26.6 16.6182 26.7529C16.9407 26.1252 17.2187 25.4759 17.4504 24.8098C17.6351 24.1326 17.7742 23.4439 17.8665 22.7483Z" fill="#6F4439"/>
<path d="M30.4634 41.31C30.4634 41.31 29.8808 42.8265 29.032 42.8788C28.1831 42.9311 26.1774 42.0531 26.1774 42.0531L25.1704 42.1907L23.7113 43.1238C23.6683 43.0999 23.6306 43.0676 23.6005 43.0289C23.5705 42.9901 23.5487 42.9457 23.5365 42.8983C23.5243 42.8509 23.522 42.8016 23.5296 42.7533C23.5372 42.705 23.5547 42.6587 23.5809 42.6173C23.764 42.2816 24.7682 41.7504 24.7682 41.7504L25.52 41.3458L24.6877 41.3623C24.6877 41.3623 23.5199 42.2871 22.9207 42.1329C22.7544 42.0983 22.5991 42.0244 22.4677 41.9176C22.3364 41.8108 22.2329 41.6741 22.1661 41.5192L23.6142 40.176L24.4464 39.7797C24.0471 39.6433 23.6254 39.5835 23.2036 39.6035C22.7237 39.6861 22.3214 40.2503 22.0107 39.4522C22.0107 39.4522 23.1592 38.5989 23.9859 38.7943C24.8126 38.9898 27.5284 39.6971 28.319 39.62" fill="#A2675F"/>
<path d="M28.3107 39.6255C28.2715 39.6341 28.2316 39.6387 28.1914 39.6393C28.0738 39.6417 27.9562 39.6371 27.8391 39.6255C27.3974 39.5817 26.9584 39.5137 26.5242 39.4219C25.9694 39.3118 25.2814 39.1604 24.5046 38.9732C24.3105 38.9292 24.108 38.8742 23.9055 38.8356C23.6955 38.8076 23.4819 38.8236 23.2785 38.8824C22.8324 39.0154 22.4129 39.224 22.0385 39.4989L22.0579 39.4301C22.13 39.609 22.2438 39.8182 22.4269 39.8099C22.6365 39.7581 22.8395 39.6824 23.0316 39.5843C23.2651 39.5165 23.5117 39.5061 23.7501 39.554C23.9902 39.5891 24.2268 39.6443 24.4575 39.7191L24.6156 39.7687L24.4658 39.8402L23.6336 40.2366H23.6502L22.2049 41.5797L22.2216 41.5081C22.3014 41.6855 22.4328 41.8352 22.5988 41.9382C22.7648 42.0411 22.958 42.0926 23.1537 42.0861C23.4306 42.0325 23.6956 41.93 23.936 41.7834C24.1809 41.6454 24.4155 41.4899 24.6378 41.3182L24.6545 41.3045H24.6794L25.5116 41.288H25.7891L25.5477 41.4201C25.1011 41.6678 24.6489 41.888 24.2439 42.1494C24.0407 42.2687 23.8541 42.414 23.6891 42.5815C23.6183 42.6559 23.5796 42.7546 23.5809 42.8568C23.587 42.9039 23.604 42.949 23.6304 42.9886C23.6569 43.0282 23.6921 43.0612 23.7335 43.0852H23.6669C24.1801 42.766 24.6711 42.4632 25.1344 42.1714H25.1482L26.158 42.0366H26.1719C26.8284 42.3238 27.5052 42.563 28.197 42.7522C28.477 42.8371 28.77 42.8726 29.0625 42.8568C29.3031 42.8088 29.5213 42.6841 29.6839 42.5017C29.9182 42.2493 30.1161 41.9658 30.272 41.6595L30.394 41.4173C30.405 41.3884 30.4189 41.3608 30.4356 41.3347C30.4315 41.3654 30.4221 41.3952 30.4079 41.4228C30.3857 41.4806 30.3524 41.5659 30.2997 41.6733C30.154 41.9907 29.9614 42.2847 29.7283 42.5458C29.5578 42.7411 29.3281 42.8763 29.0736 42.9311C28.7717 42.9533 28.4682 42.9216 28.1775 42.8375C27.4778 42.6567 26.7933 42.4221 26.1303 42.1357H26.158L25.151 42.2788H25.1732L23.7113 43.2008L23.678 43.2201L23.6447 43.2036C23.5855 43.1686 23.5353 43.1207 23.4977 43.0634C23.4602 43.0062 23.4365 42.9411 23.4283 42.8733C23.4249 42.7385 23.4735 42.6076 23.5642 42.5072C23.7366 42.3308 23.9304 42.1764 24.1412 42.0476C24.5574 41.7724 25.0068 41.5604 25.4534 41.31L25.4867 41.4393L24.6545 41.4558L24.6961 41.4393C24.4685 41.6159 24.2284 41.7759 23.9776 41.9182C23.7222 42.0737 23.4401 42.181 23.1454 42.2347C23.0287 42.25 22.9101 42.2387 22.7986 42.2017C22.6901 42.1701 22.5864 42.1238 22.4907 42.0641C22.3006 41.9456 22.1524 41.7716 22.0662 41.5659L22.0496 41.5274L22.0829 41.4944L23.5337 40.1512L24.3659 39.7576V39.8787C24.1424 39.8062 23.9132 39.7519 23.6808 39.7164C23.463 39.6713 23.2375 39.6788 23.0233 39.7384C22.8187 39.8426 22.6015 39.9203 22.3769 39.9696C22.3134 39.9688 22.2511 39.9528 22.1951 39.9231C22.1391 39.8934 22.0911 39.8509 22.0551 39.7989C21.9879 39.7102 21.9346 39.6118 21.897 39.5072L21.8804 39.4659L21.9164 39.4384C22.3053 39.1586 22.7397 38.9472 23.2008 38.8136C23.419 38.7526 23.6477 38.7375 23.8722 38.7696C24.0885 38.8108 24.2827 38.8686 24.4769 38.9154C25.2537 39.1081 25.9305 39.2705 26.4881 39.3916C27.0457 39.5127 27.4896 39.5898 27.792 39.6255C27.9445 39.6448 28.0694 39.6531 28.1387 39.6558C28.1942 39.6373 28.2522 39.6271 28.3107 39.6255Z" fill="#6F4439"/>
<path d="M25.7226 40.344C25.5505 40.4065 25.3676 40.4346 25.1845 40.4265C24.9977 40.4297 24.8118 40.4519 24.6297 40.4926C24.4084 40.5642 24.1983 40.6661 24.0055 40.7954C23.6465 41.0338 23.3019 41.293 22.9735 41.5715C22.8435 41.6972 22.6981 41.8063 22.5408 41.8963C22.6462 41.7491 22.7702 41.6159 22.9097 41.5C23.2231 41.1935 23.5649 40.9171 23.9306 40.6743C24.1357 40.5372 24.3613 40.4332 24.5991 40.366C24.7954 40.3275 24.9959 40.3146 25.1956 40.3275C25.5146 40.344 25.7171 40.3247 25.7226 40.344Z" fill="#7A4A45"/>
</svg>
