<svg width="38" height="94" viewBox="0 0 38 94" fill="none" xmlns="http://www.w3.org/2000/svg">
<path d="M29.0291 16.8232C29.2282 16.911 33.2493 16.9988 34.0073 20.9857C34.8295 25.3083 35.0062 25.7963 35.0543 25.9771C35.3273 27.0435 35.1635 30.39 35.7834 31.5907C35.9119 31.849 37.3058 35.038 37.2801 37.4239C37.2576 39.3218 36.9974 46.2033 36.9974 46.2033L33.9945 46.4021L31.4411 37.9093C31.4411 37.9093 30.7988 34.2349 30.7378 32.5952C30.6767 30.9555 29.5237 27.5677 29.5237 27.5677L28.6309 19.0465L29.0291 16.8232Z" fill="#AE7461"/>
<path d="M36.9852 45.6508C36.9852 45.6508 37.9808 51.3316 38.0001 51.848C38.0193 52.3644 36.8181 55.2203 36.8181 55.2203L34.1685 56.7025C34.1685 56.7025 33.8216 56.5682 34.0914 55.9743C34.3096 55.5462 34.5922 55.1413 34.9329 54.7684L34.7723 52.1579L34.5346 51.4116L34.1107 52.3644C34.1107 52.3644 34.2552 54.079 33.7895 54.4947C33.7386 54.5215 33.6799 54.5371 33.6191 54.5399C33.5584 54.5427 33.4979 54.5326 33.4435 54.5106C33.3892 54.4886 33.343 54.4555 33.3096 54.4147C33.2762 54.3738 33.2567 54.3266 33.2531 54.2778C33.0337 53.3364 32.9315 52.3797 32.948 51.4219C33.0219 50.6189 33.1311 49.3975 33.8955 48.739C34.6599 48.0806 34.2166 46.9599 33.9758 46.3918C33.7349 45.8238 36.9852 45.6508 36.9852 45.6508Z" fill="#AE7461"/>
<path d="M11.7309 16.8232C11.7309 16.8232 8.27506 17.066 7 18.9535C5.72494 20.8411 3.83322 26.4729 3.5795 28.5076C3.32577 30.5424 2.55816 32.0839 1.85479 33.5739C1.15142 35.0638 0.387028 44.2512 0.322793 44.401C0.258559 44.5507 3.26153 44.401 3.26153 44.401C3.26153 44.401 6.32553 38.338 6.77197 36.1096C7.2184 33.8811 7.7933 31.787 7.7933 31.787L10.5393 26.1269L11.7309 16.8232Z" fill="#AE7461"/>
<path d="M0.32287 44.4034C0.32287 44.4034 -0.0272093 49.7047 0.00169634 50.2134C0.030602 50.722 1.54012 53.4901 1.54012 53.4901L4.32791 54.7942C4.32791 54.7942 4.64908 54.6366 4.32791 54.0634C4.06563 53.6513 3.74209 53.2663 3.36439 52.9169L3.24555 50.3089L3.40293 49.5472L3.92965 50.4742C3.92965 50.4742 3.96819 52.1939 4.47886 52.5761C4.53277 52.5987 4.59315 52.6096 4.65395 52.6076C4.71474 52.6056 4.77381 52.5908 4.82523 52.5646C4.87664 52.5385 4.91859 52.5019 4.94687 52.4586C4.97514 52.4153 4.98875 52.3667 4.98631 52.3178C5.10796 51.3658 5.10796 50.4062 4.98631 49.4542C4.82894 48.6589 4.59127 47.4478 3.75943 46.8436C2.92759 46.2394 3.09139 44.9896 3.26161 44.4086C3.43183 43.8276 0.32287 44.4034 0.32287 44.4034Z" fill="#AE7461"/>
<path d="M10.1221 17.1072L10.4657 30.8212L8.63184 40.9511H30.3882L29.4471 31.1956L29.7843 20.0147L30.719 17.1485L23.7848 15.2661L16.4235 15.4107L10.1221 17.1072Z" fill="#AE7461"/>
<path d="M29.4502 19.7462C29.492 19.7462 29.5305 21.8559 29.5305 24.4587C29.5305 27.0615 29.492 29.1712 29.4502 29.1712C29.4085 29.1712 29.3667 27.0615 29.3667 24.4587C29.3667 21.8559 29.4052 19.7462 29.4502 19.7462Z" fill="#6F4439"/>
<path d="M10.475 19.767C10.5057 19.8886 10.5229 20.0122 10.5264 20.1362C10.5521 20.3738 10.5714 20.7198 10.5842 21.1459C10.6164 22.0006 10.6003 23.1806 10.5553 24.4846C10.5104 25.7886 10.475 26.9635 10.4783 27.8182V28.8278C10.4904 28.9516 10.4904 29.0759 10.4783 29.1997C10.4462 29.0782 10.429 28.9546 10.4269 28.8304C10.4012 28.5903 10.3819 28.2443 10.3658 27.8182C10.3337 26.9635 10.3658 25.7835 10.398 24.4795C10.4301 23.1754 10.4783 22.0006 10.475 21.1484V20.1362C10.4594 20.0135 10.4594 19.8897 10.475 19.767Z" fill="#6F4439"/>
<path d="M19.1855 36.236C19.208 36.236 19.1855 36.3006 19.2626 36.3445C19.3397 36.3884 19.4842 36.4245 19.526 36.36C19.5677 36.2954 19.4617 36.1973 19.3815 36.1818C19.3012 36.1663 19.2466 36.1818 19.2273 36.1818C19.208 36.1818 19.2273 36.1586 19.2466 36.1353C19.2668 36.1197 19.2912 36.1079 19.3179 36.1007C19.3445 36.0936 19.3728 36.0913 19.4007 36.094C19.483 36.0983 19.56 36.1279 19.6159 36.1766C19.6587 36.2092 19.6867 36.2523 19.6954 36.2991C19.7041 36.3459 19.6931 36.3937 19.6641 36.4349C19.6336 36.4735 19.5881 36.5029 19.5348 36.5188C19.4814 36.5347 19.423 36.536 19.3686 36.5227C19.2879 36.5074 19.2177 36.4676 19.1727 36.4116C19.1567 36.3935 19.1458 36.3728 19.1408 36.3509C19.1358 36.3291 19.1368 36.3066 19.1438 36.2851C19.1566 36.2438 19.1759 36.2335 19.1855 36.236Z" fill="#6F4439"/>
<path d="M17.7337 25.7162C17.4893 25.8322 17.2253 25.9192 16.95 25.9744C16.2959 26.1273 15.6174 26.2021 14.9362 26.1965C14.2537 26.1924 13.5758 26.1054 12.9257 25.9383C12.6522 25.8834 12.3903 25.7964 12.1484 25.6801C12.4207 25.7274 12.6898 25.786 12.9546 25.8556C13.602 25.9908 14.2674 26.0628 14.9362 26.07C15.6044 26.0731 16.2707 26.0125 16.9211 25.8892C17.1881 25.8203 17.4593 25.7626 17.7337 25.7162Z" fill="#6F4439"/>
<path d="M28.1077 25.613C27.8643 25.7288 27.6015 25.8158 27.3272 25.8712C26.0104 26.1814 24.6089 26.1706 23.2997 25.8402C23.0265 25.7848 22.7647 25.6978 22.5225 25.582C22.795 25.6297 23.0641 25.6891 23.3286 25.7602C23.9762 25.8943 24.6415 25.9654 25.3103 25.9719C25.9784 25.9751 26.6447 25.9144 27.2951 25.7912C27.562 25.7206 27.8332 25.6611 28.1077 25.613Z" fill="#6F4439"/>
<path d="M31.1621 44.37C31.1621 44.37 33.3525 49.506 30.2275 58.9929C28.2458 65.0145 27.1538 66.223 27.3369 68.6554C27.52 71.0878 27.141 75.3691 25.4837 78.8576C24.4868 80.9682 23.7342 83.1482 23.2355 85.3699L19.4135 84.9567C19.4135 84.9567 18.6941 78.4832 18.9671 74.8449C19.2401 71.2066 20.679 71 20.4638 68.7536C20.2486 66.5071 19.9756 66.7162 20.1426 63.726C20.3096 60.7359 19.6127 49.2477 19.6127 49.2477L31.1621 44.37Z" fill="#AE7461"/>
<path d="M23.3156 84.9052L22.9944 86.4312C22.9944 86.4312 24.2791 88.2388 25.0403 88.8688C25.8015 89.4989 27.7125 90.3871 28.1974 90.9036C28.6824 91.42 28.2713 93.3102 26.2286 93.5684C24.186 93.8266 22.5512 91.735 21.411 90.7874C20.2709 89.8397 19.484 89.6641 19.0343 89.4369C18.5847 89.2097 19.3908 84.7347 19.3908 84.7347L23.3156 84.9052Z" fill="#AE7461"/>
<path d="M7.23457 44.4551C7.23457 44.4551 5.94987 53.0202 7.74845 59.0599C9.54702 65.0996 10.5876 66.7548 10.2086 69.1666C9.82966 71.5783 9.8425 75.8802 11.2011 79.4385C12.5596 82.9967 13.536 85.863 13.536 85.863L17.3901 85.6228C17.3901 85.6228 18.0324 79.3714 18.0613 75.7253C18.0902 72.0793 16.6771 71.8107 17.0978 69.5746C17.5186 67.3384 17.7402 67.563 17.8526 64.5703C17.965 61.5775 19.6447 50.0636 19.6447 50.0636L7.23457 44.4551Z" fill="#AE7461"/>
<path d="M13.5681 85.5351L13.6773 86.6765C13.6773 86.6765 12.5564 88.5589 11.8755 89.2328C11.1946 89.9068 9.35429 90.9138 8.92392 91.4587C8.49355 92.0035 9.08129 93.8627 11.1432 93.9944C13.2052 94.1261 14.6344 91.9286 15.6911 90.9216C16.7477 89.9145 17.5089 89.6795 17.9393 89.4265C18.3696 89.1734 17.3997 85.1504 17.3997 85.1504L13.5681 85.5351Z" fill="#AE7461"/>
<path d="M30.3883 40.7032C30.3883 40.7032 32.9159 44.0265 32.3763 49.0747C32.1272 51.4186 31.723 53.7501 31.1655 56.0595L19.8602 55.9562L19.5776 50.5336L18.8838 55.9743L6.92653 55.5353C6.75631 50.2212 6.02724 45.4493 8.63196 40.9511L30.3883 40.7032Z" fill="#E92727"/>
<path d="M8.63184 40.9511L8.97549 39.0583H30.2115L30.4909 40.8478L8.63184 40.9511Z" fill="#EBEBEB"/>
<path d="M24.6327 9.64208C25.1037 8.6145 25.4637 7.55619 25.7086 6.47891C25.9537 5.39637 25.8599 4.28181 25.4356 3.23569C25.365 3.07817 24.7676 2.02981 24.562 2.04272C24.4175 2.04272 24.7804 3.0317 24.7033 3.1324C24.0177 4.13124 23.7254 5.27389 23.8651 6.40919C23.9713 7.50634 24.2288 8.59062 24.6327 9.64208Z" fill="#263238"/>
<path d="M19.7155 0.320435H19.3944C17.8616 0.370768 16.4087 0.883374 15.3249 1.75618C14.2411 2.62899 13.6059 3.79796 13.5458 5.03034C13.4302 7.40853 13.3402 10.0372 13.4237 11.3076C13.6004 13.9389 16.8956 14.2384 16.8956 14.2384L16.7575 16.3894L20.1716 17.0917L24.122 16.1983L24.8318 5.4564C24.9828 2.72445 23.1264 0.379825 19.7155 0.320435Z" fill="#AE7461"/>
<path d="M16.8955 14.2487C18.4073 14.1951 19.8685 13.7946 21.1061 13.0945C21.1061 13.0945 20.1843 15.1086 16.9051 14.9795L16.8955 14.2487Z" fill="#6F4439"/>
<path d="M15.0552 7.23814C15.056 7.28831 15.0693 7.33786 15.0942 7.38386C15.1192 7.42986 15.1553 7.47139 15.2004 7.50602C15.2456 7.54066 15.2989 7.56769 15.3573 7.58554C15.4156 7.60339 15.4778 7.61169 15.5401 7.60997C15.5997 7.61206 15.6591 7.60446 15.7149 7.58765C15.7707 7.57084 15.8218 7.54516 15.8649 7.51213C15.9081 7.47911 15.9426 7.43943 15.9662 7.39545C15.9899 7.35148 16.0023 7.30412 16.0026 7.25621C15.9993 7.15826 15.9483 7.06528 15.8606 6.99721C15.773 6.92914 15.6556 6.89141 15.5337 6.89212C15.4739 6.88898 15.4139 6.8955 15.3572 6.91129C15.3005 6.92708 15.2484 6.95183 15.2038 6.98407C15.1592 7.01631 15.1231 7.0554 15.0975 7.09903C15.072 7.14266 15.0576 7.18996 15.0552 7.23814Z" fill="#263238"/>
<path d="M14.3004 6.17948C14.3615 6.22596 14.7051 6.00389 15.2094 5.9884C15.7136 5.9729 16.0926 6.16398 16.144 6.11234C16.1954 6.0607 16.1054 6.00131 15.9384 5.91351C15.7154 5.79954 15.4541 5.74363 15.1901 5.75342C14.928 5.76136 14.6759 5.83646 14.4707 5.96774C14.3197 6.0607 14.2715 6.15882 14.3004 6.17948Z" fill="#263238"/>
<path d="M19.5708 7.23819C19.5725 7.33683 19.6222 7.43102 19.7092 7.50054C19.7963 7.57005 19.9138 7.60936 20.0365 7.61003C20.096 7.61211 20.1555 7.60452 20.2113 7.58771C20.2671 7.5709 20.3181 7.54521 20.3613 7.51219C20.4045 7.47917 20.4389 7.43948 20.4626 7.39551C20.4862 7.35154 20.4986 7.30418 20.499 7.25627C20.4956 7.15832 20.4446 7.06533 20.357 6.99726C20.2693 6.92919 20.152 6.89147 20.0301 6.89218C19.9124 6.89007 19.7984 6.92512 19.7126 6.98981C19.6267 7.0545 19.5758 7.14367 19.5708 7.23819Z" fill="#263238"/>
<path d="M19.237 6.10977C19.298 6.15625 19.6416 5.93418 20.1459 5.91869C20.6501 5.9032 21.0291 6.09428 21.0805 6.04264C21.1319 5.99099 21.042 5.9316 20.875 5.84381C20.6519 5.72983 20.3906 5.67393 20.1266 5.68371C19.8645 5.69166 19.6125 5.76676 19.4072 5.89804C19.2562 5.99874 19.2081 6.08912 19.237 6.10977Z" fill="#263238"/>
<path d="M17.5927 9.27811C17.3247 9.21935 17.0483 9.18897 16.7705 9.18773C16.642 9.18773 16.52 9.16449 16.4943 9.09477C16.4761 8.98836 16.4997 8.88005 16.5617 8.78491C16.6709 8.52669 16.7833 8.26848 16.9022 7.98702C17.3743 6.84828 17.7083 5.92127 17.6505 5.90061C17.5927 5.87995 17.1655 6.79405 16.687 7.93279C16.5746 8.21425 16.4654 8.48021 16.3658 8.73585C16.2919 8.86343 16.276 9.0078 16.3208 9.14383C16.3411 9.17974 16.3713 9.21144 16.4092 9.23651C16.447 9.26157 16.4915 9.27934 16.5392 9.28844C16.611 9.30052 16.6843 9.30572 16.7576 9.30393C17.0362 9.32385 17.3168 9.31517 17.5927 9.27811Z" fill="#263238"/>
<path d="M19.0121 4.84961C19.0827 4.95032 19.5677 4.82637 20.1619 4.79539C20.7561 4.7644 21.2539 4.82379 21.3085 4.71534C21.331 4.6637 21.2282 4.57332 21.013 4.49843C20.7307 4.40794 20.4266 4.36999 20.1234 4.38743C19.8203 4.40487 19.526 4.47725 19.2626 4.59914C19.0731 4.69984 18.9768 4.80055 19.0121 4.84961Z" fill="#263238"/>
<path d="M14.217 4.99165C14.3262 5.08203 14.7308 4.97616 15.2255 4.96325C15.7201 4.95034 16.1376 5.00456 16.2307 4.90644C16.2693 4.85996 16.2018 4.767 16.0155 4.68437C15.7613 4.58151 15.4772 4.536 15.1933 4.55268C14.9088 4.55943 14.6321 4.62912 14.3936 4.75409C14.2234 4.85222 14.1688 4.94776 14.217 4.99165Z" fill="#263238"/>
<path d="M24.6648 7.42412C24.7194 7.40347 26.8841 6.81473 26.913 8.61709C26.9419 10.4195 24.4657 10.1251 24.4624 10.0734C24.4592 10.0218 24.6648 7.42412 24.6648 7.42412Z" fill="#AE7461"/>
<path d="M25.3456 9.32459C25.3456 9.32459 25.3841 9.34525 25.4516 9.37107C25.5453 9.40165 25.6501 9.40165 25.7438 9.37107C25.8879 9.29592 26.0043 9.19117 26.0811 9.06769C26.1579 8.9442 26.1923 8.80646 26.1806 8.66872C26.185 8.51494 26.1466 8.36232 26.0682 8.222C26.0462 8.16557 26.0076 8.11426 25.9556 8.07245C25.9035 8.03063 25.8397 7.99955 25.7695 7.98186C25.7248 7.97248 25.6773 7.97615 25.6356 7.99222C25.5938 8.00829 25.5605 8.03572 25.5415 8.06965C25.5126 8.12129 25.5415 8.15745 25.5158 8.16003C25.4901 8.16261 25.4676 8.12904 25.4837 8.05674C25.4957 8.01205 25.5263 7.97198 25.5704 7.94312C25.6314 7.90473 25.7086 7.88711 25.7856 7.89406C25.878 7.90759 25.9645 7.94015 26.0365 7.98858C26.1086 8.03701 26.1638 8.09964 26.1967 8.17035C26.293 8.32583 26.3415 8.49763 26.338 8.6713C26.338 9.03539 26.1003 9.37623 25.776 9.44595C25.7163 9.4609 25.6532 9.46472 25.5914 9.45712C25.5296 9.44951 25.4708 9.43068 25.4195 9.40206C25.3488 9.36849 25.336 9.32717 25.3456 9.32459Z" fill="#6F4439"/>
<path d="M14.9941 2.05572C14.6311 1.89304 15.7199 0.947963 16.5999 0.622608C17.9489 0.131994 20.0044 -0.172704 21.2473 0.106172C22.744 0.44702 23.9869 1.0435 24.7385 2.13835C25.4623 3.25118 25.8037 4.4991 25.7277 5.7534C25.7456 6.13662 25.6346 6.51663 25.4065 6.85342C25.0853 7.25366 24.4944 7.50413 24.5201 8.05413C24.5285 8.15353 24.5124 8.25329 24.4727 8.34768C24.433 8.44206 24.3705 8.52922 24.2888 8.60414C23.8777 8.95531 23.3767 8.62479 23.1455 8.29427C22.6541 7.58934 22.5962 6.74496 22.5545 5.93932C22.4841 5.36557 22.5308 4.78642 22.6926 4.22475C22.805 3.92522 22.9784 3.64118 23.0684 3.33648C23.1257 3.18854 23.1428 3.0324 23.1184 2.87868C23.094 2.72496 23.0288 2.57726 22.9271 2.44563C22.8723 2.39263 22.8121 2.3434 22.7472 2.29844C22.434 2.0792 22.0538 1.93089 21.6457 1.86872C21.2377 1.80655 20.8164 1.83277 20.4251 1.94468C19.1661 2.30361 17.011 2.8407 16.4458 2.49727C16.0421 2.28178 15.6995 2.00021 15.4405 1.67097L14.9941 2.05572Z" fill="#263238"/>
<path d="M19.1727 9.52861C19.0957 9.52861 19.0924 9.93918 18.6524 10.231C18.2124 10.5228 17.66 10.4763 17.6568 10.5331C17.6536 10.5899 17.7788 10.6131 18.0101 10.6209C18.3113 10.6247 18.6046 10.5434 18.8387 10.3911C19.0637 10.2443 19.2098 10.0334 19.2466 9.80233C19.2659 9.62932 19.2081 9.52603 19.1727 9.52861Z" fill="#263238"/>
<path d="M26.672 44.6076C26.672 44.6205 26.5146 44.6411 26.248 44.7263C25.8728 44.8527 25.5306 45.035 25.2395 45.2634C24.8087 45.6029 24.4506 45.9973 24.1797 46.4306C23.8585 46.916 23.5823 47.4841 23.2161 48.0574C22.8893 48.607 22.4334 49.1006 21.8736 49.5111C21.4163 49.8473 20.8658 50.0907 20.2678 50.2212C19.864 50.3087 19.4425 50.3307 19.028 50.2858C18.9196 50.2725 18.8123 50.2535 18.7069 50.229C18.633 50.2083 18.5977 50.198 18.5977 50.1928C18.5977 50.1877 18.7582 50.2161 19.0441 50.2367C19.45 50.2599 19.8578 50.225 20.2485 50.1334C20.8253 49.9951 21.3549 49.7521 21.7966 49.4233C22.3306 49.0161 22.7662 48.5328 23.0812 47.998C23.4377 47.4325 23.7236 46.8644 24.0448 46.3764C24.3282 45.934 24.7054 45.5347 25.1592 45.1963C25.4648 44.9663 25.827 44.7904 26.2223 44.6799C26.3268 44.6508 26.4343 44.6292 26.5435 44.6153C26.6302 44.605 26.6688 44.6024 26.672 44.6076Z" fill="#263238"/>
<path d="M16.4554 48.3905C16.4265 48.3905 16.2787 48.0419 15.9415 47.4996C15.0624 46.0874 13.7196 44.8953 12.0585 44.0524C11.4161 43.7322 10.9954 43.5773 11.005 43.5566C11.1163 43.5762 11.2241 43.6066 11.3262 43.647C11.6012 43.7425 11.8683 43.8521 12.1259 43.975C13.8502 44.7843 15.2219 46.0017 16.0539 47.4609C16.1783 47.6791 16.2856 47.9033 16.3751 48.1323C16.4151 48.2153 16.4421 48.3021 16.4554 48.3905Z" fill="#263238"/>
<g opacity="0.3">
<path d="M24.0286 46.495C23.7074 47.1302 23.2417 47.8326 22.8403 48.442C22.1144 49.5446 20.9132 50.2753 19.3523 50.3037L18.9155 50.2495C19.7345 50.611 20.7944 50.4793 21.5813 50.0739C22.3479 49.6346 22.9625 49.0454 23.367 48.362C23.8102 47.6983 24.1571 46.9934 24.6517 46.3478C24.9992 45.9065 25.3778 45.4815 25.7854 45.0748C24.9407 45.2427 24.3658 45.8598 24.0286 46.495Z" fill="black"/>
</g>
<path d="M11.1526 39.3993V40.866H10.401V40.7266C10.249 40.8368 10.0501 40.8959 9.84539 40.8918C9.73245 40.9001 9.61861 40.8881 9.51221 40.8565C9.40581 40.8249 9.30953 40.7746 9.23041 40.7093C9.1513 40.6439 9.09134 40.5652 9.05493 40.4788C9.01852 40.3925 9.00658 40.3007 9.01998 40.2101V39.3993H9.82934V40.1042C9.82934 40.3134 9.92569 40.3831 10.0863 40.3831C10.2469 40.3831 10.3593 40.3057 10.3593 40.0862V39.3967L11.1526 39.3993Z" fill="white"/>
<path d="M13.6742 40.0268V40.866H12.8648V40.1456C12.8648 39.9648 12.7717 39.8873 12.624 39.8873C12.4762 39.8873 12.3028 39.9648 12.3221 40.1817V40.8711H11.5127V39.4045H12.2835V39.5491C12.4456 39.4326 12.6572 39.3707 12.8745 39.3761C12.9827 39.3684 13.0917 39.3801 13.1937 39.4102C13.2958 39.4403 13.3882 39.4881 13.4646 39.5503C13.541 39.6124 13.5994 39.6873 13.6356 39.7697C13.6718 39.8521 13.685 39.9398 13.6742 40.0268Z" fill="white"/>
<path d="M16.2243 39.0583V40.8659H15.4599V40.7445C15.3885 40.7982 15.3038 40.839 15.2113 40.8644C15.1189 40.8898 15.0208 40.8991 14.9235 40.8917C14.7947 40.8977 14.6656 40.8826 14.5443 40.8471C14.4231 40.8116 14.3121 40.7565 14.2182 40.6853C14.1243 40.6141 14.0495 40.5282 13.9984 40.433C13.9473 40.3377 13.9209 40.235 13.9209 40.1313C13.9209 40.0275 13.9473 39.9248 13.9984 39.8295C14.0495 39.7342 14.1243 39.6484 14.2182 39.5772C14.3121 39.506 14.4231 39.4509 14.5443 39.4154C14.6656 39.3799 14.7947 39.3648 14.9235 39.3708C15.1033 39.3616 15.2808 39.4067 15.4213 39.4973V39.0609L16.2243 39.0583ZM15.431 40.1274C15.431 40.0589 15.3971 39.9932 15.3369 39.9448C15.2767 39.8964 15.195 39.8692 15.1098 39.8692C15.0246 39.8692 14.9429 39.8964 14.8827 39.9448C14.8224 39.9932 14.7886 40.0589 14.7886 40.1274C14.7886 40.1959 14.8224 40.2615 14.8827 40.31C14.9429 40.3584 15.0246 40.3856 15.1098 40.3856C15.195 40.3856 15.2767 40.3584 15.3369 40.31C15.3971 40.2615 15.431 40.1959 15.431 40.1274Z" fill="white"/>
<path d="M18.659 40.2669H17.2972C17.3327 40.3248 17.3899 40.3725 17.4608 40.403C17.5316 40.4336 17.6125 40.4456 17.6923 40.4373C17.8399 40.4412 17.9845 40.4027 18.1002 40.3288L18.5241 40.6619C18.4087 40.7461 18.2731 40.8104 18.1256 40.8508C17.9781 40.8913 17.8219 40.9069 17.6666 40.8969C16.9471 40.8969 16.4814 40.5741 16.4814 40.1378C16.4814 39.7014 16.9568 39.3708 17.5895 39.3708C18.1708 39.3708 18.6686 39.6291 18.6686 40.13C18.6686 40.1687 18.6622 40.223 18.659 40.2669ZM17.2844 39.9751H17.9267C17.9267 39.9066 17.8929 39.8409 17.8327 39.7925C17.7724 39.7441 17.6907 39.7169 17.6056 39.7169C17.5204 39.7169 17.4387 39.7441 17.3784 39.7925C17.3182 39.8409 17.2844 39.9066 17.2844 39.9751Z" fill="white"/>
<path d="M20.3259 39.3708V39.9079C20.266 39.9044 20.2059 39.9044 20.146 39.9079C19.9052 39.9079 19.7317 39.9906 19.7317 40.2255V40.8762H18.9224V39.407H19.6932V39.5645C19.7757 39.4982 19.8748 39.4467 19.9838 39.4133C20.0928 39.38 20.2094 39.3655 20.3259 39.3708Z" fill="white"/>
<path d="M23.9517 39.3864L23.2708 40.8556H22.4839L22.1852 40.1765L21.864 40.8556H21.0772L20.3931 39.3889H21.1607L21.4818 40.1636L21.8319 39.3889H22.5192L22.8629 40.1636L23.213 39.3889L23.9517 39.3864Z" fill="white"/>
<path d="M26.139 40.2591H24.7804C24.815 40.3171 24.8715 40.3648 24.9419 40.3954C25.0123 40.4261 25.0929 40.438 25.1723 40.4295C25.3201 40.4345 25.4652 40.396 25.5801 40.321L26.0041 40.6412C25.8895 40.7257 25.7545 40.7903 25.6076 40.8312C25.4606 40.8721 25.3048 40.8883 25.1498 40.8788C24.4303 40.8788 23.9614 40.5534 23.9614 40.1041C23.9614 39.6548 24.4368 39.345 25.0727 39.345C25.6508 39.345 26.1486 39.6032 26.1518 40.1015C26.1516 40.1542 26.1473 40.2068 26.139 40.2591ZM24.7644 39.9699H25.4067C25.4067 39.9014 25.3729 39.8357 25.3126 39.7873C25.2524 39.7388 25.1707 39.7116 25.0855 39.7116C25.0004 39.7116 24.9187 39.7388 24.8584 39.7873C24.7982 39.8357 24.7644 39.9014 24.7644 39.9699Z" fill="white"/>
<path d="M28.2745 40.0629V40.8505H27.5198V40.662C27.464 40.7383 27.3817 40.7998 27.2829 40.8388C27.1842 40.8778 27.0733 40.8927 26.9641 40.8815C26.4856 40.8815 26.2383 40.6775 26.2383 40.427C26.2383 40.1766 26.5241 39.9829 27.1311 39.9829H27.4523C27.4266 39.8693 27.311 39.8099 27.083 39.8099C26.9056 39.8092 26.7316 39.8495 26.5819 39.9261L26.3218 39.5284C26.5947 39.4153 26.898 39.3577 27.205 39.3606C27.8859 39.3554 28.2745 39.5723 28.2745 40.0629ZM27.4652 40.3728V40.2721H27.266C27.0926 40.2721 27.0187 40.316 27.0187 40.396C27.0187 40.4761 27.0894 40.5148 27.2114 40.5148C27.2673 40.5169 27.3224 40.5041 27.3683 40.4785C27.4142 40.4528 27.4482 40.4156 27.4652 40.3728Z" fill="white"/>
<path d="M30.0283 39.3553V39.8873C29.9696 39.8827 29.9104 39.8827 29.8517 39.8873C29.6076 39.8873 29.4342 39.9725 29.4342 40.2049V40.8582H28.6216V39.3915H29.3924V39.5516C29.4751 39.4845 29.5745 39.4323 29.6841 39.3985C29.7938 39.3647 29.9111 39.3499 30.0283 39.3553Z" fill="white"/>
</svg>
