<svg width="27" height="94" viewBox="0 0 27 94" fill="none" xmlns="http://www.w3.org/2000/svg">
<path d="M20.5195 18.7922C20.5195 18.7922 23.0908 19.408 23.5491 20.5422C24.0074 21.6765 24.567 32.0292 24.567 32.0292C24.567 32.0292 25.5981 35.795 25.79 37.2924C25.9818 38.7897 26.2749 48.3582 26.2749 48.3582L23.6797 49.124C23.6797 49.124 21.5347 39.4082 21.4228 38.4476C21.3109 37.4871 20.0212 26.8686 20.0212 26.8686L20.5195 18.7922Z" fill="#805E4D"/>
<path d="M22.7474 54.9399C22.5577 54.076 22.4887 53.1906 22.5422 52.3083C22.6701 51.1372 22.8779 49.4503 22.8779 49.4503C23.2073 49.0099 23.4962 48.5414 23.7413 48.0503C24.0077 47.4477 26.2539 48.2714 26.2539 48.2714C26.2539 48.2714 27.0533 52.2556 26.9973 52.4977L26.3685 55.5609C26.3685 55.5609 24.5753 56.9635 24.2049 56.7162L23.7279 56.9583C23.7279 56.9583 22.9286 56.9583 23.656 56.0372C23.9247 55.6694 24.2261 55.3259 24.5566 55.0109L24.8497 53.9951L24.3168 52.3688L23.8558 52.2083L23.8185 53.1819C23.8185 53.1819 24.069 54.7399 23.5867 55.1188C23.1044 55.4978 22.7474 54.9399 22.7474 54.9399Z" fill="#805E4D"/>
<path d="M6.12601 18.9292C6.12601 18.9292 3.65864 19.4555 2.50755 21.124C1.81743 22.1187 1.20992 32.5898 1.20992 32.5898C1.20992 32.5898 0.245349 36.3504 0.0828116 37.8399C-0.0797258 39.3293 0.429208 48.1189 0.429208 48.1189L2.89924 47.8952C2.89924 47.8952 4.37274 39.8741 4.46866 38.9162C4.56459 37.9583 5.66504 27.3977 5.66504 27.3977L6.12601 18.9292Z" fill="#805E4D"/>
<path d="M2.78446 48.4268C2.81676 48.9005 3.00375 49.3511 3.31736 49.711C3.80764 50.3347 4.04745 51.4768 4.04745 51.4768C4.04745 51.4768 4.39917 53.911 4.47644 54.7005C4.55372 55.49 4.53773 56.2084 3.94353 56.0479C3.34934 55.8874 3.18414 55.4084 3.12552 53.9637L2.79777 53.1926L2.45671 53.7663L2.31816 56.0795C2.31816 56.0795 3.773 57.6374 3.65043 58.069C3.52786 58.5005 3.24808 58.4216 3.24808 58.4216L2.99496 58.6584L0.746078 56.8663L0 53.7821L0.399682 49.861L0.50627 46.7978L2.98163 46.5347L2.78446 48.4268Z" fill="#805E4D"/>
<path d="M5.20134 45.5425C5.20134 45.5425 3.32283 53.461 4.26075 59.4899C5.19867 65.5189 5.06012 67.2926 4.59915 69.6374C4.13818 71.9821 3.8211 76.2164 4.59915 79.7848C5.3772 83.3533 5.94474 86.9322 5.94474 86.9322L8.73719 86.6165C8.73719 86.6165 9.83499 80.1375 10.1308 76.5585C10.4265 72.9795 9.35803 72.6295 9.83498 70.4584C10.3119 68.2874 10.4878 68.5242 10.7836 65.59C11.0793 62.6558 13.3389 51.6425 13.3389 51.6425L5.20134 45.5425Z" fill="#805E4D"/>
<path d="M4.26073 52.0583C4.2672 52.1081 4.2672 52.1586 4.26073 52.2084C4.26073 52.3215 4.23941 52.4715 4.22342 52.6373C4.17813 53.0057 4.15415 53.5478 4.1275 54.2163C4.10326 55.9538 4.17263 57.6913 4.33534 59.4216C4.51386 61.4505 4.73768 63.2821 4.86825 64.6137C4.9322 65.2795 4.98016 65.819 4.98282 66.1927C4.99157 66.3364 4.99157 66.4805 4.98282 66.6242C4.98268 66.6748 4.97642 66.7252 4.96417 66.7742C4.94818 66.7742 4.96417 66.5663 4.93752 66.1953C4.91087 65.8242 4.85492 65.2874 4.78031 64.6163C4.62577 63.3005 4.38596 61.4584 4.20744 59.4242C4.0431 57.6889 3.98704 55.9452 4.03957 54.2031C4.07687 53.5373 4.11418 52.9952 4.17546 52.6241C4.20211 52.4487 4.22342 52.3066 4.23941 52.1978C4.24071 52.1506 4.24787 52.1038 4.26073 52.0583Z" fill="#4E382E"/>
<path d="M5.94481 85.814V86.9429C5.94481 86.9429 4.94561 88.7219 4.37273 89.3429C3.79985 89.964 2.3157 90.8377 1.94533 91.3456C1.57496 91.8535 1.88671 93.714 3.45879 93.9772C5.03088 94.2403 6.28854 92.1693 7.18916 91.2377C7.71092 90.6913 8.33068 90.2452 9.01704 89.9219C9.36077 89.6982 8.68131 86.2824 8.68131 86.2824L5.94481 85.814Z" fill="#805E4D"/>
<path d="M21.3962 45.5425C21.3962 45.5425 23.2774 53.461 22.3368 59.4899C21.3962 65.5189 21.5374 67.2926 21.9984 69.6374C22.4594 71.9821 22.7791 76.2164 21.9984 79.7848C21.2177 83.3533 20.5675 86.9322 20.5675 86.9322H17.8044C17.8044 86.9322 16.7652 80.1375 16.4721 76.5585C16.179 72.9795 17.2422 72.6295 16.7679 70.4584C16.2936 68.2874 16.1071 68.5453 15.814 65.6005C15.5209 62.6558 13.2614 51.653 13.2614 51.653L21.3962 45.5425Z" fill="#805E4D"/>
<path d="M20.6531 85.814V86.9429C20.6531 86.9429 21.655 88.7219 22.2252 89.3429C22.7954 89.964 24.2822 90.8377 24.6553 91.3456C25.0283 91.8535 24.7112 93.714 23.1392 93.9772C21.5671 94.2403 20.3094 92.1693 19.4248 91.2377C18.9017 90.6917 18.2811 90.2456 17.5942 89.9219C17.2532 89.6982 17.93 86.2824 17.93 86.2824L20.6531 85.814Z" fill="#805E4D"/>
<path d="M4.64172 19.4318L6.00012 33V38L5.17197 43.2188L20.7409 43.6267L20.0001 38.5V33.5L21.8973 21.5608L20.693 18.8108L15.156 17.5424L9.39261 17.5002L4.64172 19.4318Z" fill="#805E4D"/>
<path d="M10.8047 28.903C10.2505 28.9905 9.69003 29.0345 9.12872 29.0345C8.56911 29.0773 8.00699 29.0773 7.44739 29.0345C8.00167 28.9472 8.56209 28.9032 9.12339 28.903C9.68293 28.8585 10.2452 28.8585 10.8047 28.903Z" fill="#4E382E"/>
<path d="M18.7718 29.0082C18.2471 29.0433 17.7204 29.0353 17.197 28.9845C16.6713 28.978 16.1471 28.9269 15.6302 28.8319C16.6806 28.8011 17.7317 28.8601 18.7718 29.0082Z" fill="#4E382E"/>
<path d="M12.9097 40.2268C12.9097 40.2426 12.8058 40.2268 12.7632 40.0768C12.7517 40.0365 12.7491 39.9943 12.7555 39.953C12.7619 39.9117 12.7773 39.8723 12.8005 39.8373C12.8319 39.7934 12.8747 39.7587 12.9244 39.737C12.9742 39.7152 13.0289 39.7071 13.0829 39.7136C13.1371 39.7186 13.1889 39.7378 13.2329 39.7693C13.277 39.8007 13.3117 39.8433 13.3334 39.8926C13.3487 39.9321 13.3552 39.9744 13.3524 40.0166C13.3496 40.0589 13.3377 40.1 13.3174 40.1373C13.2455 40.2636 13.1416 40.2663 13.1416 40.2505C13.1416 40.2347 13.2002 40.1978 13.2295 40.1005C13.2404 40.0729 13.2448 40.0433 13.2423 40.0139C13.2397 39.9844 13.2303 39.9559 13.2148 39.9306C13.1993 39.9054 13.1781 39.884 13.1528 39.8681C13.1276 39.8522 13.0989 39.8423 13.0692 39.8392C13.0394 39.836 13.0093 39.8397 12.9812 39.8499C12.9531 39.8601 12.9278 39.8766 12.9072 39.8981C12.8866 39.9196 12.8713 39.9454 12.8625 39.9737C12.8537 40.0019 12.8516 40.0318 12.8564 40.061C12.8671 40.161 12.9257 40.211 12.9097 40.2268Z" fill="#4E382E"/>
<path d="M9.71241 17.6029L9.57919 6.87919C9.45928 4.21338 10.9301 1.92126 13.632 1.87915H13.8824C15.0957 1.9299 16.2451 2.43006 17.1018 3.28007C17.9585 4.13007 18.4596 5.26755 18.5054 6.46603C18.596 8.77657 18.668 11.3318 18.6013 12.5687C18.4575 15.124 15.8409 15.4187 15.8409 15.4187C15.8409 15.4187 15.8409 16.9661 15.8409 17.7266L15.697 19.4924L14.3194 18.9661L9.71241 17.6029Z" fill="#805E4D"/>
<path d="M15.8408 15.3291C14.644 15.278 13.4871 14.8889 12.5074 14.208C12.5074 14.208 13.2402 16.1659 15.8355 16.0501L15.8408 15.3291Z" fill="#4E382E"/>
<path d="M17.3464 8.58436C17.3436 8.67953 17.3033 8.76989 17.2342 8.83623C17.165 8.90257 17.0724 8.93966 16.976 8.93962C16.9287 8.94175 16.8814 8.93443 16.8371 8.91809C16.7927 8.90175 16.7522 8.87674 16.7178 8.84455C16.6835 8.81236 16.6561 8.77365 16.6373 8.73075C16.6184 8.68785 16.6086 8.64164 16.6083 8.59488C16.6111 8.49971 16.6513 8.40935 16.7205 8.34301C16.7896 8.27667 16.8822 8.23958 16.9786 8.23962C17.0259 8.23749 17.0732 8.24482 17.1175 8.26115C17.1619 8.27749 17.2025 8.30251 17.2368 8.3347C17.2711 8.36689 17.2985 8.40559 17.3174 8.44849C17.3362 8.49139 17.346 8.5376 17.3464 8.58436Z" fill="#263238"/>
<path d="M17.9006 7.49228C17.8553 7.53965 17.5835 7.32123 17.1838 7.30807C16.7841 7.29491 16.4857 7.47649 16.4457 7.42649C16.4058 7.37649 16.475 7.32123 16.6056 7.23439C16.7826 7.12307 16.9902 7.06882 17.1998 7.07912C17.4074 7.08665 17.6072 7.15949 17.77 7.28702C17.8872 7.37649 17.9246 7.46333 17.9006 7.49228Z" fill="#263238"/>
<path d="M13.8397 8.5132C13.837 8.60884 13.7963 8.69958 13.7266 8.766C13.6569 8.83241 13.5636 8.86919 13.4667 8.86846C13.4196 8.86986 13.3727 8.86204 13.3286 8.84544C13.2846 8.82884 13.2443 8.80379 13.2101 8.77174C13.176 8.73969 13.1485 8.70128 13.1295 8.65871C13.1104 8.61614 13.1 8.57026 13.099 8.52372C13.1018 8.42809 13.1424 8.33734 13.2121 8.27093C13.2819 8.20452 13.3752 8.16773 13.472 8.16846C13.5192 8.1667 13.5663 8.17428 13.6105 8.19075C13.6547 8.20722 13.6951 8.23225 13.7294 8.26437C13.7636 8.29649 13.7911 8.33505 13.81 8.37778C13.829 8.42051 13.8391 8.46655 13.8397 8.5132Z" fill="#263238"/>
<path d="M13.9942 7.41586C13.9462 7.46323 13.6744 7.24481 13.2774 7.23165C12.8804 7.21849 12.5793 7.40007 12.5367 7.35007C12.494 7.30007 12.566 7.24481 12.6992 7.15797C12.8762 7.04665 13.0838 6.9924 13.2934 7.0027C13.5001 7.01097 13.6988 7.08376 13.861 7.2106C13.9755 7.30797 14.0182 7.39744 13.9942 7.41586Z" fill="#263238"/>
<path d="M15.3077 10.4975C15.5195 10.4397 15.7381 10.4097 15.9579 10.4081C16.0618 10.4081 16.1577 10.387 16.179 10.3186C16.1908 10.2153 16.1713 10.1109 16.1231 10.0186L15.8566 9.22912C15.4836 8.12384 15.2198 7.21594 15.2651 7.20278C15.3104 7.18962 15.6488 8.07121 16.0191 9.17911C16.1097 9.44227 16.195 9.70543 16.2856 9.96859C16.3453 10.0925 16.3585 10.2333 16.3229 10.366C16.3071 10.401 16.2832 10.4319 16.2531 10.4561C16.223 10.4803 16.1876 10.4972 16.1497 10.5054C16.093 10.5186 16.0348 10.5247 15.9765 10.5239C15.7533 10.5415 15.5288 10.5326 15.3077 10.4975Z" fill="#263238"/>
<path d="M14.1755 6.19214C14.1169 6.28951 13.7358 6.16845 13.2642 6.13951C12.7926 6.11056 12.3982 6.16582 12.3556 6.06056C12.337 6.01056 12.4196 5.92371 12.5901 5.85003C12.8122 5.75814 13.0535 5.72024 13.2935 5.7395C13.5343 5.75459 13.7681 5.82584 13.9757 5.9474C14.1302 6.0474 14.2021 6.14477 14.1755 6.19214Z" fill="#263238"/>
<path d="M17.9723 6.32908C17.8897 6.41593 17.5673 6.31593 17.1729 6.30014C16.7786 6.28435 16.4508 6.34224 16.3736 6.2475C16.3416 6.20014 16.3949 6.11329 16.5414 6.03171C16.7437 5.93474 16.9676 5.88992 17.1922 5.90142C17.4167 5.91293 17.6347 5.98038 17.8257 6.0975C17.9723 6.19224 18.0069 6.28698 17.9723 6.32908Z" fill="#263238"/>
<path d="M9.71222 8.69488C9.66692 8.67382 7.95361 8.10277 7.93496 9.85278C7.91631 11.6028 9.70423 11.2607 9.70689 11.2107C9.70955 11.1607 9.71222 8.69488 9.71222 8.69488Z" fill="#805E4D"/>
<path d="M9.1607 10.5423C9.1607 10.5423 9.12873 10.5634 9.0781 10.5871C9.0035 10.6154 8.92088 10.6154 8.84629 10.5871C8.73271 10.5138 8.64082 10.4122 8.57997 10.2924C8.51912 10.1727 8.49149 10.0392 8.4999 9.90548C8.49687 9.75502 8.52782 9.60579 8.59049 9.46863C8.6077 9.41418 8.63802 9.36466 8.67886 9.32432C8.7197 9.28399 8.76984 9.25404 8.82497 9.23705C8.86037 9.22861 8.89762 9.23236 8.93057 9.24767C8.96352 9.26298 8.99018 9.28894 9.00616 9.32126C9.03014 9.37126 9.00616 9.40547 9.02747 9.41073C9.04879 9.416 9.06478 9.38179 9.05145 9.3081C9.04166 9.26459 9.01725 9.22563 8.98218 9.19758C8.95823 9.17923 8.9308 9.16582 8.90151 9.15813C8.87221 9.15045 8.84165 9.14865 8.81164 9.15284C8.73915 9.16547 8.67117 9.19632 8.61424 9.2424C8.55731 9.28849 8.51334 9.34827 8.48657 9.416C8.40967 9.56686 8.37126 9.73398 8.37466 9.90285C8.36423 10.0589 8.40095 10.2145 8.48017 10.3499C8.55939 10.4853 8.67754 10.5944 8.81964 10.6634C8.867 10.6781 8.91719 10.6817 8.96621 10.6739C9.01523 10.6662 9.06175 10.6472 9.10208 10.6186C9.15803 10.5844 9.17935 10.545 9.1607 10.5423Z" fill="#4E382E"/>
<path d="M22.0811 4.07119C22.05 3.9682 21.9805 3.88071 21.8866 3.82645C21.6791 3.73244 21.4505 3.69344 21.2231 3.71329C20.6587 3.69566 20.1056 3.55169 19.6057 3.29224C19.7823 3.21068 19.9443 3.10136 20.0854 2.96855C20.2366 2.83397 20.3477 2.661 20.4064 2.46846C20.4651 2.27591 20.4693 2.07115 20.4184 1.87644C20.4103 1.83999 20.3938 1.80586 20.3702 1.77667C20.3467 1.74748 20.3167 1.72399 20.2825 1.70801C20.168 1.67117 20.064 1.7817 19.9841 1.87117C19.8798 2.00706 19.7404 2.11273 19.5806 2.17709C19.4207 2.24145 19.2462 2.26213 19.0755 2.23696C18.8392 2.21939 18.6099 2.15018 18.404 2.03433L18.3827 2.00802L18.1163 1.74486C17.4581 1.08433 16.8879 0.623796 16.3017 0.38432C15.2761 0.0014436 14.1641 -0.0977331 13.0856 0.0974771C12.1796 0.321163 11.3616 1.03433 11.2204 1.9396C10.7168 1.51065 9.95742 1.50538 9.33924 1.74486H9.32325C8.63314 1.97907 8.23345 2.69223 8.02295 3.38171L7.99098 3.49487C7.75532 3.85855 7.43455 4.16092 7.05572 4.37646C6.98911 4.4133 6.9145 4.46067 6.90384 4.53435C6.89318 4.60804 6.9598 4.67119 7.02108 4.71593C7.18496 4.83364 7.37341 4.91366 7.57265 4.95014C7.51004 5.11548 7.43245 5.2749 7.34083 5.42646C7.26089 5.55541 7.16764 5.70804 7.23425 5.84489C7.26469 5.89482 7.3098 5.93441 7.36359 5.95839C7.41738 5.98236 7.47729 5.98959 7.53534 5.9791C7.6513 5.95475 7.76101 5.90729 7.85775 5.83962C7.77782 6.01857 7.70054 6.20015 7.62061 6.36594C7.86995 6.40954 8.12611 6.39604 8.36934 6.32647C8.5079 6.97384 8.60383 8.16858 8.76637 8.61333C9.23799 8.61333 9.35256 8.57911 9.58971 8.65806C9.89347 8.76333 9.7709 9.29754 10.1732 9.15017C10.3784 9.07386 10.7062 8.31596 10.7701 8.11332C11.2371 6.75436 11.4025 5.31204 11.2551 3.88435C11.5436 3.58602 11.8885 3.34642 12.2702 3.17908L12.2383 3.20539C12.9657 2.96329 13.789 2.72907 14.4738 3.07381C15.0067 3.33697 15.3132 3.88961 15.7075 4.33172C16.0392 4.73362 16.4534 5.0615 16.9228 5.29375C17.3922 5.526 17.9061 5.65734 18.4307 5.6791C18.5239 6.45279 18.5399 7.71859 18.5692 8.43964L19.2114 7.00279C19.262 6.91858 19.3046 6.83437 19.3473 6.73963L19.3606 6.71331C19.4228 6.57346 19.493 6.43727 19.5711 6.30542C19.6548 6.37716 19.7622 6.41629 19.873 6.4155C19.9838 6.41471 20.0906 6.37404 20.1732 6.30111C20.2559 6.22818 20.3088 6.128 20.3221 6.01931C20.3353 5.91063 20.308 5.8009 20.2452 5.71067C20.1858 5.62517 20.1119 5.5504 20.0267 5.48962C20.1158 5.57572 20.2259 5.63767 20.3463 5.66947C20.4668 5.70128 20.5935 5.70188 20.7142 5.6712C20.8335 5.63664 20.9379 5.56436 21.0116 5.46548C21.0852 5.36659 21.124 5.24657 21.1219 5.12383C21.1135 5.04082 21.0829 4.96151 21.0332 4.894C20.9836 4.8265 20.9167 4.77322 20.8394 4.73961C21.1609 4.76668 21.4833 4.69988 21.7667 4.54751C21.9692 4.46856 22.1397 4.30014 22.0811 4.07119Z" fill="#263238"/>
<path d="M12.0357 2.229C11.9417 2.30119 11.8527 2.37943 11.7692 2.46322C11.562 2.70544 11.4215 2.99641 11.3615 3.30796C11.3147 3.52251 11.2897 3.74114 11.2869 3.9606C11.2869 4.19481 11.3002 4.45007 11.3162 4.71586C11.3337 4.9963 11.3337 5.27753 11.3162 5.55797C11.3073 5.70667 11.2868 5.85447 11.255 6.00008C11.2288 6.15631 11.1638 6.30369 11.0658 6.42903C11.0198 6.47805 10.9618 6.51447 10.8974 6.53476C10.8329 6.55505 10.7643 6.55852 10.6981 6.54482C10.5705 6.5212 10.4549 6.45529 10.3703 6.35798C10.2322 6.1646 10.1485 5.93848 10.1279 5.70271H10.1811C10.1 5.89264 9.99143 6.06993 9.85873 6.22903C9.7296 6.37665 9.54878 6.47064 9.35247 6.49219C9.26077 6.4985 9.16898 6.48127 9.08601 6.44219C9.00836 6.40244 8.94507 6.33993 8.90482 6.26324C8.86809 6.19248 8.84977 6.1138 8.85153 6.0343C8.85619 5.96079 8.8863 5.89111 8.9368 5.83693L8.96611 5.86061C8.80975 6.03402 8.61819 6.17299 8.40389 6.26851C8.34694 6.29385 8.28816 6.31496 8.22803 6.33166C8.20811 6.3387 8.18761 6.34398 8.16675 6.34745L8.22537 6.32377C8.26534 6.30798 8.32129 6.2843 8.39323 6.25008C8.59667 6.14836 8.77777 6.00795 8.92614 5.83693L8.95545 5.86061C8.9117 5.91382 8.88587 5.97919 8.88157 6.04761C8.87727 6.11602 8.89472 6.18405 8.93147 6.24219C8.96934 6.30902 9.02572 6.36379 9.09401 6.40009C9.16912 6.43664 9.25324 6.45125 9.33648 6.44219C9.52267 6.41932 9.69218 6.32474 9.8081 6.17903C9.93733 6.01946 10.0424 5.84216 10.1199 5.65271L10.1572 5.57113L10.1732 5.65797C10.1929 5.88335 10.2729 6.0995 10.405 6.2843C10.4815 6.37046 10.5844 6.42959 10.6981 6.45272C10.7543 6.46482 10.8129 6.46194 10.8676 6.44437C10.9224 6.4268 10.9715 6.39517 11.0098 6.35272C11.1011 6.23611 11.1607 6.09843 11.183 5.95271C11.216 5.80989 11.2374 5.66469 11.247 5.5185C11.2644 5.24069 11.2644 4.96209 11.247 4.68428C11.2336 4.42112 11.2177 4.15797 11.223 3.92375C11.2281 3.70227 11.2558 3.48187 11.3056 3.26585C11.3698 2.94813 11.5199 2.6535 11.7399 2.41321C11.8269 2.33529 11.927 2.27296 12.0357 2.229Z" fill="#455A64"/>
<path d="M20.0374 4.82651L20.0161 4.8423L19.9521 4.88967C19.9169 4.91563 19.8794 4.93852 19.8402 4.95809C19.7895 4.98758 19.737 5.01395 19.683 5.03704C19.333 5.18892 18.9502 5.25224 18.5692 5.22125C18.0023 5.17849 17.46 4.97468 17.0078 4.6344C16.4627 4.21247 16.0096 3.68615 15.6755 3.08703C15.489 2.77387 15.3398 2.45281 15.1719 2.15807C15.022 1.86874 14.8299 1.60273 14.6017 1.36859C14.3965 1.15708 14.1409 0.999665 13.8583 0.910694C13.7301 0.874871 13.5972 0.858023 13.4639 0.860695C13.3416 0.867129 13.2207 0.889244 13.1042 0.926485C12.9013 0.991885 12.715 1.09958 12.558 1.24228C12.4395 1.34983 12.3388 1.47503 12.2596 1.61333C12.1982 1.73529 12.1525 1.86437 12.1237 1.99754C12.1237 1.99754 12.1237 1.99754 12.1237 1.97123C12.1237 1.94491 12.1237 1.92386 12.137 1.89228C12.1595 1.79194 12.1944 1.69472 12.2409 1.60281C12.3156 1.45913 12.4148 1.32918 12.534 1.21859C12.6929 1.06925 12.883 0.956073 13.0909 0.88701C13.211 0.84523 13.3367 0.821284 13.4639 0.815956C13.6015 0.809872 13.7392 0.825869 13.8716 0.863325C14.1643 0.951281 14.4293 1.11161 14.6417 1.32912C14.873 1.56366 15.0695 1.82948 15.2252 2.1186C15.3931 2.41597 15.5449 2.73702 15.7261 3.04492C16.0541 3.63827 16.5 4.16011 17.0371 4.57914C17.4792 4.9163 18.0101 5.12091 18.5665 5.16862C18.9413 5.20307 19.319 5.14708 19.667 5.00546C19.7936 4.95247 19.9173 4.89273 20.0374 4.82651Z" fill="#455A64"/>
<path d="M20.2878 3.70285C20.2591 3.72631 20.2278 3.7466 20.1946 3.76338C20.1093 3.81542 20.0202 3.86116 19.9281 3.90022C19.7854 3.95701 19.6384 4.00276 19.4885 4.03706C19.3043 4.07509 19.117 4.09711 18.9289 4.10285C18.7414 4.10484 18.5541 4.08986 18.3694 4.05812C18.2177 4.0321 18.0688 3.99246 17.9244 3.93969C17.827 3.90611 17.7325 3.86474 17.6419 3.81601C17.6076 3.80092 17.5753 3.78146 17.546 3.75811C17.546 3.75811 17.6926 3.82127 17.9377 3.90022C18.0816 3.94541 18.2285 3.98058 18.3774 4.00548C18.56 4.03183 18.7444 4.04415 18.9289 4.04233C19.1132 4.03661 19.2968 4.01637 19.4778 3.9818C19.6255 3.95228 19.7706 3.91181 19.9121 3.86075C20.1413 3.77127 20.2825 3.69232 20.2878 3.70285Z" fill="#455A64"/>
<path d="M15.26 11.7029C15.2387 11.6397 14.8204 11.7976 14.3834 11.5582C13.9464 11.3187 13.8212 10.8608 13.7599 10.8792C13.6986 10.8976 13.7172 11.0108 13.7865 11.1976C13.8778 11.4414 14.0533 11.6455 14.2821 11.7739C14.5025 11.8963 14.7623 11.9293 15.0069 11.8661C15.1881 11.8082 15.2733 11.7213 15.26 11.7029Z" fill="#263238"/>
<path d="M4.90039 43.7584C4.90039 43.7584 3.62141 52.4427 3.85855 53.7585C3.85855 53.7585 5.26543 54.6137 8.36697 54.6558C11.4685 54.698 12.5823 53.6848 12.5823 53.6848L13.4429 53.5453C13.4429 53.5453 17.9727 55.2637 22.4065 53.019C22.4065 53.019 22.1027 50.4716 21.8309 48.569C21.5245 46.3926 20.7171 43.0426 20.7171 43.0426C15.0656 43.1663 10.416 43.7216 5.15885 42.6794L4.90039 43.7584Z" fill="#E92727"/>
<path d="M20.8606 43.7267C20.8104 43.7482 20.7575 43.7633 20.7034 43.7714L20.2477 43.8767C20.0506 43.9214 19.8054 43.9688 19.523 44.0188C19.2405 44.0688 18.9155 44.1293 18.5558 44.1767C17.8363 44.2898 16.9757 44.3819 16.0191 44.4583C15.0625 44.5346 14.0047 44.5609 12.8963 44.5504C11.0025 44.531 9.11333 44.3603 7.24742 44.0398C6.8877 43.9846 6.56796 43.9109 6.28285 43.8556C5.99775 43.8003 5.74994 43.7425 5.56342 43.6925L5.11045 43.5793C5.0564 43.5682 5.0037 43.5514 4.95325 43.5293C5.00826 43.5299 5.06294 43.5378 5.11578 43.553L5.57408 43.6425C5.77126 43.6846 6.01373 43.7346 6.29884 43.7819C6.58395 43.8293 6.90369 43.8977 7.26074 43.9477C9.1295 44.2408 11.0175 44.3983 12.9096 44.4188C14.0154 44.4188 15.0679 44.3977 16.0244 44.3372C16.981 44.2767 17.839 44.1872 18.5558 44.074C18.9155 44.0319 19.2379 43.9819 19.523 43.9346C19.8081 43.8872 20.0559 43.853 20.2504 43.8135L20.7114 43.7346C20.7607 43.7268 20.8107 43.7242 20.8606 43.7267Z" fill="#263238"/>
<path d="M16.8614 48.4819C16.8172 48.5812 16.7655 48.6771 16.7069 48.7688C16.6057 48.953 16.4698 49.224 16.3232 49.5583C16.1767 49.8925 16.0221 50.3188 15.8303 50.7793C15.6331 51.285 15.3754 51.7656 15.0629 52.2109C14.7484 52.6652 14.3171 53.0285 13.8132 53.2635C13.394 53.4429 12.93 53.4942 12.4809 53.4109C12.1785 53.357 11.8972 53.2213 11.6682 53.0188C11.6077 52.9632 11.5532 52.9015 11.5057 52.8346C11.4711 52.7872 11.4577 52.7635 11.4604 52.7609C11.4631 52.7583 11.5403 52.8478 11.7002 52.9793C11.933 53.158 12.2082 53.2749 12.4996 53.3188C12.9297 53.3852 13.3701 53.3277 13.7679 53.153C14.2469 52.9189 14.6564 52.5662 14.9563 52.1293C15.2631 51.6912 15.5196 51.2208 15.721 50.7267C15.9155 50.2714 16.0807 49.8556 16.2406 49.5161C16.3647 49.2444 16.5062 48.9807 16.6643 48.7267C16.7185 48.6367 16.7849 48.5544 16.8614 48.4819Z" fill="#263238"/>
<path d="M10.669 51.4399C10.645 51.4399 10.5624 51.2004 10.3653 50.8346C9.8475 49.8731 9.02738 49.1037 8.02845 48.6425C7.64742 48.4662 7.39429 48.3951 7.39962 48.3793C7.40495 48.3636 7.46623 48.3793 7.58347 48.4057C7.74797 48.4453 7.90919 48.4972 8.06576 48.5609C8.58609 48.7727 9.06219 49.0779 9.46997 49.4609C9.87771 49.8422 10.2094 50.2957 10.4479 50.7978C10.5223 50.9483 10.5829 51.105 10.629 51.2662C10.6527 51.3213 10.6663 51.3801 10.669 51.4399Z" fill="#263238"/>
<g opacity="0.3">
<path d="M17.5032 48.2398C17.4446 48.1661 17.3274 48.1977 17.2368 48.2398C16.5866 48.5819 16.2616 49.3108 16.0537 50.0056C15.8459 50.7003 15.4595 51.7529 14.9879 52.3108L14.5696 52.6793C15.5608 52.095 16.139 51.0293 16.6666 50.0161L17.4659 48.474C17.5192 48.4003 17.5565 48.3029 17.5032 48.2398Z" fill="black"/>
</g>
<g opacity="0.3">
<path d="M8.07084 48.5845C7.95702 48.525 7.83168 48.49 7.70313 48.4819C7.63836 48.4796 7.5743 48.4958 7.51857 48.5285C7.46283 48.5611 7.41776 48.6089 7.38871 48.6661C7.37169 48.7245 7.37035 48.7863 7.38484 48.8453C7.39932 48.9044 7.42912 48.9587 7.47131 49.0029C7.55874 49.0889 7.66062 49.1593 7.77241 49.2108C8.81958 49.7924 9.82944 50.2977 10.5569 51.2424C10.1066 50.3135 9.01409 49.024 8.07084 48.5845Z" fill="black"/>
</g>
</svg>
