<svg width="38" height="94" viewBox="0 0 38 94" fill="none" xmlns="http://www.w3.org/2000/svg">
<path d="M2.91381 49.4379C2.99174 49.8909 3.24958 50.3091 3.64622 50.6258C4.28035 51.1881 4.6418 52.2572 4.6418 52.2572C4.6418 52.2572 5.22837 54.5407 5.37739 55.2825C5.52641 56.0243 5.55812 56.7053 4.84155 56.5865C4.12499 56.4678 3.89036 56.0243 3.71915 54.6595L3.27843 53.9467L2.91381 54.5116V56.7053C2.91381 56.7053 4.7496 58.0992 4.6418 58.5163C4.534 58.9334 4.18841 58.8726 4.18841 58.8726L3.90305 59.1076L1.10338 57.5369L0 54.6595L0.183897 50.9215L0.0951199 48.0177L3.01527 47.6349L2.91381 49.4379Z" fill="#664439"/>
<path d="M2.0133 32.7699C2.0133 32.7699 2.9201 25.8457 3.38301 23.3141C3.84593 20.7825 5.77684 20.0565 5.77684 20.0565L8.77943 29.0583C8.77943 29.0583 7.1307 34.5782 7.0007 35.3068C6.87071 36.0354 6.74705 39.8394 5.73245 42.1228C4.71785 44.4063 2.83767 46.9432 2.92962 48.9415H0.123607C0.123607 48.9415 -0.0698015 42.1334 0.158484 39.1029C0.386769 36.0724 1.99745 33.8919 2.0133 32.7699Z" fill="#664439"/>
<path d="M35.0829 47.8592C35.0066 48.3113 34.7497 48.7288 34.3537 49.0445C33.7195 49.6094 33.3581 50.6759 33.3581 50.6759C33.3581 50.6759 32.7683 52.962 32.6225 53.7038C32.4766 54.4456 32.4418 55.1266 33.1583 55.0079C33.8749 54.8891 34.1095 54.4456 34.2776 53.0808L34.7214 52.368L35.0861 52.9303V55.1266C35.0861 55.1266 33.2471 56.5205 33.3581 56.9349C33.4691 57.3494 33.8115 57.2913 33.8115 57.2913L34.0937 57.5289L36.8933 55.9582L37.9999 53.0808L37.816 49.3428L37.9048 46.439L34.9846 46.0588L35.0829 47.8592Z" fill="#664439"/>
<path d="M29.1731 17.2794C29.1731 17.2794 34.2081 18.8 34.7883 21.3659C35.3685 23.9318 36.0407 31.6955 36.2024 32.7647C36.3641 33.8338 37.4706 35.5523 37.6989 38.7544C37.9272 41.9565 37.9114 46.9379 37.9114 46.9379L35.0578 47.6031C35.0578 47.6031 32.7654 42.9254 32.2042 39.4197C31.643 35.914 30.5618 34.404 30.825 32.9917C31.0882 31.5794 30.1401 27.9496 30.1401 27.9496L29.1731 17.2794Z" fill="#664439"/>
<path d="M14.569 15.677L5.77686 20.0565L7.9963 27.6486L8.65261 30.8375C8.65261 30.8375 7.25754 36.0512 7.40022 37.7803C7.54289 39.5094 8.27531 42.5108 8.27531 42.5108C8.27531 42.5108 14.0205 44.7204 19.5406 44.43C25.0606 44.1396 30.7012 41.7321 30.7012 41.7321C31.1915 39.7586 31.3948 37.7431 31.3068 35.7291C31.1037 33.6994 30.6468 31.6928 29.9434 29.742L30.438 25.476C30.438 25.476 31.0721 25.0325 30.958 23.5727C30.8439 22.1129 29.1729 17.2794 29.1729 17.2794L22.6636 15.2256L14.569 15.677Z" fill="#664439"/>
<path d="M26.6777 31.0594C26.6275 31.0558 26.5776 31.0487 26.5287 31.0383L26.1134 30.9512C25.9327 30.9116 25.7139 30.864 25.4539 30.8192C25.1939 30.7743 24.9054 30.7083 24.5788 30.6608C23.9447 30.5499 23.1488 30.447 22.2769 30.3625C21.405 30.278 20.4411 30.2331 19.4233 30.2278C18.4702 30.2291 17.5178 30.2705 16.5698 30.3519C15.6979 30.4311 14.9147 30.5314 14.2647 30.6397C13.9477 30.6872 13.6465 30.7479 13.3865 30.7954C13.1265 30.8429 12.9077 30.8852 12.7301 30.9248L12.3116 31.0092C12.2642 31.021 12.2152 31.0281 12.1658 31.0304C12.1658 31.0304 12.2102 31.0092 12.3053 30.9828L12.7143 30.8746C12.8918 30.8297 13.1106 30.7743 13.3674 30.7241C13.6243 30.674 13.9128 30.6027 14.2425 30.5499C15.0061 30.4113 15.7775 30.3047 16.5539 30.2305C18.4561 30.0439 20.3779 30.0439 22.2801 30.2305C23.1552 30.3229 23.9383 30.4338 24.5883 30.5578C24.9054 30.6133 25.2224 30.6819 25.4634 30.7373C25.7044 30.7928 25.939 30.8429 26.1165 30.8904L26.5256 31.0013C26.5797 31.0137 26.6311 31.0334 26.6777 31.0594Z" fill="#AE7461"/>
<path d="M31.0816 21.5321C31.126 21.5321 30.9072 23.38 30.5902 25.6423C30.2731 27.9047 29.9846 29.7393 29.956 29.7367C29.9275 29.7341 30.1304 27.8888 30.4475 25.6265C30.7646 23.3641 31.0372 21.5321 31.0816 21.5321Z" fill="#AE7461"/>
<path d="M6.18579 22.0259C6.24151 22.1359 6.28503 22.2498 6.31579 22.3664C6.39188 22.5855 6.49334 22.9076 6.617 23.3036C6.85796 24.0955 7.16552 25.199 7.49209 26.4186C7.81867 27.6382 8.10402 28.7152 8.3228 29.5388C8.42109 29.919 8.50352 30.2384 8.57011 30.4865C8.6073 30.6014 8.63171 30.719 8.64303 30.8376C8.59076 30.7312 8.55146 30.6206 8.52572 30.5076C8.44962 30.2859 8.34816 29.9665 8.22768 29.5679C7.98671 28.7759 7.67916 27.6725 7.35259 26.4529L6.52188 23.3326C6.42042 22.9525 6.33798 22.6357 6.2714 22.3849C6.22771 22.2681 6.19901 22.1477 6.18579 22.0259Z" fill="#AE7461"/>
<path d="M18.9508 38.7281C18.9508 38.7149 19.0745 38.6779 19.2171 38.7809C19.2706 38.8132 19.3124 38.8572 19.3379 38.908C19.3635 38.9588 19.3718 39.0144 19.362 39.0689C19.3522 39.1233 19.3246 39.1745 19.2823 39.2168C19.24 39.2591 19.1845 39.2909 19.122 39.3088C19.0593 39.3352 18.9889 39.3465 18.9189 39.3413C18.8489 39.3362 18.7819 39.3149 18.7257 39.2798C18.6826 39.2506 18.6475 39.2141 18.6229 39.1726C18.5983 39.1312 18.5847 39.0858 18.583 39.0396C18.583 38.8812 18.7003 38.8231 18.7067 38.8363C18.713 38.8495 18.6686 38.9181 18.7067 39.029C18.72 39.0902 18.7608 39.145 18.8208 39.1821C18.8582 39.1992 18.9002 39.2082 18.9429 39.2082C18.9855 39.2082 19.0275 39.1992 19.0649 39.1821C19.1042 39.1684 19.1383 39.1462 19.1639 39.118C19.1896 39.0897 19.2057 39.0563 19.2108 39.0211C19.2144 38.9595 19.1919 38.8988 19.1474 38.8495C19.0523 38.7545 18.9508 38.7492 18.9508 38.7281Z" fill="#AE7461"/>
<path d="M16.5381 26.569C16.5323 26.6369 16.5108 26.7032 16.4747 26.7643C16.3961 26.9386 16.3007 27.1072 16.1893 27.2685C15.8178 27.8032 15.3011 28.2581 14.6806 28.5969C14.0602 28.9356 13.3531 29.1488 12.616 29.2194C12.395 29.2399 12.1724 29.2461 11.9502 29.2378C11.7917 29.2378 11.7061 29.2167 11.7061 29.2062C11.7061 29.1956 12.0548 29.2062 12.6002 29.127C13.3108 29.033 13.9894 28.8142 14.5907 28.4851C15.192 28.1561 15.7024 27.7243 16.0879 27.2184C16.3922 26.8303 16.5127 26.5479 16.5381 26.569Z" fill="#AE7461"/>
<path d="M27.8961 28.0885C27.8065 28.1344 27.7093 28.1691 27.6076 28.1914C27.3359 28.2668 27.0569 28.3224 26.7737 28.3578C25.83 28.4784 24.865 28.4001 23.9671 28.1298C23.0691 27.8595 22.267 27.406 21.6341 26.8108C21.4445 26.6325 21.2737 26.4408 21.1237 26.238C21.0698 26.1638 21.0282 26.0838 21 26.0004C21.0254 25.9872 21.2473 26.3119 21.7419 26.7395C22.3783 27.3032 23.1651 27.7344 24.0387 27.998C24.9123 28.2617 25.8481 28.3506 26.7706 28.2574C27.4681 28.1967 27.8866 28.0647 27.8961 28.0885Z" fill="#AE7461"/>
<path d="M17.6223 47.0487C17.6223 47.0487 23.2058 67.8083 24.956 70.3689C24.8499 72.7796 24.9559 75.1936 25.273 77.5915C25.793 81.7149 27.4164 87.7812 27.4164 87.7812L31.3892 87.5172C31.3892 87.5172 33.1933 79.0381 33.003 74.033C32.8128 69.0279 32.7938 67.6182 33.0189 61.2958C33.244 54.9734 32.6226 50.2085 30.0385 42.8804L21.5254 43.3027L17.6223 47.0487Z" fill="#664439"/>
<path d="M20.6218 46.2965C20.6218 46.2965 18.2248 67.4494 16.8741 70.1579C17.3452 72.5402 17.608 74.9479 17.6604 77.3619C17.765 81.5038 16.9787 87.6837 16.9787 87.6837H13.0471C13.0471 87.6837 10.016 79.5609 9.4453 74.5743C8.87459 69.5877 8.17705 68.2651 7.00392 62.0166C5.83079 55.7682 6.60125 50.8475 8.05657 43.3161L16.1987 42.9597L20.6218 46.2965Z" fill="#664439"/>
<path d="M13.4783 85.7882V86.9207C13.4783 86.9207 12.2861 88.7052 11.6076 89.3256C10.9291 89.9459 9.15671 90.8276 8.71599 91.3371C8.27527 91.8466 8.64623 93.713 10.5169 93.977C12.3876 94.2409 13.8841 92.1634 14.9399 91.2289C15.5601 90.6767 16.2975 90.2247 17.115 89.8958C17.524 89.6714 16.7155 86.2449 16.7155 86.2449L13.4783 85.7882Z" fill="#664439"/>
<path d="M30.9771 85.7882V86.9207C30.9771 86.9207 32.1692 88.7052 32.8478 89.3256C33.5263 89.9459 35.2987 90.8276 35.7394 91.3371C36.1801 91.8466 35.8091 93.713 33.9385 93.977C32.0678 94.2409 30.5713 92.1581 29.5154 91.2236C28.8953 90.6714 28.1579 90.2195 27.3404 89.8905C26.9314 89.6661 27.7399 86.2396 27.7399 86.2396L30.9771 85.7882Z" fill="#664439"/>
<path d="M9.28034 4.9963C9.30483 4.83943 9.37927 4.69087 9.49594 4.56601C9.8607 4.14552 10.4035 3.8559 11.0147 3.75558C10.4957 3.56868 10.0251 3.29973 9.62911 2.96363C9.43234 2.7906 9.29295 2.57798 9.22458 2.34659C9.15622 2.11521 9.16123 1.87301 9.23912 1.64372C9.35397 1.43181 9.52164 1.24265 9.731 1.08882C9.94037 0.934983 10.1866 0.819986 10.4535 0.751458C11.1732 0.500032 11.9727 0.454538 12.7268 0.622107C13.1006 0.710307 13.4433 0.872254 13.7259 1.09422C14.0085 1.31618 14.2226 1.59161 14.3502 1.89714L13.6241 3.44936C13.5271 4.06304 13.236 4.64425 12.7807 5.13357C12.5715 5.35532 12.2671 5.57443 11.9342 5.51371C11.7972 5.47818 11.6766 5.4085 11.5887 5.31408C11.5008 5.21966 11.4498 5.10505 11.4427 4.98574C11.4369 4.74509 11.4909 4.50603 11.6012 4.28355C11.2325 4.73129 10.7341 5.09444 10.1523 5.33948C10.0599 5.39058 9.95456 5.42314 9.84452 5.43459C9.73449 5.44605 9.62276 5.43608 9.51814 5.40548C9.43521 5.36373 9.36861 5.30285 9.32641 5.23023C9.2842 5.1576 9.2682 5.07635 9.28034 4.9963Z" fill="#263238"/>
<path d="M13.4244 3.39384C13.4052 3.26965 13.4128 3.14362 13.4466 3.02162C13.5544 2.53061 13.6781 2.00265 14.0997 1.64627C14.1329 1.61182 14.1748 1.58399 14.2226 1.5648C14.2703 1.54562 14.3226 1.53557 14.3756 1.5354C14.5436 1.55124 14.6134 1.72811 14.5849 1.86538C14.5349 1.99929 14.503 2.13741 14.4897 2.27719L14.2075 3.27505C14.1956 3.38531 14.1424 3.48966 14.0554 3.57335C14.0111 3.61502 13.9542 3.64606 13.8906 3.66324C13.8271 3.68041 13.7591 3.6831 13.6939 3.67102C13.6232 3.64931 13.5608 3.6121 13.5133 3.56331C13.4659 3.51452 13.4352 3.45597 13.4244 3.39384Z" fill="#455A64"/>
<path d="M14.5215 10.2919C14.014 9.20921 13.6204 8.09188 13.3452 6.95249C13.0731 5.81176 13.145 4.63263 13.5545 3.52071C13.6211 3.35176 14.2108 2.22984 14.42 2.24304C14.5722 2.24304 14.2235 3.29897 14.3027 3.39928C15.0263 4.44796 15.3513 5.65457 15.2349 6.86009C15.1505 8.02249 14.9112 9.17347 14.5215 10.2919Z" fill="#263238"/>
<path d="M14.6167 16.3239L14.233 5.86749C14.0174 2.96368 15.8659 0.432085 19.3631 0.323853H19.7404C21.2943 0.356905 22.7764 0.875319 23.8924 1.77614C25.0085 2.67697 25.6768 3.89431 25.7646 5.18642C25.939 7.71801 26.0817 10.5321 26.0341 11.8889C25.9136 14.6819 22.5464 15.0567 22.5464 15.0567C22.5464 15.0567 22.5464 15.7061 22.5718 16.5245C22.5718 16.5245 22.3371 18.1084 19.2109 18.1928C18.3191 18.2223 17.4325 18.067 16.6306 17.7408C15.8288 17.4146 15.1367 16.9277 14.6167 16.3239Z" fill="#664439"/>
<path d="M22.5464 15.0619C20.9967 15.0291 19.4911 14.6259 18.209 13.9004C18.209 13.9004 19.2172 15.9542 22.5718 15.7694L22.5464 15.0619Z" fill="#AE7461"/>
<path d="M24.4646 7.82623C24.4622 7.93036 24.4112 8.02962 24.3224 8.10302C24.2337 8.17642 24.1141 8.21821 23.989 8.21956C23.9281 8.22204 23.8672 8.21441 23.8099 8.19711C23.7526 8.17981 23.7 8.15318 23.6551 8.11879C23.6103 8.0844 23.5741 8.04292 23.5487 7.99677C23.5232 7.95062 23.5091 7.90072 23.5071 7.84999C23.5087 7.74609 23.559 7.64684 23.6473 7.57337C23.7355 7.4999 23.8547 7.45802 23.9795 7.45665C24.0407 7.45381 24.1019 7.46117 24.1596 7.47831C24.2173 7.49544 24.2703 7.52201 24.3155 7.55644C24.3607 7.59087 24.3971 7.63247 24.4228 7.6788C24.4484 7.72513 24.4626 7.77525 24.4646 7.82623Z" fill="#263238"/>
<path d="M25.013 6.43501C24.9528 6.48517 24.5945 6.25286 24.0777 6.24494C23.5609 6.23702 23.1804 6.44293 23.1265 6.39013C23.0726 6.33734 23.1645 6.27398 23.3326 6.17631C23.5585 6.05143 23.8257 5.98865 24.0967 5.9968C24.365 6.00094 24.6247 6.07581 24.8386 6.21063C25.013 6.31622 25.0511 6.41125 25.013 6.43501Z" fill="#263238"/>
<path d="M19.8228 7.82623C19.8203 7.93036 19.7693 8.02962 19.6806 8.10302C19.5918 8.17642 19.4723 8.21821 19.3472 8.21956C19.2863 8.22204 19.2254 8.21441 19.1681 8.19711C19.1107 8.17981 19.0581 8.15318 19.0133 8.11879C18.9684 8.0844 18.9322 8.04292 18.9068 7.99677C18.8814 7.95062 18.8673 7.90072 18.8652 7.84999C18.8669 7.74609 18.9172 7.64684 19.0054 7.57337C19.0937 7.4999 19.2129 7.45802 19.3377 7.45665C19.3988 7.45381 19.46 7.46117 19.5177 7.47831C19.5754 7.49544 19.6284 7.52201 19.6736 7.55644C19.7188 7.59087 19.7553 7.63247 19.7809 7.6788C19.8065 7.72513 19.8207 7.77525 19.8228 7.82623Z" fill="#263238"/>
<path d="M20.1207 6.48524C20.0573 6.5354 19.7022 6.30573 19.1854 6.29517C18.6685 6.28461 18.2881 6.49316 18.2342 6.44036C18.1803 6.38757 18.2722 6.32421 18.4403 6.22654C18.6668 6.10278 18.9336 6.0401 19.2044 6.04703C19.4733 6.05063 19.7335 6.12657 19.9463 6.26349C20.0985 6.35853 20.1492 6.45356 20.1207 6.48524Z" fill="#263238"/>
<path d="M21.722 9.80082C21.9953 9.73444 22.2776 9.69718 22.5622 9.68995C22.6953 9.68995 22.819 9.66355 22.8444 9.58963C22.8578 9.47638 22.8302 9.36238 22.7651 9.2623L22.4005 8.42019C21.8932 7.21907 21.5285 6.23442 21.5888 6.21858C21.649 6.20274 22.1024 7.161 22.6097 8.35948C22.7334 8.65514 22.8475 8.9376 22.9585 9.20686C23.0389 9.34089 23.0592 9.49443 23.0156 9.63979C22.9945 9.6777 22.9638 9.7113 22.9254 9.73822C22.887 9.76513 22.8421 9.7847 22.7936 9.79554C22.7208 9.80951 22.6464 9.8166 22.5717 9.81666C22.2888 9.841 22.0033 9.83568 21.722 9.80082Z" fill="#263238"/>
<path d="M20.2032 4.99628C20.1302 5.10715 19.6325 4.99628 19.0205 4.9778C18.4086 4.95932 17.9045 5.0438 17.8442 4.93029C17.8157 4.87749 17.9203 4.77718 18.1327 4.69006C18.4173 4.58417 18.7271 4.53365 19.0386 4.54234C19.3501 4.55103 19.6551 4.6187 19.9305 4.74022C20.1366 4.84053 20.2317 4.94613 20.2032 4.99628Z" fill="#263238"/>
<path d="M25.0892 5.33166C24.9814 5.42669 24.5724 5.31581 24.0746 5.29997C23.5768 5.28414 23.1551 5.34485 23.0632 5.23926C23.022 5.1891 23.0917 5.09407 23.2788 5.00432C23.5359 4.89961 23.821 4.85143 24.1068 4.86436C24.3926 4.8773 24.6697 4.95093 24.9117 5.07823C25.0829 5.18382 25.1368 5.28678 25.0892 5.33166Z" fill="#263238"/>
<path d="M14.439 7.93978C14.3819 7.91866 12.1498 7.32734 12.1688 9.23857C12.1878 11.1498 14.4897 10.7406 14.4929 10.6852C14.4961 10.6298 14.439 7.93978 14.439 7.93978Z" fill="#664439"/>
<path d="M13.7828 9.96447C13.7828 9.96447 13.7447 9.98823 13.675 10.0146C13.5796 10.0475 13.4724 10.0475 13.3769 10.0146C13.2277 9.9374 13.1058 9.82845 13.0239 9.69901C12.942 9.56956 12.903 9.42428 12.9109 9.27812C12.904 9.11417 12.9408 8.951 13.0187 8.80031C13.0385 8.73934 13.0761 8.68337 13.1281 8.63734C13.1801 8.59131 13.2448 8.55662 13.3167 8.53633C13.3627 8.5256 13.4117 8.52871 13.4552 8.54513C13.4987 8.56155 13.5339 8.59021 13.5545 8.62608C13.5862 8.67888 13.5545 8.71583 13.583 8.72111C13.6116 8.72639 13.6338 8.68679 13.6147 8.6076C13.6007 8.56063 13.5684 8.51886 13.5228 8.48881C13.4585 8.45048 13.3794 8.43354 13.3008 8.44129C13.2067 8.45822 13.1193 8.49468 13.0467 8.5473C12.9741 8.59992 12.9186 8.66697 12.8855 8.74223C12.7902 8.90658 12.7445 9.08781 12.7523 9.2702C12.7714 9.65561 13.0123 10.0146 13.3452 10.0912C13.4069 10.1057 13.4716 10.1084 13.5348 10.0993C13.5979 10.0902 13.6577 10.0693 13.7099 10.0384C13.7796 10.012 13.7923 9.96975 13.7828 9.96447Z" fill="#AE7461"/>
<path d="M24.2236 2.10044C24.5914 1.92357 23.4563 0.938912 22.5336 0.606294C21.1449 0.104727 19.0301 -0.185655 17.7777 0.133765C16.2526 0.51654 14.9939 1.16858 14.2488 2.34066C13.5317 3.53255 13.2089 4.86195 13.3134 6.19217C13.3023 6.5989 13.4216 7.00075 13.659 7.35633C13.9761 7.77343 14.6102 8.03213 14.5944 8.61553C14.5835 8.82815 14.6734 9.0358 14.8449 9.19365C15.2729 9.56059 15.796 9.19366 16.0085 8.85048C16.4968 8.09285 16.5348 7.20058 16.5633 6.34C16.622 5.73117 16.5599 5.11846 16.3794 4.52644C16.2621 4.20966 16.0624 3.91136 15.9768 3.5893C15.917 3.43035 15.8989 3.26259 15.9235 3.09731C15.9481 2.93202 16.0149 2.77304 16.1194 2.63104C16.1763 2.57481 16.2378 2.52189 16.3033 2.47265C16.6189 2.23549 17.0047 2.07258 17.4209 2.00067C17.8372 1.92876 18.2689 1.95044 18.6718 2.06348C19.9718 2.42513 22.1912 2.96102 22.7587 2.59144C23.1571 2.35641 23.4929 2.05532 23.7448 1.7071L24.2236 2.10044Z" fill="#263238"/>
<path d="M23.1582 14.0747C23.209 14.0747 23.2375 13.8899 23.1804 13.6735C23.1234 13.457 23.0029 13.2986 22.9553 13.3144C22.9078 13.3303 22.9553 13.5019 22.9997 13.7051C23.0441 13.9084 23.1107 14.0774 23.1582 14.0747Z" fill="#263238"/>
<path d="M22.5305 14.1407C22.5844 14.1407 22.5908 13.9929 22.5813 13.8266C22.5718 13.6603 22.5464 13.523 22.4925 13.5177C22.4386 13.5124 22.3847 13.655 22.3974 13.8345C22.4101 14.014 22.4766 14.1539 22.5305 14.1407Z" fill="#263238"/>
<path d="M21.963 14.1777C22.0137 14.1777 22.0454 14.0272 22.0327 13.8477C22.0201 13.6682 21.9725 13.5203 21.9218 13.523C21.871 13.5256 21.8393 13.6735 21.8489 13.8556C21.8584 14.0377 21.9123 14.1803 21.963 14.1777Z" fill="#263238"/>
<path d="M21.2083 14.0431C21.259 14.0431 21.3288 13.9269 21.3668 13.7632C21.4049 13.5996 21.3922 13.4649 21.3415 13.457C21.2907 13.4491 21.221 13.5732 21.1829 13.7368C21.1449 13.9005 21.1671 14.0351 21.2083 14.0431Z" fill="#263238"/>
<path d="M22.2229 11.3108C22.2229 11.2396 21.6586 11.3108 21.1988 10.9492C20.7391 10.5875 20.7201 10.0939 20.6408 10.0992C20.5615 10.1044 20.5488 10.2232 20.5774 10.4318C20.6171 10.7045 20.7709 10.9568 21.0118 11.1445C21.2456 11.3194 21.5504 11.4137 21.8647 11.4085C22.0993 11.4085 22.2293 11.3425 22.2229 11.3108Z" fill="#263238"/>
<path d="M8.01527 41.3784L8.03746 42.3736C6.79775 43.4296 5.52632 46.9564 5.57071 51.1748C5.6151 55.3933 5.88777 59.3926 5.88777 59.3926L19.4137 59.5272L19.5627 56.2327L19.8798 59.5299L34.1476 58.7379C34.1476 58.7379 33.5737 45.977 30.5711 42.7089C30.5711 42.7089 30.7867 41.9169 30.7011 41.7322C21.7378 45.2906 13.8144 44.9923 8.01527 41.3784Z" fill="#E92727"/>
<path d="M30.5713 42.709C30.5057 42.7467 30.4355 42.7785 30.362 42.804C30.2225 42.8647 30.0164 42.9466 29.7469 43.0469C29.2047 43.2501 28.4152 43.5273 27.4197 43.8388C26.4241 44.1503 25.2256 44.4698 23.8686 44.7654C22.3902 45.0736 20.8767 45.2506 19.3536 45.2934C18.5451 45.3198 17.7524 45.3119 16.9883 45.2775C16.2527 45.2391 15.5233 45.1419 14.8101 44.9872C13.6098 44.717 12.4422 44.3547 11.3224 43.9048C10.3712 43.53 9.60706 43.1974 9.0839 42.9677L8.48465 42.7037C8.41303 42.6746 8.34414 42.6411 8.27856 42.6034C8.35488 42.6216 8.42833 42.6473 8.49734 42.6799L9.11244 42.9255C9.64511 43.1419 10.4092 43.4534 11.3699 43.8256C12.4925 44.2632 13.6597 44.6166 14.8576 44.8816C16.2051 45.1851 17.7524 45.2221 19.3599 45.1746C20.8714 45.1315 22.3736 44.9599 23.8432 44.6625C25.197 44.3721 26.3797 44.05 27.3943 43.7623C28.4089 43.4745 29.1889 43.2106 29.7342 43.0231L30.3683 42.804C30.4322 42.767 30.5001 42.7352 30.5713 42.709Z" fill="#263238"/>
<path d="M28.5674 45.1982C28.5833 45.2167 28.1679 45.4622 27.5306 45.8608C25.8722 46.9315 24.4331 48.2188 23.2693 49.6728C22.8222 50.2298 22.5781 50.5914 22.5559 50.5809C22.592 50.4884 22.6409 50.3998 22.7018 50.3169C22.8 50.1479 22.9617 49.9103 23.1742 49.6252C23.7336 48.8785 24.3781 48.1784 25.0988 47.5345C25.8197 46.8916 26.6117 46.3065 27.464 45.7869C27.7811 45.5916 28.0633 45.4385 28.2599 45.3408C28.3551 45.2831 28.4584 45.2353 28.5674 45.1982Z" fill="#263238"/>
<path d="M9.82588 46.9194C9.93807 46.9551 10.0446 47.002 10.1429 47.0593C10.3395 47.157 10.6122 47.3075 10.9388 47.5055C12.649 48.5449 14.1051 49.8468 15.2286 51.3411C15.4411 51.6289 15.6028 51.8691 15.7011 52.0354C15.7631 52.1178 15.8122 52.2065 15.8469 52.2994C15.8247 52.2994 15.5806 51.9457 15.1335 51.3887C14.5506 50.6641 13.8997 49.9791 13.1867 49.3402C12.471 48.7036 11.6971 48.114 10.8722 47.5767C10.2254 47.1676 9.81002 46.9379 9.82588 46.9194Z" fill="#263238"/>
<path d="M21.4809 54.0152C21.4143 54.0272 21.3461 54.0325 21.278 54.0311L20.7041 54.0469L18.6273 54.068H18.5639V54.0126C18.5639 53.0992 18.5322 51.9905 18.5132 50.7946C18.4942 49.2503 18.4878 47.8539 18.491 46.8349C18.491 46.3465 18.491 45.9426 18.491 45.6364C18.4869 45.4891 18.4954 45.3418 18.5164 45.1956C18.5447 45.3413 18.5575 45.4888 18.5544 45.6364C18.5544 45.94 18.5766 46.3439 18.5925 46.8349C18.6178 47.8459 18.6432 49.2451 18.6622 50.7946C18.6622 51.9905 18.6781 53.0966 18.6844 54.0126L18.6178 53.9571L20.6946 53.9809L21.2685 53.9967C21.3399 53.9955 21.4113 54.0017 21.4809 54.0152Z" fill="#263238"/>
<g opacity="0.3">
<path d="M29.6012 43.0706C29.2651 43.5458 26.4654 44.5833 24.934 44.9792C23.4026 45.3752 22.0297 45.7448 20.4254 45.7712C18.3639 45.8327 16.3023 45.655 14.2997 45.2432C12.2869 44.8118 10.427 43.9864 8.87476 42.8357C8.87476 42.8357 13.6307 45.1931 18.5579 45.2274C24.6106 45.2749 29.6012 43.0706 29.6012 43.0706Z" fill="black"/>
</g>
<path d="M20.6852 47.6005C20.6852 47.7091 20.6465 47.8152 20.574 47.9055C20.5016 47.9958 20.3986 48.0662 20.2781 48.1078C20.1576 48.1493 20.025 48.1602 19.897 48.139C19.7691 48.1178 19.6516 48.0655 19.5594 47.9887C19.4671 47.9119 19.4043 47.8141 19.3789 47.7076C19.3534 47.6011 19.3665 47.4907 19.4164 47.3903C19.4663 47.29 19.5509 47.2043 19.6593 47.1439C19.7678 47.0836 19.8953 47.0514 20.0257 47.0514C20.2006 47.0514 20.3684 47.1092 20.492 47.2122C20.6157 47.3152 20.6852 47.4548 20.6852 47.6005Z" fill="white"/>
<path d="M20.6852 50.2561C20.6852 50.3647 20.6465 50.4709 20.574 50.5612C20.5016 50.6515 20.3986 50.7218 20.2781 50.7634C20.1576 50.805 20.025 50.8158 19.897 50.7946C19.7691 50.7735 19.6516 50.7212 19.5594 50.6444C19.4671 50.5676 19.4043 50.4697 19.3789 50.3632C19.3534 50.2567 19.3665 50.1463 19.4164 50.046C19.4663 49.9457 19.5509 49.8599 19.6593 49.7996C19.7678 49.7392 19.8953 49.707 20.0257 49.707C20.2006 49.707 20.3684 49.7649 20.492 49.8678C20.6157 49.9708 20.6852 50.1105 20.6852 50.2561Z" fill="white"/>
<path d="M8.95087 42.8779C8.90965 42.8779 8.89697 42.6772 8.95087 42.437C8.96804 42.3322 9.00328 42.2299 9.0555 42.1334C9.09989 42.0569 9.15696 42.0226 9.17281 42.0331C9.16587 42.176 9.14467 42.3182 9.1094 42.4581C9.0555 42.6904 8.99525 42.8831 8.95087 42.8779Z" fill="#263238"/>
<path d="M9.84801 43.2554C9.80363 43.2554 9.78777 43.0732 9.87021 42.8647C9.95265 42.6561 10.0922 42.5189 10.1302 42.54C10.1682 42.5611 10.0953 42.7142 10.0224 42.9069C9.94948 43.0996 9.8924 43.258 9.84801 43.2554Z" fill="#263238"/>
<path d="M10.7453 43.5933C10.7041 43.5933 10.7295 43.4217 10.8024 43.2343C10.8753 43.0468 10.9673 42.9043 11.0085 42.9149C11.0497 42.9254 11.0085 43.0891 10.9514 43.2739C10.8943 43.4587 10.777 43.6039 10.7453 43.5933Z" fill="#263238"/>
<path d="M11.5886 43.9523C11.5474 43.9523 11.5347 43.7543 11.6457 43.5405C11.7567 43.3267 11.9279 43.1973 11.9628 43.2211C11.9976 43.2448 11.893 43.3953 11.7947 43.5906C11.6964 43.786 11.6362 43.9549 11.5886 43.9523Z" fill="#263238"/>
<path d="M12.7523 44.3799C12.711 44.3799 12.7174 44.1687 12.8062 43.9284C12.8949 43.6882 13.0218 43.514 13.063 43.5272C13.1042 43.5404 13.0408 43.7357 12.9583 43.9654C12.8759 44.1951 12.7966 44.3851 12.7523 44.3799Z" fill="#263238"/>
<path d="M13.9698 44.665C13.9286 44.665 13.9476 44.4644 14.0111 44.2374C14.0745 44.0103 14.1664 43.8308 14.2108 43.8414C14.2552 43.8519 14.233 44.0394 14.1664 44.269C14.0998 44.4987 14.011 44.6729 13.9698 44.665Z" fill="#263238"/>
<path d="M15.1842 45.0267C15.1342 44.8648 15.1342 44.695 15.1842 44.5331C15.2286 44.2691 15.2983 44.0552 15.3427 44.0605C15.3871 44.0658 15.3871 44.2849 15.3427 44.5515C15.2983 44.8182 15.2412 45.0267 15.1842 45.0267Z" fill="#263238"/>
<path d="M16.4999 44.1581C16.5411 44.1581 16.5506 44.3772 16.5189 44.6412C16.4872 44.9052 16.427 45.1164 16.3826 45.1111C16.3382 45.1058 16.3319 44.892 16.3636 44.628C16.3953 44.364 16.4523 44.1555 16.4999 44.1581Z" fill="#263238"/>
<path d="M17.8188 44.2347C17.8828 44.3891 17.8981 44.5545 17.8632 44.7152C17.8441 44.9792 17.7902 45.1904 17.749 45.1877C17.7078 45.1851 17.6856 44.9713 17.7046 44.7073C17.7237 44.4433 17.7744 44.2347 17.8188 44.2347Z" fill="#263238"/>
<path d="M19.0967 44.2849C19.1411 44.2849 19.2236 44.4803 19.2521 44.739C19.2806 44.9977 19.2521 45.2088 19.195 45.2062C19.138 45.2036 19.1189 45.0003 19.0936 44.7495C19.0682 44.4987 19.0555 44.2928 19.0967 44.2849Z" fill="#263238"/>
<path d="M20.4094 44.2533C20.4537 44.2533 20.5013 44.4539 20.5172 44.7021C20.533 44.9502 20.5172 45.1561 20.4664 45.1588C20.4157 45.1614 20.3745 44.9608 20.3586 44.71C20.3428 44.4592 20.365 44.2559 20.4094 44.2533Z" fill="#263238"/>
<path d="M21.7316 44.0948C21.7759 44.0948 21.8013 44.3007 21.8203 44.5514C21.8394 44.8022 21.852 45.0108 21.8203 45.016C21.7886 45.0213 21.6935 44.8207 21.6713 44.562C21.6491 44.3033 21.6872 44.0921 21.7316 44.0948Z" fill="#263238"/>
<path d="M23.025 43.9523C23.0662 43.9523 23.1772 44.1133 23.2279 44.3482C23.2787 44.5832 23.247 44.7785 23.2058 44.7785C23.1645 44.7785 23.1201 44.5964 23.0694 44.372C23.0187 44.1476 22.9838 43.9707 23.025 43.9523Z" fill="#263238"/>
<path d="M24.2332 43.7068C24.2776 43.7068 24.341 43.881 24.414 44.1001C24.4869 44.3192 24.5408 44.5014 24.4996 44.5172C24.4583 44.5331 24.3347 44.3641 24.2586 44.1344C24.1825 43.9048 24.1888 43.7068 24.2332 43.7068Z" fill="#263238"/>
<path d="M25.3714 43.4612C25.4126 43.4612 25.4982 43.6301 25.5584 43.8572C25.6187 44.0842 25.6377 44.2769 25.5933 44.2848C25.5489 44.2927 25.4665 44.1159 25.4062 43.8862C25.346 43.6565 25.3301 43.4691 25.3714 43.4612Z" fill="#263238"/>
<path d="M26.6775 43.1418C26.7188 43.1418 26.8012 43.3002 26.8583 43.5167C26.9153 43.7332 26.9312 43.9127 26.8868 43.9206C26.8424 43.9285 26.7631 43.7596 26.7029 43.5457C26.6427 43.3319 26.6332 43.1498 26.6775 43.1418Z" fill="#263238"/>
<path d="M27.9522 42.7776C27.9966 42.7776 28.0569 42.9545 28.0886 43.1815C28.1203 43.4085 28.1108 43.5959 28.0664 43.6012C28.022 43.6065 27.9618 43.4243 27.93 43.1973C27.8983 42.9703 27.9078 42.7802 27.9522 42.7776Z" fill="#263238"/>
<path d="M28.9193 42.4608C28.9605 42.4608 29.0334 42.6298 29.081 42.8515C29.1285 43.0733 29.1317 43.2607 29.081 43.2686C29.0302 43.2765 28.9668 43.097 28.9193 42.8753C28.8717 42.6535 28.8749 42.4661 28.9193 42.4608Z" fill="#263238"/>
<path d="M29.769 42.1387C29.8102 42.1255 29.918 42.2892 29.9529 42.5162C29.9877 42.7432 29.9529 42.9227 29.8958 42.9201C29.8387 42.9174 29.8292 42.7432 29.7975 42.532C29.7658 42.3208 29.7119 42.1519 29.769 42.1387Z" fill="#263238"/>
</svg>
