<svg width="375" height="460" viewBox="0 0 375 460" fill="none" xmlns="http://www.w3.org/2000/svg">
<path d="M66.0298 145.489C66.7309 142.769 68.0042 140.223 69.7683 138.014C70.8408 136.542 72.3543 134.982 74.1784 135.218L75.742 135.473C76.8497 135.064 78.0574 134.99 79.2085 135.261C80.3595 135.532 81.4007 136.136 82.1968 136.993C82.8844 137.832 83.3695 138.812 83.6159 139.86C83.8623 140.908 83.8638 141.997 83.6201 143.046C83.1165 145.14 82.1175 147.089 80.7034 148.736C79.1883 150.641 77.4106 152.331 75.4213 153.758C74.3668 154.634 73.068 155.181 71.6928 155.328C70.929 155.305 70.1798 155.117 69.4988 154.778C68.8178 154.439 68.2219 153.957 67.7537 153.366C66.882 152.263 66.2745 150.982 65.9761 149.619C65.6777 148.256 65.6961 146.844 66.0298 145.489Z" fill="#E0E0E0"/>
<path d="M64.5762 145.361C65.2793 142.643 66.5524 140.097 68.3148 137.886C68.8259 137.159 69.4786 136.538 70.2353 136.058C70.9921 135.579 71.8381 135.25 72.7249 135.09L75.1404 134.708C77.5259 134.796 79.1496 135.139 80.7533 136.876C81.4394 137.713 81.9236 138.692 82.17 139.738C82.4164 140.784 82.4187 141.871 82.1765 142.918C81.6727 145.015 80.6738 146.967 79.2599 148.618C77.7435 150.522 75.9622 152.21 73.9677 153.631C72.9773 154.436 71.746 154.904 70.4597 154.965C68.9462 154.965 67.9339 153.984 66.9517 152.885C65.9878 151.896 65.2715 150.702 64.8593 149.397C64.4471 148.091 64.3502 146.71 64.5762 145.361Z" fill="#EBEBEB"/>
<path d="M73.2462 124.918C73.4287 124.264 73.8358 123.693 74.3988 123.299C75.2546 122.869 76.24 122.754 77.1752 122.975C77.5924 123.073 77.9826 123.259 78.3186 123.52C78.6545 123.781 78.9279 124.111 79.1197 124.486C79.4396 124.936 79.6655 125.443 79.7842 125.978C79.9029 126.513 79.9121 127.067 79.8112 127.605C79.7031 128.139 79.4642 128.64 79.1151 129.064C78.7659 129.487 78.3169 129.822 77.8066 130.038C77.1212 130.266 76.3805 130.281 75.686 130.081C74.9915 129.881 74.3774 129.475 73.9278 128.92C73.4924 128.356 73.203 127.698 73.0843 127.001C72.9656 126.304 73.0211 125.589 73.2462 124.918Z" fill="#E0E0E0"/>
<path d="M72.6551 124.947C72.8231 124.345 73.1984 123.818 73.7176 123.456C74.5032 123.065 75.4046 122.957 76.2634 123.152C76.6462 123.244 77.0041 123.416 77.3122 123.656C77.6202 123.897 77.8712 124.2 78.0475 124.545C78.3427 124.959 78.5506 125.426 78.659 125.92C78.7674 126.413 78.7742 126.923 78.6789 127.419C78.5775 127.914 78.3535 128.376 78.0267 128.766C77.6999 129.156 77.2803 129.462 76.8046 129.656C76.1755 129.865 75.4957 129.878 74.8586 129.693C74.2215 129.509 73.6583 129.136 73.2465 128.626C72.8483 128.106 72.5863 127.5 72.4832 126.858C72.3801 126.217 72.4391 125.561 72.6551 124.947Z" fill="#EBEBEB"/>
<path d="M77.6663 123.27C77.9831 123.36 78.2723 123.525 78.5083 123.75C79.2127 124.314 79.7205 125.079 79.9616 125.938C80.1304 126.593 80.1271 127.279 79.9518 127.933C79.7765 128.586 79.4351 129.186 78.9593 129.675C78.3635 130.283 77.5695 130.667 76.7148 130.762C75.86 130.857 74.9983 130.656 74.2786 130.195C73.5898 129.685 73.0251 129.032 72.6248 128.282C72.1996 127.62 71.8975 126.889 71.7327 126.124C71.6704 125.761 71.6826 125.389 71.7687 125.03C71.8547 124.671 72.0129 124.333 72.2339 124.035C72.6052 123.518 73.12 123.116 73.7173 122.877C74.5745 122.56 75.5143 122.525 76.3934 122.779C76.7136 122.843 77.0172 122.969 77.2855 123.152C76.9677 123.11 76.6529 123.047 76.3433 122.965C75.5114 122.807 74.6503 122.893 73.8676 123.211C73.308 123.435 72.8412 123.835 72.5414 124.349C72.2417 124.863 72.1264 125.46 72.2138 126.046C72.3784 126.743 72.6668 127.407 73.0658 128.008C73.4342 128.691 73.9507 129.287 74.5793 129.754C75.196 130.143 75.9304 130.313 76.6601 130.237C77.3897 130.16 78.0703 129.841 78.5884 129.332C79.0139 128.897 79.3233 128.366 79.4893 127.786C79.6554 127.206 79.673 126.595 79.5406 126.006C79.3503 125.197 78.9258 124.458 78.3178 123.878C77.937 123.476 77.6663 123.309 77.6663 123.27Z" fill="#263238"/>
<path d="M304.218 344.724C369.267 281.059 369.52 178.084 304.782 114.724C240.044 51.3637 134.831 51.6108 69.7819 115.276C4.73277 178.941 4.48031 281.916 69.2181 345.276C133.956 408.636 239.169 408.389 304.218 344.724Z" fill="#E7E7E7"/>
<g opacity="0.2">
<path d="M169.63 76.0992C169.554 76.0836 169.476 76.0836 169.4 76.0992C169.037 76.1152 168.676 76.1512 168.317 76.2071L167.075 76.6584C167.004 76.6584 166.934 76.7172 166.954 76.7467C166.974 76.7761 167.315 77.0704 168.899 76.6388C169.781 76.3739 169.761 76.1777 169.63 76.0992Z" fill="black"/>
<path d="M167.125 74.8044C167.375 74.7662 167.621 74.7004 167.856 74.6082C167.856 74.6082 167.786 74.6082 167.746 74.6082C167.506 74.6082 166.944 74.6768 166.844 74.6964C166.744 74.7161 166.603 74.7847 166.634 74.8142C166.664 74.8436 166.894 74.8632 167.125 74.8044Z" fill="black"/>
<path d="M172.186 74.255C172.459 74.2847 172.735 74.2847 173.008 74.255C173.008 74.255 173.429 74.255 174.06 74.1373C174.06 74.1373 174.792 74.0294 174.912 73.9902C174.912 73.9902 174.912 73.9902 174.772 73.9902C173.095 74.0106 171.421 74.1384 169.761 74.3728H171.074C171.441 74.3046 171.813 74.2652 172.186 74.255Z" fill="black"/>
<path d="M169.3 74.7651C169.648 74.6895 170.005 74.6565 170.362 74.667C170.693 74.667 171.154 74.667 171.364 74.5787H171.515C171.448 74.5692 171.381 74.5692 171.314 74.5787C169.438 74.5235 167.565 74.7552 165.761 75.2654C166.923 75.2465 168.083 75.1448 169.229 74.9613C169.229 74.9613 169.27 74.8043 169.3 74.7651Z" fill="black"/>
<path d="M171.886 75.3929L172.076 75.3439L172.387 75.1869L172.978 74.9613C173.098 74.9613 173.098 74.8926 173.108 74.8828C173.118 74.873 173.108 74.8828 173.028 74.8828C172.435 74.926 171.851 75.0515 171.294 75.2556C171.364 75.3243 171.364 75.3243 171.034 75.5499C171.104 75.5499 171.886 75.3929 171.886 75.3929Z" fill="black"/>
<path d="M164.108 77.7178C164.051 77.7077 163.994 77.7077 163.937 77.7178C163.781 77.7034 163.623 77.7034 163.466 77.7178C162.913 77.7968 162.369 77.9282 161.843 78.1102C162.499 78.1259 163.156 78.0633 163.797 77.9238C164.007 77.8748 164.218 77.8061 164.108 77.7178Z" fill="black"/>
<path d="M164.328 80.5921C164.278 80.5332 164.238 80.4744 163.897 80.4057H163.697L161.973 80.1605C160.741 80.1136 159.51 80.2763 158.335 80.6411C158.485 80.7588 158.705 80.7294 158.836 80.8962C158.966 81.0629 158.916 81.2591 158.836 81.318C158.062 81.6241 157.265 81.8669 156.45 82.0439C156.26 82.0439 156.24 82.0439 156.15 82.0439C156.15 81.6123 156.741 81.6417 156.881 81.2984C156.144 81.2933 155.416 81.458 154.756 81.7791C154.72 81.817 154.695 81.8648 154.686 81.9164C154.686 82.2401 154.686 82.5638 154.686 82.8974C154.711 83.027 154.711 83.1601 154.686 83.2897C154.606 83.5154 154.386 83.6723 154.345 83.9176C154.335 83.9595 154.335 84.0032 154.345 84.0451C154.606 84.6042 158.936 83.7704 160.259 83.1426C160.55 83.0053 161.612 82.0047 161.191 81.8771C160.736 81.7889 160.272 81.7494 159.808 81.7594C160.81 81.5044 161.923 81.4455 162.965 81.1807C163.43 81.0085 163.885 80.812 164.328 80.5921Z" fill="black"/>
<path d="M154.085 76.9036C155.889 76.7565 157.593 76.1286 159.387 75.9226C158.709 76.0355 158.039 76.1928 157.382 76.3935L163.667 75.2752C163.859 75.2475 164.044 75.1807 164.208 75.079C164.139 75.0591 164.066 75.0591 163.998 75.079C162.705 75.1771 153.884 76.5308 151.85 77.2568C152.682 77.4333 153.393 76.9723 154.175 76.884L154.085 76.9036Z" fill="black"/>
<path d="M150.216 87.7139H150.136C149.991 87.717 149.848 87.7469 149.715 87.8022C148.893 88.1779 148.05 88.5055 147.189 88.7832C145.696 89.0971 145.245 89.1952 145.124 89.3521C145.004 89.5091 145.124 89.3521 145.124 89.3521C145.288 89.4138 145.46 89.4502 145.635 89.4601C146.137 89.5189 146.197 89.5385 146.257 89.6366C146.317 89.7347 146.257 90.0486 146.447 90.1958C146.692 90.2869 146.948 90.3462 147.209 90.3724C148.363 90.6198 149.564 90.545 150.677 90.1565C151.008 89.9603 150.807 88.6949 150.807 88.6851C150.719 88.3088 150.512 87.9691 150.216 87.7139Z" fill="black"/>
<path d="M156.37 79.974C156.25 79.9213 156.121 79.8946 155.989 79.8955C155.169 79.8267 154.344 79.9652 153.594 80.2977C153.704 80.2977 153.834 80.2977 153.935 80.4057C154.035 80.5136 153.935 80.5038 153.744 80.6901C153.554 80.8765 153.323 81.1021 153.574 81.112C154.288 80.9816 154.984 80.7709 155.648 80.4841C156.37 80.2291 156.561 80.0623 156.37 79.974Z" fill="black"/>
<path d="M267.825 112.366C267.274 110.727 265.991 109.423 265.48 107.794C265.159 106.735 265.56 105.666 265.48 104.606C265.359 103.37 265.68 103.154 266.482 102.762C267.635 102.213 267.174 101.673 265.791 100.064C261.28 94.8259 261.26 94.7278 261.04 93.8155L261.22 93.6193H261.611C260.518 91.4514 256.69 91.5495 256.97 88.2534L256.499 87.7826C256.583 87.6362 256.677 87.4953 256.78 87.3608H257.03C256.329 87.0076 254.214 86.1345 254.194 86.1149C252.994 85.6691 251.752 85.3405 250.485 85.134C249.162 84.928 248.391 83.7606 247.208 83.3094C245.544 82.6717 241.836 81.3474 240.342 80.955C237.566 80.1703 237.566 80.1703 237.175 80.2684C235.705 79.7744 234.192 79.4132 232.655 79.1893C232.655 79.1893 232.605 79.1893 232.574 79.1893C232.544 79.1893 232.574 79.1893 232.574 79.1893L232.665 79.2383C233.417 79.4892 234.139 79.8181 234.82 80.2193C234.669 80.2193 234.669 80.2193 232.745 79.4836C232.091 79.2356 231.421 79.0291 230.74 78.8656C226.474 77.8857 222.087 77.4993 217.71 77.7178C217.911 77.9337 217.911 77.9336 218.903 78.2672C217.821 78.9244 215.646 78.7675 214.473 78.6792C214.423 78.6792 208.459 78.3555 208.129 78.5811C205.933 80.0329 209.452 81.9458 209.502 81.9556C219.033 84.4865 219.114 84.6239 219.525 85.4086C219.525 85.4675 222.191 91.6476 219.865 93.7273C218.933 94.5709 218.913 94.6101 218.863 94.7082C218.773 95.2968 219.424 95.5715 219.454 96.1012C219.454 96.9056 218.903 97.6217 219.064 98.4555C220.387 98.5929 221.82 97.6806 223.073 98.8185C225.178 100.78 223.323 102.33 223.293 102.34C221.85 103.174 220.006 102.477 218.602 103.498C217.51 104.473 216.8 105.792 216.598 107.225C216.598 107.843 219.515 122.372 222.612 124.716C230.73 129.346 230.991 129.209 231.763 128.787C233.046 128.091 237.406 120.851 237.446 120.782C238.087 119.713 237.907 118.291 238.969 117.408C239.53 116.957 239.57 116.957 241.976 117.055C249.553 117.378 249.553 117.378 250.195 116.172C250.836 114.965 251.197 114.21 252.66 114.043C256.189 113.592 259.676 114.563 263.225 114.043C264.679 113.969 266.125 113.795 267.555 113.523C267.555 113.523 268.206 113.494 267.825 112.366Z" fill="black"/>
<path d="M177.669 96.9056C178.361 96.1012 178.35 95.6303 177.669 95.5028C177.669 95.5028 175.484 95.336 174.802 96.0718C174.422 96.5034 174.802 98.0337 175.043 98.3868C175.654 99.1716 177.649 96.9252 177.669 96.9056Z" fill="black"/>
<path d="M201.604 74.3139C201.103 74.3139 200.601 74.3139 200.09 74.3139C201.634 74.4708 206.675 74.824 207.487 74.873C204.5 74.8834 201.516 74.7295 198.547 74.412C198.152 74.3304 197.741 74.361 197.364 74.5002C197.09 75.005 196.672 75.4208 196.161 75.697C194.938 74.8142 190.649 75.6185 190.468 75.697C190.729 75.9423 191.12 76.0207 191.36 76.3052C191.324 76.3453 191.29 76.3879 191.26 76.4328C192.041 76.5893 192.842 76.629 193.635 76.5505C190.508 77.041 190.328 76.6093 190.208 76.315C188.203 75.6872 187.822 76.3837 187.642 76.7172C186.248 77.0606 184.755 76.6289 183.402 77.2568C183.423 77.3109 183.44 77.3667 183.452 77.4235C184.34 77.717 185.263 77.8951 186.198 77.9533C187.832 78.1789 189.566 77.5903 191.12 78.5222C190.889 78.7675 190.889 78.7675 190.448 78.9146C191.45 79.513 195.67 79.0421 195.66 78.071L195.289 77.8355C196.531 77.3682 197.833 77.0743 199.158 76.9625C202.626 77.3058 204.17 76.521 204.29 76.266L204.149 76.1581C207.377 76.4131 208.85 76.5308 209.983 76.2562C209.738 76.1512 209.477 76.0881 209.211 76.0698L217.019 76.3543C215.205 76.0011 215.095 75.9717 214.433 75.7951C216.237 75.9325 218.021 76.2758 219.835 76.4328C218.232 75.8834 215.435 75.285 215.415 75.285C215.395 75.285 208.53 74.1275 206.966 74.1765C206.996 74.2895 207.059 74.3917 207.146 74.4708C206.723 74.4635 206.308 74.3486 205.944 74.1373C205.503 73.9215 199.499 73.3329 198.697 73.8038C198.928 74.0588 198.988 74.1079 201.604 74.3139Z" fill="black"/>
<path d="M171.845 76.3249C171.655 76.4524 171.505 76.6388 171.304 76.7467C170.931 76.9456 170.534 77.0972 170.122 77.1979L170.542 76.7271C170.614 76.6572 170.674 76.578 170.723 76.4916C170.239 76.3734 169.728 76.4474 169.3 76.6976C169.365 76.7231 169.432 76.7428 169.5 76.7565C169.502 76.7761 169.502 76.7958 169.5 76.8154C168.622 76.9867 167.729 77.0754 166.834 77.0802C166.924 77.1783 167.085 77.0802 167.185 77.1979C167.024 77.3549 167.024 77.3549 167.014 77.3941C167.004 77.4334 167.135 77.4824 169.51 77.5217C168.708 77.659 166.563 78.0121 166.273 78.3947C166.273 78.3947 168.999 78.3947 169.37 78.2966C170.061 78.1149 170.732 77.8685 171.374 77.5609C171.376 77.6371 171.347 77.711 171.294 77.7669C172.126 77.4039 172.126 77.4039 174.251 76.6388C174.453 76.5867 174.646 76.504 174.822 76.3935C174.755 76.337 174.67 76.3057 174.582 76.3053C174.582 76.3053 172.216 76.1875 171.956 76.2464L171.845 76.3249Z" fill="black"/>
<path d="M189.165 101.026C190.167 101.29 191.41 104.734 191.42 104.773C191.701 105.617 192.002 106.49 192.523 106.568C193.986 106.784 197.865 102.37 197.905 102.33C198.031 102.176 198.127 102 198.186 101.81L188.975 96.1502C190.111 95.8613 191.279 95.713 192.453 95.7088C193.675 95.6107 194.277 95.5616 194.337 95.2771C194.507 94.5512 192.162 90.078 190.558 89.2246C189.837 88.842 188.955 88.7929 188.353 88.2436C187.752 87.6943 188.243 86.3994 187.211 85.9481C186.178 85.4969 183.873 85.5852 182.129 85.6244C180.385 85.6637 180.345 85.6244 180.124 85.5557C180.124 85.2713 180.124 84.977 180.796 82.7207C179.767 82.2393 178.662 81.9309 177.528 81.8084C174.271 81.4749 162.644 85.7323 163.927 87.4588C165.21 89.1853 171.374 89.9799 172.276 89.8818C172.337 89.3717 172.377 89.0284 174.983 89.6268C177.198 90.1369 177.689 89.7347 177.989 89.4698C178.514 90.1273 178.993 90.8189 179.423 91.5397C179.884 92.5206 179.824 93.7076 180.215 94.7474C180.716 96.0521 182.74 96.6309 182.099 98.4849C182.099 98.4849 180.154 102.536 173.619 102.242C171.615 102.154 169.771 101.389 167.776 101.693C167.423 101.791 167.113 102.001 166.895 102.29C166.677 102.58 166.564 102.932 166.573 103.292C166.794 103.694 167.796 104.175 171.284 104.214C173.94 104.214 173.94 104.214 177.518 107.52C177.047 107.755 177.047 107.755 175.123 107.794C175.764 108.922 182.47 112.876 184.234 112.581C184.234 112.346 184.234 112.346 183.943 112.042C183.783 111.885 183.783 111.885 181.618 107.843C184.033 108.971 184.715 109.56 185.797 110.992C186.008 111.277 186.158 111.483 186.319 111.483C187.211 111.483 189.616 109.011 189.205 108.128C188.313 106.215 185.637 105.509 185.637 102.997C185.597 100.908 189.135 101.016 189.165 101.026Z" fill="black"/>
<path d="M161.472 75.8442C161.898 75.9141 162.335 75.8804 162.745 75.7461C162.862 75.7276 162.977 75.6946 163.085 75.648H163.005C162.488 75.6569 161.974 75.7227 161.472 75.8442Z" fill="black"/>
<path d="M213.651 102.752L215.285 102.978C215.535 102.958 215.77 102.858 215.956 102.693C216.002 102.634 216.032 102.564 216.044 102.491C216.057 102.417 216.051 102.342 216.027 102.272C215.966 102.007 215.716 101.84 215.626 101.585C215.583 101.474 215.583 101.352 215.626 101.241C215.631 101.231 215.634 101.219 215.634 101.207C215.634 101.195 215.631 101.184 215.626 101.173C215.429 100.994 215.18 100.881 214.914 100.849C214.172 100.761 211.827 101.202 212.659 102.203C212.911 102.497 213.263 102.692 213.651 102.752Z" fill="black"/>
<path d="M186.75 84.9083C185.754 83.9263 184.491 83.2453 183.111 82.9464C181.648 82.6914 181.758 83.7508 181.989 84.1236C182.771 85.3204 186.71 84.9182 186.75 84.9083Z" fill="black"/>
<path d="M178.521 74.206C178.014 74.2088 177.508 74.2482 177.007 74.3237H177.228C177.71 74.3442 178.185 74.4471 178.631 74.6278C178.491 74.8436 178.16 74.7259 178.02 74.9515C178.07 75.0888 179.383 75.03 179.473 75.0202C180.304 74.8384 181.093 74.5057 181.798 74.0392C181.648 73.9215 181.447 74.0392 181.277 73.9607C181.538 73.7253 181.899 73.8724 182.179 73.7057C182.179 73.7057 182.179 73.7057 182.049 73.7057C180.899 73.6875 179.75 73.7564 178.611 73.9117C178.852 74.0784 179.152 73.9705 179.413 74.0784C179.423 74.1569 179.242 74.1863 178.521 74.206Z" fill="black"/>
<path d="M170.482 78.4535C170.121 78.5614 170.001 78.5909 170.342 79.0127C170.701 79.2338 171.114 79.3583 171.538 79.3738C171.962 79.3893 172.382 79.2952 172.758 79.101C173.379 78.8655 174.692 78.2181 174.261 78.0219C174.198 78.0117 174.134 78.0117 174.071 78.0219C172.865 78.0726 171.665 78.217 170.482 78.4535Z" fill="black"/>
<path d="M186.148 75.9325H186.038H185.938C185.246 75.9325 184.565 75.9325 183.933 75.9325C183.302 75.9325 182.36 75.7853 181.578 75.7559C181.244 75.7286 180.909 75.7286 180.575 75.7559C181.752 76.0457 182.953 76.2328 184.164 76.315C184.791 76.3685 185.423 76.2916 186.018 76.0894L186.148 75.9325Z" fill="black"/>
<path d="M180.605 75.2262C180.836 75.2262 183.282 75.1379 183.993 75.0692C184.314 75.0692 184.384 75.0006 184.434 74.8927C184.484 74.7847 184.254 74.7553 184.294 74.6278C184.334 74.5003 184.374 74.5199 184.354 74.4414C184.334 74.3629 184.354 74.4414 184.354 74.4414C184.34 74.4059 184.316 74.3753 184.284 74.3531C184.243 74.3231 184.196 74.3015 184.146 74.2897C184.096 74.2779 184.044 74.2761 183.993 74.2845C183.861 74.2898 183.73 74.3095 183.602 74.3433C183.061 74.6146 182.484 74.8126 181.888 74.9319C181.127 74.9417 180.856 74.9515 180.605 75.2262Z" fill="black"/>
<path d="M186.679 73.7939C188.443 73.5781 188.464 73.5683 188.494 73.5291C188.44 73.5244 188.387 73.5244 188.333 73.5291C188.333 73.5291 186.639 73.5291 186.128 73.5291C185.617 73.5291 185.647 73.8332 185.647 73.8332C185.647 73.8332 186.148 73.8822 186.679 73.7939Z" fill="black"/>
<path d="M190.167 74.2255C190.889 74.2255 191.1 74.2746 191.29 74.4315C191.292 74.4544 191.292 74.4774 191.29 74.5002C190.897 74.5446 190.5 74.5446 190.107 74.5002C189.247 74.4237 188.382 74.4237 187.521 74.5002C187.05 74.5983 186.85 75.0397 186.99 75.1673C187.13 75.2948 186.99 75.1673 188.253 75.2752C188.744 75.2752 189.185 75.5695 189.676 75.5597C190.889 75.5597 192.052 75.1771 193.254 75.0888C194.006 75.0299 194.748 75.1869 195.49 75.0888L195.66 75.0398C195.66 75.0398 195.66 75.0398 195.209 74.7258C195.338 74.6999 195.468 74.6835 195.6 74.6768C196.602 74.5787 196.602 74.5395 196.702 74.461C196.803 74.3825 196.492 74.3923 196.432 74.2942C196.642 74.1569 196.993 74.2157 197.043 73.8724C197.314 73.7154 197.645 73.7449 197.905 73.5683L197.715 73.4996C195.69 73.4179 193.662 73.4507 191.641 73.5977C191.843 73.6717 192.056 73.7115 192.272 73.7154C191.735 73.8086 191.186 73.8086 190.649 73.7154C189.924 73.6172 189.186 73.7262 188.524 74.0294C189.064 74.1479 189.614 74.2136 190.167 74.2255Z" fill="black"/>
<path d="M174.231 79.768C174.331 79.768 185.617 82.4461 189.516 80.6411C190.578 80.1506 188.684 79.3756 188.664 79.3658C187.662 78.9931 182.179 78.9636 181.016 79.0225C179.854 79.0814 179.573 78.0415 179.844 77.8453C179.954 77.7767 180.124 77.7865 180.485 77.8453C182.43 77.9631 181.748 77.1194 181.568 77.0409C181.106 76.9478 180.636 76.8985 180.165 76.8938C179.623 76.7761 179.162 76.4131 178.661 76.2954C178.312 76.2104 177.957 76.1514 177.599 76.1188C177.023 76.2555 176.492 76.5322 176.055 76.9232C176.29 77.0008 176.539 77.0309 176.787 77.0115C177.259 76.9633 177.737 77.01 178.19 77.1489C178.401 77.4235 177.138 78.2083 177.077 78.2377C176.376 78.5418 175.564 78.4634 174.882 78.8361C173.539 79.5817 173.92 79.7092 174.231 79.768Z" fill="black"/>
<path d="M155.999 76.7271C155.598 76.7859 152.241 77.4137 152.04 77.5413C152.191 77.5805 152.361 77.6295 155.999 76.7271Z" fill="black"/>
<path d="M136.184 82.7894V82.8581C136.253 82.8727 136.325 82.8727 136.394 82.8581C137.497 82.5638 138.539 82.0832 139.642 81.7791C141.646 81.2395 143.651 80.9256 145.655 80.337C146.117 80.1997 146.117 80.1997 146.888 79.5032C146.888 79.5032 146.888 79.4247 146.888 79.3953C146.307 79.3961 145.729 79.4821 145.174 79.6503C145.706 79.4345 145.706 79.4345 145.866 79.1795V79.1304H145.655C143.39 79.258 143.39 79.258 132.185 83.2701C131.107 83.5846 130.13 84.1658 129.348 84.9574L129.418 85.0162C131.844 84.7612 133.929 83.5154 136.184 82.7894Z" fill="black"/>
<path d="M151.278 78.9048C151.899 78.9304 152.52 78.8676 153.122 78.7184C154.714 78.4208 156.32 78.2015 157.934 78.0612C158.917 78.0858 159.9 78.0563 160.88 77.9729C161.662 77.865 164.759 76.9919 164.789 76.9919C165.391 76.835 165.441 76.7859 165.531 76.7172C165.263 76.6292 164.978 76.6056 164.699 76.6486C163.787 76.8153 162.925 77.1685 162.013 77.3352C163.276 76.7467 164.639 76.3543 165.892 75.7755H165.781C165.781 75.7755 162.073 76.2758 161.832 76.6682C161.592 77.0606 160.95 77.5903 158.375 77.3156V77.247C158.454 77.1938 158.537 77.1478 158.625 77.1096H158.715C159.156 76.8742 160.339 77.041 160.058 76.3935C159.988 76.3935 152.551 77.2077 152.18 78.0514C153.414 77.9322 154.639 77.7389 155.849 77.4726C155.335 77.757 154.77 77.9434 154.185 78.0219C154.255 78.0219 154.275 78.0219 155.187 77.9238C155.701 77.8425 156.221 77.8064 156.741 77.8159C155.086 78.1536 153.413 78.396 151.729 78.5418C151.138 78.532 151.038 78.7871 151.278 78.9048Z" fill="black"/>
<path d="M128.035 88.2436C128.456 88.5183 128.957 88.2436 129.388 88.4104V88.5085C128.997 88.9794 128.386 89.1069 127.915 89.4895C130.827 89.5287 133.726 89.0978 136.495 88.2142C137.098 87.9496 137.741 87.7807 138.399 87.7139L138.469 87.8022C138.325 87.9115 138.194 88.0365 138.078 88.175C138.585 88.6195 139.136 89.0138 139.722 89.3521C141.436 89.3521 141.436 89.3521 143.501 88.2534L143.601 88.1946C143.46 88.1063 143.46 88.1063 141.777 88.3613C142.234 88.0336 142.759 87.8076 143.314 87.6991C143.87 87.5907 144.443 87.6024 144.994 87.7335C145.355 87.8807 145.435 87.8807 145.605 87.8316C145.605 87.8316 146.608 87.4098 146.728 86.7427C146.086 86.0168 146.066 85.0359 146.728 84.6729C147.389 84.3099 151.97 81.524 152.02 81.1807C151.886 81.0613 151.742 80.953 151.589 80.8569C151.589 80.7981 151.589 80.7294 151.589 80.6804H151.539C149.534 81.4259 147.891 82.8287 145.756 83.2113C145.846 82.4363 146.678 82.4657 147.079 82.0243C147.049 81.9762 147.015 81.9303 146.979 81.887C146.197 82.0213 145.406 82.0967 144.613 82.1126C144.944 81.8673 145.375 81.7889 145.676 81.4946C145.655 81.4639 145.638 81.431 145.625 81.3965C144.533 81.3474 143.511 81.8477 142.428 81.8771C143.31 81.2788 144.433 81.2591 145.335 80.7785C144.713 80.6313 135.121 82.8875 134.981 83.8783C135.066 83.9622 135.146 84.0506 135.222 84.1432C134.981 84.3394 134.971 84.3394 133.848 84.5748C131.964 84.9574 131.844 85.1143 131.754 85.34C131.83 85.4081 131.923 85.4555 132.024 85.4773C132.956 85.6048 133.869 85.2811 134.801 85.389C135.452 85.4675 135.973 85.9384 136.635 86.0168C135.436 86.3428 134.188 86.4622 132.946 86.37C128.406 86.1836 127.374 87.8218 128.035 88.2436Z" fill="black"/>
<path d="M159.988 110.178C160.249 109.884 159.888 109.776 159.597 109.727C159.035 109.622 158.457 109.642 157.904 109.786C157.67 109.919 157.483 110.119 157.37 110.36C157.257 110.6 157.223 110.869 157.272 111.13C157.583 111.63 159.648 110.58 159.988 110.178Z" fill="black"/>
<path d="M160.219 104.292C160.345 104.281 160.466 104.237 160.57 104.165C160.66 104.029 160.714 103.874 160.728 103.714C160.742 103.553 160.715 103.391 160.65 103.243C160.48 102.919 160.179 102.664 160.028 102.321C159.866 101.701 159.655 101.094 159.397 100.506C159.336 100.417 159.269 100.331 159.197 100.251C158.816 99.7798 158.194 99.6229 157.793 99.152C157.553 98.8577 157.693 98.4261 157.443 98.171C157.397 98.1545 157.347 98.1545 157.302 98.171C156.283 98.6349 155.316 99.2003 154.416 99.8583C154.115 100.064 153.744 100.349 153.413 100.574L150.807 102.634C151.81 103.056 151.81 103.056 151.669 103.615C151.549 104.273 151.549 104.273 151.669 104.282C152.082 104.233 152.482 104.114 152.852 103.929C154.186 103.317 155.672 103.095 157.132 103.292C158.224 103.409 159.046 104.292 160.219 104.292Z" fill="black"/>
<path d="M155.618 107.539C154.532 107.382 153.428 107.382 152.341 107.539C151.8 107.716 151.409 108.599 151.579 108.844C151.92 109.334 155.248 108.677 156.019 108.108C156.26 107.932 156.37 107.677 155.618 107.539Z" fill="black"/>
<path d="M97.9163 226.786C96.914 226.786 96.9842 228.277 97.4352 228.63C97.8863 228.983 99.7606 230.023 100.041 229.121C100.242 228.581 99.099 226.913 97.9163 226.786Z" fill="black"/>
<path d="M279.101 132.171C279.101 132.171 279.151 132.054 279.161 131.995C279.024 131.391 278.711 130.838 278.259 130.406L277.958 130.17C277.126 129.611 276.064 129.493 275.292 128.826C274.741 128.346 274.49 127.561 273.709 127.335C272.706 127.247 271.784 127.335 270.832 127.218C269.88 127.1 269.018 126.756 268.076 126.747C267.474 126.747 267.625 127.531 267.124 127.62C266.622 127.708 266.282 127.08 265.73 127.178L265.45 127.237C265.019 127.924 265.39 129.013 264.327 129.376C263.608 128.426 263.034 127.378 262.623 126.266C262.383 124.677 259.616 122.784 258.524 123.156C258.524 123.931 259.416 124.069 259.616 124.696C259.025 125.599 257.882 125.03 257.151 125.569C257.691 125.903 258.308 126.099 258.945 126.138C259.947 126.305 262.603 128.355 260.438 129.14C260.849 130.249 262.072 129.837 262.794 130.347C263.515 130.857 263.455 131.181 263.205 131.907C263.345 132.142 263.485 132.27 265.209 132.682C265.848 132.8 266.475 132.97 267.083 133.192C267.875 133.525 268.507 134.173 269.289 134.457L269.619 134.585C270.639 134.841 271.684 134.993 272.736 135.036C274.942 135.252 278.81 134.124 278.891 133.427C278.941 132.976 278.67 132.574 278.69 132.122C278.85 132.073 278.85 132.073 279.101 132.171Z" fill="black"/>
<path d="M101.935 224.186C102.407 225.619 107.819 227.924 108.14 227.335C108.31 227.002 104.131 216.545 104.02 216.466C103.469 215.721 101.795 213.464 97.4151 212.866C95.7835 212.846 94.1677 213.181 92.6843 213.847C92.8748 214.229 94.6889 214.573 96.4429 214.259C98.9186 213.817 100.051 214.936 100.061 215.338C99.8708 215.505 99.4899 215.691 98.9687 215.103C98.9359 215.094 98.9013 215.094 98.8685 215.103C98.6079 216.084 100.111 217.064 101.104 217.712C102.938 218.899 102.918 219.37 102.888 220.753C102.831 221.353 102.906 221.959 103.108 222.528C103.257 222.835 103.333 223.17 103.329 223.509C103.138 224.235 102.387 223.971 101.935 224.186Z" fill="black"/>
<path d="M108.38 233.878C108.841 234.388 108.009 235.271 108.801 235.634C110.164 236.262 110.675 234.33 111.938 234.653C112.172 234.726 112.394 234.828 112.6 234.957C114.471 235.896 116.396 236.731 118.363 237.459C118.553 237.459 118.684 237.459 118.754 237.341C119.015 236.733 118.674 236.036 119.065 235.458C120.297 233.653 110.275 229.228 109.583 229.111C109.486 229.076 109.379 229.076 109.282 229.111C109.222 229.258 109.222 229.258 109.282 229.454C109.607 229.967 109.767 230.564 109.742 231.167C109.717 231.771 109.508 232.353 109.142 232.838C108.881 232.927 108.14 232.515 107.047 231.946C105.043 230.896 104.842 230.896 104.712 230.886C104.706 230.932 104.706 230.978 104.712 231.024C105.794 232.211 107.348 232.731 108.38 233.878Z" fill="black"/>
<path d="M171.685 146.533C170.683 146.533 172.357 148.21 172.687 148.544C174.912 150.682 176.316 149.682 176.326 149.672C176.927 149.073 172.707 146.709 171.685 146.533Z" fill="black"/>
<path d="M80.7671 112.737L80.8561 112.67L80.7671 112.737Z" fill="black"/>
<path d="M59.8893 135.114C46.7191 150.81 37.6885 173.372 37.6885 173.372V177.865C38.0593 178.071 38.0593 178.071 39.9236 193.678C39.4425 193.521 38.8111 193.325 38.33 193.188C38.5404 195.15 41.7478 204.538 41.7778 204.626C42.5797 204.037 43.4216 203.439 42.0685 198.74C41.4471 196.611 40.7555 194.208 41.7578 184.084C43.9428 187.194 43.7624 188.685 43.5319 190.549C43.2871 191.843 43.2499 193.167 43.4216 194.473C43.9528 196.758 44.8148 198.946 45.4262 201.212C46.238 204.155 48.5834 206.431 49.0345 209.501C49.4053 211.973 47.8618 214.592 49.5957 216.966C49.8941 217.309 50.2303 217.618 50.598 217.889C51.1804 218.456 51.7927 218.993 52.4322 219.497C54.5872 220.91 56.8824 222.116 59.0574 223.5C61.2324 224.883 64.3696 224.432 66.2739 226.58C70.6439 231.485 70.6439 231.485 72.4881 232.368L73.4102 232.809C81.5689 236.939 81.4286 248.563 90.9103 251.447C97.5455 246.052 97.1847 255.136 96.7336 259.295C96.5833 260.61 96.5833 260.61 92.4137 264.857C92.3536 264.936 86.8109 273.254 87.1818 275.295C87.1818 275.628 87.302 276.07 87.3822 276.403C88.8656 281.936 97.1245 298.544 97.1947 298.662C99.3496 302.34 103.329 304.371 105.764 307.785C107.619 310.384 108.25 314.455 107.528 319.242C107.528 319.458 104.712 342.423 108.982 356.96C114.394 375.393 125.339 377.316 125.439 377.325C117.271 368.869 117.271 368.869 119.696 365.053C118.834 363.092 118.834 363.092 118.694 355.175C119.145 355.175 119.145 355.175 121.009 355.901C121.059 355.695 121.059 355.695 119.897 351.83C122.182 350.918 122.192 350.908 122.493 349.662L122.974 349.495C125.77 351.565 127.735 349.387 127.344 347.955L126.883 346.395C133.989 348.632 142.919 332.976 143.06 332.819C144.834 331.033 147.941 330.69 149.194 330.621C152.06 330.465 153.123 327.6 155.458 326.639C155.825 326.468 156.229 326.385 156.636 326.399C157.042 326.413 157.439 326.522 157.793 326.717C158.796 327.198 158.856 327.237 159.337 326.335C160.339 324.373 160.931 322.166 161.783 320.105C162.264 318.958 161.993 317.506 163.196 316.643C164.589 315.662 165.1 315.259 164.769 314.161C164.703 313.935 164.676 313.699 164.689 313.464C171.334 313.396 175.714 307.863 175.714 307.804C175.75 307.729 175.777 307.65 175.795 307.569C175.915 306.833 175.524 306.136 175.634 305.391C175.805 304.292 177.739 303.351 176.637 302.232C175.855 301.428 174.632 301.791 173.79 301.251C170.944 299.544 169.871 296.239 167.245 294.335C163.336 291.5 159.076 289.185 155.027 286.566C152.782 284.751 153.594 281.75 152.602 279.533C150.517 276.864 149.494 273.362 147.229 270.802C144.222 267.457 139.441 266.594 136.555 263.15C134.27 260.423 133.368 256.823 130.772 254.322C130.348 253.915 129.869 253.569 129.348 253.292C115.066 245.885 103.78 240.029 98.2772 251.271C94.9195 246.621 81.6491 247.592 85.3175 240.686C86.6645 238.203 87.1699 235.366 86.7608 232.583C83.8942 229.641 79.7448 230.229 76.2568 228.787C78.7725 225.413 78.7725 225.413 78.552 223.362C80.3802 221.667 81.8959 219.676 83.0323 217.477C82.5712 216.672 78.3616 210.011 72.448 222.568C70.4435 221.744 68.1683 224.078 66.314 221.979C61.9741 217.074 61.513 212.562 61.6233 210.306C61.7636 207.529 64.6301 206.303 65.432 203.9C65.9432 202.37 64.119 200.908 65.2917 199.358C66.8051 197.396 72.5683 194.581 73.8312 194.169C76.0964 193.443 82.4409 197.337 82.491 197.376L83.2828 197.092C82.9621 196.346 82.2805 195.876 81.8195 195.208L82.2505 194.522C83.9043 194.218 95.2001 197.053 95.2803 197.092C99.0991 201.153 93.9172 206.627 97.5054 210.727C104.782 207.068 98.0065 199.27 100.923 194.051C103.93 188.675 110.275 189.352 114.845 186.821H114.765C114.675 186.605 114.564 186.331 114.474 186.125L114.805 185.458H115.557C115.677 185.222 115.827 184.899 115.938 184.663L115.356 184.182L120.197 174.078C119.726 175.658 118.032 180.376 118.022 180.386C118.644 180.239 118.644 180.239 121.57 173.519C121.856 174.359 122.015 175.234 122.042 176.119C123.585 174.834 124.046 172.607 126.051 171.704C126.051 171.704 133.608 170.498 134.069 170.724C136.595 165.505 136.595 165.505 140.714 163.739C141.225 163.945 141.225 163.945 152.06 161.934L151.529 162.454C151.976 162.826 152.485 163.121 153.033 163.327L152.762 164.092C146.257 165.917 146.257 165.917 145.806 166.947C149.314 168.222 162.384 165.779 162.163 160.325C160.319 160.796 159.618 162.572 158.244 163.582C157.242 162.866 156.35 162.287 155.648 161.787C156.269 161.804 156.878 161.621 157.382 161.267C157.322 161.267 157.292 161.218 157.082 161.179C156.189 161.074 155.352 160.7 154.686 160.109C154.453 159.926 154.295 159.666 154.241 159.378C154.188 159.089 154.243 158.792 154.396 158.54C154.496 158.334 154.466 158.304 154.446 158.275C154.182 158.532 153.973 158.838 153.832 159.175C153.691 159.512 153.62 159.873 153.624 160.237C152.491 159.148 152.501 158.393 152.551 156.607C151.439 155.715 151.399 155.626 151.088 154.744C153.173 154.891 154.676 154.999 155.759 153.272C155.117 151.987 155.117 151.987 138.569 155.636C151.319 149.338 151.319 149.338 161.933 149.75C163.597 151.958 175.103 150.574 177.559 148.426C177.499 147.102 177.499 147.102 178.812 145.64L178.691 144.865C177.94 144.414 177.198 143.963 176.436 143.521L175.745 143.276C175.253 143.158 173.74 142.805 170.603 143.56C170.603 143.345 170.603 143.05 170.533 142.825C171.715 142.001 172.136 141.991 175.434 141.893C175.634 141.883 175.829 141.829 176.005 141.736C176.256 141.442 174.672 138.793 171.565 138.508C170.863 138.45 170.863 138.45 170.563 138.224C170.563 137.616 171.224 137.174 171.014 136.517C170.723 135.634 169.59 135.448 169.31 134.555C169.2 134.182 169.45 133.967 170.082 133.574C171.014 132.937 171.014 132.937 170.503 130.072C169.21 122.842 169.21 122.842 166.393 125.422C165.952 125.825 166.393 126.56 165.822 126.904C165.25 127.247 164.419 126.462 163.717 126.904C162.123 127.973 162.123 127.973 161.783 127.963C159.708 127.875 158.936 125.932 157.433 125.02C157.322 124.422 159.146 121.361 160.439 120.92C159.588 120.282 158.435 120.39 157.583 119.713C157.392 119.556 157.302 119.36 157.182 118.732C157.182 118.536 157.052 118.055 154.967 116.486C154.686 116.236 154.339 116.069 153.965 116.005C151.599 115.828 149.454 114.563 147.039 114.7C146.708 116.79 143.621 117.702 144.553 120.321C143.882 121.175 142.549 121.057 142.017 122.166C141.466 123.441 142.549 124.667 142.138 125.942C142.138 125.991 140.414 131.073 137.186 130.729C136.485 130.651 134.841 130.602 134.771 131.779C134.443 131.976 134.084 132.118 133.708 132.201C131.864 134.859 132.516 139.195 128.276 140.333C127.785 138.371 126.051 137.253 124.938 135.713C126.572 133.682 126.522 132.77 126.462 131.514L127.544 131.132C127.544 131.004 127.684 130.759 127.695 130.621C127.419 130.489 127.134 130.374 126.843 130.278C125.92 128.463 123.786 129.081 122.422 128.169C121.059 127.257 120.789 125.432 119.506 124.422C119.256 124.233 118.995 124.059 118.724 123.902C117.451 123.225 116.148 123.902 114.865 123.784C114.574 123.323 114.574 123.323 115.146 120.135C115.336 119.026 115.336 119.026 112.881 117.967C113.452 114.573 123.505 111.522 127.795 110.217C127.795 109.06 126.462 109.128 125.991 108.393C133.007 109.521 133.007 109.521 138.209 106.882C135.482 106.441 134.921 106.352 133.257 104.479C136.034 104.479 138.67 107.068 141.546 104.891C141.38 104.677 141.163 104.505 140.915 104.39C140.915 104.39 142.669 103.351 143.671 104.596C148.512 104.596 148.512 104.596 149.986 103.969C150.345 103.83 150.683 103.642 150.988 103.409C151.72 102.801 151.248 101.722 151.99 101.104C152.732 100.486 153.514 100.908 154.205 100.555C154.606 100.31 154.817 99.8779 155.207 99.5738C155.207 99.5738 152.862 94.669 149.805 99.3678C147.129 99.8583 143.701 104.41 141.837 101.114C142.649 99.6229 146.257 99.7308 145.295 97.6511C143.35 97.6511 142.047 99.152 140.374 99.8093C140.374 98.8283 142.939 97.2195 142.959 97.2097C142.453 96.9374 141.919 96.7171 141.366 96.5524C145.545 93.2662 145.545 93.2662 145.726 92.7561L145.425 92.3245C147.78 90.5489 147.78 90.5489 156.35 88.8911C155.944 88.6798 155.496 88.5592 155.037 88.5379C148.883 87.8807 137.437 95.6892 137.347 95.7677C137.256 95.8461 137.347 96.0816 137.347 96.2189C137.948 96.4249 138.589 96.5034 139.211 96.6702C139.211 96.7879 139.211 96.9448 139.211 97.0724C138.35 97.0974 137.502 97.2874 136.715 97.6315L136.595 97.9258L136.936 98.1318C134.991 99.7504 132.095 99.5444 130.29 101.447C129.709 100.182 129.709 100.182 132.095 98.9656C131.182 98.377 131.182 98.377 127.083 99.7602C126.863 99.8289 125.54 100.133 121.601 98.5732C121.48 98.1122 121.701 97.5923 121.601 97.1803C118.072 96.886 116.449 98.3967 113.211 101.398C113.211 100.349 114.294 99.8681 114.504 98.9362C112.66 98.6125 110.736 99.5248 108.932 98.5831C109.934 98.1024 111.337 98.2495 112.099 97.1607L111.868 96.8075C111.357 96.8958 111.277 96.9056 110.084 96.3464C110.003 96.0788 109.895 95.8193 109.763 95.5715C108.811 95.444 108.05 96.0129 107.188 96.2287C107.428 96.0222 107.682 95.8321 107.949 95.6598C107.383 95.8134 106.835 96.0272 106.316 96.2974C107.03 95.5871 107.86 94.9972 108.771 94.5513L105.634 95.4636C105.634 95.4636 90.3089 104.93 84.1348 110.296C75.3145 117.86 67.2006 126.179 59.8893 135.154V135.114Z" fill="black"/>
<path d="M121.761 239.352C120.759 239.617 121.43 241.039 122.382 241.549C123.42 241.988 124.54 242.209 125.67 242.197C125.77 242.099 125.67 241.765 124.166 240.647C122.482 239.421 122.182 239.391 121.761 239.352Z" fill="black"/>
<path d="M295.088 174.677C295.609 174.559 296.09 174.382 296.651 174.314C297.212 174.245 297.914 174.677 298.525 174.255C298.866 174.02 299.037 173.274 299.027 171.979C299.014 171.45 298.926 170.925 298.766 170.419C298.635 170.154 298.6 169.853 298.668 169.566C298.735 169.279 298.901 169.023 299.137 168.84C299.504 168.502 299.736 168.046 299.788 167.555C299.815 166.989 299.626 166.433 299.257 165.995C299.101 165.796 298.934 165.606 298.756 165.426C298.305 164.995 297.754 164.671 297.313 164.249C297.117 164.09 296.963 163.889 296.862 163.66C296.862 163.592 296.862 163.582 296.771 163.572C296.681 163.562 292.762 163.199 294.576 165.161C294.699 165.313 294.862 165.429 295.047 165.495C294.925 165.537 294.797 165.561 294.667 165.564C293.758 165.597 292.867 165.818 292.051 166.211C291.824 166.315 291.628 166.473 291.48 166.67C291.331 166.867 291.234 167.097 291.199 167.339C291.197 167.543 291.24 167.745 291.324 167.931C291.409 168.117 291.534 168.283 291.69 168.418C292.101 168.703 292.541 168.947 293.003 169.144L292.903 169.252C292.065 170.15 291.332 171.138 290.718 172.195C290.267 172.999 290.166 173.421 290.327 173.872C290.617 174.618 293.023 175.167 295.088 174.677Z" fill="black"/>
<path d="M314.422 225.932C314.566 225.964 314.717 225.939 314.843 225.864C314.843 225.864 315.765 225.363 315.775 225.334C315.925 225.089 315.544 224.716 314.773 224.353C314.001 223.99 312.457 223.666 312.768 224.471C313.165 225.103 313.739 225.611 314.422 225.932Z" fill="black"/>
<path d="M303.276 172.038C303.116 172.038 303.116 172.097 303.096 172.264L304.098 172.705C303.87 172.434 303.591 172.208 303.276 172.038Z" fill="black"/>
<path d="M342.576 195.866C344.317 197.964 345.619 200.377 346.405 202.968C345.533 198.985 344.501 193.639 343.458 189.695C338.587 174 338.447 173.686 334.889 165.583L330.879 157.314C330.719 157.029 330.559 156.735 330.398 156.46C330.922 157.865 331.531 159.237 332.223 160.57C331.864 160.133 331.53 159.678 331.22 159.207C331.481 160.747 332.523 161.924 333.175 163.278L332.884 163.347C329.807 158.442 327.612 152.997 324.465 148.102C326.169 150.182 327.191 152.733 329.176 154.626C328.975 153.439 324.355 145.542 320.917 141.461C318.441 138.518 318.21 138.096 317.99 137.684C318.166 137.814 318.333 137.955 318.491 138.106C318.18 137.6 317.821 137.124 317.419 136.684L317.128 136.782C316.256 135.979 315.486 135.076 314.833 134.094C314.993 134.222 315.214 134.398 315.384 134.516C315.314 133.535 312.106 130.543 311.846 130.357C311.861 130.862 311.998 131.356 312.247 131.799C311.074 130.886 310.894 129.278 309.741 128.365C309.741 129.042 310.342 129.542 310.383 130.219C309.531 131.083 309.531 131.083 309.38 131.74C309.17 132.721 310.383 139.097 310.383 139.156C311.435 143.403 310.914 144.581 310.854 144.698C309.25 147.769 309.25 147.769 306.995 148.406C306.163 148.652 306.093 148.877 306.143 149.848C306.143 149.976 307.015 162.689 312.157 162.209C313.82 162.052 313.941 159.491 313.991 158.285C314.261 158.667 319.453 169.174 320.065 172.136C320.355 173.549 320.636 174.873 321.859 175.305C322.793 173.781 323.263 172.028 323.212 170.253C322.601 166.417 323.142 166.191 324.324 165.691C324.635 164.926 324.645 164.602 322.871 162.307C321.638 160.718 321.638 160.718 320.696 156.539C320.335 154.94 322.3 153.763 321.528 152.095C319.523 147.739 319.523 147.739 319.463 147.514C319.403 147.288 319.463 147.19 319.463 147.053L319.704 146.866C320.756 147.661 323.803 151.595 323.813 152.507L323.473 152.419C324.134 160.266 324.134 160.266 326.109 163.886C327.812 167.074 331.812 168.055 333.556 171.234C333.168 170.984 332.812 170.691 332.493 170.361L332.192 170.429C332.254 170.78 332.334 171.127 332.433 171.469C331.171 170.442 329.831 169.51 328.424 168.683C329.296 171.538 331.1 174.069 331.501 177.09C329.857 176.462 330.589 174.049 328.755 173.568L328.474 173.784C328.474 173.784 329.196 178.12 329.306 178.444C329.416 178.767 330.208 181.053 329.837 181.769C328.835 181.338 328.835 181.338 328.634 181.318C328.384 181.573 328.213 181.897 327.973 182.162C327.973 182.25 328.033 182.358 328.063 182.446C323.483 180.484 323.483 180.484 323.282 180.935L322.49 181.102C321.593 180.165 320.551 179.37 319.403 178.748L321.528 179.915C320.86 178.904 319.831 178.173 318.641 177.865C318 177.679 317.86 177.629 316.807 175.069C316.046 173.186 315.284 170.576 316.005 168.801C316.306 168.065 316.286 164.543 315.464 164.151C315.364 164.151 312.928 163.268 312.928 164.573C313.45 168.058 314.295 171.489 315.454 174.824C315.712 175.311 315.891 175.834 315.985 176.374C315.825 176.462 315.795 176.472 315.083 176.374L313.44 176.089C312.157 174.333 310.373 172.95 309.43 170.979C309.063 169.903 308.576 168.869 307.977 167.898C307.079 166.757 305.894 165.861 304.539 165.299C305.792 164.789 308.548 161.1 305.993 160.109C305.546 159.951 305.087 159.829 304.619 159.746C302.915 159.393 302.615 159.334 302.745 158.913C303.026 158.069 305.03 157.01 303.868 156.529C303.868 156.529 300.65 155.489 299.788 156.431C299.714 156.545 299.679 156.679 299.688 156.813C299.488 157.794 299.899 158.873 299.688 159.903C299.518 160.767 298.616 161.296 298.686 162.228C298.906 162.415 299.468 162.532 300.891 162.091C301.412 161.924 301.893 161.787 302.084 162.032C303.006 163.013 301.242 163.808 301.312 164.828C301.306 165.523 301.499 166.206 301.869 166.799C302.239 167.392 302.772 167.871 303.407 168.183C305.1 169.311 305.321 169.448 305.582 169.801C305.531 170.115 305.251 170.351 305.321 170.694C305.501 171.734 306.173 172.656 306.323 173.706C306.223 174.687 305.241 173.774 304.519 173.078C304.208 172.784 304.208 172.784 303.186 172.342C303.186 173.686 304.349 174.736 304.188 176.119C304.088 176.864 303.296 177.002 302.184 177.1C301.893 177.1 301.442 177.178 301.482 177.512C301.482 177.679 301.753 178.297 304.048 179.013C305 179.317 306.995 179.945 306.865 180.592C306.307 180.442 305.727 180.389 305.151 180.435C305.139 180.516 305.139 180.599 305.151 180.68C304.862 180.634 304.566 180.682 304.309 180.818C303.667 181.083 303.306 181.73 302.745 182.054C302.184 182.377 301.161 182.564 300.42 182.946C300.42 182.946 300.42 183.074 300.42 183.133C300.64 183.27 300.69 183.299 302.986 183.79C302.8 184.145 302.568 184.475 302.294 184.771C299.939 183.79 299.658 183.417 298.886 182.319C298.994 182.915 299.138 183.504 299.317 184.084C299.167 184.29 298.946 184.565 298.796 184.761C298.182 184.81 297.566 184.81 296.952 184.761C296.05 183.633 296.05 183.633 294.196 182.946L293.604 183.545L294.687 185.438L293.875 185.664C304.008 192.53 298.285 203.007 298.185 203.086C293.083 200.918 288.593 197.661 283.581 195.356C283.692 195.94 283.863 196.512 284.092 197.062C284.032 197.19 279.722 211.041 281.326 212.169C279.321 216.211 279.321 216.211 279.111 216.564C282.84 217.545 283.621 217.741 285.055 218.624C284.919 219.508 284.835 220.399 284.804 221.292L294.316 221.459C296.771 221.979 298.405 219.272 297.844 216.868C301.161 211.855 301.242 211.856 305.231 211.708C306.875 207.304 306.875 207.304 307.356 207.127C309.45 206.362 309.962 208.913 311.475 209.442C313.72 207.48 315.434 206.342 316.948 208.913C317.008 209.021 321.729 220.635 323.382 227.168C323.065 227.727 322.935 228.368 323.011 229.003C323.172 229.395 323.813 229.444 323.733 229.984C323.653 230.523 323.302 230.906 323.272 231.416C323.252 231.544 323.273 231.675 323.332 231.791C323.392 231.907 323.486 232.002 323.603 232.063C323.658 232.097 323.719 232.12 323.783 232.132C323.432 233.662 322.31 233.447 318.12 232.613C318.733 234.571 319.581 236.451 320.646 238.214C321.548 237.037 321.167 235.458 321.899 234.222L322.601 234.575C323.603 233.878 324.214 232.868 325.126 232.132V232.005C325.364 231.926 325.582 231.797 325.763 231.628C325.945 231.459 326.087 231.252 326.179 231.024C326.241 230.865 326.288 230.7 326.319 230.533C326.429 229.974 326.409 229.405 326.52 228.846C326.515 228.807 326.515 228.767 326.52 228.728C326.66 229.199 326.83 229.709 326.971 230.17C327.11 229.422 327.031 228.649 326.74 227.943C326.82 227.669 326.91 227.384 326.971 227.09C327.161 226.109 326.87 225.932 326.56 225.785C326.358 225.728 326.148 225.702 325.938 225.707C325.647 224.922 325.277 223.961 324.826 222.764C324.946 222.587 325.106 222.352 325.227 222.146C325.243 222.256 325.269 222.364 325.307 222.47C325.307 222.47 326.048 224.373 326.119 224.432C326.449 224.432 326.981 222.126 327.121 220.9C327.199 220.318 327.236 219.731 327.231 219.144L329.236 224.147C329.236 224.226 329.236 224.226 329.236 234.938L329.937 244.296C330.196 243.801 330.42 243.29 330.609 242.766C331.3 240.804 331.19 238.793 331.471 236.802C332.403 230.347 332.403 230.347 333.165 230.111C334.167 230.72 336.011 232.858 335.861 234.781C336.287 234.413 336.679 234.009 337.034 233.574C337.294 233.643 337.625 233.731 337.865 233.81C340.582 228.571 338.286 222.45 340.953 217.212C341.476 217.239 341.974 217.44 342.366 217.781L341.804 218.35C342.078 219.138 342.515 219.862 343.087 220.478C343.044 221.367 342.726 222.222 342.175 222.931C342.476 224.022 342.717 225.129 342.897 226.246C346.154 225.648 343.087 221.557 344.691 219.595C345.984 219.762 346.054 220.223 346.074 221.253L345.423 221.822C345.613 222.627 345.613 222.627 345.423 225.197C345.222 225.344 344.952 225.54 344.741 225.677C345.012 231.053 348.099 236.233 345.914 241.775L345.102 241.903C343.328 239.578 345.262 234.555 341.093 234.231C340.865 234.71 340.495 235.11 340.03 235.379C339.64 235.085 339.088 234.702 338.667 234.398C338.621 234.913 338.715 235.431 338.938 235.899C337.815 236.321 336.803 235.477 335.701 235.615C335.416 236.146 335.178 236.701 334.989 237.272L335.64 237.733C335.009 240.676 333.836 246.131 336.322 250.26L337.064 249.907C337.144 249.672 337.234 249.368 337.314 249.142C338.126 250.476 337.936 252.183 338.988 253.439C339.34 253.01 339.639 252.543 339.88 252.046C340.133 252.526 340.473 252.958 340.882 253.321C337.655 264.161 337.164 265.819 334.939 268.281C333.425 267.624 333.285 267.202 333.325 265.534C332.821 265.396 332.285 265.427 331.802 265.622C326.79 263.464 329.867 256.244 324.475 254.292C322.841 255.715 322.901 258.03 321.558 259.599H320.706C319.874 258.402 311.776 243.708 311.425 242.03C311.315 241.51 311.946 240.853 312.367 240.519C313.369 239.735 313.369 239.735 315.143 233.29C314.576 232.523 313.96 231.793 313.299 231.102C311.976 231.524 311.976 231.524 307.967 229.042C307.422 229.281 306.91 229.588 306.444 229.954C301.552 225.854 294.807 230.347 289.866 226.501C289.264 226.237 289.164 226.197 289.054 226.158C287.34 225.923 286.769 225.854 285.766 223.215C285.526 222.901 285.516 222.891 285.506 222.891C285.189 222.996 284.881 223.124 284.584 223.274C283.07 224.176 283.23 226.217 281.737 227.198C279.873 228.336 277.467 227.473 275.663 228.797C275.122 229.179 274.961 230.151 274.711 230.759C271.955 237.331 271.955 237.331 269.81 237.567C267.694 237.877 265.637 238.492 263.706 239.391C262.102 240.647 249.974 250.859 249.964 250.869C248.431 254.184 249.704 257.863 248.571 261.228C247.569 264.053 243.038 263.974 243.169 267.673C243.359 273.215 244.422 278.65 245.033 284.143C245.294 286.448 250.105 295.719 251.528 296.062C258.544 297.779 266.061 297.533 272.786 300.672C273.015 300.813 273.199 301.014 273.318 301.251C274.21 302.713 272.646 304.273 273.498 305.734C274.35 307.196 276.094 307.206 277.297 308.098C277.237 311.041 277.237 311.041 275.212 313.229C269.549 319.291 269.549 319.291 269.299 321.489C268.898 324.951 268.346 329.699 260.689 337.91C257.151 341.687 252.29 343.678 248.3 346.837C244.582 349.78 242.678 354.224 239.119 357.284C225.248 369.213 224.917 369.379 223.083 370.282C221.652 370.918 220.39 371.868 219.394 373.058C223.283 375.883 229.648 374.225 231.743 373.686L240.182 371.341L251.147 367.604C253.783 366.299 255.858 364.112 258.594 362.954C261.731 361.63 265.259 361.679 268.376 360.296C275.833 356.99 284.734 348.406 285.736 347.298C289.745 342.884 299.969 337.488 302.976 335.997C307.757 333.437 315.885 325.206 318.421 321.773C317.639 321.194 317.639 321.194 315.995 320.988C315.815 320.4 315.815 320.4 318.742 314.504C319.824 312.326 320.095 309.903 320.867 307.637C322.871 301.751 326.129 296.278 327.702 290.205L332.764 271.126C332.934 271.842 332.934 271.842 332.373 274.657C332.945 274.398 333.429 273.982 333.766 273.46C332.623 288.783 323.473 301.398 318.912 315.554C320.736 315.377 320.736 315.377 321.378 315.76C328.664 308.442 328.664 308.442 329.266 307.372L328.835 308.167C329.095 307.735 329.426 307.186 329.677 306.725L329.937 306.235L331.551 303.164C332.273 301.751 333.165 299.976 335.33 295.061C335.219 295.326 335.129 295.581 335.029 295.817C336.793 291.53 339.038 286.193 340.512 282.005C341.794 277.679 343.619 271.93 344.691 267.545C344.962 266.211 345.202 264.985 345.423 263.837C345.593 260.119 345.693 259.54 347.928 246.955C347.924 247.013 347.924 247.072 347.928 247.131C348.75 229.238 348.75 229.238 348.931 228.434V228.522C349.007 224.003 348.773 219.483 348.229 214.995L346.565 202.948C345.699 200.364 344.346 197.962 342.576 195.866ZM311.846 176.04C311.926 176.04 311.956 176.04 312.558 176.413L311.776 176.129C311.793 176.095 311.817 176.065 311.846 176.04ZM326.88 218.879C326.857 218.91 326.836 218.943 326.82 218.977C326.608 219.515 326.444 220.07 326.329 220.635C326.276 220.831 326.174 221.01 326.032 221.158C325.891 221.305 325.714 221.415 325.517 221.479C325.415 221.504 325.322 221.559 325.251 221.636C325.179 221.712 325.133 221.808 325.116 221.91V222.009C323.553 220.557 322.3 219.281 320.897 207.608C321.328 207.292 321.843 207.101 322.38 207.059L326.991 218.83C326.94 218.835 326.892 218.852 326.85 218.879H326.88Z" fill="black"/>
<g opacity="0.4">
<path d="M347.658 224.765C350.665 311.63 286.067 383.064 197.314 388.587C362.983 312.65 348.731 145.307 185.627 73.431C267.294 68.9774 344.661 137.9 347.658 224.765Z" fill="black"/>
</g>
</g>
<path d="M59.3044 165.883L65.0977 167.08L59.3044 165.883Z" fill="#455A64"/>
<path d="M58.2119 169.454L63.3437 171.416L58.2119 169.454Z" fill="#455A64"/>
</svg>
