<svg width="120" height="112" viewBox="0 0 120 112" fill="none" xmlns="http://www.w3.org/2000/svg">
<path d="M110.11 103.264C110.11 103.295 87.8064 103.322 60.3 103.322C32.7936 103.322 10.4856 103.302 10.4856 103.264C10.4856 103.226 32.784 103.206 60.3 103.206C87.816 103.206 110.11 103.237 110.11 103.264Z" fill="#263238"/>
<path d="M40.2912 38.2279C40.2164 37.9047 40.0372 37.6107 39.7776 37.3856C39.5334 37.1598 39.2195 37.0109 38.88 36.96C38.6986 36.9376 38.5141 36.9494 38.3376 36.9948C38.1612 37.0402 37.9963 37.1183 37.8528 37.2243C37.6834 37.3523 37.55 37.5168 37.464 37.7037C37.3031 37.4854 37.0721 37.3204 36.8042 37.2326C36.5363 37.1448 36.2454 37.1388 35.9736 37.2154C35.6444 37.3158 35.3573 37.5101 35.1528 37.7709C34.9339 38.027 34.8049 38.3399 34.7832 38.6669C34.7633 39.0874 34.8887 39.5028 35.1408 39.8519C35.4301 40.2029 35.8054 40.4841 36.2352 40.6717C36.9312 40.9987 37.848 41.4064 37.848 41.4064C37.848 41.4064 38.5488 40.8352 39.1848 40.4141C39.579 40.1677 39.9042 39.8367 40.1328 39.4487C40.3236 39.0679 40.3791 38.6402 40.2912 38.2279Z" fill="#FF2101"/>
<path d="M82.5888 46.5315C82.5503 46.2154 82.4096 45.9178 82.1856 45.678C81.9753 45.4354 81.6892 45.2601 81.3672 45.1763C81.1952 45.1377 81.0167 45.1319 80.8422 45.1592C80.6678 45.1866 80.5011 45.2465 80.352 45.3353C80.1763 45.4438 80.0307 45.5897 79.9272 45.7609C79.8361 45.6041 79.7091 45.4679 79.5552 45.3622C79.4117 45.266 79.2489 45.1978 79.0766 45.1616C78.9042 45.1254 78.7258 45.1221 78.552 45.1516C78.227 45.2164 77.9313 45.3728 77.7048 45.5996C77.4665 45.8277 77.309 46.1186 77.2536 46.4329C77.1895 46.8337 77.2661 47.2431 77.472 47.6C77.7099 47.9665 78.0393 48.2739 78.432 48.496C79.0656 48.8745 79.9008 49.3516 79.9008 49.3516C79.9008 49.3516 80.6352 48.8678 81.2904 48.5228C81.6939 48.3228 82.0404 48.0355 82.3008 47.6851C82.5274 47.3395 82.6284 46.9349 82.5888 46.5315Z" fill="#FF2101"/>
<path d="M84.3576 51.7439C84.3394 51.593 84.2725 51.4508 84.1656 51.3362C84.0651 51.2208 83.9282 51.1377 83.7744 51.0988C83.6932 51.0804 83.6088 51.0774 83.5263 51.0901C83.4439 51.1028 83.365 51.1309 83.2944 51.1727C83.2102 51.224 83.1409 51.2941 83.0928 51.3766C83.0309 51.2694 82.934 51.1834 82.8162 51.131C82.6984 51.0787 82.5658 51.0627 82.4376 51.0854C82.2807 51.1188 82.1389 51.1971 82.032 51.3094C81.9189 51.4179 81.8443 51.5563 81.8184 51.7058C81.7873 51.8973 81.8235 52.093 81.9216 52.2636C82.0351 52.4375 82.1925 52.5829 82.38 52.687C82.68 52.8684 83.0784 53.0946 83.0784 53.0946C83.0784 53.0946 83.4288 52.8706 83.7408 52.7004C83.9317 52.604 84.0961 52.4675 84.2208 52.3017C84.3294 52.1343 84.3773 51.9387 84.3576 51.7439Z" fill="#FF2101"/>
<path d="M43.3032 63.0963C43.2861 62.9457 43.2189 62.804 43.1112 62.6908C43.0116 62.574 42.8745 62.49 42.72 62.4512C42.5555 62.4164 42.3829 62.4437 42.24 62.5273C42.1564 62.5783 42.0872 62.6475 42.0384 62.7289C41.9953 62.6544 41.9345 62.5901 41.8608 62.5408C41.7926 62.494 41.7147 62.4609 41.6321 62.4436C41.5495 62.4262 41.4639 62.425 41.3808 62.44C41.2242 62.4724 41.0828 62.5509 40.9776 62.664C40.8647 62.7729 40.7894 62.9111 40.7616 63.0604C40.7316 63.2519 40.7677 63.4473 40.8648 63.6182C40.9796 63.7911 41.1367 63.9362 41.3232 64.0416C41.6256 64.2208 42.024 64.447 42.024 64.447C42.024 64.447 42.372 64.223 42.684 64.0528C42.8764 63.9583 43.0412 63.8215 43.164 63.654C43.2745 63.4873 43.3234 63.2914 43.3032 63.0963Z" fill="#FF2101"/>
<path d="M41.2944 45.3062C41.2894 45.1671 41.2392 45.0327 41.1504 44.9209C41.0661 44.8091 40.9472 44.7239 40.8096 44.6768C40.7359 44.6545 40.6582 44.6464 40.581 44.6529C40.5039 44.6595 40.429 44.6805 40.3608 44.7148C40.2792 44.7556 40.2098 44.815 40.1592 44.8873C40.1261 44.8152 40.0751 44.7515 40.0104 44.7014C39.9514 44.6548 39.883 44.6199 39.8091 44.5987C39.7353 44.5775 39.6576 44.5706 39.5808 44.5782C39.4359 44.5968 39.3008 44.6571 39.1944 44.7507C39.0813 44.8422 39.0016 44.9644 38.9664 45.1001C38.9236 45.2741 38.9421 45.4564 39.0192 45.6198C39.1117 45.7854 39.2449 45.9282 39.408 46.0364C39.672 46.2224 40.02 46.4553 40.02 46.4553C40.02 46.4553 40.3584 46.2672 40.656 46.1372C40.8422 46.0633 41.0068 45.9488 41.136 45.8035C41.2438 45.6575 41.2993 45.4834 41.2944 45.3062Z" fill="#FF2101"/>
<path d="M52.0344 15.3372C52.0286 15.1979 51.9775 15.0636 51.888 14.952C51.8056 14.8384 51.686 14.7528 51.5472 14.7078C51.4735 14.6855 51.3958 14.6774 51.3186 14.684C51.2415 14.6905 51.1666 14.7116 51.0984 14.7459C51.018 14.7874 50.9496 14.8466 50.8992 14.9184C50.8644 14.8472 50.8137 14.7838 50.7504 14.7324C50.691 14.6858 50.6221 14.6508 50.5479 14.6297C50.4737 14.6085 50.3956 14.6015 50.3184 14.6092C50.1732 14.6268 50.0378 14.6872 49.932 14.7817C49.8157 14.8726 49.732 14.9946 49.692 15.1312C49.6511 15.3055 49.6705 15.4874 49.7472 15.6508C49.8449 15.82 49.9869 15.9634 50.16 16.0675C50.4216 16.2534 50.772 16.4864 50.772 16.4864C50.772 16.4864 51.108 16.2982 51.408 16.1683C51.5951 16.0946 51.7599 15.9792 51.888 15.8323C51.9917 15.6859 52.043 15.5126 52.0344 15.3372Z" fill="#FF2101"/>
<path d="M79.5648 29.1424C79.5574 28.9309 79.4803 28.7267 79.344 28.5577C79.219 28.3875 79.0391 28.2588 78.8304 28.1903C78.652 28.1349 78.459 28.1358 78.2812 28.1929C78.1033 28.25 77.9506 28.3601 77.8464 28.5062C77.7951 28.3986 77.7189 28.303 77.6232 28.2262C77.5333 28.1559 77.4292 28.1032 77.3171 28.0713C77.2049 28.0393 77.087 28.0288 76.9704 28.0403C76.7509 28.0691 76.5463 28.1606 76.3848 28.3023C76.2146 28.4421 76.0948 28.6275 76.0416 28.8332C75.9781 29.0952 76.0067 29.3694 76.1232 29.615C76.2622 29.8671 76.4638 30.0844 76.7112 30.2489C77.1096 30.5289 77.6352 30.8828 77.6352 30.8828C77.6352 30.8828 78.1464 30.5984 78.5952 30.399C78.8757 30.2873 79.1228 30.1135 79.3152 29.8927C79.483 29.6743 79.5706 29.4111 79.5648 29.1424Z" fill="#FF2101"/>
<path d="M49.1016 18.8765C49.094 18.6609 49.0152 18.4528 48.876 18.2806C48.7476 18.1062 48.5638 17.9738 48.3504 17.9021C48.1679 17.8453 47.9703 17.8464 47.7885 17.9051C47.6067 17.9638 47.4507 18.0769 47.3448 18.2269C47.2888 18.1157 47.2068 18.0177 47.1048 17.9402C47.0132 17.8686 46.9072 17.8149 46.793 17.7822C46.6789 17.7495 46.5588 17.7385 46.44 17.7498C46.2151 17.7793 46.0054 17.8732 45.84 18.0186C45.6669 18.1618 45.5446 18.3509 45.4896 18.5606C45.4248 18.8285 45.4534 19.1087 45.5712 19.3603C45.7138 19.6179 45.9203 19.8398 46.1736 20.0077C46.5816 20.2944 47.1192 20.655 47.1192 20.655C47.1192 20.655 47.6424 20.3638 48.1032 20.1622C48.3837 20.0454 48.6305 19.8681 48.8232 19.6448C49.0022 19.4234 49.0999 19.1539 49.1016 18.8765Z" fill="#FF2101"/>
<path d="M47.0016 36.7494C47.0256 37.3923 46.6224 37.9904 46.1208 38.4316C45.6192 38.8729 45.0192 39.2044 44.4912 39.6188C43.9632 40.0332 43.4928 40.5663 43.3968 41.2047C43.3008 41.8431 43.7016 42.5711 44.3808 42.6921C44.004 43.1315 43.7823 43.6691 43.7462 44.231C43.7101 44.7928 43.8613 45.3513 44.1791 45.8296C44.4969 46.3079 44.9657 46.6826 45.521 46.9022C46.0762 47.1217 46.6908 47.1753 47.28 47.0556L47.0016 36.7494Z" fill="#263238"/>
<path d="M68.3328 100.536L68.2344 98.1814L63.8376 98.0269L63.9048 100.907L65.5032 101.808L68.3328 100.536Z" fill="#263238"/>
<path d="M58.428 50.5747C58.428 50.5747 55.9704 56.0761 55.692 60.6883C55.4136 65.3005 58.68 78.512 59.2344 81.536C59.6136 83.5968 61.4736 93.8896 63.7104 100.153H67.1592C67.1592 100.153 64.9224 79.2736 65.0136 77.0985C65.1048 74.9235 65.9472 63.3539 65.9472 63.3539L67.1592 54.5686L58.428 50.5747Z" fill="#263238"/>
<path d="M74.82 52.3936C74.5416 52.4787 66.2904 54.1363 66.2904 54.1363C66.2904 54.1363 62.9784 77.952 62.7 81.088C62.4216 84.224 67.1592 100.155 67.1592 100.155H71.9112C71.9112 100.155 71.8176 89.6268 71.0736 86.4102C70.3296 83.1936 70.32 82.4096 70.8 80.416C71.28 78.4224 74.9832 69.5475 76.1952 64.2409C77.4072 58.9344 74.82 52.3936 74.82 52.3936Z" fill="#263238"/>
<path d="M65.4552 60.4261C65.4552 60.4261 65.4552 60.462 65.4552 60.5314C65.4552 60.6009 65.436 60.7061 65.4216 60.8361C65.3856 61.1093 65.3352 61.5081 65.2728 62.0076C65.136 63.0313 64.9416 64.5007 64.7016 66.3151C64.2096 69.9529 63.5328 74.9705 62.7816 80.5122C62.7599 81.1988 62.8073 81.8858 62.9232 82.5641C63.024 83.2361 63.1488 83.8946 63.2856 84.542C63.5568 85.8322 63.8664 87.0709 64.176 88.2469C64.7952 90.5989 65.4192 92.7001 65.9544 94.4629C66.4896 96.2258 66.9408 97.646 67.2528 98.6271C67.4088 99.1132 67.5288 99.494 67.6152 99.7583L67.7064 100.052C67.7256 100.119 67.7328 100.153 67.7328 100.153C67.7328 100.153 67.7184 100.121 67.6944 100.056C67.6704 99.9913 67.6344 99.8882 67.5912 99.765C67.5 99.5029 67.3728 99.1244 67.2072 98.645C66.8808 97.6661 66.4152 96.2482 65.868 94.4898C65.3208 92.7314 64.692 90.6281 64.0632 88.2761C63.7512 87.1023 63.4392 85.8613 63.1656 84.5666C63.0264 83.9215 62.9016 83.2585 62.8008 82.5842C62.6825 81.8986 62.6343 81.2041 62.6568 80.51C63.3936 74.9548 64.0968 69.9439 64.6104 66.3084C64.8672 64.4962 65.0736 63.029 65.2176 62.0076C65.292 61.5036 65.3496 61.1116 65.3904 60.8383C65.412 60.7084 65.4264 60.6143 65.4384 60.5337C65.4504 60.453 65.4552 60.4261 65.4552 60.4261Z" fill="#455A64"/>
<path d="M63.8088 100.372V100.641C63.8088 100.641 58.9272 102.522 58.884 103.392L68.6112 103.257L68.4336 100.238C67.7182 100.568 66.9349 100.752 66.1369 100.775C65.3389 100.798 64.5449 100.661 63.8088 100.372Z" fill="#263238"/>
<path d="M68.6136 103.264L68.5704 102.538L59.2632 102.932C59.2632 102.932 58.8312 103.114 58.8864 103.398L68.6136 103.264Z" fill="#455A64"/>
<path d="M63.7776 100.668C63.7776 100.713 64.0176 100.728 64.2576 100.869C64.4976 101.011 64.62 101.192 64.6632 101.174C64.7064 101.156 64.632 100.901 64.344 100.737C64.056 100.574 63.7656 100.627 63.7776 100.668Z" fill="white"/>
<path d="M62.7624 101.075C62.7624 101.118 62.9592 101.192 63.1224 101.378C63.2856 101.564 63.3384 101.761 63.384 101.756C63.4296 101.752 63.4584 101.503 63.2496 101.277C63.0408 101.051 62.7624 101.024 62.7624 101.075Z" fill="white"/>
<path d="M62.2008 102.225C62.244 102.225 62.3064 102.001 62.1816 101.777C62.0568 101.553 61.8312 101.441 61.812 101.479C61.7928 101.517 61.932 101.642 62.0328 101.842C62.1336 102.041 62.16 102.22 62.2008 102.225Z" fill="white"/>
<path d="M67.128 95.2626L67.9008 102.272L71.3424 101.736L71.4192 94.837L67.128 95.2626Z" fill="#263238"/>
<path d="M71.4648 99.9174C71.4648 99.9174 69.0504 102.2 67.7304 100.943L67.4904 101.629L66.5832 106.456C66.5523 106.609 66.583 106.767 66.6694 106.9C66.7558 107.033 66.8917 107.132 67.0512 107.177C67.1745 107.21 67.305 107.209 67.428 107.176C67.551 107.143 67.6616 107.078 67.7472 106.989C68.664 106.033 72.0072 102.498 71.928 102.061L71.796 100.907C71.7672 100.668 71.52 100.099 71.52 100.047L71.4648 99.9174Z" fill="#263238"/>
<path d="M67.1736 107.197L71.8872 101.662L71.9136 101.915C71.9301 102.019 71.9213 102.125 71.8881 102.225C71.8549 102.325 71.798 102.417 71.7216 102.493C71.352 103.051 70.2984 104.317 67.7688 106.989C67.6946 107.066 67.6018 107.124 67.4983 107.161C67.3947 107.197 67.2834 107.209 67.1736 107.197Z" fill="#455A64"/>
<path d="M68.4168 104.467C68.2392 104.295 68.0294 104.154 67.7976 104.052C67.5479 103.988 67.2877 103.966 67.0296 103.988C67.0296 103.972 67.1016 103.92 67.2528 103.887C67.4517 103.848 67.6584 103.863 67.848 103.932C68.0392 103.994 68.2063 104.107 68.328 104.259C68.4144 104.384 68.4336 104.462 68.4168 104.467Z" fill="white"/>
<path d="M68.028 105.305C67.8309 105.225 67.629 105.156 67.4232 105.098C67.2078 105.079 66.9914 105.073 66.7752 105.078C66.7536 105.049 67.056 104.897 67.452 104.969C67.848 105.04 68.0616 105.28 68.028 105.305Z" fill="white"/>
<path d="M69.1848 103.371C68.8921 103.225 68.5881 103.099 68.2752 102.995C67.7472 102.852 67.2888 102.912 67.284 102.872C67.6175 102.76 67.9825 102.76 68.316 102.872C68.88 103.015 69.216 103.351 69.1848 103.371Z" fill="white"/>
<path d="M71.9112 100.155C71.8052 100.173 71.6974 100.18 71.5896 100.177L70.7112 100.195C69.9696 100.206 68.9424 100.211 67.812 100.211C66.6816 100.211 65.652 100.211 64.9104 100.195L64.032 100.177C63.9243 100.181 63.8164 100.173 63.7104 100.155C63.8166 100.138 63.9243 100.13 64.032 100.132L64.9104 100.114C65.652 100.103 66.6792 100.097 67.812 100.097C68.9448 100.097 69.972 100.097 70.7112 100.114L71.5896 100.132C71.6973 100.131 71.805 100.138 71.9112 100.155Z" fill="#455A64"/>
<path d="M67.6104 100.153C67.6494 100.4 67.6654 100.651 67.6584 100.901C67.608 101.223 67.536 101.633 67.452 102.079C67.3536 102.608 67.2552 103.083 67.1808 103.423C67.1513 103.612 67.1014 103.797 67.032 103.976C67.0329 103.786 67.0538 103.596 67.0944 103.41C67.1496 103.062 67.2312 102.583 67.3344 102.054C67.4184 101.606 67.5 101.199 67.5744 100.881C67.5624 100.637 67.5744 100.394 67.6104 100.153Z" fill="#455A64"/>
<path d="M57.0624 101.848V102.119C57.0624 102.119 52.1832 103.999 52.14 104.868L61.8672 104.733L61.68 101.714C60.9657 102.044 60.1836 102.227 59.3869 102.25C58.5902 102.273 57.7974 102.136 57.0624 101.848Z" fill="#263238"/>
<path d="M61.8672 104.733L61.824 104.008L52.5168 104.402C52.5168 104.402 52.0848 104.583 52.14 104.868L61.8672 104.733Z" fill="#455A64"/>
<path d="M57.0288 102.144C57.0288 102.189 57.2688 102.207 57.5088 102.346C57.7488 102.484 57.8712 102.668 57.9144 102.65C57.9576 102.632 57.8832 102.377 57.5952 102.213C57.3072 102.05 57.0192 102.104 57.0288 102.144Z" fill="white"/>
<path d="M56.016 102.552C56.016 102.596 56.2128 102.668 56.376 102.854C56.5392 103.04 56.5896 103.237 56.6376 103.235C56.6856 103.233 56.712 102.98 56.5032 102.753C56.2944 102.527 56.016 102.511 56.016 102.552Z" fill="white"/>
<path d="M55.4544 103.712C55.4976 103.712 55.56 103.488 55.4328 103.264C55.3056 103.04 55.0848 102.928 55.0656 102.966C55.0464 103.004 55.1856 103.132 55.284 103.331C55.3824 103.531 55.4064 103.696 55.4544 103.712Z" fill="white"/>
<path d="M60.3816 96.7388L61.1544 103.748L64.596 103.212L64.6728 96.3132L60.3816 96.7388Z" fill="#263238"/>
<path d="M64.7184 101.394C64.7184 101.394 62.304 103.676 60.984 102.419L60.744 103.107L59.8392 107.932C59.8083 108.087 59.8405 108.246 59.9293 108.38C60.0181 108.513 60.1572 108.611 60.3192 108.653C60.4423 108.685 60.5725 108.685 60.6954 108.652C60.8182 108.619 60.9289 108.555 61.0152 108.467C61.9296 107.509 65.2752 103.974 65.196 103.539L65.0616 102.386C64.9856 102.095 64.8935 101.808 64.7856 101.526L64.7184 101.394Z" fill="#263238"/>
<path d="M60.4272 108.674L65.1408 103.141L65.1648 103.392C65.1821 103.495 65.174 103.602 65.1412 103.702C65.1084 103.802 65.0516 103.895 64.9752 103.972C64.6056 104.527 63.552 105.793 61.0224 108.465C60.9482 108.542 60.8554 108.601 60.7519 108.637C60.6484 108.673 60.537 108.686 60.4272 108.674Z" fill="#455A64"/>
<path d="M61.68 105.952C61.5039 105.778 61.2937 105.638 61.0608 105.538C60.8114 105.471 60.5511 105.449 60.2928 105.47C60.2928 105.457 60.3648 105.403 60.516 105.37C60.715 105.332 60.9213 105.347 61.1112 105.414C61.3015 105.478 61.4682 105.592 61.5912 105.741C61.68 105.851 61.68 105.939 61.68 105.952Z" fill="white"/>
<path d="M61.2816 106.781C61.084 106.702 60.8822 106.633 60.6768 106.575C60.4614 106.557 60.245 106.55 60.0288 106.555C60.0072 106.525 60.3096 106.373 60.7056 106.447C61.1016 106.521 61.3152 106.763 61.2816 106.781Z" fill="white"/>
<path d="M62.4384 104.848C62.1452 104.702 61.8412 104.576 61.5288 104.471C61.0008 104.328 60.5424 104.388 60.5376 104.348C60.8714 104.237 61.2358 104.237 61.5696 104.348C62.1384 104.492 62.4696 104.832 62.4384 104.848Z" fill="white"/>
<path d="M60.8616 101.631C60.9038 101.878 60.9207 102.127 60.912 102.377C60.8616 102.699 60.7896 103.109 60.7056 103.555C60.6072 104.084 60.5088 104.561 60.4344 104.899C60.4048 105.088 60.355 105.273 60.2856 105.452C60.285 105.262 60.3059 105.072 60.348 104.886C60.4008 104.539 60.4848 104.059 60.588 103.531C60.672 103.083 60.7536 102.677 60.828 102.357C60.8174 102.114 60.8286 101.872 60.8616 101.631Z" fill="#455A64"/>
<path d="M56.2848 31.7094C56.1264 31.7094 46.9248 32.5001 45.7248 32.91C44.5248 33.3199 44.3424 33.9068 44.6256 35.2553C44.9088 36.6038 56.8656 35.2553 56.8656 35.2553L56.2848 31.7094Z" fill="#7E4E3F"/>
<path d="M64.2072 30.5939C63.4488 28.2889 62.6088 26.2685 62.2656 25.0454C61.2912 21.5869 60.396 17.5638 54.9768 17.9245C54.4362 18.0296 53.9044 18.1711 53.3856 18.3478C52.2572 18.7277 51.2653 19.3948 50.5222 20.2737C49.7791 21.1525 49.3144 22.208 49.1808 23.3206L48.8856 25.7353C48.5544 28.4614 49.2864 31.127 50.3424 33.6873C50.3431 33.6948 50.3431 33.7023 50.3424 33.7097L62.5584 35.4077H65.1432C65.0093 33.7773 64.6957 32.1642 64.2072 30.5939Z" fill="#263238"/>
<path d="M54.2568 19.2416L54.5952 18.9414L58.2576 20.319C58.5121 20.3334 58.7516 20.4361 58.9293 20.6068C59.1069 20.7775 59.2097 21.004 59.2176 21.2419L59.184 32.3792C59.2258 33.1007 58.9976 33.8134 58.5384 34.3952L58.0248 35.0291C56.8512 36.4739 54.4392 36.3552 53.5104 34.7625C53.4539 34.6727 53.4103 34.5763 53.3808 34.4758C53.3616 34.375 53.3328 34.31 53.3256 34.2249C53.2176 33.3289 53.2104 32.5539 53.2104 32.5539C53.1456 31.5683 53.124 31.1651 53.124 31.174C53.124 31.183 50.88 30.9344 50.2752 28.2464C49.9728 26.9024 50.0352 25.0723 50.1144 23.2624C50.2392 20.7536 52.0992 19.2393 54.2568 19.2416Z" fill="#6C4D3C"/>
<path d="M55.2 25.0432C55.2038 25.1337 55.2453 25.2193 55.3157 25.2816C55.3861 25.344 55.4798 25.3782 55.5768 25.3769C55.6243 25.3788 55.6718 25.3716 55.7162 25.3558C55.7607 25.3401 55.8013 25.3161 55.8356 25.2854C55.8699 25.2546 55.8972 25.2177 55.9158 25.1769C55.9345 25.136 55.9441 25.0921 55.944 25.0477C55.9409 24.9568 55.8996 24.8706 55.8292 24.8078C55.7587 24.745 55.6647 24.7104 55.5672 24.7117C55.5197 24.7105 55.4723 24.7182 55.428 24.7343C55.3836 24.7503 55.3432 24.7745 55.309 24.8054C55.2748 24.8363 55.2475 24.8732 55.2288 24.9141C55.2101 24.9549 55.2003 24.9988 55.2 25.0432Z" fill="#263238"/>
<path d="M51.3768 25.1373C51.3799 25.228 51.4212 25.3139 51.4918 25.3763C51.5623 25.4388 51.6564 25.4728 51.7536 25.471C51.8012 25.4722 51.8485 25.4645 51.8928 25.4484C51.9372 25.4323 51.9776 25.4081 52.0118 25.3773C52.046 25.3464 52.0733 25.3095 52.092 25.2686C52.1107 25.2278 52.1205 25.1839 52.1208 25.1395C52.1171 25.049 52.0756 24.9634 52.0052 24.9011C51.9348 24.8387 51.841 24.8045 51.744 24.8057C51.6964 24.8042 51.6489 24.8117 51.6044 24.8277C51.5599 24.8437 51.5193 24.8678 51.485 24.8988C51.4508 24.9297 51.4235 24.9668 51.4049 25.0077C51.3863 25.0487 51.3768 25.0928 51.3768 25.1373Z" fill="#263238"/>
<path d="M50.5056 23.968C50.5536 24.0128 50.8248 23.8044 51.2256 23.7865C51.6264 23.7686 51.9288 23.9411 51.9696 23.894C52.0104 23.847 51.9384 23.7932 51.8064 23.7126C51.6268 23.6087 51.4174 23.5587 51.2064 23.5692C50.9988 23.579 50.7998 23.6495 50.6376 23.7708C50.5176 23.8694 50.4816 23.9545 50.5056 23.968Z" fill="#263238"/>
<path d="M54.5736 23.8448C54.6288 23.8829 54.876 23.6499 55.272 23.5939C55.668 23.5379 55.992 23.6813 56.0256 23.6298C56.0592 23.5782 55.9824 23.5334 55.8408 23.4662C55.6527 23.38 55.4406 23.35 55.2336 23.3805C55.0265 23.411 54.8346 23.5004 54.684 23.6365C54.576 23.744 54.5496 23.8291 54.5736 23.8448Z" fill="#263238"/>
<path d="M53.1696 26.7321C52.9554 26.6812 52.7354 26.6549 52.5144 26.6537C52.4112 26.6537 52.3128 26.6335 52.2936 26.5708C52.278 26.4724 52.2965 26.372 52.3464 26.2841C52.4304 26.0601 52.5168 25.8025 52.608 25.5427C52.9728 24.4876 53.232 23.623 53.1864 23.6095C53.1408 23.5961 52.8072 24.4406 52.4424 25.4956C52.356 25.7555 52.272 26.0019 52.2024 26.2393C52.1437 26.3578 52.1318 26.4919 52.1688 26.6179C52.1858 26.6507 52.2107 26.6795 52.2415 26.702C52.2723 26.7245 52.3082 26.7402 52.3464 26.7478C52.4038 26.7603 52.4627 26.7655 52.5216 26.7635C52.7381 26.78 52.9561 26.7695 53.1696 26.7321Z" fill="#263238"/>
<path d="M53.1312 31.1695C54.5006 31.1263 55.8301 30.7284 56.9712 30.0204C56.9712 30.0204 56.0952 31.9423 53.1768 31.8124L53.1312 31.1695Z" fill="#684434"/>
<path d="M54.3816 22.6867C54.432 22.7808 54.7776 22.6867 55.2024 22.6867C55.6272 22.6867 55.98 22.7517 56.0208 22.6531C56.0376 22.6061 55.9632 22.5187 55.812 22.4426C55.617 22.3469 55.3986 22.3006 55.1784 22.3082C54.9611 22.3112 54.7487 22.3693 54.564 22.4762C54.4224 22.5501 54.3576 22.6397 54.3816 22.6867Z" fill="#263238"/>
<path d="M50.5632 23.296C50.6376 23.3789 50.9088 23.2781 51.24 23.2579C51.5712 23.2377 51.8568 23.2848 51.9168 23.1929C51.9432 23.1504 51.8928 23.0675 51.7656 22.9913C51.5962 22.9006 51.4007 22.8615 51.2064 22.8793C51.012 22.8905 50.8264 22.9587 50.676 23.0742C50.5632 23.1683 50.5296 23.2557 50.5632 23.296Z" fill="#263238"/>
<path d="M59.1504 25.9951C59.1504 25.9951 57.6 26.3423 55.4208 21.9519C54.6768 20.4556 53.2296 18.9481 53.2296 18.9481L54.588 18.7644C54.588 18.7644 58.632 19.8284 58.7016 19.8844C58.7712 19.9404 59.7216 21.8377 59.7216 21.8377L59.1504 25.9951Z" fill="#263238"/>
<path d="M58.644 25.8182C58.644 25.6166 58.86 25.1306 59.0712 25.088C59.6376 24.9805 60.6672 24.9738 60.7512 26.3245C60.864 28.1702 58.8528 27.8925 58.848 27.8432C58.8432 27.7939 58.68 26.5149 58.644 25.8182Z" fill="#6C4D3C"/>
<path d="M59.4072 27.1039C59.4072 27.1039 59.4432 27.1241 59.5008 27.1465C59.5419 27.1624 59.5859 27.1706 59.6304 27.1706C59.6749 27.1706 59.7189 27.1624 59.76 27.1465C59.964 27.0636 60.1224 26.7455 60.1104 26.4118C60.1048 26.2557 60.0622 26.1027 59.9856 25.9638C59.9627 25.9086 59.9258 25.8595 59.8782 25.8205C59.8306 25.7815 59.7736 25.7538 59.712 25.7398C59.672 25.7313 59.6301 25.7366 59.5939 25.7548C59.5577 25.7729 59.5298 25.8025 59.5152 25.8383C59.4912 25.8921 59.5152 25.9279 59.496 25.9302C59.4768 25.9324 59.4504 25.9033 59.4624 25.8249C59.4705 25.7786 59.496 25.7365 59.5344 25.7062C59.5864 25.6649 59.6535 25.644 59.7216 25.6479C59.804 25.6584 59.882 25.6887 59.9481 25.7359C60.0141 25.783 60.0659 25.8453 60.0984 25.9167C60.1911 26.0719 60.2429 26.2454 60.2496 26.423C60.2496 26.797 60.0768 27.1554 59.7936 27.2473C59.7417 27.2649 59.6862 27.2713 59.6313 27.2658C59.5764 27.2604 59.5236 27.2433 59.4768 27.2159C59.412 27.1554 59.4 27.1151 59.4072 27.1039Z" fill="#684434"/>
<path d="M60.216 28.1478C60.2136 28.2781 60.1701 28.4049 60.0907 28.5121C60.0114 28.6193 59.8999 28.7023 59.7702 28.7505C59.6405 28.7987 59.4984 28.8101 59.3618 28.7832C59.2252 28.7562 59.1002 28.6922 59.0024 28.5991C58.9047 28.5061 58.8387 28.3881 58.8126 28.2601C58.7865 28.1321 58.8015 27.9997 58.8558 27.8797C58.9101 27.7596 59.0012 27.6572 59.1177 27.5854C59.2342 27.5135 59.3708 27.4754 59.5104 27.4758C59.6042 27.4761 59.697 27.4938 59.7834 27.5278C59.8698 27.5619 59.9481 27.6116 60.0138 27.6741C60.0794 27.7366 60.1311 27.8107 60.1658 27.892C60.2005 27.9734 60.2176 28.0603 60.216 28.1478Z" fill="#455A64"/>
<path d="M64.4256 36.8211L63.8016 31.9827L59.3256 30.7216C59.2038 33.7295 58.7339 36.7164 57.924 39.63C59.579 40.1296 61.3278 40.2997 63.0576 40.1296C63.1344 39.35 63.2088 38.5616 63.2856 37.791C63.3984 38.3779 63.5088 38.9648 63.6216 39.5539C63.8489 39.4181 64.0418 39.2378 64.1869 39.0254C64.332 38.8131 64.4257 38.5737 64.4616 38.3241C64.5288 37.8242 64.5166 37.3177 64.4256 36.8211Z" fill="#263238"/>
<path d="M60.924 40.1407L60.9384 40.0802C60.9384 40.0377 60.9624 39.9794 60.9816 39.9033C61.0224 39.7465 61.08 39.5158 61.1544 39.2313C61.3008 38.6377 61.5168 37.782 61.728 36.7113C61.9837 35.4616 62.1441 34.1965 62.208 32.9257C62.2941 31.3679 62.1422 29.8067 61.7568 28.2889C61.3751 26.7689 60.67 25.336 59.6832 24.0754C59.5656 23.9343 59.4432 23.791 59.328 23.661C59.2128 23.5311 59.088 23.3922 58.9632 23.2713L58.7784 23.0876L58.5888 22.9129C58.464 22.7942 58.3344 22.6889 58.212 22.5746C57.708 22.1423 57.2184 21.7615 56.772 21.4031C56.3256 21.0447 55.9416 20.7154 55.6176 20.4063C55.5336 20.3302 55.4592 20.2518 55.3776 20.1823C55.296 20.1129 55.2336 20.0367 55.1688 19.9583C55.104 19.8799 55.044 19.8194 54.984 19.7567L54.8256 19.5663C54.72 19.4476 54.6432 19.3423 54.5712 19.2393C54.5091 19.1584 54.4515 19.0747 54.3984 18.9884C54.3552 18.9212 54.3216 18.8697 54.3 18.8316C54.2874 18.8145 54.2761 18.7965 54.2664 18.7778L54.3048 18.8294L54.408 18.9839C54.4536 19.0511 54.5088 19.1362 54.5856 19.2303C54.6624 19.3244 54.7392 19.4364 54.8424 19.5529L55.0032 19.741L55.1904 19.9404C55.2552 20.0098 55.3248 20.0815 55.3992 20.1532C55.4736 20.2249 55.5504 20.301 55.6392 20.3772C55.9656 20.6841 56.3592 21.0111 56.7984 21.3673C57.2376 21.7234 57.732 22.102 58.2384 22.5366C58.3632 22.6463 58.4928 22.7606 58.6176 22.8726L58.8096 23.0473L58.9968 23.2332C59.1264 23.3542 59.2368 23.4886 59.364 23.6207C59.4912 23.7529 59.604 23.8962 59.7216 24.0396C60.7158 25.3044 61.426 26.7437 61.8096 28.271C62.2013 29.7947 62.3565 31.363 62.2704 32.9279C62.2001 34.2015 62.0324 35.4689 61.7688 36.7202C61.5528 37.7887 61.3296 38.6444 61.176 39.2358C61.0992 39.5314 61.0368 39.7599 60.9936 39.9078L60.9432 40.0847C60.9312 40.1228 60.924 40.1407 60.924 40.1407Z" fill="#455A64"/>
<path d="M54.7632 27.3772C54.6956 27.3131 54.6119 27.2656 54.5198 27.239C54.4276 27.2124 54.3299 27.2076 54.2352 27.2249C54.0995 27.2413 53.9709 27.2916 53.8632 27.3704C53.7555 27.4493 53.6726 27.5538 53.6232 27.6729C53.5922 27.7796 53.6059 27.8934 53.6616 27.991C53.6976 28.038 53.6616 28.0156 53.724 28.0448C53.903 28.1585 54.1089 28.23 54.324 28.2531C54.4387 28.2578 54.5522 28.2302 54.6498 28.1739C54.7474 28.1176 54.8246 28.0351 54.8712 27.9372C54.9109 27.8438 54.9218 27.7418 54.9027 27.6429C54.8836 27.5439 54.8353 27.4519 54.7632 27.3772Z" fill="#684434"/>
<path d="M54.576 26.88C54.5112 26.88 54.5928 27.2899 54.2856 27.6416C53.9784 27.9933 53.5104 28.0336 53.5176 28.0896C53.5248 28.1456 53.6376 28.1478 53.832 28.1187C54.0844 28.0791 54.3138 27.9577 54.48 27.776C54.6374 27.599 54.7141 27.3713 54.6936 27.1421C54.672 26.9718 54.6048 26.88 54.576 26.88Z" fill="#263238"/>
<g opacity="0.31">
<path d="M56.8584 26.3178C56.8584 26.5642 56.3952 26.7658 55.8216 26.7658C55.248 26.7658 54.7848 26.5664 54.7848 26.3178C54.7848 26.0691 55.248 25.8698 55.8216 25.8698C56.3952 25.8698 56.8584 26.0736 56.8584 26.3178Z" fill="#EF9673"/>
</g>
<g opacity="0.31">
<path d="M51.756 26.3178C51.756 26.5642 51.4416 26.7658 51.0528 26.7658C50.664 26.7658 50.3472 26.5664 50.3472 26.3178C50.3472 26.0691 50.664 25.8698 51.0528 25.8698C51.4416 25.8698 51.756 26.0736 51.756 26.3178Z" fill="#EF9673"/>
</g>
<path d="M46.536 57.0594C46.536 57.0594 44.6544 63.1926 47.844 71.0303C51.0336 78.8681 52.8168 85.1423 52.9392 86.8291C53.0616 88.5158 53.2536 90.263 54.9312 95.6098C56.1576 99.5142 57.0624 101.848 57.0624 101.848C58.3344 102.52 59.6832 102.699 60.9024 102.05C60.9024 102.05 60.7824 92.7382 58.9416 86.4684C57.1008 80.1986 55.8408 70.3964 56.472 66.8527C57.1032 63.3091 55.7376 61.2953 55.7376 61.2953L46.536 57.0594Z" fill="#455A64"/>
<path d="M66.756 65.9142C67.98 60.3993 64.212 54.7612 64.212 54.7612L54.4032 62.2182C54.4032 62.2182 52.32 84.5376 53.5536 87.4316C54.7872 90.3257 60.6672 102.144 60.6672 102.144L64.6584 100.706C64.6584 100.706 63.5088 91.4972 62.1696 89.0579C61.2096 87.2995 59.6256 86.4639 60.3624 84.1724C61.0992 81.8809 65.76 70.4278 66.756 65.9142Z" fill="#455A64"/>
<path d="M46.4904 57.1804C46.4544 57.167 54.3144 62.5564 54.3144 62.5564L64.8528 55.8588L63.7656 53.8921C63.7656 53.8921 57.3744 56.047 54.5784 55.5071C51.7824 54.9673 48 53.8943 48 53.8943L46.4904 57.1804Z" fill="#455A64"/>
<path d="M51.6456 58.4796C51.6643 58.4983 51.6812 58.5186 51.696 58.5401L51.84 58.726C51.9672 58.894 52.1496 59.1359 52.3848 59.4518L54.432 62.198V62.2092C54.3336 63.2396 54.2952 64.4335 54.2256 65.7641C54.156 67.0947 54.084 68.5596 54.0048 70.1321C53.9256 71.7046 53.8224 73.3846 53.724 75.1475C53.6256 76.9103 53.5128 78.7494 53.3256 80.6444C53.1288 82.2124 52.9536 83.767 53.1 85.2543C53.133 85.6225 53.1858 85.9888 53.2584 86.3519C53.3239 86.7081 53.4178 87.0593 53.5392 87.4025C53.8056 88.0745 54.1176 88.7174 54.4104 89.3468C55.6104 91.8623 56.7192 94.1113 57.648 96.0041C58.5768 97.8969 59.328 99.4179 59.8608 100.484C60.1176 101.01 60.3192 101.418 60.4584 101.703C60.5232 101.839 60.576 101.945 60.612 102.021C60.648 102.097 60.66 102.13 60.66 102.13L60.6 102.025L60.4368 101.712C60.2928 101.432 60.084 101.024 59.8152 100.504L57.5664 96.0422C56.628 94.1561 55.5024 91.9116 54.3048 89.3939C54.0096 88.7644 53.7 88.1238 53.4264 87.4428C53.302 87.0948 53.2065 86.7383 53.1408 86.3766C53.0656 86.0106 53.0111 85.6413 52.9776 85.27C52.8288 83.767 53.004 82.2102 53.2008 80.6355C53.388 78.7494 53.4864 76.9036 53.6016 75.1452C53.7168 73.3868 53.8008 71.7046 53.892 70.1321C53.9832 68.5596 54.06 67.0947 54.132 65.7641C54.204 64.4335 54.252 63.2396 54.3576 62.2092V62.2316L52.3392 59.4652L51.8088 58.7305L51.6744 58.5401C51.663 58.5207 51.6533 58.5005 51.6456 58.4796Z" fill="#263238"/>
<path d="M59.484 22.9554C59.484 22.9554 59.3808 27.31 60.0336 30.2242L60.252 31.1964C60.252 31.1964 63.36 32.6098 65.5608 32.2402L66.2808 27.6572L59.484 22.9554Z" fill="#263238"/>
<path d="M71.6184 22.848C70.6032 20.9686 69.8088 18.6906 67.692 17.7946C66.1224 17.1226 64.5504 17.2032 62.892 17.649C62.076 17.873 61.2384 18.4352 60.6192 18.9773C59.772 19.721 59.6304 20.8701 59.4048 21.9363C58.956 24.071 59.7552 26.6403 60.588 27.2182L70.284 29.4986C71.784 28.2755 72.7704 27.7066 72.4872 25.5024C72.3649 24.5772 72.0709 23.679 71.6184 22.848Z" fill="#263238"/>
<path d="M68.016 19.4028L62.22 19.1429C60.4152 19.302 59.6808 21.5532 59.928 23.2287C60.204 25.0901 60.6168 27.3525 61.1472 28.6786C62.2152 31.3465 64.5552 31.2703 64.5552 31.2703C64.5552 31.2703 64.572 31.3106 64.7664 32.126L65.052 33.4543C65.1571 33.9948 65.463 34.4834 65.916 34.8341C66.9672 35.6181 68.4528 35.4165 70.0128 34.4332C70.9152 33.8642 70.7592 33.3557 70.644 32.061L69.204 19.8709C69.053 19.7186 68.8689 19.5981 68.6641 19.5173C68.4592 19.4366 68.2383 19.3976 68.016 19.4028Z" fill="#7E4E3F"/>
<path d="M61.0752 25.4218C61.0944 25.5142 61.1517 25.5959 61.2346 25.6495C61.3176 25.7031 61.4197 25.7242 61.5192 25.7085C61.5681 25.703 61.6154 25.6884 61.6582 25.6656C61.701 25.6428 61.7385 25.6122 61.7685 25.5757C61.7984 25.5392 61.8203 25.4974 61.8327 25.4529C61.8451 25.4084 61.8479 25.362 61.8408 25.3165C61.8215 25.2239 61.7644 25.142 61.6815 25.088C61.5986 25.0341 61.4965 25.0124 61.3968 25.0275C61.3478 25.0333 61.3004 25.0481 61.2576 25.0712C61.2148 25.0942 61.1773 25.125 61.1474 25.1617C61.1174 25.1984 61.0956 25.2403 61.0832 25.2849C61.0708 25.3296 61.0681 25.3761 61.0752 25.4218Z" fill="#263238"/>
<path d="M60.72 24.7945C60.7776 24.8303 61.0224 24.5705 61.44 24.5033C61.8576 24.4361 62.1864 24.5615 62.2224 24.5033C62.2584 24.445 62.172 24.4047 62.0232 24.3398C61.8218 24.2598 61.599 24.2394 61.3848 24.2815C61.1726 24.3206 60.9792 24.4219 60.8328 24.5705C60.72 24.687 60.6888 24.7788 60.72 24.7945Z" fill="#263238"/>
<path d="M64.656 24.7653C64.6753 24.8578 64.7325 24.9395 64.8155 24.9931C64.8984 25.0467 65.0006 25.0678 65.1 25.0521C65.1487 25.0463 65.1957 25.0315 65.2383 25.0086C65.2808 24.9857 65.318 24.9551 65.3478 24.9186C65.3775 24.8821 65.3991 24.8404 65.4114 24.796C65.4236 24.7517 65.4263 24.7054 65.4192 24.6601C65.4005 24.5678 65.3438 24.4861 65.2612 24.4325C65.1786 24.3789 65.0768 24.3576 64.9776 24.3733C64.9285 24.3785 64.8811 24.3929 64.8381 24.4156C64.7952 24.4384 64.7575 24.4689 64.7275 24.5055C64.6975 24.5421 64.6757 24.584 64.6634 24.6286C64.6511 24.6733 64.6486 24.7198 64.656 24.7653Z" fill="#263238"/>
<path d="M64.6992 23.9344C64.7568 23.9725 65.0016 23.7104 65.4192 23.6432C65.8368 23.576 66.1656 23.7015 66.2016 23.6432C66.2376 23.585 66.1536 23.5447 66.0024 23.4819C65.8017 23.3999 65.5784 23.3787 65.364 23.4215C65.1518 23.4606 64.9584 23.5618 64.812 23.7104C64.6968 23.8269 64.6728 23.9187 64.6992 23.9344Z" fill="#263238"/>
<path d="M63.7656 26.7366C63.5371 26.7137 63.3064 26.7182 63.0792 26.75C62.9736 26.75 62.8704 26.75 62.8392 26.6963C62.8066 26.5978 62.8066 26.4924 62.8392 26.3939C62.8872 26.1408 62.9352 25.8742 62.988 25.5964C63.1872 24.463 63.3072 23.5379 63.2592 23.5312C63.2112 23.5244 63.0192 24.4272 62.8104 25.5718C62.7648 25.8496 62.7192 26.1161 62.676 26.3715C62.6369 26.5013 62.647 26.6398 62.7048 26.7635C62.7275 26.7946 62.7574 26.8207 62.7923 26.8396C62.8272 26.8586 62.8662 26.8701 62.9064 26.8732C62.9669 26.8805 63.0282 26.8805 63.0888 26.8732C63.3196 26.8542 63.547 26.8083 63.7656 26.7366Z" fill="#263238"/>
<path d="M64.5432 31.2727C65.9382 31.0301 67.2336 30.4307 68.2848 29.5411C68.2848 29.5411 67.7256 31.6557 64.7136 31.9559L64.5432 31.2727Z" fill="#6F4439"/>
<path d="M65.2944 27.2765C65.2243 27.21 65.1376 27.1609 65.042 27.1335C64.9465 27.1062 64.8452 27.1014 64.7472 27.1197C64.6092 27.1355 64.4782 27.1853 64.3677 27.264C64.2571 27.3428 64.1711 27.4476 64.1184 27.5677C64.0857 27.678 64.0994 27.7958 64.1568 27.8969C64.1952 27.9462 64.1688 27.9238 64.2216 27.9507C64.4051 28.0718 64.6178 28.1487 64.8408 28.1747C64.9588 28.1794 65.0757 28.151 65.1762 28.0931C65.2768 28.0352 65.3564 27.9505 65.4048 27.8499C65.4448 27.7541 65.4557 27.6499 65.4362 27.5487C65.4167 27.4475 65.3676 27.3533 65.2944 27.2765Z" fill="#6F4439"/>
<path d="M65.0976 26.7724C65.0328 26.7724 65.1168 27.1958 64.8 27.5587C64.4832 27.9216 64.0008 27.9619 64.0104 28.0201C64.02 28.0784 64.1328 28.0806 64.332 28.0492C64.5928 28.0059 64.8285 27.8773 64.9968 27.6864C65.1588 27.5043 65.2389 27.2706 65.22 27.0345C65.1984 26.8576 65.1288 26.7657 65.0976 26.7724Z" fill="#263238"/>
<path d="M64.188 22.5904C64.2432 22.6889 64.6464 22.5904 65.148 22.5747C65.6496 22.559 66.048 22.6352 66.108 22.5321C66.1296 22.4851 66.048 22.3955 65.868 22.3081C65.64 22.2137 65.3921 22.1685 65.1428 22.1758C64.8935 22.1832 64.6491 22.243 64.428 22.3507C64.2384 22.4492 64.1616 22.5433 64.188 22.5904Z" fill="#263238"/>
<path d="M60.4176 23.67C60.5184 23.7394 60.8088 23.5826 61.1832 23.4998C61.5576 23.4169 61.8912 23.4079 61.9416 23.3026C61.9632 23.2534 61.8912 23.1772 61.7328 23.1257C61.5181 23.0673 61.2899 23.0673 61.0752 23.1257C60.8581 23.1727 60.6604 23.2778 60.5064 23.4281C60.396 23.5378 60.372 23.6364 60.4176 23.67Z" fill="#263238"/>
<path d="M62.124 18.854V18.9145C62.1229 18.8943 62.1229 18.8742 62.124 18.854Z" fill="#263238"/>
<path d="M69.3888 31.3398C69.2856 30.6029 68.7888 29.9555 68.6904 29.2185C68.5872 28.439 68.9448 27.6685 68.9688 26.8845C69.0048 25.6256 68.2032 24.4787 67.7112 23.3005C66.9378 23.3541 66.17 23.1431 65.5512 22.7069C64.7976 22.2029 64.236 21.4928 63.6864 20.7939C63.9105 21.5568 64.3836 22.2356 65.04 22.736C64.8815 22.7968 64.71 22.8222 64.5392 22.8101C64.3683 22.7981 64.2029 22.7489 64.056 22.6665C63.7637 22.4986 63.512 22.2759 63.3168 22.0125C62.8156 21.3896 62.4421 20.6856 62.2152 19.936C62.3871 21.0374 62.8013 22.0937 63.432 23.0384C63.2111 23.0513 62.9958 23.1086 62.8008 23.2064C62.7033 23.2546 62.5953 23.2814 62.485 23.2845C62.3748 23.2876 62.2652 23.267 62.1648 23.2243C62.0468 23.14 61.9562 23.0268 61.9032 22.8973C61.4652 22.0348 61.1868 21.1093 61.08 20.16C60.932 20.715 60.842 21.2822 60.8112 21.8534C60.7831 22.4278 60.9278 22.9981 61.2288 23.4998C61.1916 23.5554 61.1325 23.5951 61.0642 23.6102C60.9959 23.6253 60.9239 23.6146 60.864 23.5805C60.7495 23.5061 60.665 23.398 60.624 23.2736C60.4536 22.8221 60.3636 22.3477 60.3576 21.8691C60.192 22.4179 60.2424 23.0025 60.2184 23.5737C60.1944 24.1449 60.0816 24.752 59.664 25.1709C59.3944 24.4924 59.2327 23.7807 59.184 23.0585C59.1662 22.4469 59.2413 21.8361 59.4072 21.2441C59.5397 20.5992 59.8054 19.9844 60.1896 19.4342C60.8688 18.5382 61.308 18.7622 61.9296 18.8966H62.0016V18.8585V18.7421C63.3653 18.114 64.8842 17.8378 66.4008 17.9424C67.5216 18.023 68.0448 17.9782 68.8008 18.7488C68.8152 18.7645 68.9736 18.6189 68.988 18.6345C70.7496 20.4265 73.0512 23.5334 74.46 28.6854L69.3888 31.3398Z" fill="#263238"/>
<path d="M68.04 15.3372C67.7258 15.1135 67.3487 14.9799 66.9546 14.9524C66.5605 14.925 66.1663 15.005 65.82 15.1827C65.3952 15.4067 65.0448 15.8166 65.076 16.2691C65.1168 16.912 65.8608 17.3376 66.0072 17.9648L66.7656 18.3881C67.1597 18.4244 67.5557 18.34 67.8939 18.1476C68.232 17.9553 68.4939 17.6654 68.64 17.3219C68.7712 16.9737 68.7839 16.5962 68.6765 16.2409C68.5691 15.8857 68.3468 15.5701 68.04 15.3372Z" fill="#263238"/>
<path d="M68.9328 18.5919C68.3766 18.2443 67.7878 17.9444 67.1736 17.6959C66.5445 17.4887 65.891 17.3526 65.2272 17.2905C65.4238 17.2642 65.6234 17.2642 65.82 17.2905C66.2993 17.3308 66.7702 17.4333 67.2192 17.5951C67.6669 17.757 68.091 17.9707 68.4816 18.2313C68.6498 18.3307 68.8017 18.4521 68.9328 18.5919Z" fill="#455A64"/>
<g opacity="0.3">
<path d="M66.9264 25.2426C66.996 25.48 66.6048 25.7869 66.0528 25.928C65.5008 26.0691 64.9944 25.9907 64.9248 25.7533C64.8552 25.5159 65.2488 25.209 65.8008 25.0813C66.3528 24.9536 66.8568 25.0074 66.9264 25.2426Z" fill="#6F4439"/>
</g>
<g opacity="0.3">
<path d="M62.2584 26.432C62.328 26.6694 62.0784 26.9405 61.704 27.0346C61.3296 27.1286 60.9672 27.0166 60.8976 26.7792C60.828 26.5418 61.0776 26.2729 61.452 26.1766C61.8264 26.0803 62.1888 26.1945 62.2584 26.432Z" fill="#6F4439"/>
</g>
<path d="M70.6032 31.7094C70.7592 31.9535 74.976 32.9526 75.684 34.9686C76.392 36.9846 72.7176 45.0306 72.804 46.6166C72.8904 48.2025 75.396 52.1583 75.3264 52.7564C75.0144 55.534 66.6864 57.3954 63.516 54.6962L61.86 34.8946L63.6768 33.1721L64.7736 32.1327C64.7736 32.1327 65.4384 33.9247 66.9744 33.9561C68.4144 33.9807 70.6104 31.7161 70.6104 31.7161L70.6032 31.7094Z" fill="#A9A9A9"/>
<path d="M75.276 42.2128C75.5664 42.2778 70.3536 51.2445 69.0624 52.1136C67.7712 52.9827 66.9624 52.9805 66.9624 52.9805L66.6696 48.4086L67.6152 47.936L70.092 41.328C70.092 41.328 73.572 41.8253 75.276 42.2128Z" fill="#7E4E3F"/>
<path d="M74.1792 33.3401C74.1792 33.3401 75.912 34.3996 76.176 35.4569C76.8072 37.9769 75.3768 42.6383 75.3768 42.6383L69.6384 41.7423L71.712 37.0674L74.1792 33.3401Z" fill="#A9A9A9"/>
<path d="M69.7392 40.6201C69.7376 40.5022 69.7481 40.3845 69.7704 40.2684C69.8191 39.9518 69.8856 39.6377 69.9696 39.3276C70.407 37.7322 71.2575 36.2615 72.4464 35.0447C72.7812 34.6778 73.2049 34.3906 73.6824 34.207C74.0107 34.0907 74.3694 34.0719 74.7096 34.1532C74.8009 34.1756 74.8888 34.2087 74.9712 34.2518C75.0003 34.2651 75.027 34.2824 75.0504 34.3033C75.0504 34.3145 74.9304 34.2451 74.6976 34.1958C74.3672 34.1365 74.0255 34.1676 73.7136 34.2854C73.255 34.4732 72.8498 34.7586 72.5304 35.1187C72.1196 35.548 71.7472 36.008 71.4168 36.494C70.8169 37.3792 70.3585 38.3413 70.056 39.35C69.936 39.7375 69.8688 40.0556 69.816 40.2774C69.7999 40.3933 69.7742 40.5079 69.7392 40.6201Z" fill="#263238"/>
<path d="M62.1024 17.9021C61.7342 18.1384 61.3845 18.3989 61.056 18.6816C60.2804 19.3814 59.7301 20.2699 59.4672 21.2464C59.1456 22.391 59.376 23.4864 59.4048 24.2458C59.436 24.6154 59.4624 24.9178 59.484 25.1619C59.5025 25.273 59.5097 25.3855 59.5056 25.4979C59.4719 25.3896 59.4486 25.2786 59.436 25.1664C59.4 24.9424 59.3568 24.64 59.316 24.2525C59.2752 23.865 59.232 23.4058 59.1912 22.8928C59.1048 21.7617 59.4066 20.6342 60.0528 19.6739C60.3168 19.2862 60.6338 18.9322 60.996 18.6211C61.239 18.4118 61.5026 18.2243 61.7832 18.0611C61.8816 18.0029 61.9608 17.9626 62.0232 17.9357C62.0856 17.9088 62.1024 17.8976 62.1024 17.9021Z" fill="#455A64"/>
<path d="M62.5512 40.1363L63.7656 33.3894L59.2056 32.303C59.2056 32.303 56.6256 34.6348 55.0992 34.4265C53.2752 34.1756 53.0208 33.0825 53.0208 33.0825C53.0208 33.0825 50.6016 33.8038 50.3448 33.7881C49.344 33.7254 48.0048 39.7331 47.8536 41.7132C47.7024 43.6934 49.7736 48.5788 49.7736 48.5788L47.52 53.4262C47.52 53.4262 50.22 56.8713 53.928 56.8175C59.6352 56.7347 64.56 54.2079 64.56 54.2079L62.5512 40.1363Z" fill="#E0E0E0"/>
<path d="M57.6888 55.0838C57.5926 55.1354 57.4914 55.1781 57.3864 55.2115C57.2673 55.2607 57.1446 55.3019 57.0192 55.3347C56.8554 55.3855 56.6887 55.4282 56.52 55.4624C56.3167 55.5082 56.1108 55.5434 55.9032 55.5677C55.6824 55.6013 55.44 55.6102 55.1832 55.6259C54.0781 55.6585 52.9791 55.4595 51.9672 55.0435C51.7272 54.9405 51.5184 54.8486 51.324 54.7389C51.1413 54.6454 50.9649 54.5414 50.796 54.4275C50.6523 54.3374 50.5145 54.2394 50.3832 54.1341C50.2806 54.0605 50.1836 53.9804 50.0928 53.8944C50.0042 53.8283 49.9237 53.7531 49.8528 53.6704C49.872 53.6525 50.2008 53.9706 50.832 54.3603C51.0026 54.4683 51.1796 54.5671 51.3624 54.656C51.5544 54.7613 51.7752 54.8486 52.0008 54.9472C52.5005 55.1439 53.0199 55.2939 53.5512 55.3952C54.0839 55.4869 54.6248 55.5304 55.1664 55.5251C55.4064 55.5117 55.6464 55.5094 55.8744 55.4781C56.08 55.4583 56.2842 55.4284 56.4864 55.3885C57.2448 55.2406 57.6792 55.0592 57.6888 55.0838Z" fill="#263238"/>
<path d="M45.3336 33.0713C45.3336 33.0713 43.0392 33.9426 44.0688 36.4313C45.0504 38.8057 52.8552 41.4735 52.8552 41.4735L54.5496 38.2726L48.24 33.9942L45.3336 33.0713Z" fill="#7E4E3F"/>
<path d="M46.3776 41.3279C46.1856 41.2854 46.1256 38.295 46.3776 37.0585C46.6296 35.822 46.7832 34.6975 47.0352 34.2249C47.2872 33.7522 48.2472 33.078 48.6768 33.1743C49.1064 33.2706 49.104 33.5058 49.104 33.5058C49.104 33.5058 49.584 33.246 49.9392 33.3401C50.0443 33.3726 50.1376 33.4317 50.2088 33.5108C50.28 33.5899 50.3262 33.6859 50.3424 33.7881C50.4487 33.805 50.5503 33.8414 50.6413 33.8952C50.7324 33.949 50.8111 34.0192 50.8728 34.1017C51.0405 34.3032 51.1294 34.5522 51.1248 34.8073C51.1248 34.8073 51.6792 35.1858 51.7056 35.5151C51.732 35.8444 49.836 38.8482 49.5336 38.9378L49.3608 39.2671L49.4832 41.2406L46.3776 41.3279Z" fill="#6C4D3C"/>
<path d="M46.272 39.9795C46.272 39.9795 45.8928 45.6131 45.852 47.1072C45.8112 48.6013 46.1376 52.4653 47.9424 52.7341C49.7472 53.0029 49.6224 49.9386 49.8624 48.0637C50.1024 46.1888 49.3512 39.76 49.3512 39.76L46.272 39.9795Z" fill="#6C4D3C"/>
<path d="M49.5216 39.8719C48.4224 40.8665 48.12 42.4502 48.4008 43.8591C48.6816 45.2681 49.4592 46.5471 50.268 47.7545" fill="#E0E0E0"/>
<path d="M50.8584 47.7366C50.8584 47.7366 50.8272 47.7254 50.772 47.6941C50.7168 47.6627 50.6328 47.6157 50.532 47.5462C50.2521 47.3531 49.9926 47.1356 49.7568 46.8966C48.9646 46.1044 48.4432 45.1097 48.2594 44.0396C48.0756 42.9696 48.2376 41.8727 48.7248 40.889C48.8692 40.5926 49.0436 40.3098 49.2456 40.0445C49.3152 39.9504 49.38 39.8832 49.4184 39.8362C49.4568 39.7891 49.4832 39.7667 49.488 39.769C49.23 40.1361 49.0022 40.521 48.8064 40.9203C48.3506 41.8943 48.2039 42.9699 48.3839 44.0194C48.5639 45.0689 49.0629 46.0481 49.8216 46.8406C50.1421 47.1636 50.4887 47.4632 50.8584 47.7366Z" fill="#263238"/>
<path d="M49.1784 33.5552C49.1784 33.5888 48.9168 33.6604 48.672 33.8665C48.4272 34.0726 48.3096 34.3145 48.276 34.2944C48.2846 34.1924 48.317 34.0935 48.3709 34.0045C48.4248 33.9155 48.4989 33.8386 48.588 33.7792C48.6636 33.7047 48.7554 33.6461 48.8572 33.6075C48.9591 33.5689 49.0686 33.551 49.1784 33.5552Z" fill="#684434"/>
<path d="M50.364 33.8575C50.3808 33.8889 50.124 34.0188 49.8624 34.2451C49.6008 34.4713 49.4448 34.6931 49.4112 34.6931C49.4849 34.4914 49.6113 34.31 49.7789 34.1653C49.9465 34.0207 50.15 33.9172 50.3712 33.8643L50.364 33.8575Z" fill="#684434"/>
<path d="M51.1968 34.8678C51.2088 34.8992 51.0576 34.9709 50.9112 35.0918C50.7648 35.2128 50.6712 35.3494 50.6376 35.336C50.604 35.3225 50.6544 35.1501 50.8272 35.0045C51 34.8589 51.1872 34.8365 51.1968 34.8678Z" fill="#684434"/>
<path d="M55.1232 38.3442C55.1232 38.3442 59.3376 39.1484 59.6424 39.4127C59.9472 39.677 59.868 43.0505 59.868 43.0505C59.868 43.0505 58.464 44.2556 58.464 44.3094C58.464 44.3631 55.0248 43.7762 55.0248 43.7762L53.04 42.607V39.7151L55.1232 38.3442Z" fill="#7E4E3F"/>
<path d="M63.432 33.3043C64.1174 33.4543 64.7454 33.7773 65.2474 34.2379C65.7494 34.6986 66.1061 35.2791 66.2784 35.9162C66.9432 38.1741 68.8128 48.1286 68.8128 48.1286C68.8128 48.1286 63.4248 49.8221 61.5744 48.4064C61.5744 48.4064 60.348 39.6368 60.2544 38.9267C60.1608 38.2166 59.5416 33.7478 63.432 33.3043Z" fill="#E0E0E0"/>
<g opacity="0.3">
<path d="M66.7848 52.3689C64.9721 51.5706 63.2277 50.6435 61.5672 49.5958L53.0712 45.631C54.0392 47.4912 55.2483 49.2335 56.6712 50.8188C58.1112 52.3756 59.8944 53.7039 61.9368 54.4902C62.9808 54.8889 64.1616 55.1443 65.2296 54.8083C66.2976 54.4723 67.1328 53.3679 66.7848 52.3689Z" fill="black"/>
</g>
<path d="M55.1712 43.8615C55.3128 44.0855 61.5744 48.4064 61.5744 48.4064C62.9304 49.2531 65.0376 48.9709 67.4088 48.5027C67.4088 48.5027 68.4048 53.2067 66.6504 54.0019C64.896 54.7971 64.4208 54.7098 62.2392 53.8675C60.0576 53.0253 53.04 45.4563 53.04 45.4563L55.1712 43.8615Z" fill="#6C4D3C"/>
<path d="M59.1576 38.9423C59.184 39.0275 60.2424 40.1609 60.444 40.8127C60.6456 41.4646 60.4992 44.0115 60.4992 44.0115L61.3008 46.3836L61.5744 48.3996C61.5744 48.3996 57.792 46.2985 56.9328 45.1606C56.0736 44.0227 55.4736 43.3529 55.4736 43.3529L54.96 40.3199L55.5672 38.0083H56.2872C56.2872 38.0083 56.2872 38.7139 56.256 39.0611C56.2248 39.4083 56.2872 40.1094 56.2872 40.1094L56.7384 40.7612L56.9784 41.0143C56.9784 41.0143 56.7984 39.2895 56.7984 39.1843C56.7984 39.079 56.9568 37.8828 56.9568 37.8828L57.9024 38.1068L57.9888 39.182L58.7088 41.3055L59.6544 42.4412L59.1552 40.8732C59.1552 40.8732 58.4832 39.8652 58.572 39.5068C58.6608 39.1484 59.1576 38.9423 59.1576 38.9423Z" fill="#7E4E3F"/>
<path d="M53.04 45.4563C52.728 44.8646 52.5483 44.2198 52.512 43.5612C52.4304 42.3785 52.3776 39.4822 52.6344 38.9804C52.8912 38.4787 55.2096 37.2691 55.6128 37.3184C56.016 37.3676 57.6624 37.7462 57.9048 38.0979C58.1472 38.4496 57.852 38.8281 57.2856 38.678L55.7712 38.304L54.4752 38.9334L53.964 39.9907L54.3144 40.2931C54.3144 40.2931 55.0344 39.2112 55.2144 39.0096C55.3944 38.808 55.824 38.3555 56.148 38.8595C56.472 39.3635 56.0928 39.4374 55.932 40.0422C55.7712 40.647 55.4208 41.5273 55.4208 41.5273C55.4208 41.5273 55.5816 42.9094 55.4736 43.3641C55.4543 43.4845 55.4069 43.5995 55.3347 43.7009C55.2626 43.8023 55.1674 43.8877 55.056 43.951L53.04 45.4563Z" fill="#6C4D3C"/>
<path d="M53.5632 38.5929C53.5632 38.5929 53.3832 37.9321 53.7648 37.679C54.1464 37.4259 55.1016 36.7292 55.2048 36.7292C55.308 36.7292 58.1856 37.3228 58.2408 37.6611C58.296 37.9993 57.804 38.1696 57.804 38.1696L55.752 37.7798L53.5632 38.5929Z" fill="#6C4D3C"/>
<path d="M56.8152 38.9759C56.7432 38.8863 56.6712 37.2937 56.8152 36.9711C56.9592 36.6486 57.0552 36.5478 57.396 36.5634C57.7368 36.5791 57.8136 37.3631 57.8136 37.7686C57.8415 38.1651 57.9025 38.5591 57.996 38.9468L56.8152 38.9759Z" fill="#7E4E3F"/>
<path d="M55.4736 43.3596C55.5575 43.4255 55.6324 43.5008 55.6968 43.5836C55.8336 43.7315 56.0232 43.951 56.2536 44.2265C56.484 44.502 56.7336 44.8403 57.0384 45.2054C57.385 45.5793 57.7746 45.9165 58.2 46.2111C59.0976 46.8607 59.9616 47.3871 60.5832 47.7791L61.3224 48.2271C61.4157 48.278 61.5041 48.3365 61.5864 48.4019C61.4847 48.3669 61.3874 48.3218 61.296 48.2675C61.1136 48.1711 60.852 48.03 60.5352 47.8463C59.7064 47.3745 58.9052 46.8615 58.1352 46.3097C57.7014 46.0087 57.306 45.6622 56.9568 45.2771L56.1936 44.2825L55.6704 43.6105C55.5975 43.5321 55.5316 43.4482 55.4736 43.3596Z" fill="#6F4439"/>
<path d="M60.4992 44.0115C60.4931 43.9759 60.4931 43.9396 60.4992 43.904C60.4992 43.8211 60.4992 43.7181 60.4992 43.5949C60.4992 43.3238 60.5112 42.9229 60.5112 42.448C60.5112 42.2038 60.5112 41.9373 60.4944 41.6506C60.4944 41.5072 60.4776 41.3571 60.4608 41.2026C60.4498 41.05 60.4175 40.8994 60.3648 40.7546C60.2232 40.4422 60.041 40.1473 59.8224 39.8765C59.712 39.7286 59.5968 39.583 59.4744 39.4285C59.4144 39.3546 59.352 39.2806 59.292 39.2045L59.1984 39.0902L59.1504 39.032C59.1306 39.0077 59.1137 38.9814 59.1 38.9536L59.184 38.9917C59.0407 39.0509 58.9105 39.1344 58.8 39.2381C58.744 39.2856 58.7002 39.3443 58.6719 39.4099C58.6436 39.4755 58.6316 39.5461 58.6368 39.6166C58.6839 39.8355 58.7647 40.0467 58.8768 40.2438C58.979 40.441 59.092 40.6331 59.2152 40.8195L59.5776 42.2397L59.6376 42.4794L59.4792 42.2845C59.1864 41.9306 58.9152 41.6013 58.6704 41.3011C58.4712 40.6291 58.3056 40.0691 58.1904 39.6659C58.1376 39.4822 58.0968 39.3322 58.0656 39.2179C58.0469 39.1664 58.0348 39.113 58.0296 39.0589C58.0561 39.1075 58.077 39.1585 58.092 39.2112L58.2432 39.6592C58.3728 40.0579 58.5504 40.6112 58.7688 41.281V41.2675C59.0208 41.5632 59.2944 41.8902 59.592 42.2419L59.4936 42.2845L59.1192 40.8666V40.8822C58.9968 40.6963 58.8792 40.5014 58.7736 40.2954C58.6577 40.084 58.5768 39.8574 58.5336 39.6234C58.5266 39.5357 58.5409 39.4476 58.5753 39.3658C58.6098 39.284 58.6637 39.2104 58.7328 39.1507C58.8547 39.0354 58.9988 38.9427 59.1576 38.8774L59.2008 38.9267H59.2368L59.2584 38.9536L59.304 39.0118L59.3952 39.1238L59.58 39.3478C59.7 39.4979 59.82 39.6458 59.928 39.7958C60.1485 40.0768 60.3322 40.3814 60.4752 40.703C60.5294 40.8583 60.5617 41.0194 60.5712 41.1824C60.5856 41.3392 60.5928 41.4893 60.5976 41.6304C60.5976 41.9216 60.5976 42.1882 60.5976 42.4323C60.5976 42.9206 60.5664 43.3104 60.5472 43.5792C60.5472 43.7046 60.5304 43.8032 60.5232 43.8883C60.5203 43.9301 60.5123 43.9715 60.4992 44.0115Z" fill="#6F4439"/>
<path d="M56.796 39.1731C56.8436 39.344 56.8741 39.5188 56.8872 39.695C56.9304 40.022 56.9832 40.4767 57.036 40.9964L57.0552 41.1667L56.9304 41.0412L56.6904 40.7903L56.6304 40.7052L56.2416 40.1385V40.1251V40.0959C56.2114 39.7104 56.2114 39.3234 56.2416 38.9379C56.2415 38.7872 56.2592 38.6369 56.2944 38.4899C56.319 38.638 56.3262 38.7882 56.316 38.9379C56.316 39.2201 56.328 39.6099 56.364 40.0825V40.0579L56.7576 40.6223L56.8176 40.7075L57.0576 40.9606L56.952 41.0054C56.9016 40.4812 56.8656 40.022 56.844 39.695C56.8098 39.5229 56.7938 39.3481 56.796 39.1731Z" fill="#6F4439"/>
<path d="M58.0176 39.1193C57.9817 39.0486 57.9581 38.973 57.948 38.8953C57.9144 38.7542 57.8688 38.5503 57.8232 38.2972C57.8016 38.1695 57.78 38.0284 57.768 37.8761C57.756 37.7238 57.768 37.5647 57.7392 37.3967C57.7244 37.2236 57.6898 37.0524 57.636 36.886C57.6102 36.8037 57.5661 36.7273 57.5064 36.662C57.4815 36.6342 57.4465 36.6158 57.408 36.6105C57.3617 36.606 57.3151 36.606 57.2688 36.6105C57.224 36.6096 57.1794 36.6175 57.1381 36.6337C57.0967 36.6499 57.0595 36.674 57.0288 36.7046C56.971 36.7726 56.9241 36.848 56.8896 36.9286C56.8291 37.0898 56.7983 37.2595 56.7984 37.4303C56.7816 37.7663 56.7864 38.0732 56.7984 38.3263C56.8104 38.5795 56.7984 38.7743 56.7984 38.9334C56.8093 39.0077 56.8093 39.0831 56.7984 39.1574C56.7718 39.0853 56.758 39.0096 56.7576 38.9334C56.7408 38.79 56.7216 38.5817 56.7072 38.3241C56.6928 38.0665 56.6808 37.7619 56.6904 37.4281C56.6869 37.2429 56.7186 37.0586 56.784 36.8838C56.8224 36.7904 56.8767 36.7034 56.9448 36.6262C56.9845 36.5843 57.0333 36.5507 57.0879 36.5275C57.1425 36.5044 57.2016 36.4922 57.2616 36.4918C57.3182 36.4852 57.3754 36.4852 57.432 36.4918C57.4956 36.5014 57.5539 36.5305 57.5976 36.5747C57.67 36.6526 57.7233 36.7443 57.7536 36.8435C57.8101 37.0184 57.8447 37.1988 57.8568 37.3811C57.8736 37.5491 57.8688 37.7193 57.8736 37.8627C57.8784 38.006 57.8976 38.1516 57.9144 38.2793C57.9792 38.8012 58.0368 39.1171 58.0176 39.1193Z" fill="#6F4439"/>
<path d="M63.6168 33.7814C63.388 33.8008 63.1605 33.8314 62.9352 33.8732C62.3238 34.0061 61.7654 34.2982 61.3248 34.7155C61.0273 35.0049 60.7839 35.3388 60.6048 35.7033C60.5568 35.8019 60.516 35.9049 60.468 36.008C60.42 36.111 60.3912 36.232 60.3528 36.3305C60.2974 36.5604 60.2787 36.7967 60.2976 37.0317C60.3264 38.0128 60.4464 39.0924 60.5712 40.2214C60.8304 42.4838 61.1112 44.5267 61.2912 46.0073C61.3848 46.7376 61.4592 47.3334 61.5144 47.7612C61.5368 47.9584 61.5536 48.1174 61.5648 48.2384C61.5712 48.2942 61.5712 48.3505 61.5648 48.4064C61.5489 48.3522 61.5384 48.2967 61.5336 48.2406C61.5144 48.1219 61.488 47.9629 61.4592 47.7657C61.3944 47.3401 61.3056 46.7465 61.1952 46.0163C60.9816 44.5401 60.6864 42.4972 60.4272 40.2348C60.3024 39.1014 60.1872 38.0217 60.1632 37.0317C60.1463 36.7866 60.1681 36.5405 60.228 36.3014C60.2688 36.1894 60.3048 36.0774 60.3504 35.9721C60.396 35.8668 60.4416 35.7616 60.4944 35.663C60.6818 35.2887 60.9385 34.9482 61.2528 34.6572C61.5121 34.4189 61.8112 34.2214 62.1384 34.0726C62.3856 33.9629 62.6458 33.881 62.9136 33.8285C63.1445 33.7822 63.3812 33.7663 63.6168 33.7814Z" fill="#263238"/>
<path d="M56.7144 37.6498C56.5356 37.5925 56.3538 37.5439 56.1696 37.5042C55.7188 37.4419 55.2584 37.489 54.8328 37.6409C54.409 37.7982 54.0062 38.0012 53.6328 38.2457C53.4833 38.3538 53.3225 38.4477 53.1528 38.5257C53.2837 38.3932 53.4312 38.2759 53.592 38.1762C53.9614 37.9078 54.3704 37.6905 54.8064 37.5311C55.2513 37.371 55.7362 37.3337 56.2032 37.4236C56.3426 37.4539 56.4772 37.5005 56.604 37.5625C56.676 37.6095 56.7192 37.6431 56.7144 37.6498Z" fill="#684434"/>
</svg>
