<svg width="117" height="117" viewBox="0 0 117 117" fill="none" xmlns="http://www.w3.org/2000/svg">
<path d="M97.0656 18.2214H103.262V15.603H97.0656V18.2214Z" fill="#EBEBEB"/>
<path d="M100.524 14.9197H106.721V12.3012H100.524V14.9197Z" fill="#EBEBEB"/>
<path d="M93.6084 14.9197H99.8047V12.3012H93.6084V14.9197Z" fill="#EBEBEB"/>
<path d="M13.7446 14.9197H19.9409V12.3012H13.7446V14.9197Z" fill="#EBEBEB"/>
<path d="M13.7446 80.2449H19.9409V77.6264H13.7446V80.2449Z" fill="#EBEBEB"/>
<path d="M10.2903 76.9468H16.4866V74.3283H10.2903V76.9468Z" fill="#EBEBEB"/>
<path d="M100.524 80.2424H106.721V77.624H100.524V80.2424Z" fill="#EBEBEB"/>
<path d="M96.4671 40.3518H90.2708V42.9703H96.4671V40.3518Z" fill="#EBEBEB"/>
<path d="M93.0098 43.6536H86.8135V46.272H93.0098V43.6536Z" fill="#EBEBEB"/>
<path d="M32.6055 28.4539H54.8355V16.7866H32.6055V28.4539Z" fill="#EBEBEB"/>
<path d="M58.2767 28.4534H54.8369V24.8708L58.2767 28.4534Z" fill="#EBEBEB"/>
<path d="M52.7072 18.8027H34.7336V19.025H52.7072V18.8027Z" fill="white"/>
<path d="M45.8791 20.0015H34.7336V20.2238H45.8791V20.0015Z" fill="white"/>
<path d="M50.0021 22.3945H34.7336V22.6168H50.0021V22.3945Z" fill="white"/>
<path d="M52.7072 23.594H34.7336V23.8163H52.7072V23.594Z" fill="white"/>
<path d="M52.7072 24.7893H34.7336V25.0116H52.7072V24.7893Z" fill="white"/>
<path d="M43.5952 25.9878H34.7336V26.2101H43.5952V25.9878Z" fill="white"/>
<path d="M84.9654 11.5308H62.7354V18.3097H84.9654V11.5308Z" fill="#DBDBDB"/>
<path d="M59.2937 18.3101H62.7335V14.7275L59.2937 18.3101Z" fill="#DBDBDB"/>
<path d="M81.0492 13.3945H64.9055V13.6168H81.0492V13.3945Z" fill="white"/>
<path d="M78.5196 14.5901H64.9055V14.8124H78.5196V14.5901Z" fill="white"/>
<path d="M79.5329 15.7864H64.9055V16.0087H79.5329V15.7864Z" fill="white"/>
<path d="M6.78978 21.2934C6.60295 20.529 6.64701 19.7264 6.91639 18.987C7.18577 18.2477 7.66836 17.6049 8.30313 17.1398C8.9379 16.6748 9.69632 16.4085 10.4825 16.3746C11.2686 16.3406 12.0472 16.5406 12.7196 16.9492C13.3921 17.3578 13.9283 17.9566 14.2604 18.67C14.5925 19.3834 14.7056 20.1792 14.5853 20.9568C14.465 21.7345 14.1168 22.459 13.5848 23.0387C13.0527 23.6184 12.3606 24.0273 11.5961 24.2137C10.5715 24.4634 9.48969 24.2961 8.58841 23.7485C7.68713 23.2009 7.04018 22.3178 6.78978 21.2934Z" fill="#EBEBEB"/>
<path d="M12.673 20.8467C12.0717 22.0564 10.6419 22.7748 10.6419 22.7748C10.6419 22.7748 9.21451 22.0564 8.61313 20.8467C8.11471 19.8358 8.43061 18.7407 9.22153 18.5067C10.3518 18.165 10.6419 20.1447 10.6419 20.1447C10.6419 20.1447 10.9321 18.1744 12.067 18.5067C12.8556 18.743 13.1715 19.8358 12.673 20.8467Z" fill="white"/>
<path d="M102.388 72.3835C102.388 71.5967 102.622 70.8276 103.059 70.1735C103.496 69.5193 104.117 69.0094 104.844 68.7083C105.571 68.4072 106.371 68.3285 107.142 68.482C107.914 68.6354 108.623 69.0143 109.179 69.5706C109.736 70.127 110.114 70.8358 110.268 71.6074C110.421 72.3791 110.343 73.179 110.042 73.9058C109.741 74.6327 109.231 75.254 108.576 75.6911C107.922 76.1282 107.153 76.3615 106.366 76.3615C105.311 76.3615 104.3 75.9424 103.554 75.1964C102.808 74.4504 102.388 73.4385 102.388 72.3835Z" fill="#EBEBEB"/>
<path d="M108.217 73.3396C107.348 74.3739 105.79 74.7436 105.79 74.7436C105.79 74.7436 104.571 73.707 104.274 72.3872C104.026 71.2874 104.592 70.3023 105.416 70.2555C106.586 70.19 106.412 72.1743 106.412 72.1743C106.412 72.1743 107.161 70.328 108.181 70.9294C108.893 71.3389 108.942 72.4762 108.217 73.3396Z" fill="white"/>
<path d="M58.3964 104.997C84.9502 104.997 106.476 103.634 106.476 101.953C106.476 100.271 84.9502 98.9084 58.3964 98.9084C31.8425 98.9084 10.3164 100.271 10.3164 101.953C10.3164 103.634 31.8425 104.997 58.3964 104.997Z" fill="#EBEBEB"/>
<path d="M9.35205 93.3777L21.6394 93.3192L33.9267 93.2982L58.4991 93.2607L83.0714 93.2982L95.3587 93.3192L107.646 93.3777L95.3587 93.4339L83.0714 93.455L58.4991 93.4947L33.9267 93.455L21.6394 93.4339L9.35205 93.3777Z" fill="#263238"/>
<path d="M63.6 78.3451C61.5385 81.1368 59.388 84.3753 58.8662 87.876C58.8662 87.9298 58.9458 87.9462 58.9575 87.8947C59.1953 86.9384 59.5003 86.0001 59.8701 85.0867C61.2249 84.7146 62.5541 84.4081 63.2654 83.0626C63.9908 81.6797 63.8996 79.8779 63.7615 78.3709C63.7521 78.296 63.6445 78.2913 63.6 78.3451Z" fill="#C53F3F"/>
<path d="M59.9036 85.0664C60.8396 82.9884 62.0096 80.9012 63.5306 79.193C63.5306 79.1813 63.5563 79.193 63.547 79.2093C62.603 80.4271 61.7742 81.7298 61.0712 83.1008C61.7545 82.3988 62.501 81.788 63.1491 81.0533C63.1608 81.0392 63.1819 81.0533 63.1702 81.0743C62.5267 81.8442 61.8271 82.6796 60.9893 83.2505C60.7553 83.6647 60.54 84.0789 60.3107 84.4931L60.4816 84.4065C60.4933 84.4065 60.5003 84.4065 60.4816 84.4205C60.4184 84.4533 60.3552 84.4884 60.2897 84.5165C60.1797 84.713 60.0721 84.9096 59.9621 85.1038C59.934 85.1483 59.8732 85.1108 59.9036 85.0664Z" fill="#263238"/>
<path d="M60.5827 84.3405C61.1367 84.0306 61.6656 83.6777 62.1645 83.2852C62.1786 83.2735 62.1973 83.2852 62.1833 83.3039C61.7006 83.7221 61.1714 84.0833 60.6061 84.3803C60.5804 84.392 60.557 84.3546 60.5827 84.3405Z" fill="#263238"/>
<path d="M58.6309 87.3569C58.6309 87.3668 58.6349 87.3764 58.6419 87.3834C58.6489 87.3904 58.6584 87.3944 58.6684 87.3944C58.6783 87.3944 58.6878 87.3904 58.6948 87.3834C58.7019 87.3764 58.7058 87.3668 58.7058 87.3569C58.7058 86.2056 58.7058 85.0473 58.7245 83.889C59.0194 83.2923 59.6605 82.953 60.0934 82.485C60.4109 82.137 60.6866 81.7529 60.9148 81.3408C61.4462 80.3551 61.771 79.2715 61.8695 78.156C61.9912 76.9229 61.5232 72.8536 61.0037 72.9963C60.7346 73.0689 59.8618 75.0836 59.6301 75.7505C59.2549 76.8497 58.98 77.9807 58.8088 79.1295C58.3876 81.8415 58.4227 84.6261 58.6309 87.3569Z" fill="#C53F3F"/>
<path d="M58.6224 82.3844C58.6856 80.9266 59.0156 79.4524 59.3244 78.039C59.6684 76.518 60.0452 75.0742 60.8384 73.71C60.842 73.7058 60.8469 73.7029 60.8524 73.702C60.8578 73.7011 60.8634 73.7021 60.8682 73.7049C60.873 73.7077 60.8766 73.7121 60.8784 73.7173C60.8803 73.7225 60.8802 73.7283 60.8782 73.7334C60.354 74.7915 59.9483 75.9043 59.6684 77.0515C59.7222 76.9696 59.7854 76.8924 59.8392 76.8175C59.8603 76.7871 59.9118 76.8175 59.8907 76.8456C59.8247 76.9687 59.7463 77.0848 59.6567 77.1919C59.3853 78.2824 59.1887 79.3962 59.0273 80.5077L59.0624 80.4656L59.0811 80.4773C59.06 80.5147 59.0366 80.5522 59.0132 80.5873C58.9313 81.1512 58.8541 81.7152 58.7792 82.2721C59.8071 81.4446 60.6115 80.3731 61.1192 79.1552C61.1192 79.1552 61.1309 79.1552 61.1192 79.1552C60.6512 80.4492 59.8977 81.5982 58.7488 82.3844C58.7277 82.5342 58.7067 82.6839 58.6833 82.8337C58.6833 82.8641 58.6295 82.8571 58.6295 82.8337C58.6295 82.6995 58.6341 82.5661 58.6435 82.4335C58.6376 82.4341 58.6316 82.4328 58.6265 82.4297C58.6214 82.4267 58.6174 82.4221 58.6151 82.4166C58.6127 82.4112 58.6122 82.4051 58.6135 82.3993C58.6148 82.3935 58.618 82.3883 58.6224 82.3844Z" fill="#263238"/>
<path d="M59.0943 80.2616C59.878 79.1537 60.5631 77.9792 61.1418 76.7516C61.1418 76.7376 61.1722 76.7516 61.1652 76.7516C60.7065 78.045 60.0184 79.2451 59.134 80.2944C59.1297 80.2996 59.1234 80.303 59.1166 80.3036C59.1098 80.3043 59.103 80.3022 59.0978 80.2979C59.0925 80.2935 59.0892 80.2873 59.0885 80.2805C59.0878 80.2737 59.0899 80.2669 59.0943 80.2616Z" fill="#263238"/>
<path d="M60.115 76.462C60.4332 75.9004 60.7678 75.3529 61.0674 74.7796C61.0674 74.7632 61.0978 74.7795 61.0907 74.7936C60.8428 75.3929 60.5289 75.9627 60.1547 76.4924C60.1501 76.4947 60.1449 76.4956 60.1397 76.4951C60.1346 76.4945 60.1296 76.4926 60.1255 76.4894C60.1214 76.4863 60.1182 76.482 60.1164 76.4772C60.1145 76.4724 60.114 76.4671 60.115 76.462Z" fill="#263238"/>
<path d="M57.8498 84.0232C57.8343 84.7875 57.7441 85.5485 57.5807 86.2954L57.6158 86.5434C57.8541 85.7173 57.9931 84.8658 58.03 84.0068C58.037 83.9952 58.0407 83.9818 58.0407 83.9682C58.0407 83.9546 58.037 83.9413 58.03 83.9296C58.0626 82.7795 57.9764 81.6292 57.7726 80.4968C57.4146 78.3908 56.6354 76.3457 55.1565 74.7568C55.1444 74.7463 55.13 74.7387 55.1144 74.7347C55.0989 74.7307 55.0826 74.7304 55.0669 74.7338C55.0512 74.7372 55.0366 74.7442 55.0241 74.7543C55.0116 74.7644 55.0016 74.7773 54.995 74.7919C54.3983 76.3059 54.6066 78.1147 55.1144 79.6287C55.3899 80.447 55.7841 81.2204 56.2844 81.9242C56.7921 82.6426 57.438 83.2463 57.8498 84.0232Z" fill="#C53F3F"/>
<path d="M55.3324 75.4698C56.7364 77.742 57.7075 80.4376 57.8268 83.1216C57.8268 83.1684 57.7473 83.1825 57.7426 83.1216C57.7075 82.8876 57.6724 82.6536 57.6326 82.4032C57.0237 81.8652 56.4893 81.2482 56.0438 80.5687C56.0438 80.557 56.0555 80.5429 56.0648 80.5523C56.5443 81.1431 57.0592 81.7042 57.6069 82.2324C57.5063 81.6404 57.3893 81.0624 57.2465 80.4798C57.2091 80.4376 57.174 80.3932 57.1365 80.3487C57.0991 80.3043 57.1529 80.2809 57.1787 80.3089L57.2114 80.3464C57.0144 79.557 56.7699 78.7803 56.479 78.0204C56.1233 77.5969 55.7255 77.2295 55.4658 76.717H55.4845C55.6928 77.0095 55.894 77.3044 56.1303 77.5758C56.2263 77.6858 56.3292 77.7864 56.4275 77.8917C56.105 77.068 55.7218 76.2695 55.2809 75.5026C55.2575 75.4675 55.3113 75.4371 55.3324 75.4698Z" fill="#263238"/>
<path d="M55.613 78.2731C56.0647 78.8838 56.5818 79.4641 57.003 80.0936C57.003 80.1123 56.989 80.131 56.9726 80.117C56.4362 79.5679 55.9693 78.9549 55.5826 78.2918C55.5709 78.2731 55.599 78.2567 55.613 78.2731Z" fill="#263238"/>
<path d="M57.0669 80.2334L57.0858 80.2547C57.0999 80.2547 57.0858 80.2877 57.0646 80.2735L57.0457 80.2547C57.0315 80.2405 57.0528 80.2217 57.0669 80.2334Z" fill="#263238"/>
<path d="M53.1388 79.8394C53.3032 81.1084 53.8141 82.3074 54.6154 83.305C54.9451 83.6971 55.3532 84.0159 55.8135 84.241C56.3329 84.4984 56.8758 84.7932 57.4117 85.0038C57.6682 85.6537 57.858 86.3279 57.978 87.0162C57.9967 86.9577 58.0131 86.8969 58.0318 86.8384C57.6855 83.8783 55.7713 81.3487 53.3214 79.7224C53.3021 79.7101 53.2798 79.7036 53.257 79.7036C53.2342 79.7036 53.2118 79.7102 53.1926 79.7225C53.1734 79.7348 53.1581 79.7524 53.1486 79.7731C53.1391 79.7938 53.1357 79.8168 53.1388 79.8394Z" fill="#C53F3F"/>
<path d="M53.9822 80.7138C53.9658 80.6975 53.9822 80.6671 54.0079 80.6811C55.3538 81.6821 56.4271 83.0048 57.1295 84.5281C57.1482 84.5702 57.092 84.6053 57.0686 84.5655C56.954 84.3643 56.8346 84.17 56.72 83.9805C56.1607 83.8752 55.6295 83.4821 55.2153 83.1077C55.2153 83.1077 55.2153 83.0819 55.2317 83.0913C55.444 83.2854 55.6799 83.4521 55.9337 83.5874C56.1677 83.7044 56.4017 83.7769 56.6357 83.8705C56.4298 83.5406 56.2122 83.2247 55.9875 82.9205C55.3845 82.6928 54.8184 82.3774 54.3074 81.9845C54.291 81.9728 54.3074 81.947 54.3215 81.9564C54.8271 82.2627 55.3489 82.5416 55.8846 82.7918C55.5435 82.3416 55.1755 81.9126 54.7824 81.5071C54.5906 81.4065 54.3987 81.3059 54.2138 81.1982C54.1998 81.1982 54.2138 81.1631 54.2255 81.1702C54.3792 81.222 54.5255 81.2936 54.6608 81.3831C54.4548 81.1491 54.2279 80.9291 53.9822 80.7138Z" fill="#263238"/>
<path d="M54.0362 81.7367C54.0694 81.7564 54.1007 81.7791 54.1298 81.8045C54.1298 81.8045 54.1298 81.8233 54.1181 81.8186C54.0838 81.8027 54.0509 81.7839 54.0198 81.7624C54.0172 81.7619 54.0147 81.7608 54.0127 81.7591C54.0106 81.7574 54.009 81.7553 54.0079 81.7528C54.0069 81.7504 54.0064 81.7477 54.0066 81.745C54.0069 81.7424 54.0077 81.7398 54.0092 81.7376C54.0106 81.7353 54.0125 81.7334 54.0149 81.7321C54.0172 81.7308 54.0198 81.7301 54.0224 81.73C54.0251 81.7299 54.0278 81.7305 54.0302 81.7316C54.0325 81.7328 54.0346 81.7345 54.0362 81.7367Z" fill="#263238"/>
<path d="M61.8557 93.4252H55.1399L55.6828 87.3131L55.8021 85.9629H61.1935L61.3128 87.3131L61.8557 93.4252Z" fill="#455A64"/>
<path d="M61.3124 87.3131H55.6824L55.8017 85.9629H61.1931L61.3124 87.3131Z" fill="#263238"/>
<path d="M61.5168 85.0193H55.4819V86.3531H61.5168V85.0193Z" fill="#455A64"/>
<path d="M102.346 24.2356H68.166C67.7079 24.2399 67.255 24.3344 66.8334 24.5137C66.4117 24.693 66.0295 24.9536 65.7085 25.2806C65.3876 25.6076 65.1342 25.9947 64.9629 26.4196C64.7915 26.8446 64.7055 27.2991 64.7099 27.7573V98.1188C64.7018 99.0439 65.0612 99.9345 65.7092 100.595C66.3573 101.255 67.2409 101.631 68.166 101.64H102.346C102.805 101.636 103.258 101.542 103.68 101.363C104.102 101.184 104.485 100.923 104.806 100.596C105.128 100.269 105.381 99.8823 105.553 99.4572C105.725 99.032 105.811 98.5772 105.807 98.1188V27.7573C105.811 27.2988 105.725 26.844 105.553 26.4189C105.381 25.9938 105.128 25.6067 104.806 25.2796C104.485 24.9526 104.102 24.6921 103.68 24.513C103.258 24.3338 102.805 24.2396 102.346 24.2356ZM103.647 95.9402C103.647 97.7912 102.26 99.2888 100.549 99.2888H69.9679C68.2526 99.2888 66.8674 97.7912 66.8674 95.9402V30.4202C66.8674 26.6458 68.2526 26.4633 69.9679 26.4633H76.0916C76.4473 26.4633 76.7398 26.8681 76.7398 27.3689V27.5841C76.7398 28.7541 77.3833 28.7541 78.1719 28.7541H92.3383C93.1339 28.7541 93.7703 28.7541 93.7703 27.5841V27.3782C93.7703 26.8775 94.0582 26.4726 94.4209 26.4726H100.547C102.258 26.4726 103.645 26.9734 103.645 30.4296L103.647 95.9402Z" fill="#263238"/>
<path d="M87.1894 27.3013H83.326C83.264 27.3013 83.2045 27.2766 83.1606 27.2327C83.1167 27.1888 83.092 27.1293 83.092 27.0673C83.092 27.0052 83.1167 26.9457 83.1606 26.9018C83.2045 26.8579 83.264 26.8333 83.326 26.8333H87.1894C87.2514 26.8333 87.311 26.8579 87.3548 26.9018C87.3987 26.9457 87.4234 27.0052 87.4234 27.0673C87.4234 27.1293 87.3987 27.1888 87.3548 27.2327C87.311 27.2766 87.2514 27.3013 87.1894 27.3013Z" fill="white"/>
<path d="M103.648 30.4193V95.9393C103.648 97.7903 102.26 99.2879 100.549 99.2879H69.9679C68.2551 99.2879 66.8674 97.7903 66.8674 95.9393V30.4193C66.8674 26.6449 68.2551 26.4624 69.9679 26.4624H76.0941C76.4497 26.4624 76.7399 26.8672 76.7399 27.368V27.5833C76.7399 28.7533 77.3834 28.7533 78.1743 28.7533H92.3383C93.1363 28.7533 93.7728 28.7533 93.7728 27.5833V27.3773C93.7728 26.8766 94.0582 26.4718 94.4209 26.4718H100.547C102.26 26.4671 103.648 26.9678 103.648 30.4193Z" fill="white"/>
<path d="M103.644 30.4193V35.3076H66.8689V30.4193C66.8689 26.6449 68.2542 26.4624 69.9694 26.4624H76.0955C76.4512 26.4624 76.7414 26.8672 76.7414 27.368V27.5833C76.7414 28.7533 77.3849 28.7533 78.1734 28.7533H92.3398C93.1354 28.7533 93.7742 28.7533 93.7742 27.5833V27.3773C93.7742 26.8766 94.062 26.4718 94.4224 26.4718H100.549C102.259 26.4671 103.644 26.9678 103.644 30.4193Z" fill="#C53F3F"/>
<path d="M70.5935 32.9264L69.5054 31.9085L70.5935 30.8906L70.762 31.0708L69.8657 31.9085L70.762 32.7462L70.5935 32.9264Z" fill="white"/>
<path d="M101.013 31.4874C101.013 31.5301 101.001 31.5721 100.977 31.6078C100.954 31.6436 100.92 31.6716 100.881 31.6881C100.841 31.7047 100.798 31.7092 100.756 31.701C100.714 31.6927 100.675 31.6722 100.645 31.6419C100.615 31.6117 100.594 31.5731 100.586 31.5311C100.578 31.4891 100.582 31.4457 100.599 31.4062C100.615 31.3668 100.643 31.3332 100.679 31.3097C100.715 31.2863 100.757 31.274 100.8 31.2744C100.856 31.275 100.91 31.2977 100.95 31.3375C100.989 31.3773 101.012 31.4311 101.013 31.4874Z" fill="white"/>
<path d="M101.013 32.2476C101.013 32.2904 101.001 32.3323 100.977 32.3681C100.954 32.4039 100.92 32.4318 100.881 32.4484C100.841 32.465 100.798 32.4694 100.756 32.4612C100.714 32.453 100.675 32.4324 100.645 32.4022C100.615 32.3719 100.594 32.3334 100.586 32.2914C100.578 32.2494 100.582 32.2059 100.599 32.1665C100.615 32.1271 100.643 32.0935 100.679 32.07C100.715 32.0465 100.757 32.0342 100.8 32.0347C100.856 32.0347 100.91 32.0571 100.95 32.0971C100.99 32.137 101.013 32.1911 101.013 32.2476Z" fill="white"/>
<path d="M101.013 33.0086C101.013 33.0514 101.001 33.0933 100.977 33.1291C100.954 33.1648 100.92 33.1928 100.881 33.2094C100.841 33.226 100.798 33.2304 100.756 33.2222C100.714 33.214 100.675 33.1934 100.645 33.1632C100.615 33.1329 100.594 33.0943 100.586 33.0524C100.578 33.0104 100.582 32.9669 100.599 32.9275C100.615 32.888 100.643 32.8544 100.679 32.831C100.715 32.8075 100.757 32.7952 100.8 32.7957C100.856 32.7957 100.91 32.8181 100.95 32.858C100.99 32.898 101.013 32.9521 101.013 33.0086Z" fill="white"/>
<path d="M75.0381 27.9395C75.0193 27.9582 74.9983 27.977 74.9796 27.998L74.9445 28.0308C74.8697 27.9558 74.7809 27.8964 74.6831 27.8558C74.5853 27.8153 74.4805 27.7944 74.3747 27.7944C74.2688 27.7944 74.164 27.8153 74.0662 27.8558C73.9685 27.8964 73.8796 27.9558 73.8049 28.0308L73.7721 27.998L73.7136 27.9395L73.7885 27.8717C73.8418 27.8285 73.8999 27.7916 73.9617 27.7617C74.0357 27.7251 74.1144 27.6991 74.1957 27.6844C74.2331 27.6844 74.2729 27.6845 74.3103 27.6704H74.4133H74.4905C74.5625 27.6794 74.6331 27.6966 74.7011 27.7219C74.7503 27.7399 74.7981 27.7618 74.8438 27.7874C74.8918 27.8153 74.9373 27.8474 74.9796 27.8834L75.0427 27.9395H75.0381Z" fill="white"/>
<path d="M73.9908 28.217L73.8972 28.1234C73.9997 28.0191 74.1338 27.9516 74.2786 27.9315C74.382 27.9165 74.4874 27.9259 74.5865 27.9588C74.6856 27.9917 74.7757 28.0472 74.8496 28.121L74.756 28.2146C74.7061 28.1644 74.6466 28.1246 74.5811 28.0977C74.5156 28.0708 74.4454 28.0572 74.3746 28.0579C74.3033 28.0576 74.2326 28.0716 74.1667 28.0989C74.1008 28.1262 74.0411 28.1664 73.9908 28.217Z" fill="white"/>
<path d="M74.6632 28.3147L74.5696 28.406C74.5172 28.3552 74.4471 28.3268 74.3742 28.3268C74.3013 28.3268 74.2312 28.3552 74.1788 28.406L74.0852 28.3147C74.1229 28.2763 74.1679 28.2458 74.2175 28.2249C74.2671 28.2041 74.3204 28.1934 74.3742 28.1934C74.428 28.1934 74.4813 28.2041 74.5309 28.2249C74.5805 28.2458 74.6255 28.2763 74.6632 28.3147Z" fill="white"/>
<path d="M74.4605 28.4876C74.4605 28.5099 74.4516 28.5313 74.4358 28.5471C74.42 28.5629 74.3986 28.5718 74.3762 28.5718C74.3539 28.5718 74.3325 28.5629 74.3167 28.5471C74.3009 28.5313 74.292 28.5099 74.292 28.4876C74.292 28.4652 74.3009 28.4438 74.3167 28.428C74.3325 28.4122 74.3539 28.4033 74.3762 28.4033C74.3984 28.4039 74.4195 28.413 74.4351 28.4286C74.4508 28.4443 74.4599 28.4654 74.4605 28.4876Z" fill="white"/>
<path d="M69.2661 28.118C69.2661 28.0718 69.2798 28.0265 69.3055 27.988C69.3313 27.9495 69.3678 27.9196 69.4106 27.9018C69.4533 27.8841 69.5004 27.8795 69.5458 27.8885C69.5912 27.8976 69.6328 27.9198 69.6656 27.9526C69.6983 27.9853 69.7206 28.027 69.7296 28.0724C69.7386 28.1178 69.734 28.1648 69.7163 28.2076C69.6986 28.2503 69.6686 28.2869 69.6301 28.3126C69.5916 28.3383 69.5464 28.352 69.5001 28.352C69.4381 28.352 69.3785 28.3274 69.3347 28.2835C69.2908 28.2396 69.2661 28.1801 69.2661 28.118Z" fill="white"/>
<path d="M70.0371 28.118C70.0371 28.0718 70.0508 28.0265 70.0765 27.988C70.1023 27.9495 70.1388 27.9196 70.1816 27.9018C70.2243 27.8841 70.2714 27.8795 70.3168 27.8885C70.3621 27.8976 70.4038 27.9198 70.4366 27.9526C70.4693 27.9853 70.4916 28.027 70.5006 28.0724C70.5096 28.1178 70.505 28.1648 70.4873 28.2076C70.4696 28.2503 70.4396 28.2869 70.4011 28.3126C70.3626 28.3383 70.3174 28.352 70.2711 28.352C70.209 28.352 70.1495 28.3274 70.1056 28.2835C70.0618 28.2396 70.0371 28.1801 70.0371 28.118Z" fill="white"/>
<path d="M70.8003 28.118C70.8003 28.0718 70.814 28.0265 70.8397 27.988C70.8654 27.9495 70.902 27.9196 70.9447 27.9018C70.9875 27.8841 71.0345 27.8795 71.0799 27.8885C71.1253 27.8976 71.167 27.9198 71.1998 27.9526C71.2325 27.9853 71.2548 28.027 71.2638 28.0724C71.2728 28.1178 71.2682 28.1648 71.2505 28.2076C71.2328 28.2503 71.2028 28.2869 71.1643 28.3126C71.1258 28.3383 71.0806 28.352 71.0343 28.352C70.9722 28.352 70.9127 28.3274 70.8688 28.2835C70.8249 28.2396 70.8003 28.1801 70.8003 28.118Z" fill="white"/>
<path d="M71.5698 28.1174C71.5698 28.0528 71.5955 27.9909 71.6411 27.9453C71.6867 27.8997 71.7486 27.874 71.8132 27.874C71.8777 27.874 71.9396 27.8997 71.9853 27.9453C72.0309 27.9909 72.0565 28.0528 72.0565 28.1174C72.0565 28.1819 72.0309 28.2438 71.9853 28.2895C71.9396 28.3351 71.8777 28.3607 71.8132 28.3607C71.7486 28.3607 71.6867 28.3351 71.6411 28.2895C71.5955 28.2438 71.5698 28.1819 71.5698 28.1174Z" fill="white"/>
<path d="M72.3379 28.1174C72.3379 28.0528 72.3635 27.9909 72.4092 27.9453C72.4548 27.8997 72.5167 27.874 72.5813 27.874C72.6458 27.874 72.7077 27.8997 72.7533 27.9453C72.799 27.9909 72.8246 28.0528 72.8246 28.1174C72.8246 28.1819 72.799 28.2438 72.7533 28.2895C72.7077 28.3351 72.6458 28.3607 72.5813 28.3607C72.5167 28.3607 72.4548 28.3351 72.4092 28.2895C72.3635 28.2438 72.3379 28.1819 72.3379 28.1174Z" fill="white"/>
<path d="M100.896 28.6584H98.8953V27.7224H100.896V28.6584ZM99.0123 28.5414H100.779V27.8394H99.0123V28.5414Z" fill="white"/>
<path d="M100.349 27.8865H99.0693V28.4925H100.349V27.8865Z" fill="white"/>
<path d="M101.064 27.9446H100.888V28.436H101.064V27.9446Z" fill="white"/>
<path d="M72.4563 95.289H72.1755V96.5713H71.6537V95.9185H70.7294V96.5713H70.2076V95.289H69.9268L71.1927 93.981L72.4563 95.289Z" fill="#EBEBEB"/>
<path d="M100.59 93.981H97.5413V94.4162H100.59V93.981Z" fill="#EBEBEB"/>
<path d="M100.59 95.0605H97.5413V95.4958H100.59V95.0605Z" fill="#EBEBEB"/>
<path d="M100.59 96.1365H97.5413V96.5717H100.59V96.1365Z" fill="#EBEBEB"/>
<path d="M86.127 95.1055L85.2612 96.0298L84.3931 95.1055L84.5475 94.9604L85.2612 95.7233L85.9749 94.9604L86.127 95.1055Z" fill="#EBEBEB"/>
<path d="M85.2599 96.9971C84.9455 96.9975 84.6379 96.9047 84.3763 96.7303C84.1146 96.5559 83.9106 96.3077 83.7901 96.0173C83.6695 95.7269 83.6379 95.4072 83.6991 95.0988C83.7603 94.7904 83.9117 94.507 84.1341 94.2847C84.3564 94.0624 84.6397 93.911 84.9482 93.8498C85.2566 93.7885 85.5763 93.8202 85.8667 93.9407C86.1571 94.0613 86.4052 94.2653 86.5796 94.5269C86.754 94.7886 86.8469 95.0961 86.8464 95.4105C86.8458 95.8311 86.6785 96.2343 86.3811 96.5317C86.0837 96.8291 85.6805 96.9964 85.2599 96.9971ZM85.2599 94.0557C84.9918 94.0552 84.7297 94.1343 84.5065 94.2829C84.2834 94.4315 84.1094 94.6429 84.0065 94.8904C83.9036 95.138 83.8764 95.4104 83.9284 95.6734C83.9805 95.9364 84.1093 96.178 84.2987 96.3677C84.4881 96.5575 84.7295 96.6867 84.9924 96.7392C85.2553 96.7917 85.5278 96.765 85.7755 96.6625C86.0232 96.56 86.2349 96.3864 86.3839 96.1635C86.5329 95.9406 86.6124 95.6786 86.6124 95.4105C86.6087 95.0538 86.4648 94.7129 86.2116 94.4616C85.9585 94.2102 85.6166 94.0686 85.2599 94.0674V94.0557Z" fill="#EBEBEB"/>
<path d="M99.6266 62.6652H73.325V54.405H99.6266V62.6652Z" fill="#DBDBDB"/>
<path d="M70.8889 62.6655H73.3249V60.1289L70.8889 62.6655Z" fill="#DBDBDB"/>
<path d="M98.1228 55.8359H74.8328V55.9927H98.1228V55.8359Z" fill="white"/>
<path d="M93.2883 56.6824H74.8328V56.8392H93.2883V56.6824Z" fill="white"/>
<path d="M96.2063 58.3762H74.8328V58.533H96.2063V58.3762Z" fill="white"/>
<path d="M98.1228 59.2234H74.8328V59.3802H98.1228V59.2234Z" fill="white"/>
<path d="M98.1228 60.0698H74.8328V60.2266H98.1228V60.0698Z" fill="white"/>
<path d="M91.6714 60.9194H74.8328V61.0762H91.6714V60.9194Z" fill="white"/>
<path d="M99.6266 82.17H73.325V73.9121H99.6266V82.17Z" fill="#DBDBDB"/>
<path d="M70.8889 82.1694H73.3249V79.6328L70.8889 82.1694Z" fill="#DBDBDB"/>
<path d="M98.1228 75.3391H74.8328V75.4959H98.1228V75.3391Z" fill="white"/>
<path d="M93.2883 76.1848H74.8328V76.3416H93.2883V76.1848Z" fill="white"/>
<path d="M96.2063 77.8809H74.8328V78.0376H96.2063V77.8809Z" fill="white"/>
<path d="M98.1228 78.7295H74.8328V78.8863H98.1228V78.7295Z" fill="white"/>
<path d="M98.1228 79.5769H74.8328V79.7337H98.1228V79.5769Z" fill="white"/>
<path d="M91.6714 80.4233H74.8328V80.5801H91.6714V80.4233Z" fill="white"/>
<path d="M70.8901 46.2112H97.1917V39.2427H70.8901V46.2112Z" fill="#C53F3F"/>
<path d="M99.6276 46.2109H97.1917V43.6743L99.6276 46.2109Z" fill="#C53F3F"/>
<path d="M91.762 40.5293H72.3657V40.6861H91.762V40.5293Z" fill="white"/>
<path d="M95.6557 41.3767H72.3657V41.5335H95.6557V41.3767Z" fill="white"/>
<path d="M95.6557 42.2222H72.3657V42.3789H95.6557V42.2222Z" fill="white"/>
<path d="M93.8118 43.0703H72.3657V43.2271H93.8118V43.0703Z" fill="white"/>
<path d="M95.6557 43.9199H72.3657V44.0767H95.6557V43.9199Z" fill="white"/>
<path d="M89.5741 44.7664H72.3657V44.9231H89.5741V44.7664Z" fill="white"/>
<path d="M70.8901 52.5054H97.1917V47.3363H70.8901V52.5054Z" fill="#C53F3F"/>
<path d="M99.6276 52.5058H97.1917V49.9692L99.6276 52.5058Z" fill="#C53F3F"/>
<path d="M95.6571 48.6252H72.4092V48.782H95.6571V48.6252Z" fill="white"/>
<path d="M91.5434 49.4719H72.4092V49.6287H91.5434V49.4719Z" fill="white"/>
<path d="M93.4668 50.3191H72.4092V50.4759H93.4668V50.3191Z" fill="white"/>
<path d="M88.6511 51.167H72.4092V51.3238H88.6511V51.167Z" fill="white"/>
<path d="M70.8901 71.9719H97.1917V64.6875H70.8901V71.9719Z" fill="#C53F3F"/>
<path d="M99.6276 71.9709H97.1917V69.4343L99.6276 71.9709Z" fill="#C53F3F"/>
<path d="M94.6487 68.49H72.655V68.6468H94.6487V68.49Z" fill="white"/>
<path d="M92.8586 69.3372H72.655V69.4939H92.8586V69.3372Z" fill="white"/>
<path d="M93.3804 66.7954H72.655V66.9522H93.3804V66.7954Z" fill="white"/>
<path d="M95.6549 65.9475H72.655V66.1043H95.6549V65.9475Z" fill="white"/>
<path d="M93.5746 70.1858H72.655V70.3426H93.5746V70.1858Z" fill="white"/>
<path d="M70.8901 90.3855H97.1917V84.3202H70.8901V90.3855Z" fill="#C53F3F"/>
<path d="M99.6276 90.3857H97.1917V87.8491L99.6276 90.3857Z" fill="#C53F3F"/>
<path d="M95.6557 85.5493H72.3657V85.7061H95.6557V85.5493Z" fill="white"/>
<path d="M95.6557 86.3972H72.3657V86.554H95.6557V86.3972Z" fill="white"/>
<path d="M93.8118 87.2468H72.3657V87.4036H93.8118V87.2468Z" fill="white"/>
<path d="M95.6557 88.0933H72.3657V88.25H95.6557V88.0933Z" fill="white"/>
<path d="M89.5741 88.9421H72.3657V89.0989H89.5741V88.9421Z" fill="white"/>
<path d="M91.8992 49.5371C92.1098 53.3443 92.2619 57.2591 91.8875 61.0569C91.595 64.0147 90.3524 66.4506 87.2777 67.1784C84.4252 67.8499 80.363 67.7985 77.9528 65.9077C76.8272 65.0256 76.4365 63.783 76.5113 62.3977C76.6143 60.4602 78.1493 49.8507 78.6173 46.5396C78.8935 44.5248 79.1626 42.482 79.7873 40.5351C81.1141 36.4471 83.1359 36.4822 83.4167 36.398C83.6507 36.2436 85.2115 35.5533 87.4204 36.2553C87.9974 36.4392 88.5293 36.7427 88.9812 37.1459C89.4332 37.549 89.7951 38.0429 90.0436 38.5953C91.6301 41.8619 91.7003 45.9733 91.8992 49.5371Z" fill="#263238"/>
<path d="M82.7898 36.9569C80.3585 38.0941 79.7782 40.75 79.1885 43.1298C78.3695 46.4432 77.6067 49.7707 77.0053 53.1309C76.7151 54.7455 76.4624 56.3672 76.2588 57.9958C76.0623 59.5542 75.7581 61.218 75.8634 62.7928C76.0365 65.3972 78.4186 66.5813 80.7259 66.951C80.7476 66.9529 80.7693 66.9467 80.7868 66.9336C80.8043 66.9205 80.8163 66.9015 80.8207 66.8801C80.825 66.8587 80.8213 66.8364 80.8103 66.8176C80.7993 66.7987 80.7817 66.7846 80.761 66.7778C79.4459 66.5181 78.1051 66.153 77.1246 65.1773C75.8704 63.9254 76.0178 62.2944 76.1652 60.6681C76.4179 57.9022 76.8274 55.1527 77.3352 52.4219C77.843 49.6911 78.4514 46.9721 79.0972 44.2694C79.715 41.6954 80.1643 38.307 82.8038 36.999C82.8389 36.9873 82.8155 36.9452 82.7898 36.9569Z" fill="#263238"/>
<path d="M91.1633 41.3613C90.6953 39.3723 89.668 37.4325 87.5737 36.8545C90.2811 37.718 90.941 40.6757 91.3014 43.1468C91.6804 45.7488 91.9628 48.3618 92.1484 50.9858C92.331 53.5059 92.4597 56.0495 92.4105 58.5791C92.3567 61.3075 91.863 63.8628 90.2507 66.1139C90.2179 66.1607 90.2811 66.2168 90.3186 66.1724C91.9074 64.3518 92.4246 61.8457 92.5603 59.4987C92.7264 56.4075 92.5275 53.2649 92.2842 50.1831C92.0525 47.2675 91.8278 44.2255 91.1633 41.3613Z" fill="#263238"/>
<path d="M85.4475 49.354C83.985 50.1988 73.4503 56.6595 72.8513 56.8022C72.8513 56.8022 70.757 64.3721 74.7818 64.5032C77.3979 64.5874 85.7658 55.3561 87.9162 51.3173C88.906 49.464 88.5176 47.5803 85.4475 49.354Z" fill="#AD6359"/>
<path d="M96.5096 67.1147L80.6467 67.1264L81.6155 59.4231C81.6155 59.4231 80.5508 58.0191 80.9907 56.2641C81.7606 53.2104 85.1512 49.2652 85.4601 49.0101C86.7026 47.9477 88.2892 48.1513 89.1269 48.5421C93.133 50.3977 96.5096 67.1147 96.5096 67.1147Z" fill="#AD6359"/>
<path d="M96.5103 67.1137L80.6474 67.1254L81.4898 60.0492C81.4898 60.0492 80.2894 58.3527 80.5936 56.5767C80.7907 55.3752 81.3643 54.2674 82.2316 53.413C82.7838 52.945 83.2237 55.5751 83.2237 55.5751C84.4171 53.9886 85.2385 53.2913 86.6752 53.2866C88.8538 53.2866 90.2718 56.7826 91.8232 59.1156C92.6961 60.4306 94.9495 60.4611 94.9495 60.4611C95.3871 61.6825 96.5103 67.1137 96.5103 67.1137Z" fill="#455A64"/>
<path d="M82.6026 55.4119C82.6026 55.4623 82.5877 55.5117 82.5597 55.5536C82.5316 55.5955 82.4918 55.6282 82.4452 55.6475C82.3986 55.6668 82.3473 55.6719 82.2978 55.6621C82.2484 55.6522 82.2029 55.6279 82.1672 55.5922C82.1316 55.5566 82.1073 55.5111 82.0974 55.4617C82.0876 55.4122 82.0926 55.3609 82.1119 55.3143C82.1313 55.2677 82.1639 55.2278 82.2059 55.1998C82.2478 55.1718 82.2971 55.1568 82.3476 55.1568C82.4152 55.1568 82.4801 55.1837 82.5279 55.2315C82.5758 55.2794 82.6026 55.3442 82.6026 55.4119ZM86.4449 55.1568C86.3945 55.1568 86.3452 55.1718 86.3032 55.1998C86.2613 55.2278 86.2286 55.2677 86.2093 55.3143C86.19 55.3609 86.1849 55.4122 86.1948 55.4617C86.2046 55.5111 86.2289 55.5566 86.2646 55.5922C86.3002 55.6279 86.3457 55.6522 86.3952 55.6621C86.4446 55.6719 86.4959 55.6668 86.5425 55.6475C86.5891 55.6282 86.629 55.5955 86.657 55.5536C86.685 55.5117 86.7 55.4623 86.7 55.4119C86.7 55.3778 86.6932 55.344 86.6799 55.3126C86.6667 55.2812 86.6473 55.2528 86.6228 55.229C86.5984 55.2052 86.5694 55.1866 86.5377 55.1742C86.5059 55.1618 86.472 55.1559 86.4379 55.1568H86.4449ZM82.3476 61.7556C82.2971 61.7556 82.2478 61.7706 82.2059 61.7986C82.1639 61.8266 82.1313 61.8665 82.1119 61.9131C82.0926 61.9597 82.0876 62.011 82.0974 62.0605C82.1073 62.1099 82.1316 62.1554 82.1672 62.1911C82.2029 62.2267 82.2484 62.251 82.2978 62.2609C82.3473 62.2707 82.3986 62.2656 82.4452 62.2463C82.4918 62.227 82.5316 62.1943 82.5597 62.1524C82.5877 62.1105 82.6026 62.0611 82.6026 62.0107C82.6027 61.9766 82.5958 61.9429 82.5826 61.9114C82.5693 61.88 82.5499 61.8516 82.5255 61.8278C82.501 61.804 82.4721 61.7854 82.4403 61.773C82.4086 61.7606 82.3747 61.7547 82.3406 61.7556H82.3476ZM86.4449 61.7556C86.3945 61.7556 86.3452 61.7706 86.3032 61.7986C86.2613 61.8266 86.2286 61.8665 86.2093 61.9131C86.19 61.9597 86.1849 62.011 86.1948 62.0605C86.2046 62.1099 86.2289 62.1554 86.2646 62.1911C86.3002 62.2267 86.3457 62.251 86.3952 62.2609C86.4446 62.2707 86.4959 62.2656 86.5425 62.2463C86.5891 62.227 86.629 62.1943 86.657 62.1524C86.685 62.1105 86.7 62.0611 86.7 62.0107C86.7 61.9766 86.6932 61.9429 86.6799 61.9114C86.6667 61.88 86.6473 61.8516 86.6228 61.8278C86.5984 61.804 86.5694 61.7854 86.5377 61.773C86.5059 61.7606 86.472 61.7547 86.4379 61.7556H86.4449ZM90.5423 61.7556C90.4916 61.7547 90.4419 61.7689 90.3993 61.7963C90.3568 61.8238 90.3233 61.8633 90.3033 61.9098C90.2833 61.9563 90.2776 62.0077 90.2869 62.0575C90.2962 62.1073 90.3201 62.1532 90.3556 62.1893C90.391 62.2255 90.4365 62.2502 90.4861 62.2605C90.5357 62.2707 90.5872 62.2659 90.6341 62.2468C90.681 62.2276 90.7211 62.1949 90.7493 62.1529C90.7776 62.1108 90.7926 62.0613 90.7927 62.0107C90.7927 61.977 90.786 61.9436 90.773 61.9125C90.76 61.8814 90.7411 61.8532 90.7171 61.8295C90.6932 61.8058 90.6648 61.7871 90.6336 61.7744C90.6024 61.7617 90.5689 61.7553 90.5352 61.7556H90.5423ZM94.6396 61.7556C94.5889 61.7542 94.5389 61.768 94.496 61.7952C94.4532 61.8223 94.4194 61.8617 94.399 61.9081C94.3786 61.9546 94.3726 62.0061 94.3816 62.056C94.3906 62.1059 94.4144 62.152 94.4497 62.1884C94.4851 62.2248 94.5305 62.2498 94.5802 62.2602C94.6298 62.2706 94.6815 62.266 94.7285 62.2469C94.7755 62.2279 94.8158 62.1952 94.8441 62.1531C94.8725 62.111 94.8876 62.0614 94.8877 62.0107C94.8877 61.943 94.8608 61.8782 94.8129 61.8303C94.7651 61.7825 94.7002 61.7556 94.6326 61.7556H94.6396ZM84.3951 58.5264C84.3446 58.5264 84.2953 58.5414 84.2534 58.5694C84.2114 58.5974 84.1788 58.6373 84.1594 58.6839C84.1401 58.7305 84.1351 58.7818 84.1449 58.8313C84.1548 58.8807 84.1791 58.9262 84.2147 58.9618C84.2504 58.9975 84.2959 59.0218 84.3453 59.0317C84.3948 59.0415 84.4461 59.0364 84.4927 59.0171C84.5393 58.9978 84.5791 58.9651 84.6072 58.9232C84.6352 58.8813 84.6501 58.8319 84.6501 58.7815C84.6505 58.7473 84.6439 58.7134 84.6307 58.6818C84.6176 58.6503 84.5982 58.6217 84.5737 58.5979C84.5492 58.574 84.5201 58.5554 84.4882 58.5431C84.4563 58.5308 84.4222 58.5252 84.3881 58.5264H84.3951ZM88.4948 58.5264C88.4442 58.526 88.3947 58.5405 88.3524 58.5683C88.3102 58.596 88.2771 58.6357 88.2575 58.6823C88.2378 58.7288 88.2324 58.7802 88.242 58.8298C88.2516 58.8794 88.2757 58.9251 88.3112 58.961C88.3468 58.9969 88.3923 59.0214 88.4418 59.0315C88.4913 59.0415 88.5427 59.0366 88.5895 59.0174C88.6362 58.9981 88.6762 58.9654 88.7043 58.9234C88.7325 58.8814 88.7475 58.832 88.7475 58.7815C88.7475 58.7476 88.7407 58.714 88.7276 58.6828C88.7145 58.6515 88.6953 58.6232 88.6711 58.5995C88.647 58.5757 88.6183 58.557 88.5868 58.5445C88.5553 58.532 88.5216 58.5258 88.4877 58.5264H88.4948ZM84.3951 65.1252C84.3446 65.1252 84.2953 65.1402 84.2534 65.1682C84.2114 65.1962 84.1788 65.2361 84.1594 65.2827C84.1401 65.3293 84.1351 65.3806 84.1449 65.4301C84.1548 65.4795 84.1791 65.525 84.2147 65.5606C84.2504 65.5963 84.2959 65.6206 84.3453 65.6305C84.3948 65.6403 84.4461 65.6352 84.4927 65.6159C84.5393 65.5966 84.5791 65.5639 84.6072 65.522C84.6352 65.4801 84.6501 65.4307 84.6501 65.3803C84.6505 65.3461 84.6439 65.3122 84.6307 65.2806C84.6176 65.2491 84.5982 65.2205 84.5737 65.1967C84.5492 65.1728 84.5201 65.1542 84.4882 65.1419C84.4563 65.1296 84.4222 65.124 84.3881 65.1252H84.3951ZM88.4948 65.1252C88.4442 65.1248 88.3947 65.1393 88.3524 65.1671C88.3102 65.1948 88.2771 65.2345 88.2575 65.2811C88.2378 65.3276 88.2324 65.379 88.242 65.4286C88.2516 65.4782 88.2757 65.5239 88.3112 65.5598C88.3468 65.5957 88.3923 65.6202 88.4418 65.6303C88.4913 65.6403 88.5427 65.6354 88.5895 65.6162C88.6362 65.5969 88.6762 65.5642 88.7043 65.5222C88.7325 65.4802 88.7475 65.4308 88.7475 65.3803C88.7478 65.3463 88.7413 65.3126 88.7283 65.2812C88.7153 65.2498 88.6961 65.2213 88.6718 65.1975C88.6476 65.1737 88.6188 65.1551 88.5872 65.1426C88.5555 65.1302 88.5217 65.1243 88.4877 65.1252H88.4948ZM92.5921 65.1252C92.5416 65.1248 92.492 65.1393 92.4498 65.1671C92.4075 65.1948 92.3745 65.2345 92.3548 65.2811C92.3351 65.3276 92.3298 65.379 92.3393 65.4286C92.3489 65.4782 92.373 65.5239 92.4086 65.5598C92.4442 65.5957 92.4896 65.6202 92.5391 65.6303C92.5887 65.6403 92.6401 65.6354 92.6868 65.6162C92.7336 65.5969 92.7735 65.5642 92.8017 65.5222C92.8298 65.4802 92.8448 65.4308 92.8448 65.3803C92.8452 65.3463 92.8386 65.3126 92.8256 65.2812C92.8126 65.2498 92.7934 65.2213 92.7692 65.1975C92.7449 65.1737 92.7161 65.1551 92.6845 65.1426C92.6529 65.1302 92.6191 65.1243 92.5851 65.1252H92.5921Z" fill="white"/>
<path d="M85.6455 59.0867C85.0203 59.1183 84.4001 59.2139 83.7945 59.3722C83.488 59.4564 83.1885 59.5594 82.8866 59.6717C82.7368 59.7279 82.5871 59.777 82.435 59.8262C82.2848 59.8808 82.1268 59.9108 81.967 59.9151C81.953 59.9151 81.9506 59.9432 81.967 59.9455C82.1166 59.9662 82.2677 59.974 82.4186 59.9689C82.5673 59.9543 82.7145 59.9269 82.8585 59.887C83.1674 59.8051 83.474 59.7021 83.7828 59.6156C84.4076 59.4424 85.0301 59.2692 85.6548 59.1476C85.6665 59.1546 85.6642 59.0844 85.6455 59.0867Z" fill="#263238"/>
<path d="M87.0859 59.9668C86.5895 59.8536 86.0847 59.7808 85.5766 59.7492C85.3218 59.734 85.0662 59.734 84.8114 59.7492L84.4464 59.7796C84.313 59.7937 84.1773 59.8334 84.0439 59.8451C84.0299 59.8451 84.0275 59.8756 84.0439 59.8756C84.1703 59.8756 84.2966 59.8943 84.423 59.899C84.5493 59.9036 84.6757 59.899 84.8044 59.913C85.0571 59.9247 85.3098 59.9387 85.5649 59.9458C86.0727 59.9598 86.5781 59.9809 87.0836 60.0206C87.1093 60.0277 87.1116 59.9715 87.0859 59.9668Z" fill="#263238"/>
<path d="M88.4928 48.8227C88.4085 49.155 87.4538 51.4248 85.9398 51.6096C84.9851 51.7243 84.8213 48.4296 84.8213 48.4296L84.7792 48.2283L84.2129 45.3969L87.5568 43.3494L88.0411 43.0803C88.0411 43.0803 88.1441 43.8642 88.2751 44.8377C88.2751 44.8845 88.2868 44.9289 88.2915 44.9781C88.2962 45.0272 88.3079 45.0857 88.3126 45.1372C88.3328 45.2823 88.3516 45.4297 88.3687 45.5794C88.3828 45.6918 88.3968 45.8134 88.4038 45.9211C88.4109 46.0287 88.4272 46.1551 88.4389 46.2744C88.5166 47.1215 88.5346 47.973 88.4928 48.8227Z" fill="#AD6359"/>
<path d="M84.2129 45.3969L84.6809 47.6995C86.2159 48.1885 87.8095 47.7486 88.5091 47.4959C88.4951 47.1168 88.4717 46.6956 88.4366 46.2768C88.4366 46.1551 88.4155 46.0428 88.4038 45.9187C88.3921 45.7947 88.3804 45.6847 88.3664 45.5794C88.3524 45.4741 88.3313 45.2823 88.3102 45.1372C88.3102 45.0834 88.2962 45.0342 88.2892 44.9781C88.2821 44.9219 88.2892 44.8845 88.2728 44.8377C88.1535 43.8642 88.0388 43.0803 88.0388 43.0803L87.5568 43.3494L84.2129 45.3969Z" fill="#263238"/>
<path d="M91.7274 40.931C92.8552 45.8567 90.0332 47.0899 88.9685 47.3309C88.0044 47.5509 84.6933 48.178 83.0623 43.395C81.4314 38.6121 83.3642 36.5295 85.5427 35.907C87.7213 35.2846 90.5925 36.0053 91.7274 40.931Z" fill="#AD6359"/>
<path d="M83.3496 44.16C83.6506 43.9486 83.8919 43.663 84.0502 43.331C84.2084 42.9989 84.2782 42.6316 84.2529 42.2646C85.0786 41.7449 85.7475 41.0105 86.1881 40.1399C86.1693 40.2522 86.0406 41.0549 85.9541 41.462C89.0546 40.4207 89.67 37.7718 89.67 37.7718C90.3688 38.2726 90.9495 38.9203 91.3712 39.6696C91.3712 39.6696 91.095 37.6502 89.8876 36.4357C88.4111 34.9451 86.7754 35.4857 86.7754 35.4857C85.9602 35.3939 85.1355 35.5312 84.3939 35.8821C83.6524 36.233 83.0234 36.7837 82.5774 37.4723C80.8552 40.0767 83.3496 44.16 83.3496 44.16Z" fill="#263238"/>
<path d="M88.3066 40.5947C87.838 40.9518 87.3171 41.2344 86.7622 41.4324C87.6266 41.0573 88.365 40.4416 88.8893 39.6587C89.1146 39.3219 89.2962 38.9578 89.4298 38.5753C89.5926 38.1579 89.6721 37.7127 89.6638 37.2649C89.6626 37.261 89.6623 37.2569 89.663 37.2529C89.6637 37.249 89.6652 37.2452 89.6676 37.2419C89.67 37.2387 89.6732 37.236 89.6768 37.2342C89.6804 37.2324 89.6843 37.2314 89.6884 37.2314C89.6924 37.2314 89.6964 37.2324 89.7 37.2342C89.7036 37.236 89.7067 37.2387 89.7091 37.2419C89.7115 37.2452 89.7131 37.249 89.7138 37.2529C89.7144 37.2569 89.7142 37.261 89.713 37.2649C89.7655 37.7082 89.7449 38.1572 89.6521 38.594C89.5452 39.0194 89.3595 39.421 89.1045 39.778C88.8796 40.091 88.61 40.3693 88.3043 40.604L88.3066 40.5947Z" fill="#263238"/>
<path d="M83.8618 43.1028C83.8618 43.1028 82.5537 41.6988 81.8985 42.1808C81.2433 42.6629 82.3806 44.818 83.2558 45.0122C83.3664 45.0447 83.4824 45.0545 83.5969 45.041C83.7114 45.0275 83.822 44.9911 83.9221 44.9338C84.0222 44.8766 84.1097 44.7997 84.1793 44.7079C84.249 44.616 84.2994 44.511 84.3275 44.3992L83.8618 43.1028Z" fill="#AD6359"/>
<path d="M82.2417 42.7891V42.8102C82.8595 42.967 83.2409 43.4654 83.5357 43.9942C83.4939 43.9399 83.4406 43.8954 83.3797 43.8639C83.3188 43.8324 83.2516 43.8147 83.1831 43.812C83.1146 43.8093 83.0463 43.8218 82.9831 43.8484C82.9199 43.875 82.8633 43.9152 82.8173 43.9662C82.8033 43.9779 82.8173 43.9989 82.8384 43.9942C82.9361 43.9473 83.0459 43.9317 83.1527 43.9498C83.2596 43.9678 83.3582 44.0185 83.4351 44.0949C83.5629 44.2244 83.6767 44.3672 83.7744 44.5207C83.8095 44.5699 83.9008 44.5207 83.8727 44.4716V44.4576C83.7744 43.7111 83.0513 42.7517 82.2417 42.7891Z" fill="#263238"/>
<path d="M90.9433 40.2487C90.8403 40.1972 90.735 40.1644 90.625 40.1223C90.5192 40.0627 90.3966 40.0397 90.2764 40.0568C90.2401 40.0695 90.209 40.0938 90.1878 40.1259C90.1667 40.1581 90.1567 40.1962 90.1594 40.2346C90.1763 40.3105 90.2132 40.3805 90.2662 40.4372C90.3193 40.494 90.3866 40.5356 90.4612 40.5575C90.6072 40.628 90.7744 40.6405 90.9292 40.5926C90.9627 40.5788 90.9915 40.5557 91.0123 40.526C91.033 40.4963 91.0449 40.4613 91.0463 40.4251C91.0478 40.3889 91.0389 40.3531 91.0206 40.3218C91.0024 40.2905 90.9755 40.2651 90.9433 40.2487Z" fill="#263238"/>
<path d="M87.433 40.9223C87.5243 40.8498 87.6202 40.796 87.7162 40.7328C87.807 40.6516 87.9223 40.603 88.0438 40.5947C88.0827 40.5995 88.1189 40.617 88.1469 40.6445C88.1748 40.672 88.1928 40.708 88.1982 40.7468C88.1963 40.8248 88.1736 40.9008 88.1325 40.967C88.0913 41.0333 88.0333 41.0873 87.9642 41.1236C87.8374 41.2207 87.6787 41.2667 87.5196 41.2523C87.4841 41.2462 87.4511 41.2301 87.4246 41.2058C87.398 41.1815 87.379 41.15 87.3699 41.1152C87.3608 41.0804 87.3619 41.0437 87.3731 41.0095C87.3843 40.9753 87.4051 40.945 87.433 40.9223Z" fill="#263238"/>
<path d="M88.4364 41.6875C88.4364 41.6758 88.413 41.7086 88.4176 41.7226C88.4925 42.0502 88.5253 42.441 88.2468 42.6095C88.2468 42.6095 88.2468 42.6306 88.2468 42.6259C88.6072 42.5042 88.5604 41.9871 88.4364 41.6875Z" fill="#263238"/>
<path d="M88.0708 41.4019C87.5302 41.465 87.6987 42.5414 88.1995 42.4806C88.7002 42.4198 88.5224 41.348 88.0708 41.4019Z" fill="#263238"/>
<path d="M87.868 41.4906C87.7837 41.5678 87.7089 41.6895 87.5989 41.7246C87.4889 41.7597 87.3532 41.6614 87.2502 41.5655C87.2385 41.5655 87.2315 41.5655 87.2338 41.5818C87.2643 41.7878 87.3766 41.9867 87.6012 41.982C87.8259 41.9773 87.9218 41.7737 87.9405 41.5584C87.9452 41.5116 87.9031 41.4602 87.868 41.4906Z" fill="#263238"/>
<path d="M90.2863 41.3598C90.2863 41.3457 90.3144 41.3715 90.3167 41.3855C90.3565 41.7201 90.4571 42.0875 90.7847 42.1624C90.7847 42.1624 90.7964 42.1811 90.7847 42.1811C90.3986 42.1835 90.2699 41.6827 90.2863 41.3598Z" fill="#263238"/>
<path d="M90.5315 40.9674C91.0604 40.8457 91.264 41.9151 90.7655 42.0274C90.2671 42.1397 90.0916 41.068 90.5315 40.9674Z" fill="#263238"/>
<path d="M90.767 40.9945C90.863 41.0343 90.9659 41.1209 91.0666 41.1092C91.1672 41.0975 91.2491 40.9641 91.3006 40.8377C91.3006 40.826 91.3169 40.8377 91.3193 40.8377C91.3637 41.0413 91.338 41.2659 91.1485 41.3432C90.9589 41.4204 90.8115 41.2613 90.7249 41.067C90.7109 41.0413 90.7273 40.9781 90.767 40.9945Z" fill="#263238"/>
<path d="M88.8287 44.46C88.9176 44.5302 89.0113 44.6284 89.1329 44.6238C89.2575 44.608 89.3771 44.5657 89.4839 44.4997C89.4862 44.4981 89.489 44.4972 89.4918 44.4974C89.4946 44.4976 89.4972 44.4988 89.4992 44.5008C89.5012 44.5028 89.5024 44.5055 89.5026 44.5083C89.5028 44.5111 89.502 44.5139 89.5003 44.5161C89.4593 44.5872 89.4003 44.6462 89.3292 44.6873C89.2582 44.7284 89.1776 44.75 89.0955 44.7501C89.0252 44.7399 88.9594 44.7091 88.9066 44.6617C88.8537 44.6142 88.816 44.5522 88.7983 44.4834C88.7913 44.46 88.817 44.46 88.8287 44.46Z" fill="#263238"/>
<path d="M90.0175 43.0263C90.0175 43.0263 90.1696 43.5107 90.2093 43.7447C90.2093 43.7681 90.1579 43.7868 90.0783 43.8055C89.8834 43.8758 89.6729 43.8911 89.4699 43.8498C89.2668 43.8086 89.079 43.7123 88.927 43.5715C88.906 43.5528 88.927 43.5224 88.9551 43.5341C89.288 43.6872 89.6613 43.729 90.0198 43.6534C90.0198 43.5855 89.732 42.8321 89.7694 42.8227C89.9532 42.808 90.1382 42.8183 90.3193 42.8531C90.0315 41.8352 89.5822 40.8711 89.3084 39.8532C89.3084 39.8158 89.3506 39.7947 89.3669 39.8275C89.9098 40.8033 90.2678 41.9686 90.5931 43.0122C90.6282 43.1456 90.1181 43.0567 90.0175 43.0263Z" fill="#263238"/>
<path d="M88.221 43.0811C88.221 43.3291 87.9168 43.5491 87.519 43.5491C87.1212 43.5491 86.7842 43.3806 86.7749 43.1326C86.7655 42.8845 87.0791 42.6646 87.4769 42.6646C87.8747 42.6646 88.221 42.833 88.221 43.0811Z" fill="#E08373"/>
<path d="M91.8469 42.0755C91.8919 42.1718 91.9064 42.2796 91.8884 42.3844C91.8704 42.4893 91.8209 42.5861 91.7463 42.6619C91.6718 42.7378 91.5758 42.7891 91.4714 42.8089C91.3669 42.8287 91.2588 42.8161 91.1617 42.7728C91.0646 42.7295 90.983 42.6576 90.9278 42.5666C90.8727 42.4757 90.8467 42.3701 90.8533 42.2639C90.8599 42.1578 90.8987 42.0562 90.9647 41.9727C91.0306 41.8893 91.1204 41.828 91.2222 41.797C91.342 41.7513 91.475 41.7549 91.5921 41.8071C91.7092 41.8593 91.8009 41.9558 91.8469 42.0755Z" fill="#E08373"/>
<path d="M81.5254 50.7036C81.6635 49.7349 73.6045 47.9424 73.2044 49.3277C71.2692 56.0505 72.0835 61.842 72.6638 63.0495C73.422 64.6313 75.6075 64.8138 76.5646 64.175C77.9499 63.253 80.3858 58.7017 81.5254 50.7036Z" fill="#AD6359"/>
<path d="M81.3176 51.8408C81.2194 52.6271 81.0836 53.411 80.9432 54.1808C80.8028 54.9507 80.6227 55.7369 80.4425 56.5091C80.2623 57.2813 80.0306 58.0559 79.7966 58.8093C79.5624 59.5703 79.2371 60.3002 78.8279 60.9832C78.9121 60.803 79.0034 60.6275 79.0829 60.4473L79.2982 59.8951L79.4924 59.3358C79.5556 59.1463 79.6094 58.9568 79.6679 58.7696C79.9019 58.0114 80.1032 57.2486 80.2834 56.4764C80.4635 55.7042 80.6507 54.9366 80.8216 54.1644L81.3176 51.8408Z" fill="#263238"/>
<path d="M73.0762 49.7927C73.4288 48.1675 73.863 46.561 74.3772 44.9794C74.7657 43.8632 76.0901 41.4904 76.7523 40.8001C77.7398 39.7682 82.5368 36.0803 83.4564 37.2246C84.2871 38.2589 79.7639 40.9031 79.7639 40.9031C79.7639 40.9031 84.0929 37.833 84.8651 39.2651C85.6373 40.6972 80.1289 43.0091 80.1289 43.0091C80.1289 43.0091 84.6475 39.953 85.2114 41.5536C85.6373 42.7634 80.7654 45.1361 80.7654 45.1361C80.7654 45.1361 84.6662 42.5341 85.1576 43.7602C85.7005 45.1151 81.3434 47.5861 81.3434 47.5861C82.0664 50.9113 81.1211 52.7341 80.2413 53.9813C80.0283 54.2879 73.0762 49.7927 73.0762 49.7927Z" fill="#AD6359"/>
<path d="M78.2031 41.8688C78.6969 41.4897 79.1953 41.1036 79.7241 40.769C80.253 40.4344 80.7912 40.1185 81.3457 39.833C82.0659 39.4492 82.8274 39.1485 83.6155 38.9368C82.2443 39.4048 80.3395 40.5748 79.8107 40.9141C79.2819 41.2534 78.7413 41.5552 78.2148 41.8875C78.2008 41.8992 78.1891 41.8852 78.2031 41.8688Z" fill="#263238"/>
<path d="M79.3713 43.7964C80.0241 43.3401 80.6559 42.8604 81.3298 42.4345C82.0038 42.0086 82.6753 41.6623 83.3727 41.2856C83.4265 41.2551 83.4241 41.2856 83.3727 41.3254C82.6917 41.7325 82.0927 42.1607 81.4141 42.5749C80.7355 42.9891 80.0428 43.3775 79.3829 43.8128C79.3712 43.8198 79.3619 43.8034 79.3713 43.7964Z" fill="#263238"/>
<path d="M80.0743 45.5938C81.0585 44.8675 82.1156 44.2456 83.2286 43.7382C83.2824 43.7124 83.2754 43.7616 83.2286 43.792C82.1686 44.3887 81.3309 44.8497 80.107 45.6265C80.0813 45.6289 80.0532 45.6078 80.0743 45.5938Z" fill="#263238"/>
<path d="M83.2648 46.3325C83.6524 46.0438 84.0156 45.7237 84.3506 45.3754C84.6975 45.0483 84.96 44.642 85.1158 44.1914C85.1463 44.0854 85.1485 43.9732 85.1223 43.866C85.096 43.7589 85.0421 43.6605 84.966 43.5806C84.8753 43.517 84.7717 43.474 84.6625 43.4546C84.5534 43.4352 84.4413 43.4399 84.3342 43.4683C83.8597 43.5448 83.402 43.7032 82.9817 43.9363C83.371 43.6688 83.7409 43.374 84.0885 43.0541C84.4631 42.7782 84.7809 42.4326 85.0245 42.0362C85.0806 41.9456 85.1143 41.843 85.1228 41.7368C85.1313 41.6306 85.1145 41.5239 85.0737 41.4255C85.0185 41.3359 84.9398 41.2631 84.8461 41.2152C84.7525 41.1674 84.6474 41.1462 84.5425 41.154C84.078 41.1678 83.6212 41.2753 83.1993 41.4699L83.1736 41.4185C83.6061 41.1631 84.008 40.8593 84.3717 40.5129C84.5601 40.3489 84.7185 40.1533 84.8397 39.9349C84.9013 39.8282 84.9337 39.7071 84.9337 39.5839C84.9337 39.4607 84.9013 39.3396 84.8397 39.2329C84.9112 39.3396 84.952 39.4639 84.9578 39.5922C84.9636 39.7205 84.9341 39.848 84.8724 39.9607C84.7603 40.1901 84.6081 40.3977 84.4231 40.5737C84.0572 40.9266 83.6475 41.2309 83.204 41.4793L83.1759 41.4278C83.6135 41.2359 84.0487 41.009 84.5495 41.0113C84.6788 41.0132 84.8066 41.0394 84.9262 41.0885C85.051 41.1446 85.1532 41.241 85.2164 41.3623C85.269 41.4828 85.2926 41.614 85.2853 41.7452C85.278 41.8765 85.24 42.0042 85.1743 42.1181C84.9255 42.5372 84.5981 42.9043 84.2102 43.1992C83.8254 43.4817 83.4212 43.7366 83.0004 43.962V43.9457C83.4286 43.7117 83.8335 43.4238 84.3295 43.3373C84.4582 43.3074 84.5918 43.3063 84.7209 43.3343C84.8499 43.3622 84.9712 43.4184 85.076 43.4987C85.1667 43.5957 85.2303 43.715 85.2603 43.8444C85.2903 43.9738 85.2856 44.1088 85.2468 44.2358C85.0797 44.7025 84.7943 45.1177 84.4185 45.4409C84.0593 45.7695 83.6734 46.0677 83.2648 46.3325Z" fill="#263238"/>
<path d="M58.8926 39.509C60.1421 47.1701 60.5306 49.4938 62.5828 49.1568C64.6349 48.8198 64.2559 46.4986 63.0063 38.8374L58.8926 39.509Z" fill="#EBEBEB"/>
<path d="M58.8926 39.5089C59.2108 41.3341 59.5127 43.1616 59.8777 44.9775C60.0471 45.8868 60.2913 46.7806 60.6078 47.6497C60.7558 48.0831 60.9998 48.4774 61.3215 48.8034C61.4867 48.9547 61.6896 49.059 61.9088 49.1052C62.1307 49.1474 62.3585 49.1474 62.5804 49.1052C62.8032 49.073 63.0182 49 63.2146 48.8899C63.4054 48.7771 63.5629 48.6156 63.6709 48.4219C63.869 48.0109 63.973 47.5608 63.9751 47.1045C63.9944 46.1811 63.9389 45.2577 63.8089 44.3433C63.5749 42.5064 63.2731 40.6789 62.9852 38.849L63.0203 38.8747L58.8926 39.5089ZM58.8926 39.5089L63.0016 38.8069H63.032V38.8373C63.3339 40.6648 63.6498 42.49 63.8908 44.3293C64.0262 45.2495 64.088 46.1791 64.0757 47.1092C64.0754 47.5833 63.9657 48.051 63.7551 48.4758C63.6375 48.6873 63.4654 48.8634 63.2567 48.9859C62.8347 49.2161 62.3479 49.2985 61.8737 49.2199C61.6376 49.1679 61.4195 49.0541 61.2419 48.8899C60.9106 48.554 60.6608 48.1466 60.5119 47.6989C60.205 46.8225 59.9703 45.9225 59.8099 45.0079C59.4378 43.1733 59.1781 41.3388 58.8926 39.5089Z" fill="#263238"/>
<path d="M63.5829 57.1322L64.1626 57.0376L62.6235 47.6082L62.0439 47.7028L63.5829 57.1322Z" fill="#EBEBEB"/>
<path d="M60.7815 58.3813L67.2142 57.3306L63.8399 56.8977L60.7815 58.3813Z" fill="#EBEBEB"/>
<path d="M62.4802 48.5256C61.3313 48.6871 60.7931 47.2012 59.9062 42.8745C60.4579 43.0099 60.9757 43.2577 61.4273 43.6023C61.9584 44.0515 62.5364 44.3043 63.1869 43.3683C63.1822 43.3753 64.3359 48.2612 62.4802 48.5256Z" fill="#C53F3F"/>
<path d="M59.9462 41.3264C59.9462 41.3264 60.7231 39.3585 60.2059 38.3125C59.9906 37.882 59.67 37.6667 59.3869 37.765C59.1038 37.8632 58.9189 38.467 59.305 38.935C59.904 39.651 60.1006 40.2196 59.9462 41.3264Z" fill="#C53F3F"/>
<path d="M60.608 41.7158C60.608 41.7158 60.2359 40.4943 60.8256 40.5458C61.4153 40.5973 60.608 41.7158 60.608 41.7158Z" fill="#C53F3F"/>
<path d="M90.5903 53.4489C88.9523 57.593 84.8199 65.8509 81.8247 66.2557C79.6578 66.5529 70.9998 61.0375 68.8072 59.0976C66.6895 57.2256 73.3351 51.729 74.6572 52.7422C76.5292 54.1696 80.7412 57.5158 81.6 57.593C82.1967 57.6492 83.1374 56.2709 88.386 51.509C91.056 49.0848 91.4514 51.2844 90.5903 53.4489Z" fill="#AD6359"/>
<path d="M75.2418 53.1559C75.2418 53.1559 72.4736 51.1786 70.6016 49.9711C69.558 49.2972 67.6649 48.3003 66.6704 48.1553C65.1845 47.94 58.8314 47.9844 58.8104 49.5265C58.7893 50.9305 64.2438 50.1887 64.2438 50.1887C64.2438 50.1887 58.6746 50.4415 58.9601 52.1239C59.2456 53.8064 65.2945 52.1614 65.2945 52.1614C65.2945 52.1614 59.5802 52.5498 60.1465 54.2393C60.5771 55.5146 66.1416 54.3329 66.1416 54.3329C66.1416 54.3329 61.2276 54.7003 61.616 56.0317C62.0419 57.5036 67.2461 56.7337 67.2461 56.7337C68.7951 59.9559 70.7561 60.9949 72.3941 61.3225C72.7755 61.3997 75.2418 53.1559 75.2418 53.1559Z" fill="#AD6359"/>
<path d="M65.9015 49.9964C61.7854 49.87 59.7286 51.0681 59.7894 51.0471C61.2332 50.558 63.5638 50.2912 64.2167 50.2281C64.8695 50.1649 65.2533 50.0853 65.9038 50.0221C65.9202 50.0198 65.9179 49.9987 65.9015 49.9964Z" fill="#263238"/>
<path d="M66.4397 52.3278C64.777 52.2022 63.1051 52.3734 61.5023 52.8332C61.4415 52.8543 61.4649 52.8753 61.5304 52.866C62.3564 52.7607 65.6137 52.412 66.4444 52.3488C66.4584 52.3488 66.4584 52.3301 66.4397 52.3278Z" fill="#263238"/>
<path d="M67.0344 54.3043C65.7443 54.2331 64.4523 54.4038 63.2249 54.8074C63.164 54.8238 63.2015 54.8566 63.267 54.8449C64.5282 54.6553 65.5181 54.4962 67.0344 54.3488C67.0601 54.3464 67.0625 54.3043 67.0344 54.3043Z" fill="#263238"/>
<path d="M71.1641 50.3687C72.0235 50.8531 72.8534 51.3883 73.6491 51.9716C74.4518 52.5449 75.2333 53.1416 76.0219 53.7383L78.3619 55.5401C78.7527 55.8372 79.1458 56.1321 79.5483 56.4176C79.9508 56.703 80.3556 56.9768 80.7791 57.2295C79.9069 56.767 79.0714 56.2381 78.28 55.6477C77.4797 55.0721 76.6982 54.4777 75.9119 53.8787C75.1257 53.2796 74.3511 52.6736 73.5719 52.0792C72.7927 51.4848 71.9924 50.9022 71.1641 50.3687Z" fill="#263238"/>
<path d="M71.4968 61.0872C72.4562 61.6885 73.4133 62.2899 74.3797 62.8749C75.3461 63.4599 76.3125 64.0449 77.3281 64.534C78.3437 65.023 79.3639 65.5238 80.4052 65.938C80.9247 66.1345 81.4863 66.3077 82.0268 66.1603C82.5658 65.9947 83.0668 65.7243 83.501 65.3647C83.0836 65.7548 82.5895 66.0537 82.0502 66.2422C81.7703 66.3223 81.4758 66.3375 81.1891 66.2866C80.9064 66.2342 80.6291 66.1558 80.3607 66.0526C79.8225 65.8608 79.3077 65.6221 78.7929 65.3881L77.2509 64.6861C76.7384 64.438 76.2447 64.1572 75.7556 63.8718C75.2666 63.5863 74.7822 63.2914 74.3095 62.9826C73.3548 62.3812 72.4141 61.7494 71.4968 61.0872Z" fill="#263238"/>
<path d="M89.6709 55.5981C89.7841 55.1489 89.9716 54.7219 90.2255 54.3345C90.1122 54.7836 89.9248 55.2107 89.6709 55.5981Z" fill="#263238"/>
<path d="M89.9133 55.1175C89.9789 55.0262 90.0467 54.942 90.1052 54.8507C90.1637 54.7595 90.2199 54.6682 90.2784 54.5723C90.262 54.6843 90.2196 54.7909 90.1543 54.8835C90.0916 54.9778 90.0095 55.0576 89.9133 55.1175Z" fill="#263238"/>
<path d="M86.4514 53.2868C86.5918 53.1024 86.7484 52.9309 86.9194 52.7744C87.0875 52.6165 87.2701 52.4747 87.4646 52.3508C87.3262 52.5362 87.1694 52.7071 86.9966 52.8609C86.8289 53.02 86.6463 53.1626 86.4514 53.2868Z" fill="#263238"/>
<path d="M86.8152 52.931C86.8268 52.8149 86.8697 52.7041 86.9392 52.6104C86.9738 52.5637 87.013 52.5206 87.0562 52.4817C87.0994 52.4436 87.1474 52.4114 87.1989 52.3857C87.0454 52.548 86.9162 52.7317 86.8152 52.931Z" fill="#263238"/>
<path d="M92.4108 67.125C92.4113 67.1289 92.4113 67.1328 92.4108 67.1367V67.1578C92.3874 67.2607 92.3195 67.5977 92.2142 68.1359C92.2142 68.1702 92.2072 68.2076 92.1931 68.2482C92.1136 68.639 92.0176 69.128 91.903 69.6943C91.8843 69.7973 91.8632 69.9002 91.8398 70.0079C91.8117 70.1647 91.779 70.3261 91.7462 70.4923C91.7205 70.6186 91.6947 70.7473 91.6666 70.8807C91.6666 70.9415 91.6456 71.0024 91.6315 71.0656C91.6105 71.1732 91.5871 71.2808 91.5637 71.3932C91.5052 71.7067 91.4397 72.0343 91.3718 72.3736C91.339 72.5351 91.3063 72.6965 91.2735 72.865C91.1144 73.6583 90.9483 74.503 90.7657 75.4109C90.7236 75.6286 90.6792 75.8438 90.637 76.0615C90.637 76.0919 90.6253 76.1246 90.6183 76.1551C90.5528 76.4827 90.4849 76.8173 90.4171 77.1589C90.3492 77.5006 90.272 77.903 90.1948 78.2845L90.0403 79.0567L89.7759 80.3951C89.7385 80.58 89.701 80.7649 89.6659 80.9521L89.5536 81.509C89.4273 82.1501 89.2962 82.7983 89.1675 83.4488C89.1277 83.6454 89.0903 83.842 89.0505 84.0409C89.0341 84.1134 89.0201 84.1836 89.0061 84.2561C88.9803 84.3965 88.9522 84.5369 88.9242 84.675C88.8961 84.8131 88.8727 84.9488 88.8423 85.0845C88.8118 85.2202 88.7931 85.3185 88.7721 85.4402C88.758 85.508 88.7463 85.5782 88.7299 85.6461C88.6668 85.9737 88.6012 86.3013 88.5381 86.6289C88.5381 86.6593 88.5381 86.6921 88.517 86.7225C88.4094 87.2607 88.3041 87.7942 88.1988 88.3301C88.1449 88.6085 88.0888 88.8823 88.0326 89.1561C87.9765 89.4299 87.9273 89.6873 87.8758 89.954C87.8731 89.9722 87.8692 89.9902 87.8641 90.0079C87.8267 90.1927 87.7893 90.3776 87.7542 90.5601C87.6886 90.8854 87.6278 91.2059 87.5646 91.5218C87.5646 91.564 87.5459 91.6084 87.5389 91.6505C87.4757 91.9664 87.4125 92.2777 87.354 92.5865C87.3453 92.6148 87.3391 92.6438 87.3353 92.6731C87.2862 92.9258 87.2347 93.1739 87.1879 93.4196C87.1411 93.6653 87.0896 93.911 87.0428 94.152C87.0428 94.1894 87.0264 94.2245 87.0194 94.2643C86.6427 96.1527 86.3034 97.8703 86.0226 99.293H73.073C73.8452 95.5256 75.2024 89.6662 76.5573 83.973C78.2982 76.6535 80.0345 69.6124 80.5165 67.6585L80.6335 67.1905V67.1671V67.1414L92.4108 67.125Z" fill="#AD6359"/>
<path d="M92.4099 67.125C92.4099 67.125 89.1503 83.505 87.0139 94.269L80.6467 67.125H92.4099Z" fill="#263238"/>
<path d="M76.4216 83.9566L89.666 85.5502L92.4085 67.125H80.6477L76.4216 83.9566Z" fill="#263238"/>
<path d="M89.1766 83.0072C87.7609 82.7241 86.3241 82.5392 84.8897 82.3871C83.4553 82.235 82.0513 82.0712 80.6309 81.9191C79.8166 81.8372 78.9929 81.7553 78.1856 81.7109C78.1797 81.7094 78.1736 81.7093 78.1677 81.7106C78.1618 81.7119 78.1563 81.7144 78.1515 81.7182C78.1467 81.7219 78.1429 81.7266 78.1403 81.7321C78.1376 81.7375 78.1362 81.7435 78.1362 81.7495C78.1362 81.7555 78.1376 81.7615 78.1403 81.7669C78.1429 81.7724 78.1467 81.7771 78.1515 81.7808C78.1563 81.7845 78.1618 81.7871 78.1677 81.7884C78.1736 81.7897 78.1797 81.7896 78.1856 81.7881C79.6013 82.0525 81.0404 82.2187 82.4701 82.4059C83.8999 82.5931 85.3039 82.7709 86.7242 82.923C87.5409 83.0096 88.3622 83.0774 89.1719 83.1102C89.1803 83.1143 89.1895 83.1162 89.1988 83.1159C89.2081 83.1155 89.2172 83.1128 89.2252 83.108C89.2332 83.1033 89.2399 83.0966 89.2447 83.0886C89.2495 83.0806 89.2522 83.0716 89.2526 83.0623C89.2531 83.053 89.2512 83.0437 89.2471 83.0353C89.2431 83.027 89.237 83.0197 89.2295 83.0142C89.2219 83.0088 89.2131 83.0053 89.2039 83.0041C89.1947 83.0028 89.1853 83.0039 89.1766 83.0072Z" fill="#37474F"/>
<path d="M90.5761 68.1988C89.5917 71.7244 88.6557 75.2641 87.7681 78.8177C87.6417 79.3162 87.5224 79.8169 87.4007 80.3154C87.2641 80.8249 87.154 81.3412 87.0708 81.8621C87.0692 81.8683 87.0702 81.8749 87.0735 81.8804C87.0768 81.8858 87.0821 81.8898 87.0883 81.8913C87.0945 81.8929 87.1011 81.8919 87.1066 81.8886C87.1121 81.8853 87.116 81.88 87.1176 81.8738C87.422 80.9989 87.6798 80.1084 87.8898 79.2062C88.1238 78.3263 88.3578 77.4418 88.5918 76.5573C89.0598 74.7906 89.502 73.0239 89.9326 71.2502C90.176 70.2393 90.4185 69.2253 90.6603 68.2082C90.6616 68.197 90.6583 68.1858 90.6513 68.177C90.6443 68.1683 90.6341 68.1626 90.6229 68.1614C90.6117 68.1602 90.6005 68.1634 90.5918 68.1704C90.583 68.1774 90.5773 68.1877 90.5761 68.1988Z" fill="#37474F"/>
<path d="M100.14 99.293H87.7025C87.5785 97.056 87.4685 94.7698 87.3492 92.5913C87.2181 90.0453 87.0965 87.6492 87.0005 85.6508C87.0005 85.5081 86.9865 85.3677 86.9795 85.2296C86.9373 84.3825 86.9022 83.6127 86.8695 82.9481C86.8695 82.8381 86.8578 82.7328 86.8531 82.6299C86.8016 81.5605 86.7665 80.7883 86.7478 80.4116C86.7478 80.3632 86.7478 80.3211 86.7478 80.2852C86.7478 80.201 86.7478 80.1542 86.7478 80.1542C86.0458 79.7634 85.4421 79.4709 84.9577 79.2533L84.6769 79.1292C84.2899 78.9549 83.892 78.8056 83.4858 78.6823C83.3829 78.4226 83.2799 78.1535 83.1816 77.8797C81.677 73.6794 80.7691 67.8996 80.6615 67.1906V67.1578C80.6604 67.1453 80.6604 67.1328 80.6615 67.1204H96.2576C100.147 74.5569 98.0687 79.4802 98.0687 79.4802C98.2746 81.1955 98.5133 83.3225 98.7707 85.6532C99.1989 89.9213 99.7044 94.8891 100.14 99.293Z" fill="#AD6359"/>
<path d="M86.9648 85.6446H99.2171L98.2811 79.4717C98.2811 79.4717 100.153 73.2075 96.505 67.1118H80.6375C80.6375 67.1118 81.295 73.7504 83.2419 78.744L85.2356 79.6285L86.9648 85.6446Z" fill="#263238"/>
<path d="M85.2363 79.6308C85.2199 79.5513 85.0608 79.5536 85.0749 79.6308C85.7207 83.2719 86.7386 85.0339 86.8111 85.2C86.8132 85.2045 86.8165 85.2083 86.8206 85.211C86.8248 85.2136 86.8296 85.215 86.8345 85.215C86.8395 85.215 86.8443 85.2136 86.8484 85.211C86.8526 85.2083 86.8559 85.2045 86.8579 85.2C86.9141 85.0292 85.5265 81.1425 85.2363 79.6308Z" fill="#37474F"/>
<path d="M82.879 78.4979C84.2844 79.0098 85.6427 79.6424 86.9389 80.3886C86.948 80.3948 86.9547 80.4039 86.9578 80.4145C86.9608 80.4251 86.96 80.4364 86.9556 80.4465C86.9511 80.4565 86.9432 80.4647 86.9333 80.4695C86.9234 80.4743 86.9122 80.4755 86.9015 80.4729C85.5349 79.8855 84.1403 79.3239 82.8065 78.6617C82.7848 78.6521 82.7677 78.6342 82.7592 78.6121C82.7506 78.5899 82.7512 78.5653 82.7608 78.5435C82.7705 78.5218 82.7883 78.5048 82.8105 78.4962C82.8326 78.4877 82.8573 78.4883 82.879 78.4979Z" fill="#37474F"/>
<path d="M82.4461 69.1139C82.4461 69.0671 82.5327 69.0577 82.5304 69.1139C82.5304 70.7378 82.624 72.1676 82.7644 73.6839C82.8299 74.3859 83.3962 78.282 84.6177 77.9965C84.8212 77.9497 84.9265 77.7485 84.957 77.4396C84.9967 77.0699 84.8563 76.6159 84.7955 76.2462C84.6598 75.4319 84.5615 74.6082 84.4819 73.7916C84.3391 72.2589 84.3556 70.7156 84.5311 69.1864C84.5311 69.1759 84.5353 69.1658 84.5427 69.1583C84.5502 69.1508 84.5603 69.1466 84.5709 69.1466C84.5814 69.1466 84.5915 69.1508 84.599 69.1583C84.6064 69.1658 84.6106 69.1759 84.6106 69.1864C84.5741 71.3113 84.6985 73.4358 84.9827 75.5419C85.1348 76.5551 85.6449 78.0784 84.5849 78.2352C83.5249 78.392 82.8088 75.8414 82.6778 75.1417C82.3397 73.151 82.2618 71.1247 82.4461 69.1139Z" fill="#37474F"/>
<path d="M84.5794 78.0956C84.6881 78.3584 84.7795 78.6281 84.8532 78.9029C84.9314 79.1148 84.9703 79.3392 84.9678 79.5651C84.9662 79.5741 84.9619 79.5825 84.9555 79.5892C84.9491 79.5958 84.9409 79.6004 84.9319 79.6024C84.9229 79.6044 84.9135 79.6037 84.9049 79.6004C84.8963 79.5971 84.8889 79.5913 84.8836 79.5838C84.7568 79.3842 84.6613 79.1664 84.6004 78.938C84.5068 78.6899 84.4086 78.4419 84.322 78.1892C84.3146 78.1564 84.3194 78.1221 84.3355 78.0926C84.3516 78.0631 84.3779 78.0405 84.4095 78.0291C84.441 78.0176 84.4757 78.018 84.507 78.0302C84.5383 78.0425 84.564 78.0657 84.5794 78.0956Z" fill="#37474F"/>
<path d="M95.9416 73.8757C94.788 73.761 93.6016 73.7774 92.5299 73.2603C91.4582 72.7431 90.7515 71.7065 90.1899 70.6699C89.8496 70.0281 89.5925 69.3455 89.4247 68.6388C89.4229 68.6324 89.4191 68.6268 89.4138 68.6228C89.4085 68.6189 89.4021 68.6167 89.3955 68.6167C89.3889 68.6167 89.3824 68.6189 89.3771 68.6228C89.3719 68.6268 89.368 68.6324 89.3662 68.6388C89.4092 69.3 89.5676 69.9486 89.8342 70.5552C90.0745 71.1537 90.3822 71.7229 90.7515 72.2517C91.0934 72.757 91.5434 73.1798 92.0689 73.4896C92.6051 73.7787 93.194 73.957 93.8005 74.0137C94.5102 74.0875 95.2259 74.0827 95.9346 73.9997C95.9469 73.9951 95.9576 73.987 95.9655 73.9764C95.9733 73.9658 95.9778 73.9531 95.9786 73.94C95.9793 73.9268 95.9762 73.9138 95.9696 73.9023C95.9631 73.8909 95.9533 73.8817 95.9416 73.8757Z" fill="#37474F"/>
<path d="M97.5368 80.7744C97.376 80.2105 97.261 79.6346 97.1928 79.0522C97.1601 78.4742 97.4666 77.9758 97.6421 77.4423C98.3184 75.369 98.0446 73.0992 97.3051 71.0822C96.862 69.9344 96.3276 68.824 95.7069 67.7617C95.6906 67.7336 95.6508 67.7617 95.6648 67.7874C96.6757 69.7601 97.5696 71.8684 97.7708 74.1054C97.8783 75.18 97.7782 76.2651 97.476 77.3019C97.3262 77.7909 97.0454 78.2636 97.008 78.7808C96.9705 79.2979 97.1414 79.8689 97.2607 80.3883C97.4081 81.0342 97.8597 82.9834 98.0586 83.6386C98.0773 83.6948 98.1756 83.683 98.1663 83.6222C98.0703 83.0325 97.6679 81.3711 97.5368 80.7744Z" fill="#37474F"/>
<path d="M98.4184 84.0478C96.977 83.9402 95.5309 83.9426 94.0871 83.9566C92.6433 83.9706 91.2323 83.994 89.8049 84.0221C88.9859 84.0408 88.1669 84.0596 87.3526 84.1157C87.3467 84.1143 87.3406 84.1142 87.3347 84.1154C87.3288 84.1167 87.3232 84.1193 87.3185 84.123C87.3137 84.1267 87.3099 84.1315 87.3072 84.1369C87.3046 84.1423 87.3032 84.1483 87.3032 84.1543C87.3032 84.1604 87.3046 84.1663 87.3072 84.1717C87.3099 84.1772 87.3137 84.1819 87.3185 84.1857C87.3232 84.1894 87.3288 84.192 87.3347 84.1932C87.3406 84.1945 87.3467 84.1944 87.3526 84.1929C88.7917 84.2795 90.2425 84.2701 91.6839 84.2818C93.1254 84.2935 94.5411 84.2959 95.9685 84.2818C96.7875 84.2678 97.6065 84.2374 98.4208 84.1695C98.4369 84.1692 98.4523 84.1625 98.4635 84.1509C98.4746 84.1393 98.4808 84.1237 98.4805 84.1075C98.4801 84.0914 98.4734 84.076 98.4618 84.0648C98.4502 84.0537 98.4346 84.0475 98.4184 84.0478Z" fill="#37474F"/>
<path d="M48.8311 24.2356H14.6507C14.1925 24.2399 13.7396 24.3344 13.318 24.5137C12.8963 24.693 12.5141 24.9536 12.1932 25.2806C11.8722 25.6076 11.6188 25.9947 11.4475 26.4196C11.2761 26.8446 11.1902 27.2991 11.1945 27.7573V98.1188C11.1864 99.0439 11.5458 99.9345 12.1939 100.595C12.8419 101.255 13.7255 101.631 14.6507 101.64H48.8311C49.7568 101.632 50.6413 101.256 51.2902 100.596C51.9391 99.9354 52.2994 99.0445 52.2919 98.1188V27.7573C52.2959 27.2988 52.2096 26.844 52.0378 26.4189C51.8661 25.9938 51.6123 25.6067 51.2909 25.2796C50.9695 24.9526 50.5869 24.6921 50.1648 24.513C49.7428 24.3338 49.2895 24.2396 48.8311 24.2356ZM50.1298 95.9402C50.1298 97.7912 48.7445 99.2888 47.0339 99.2888H16.4548C14.7396 99.2888 13.3543 97.7912 13.3543 95.9402V30.4202C13.3543 26.6458 14.7396 26.4633 16.4548 26.4633H22.5786C22.9343 26.4633 23.2268 26.8681 23.2268 27.3689V27.5841C23.2268 28.7541 23.8679 28.7541 24.6589 28.7541H38.8252C39.6208 28.7541 40.2573 28.7541 40.2573 27.5841V27.3782C40.2573 26.8775 40.5451 26.4726 40.9078 26.4726H47.0339C48.7445 26.4726 50.1298 26.9734 50.1298 30.4296V95.9402Z" fill="#263238"/>
<path d="M33.6732 27.3013H29.8075C29.7454 27.3013 29.6859 27.2766 29.642 27.2327C29.5981 27.1888 29.5735 27.1293 29.5735 27.0673C29.5735 27.0052 29.5981 26.9457 29.642 26.9018C29.6859 26.8579 29.7454 26.8333 29.8075 26.8333H33.6732C33.7352 26.8333 33.7947 26.8579 33.8386 26.9018C33.8825 26.9457 33.9072 27.0052 33.9072 27.0673C33.9072 27.1293 33.8825 27.1888 33.8386 27.2327C33.7947 27.2766 33.7352 27.3013 33.6732 27.3013Z" fill="white"/>
<path d="M50.1313 30.4193V95.9393C50.1313 97.7903 48.7437 99.2879 47.0331 99.2879H16.454C14.7411 99.2879 13.3535 97.7903 13.3535 95.9393V30.4193C13.3535 26.6449 14.7411 26.4624 16.454 26.4624H22.5778C22.9335 26.4624 23.226 26.8672 23.226 27.368V27.5833C23.226 28.7533 23.8695 28.7533 24.6581 28.7533H38.8244C39.62 28.7533 40.2588 28.7533 40.2588 27.5833V27.3773C40.2588 26.8766 40.5443 26.4718 40.907 26.4718H47.0331C48.7437 26.4671 50.1313 26.9678 50.1313 30.4193Z" fill="white"/>
<path d="M50.1298 30.4193V35.3076H13.3521V30.4193C13.3521 26.6449 14.7397 26.4624 16.4549 26.4624H22.581C22.9367 26.4624 23.2269 26.8672 23.2269 27.368V27.5833C23.2269 28.7533 23.8703 28.7533 24.6589 28.7533H38.823C39.6209 28.7533 40.2597 28.7533 40.2597 27.5833V27.3773C40.2597 26.8766 40.5475 26.4718 40.9079 26.4718H47.034C48.7422 26.4671 50.1298 26.9678 50.1298 30.4193Z" fill="#C53F3F"/>
<path d="M17.0766 32.9264L15.9885 31.9085L17.0766 30.8906L17.2451 31.0708L16.3489 31.9085L17.2451 32.7462L17.0766 32.9264Z" fill="white"/>
<path d="M47.5018 31.4874C47.5023 31.5301 47.49 31.5721 47.4665 31.6078C47.4431 31.6436 47.4095 31.6716 47.37 31.6881C47.3306 31.7047 47.2871 31.7092 47.2451 31.701C47.2032 31.6927 47.1646 31.6722 47.1343 31.6419C47.1041 31.6117 47.0835 31.5731 47.0753 31.5311C47.0671 31.4891 47.0715 31.4457 47.0881 31.4062C47.1047 31.3668 47.1327 31.3332 47.1684 31.3097C47.2042 31.2863 47.2461 31.274 47.2889 31.2744C47.3452 31.275 47.399 31.2977 47.4388 31.3375C47.4786 31.3773 47.5012 31.4311 47.5018 31.4874Z" fill="white"/>
<path d="M47.5018 32.2476C47.5023 32.2904 47.49 32.3323 47.4665 32.3681C47.4431 32.4039 47.4095 32.4318 47.37 32.4484C47.3306 32.465 47.2871 32.4694 47.2451 32.4612C47.2032 32.453 47.1646 32.4324 47.1343 32.4022C47.1041 32.3719 47.0835 32.3334 47.0753 32.2914C47.0671 32.2494 47.0715 32.2059 47.0881 32.1665C47.1047 32.1271 47.1327 32.0935 47.1684 32.07C47.2042 32.0465 47.2461 32.0342 47.2889 32.0347C47.3454 32.0347 47.3995 32.0571 47.4395 32.0971C47.4794 32.137 47.5018 32.1911 47.5018 32.2476Z" fill="white"/>
<path d="M47.5018 33.0086C47.5023 33.0514 47.49 33.0933 47.4665 33.1291C47.4431 33.1648 47.4095 33.1928 47.37 33.2094C47.3306 33.226 47.2871 33.2304 47.2451 33.2222C47.2032 33.214 47.1646 33.1934 47.1343 33.1632C47.1041 33.1329 47.0835 33.0943 47.0753 33.0524C47.0671 33.0104 47.0715 32.9669 47.0881 32.9275C47.1047 32.888 47.1327 32.8544 47.1684 32.831C47.2042 32.8075 47.2461 32.7952 47.2889 32.7957C47.3454 32.7957 47.3995 32.8181 47.4395 32.858C47.4794 32.898 47.5018 32.9521 47.5018 33.0086Z" fill="white"/>
<path d="M21.5305 27.9395L21.4697 27.998C21.4593 28.0095 21.4484 28.0204 21.4369 28.0308C21.3621 27.9558 21.2733 27.8964 21.1755 27.8558C21.0778 27.8153 20.973 27.7944 20.8671 27.7944C20.7613 27.7944 20.6564 27.8153 20.5587 27.8558C20.4609 27.8964 20.3721 27.9558 20.2973 28.0308L20.2646 27.998L20.2061 27.9395L20.2809 27.8717C20.3343 27.8285 20.3924 27.7916 20.4541 27.7617C20.5281 27.7251 20.6069 27.6991 20.6881 27.6844C20.7255 27.6844 20.7653 27.6845 20.8028 27.6704H20.9034H20.9806C21.0526 27.6794 21.1232 27.6966 21.1912 27.7219C21.2404 27.7399 21.2882 27.7618 21.3339 27.7874C21.3819 27.8153 21.4273 27.8474 21.4697 27.8834L21.5328 27.9395H21.5305Z" fill="white"/>
<path d="M20.4784 28.2171L20.3848 28.1235C20.4864 28.0194 20.6197 27.9519 20.7638 27.9317C20.8676 27.9165 20.9734 27.9257 21.0729 27.9586C21.1724 27.9915 21.2629 28.0472 21.3371 28.1212L21.2435 28.2148C21.1418 28.1138 21.0043 28.0571 20.861 28.0571C20.7176 28.0571 20.5801 28.1138 20.4784 28.2148V28.2171Z" fill="white"/>
<path d="M21.1507 28.3147L21.0571 28.406C21.0048 28.3552 20.9347 28.3268 20.8617 28.3268C20.7888 28.3268 20.7187 28.3552 20.6664 28.406L20.5728 28.3147C20.6104 28.2763 20.6554 28.2458 20.705 28.2249C20.7546 28.2041 20.8079 28.1934 20.8617 28.1934C20.9156 28.1934 20.9688 28.2041 21.0185 28.2249C21.0681 28.2458 21.113 28.2763 21.1507 28.3147Z" fill="white"/>
<path d="M20.948 28.4876C20.948 28.5099 20.9391 28.5313 20.9233 28.5471C20.9076 28.5629 20.8861 28.5718 20.8638 28.5718C20.8414 28.5718 20.82 28.5629 20.8042 28.5471C20.7884 28.5313 20.7795 28.5099 20.7795 28.4876C20.7801 28.4654 20.7892 28.4443 20.8049 28.4286C20.8205 28.413 20.8416 28.4039 20.8638 28.4033C20.8861 28.4033 20.9076 28.4122 20.9233 28.428C20.9391 28.4438 20.948 28.4652 20.948 28.4876Z" fill="white"/>
<path d="M15.7507 28.118C15.7507 28.0718 15.7645 28.0265 15.7902 27.988C15.8159 27.9495 15.8524 27.9196 15.8952 27.9018C15.9379 27.8841 15.985 27.8795 16.0304 27.8885C16.0758 27.8976 16.1175 27.9198 16.1502 27.9526C16.1829 27.9853 16.2052 28.027 16.2142 28.0724C16.2233 28.1178 16.2186 28.1648 16.2009 28.2076C16.1832 28.2503 16.1532 28.2869 16.1147 28.3126C16.0763 28.3383 16.031 28.352 15.9847 28.352C15.9227 28.352 15.8632 28.3274 15.8193 28.2835C15.7754 28.2396 15.7507 28.1801 15.7507 28.118Z" fill="white"/>
<path d="M16.5217 28.118C16.5217 28.0718 16.5355 28.0265 16.5612 27.988C16.5869 27.9495 16.6234 27.9196 16.6662 27.9018C16.7089 27.8841 16.756 27.8795 16.8014 27.8885C16.8468 27.8976 16.8885 27.9198 16.9212 27.9526C16.9539 27.9853 16.9762 28.027 16.9852 28.0724C16.9943 28.1178 16.9896 28.1648 16.9719 28.2076C16.9542 28.2503 16.9242 28.2869 16.8857 28.3126C16.8473 28.3383 16.802 28.352 16.7557 28.352C16.6937 28.352 16.6341 28.3274 16.5903 28.2835C16.5464 28.2396 16.5217 28.1801 16.5217 28.118Z" fill="white"/>
<path d="M17.2881 28.118C17.2881 28.0718 17.3018 28.0265 17.3275 27.988C17.3532 27.9495 17.3898 27.9196 17.4325 27.9018C17.4753 27.8841 17.5223 27.8795 17.5677 27.8885C17.6131 27.8976 17.6548 27.9198 17.6875 27.9526C17.7203 27.9853 17.7426 28.027 17.7516 28.0724C17.7606 28.1178 17.756 28.1648 17.7383 28.2076C17.7206 28.2503 17.6906 28.2869 17.6521 28.3126C17.6136 28.3383 17.5684 28.352 17.5221 28.352C17.46 28.352 17.4005 28.3274 17.3566 28.2835C17.3127 28.2396 17.2881 28.1801 17.2881 28.118Z" fill="white"/>
<path d="M18.0544 28.118C18.0544 28.0718 18.0682 28.0265 18.0939 27.988C18.1196 27.9495 18.1561 27.9196 18.1989 27.9018C18.2417 27.8841 18.2887 27.8795 18.3341 27.8885C18.3795 27.8976 18.4212 27.9198 18.4539 27.9526C18.4866 27.9853 18.5089 28.027 18.5179 28.0724C18.527 28.1178 18.5223 28.1648 18.5046 28.2076C18.4869 28.2503 18.4569 28.2869 18.4184 28.3126C18.38 28.3383 18.3347 28.352 18.2884 28.352C18.2264 28.352 18.1669 28.3274 18.123 28.2835C18.0791 28.2396 18.0544 28.1801 18.0544 28.118Z" fill="white"/>
<path d="M18.8225 28.118C18.8225 28.0718 18.8362 28.0265 18.8619 27.988C18.8877 27.9495 18.9242 27.9196 18.967 27.9018C19.0097 27.8841 19.0568 27.8795 19.1022 27.8885C19.1476 27.8976 19.1892 27.9198 19.222 27.9526C19.2547 27.9853 19.277 28.027 19.286 28.0724C19.295 28.1178 19.2904 28.1648 19.2727 28.2076C19.255 28.2503 19.225 28.2869 19.1865 28.3126C19.148 28.3383 19.1028 28.352 19.0565 28.352C18.9944 28.352 18.9349 28.3274 18.891 28.2835C18.8472 28.2396 18.8225 28.1801 18.8225 28.118Z" fill="white"/>
<path d="M47.3806 28.6584H45.3799V27.7224H47.3806V28.6584ZM45.5086 28.5414H47.2683V27.8394H45.5016L45.5086 28.5414Z" fill="white"/>
<path d="M46.8325 27.8865H45.5525V28.4925H46.8325V27.8865Z" fill="white"/>
<path d="M47.5483 27.9446H47.3728V28.436H47.5483V27.9446Z" fill="white"/>
<path d="M18.9424 95.289H18.6616V96.5713H18.1398V95.9185H17.2155V96.5713H16.6913V95.289H16.4128L17.6764 93.981L18.9424 95.289Z" fill="#EBEBEB"/>
<path d="M47.0766 93.981H44.0276V94.4162H47.0766V93.981Z" fill="#EBEBEB"/>
<path d="M47.0766 95.0608H44.0276V95.496H47.0766V95.0608Z" fill="#EBEBEB"/>
<path d="M47.0766 96.1365H44.0276V96.5717H47.0766V96.1365Z" fill="#EBEBEB"/>
<path d="M32.6102 95.1055L31.742 96.0298L30.8762 95.1055L31.0283 94.9604L31.742 95.7233L32.4581 94.9604L32.6102 95.1055Z" fill="#EBEBEB"/>
<path d="M31.7439 96.9971C31.4295 96.9971 31.1223 96.9038 30.8609 96.7291C30.5996 96.5544 30.3959 96.3061 30.2757 96.0157C30.1556 95.7252 30.1242 95.4056 30.1857 95.0974C30.2472 94.7891 30.3988 94.506 30.6212 94.2839C30.8437 94.0618 31.127 93.9106 31.4354 93.8496C31.7437 93.7885 32.0633 93.8203 32.3535 93.941C32.6438 94.0616 32.8918 94.2656 33.0661 94.5272C33.2404 94.7888 33.3332 95.0962 33.3327 95.4105C33.3321 95.8315 33.1645 96.2351 32.8666 96.5325C32.5687 96.83 32.1649 96.9971 31.7439 96.9971ZM31.7439 94.0557C31.4759 94.0557 31.214 94.1351 30.9912 94.284C30.7684 94.4329 30.5947 94.6445 30.4922 94.8921C30.3896 95.1396 30.3628 95.412 30.4151 95.6749C30.4673 95.9377 30.5964 96.1791 30.7859 96.3686C30.9753 96.558 31.2168 96.6871 31.4796 96.7394C31.7424 96.7916 32.0148 96.7648 32.2624 96.6623C32.5099 96.5597 32.7215 96.3861 32.8704 96.1633C33.0193 95.9405 33.0987 95.6785 33.0987 95.4105C33.0957 95.0532 32.9516 94.7116 32.6978 94.4601C32.4441 94.2085 32.1012 94.0674 31.7439 94.0674V94.0557Z" fill="#EBEBEB"/>
<path d="M17.3735 62.6652H43.6751V54.405H17.3735V62.6652Z" fill="#455A64"/>
<path d="M46.1122 62.6655H43.6763V60.1289L46.1122 62.6655Z" fill="#455A64"/>
<path d="M42.1716 55.8359H18.8816V55.9927H42.1716V55.8359Z" fill="white"/>
<path d="M37.3372 56.6824H18.8816V56.8392H37.3372V56.6824Z" fill="white"/>
<path d="M40.2552 58.3762H18.8816V58.533H40.2552V58.3762Z" fill="white"/>
<path d="M42.1716 59.2234H18.8816V59.3802H42.1716V59.2234Z" fill="white"/>
<path d="M42.1716 60.0698H18.8816V60.2266H42.1716V60.0698Z" fill="white"/>
<path d="M35.7202 60.9194H18.8816V61.0762H35.7202V60.9194Z" fill="white"/>
<path d="M17.3735 82.17H43.6751V73.9121H17.3735V82.17Z" fill="#455A64"/>
<path d="M46.1122 82.1694H43.6763V79.6328L46.1122 82.1694Z" fill="#455A64"/>
<path d="M42.1716 75.3391H18.8816V75.4959H42.1716V75.3391Z" fill="white"/>
<path d="M37.3372 76.1848H18.8816V76.3416H37.3372V76.1848Z" fill="white"/>
<path d="M40.2552 77.8809H18.8816V78.0376H40.2552V77.8809Z" fill="white"/>
<path d="M42.1716 78.7295H18.8816V78.8863H42.1716V78.7295Z" fill="white"/>
<path d="M42.1716 79.5769H18.8816V79.7337H42.1716V79.5769Z" fill="white"/>
<path d="M35.7202 80.4233H18.8816V80.5801H35.7202V80.4233Z" fill="white"/>
<path d="M46.1126 39.2422H19.811V46.2107H46.1126V39.2422Z" fill="#DBDBDB"/>
<path d="M17.3735 46.2109H19.8095V43.6743L17.3735 46.2109Z" fill="#DBDBDB"/>
<path d="M40.7417 40.5293H21.3455V40.6861H40.7417V40.5293Z" fill="white"/>
<path d="M44.6355 41.3767H21.3455V41.5335H44.6355V41.3767Z" fill="white"/>
<path d="M44.6355 42.2222H21.3455V42.3789H44.6355V42.2222Z" fill="white"/>
<path d="M42.7916 43.0703H21.3455V43.2271H42.7916V43.0703Z" fill="white"/>
<path d="M44.6355 43.9199H21.3455V44.0767H44.6355V43.9199Z" fill="white"/>
<path d="M38.5538 44.7664H21.3455V44.9231H38.5538V44.7664Z" fill="white"/>
<path d="M46.1126 47.3381H19.811V52.5072H46.1126V47.3381Z" fill="#DBDBDB"/>
<path d="M17.3735 52.5058H19.8095V49.9692L17.3735 52.5058Z" fill="#DBDBDB"/>
<path d="M44.5934 48.6252H21.3455V48.782H44.5934V48.6252Z" fill="white"/>
<path d="M40.4796 49.4719H21.3455V49.6287H40.4796V49.4719Z" fill="white"/>
<path d="M42.4031 50.3191H21.3455V50.4759H42.4031V50.3191Z" fill="white"/>
<path d="M37.5874 51.167H21.3455V51.3238H37.5874V51.167Z" fill="white"/>
<path d="M46.1126 64.686H19.811V71.9705H46.1126V64.686Z" fill="#DBDBDB"/>
<path d="M17.3735 71.9709H19.8095V69.4343L17.3735 71.9709Z" fill="#DBDBDB"/>
<path d="M43.3391 68.49H21.3455V68.6468H43.3391V68.49Z" fill="white"/>
<path d="M41.549 69.3372H21.3455V69.4939H41.549V69.3372Z" fill="white"/>
<path d="M42.0708 66.7954H21.3455V66.9522H42.0708V66.7954Z" fill="white"/>
<path d="M44.3453 65.9475H21.3455V66.1043H44.3453V65.9475Z" fill="white"/>
<path d="M42.2651 70.1858H21.3455V70.3426H42.2651V70.1858Z" fill="white"/>
<path d="M46.1126 84.3196H19.811V90.3849H46.1126V84.3196Z" fill="#DBDBDB"/>
<path d="M17.3735 90.3857H19.8095V87.8491L17.3735 90.3857Z" fill="#DBDBDB"/>
<path d="M44.6355 85.5493H21.3455V85.7061H44.6355V85.5493Z" fill="white"/>
<path d="M44.6355 86.3972H21.3455V86.554H44.6355V86.3972Z" fill="white"/>
<path d="M42.7916 87.2468H21.3455V87.4036H42.7916V87.2468Z" fill="white"/>
<path d="M44.6355 88.0933H21.3455V88.25H44.6355V88.0933Z" fill="white"/>
<path d="M38.5538 88.9421H21.3455V89.0989H38.5538V88.9421Z" fill="white"/>
<path d="M43.2367 99.2926H30.4205C29.8425 93.9761 28.7053 81.5601 27.9916 73.7047C27.9916 73.59 27.9729 73.4707 27.9612 73.3607C27.919 72.881 27.8769 72.4247 27.8371 71.9778C27.554 68.8468 27.3691 66.783 27.3691 66.783H39.0855C39.0866 66.7931 39.0866 66.8033 39.0855 66.8134C39.123 67.0825 39.3523 68.8656 39.6892 71.4934C40.6486 78.9393 42.4692 93.1431 43.2367 99.2926Z" fill="#37474F"/>
<path d="M32.9324 99.2945H32.7358C32.6937 98.9973 32.6492 98.7025 32.6001 98.4076C32.5229 97.9162 32.441 97.4248 32.3661 96.9334C32.1758 95.7728 31.994 94.6114 31.8209 93.4492C31.7085 92.7214 31.6032 91.9914 31.5003 91.2613C30.6111 84.8497 29.9629 78.41 29.3943 71.9609C29.393 71.9493 29.393 71.9375 29.3943 71.9259C29.3685 71.6661 29.3451 71.404 29.3241 71.1443C29.2422 70.2083 29.1626 69.2723 29.0901 68.3363C29.0901 68.3059 29.1322 68.3059 29.1369 68.3363C29.2211 69.167 29.3077 70 29.3896 70.8307C29.42 71.1349 29.4504 71.4391 29.4832 71.7433C29.4832 71.8089 29.4832 71.872 29.5019 71.9352C29.8131 75.0287 30.1244 78.1198 30.4613 81.2086C30.8755 84.9924 31.3341 88.7739 31.884 92.5413C31.884 92.5787 31.8958 92.6138 31.9004 92.6536C32.1344 94.3571 32.4433 96.0536 32.7054 97.7524C32.7849 98.2579 32.8622 98.7773 32.9324 99.2945Z" fill="#263238"/>
<path d="M37.3975 66.783L36.6581 71.6548L35.818 77.1749L35.7665 77.5306L35.6238 78.4666L35.6121 78.5344L35.5676 78.7872L32.6918 97.7412L32.5912 98.4081L32.4554 99.2949H30.2769C29.3619 94.1703 27.284 82.4469 25.8894 74.5728C25.8894 74.5003 25.866 74.4277 25.852 74.3575C25.7069 73.5409 25.5711 72.771 25.4448 72.055C24.8832 68.8819 24.5088 66.7853 24.5088 66.7853L37.3975 66.783Z" fill="#263238"/>
<path d="M39.0994 66.7721V66.8142C39.0526 67.1371 38.7414 69.1378 38.2079 71.5831C37.7399 73.7172 37.1057 76.1953 36.3242 78.1843L36.2844 78.2896C36.2844 78.2896 36.0504 78.3621 35.6198 78.5236C35.4537 78.5891 35.2548 78.6687 35.0302 78.7693L34.7962 78.8746C34.3539 79.0735 33.8227 79.3285 33.2213 79.6468L32.8376 79.855V79.9323C32.7814 80.6834 32.3134 86.7955 31.9016 92.5144C31.8805 92.821 31.8571 93.1299 31.8361 93.4341C31.6793 95.5892 31.5365 97.6461 31.4289 99.2841H19.4504C19.9442 93.0503 21.2803 79.6491 22.0408 72.1401C22.3661 68.9015 22.5884 66.7581 22.5884 66.7581L39.0994 66.7721Z" fill="#37474F"/>
<path d="M23.8952 68.583C23.8032 69.7577 23.7135 70.9332 23.6261 72.1094C23.3875 75.284 23.1433 78.4586 22.8937 81.6332C22.4164 87.516 21.8969 93.4128 21.2932 99.2932H21.106C21.3712 96.7473 21.6184 94.1998 21.8477 91.6508C22.4444 85.1432 22.985 78.6286 23.5115 72.1141C23.6051 70.9363 23.6995 69.7593 23.7946 68.583C23.8016 68.5198 23.8999 68.5198 23.8952 68.583Z" fill="#263238"/>
<path d="M36.8664 77.9857C35.4666 78.4952 34.1136 79.1255 32.8229 79.8694C32.8138 79.8755 32.8071 79.8847 32.8041 79.8953C32.801 79.9059 32.8018 79.9172 32.8063 79.9272C32.8108 79.9373 32.8186 79.9455 32.8285 79.9503C32.8384 79.9551 32.8497 79.9563 32.8604 79.9536C34.2222 79.3686 35.6122 78.8094 36.939 78.1495C36.9607 78.1399 36.9777 78.122 36.9863 78.0999C36.9948 78.0777 36.9942 78.0531 36.9846 78.0313C36.975 78.0096 36.9571 77.9926 36.935 77.984C36.9128 77.9755 36.8882 77.9761 36.8664 77.9857Z" fill="#263238"/>
<path d="M37.2995 68.6366C37.2995 68.5898 37.2129 68.5804 37.2129 68.6366C37.2111 70.1566 37.133 71.6757 36.9789 73.1879C36.9157 73.8899 36.3494 77.7673 35.1326 77.4841C34.9291 77.4373 34.8261 77.2361 34.7933 76.9296C34.7559 76.5598 34.894 76.1082 34.9548 75.7408C35.0905 74.9288 35.1888 74.1028 35.2684 73.2932C35.41 71.7668 35.3935 70.2298 35.2192 68.7068C35.2192 68.6962 35.215 68.6861 35.2076 68.6787C35.2001 68.6712 35.19 68.667 35.1794 68.667C35.1689 68.667 35.1588 68.6712 35.1513 68.6787C35.1438 68.6861 35.1397 68.6962 35.1397 68.7068C35.1757 70.8238 35.0521 72.9404 34.7699 75.0388C34.6178 76.0474 34.1101 77.566 35.1654 77.7228C36.2207 77.8796 36.9344 75.336 37.0655 74.641C37.403 72.6581 37.4816 70.6398 37.2995 68.6366Z" fill="#263238"/>
<path d="M35.1724 77.5851C35.0637 77.8464 34.9722 78.1145 34.8986 78.3878C34.8197 78.5994 34.7816 78.8241 34.7863 79.05C34.7863 79.0921 34.8471 79.0968 34.8705 79.0664C34.9951 78.8676 35.0898 78.6516 35.1513 78.4252C35.2449 78.1748 35.3432 77.9291 35.4274 77.6787C35.4398 77.6449 35.4383 77.6075 35.4232 77.5749C35.408 77.5422 35.3805 77.5168 35.3467 77.5044C35.3129 77.492 35.2755 77.4935 35.2428 77.5087C35.2101 77.5238 35.1848 77.5513 35.1724 77.5851Z" fill="#263238"/>
<path d="M29.6671 69.9089C29.6688 69.7398 29.6516 69.571 29.6156 69.4058C29.614 69.4005 29.6107 69.3959 29.6063 69.3927C29.6019 69.3894 29.5965 69.3877 29.591 69.3877C29.5855 69.3877 29.5802 69.3894 29.5758 69.3927C29.5714 69.3959 29.5681 69.4005 29.5665 69.4058C29.5312 69.5482 29.5124 69.6943 29.5103 69.841C29.4916 70.0071 29.4705 70.1733 29.4518 70.3418C29.417 70.6833 29.3576 71.022 29.274 71.355C29.1181 71.9853 28.7947 72.5618 28.338 73.0234C27.8876 73.4691 27.3531 73.8207 26.7655 74.0577C26.1126 74.3361 25.4247 74.4391 24.7507 74.638C24.7455 74.6396 24.7409 74.6429 24.7377 74.6473C24.7344 74.6517 24.7327 74.6571 24.7327 74.6626C24.7327 74.6681 24.7344 74.6734 24.7377 74.6778C24.7409 74.6822 24.7455 74.6855 24.7507 74.6871C25.4995 74.6863 26.241 74.5401 26.934 74.2566C27.5476 74.0273 28.1058 73.6709 28.572 73.2106C29.0409 72.7359 29.3711 72.1419 29.5267 71.493C29.6422 70.9734 29.684 70.4401 29.6507 69.9089H29.6671Z" fill="#263238"/>
<path d="M21.001 72.1658C21.0502 72.2173 41.1438 71.5832 41.3193 71.3702C41.5533 71.0707 37.2641 51.1152 33.85 46.8891C32.9959 45.8338 30.12 45.5483 28.9922 46.7207C25.7162 50.1183 25.1265 52.5473 24.3449 54.8077C23.7646 56.4831 23.1047 59.3216 22.5267 62.2302C21.572 67.0202 20.8255 71.9833 21.001 72.1658Z" fill="#C53F3F"/>
<path d="M32.8743 49.4188C32.0412 49.5826 30.0663 48.2768 29.1864 47.0577C29.1279 46.9735 29.1466 46.0117 29.1162 44.8417C29.0952 44.1397 29.053 43.3441 28.9641 42.6257L33.6043 43.1593C33.4597 44.088 33.4282 45.0309 33.5107 45.9673C33.5254 46.0657 33.5481 46.1627 33.5786 46.2574C33.5786 46.2714 33.5786 46.2855 33.5926 46.3042C33.7518 46.8588 34.1776 49.1637 32.8743 49.4188Z" fill="#AD6359"/>
<path d="M33.5782 46.262C33.5782 46.276 33.5782 46.2901 33.5923 46.3088C33.4389 46.3501 33.2824 46.3782 33.1243 46.393C30.5503 46.6504 29.5417 43.6084 29.2937 42.6631L33.5993 43.1592C33.4533 44.0878 33.4211 45.0307 33.5034 45.9672C33.52 46.0674 33.5451 46.166 33.5782 46.262Z" fill="#263238"/>
<path d="M28.1315 36.5482C27.6448 38.1581 28.5059 42.8054 29.6525 43.8397C31.3163 45.3373 34.033 45.4777 35.3036 43.477C36.5368 41.5394 35.3036 35.5046 34.026 34.5662C32.1399 33.1833 28.8499 34.1638 28.1315 36.5482Z" fill="#AD6359"/>
<path d="M32.4064 39.1297C32.4064 39.118 32.3853 39.1507 32.3877 39.1624C32.4579 39.4737 32.486 39.841 32.2239 39.9978C32.2239 39.9978 32.2239 40.0189 32.2239 40.0165C32.5655 39.8995 32.5257 39.4128 32.4064 39.1297Z" fill="#263238"/>
<path d="M32.0592 38.8591C31.549 38.9176 31.7035 39.9332 32.1762 39.8794C32.6488 39.8256 32.4921 38.81 32.0592 38.8591Z" fill="#263238"/>
<path d="M34.2598 38.782C34.2598 38.782 34.2856 38.7937 34.2879 38.8054C34.3254 39.1213 34.4237 39.477 34.7232 39.5378C34.7232 39.5378 34.7349 39.5565 34.7232 39.5565C34.3698 39.5612 34.2458 39.0792 34.2598 38.782Z" fill="#263238"/>
<path d="M34.4878 38.4095C34.9885 38.2948 35.1898 39.3033 34.7218 39.411C34.2538 39.5186 34.0689 38.5077 34.4878 38.4095Z" fill="#263238"/>
<path d="M31.6326 38.376C31.7636 38.3199 31.8666 38.245 32.0046 38.1771C32.1455 38.1257 32.265 38.0285 32.3439 37.901C32.3615 37.8568 32.3639 37.808 32.3507 37.7623C32.3376 37.7166 32.3097 37.6765 32.2714 37.6483C32.1866 37.6033 32.0912 37.582 31.9953 37.5865C31.8994 37.5911 31.8064 37.6213 31.7262 37.674C31.5472 37.7558 31.4046 37.9008 31.326 38.0812C31.3113 38.1235 31.309 38.1691 31.3194 38.2126C31.3298 38.2562 31.3525 38.2958 31.3848 38.3269C31.417 38.3579 31.4576 38.3791 31.5015 38.3878C31.5454 38.3965 31.5909 38.3924 31.6326 38.376Z" fill="#263238"/>
<path d="M34.9616 38.1431C34.8269 38.1835 34.6902 38.2171 34.5521 38.2437C34.4125 38.2984 34.2588 38.3058 34.1145 38.2647C34.0727 38.2433 34.039 38.209 34.0183 38.1668C33.9976 38.1246 33.9912 38.0769 33.9999 38.0307C34.0336 37.941 34.0906 37.8618 34.165 37.8014C34.2395 37.741 34.3286 37.7014 34.4234 37.6868C34.612 37.6281 34.8157 37.6423 34.9944 37.7265C35.0314 37.749 35.0614 37.7813 35.0812 37.8199C35.1009 37.8584 35.1095 37.9017 35.1062 37.9449C35.1028 37.9881 35.0874 38.0294 35.0619 38.0644C35.0364 38.0994 35.0017 38.1266 34.9616 38.1431Z" fill="#263238"/>
<path d="M32.5637 42.095C32.6503 42.1582 32.7392 42.2471 32.8562 42.2401C32.9726 42.2198 33.0835 42.1752 33.1814 42.109C33.1814 42.109 33.2025 42.109 33.1978 42.1231C33.1625 42.1919 33.1094 42.25 33.0439 42.2911C32.9784 42.3323 32.9031 42.3551 32.8258 42.3571C32.7596 42.3513 32.6967 42.3259 32.6451 42.2842C32.5934 42.2426 32.5553 42.1865 32.5356 42.1231C32.5262 42.0973 32.5496 42.0856 32.5637 42.095Z" fill="#263238"/>
<path d="M32.7602 41.1024C32.8593 41.2146 32.9804 41.3051 33.1161 41.3683C33.2518 41.4316 33.3991 41.4661 33.5487 41.4698C33.6777 41.4707 33.8061 41.4534 33.9302 41.4183L34.0027 41.3996L34.0706 41.3785C34.0869 41.3724 34.1009 41.3611 34.1102 41.3463C34.1195 41.3315 34.1236 41.314 34.122 41.2966C34.1231 41.2857 34.1231 41.2748 34.122 41.2639V41.2358C34.0916 41.0018 34.0121 40.6274 34.0121 40.6274C34.108 40.6578 34.59 40.7935 34.562 40.6672C34.328 39.6282 34.094 38.4746 33.6517 37.4894C33.6377 37.4567 33.5862 37.4707 33.5955 37.5058C33.7687 38.512 34.1197 39.4808 34.3116 40.4893C34.1397 40.4392 33.9617 40.4132 33.7827 40.4121C33.75 40.4285 33.9489 41.1141 33.9536 41.2241C33.955 41.2279 33.955 41.232 33.9536 41.2358C33.757 41.2879 33.5519 41.2994 33.3507 41.2696C33.1496 41.2398 32.9566 41.1694 32.7836 41.0626C32.7602 41.0556 32.7274 41.079 32.7602 41.1024Z" fill="#263238"/>
<path d="M33.763 41.3263C33.6556 41.518 33.5009 41.6791 33.3137 41.7943C33.2097 41.8545 33.0894 41.8807 32.9697 41.8691C32.7076 41.8411 32.6679 41.6117 32.6819 41.4011C32.6923 41.2921 32.7151 41.1845 32.7498 41.0806C33.0524 41.2691 33.4076 41.3552 33.763 41.3263Z" fill="#263238"/>
<path d="M33.3137 41.7993C33.2097 41.8596 33.0894 41.8858 32.9697 41.8742C32.7076 41.8461 32.6679 41.6168 32.6819 41.4062C32.8161 41.3909 32.9516 41.4214 33.0662 41.4928C33.1809 41.5641 33.2681 41.6722 33.3137 41.7993Z" fill="#FF9BBC"/>
<path opacity="0.2" d="M28.1778 39.8605C28.4866 39.6756 29.0061 38.5664 29.2401 38.1125C29.4741 37.6585 29.2776 35.5385 29.2027 34.9277C28.71 35.335 28.3445 35.875 28.1497 36.4838C27.9274 37.2069 27.9625 38.522 28.1778 39.8605Z" fill="#263238"/>
<path d="M33.4363 36.14C33.2849 36.3734 33.0766 36.5644 32.8309 36.695C32.5853 36.8256 32.3104 36.8915 32.0323 36.8865C31.7483 36.8826 31.4701 36.8059 31.2243 36.6637C30.9785 36.5216 30.7733 36.3187 30.6283 36.0745C30.6261 36.0723 30.6232 36.0708 30.6201 36.0704C30.6169 36.07 30.6138 36.0707 30.6111 36.0723C30.6084 36.0739 30.6063 36.0764 30.6052 36.0794C30.604 36.0823 30.6039 36.0855 30.6049 36.0885C30.7331 36.3593 30.933 36.5897 31.1831 36.7548C31.4331 36.9198 31.7236 37.0131 32.0229 37.0245C32.3173 37.0212 32.6056 36.9403 32.8587 36.7899C33.1118 36.6395 33.3207 36.425 33.4644 36.1681C33.4831 36.14 33.462 36.119 33.4363 36.14Z" fill="#263238"/>
<path d="M31.2249 32.3773C30.2889 32.5247 29.5027 33.1588 29.2453 33.8421C29.1044 34.2305 29.0987 34.6551 29.2289 35.0472C29.2289 35.0636 29.2663 35.0472 29.264 35.0472C29.1967 34.6927 29.2264 34.3267 29.35 33.9877C29.4735 33.6487 29.6864 33.3494 29.966 33.1214C30.2683 32.8593 30.6271 32.6708 31.0144 32.5705C31.4016 32.4703 31.8069 32.461 32.1983 32.5434C32.5785 32.6175 32.9201 32.824 33.1624 33.1261C33.1858 33.1565 33.2537 33.1261 33.2326 33.0933C32.8933 32.527 32.0696 32.2462 31.2249 32.3773Z" fill="#263238"/>
<path d="M36.9373 33.6731C36.7213 33.2317 36.3568 32.8804 35.9077 32.6809C35.2853 32.4048 34.6418 32.5429 34.0076 32.6973C33.9889 32.6973 33.9959 32.7277 34.0076 32.723C34.5505 32.5943 35.1074 32.489 35.6456 32.6879C36.092 32.8418 36.4709 33.1463 36.7174 33.5491C36.9608 33.9645 37.0456 34.4541 36.9561 34.9272C36.8666 35.4004 36.6089 35.8251 36.2306 36.1231C36.0093 36.2886 35.7565 36.4073 35.4877 36.4717C35.219 36.536 34.9398 36.5448 34.6675 36.4975C34.6465 36.4975 34.6348 36.5255 34.6675 36.5302C35.038 36.6097 35.4232 36.5844 35.7801 36.4571C36.1369 36.3298 36.4513 36.1056 36.6877 35.8096C36.9242 35.5136 37.0735 35.1575 37.1188 34.7813C37.1641 34.4052 37.1037 34.0238 36.9443 33.6801L36.9373 33.6731Z" fill="#263238"/>
<path d="M27.995 37.4649C27.995 37.4649 26.8858 35.9065 27.5036 34.8371C27.8546 34.2334 29.2609 34.1351 29.2609 34.1351C29.4097 33.8359 29.6162 33.569 29.8683 33.3498C30.1205 33.1305 30.4135 32.9632 30.7305 32.8575C31.8677 32.4363 33.3466 32.9394 33.3466 32.9394C33.3466 32.9394 34.3762 32.1578 35.4947 32.6164C37.0531 33.2576 37.1608 35.4923 35.7919 36.3932C34.8301 37.025 33.3185 36.2996 33.3185 36.2996C33.1875 36.3347 31.9145 37.3409 30.7281 36.2505C30.7281 36.2505 29.9817 37.1116 29.1556 36.6834C29.0644 36.9161 28.9045 37.1155 28.6972 37.2551C28.4898 37.3947 28.2449 37.4679 27.995 37.4649Z" fill="#263238"/>
<path d="M29.1299 40.3348C29.1299 40.3348 28.0465 38.8559 27.3726 39.2467C26.6986 39.6374 27.5387 41.7973 28.346 42.0757C28.4474 42.1186 28.5565 42.1405 28.6666 42.14C28.7767 42.1395 28.8856 42.1167 28.9867 42.073C29.0877 42.0292 29.1789 41.9655 29.2546 41.8855C29.3303 41.8055 29.389 41.711 29.4271 41.6077L29.1299 40.3348Z" fill="#AD6359"/>
<path d="M27.6273 39.8594C27.6273 39.8594 27.6133 39.8758 27.6273 39.8804C28.1936 40.0957 28.5002 40.6082 28.7201 41.144C28.6863 41.0884 28.6407 41.0408 28.5866 41.0045C28.5325 40.9682 28.4712 40.944 28.4069 40.9338C28.3425 40.9236 28.2768 40.9274 28.2141 40.9452C28.1514 40.9629 28.0933 40.994 28.0439 41.0364C28.0298 41.0364 28.0439 41.0692 28.0602 41.0668C28.158 41.0328 28.2639 41.0301 28.3633 41.059C28.4627 41.088 28.5506 41.1471 28.6148 41.2283C28.7223 41.3642 28.8142 41.5117 28.8886 41.6682C28.9167 41.7173 29.0079 41.6893 28.9869 41.6308C28.9775 40.903 28.3995 39.9132 27.6273 39.8594Z" fill="#263238"/>
<path d="M33.5834 46.1096L32.8814 48.9339L29.0859 46.0183L28.2974 47.2351C28.2974 47.2351 32.2988 52.1491 32.2754 51.9151L33.0546 49.4558L34.8681 50.8364L34.1661 46.8303L33.5834 46.1096Z" fill="#EBEBEB"/>
<path d="M34.6536 48.8295C34.5156 48.172 34.3962 47.5051 34.2301 46.8545C34.2301 46.8311 34.1856 46.8265 34.1833 46.8545C34.1412 47.5144 34.677 50.0253 34.7589 50.6337C34.6817 50.5728 33.0858 49.4286 33.0765 49.452C32.8893 49.8521 32.316 51.6422 32.2809 51.8037C31.6491 51.0221 29.2389 48.1954 28.5228 47.4747C28.5191 47.4697 28.5136 47.4664 28.5074 47.4655C28.5013 47.4646 28.495 47.4662 28.4901 47.47C28.4851 47.4737 28.4818 47.4792 28.4809 47.4854C28.4801 47.4915 28.4817 47.4978 28.4854 47.5027C29.0657 48.3405 32.2575 52.1523 32.2973 52.1359C32.6117 51.2847 32.8819 50.4177 33.1069 49.5385C33.3854 49.7959 35.0187 51.111 35.0093 51.0104C34.9284 50.2778 34.8097 49.5499 34.6536 48.8295Z" fill="#263238"/>
<path d="M56.4237 41.6946C54.5844 49.2738 54.0252 51.5717 56.0633 52.0678C58.1014 52.5639 58.6537 50.2613 60.4953 42.6821L56.4237 41.6946Z" fill="#EBEBEB"/>
<path d="M56.4237 41.6946C56.0048 43.5081 55.5696 45.3192 55.1952 47.1398C54.9946 48.0469 54.8678 48.9687 54.8161 49.8963C54.7837 50.3549 54.8557 50.815 55.0267 51.2418C55.121 51.4465 55.2679 51.6226 55.4526 51.7519C55.6413 51.8773 55.8515 51.9669 56.0727 52.0163C56.2926 52.0727 56.521 52.0885 56.7466 52.0631C56.9692 52.0318 57.1793 51.9412 57.355 51.801C57.6979 51.4984 57.9696 51.1236 58.1506 50.7036C58.5323 49.8565 58.8454 48.9801 59.0866 48.0828C59.5944 46.2927 60.0226 44.4815 60.4742 42.675L60.4953 42.7148L56.4237 41.6946ZM56.4237 41.6946L60.5023 42.6516H60.5327V42.6844C60.0951 44.4932 59.6739 46.3067 59.1755 48.1015C58.942 49.006 58.636 49.8903 58.2606 50.7457C58.0743 51.184 57.7901 51.5738 57.4299 51.8853C57.237 52.034 57.0088 52.1299 56.7676 52.1637C56.5323 52.1883 56.2945 52.1701 56.0656 52.1099C55.8321 52.0553 55.6102 51.9594 55.4104 51.8268C55.213 51.6861 55.0563 51.4955 54.9565 51.2745C54.7816 50.834 54.7088 50.3596 54.7435 49.8869C54.8019 48.955 54.9349 48.0293 55.1413 47.1187C55.5017 45.3005 55.972 43.4987 56.4237 41.6946Z" fill="#263238"/>
<path d="M53.8667 59.8428L54.4397 59.9819L56.7049 50.6544L56.1319 50.5152L53.8667 59.8428Z" fill="#EBEBEB"/>
<path d="M50.7866 59.8972L57.1514 61.4439L54.2007 59.7217L50.7866 59.8972Z" fill="#EBEBEB"/>
<path d="M56.215 51.4413C55.4287 51.2494 54.9467 50.5591 55.8195 46.2091C55.9705 46.5061 56.1974 46.758 56.4771 46.9392C56.931 47.1544 58.1338 45.816 59.1493 46.064C59.1493 46.064 58.0472 51.8859 56.215 51.4413Z" fill="#C53F3F"/>
<path d="M27.429 53.0777C30.237 58.9675 34.6105 64.7941 36.3491 65.0983C38.2609 65.4329 45.7442 64.4923 49.3571 62.8121C50.3095 62.3699 46.6334 54.7391 45.5944 55.1697C43.5961 56.0004 37.828 58.0549 36.7656 57.8162C35.7828 57.5963 33.74 54.8632 30.23 51.9382C27.5437 49.6964 26.0016 50.0755 27.429 53.0777Z" fill="#AD6359"/>
<path d="M44.2031 55.8631C44.2031 55.8631 46.9713 53.8858 48.8433 52.6784C49.887 52.0045 51.78 51.0076 52.7745 50.8625C54.2604 50.6473 60.6112 50.6917 60.6346 52.2338C60.6557 53.6378 55.2011 52.896 55.2011 52.896C55.2011 52.896 60.7703 53.1487 60.4848 54.8312C60.1994 56.5136 54.1481 54.8686 54.1481 54.8686C54.1481 54.8686 59.8647 55.2571 59.2961 56.9465C58.8656 58.2218 53.301 57.0401 53.301 57.0401C53.301 57.0401 58.215 57.4075 57.8266 58.739C57.4007 60.2108 52.1966 59.441 52.1966 59.441C50.6475 62.6632 49.426 63.0961 47.788 63.419C47.4066 63.5009 44.2031 55.8631 44.2031 55.8631Z" fill="#AD6359"/>
<path d="M53.547 52.7029C57.663 52.5766 59.7199 53.7747 59.659 53.7536C58.2153 53.2645 55.8823 52.9978 55.2318 52.9346C54.5812 52.8714 54.1951 52.7919 53.5446 52.7287C53.5282 52.7263 53.5306 52.7053 53.547 52.7029Z" fill="#263238"/>
<path d="M53.0092 55.0342C54.672 54.9088 56.3438 55.08 57.9466 55.5397C58.0075 55.5607 57.9841 55.5818 57.9186 55.5724C57.0925 55.4671 53.8353 55.1185 53.0046 55.0553C52.9952 55.053 52.9975 55.0366 53.0092 55.0342Z" fill="#263238"/>
<path d="M52.4149 57.0113C53.705 56.9402 54.997 57.1108 56.2244 57.5144C56.2852 57.5308 56.2478 57.5636 56.1823 57.5519C54.9187 57.3623 53.9288 57.2032 52.4125 57.0558C52.3844 57.0535 52.3821 57.0113 52.4149 57.0113Z" fill="#263238"/>
<path d="M44.8795 55.2546L47.9028 64.2239C47.9028 64.2239 37.9602 66.9429 35.4213 65.2815C32.8824 63.6201 29.122 57.4987 27.2313 53.5277C25.3406 49.5567 27.1868 49.29 29.8731 51.2181C32.5595 53.1463 36.0367 57.0681 36.5866 57.5034C37.1365 57.9386 44.8795 55.2546 44.8795 55.2546Z" fill="#C53F3F"/>
<path d="M44.3171 60.3229C44.5511 61.0062 45.4473 63.7346 45.7211 64.3921C45.7211 64.4038 45.7421 64.3921 45.7398 64.3921C45.5924 63.7065 44.7687 60.9828 44.5464 60.2971C44.1376 58.9205 43.6573 57.5661 43.1073 56.2396C43.1044 56.2357 43.1003 56.2328 43.0956 56.2313C43.0909 56.2298 43.0858 56.2299 43.0812 56.2314C43.0765 56.233 43.0725 56.236 43.0696 56.2399C43.0667 56.2439 43.0652 56.2487 43.0652 56.2536C43.3975 57.6366 43.8772 58.968 44.3171 60.3229Z" fill="#263238"/>
<path d="M40.2233 65.7047C39.4694 65.8139 38.7082 65.8647 37.9465 65.8568C37.1777 65.8733 36.4125 65.7455 35.6907 65.4801C35.3374 65.3195 35.0162 65.0959 34.743 64.8202C34.4652 64.5572 34.2012 64.2799 33.9521 63.9895C33.449 63.4162 32.974 62.8195 32.5154 62.2111C31.5981 60.9943 30.7487 59.726 29.9414 58.4413C29.5389 57.7924 29.1489 57.1387 28.7714 56.4804C28.3938 55.8221 28.0343 55.1513 27.6926 54.468C28.0647 55.1326 28.4531 55.7854 28.8486 56.4336C29.244 57.0818 29.6465 57.7276 30.063 58.3641C30.8867 59.6394 31.7502 60.8913 32.6581 62.1081C33.1121 62.7165 33.5777 63.3156 34.0738 63.8889C34.3218 64.1743 34.5769 64.4575 34.8437 64.7219C35.1002 64.9939 35.4048 65.216 35.7422 65.3771C36.4497 65.6453 37.1993 65.7855 37.9559 65.7913C38.7128 65.8206 39.4708 65.7916 40.2233 65.7047Z" fill="#263238"/>
<path d="M27.6848 55.407C27.9124 55.5804 28.1281 55.7688 28.3307 55.9709C28.5342 56.1698 28.7285 56.3734 28.918 56.591C28.7939 56.518 28.6764 56.4342 28.567 56.3406C28.457 56.2494 28.3517 56.1534 28.2488 56.0528C28.0431 55.8536 27.8545 55.6376 27.6848 55.407Z" fill="#263238"/>
<path d="M43.2693 55.7971C42.118 56.1902 40.9582 56.5568 39.7897 56.8969C39.2079 57.0701 38.6205 57.2261 38.0277 57.3649C37.7305 57.4375 37.4334 57.5053 37.1292 57.5545C37.0519 57.5662 36.9747 57.5755 36.8952 57.5802C36.8524 57.5848 36.8092 57.5848 36.7665 57.5802C36.7181 57.5729 36.6718 57.5553 36.6307 57.5287C36.4987 57.4433 36.3728 57.3486 36.254 57.2456C35.786 56.8478 35.3578 56.4172 34.9225 55.9913C34.4873 55.5655 34.0614 55.1326 33.6402 54.6926C32.7978 53.8151 31.9671 52.9306 31.1575 52.0227L33.7315 54.5967C34.5973 55.4485 35.449 56.3213 36.3593 57.1145C36.4696 57.2119 36.587 57.3011 36.7103 57.3813C36.7899 57.4468 36.9583 57.4094 37.0987 57.3953C37.3959 57.3509 37.6908 57.2854 37.9856 57.2175C38.5753 57.0771 39.1556 56.9203 39.75 56.7659C40.927 56.4547 42.097 56.1224 43.2693 55.7971Z" fill="#263238"/>
<path d="M31.8462 52.3228C31.9883 52.468 32.1103 52.6317 32.2089 52.8095C32.3127 52.9857 32.3915 53.1755 32.4429 53.3734C32.3794 53.2943 32.3208 53.2115 32.2674 53.1254C32.2112 53.0411 32.1621 52.9546 32.1106 52.868C32.0094 52.6929 31.921 52.5106 31.8462 52.3228Z" fill="#263238"/>
<path d="M59.8297 21.8273C60.1012 23.3483 61.4396 24.5955 61.4396 24.5955C61.4396 24.5955 63.2368 24.2656 64.2827 23.1283C65.1556 22.1923 65.1579 20.8796 64.3693 20.3648C63.2368 19.6277 62.2867 21.6963 62.2867 21.6963C62.2867 21.6963 62.5979 19.4405 61.2454 19.4522C60.3024 19.4616 59.6051 20.559 59.8297 21.8273Z" fill="#C53F3F"/>
<path d="M54.0153 26.5657C54.9513 27.2045 56.2991 27.1413 56.2991 27.1413C56.2991 27.1413 57.0503 26.0251 56.9894 24.8902C56.938 23.9425 56.2547 23.2733 55.5854 23.4254C54.6143 23.6407 55.2181 25.2061 55.2181 25.2061C55.2181 25.2061 54.1908 23.8817 53.5005 24.6001C53.0114 25.1008 53.2314 26.0321 54.0153 26.5657Z" fill="#C53F3F"/>
<path d="M59.6001 15.7034C59.8991 16.1409 60.315 16.4855 60.8005 16.6979C61.2517 16.4205 61.6164 16.0226 61.8535 15.549C62.0875 14.9687 61.8746 14.379 61.4276 14.2713C60.7841 14.1239 60.6999 15.2307 60.6999 15.2307C60.6999 15.2307 60.4659 14.1473 59.8458 14.3813C59.4175 14.5428 59.2818 15.1605 59.6001 15.7034Z" fill="#C53F3F"/>
</svg>
