<svg width="339" height="339" viewBox="0 0 339 339" fill="none" xmlns="http://www.w3.org/2000/svg">
<path d="M309.541 130.027H236.541C236.541 130.027 243.782 110.256 254.921 110.256C266.061 110.256 269.546 123.905 269.546 123.905C269.546 123.905 277.065 116.487 283.234 116.487C289.404 116.487 294.76 126.291 294.76 126.291C294.76 126.291 303.5 121.016 309.541 130.027Z" fill="#EBEBEB"/>
<path opacity="0.3" d="M164.754 265.654H82.038C82.038 265.654 90.2418 243.239 102.866 243.239C115.49 243.239 119.45 258.711 119.45 258.711C119.45 258.711 127.966 250.304 134.969 250.304C141.973 250.304 148.048 261.41 148.048 261.41C148.048 261.41 157.879 255.436 164.754 265.654Z" fill="#EBEBEB"/>
<path opacity="0.3" d="M260.711 76.0241H226.601C226.601 76.0241 234.222 64.9795 240.229 64.9795C246.236 64.9795 248.006 72.3426 248.006 72.3426C248.006 72.3426 252.25 68.9051 256.142 69.5221C260.033 70.1391 260.711 76.0241 260.711 76.0241Z" fill="#EBEBEB"/>
<path d="M104.778 159.947H29.4591C29.4591 159.947 39.7715 136.895 50.8093 135.478C61.8472 134.061 67.122 152.591 67.122 152.591C67.122 152.591 74.2342 146.034 79.8345 146.034C85.4348 146.034 89.7469 154.665 89.7469 154.665C89.7469 154.665 100.941 148.753 104.778 159.947Z" fill="#EBEBEB"/>
<path opacity="0.3" d="M116.982 54.1655H72.0917C72.0917 54.1655 79.8005 39.4461 88.167 39.2495C96.5336 39.0529 100.934 50.3755 100.934 50.3755C100.934 50.3755 113.945 39.9275 116.982 54.1655Z" fill="#EBEBEB"/>
<path d="M186.314 299.771H141.424C141.424 299.771 149.14 285.052 157.499 284.855C165.859 284.658 170.266 295.994 170.266 295.994C170.266 295.994 183.277 285.533 186.314 299.771Z" fill="#EBEBEB"/>
<path d="M243.653 214.248H198.769C198.769 214.248 206.478 199.529 214.845 199.332C223.211 199.135 227.604 210.472 227.604 210.472C227.604 210.472 240.615 200.01 243.653 214.248Z" fill="#EBEBEB"/>
<path d="M174.653 106.371H144.36C144.36 106.371 149.56 96.4319 155.208 96.2896C160.855 96.1472 163.825 103.809 163.825 103.809C163.825 103.809 172.605 96.7642 174.653 106.371Z" fill="#EBEBEB"/>
<path opacity="0.3" d="M285.289 271.62H254.989C254.989 271.62 260.196 261.681 265.837 261.538C271.478 261.396 274.448 269.057 274.448 269.057C274.448 269.057 283.234 262.006 285.289 271.62Z" fill="#EBEBEB"/>
<path d="M229.73 243.667L219.28 287.805L288.878 304.283L299.329 260.145L229.73 243.667Z" fill="#DBDBDB"/>
<path d="M299.317 260.128C295.866 262.162 292.394 264.047 288.936 266.027C285.479 268.007 281.994 269.851 278.516 271.729C274.9 273.695 271.266 275.634 267.613 277.546L267.281 277.736C264.067 279.427 260.845 281.112 257.613 282.794L257.138 283.024L256.833 282.611C254.704 279.655 252.584 276.699 250.474 273.743C250.399 273.648 250.324 273.539 250.25 273.437C247.85 270.088 245.47 266.732 243.104 263.329C240.846 260.108 238.595 256.84 236.324 253.579C234.052 250.318 231.862 247.009 229.686 243.653C232.134 246.663 234.5 249.755 236.893 252.84C239.287 255.925 241.639 259.044 243.999 262.183C246.625 265.659 249.235 269.171 251.83 272.719C253.778 275.358 255.724 278.007 257.667 280.665C260.583 279.16 263.511 277.648 266.434 276.17C270.339 274.183 274.237 272.204 278.149 270.264C281.652 268.52 285.162 266.8 288.679 265.105C292.272 263.451 295.784 261.708 299.317 260.128Z" fill="white"/>
<path d="M251.721 273.749L251.619 273.803L250.304 274.481C248.207 275.539 246.087 276.534 243.944 277.465C241.327 278.638 238.676 279.716 236.018 280.787C233.361 281.858 230.683 282.821 227.977 283.797C225.272 284.774 222.553 285.655 219.767 286.421C222.316 285.065 224.92 283.872 227.537 282.712C230.154 281.553 232.818 280.461 235.463 279.39C238.107 278.319 240.812 277.322 243.517 276.373C245.673 275.614 247.856 274.882 250.06 274.237C250.575 274.081 251.084 273.932 251.599 273.79L251.721 273.749Z" fill="white"/>
<path d="M289.038 302.815C286.896 300.883 284.862 298.842 282.882 296.788C280.902 294.733 278.956 292.611 277.031 290.489C275.105 288.367 273.248 286.184 271.43 283.967C269.946 282.17 268.495 280.346 267.105 278.461L266.223 277.261C266.202 277.229 266.18 277.197 266.156 277.166C266.182 277.195 266.211 277.22 266.244 277.241C266.644 277.614 267.037 277.966 267.423 278.339C269.105 279.906 270.719 281.533 272.312 283.18C274.312 285.214 276.238 287.357 278.149 289.486C280.061 291.615 281.933 293.791 283.75 296.008C285.567 298.225 287.363 300.462 289.038 302.815Z" fill="white"/>
<path d="M263.627 282.007C261.227 285.153 256.718 286.414 256.718 286.414C256.718 286.414 253.016 283.553 251.972 279.736C251.097 276.549 252.65 273.593 255.023 273.349C258.467 272.997 258.196 278.827 258.196 278.827C258.196 278.827 260.135 273.322 263.199 274.943C265.335 276.068 265.634 279.383 263.627 282.007Z" fill="#A6A6A6"/>
<path d="M260.112 34.727L256.976 60.6L297.771 65.5439L300.907 39.6709L260.112 34.727Z" fill="#EBEBEB"/>
<path d="M300.924 39.6765C299.086 41.0325 297.222 42.3885 295.371 43.7106C293.52 45.0327 291.655 46.3345 289.791 47.6362C287.926 48.938 285.885 50.3482 283.94 51.65L283.757 51.7856L278.563 55.2908L278.312 55.4536L278.109 55.2366C276.705 53.684 275.309 52.1381 273.912 50.5787C273.857 50.5294 273.807 50.4749 273.763 50.416C272.176 48.66 270.603 46.8972 269.017 45.1073C267.43 43.3174 266.02 41.7173 264.535 39.9748C263.05 38.2324 261.566 36.5102 260.108 34.7339C261.694 36.2933 263.247 37.9205 264.813 39.5138C266.379 41.1071 267.925 42.7546 269.471 44.3954C271.184 46.2034 272.897 48.0408 274.61 49.9075C275.892 51.2635 277.166 52.6805 278.448 54.0704C280.021 53.0263 281.594 51.9754 283.194 50.9449C285.296 49.5617 287.4 48.1877 289.506 46.8226C291.4 45.6022 293.294 44.3954 295.188 43.2021C297.113 42.0359 298.998 40.8155 300.924 39.6765Z" fill="white"/>
<path d="M274.624 50.5042L274.57 50.5381L273.858 51.0059C272.732 51.7449 271.58 52.45 270.42 53.1212C268.996 53.9552 267.552 54.7417 266.108 55.5281C264.664 56.3146 263.193 57.0469 261.708 57.7588C260.223 58.4707 258.725 59.169 257.193 59.7928C258.549 58.8571 259.972 58.0028 261.389 57.1757C262.806 56.3485 264.257 55.5485 265.701 54.7688C267.146 53.9891 268.624 53.2433 270.108 52.5314C271.288 51.9619 272.488 51.3991 273.702 50.8906L274.556 50.5381L274.624 50.5042Z" fill="white"/>
<path d="M297.791 64.7084C296.435 63.7456 295.154 62.6743 293.886 61.6641C292.618 60.6539 291.377 59.5284 290.143 58.4436C288.909 57.3588 287.709 56.2266 286.53 55.0536C285.567 54.1248 284.618 53.1756 283.709 52.1857L283.126 51.5552C283.126 51.5552 283.126 51.5552 283.078 51.5077C283.097 51.5236 283.118 51.5372 283.14 51.5484L283.879 52.0975C284.943 52.884 285.967 53.7112 286.984 54.5519C288.252 55.596 289.492 56.6808 290.72 57.7724C291.947 58.864 293.154 59.9895 294.333 61.1624C295.513 62.3353 296.679 63.4744 297.791 64.7084Z" fill="white"/>
<path d="M282.204 54.4977C280.848 56.5317 278.095 57.5283 278.095 57.5283C278.095 57.5283 275.675 55.9147 274.861 53.562C274.183 51.6229 275.004 49.7178 276.482 49.4601C278.604 49.094 278.692 52.7281 278.692 52.7281C278.692 52.7281 279.655 49.2296 281.628 50.0974C283.004 50.7348 283.329 52.7823 282.204 54.4977Z" fill="#DBDBDB"/>
<path d="M172.321 138.603C148.245 117.152 142.19 97.0489 136.868 89.5434C129.783 79.5429 105.409 77.9564 88.0519 70.8306C75.5902 65.7185 60.7827 52.5789 58.6267 56.0095C57.4741 57.8469 64.7287 66.0643 64.7287 66.0643C64.7287 66.0643 62.0709 71.6239 73.0071 77.9971C73.0071 77.9971 73.0071 87.306 85.6179 91.6452C85.6179 91.6452 83.1025 98.8862 92.4521 103.646C92.4521 103.646 90.4181 111.022 102.812 113.538C102.812 113.538 101.829 122.562 112.114 124.894C112.114 124.894 112.426 128.508 116.901 131.674C124.942 137.39 145.058 139.729 160.361 149.763C171.405 156.998 172.036 166.218 173.88 166.32C175.023 166.458 176.174 166.14 177.083 165.434C177.992 164.728 178.585 163.692 178.734 162.55C178.734 162.55 175.372 141.322 172.321 138.603Z" fill="#EBEBEB"/>
<path d="M171.534 145.302C171.223 144.03 170.768 142.797 170.178 141.627C169.577 140.623 168.795 139.738 167.873 139.017C165.941 137.437 163.771 136.156 161.771 134.63C153.814 128.455 147.175 120.748 142.244 111.965C139.756 107.51 137.96 102.683 135.275 98.3371C132.773 94.264 129.251 90.9149 125.057 88.6214C120.989 86.3433 116.453 84.8856 111.951 83.6245C107.097 82.2685 102.209 81.0684 97.449 79.4073C87.2723 75.7678 77.6658 70.6974 68.9188 64.349C67.8272 63.5693 66.756 62.7896 65.7051 61.9556C65.583 61.8607 65.4542 62.0573 65.5695 62.159C69.6632 65.5978 74.0203 68.7103 78.6006 71.468C83.1986 74.1896 87.9942 76.5625 92.9471 78.5666C97.7183 80.4387 102.597 82.0236 107.558 83.3126C112.175 84.5669 116.833 85.7805 121.24 87.6722C125.647 89.5638 129.593 92.1198 132.563 95.8082C135.776 99.8287 137.648 104.697 139.939 109.26C144.377 118.087 150.483 125.97 157.92 132.474C159.784 134.108 161.737 135.641 163.751 137.085C165.764 138.529 168.137 139.797 169.392 141.98C170.014 143.233 170.507 144.546 170.863 145.899C171.317 147.336 171.771 148.767 172.219 150.204C173.121 153.018 173.982 155.852 174.931 158.638C175.419 160.055 175.9 161.472 176.416 162.876C176.416 162.951 176.551 162.876 176.538 162.835C175.06 156.957 173.249 151.133 171.534 145.302Z" fill="#C7C7C7"/>
<path d="M122.454 91.3333C115.83 90.2078 109.226 89.0823 102.67 87.5975C96.2074 86.225 89.8465 84.4128 83.6314 82.1735C80.082 80.8896 76.6308 79.3487 73.3054 77.5631C73.2444 77.5631 73.1834 77.6173 73.2444 77.6512C76.0969 79.2875 79.0396 80.7611 82.0584 82.065C85.1617 83.3583 88.3299 84.4898 91.5504 85.455C98.0061 87.2921 104.574 88.7098 111.212 89.6993C114.948 90.3163 118.67 90.879 122.44 91.4146C122.494 91.4146 122.501 91.3401 122.454 91.3333Z" fill="#C7C7C7"/>
<path d="M131.627 100.459C126.083 98.3557 120.34 96.8179 114.487 95.8693C108.609 94.832 102.67 94.1947 96.7845 93.1573C93.4284 92.581 90.052 91.9776 86.7569 91.0826C86.7465 91.0865 86.7376 91.0934 86.7313 91.1025C86.725 91.1116 86.7216 91.1224 86.7216 91.1335C86.7216 91.1446 86.725 91.1554 86.7313 91.1645C86.7376 91.1736 86.7465 91.1805 86.7569 91.1843C89.5842 92.0251 92.4318 92.7776 95.3336 93.3539C98.2355 93.9302 101.239 94.4048 104.202 94.8523C110.121 95.7473 116.074 96.5338 121.938 97.7609C125.229 98.4491 128.465 99.3782 131.62 100.541C131.631 100.53 131.638 100.516 131.639 100.501C131.64 100.486 131.636 100.471 131.627 100.459Z" fill="#C7C7C7"/>
<path d="M134.129 102.182C134.115 102.182 134.101 102.187 134.09 102.197C134.08 102.208 134.074 102.222 134.074 102.236C134.074 102.251 134.08 102.264 134.09 102.275C134.101 102.285 134.115 102.291 134.129 102.291C134.19 102.297 134.197 102.188 134.129 102.182Z" fill="#C7C7C7"/>
<path d="M139.254 112.473C134.057 109.721 128.486 107.739 122.718 106.588C116.683 105.426 110.557 104.793 104.412 104.697C100.839 104.595 97.2659 104.629 93.6928 104.697C93.625 104.697 93.6182 104.805 93.6928 104.805C99.9169 105.043 106.168 105.198 112.372 105.782C118.33 106.295 124.23 107.343 130 108.914C133.182 109.83 136.271 111.042 139.227 112.534C139.227 112.534 139.275 112.48 139.254 112.473Z" fill="#C7C7C7"/>
<path d="M144.021 118.569C141.546 117.497 139.065 116.453 136.563 115.491C134.084 114.479 131.529 113.668 128.922 113.063C126.34 112.521 123.708 112.257 121.071 112.277C118.277 112.277 115.491 112.507 112.704 112.677C109.551 112.86 106.399 113.09 103.253 113.294C103.178 113.294 103.171 113.402 103.253 113.402C106.053 113.321 108.846 113.28 111.64 113.192C114.433 113.104 117.064 112.982 119.823 112.948C122.502 112.884 125.18 113.073 127.823 113.511C130.484 113.999 133.113 114.649 135.695 115.457C138.536 116.324 141.282 117.491 144.034 118.603C144.028 118.609 144.041 118.575 144.021 118.569Z" fill="#C7C7C7"/>
<path d="M156.726 133.505C153.899 132.42 151.092 131.295 148.333 130.054C145.573 128.813 142.909 127.41 140.095 126.339C134.568 124.34 128.714 123.401 122.84 123.572C119.541 123.641 116.251 123.945 112.995 124.481C112.928 124.481 112.948 124.589 112.995 124.589C118.799 124.101 124.704 123.911 130.495 124.589C133.399 124.942 136.263 125.578 139.044 126.488C141.871 127.423 144.549 128.725 147.268 129.912C150.35 131.288 153.5 132.508 156.706 133.566C156.74 133.566 156.753 133.519 156.726 133.505Z" fill="#C7C7C7"/>
<path d="M154.211 130.657C150.458 128.325 146.505 126.328 142.4 124.691C138.283 123.03 133.984 121.858 129.593 121.199C127.125 120.833 124.637 120.637 122.135 120.521C122.067 120.521 122.06 120.63 122.135 120.63C126.539 121.001 130.901 121.77 135.166 122.928C139.397 123.982 143.532 125.39 147.526 127.139C149.819 128.186 152.047 129.37 154.198 130.684C154.198 130.684 154.231 130.664 154.211 130.657Z" fill="#C7C7C7"/>
<path d="M116.447 98.7304C109.477 96.2557 101.931 96.9066 94.6691 96.7778C92.57 96.7487 90.4741 96.6038 88.3909 96.3439C88.3298 96.3439 88.3027 96.4388 88.3909 96.4523C95.6251 97.9372 103.022 96.7032 110.311 97.4897C112.399 97.7055 114.459 98.1349 116.46 98.7711C116.46 98.7711 116.474 98.744 116.447 98.7304Z" fill="#C7C7C7"/>
<path d="M125.735 91.7131C117.223 88.5269 108.435 86.1324 99.4831 84.5602C96.9677 84.1398 94.4455 83.794 91.9166 83.4618C91.8488 83.4618 91.842 83.5635 91.9166 83.5771C96.4524 84.1873 100.961 85.089 105.429 86.0653C109.897 87.0416 114.155 88.0993 118.454 89.3875C120.894 90.1198 123.319 90.9085 125.728 91.7537C125.728 91.7537 125.762 91.7266 125.735 91.7131Z" fill="#C7C7C7"/>
<path d="M141.939 116.209C139.12 114.615 136.135 113.335 133.037 112.392C129.929 111.476 126.734 110.881 123.504 110.616C123.49 110.616 123.476 110.621 123.466 110.632C123.456 110.642 123.45 110.656 123.45 110.67C123.45 110.684 123.456 110.698 123.466 110.708C123.476 110.718 123.49 110.724 123.504 110.724C129.939 111.368 136.191 113.242 141.919 116.243C141.919 116.243 141.96 116.223 141.939 116.209Z" fill="#C7C7C7"/>
<path d="M169.5 149.655C166.183 146.171 162.282 143.293 157.974 141.153C153.519 139.035 148.866 137.364 144.082 136.163C141.37 135.444 138.617 134.807 135.871 134.23C135.803 134.23 135.769 134.319 135.871 134.332C140.648 135.419 145.358 136.777 149.98 138.4C154.558 139.981 158.948 142.059 163.073 144.597C165.396 146.065 167.549 147.787 169.493 149.73C169.5 149.777 169.554 149.709 169.5 149.655Z" fill="#C7C7C7"/>
<path d="M176.721 153.052C176.721 153.052 179.697 141.526 179.921 138.563C180.145 135.6 183.697 127.315 183.867 123.552C184.036 119.789 184.362 114.304 184.836 110.507C185.311 106.71 189.772 96.2014 192.172 93.0352C194.573 89.8689 223.957 68.8984 224.181 70.6001C224.405 72.3019 223.143 74.119 223.143 74.119C223.143 74.119 223.821 78.2887 218.065 82.8109C218.065 82.8109 222.384 84.0245 211.679 94.581C211.679 94.581 214.221 97.0625 207.224 103.32C207.224 103.32 212.363 104.988 202.953 112.317C202.953 112.317 204.105 114.06 200.837 116.609C200.837 116.609 202.919 119.606 196.41 124.067C196.03 127.321 194.428 130.309 191.928 132.427C191.928 132.427 194.688 141.41 186.952 152.041C179.216 162.673 176.856 166.279 176.856 166.279L176.721 153.052Z" fill="#EBEBEB"/>
<path d="M221.36 74.1935C215.936 77.7802 210.634 81.6515 205.488 85.645C202.939 87.6315 200.437 89.713 197.969 91.7809C196.762 92.8046 195.542 93.8149 194.369 94.8861C193.29 95.8096 192.392 96.9244 191.718 98.1744C191.101 99.5544 190.645 101.001 190.362 102.486C189.989 104.1 189.684 105.727 189.352 107.355C188.762 110.582 188.301 113.843 187.996 117.111C187.691 120.379 187.704 123.762 187.243 127.05C186.782 130.339 185.738 133.512 184.836 136.685C182.979 143.255 181.209 149.838 179.412 156.421C179.189 157.249 178.978 158.076 178.768 158.91C178.768 158.977 178.87 159.011 178.89 158.944C180.992 152.523 182.897 146.028 184.803 139.539C185.731 136.38 186.755 133.22 187.515 130.013C188.274 126.806 188.287 123.511 188.491 120.223C188.86 113.71 189.836 107.245 191.406 100.914C191.723 99.4012 192.374 97.9789 193.311 96.7506C194.311 95.6084 195.407 94.5537 196.586 93.5979C199.013 91.46 201.486 89.3717 204.003 87.3332C209.027 83.2652 214.173 79.3192 219.462 75.6106L221.394 74.2546C221.442 74.2274 221.401 74.1732 221.36 74.1935Z" fill="#C7C7C7"/>
<path d="M191.352 132.644C189.8 134.742 188.408 136.954 187.189 139.261C185.948 141.607 184.87 144.007 183.799 146.462C183.793 146.475 183.792 146.491 183.797 146.505C183.802 146.518 183.813 146.53 183.826 146.536C183.84 146.542 183.855 146.543 183.869 146.538C183.883 146.533 183.894 146.523 183.901 146.509C185.081 144.184 186.267 141.865 187.494 139.566C188.721 137.268 189.996 134.908 191.433 132.691C191.44 132.651 191.379 132.597 191.352 132.644Z" fill="#C7C7C7"/>
<path d="M195.834 123.721C194.317 124.377 192.972 125.372 191.901 126.63C190.491 128.101 189.081 129.579 187.765 131.139C187.725 131.186 187.765 131.261 187.84 131.213C189.243 129.925 190.552 128.542 191.908 127.145C193.108 125.891 194.254 124.488 195.881 123.755C195.942 123.776 195.881 123.708 195.834 123.721Z" fill="#C7C7C7"/>
<path d="M202.898 112.548C201.029 114.694 198.87 116.57 196.484 118.121C195.332 118.921 194.166 119.687 192.999 120.46C191.736 121.355 190.413 122.164 189.04 122.881C189.033 122.883 189.027 122.887 189.022 122.892C189.017 122.897 189.013 122.903 189.01 122.91C189.007 122.917 189.006 122.924 189.005 122.931C189.005 122.938 189.007 122.945 189.009 122.952C189.012 122.959 189.016 122.965 189.021 122.97C189.026 122.975 189.032 122.979 189.039 122.982C189.045 122.985 189.052 122.986 189.06 122.986C189.067 122.986 189.074 122.985 189.081 122.982C190.445 122.326 191.773 121.597 193.06 120.799C194.315 120.067 195.556 119.301 196.735 118.467C199.106 116.85 201.21 114.873 202.973 112.609C203.013 112.548 202.939 112.48 202.898 112.548Z" fill="#C7C7C7"/>
<path d="M207.407 102.934C202.125 105.91 197.861 110.277 193.772 114.684C192.477 116.04 191.176 117.464 189.935 118.894C189.867 118.975 189.982 119.064 190.057 118.996C194.518 114.684 198.579 109.958 203.38 105.999C204.679 104.925 206.037 103.924 207.448 103.002C207.509 102.968 207.468 102.907 207.407 102.934Z" fill="#C7C7C7"/>
<path d="M211.468 94.4929C205.576 98.2674 199.947 102.438 194.62 106.975C193.101 108.263 191.601 109.574 190.118 110.907C190.064 110.955 190.118 111.043 190.179 110.995C195.603 106.575 201.183 102.371 206.743 98.1134C208.322 96.9133 209.922 95.7268 211.489 94.5335C211.536 94.5335 211.536 94.4657 211.468 94.4929Z" fill="#C7C7C7"/>
<path d="M217.977 82.2414C214.546 84.8652 211.163 87.5704 207.807 90.3096C204.451 93.0487 201.135 95.8353 197.881 98.6964C196.05 100.303 194.22 101.91 192.376 103.497C192.321 103.544 192.376 103.632 192.443 103.585C195.833 100.873 199.223 98.2286 202.58 95.4963C205.936 92.7639 209.244 89.9706 212.512 87.1297C214.356 85.5297 216.207 83.9499 218.011 82.316C218.072 82.2753 218.024 82.2075 217.977 82.2414Z" fill="#C7C7C7"/>
<path d="M218.858 79.326C215.83 80.8766 213.017 82.8163 210.492 85.0958C207.644 87.5231 204.864 90.0249 202.085 92.5538C200.471 94.0093 198.875 95.4828 197.298 96.9744C197.244 97.0218 197.298 97.11 197.359 97.0625C200.27 94.6217 203.145 92.1357 205.983 89.6045C208.627 87.2519 211.19 84.7704 213.977 82.5805C215.507 81.3626 217.148 80.2911 218.879 79.3803C218.879 79.3803 218.885 79.326 218.858 79.326Z" fill="#C7C7C7"/>
<path d="M200.105 104.181C196.94 107.017 193.964 110.056 191.196 113.28C191.142 113.341 191.237 113.409 191.291 113.355C194.233 110.304 197.223 107.307 200.213 104.297C200.274 104.236 200.173 104.12 200.105 104.181Z" fill="#C7C7C7"/>
<path d="M186.098 147.085C184.273 149.365 182.937 151.996 182.172 154.815C182.172 154.876 182.26 154.903 182.28 154.815C183.122 152.046 184.482 149.462 186.287 147.201C186.29 147.177 186.286 147.154 186.276 147.133C186.266 147.112 186.249 147.094 186.229 147.082C186.209 147.07 186.186 147.064 186.163 147.064C186.14 147.065 186.117 147.072 186.098 147.085Z" fill="#C7C7C7"/>
<path d="M173.994 92.3338L137.244 189.434L137.948 189.701L174.697 92.6001L173.994 92.3338Z" fill="#263238"/>
<path d="M172.504 89.7808L172.585 89.9367L173.833 92.7369L176.138 86.6484L174.822 83.6584L172.504 89.7808Z" fill="#263238"/>
<path d="M179.724 85.5161L176.829 86.9128L174.531 93.0148C175.437 92.4565 176.404 92.0016 177.412 91.6588L179.724 85.5161Z" fill="#263238"/>
<path d="M132.63 189.772C133.139 192.267 135.742 195.142 135.742 195.142C135.742 195.142 139.546 194.349 141.424 192.627C143.072 191.115 143.641 188.674 142.366 187.494C140.014 185.331 137.62 189.44 137.62 189.44C137.62 189.44 138.081 184.694 134.908 185.067C133.166 185.264 132.21 187.576 132.63 189.772Z" fill="#FFC727"/>
<path d="M185.67 99.5291L137.073 191.275L137.738 191.627L186.336 99.8813L185.67 99.5291Z" fill="#263238"/>
<path d="M184.531 96.8456L184.592 97.0151L185.481 99.9441L188.525 94.1946L187.596 91.0623L184.531 96.8456Z" fill="#263238"/>
<path d="M192.227 93.5167L189.162 94.5405L186.118 100.29C187.089 99.8406 188.108 99.5039 189.155 99.2865L192.227 93.5167Z" fill="#263238"/>
<path d="M132.454 191.06C132.651 193.603 134.875 196.783 134.875 196.783C134.875 196.783 138.746 196.471 140.821 195C142.645 193.705 143.533 191.352 142.4 190.023C140.366 187.582 137.431 191.379 137.431 191.379C137.431 191.379 138.482 186.728 135.281 186.694C133.566 186.66 132.291 188.83 132.454 191.06Z" fill="#FFC727"/>
<path d="M182.964 89.7594L134.367 181.505L135.032 181.858L183.629 90.1117L182.964 89.7594Z" fill="#263238"/>
<path d="M181.819 87.0756L181.887 87.2451L182.769 90.174L185.82 84.4246L184.884 81.2922L181.819 87.0756Z" fill="#263238"/>
<path d="M189.521 83.7466L186.45 84.75L183.399 90.4995C184.374 90.0491 185.398 89.7124 186.45 89.496L189.521 83.7466Z" fill="#263238"/>
<path d="M129.749 181.29C129.939 183.833 132.169 187.013 132.169 187.013C132.169 187.013 136.041 186.701 138.115 185.23C139.939 183.935 140.827 181.582 139.688 180.253C137.654 177.812 134.719 181.609 134.719 181.609C134.719 181.609 135.77 176.958 132.576 176.924C130.854 176.89 129.586 179.06 129.749 181.29Z" fill="#FFC727"/>
<path d="M196.443 103.995L136.463 188.739L137.077 189.174L197.057 104.43L196.443 103.995Z" fill="#263238"/>
<path d="M195.637 101.158L195.684 101.334L196.186 104.351L199.942 99.0422L199.42 95.8149L195.637 101.158Z" fill="#263238"/>
<path d="M203.698 98.8456L200.552 99.4694L196.789 104.785C197.809 104.462 198.862 104.257 199.929 104.175L203.698 98.8456Z" fill="#263238"/>
<path d="M131.905 187.914C131.769 190.457 133.573 193.894 133.573 193.894C133.573 193.894 137.451 194.084 139.675 192.891C141.654 191.84 142.821 189.616 141.878 188.145C140.149 185.433 136.78 188.823 136.78 188.823C136.78 188.823 138.42 184.348 135.254 183.907C133.566 183.684 132.027 185.677 131.905 187.914Z" fill="#FFC727"/>
<path d="M178.254 138.772L155.982 126.243L120.756 188.863L143.027 201.391L178.254 138.772Z" fill="#455A64"/>
<path d="M215.217 100.344C216.343 100.975 221.747 102.473 223.286 108.561C224.743 114.324 220.404 128.298 219.896 131.525C219.387 134.753 223.082 136.759 222.608 140.549C222.194 143.804 219.618 144.014 218.54 146.082C217.692 147.689 218.357 150.875 215.828 152.733C213.529 154.421 211.278 152.957 209.515 153.059C207.753 153.16 205.447 156.204 202.349 156.021C199.251 155.838 197.847 152.367 196.396 151.791C194.945 151.214 191.42 154.964 186.857 152.659C182.294 150.353 182.545 145.804 180.917 144.224C179.29 142.644 173.832 142.014 172.585 138.671C171.337 135.329 172.28 131.891 171.758 130.305C171.236 128.718 169.046 128.04 168.924 124.759C168.802 121.477 172.09 120.765 173.432 118.508C174.361 116.935 173.5 114.792 175.582 112.657C178.45 109.721 182.45 112.223 185.562 109.267C187.996 106.955 194.26 97.7405 202.905 97.0625C207.272 96.6173 211.651 97.7844 215.217 100.344Z" fill="#263238"/>
<path d="M220.052 130.759C220.083 131.497 220.295 132.217 220.669 132.854L221.665 134.807C222.389 136.044 222.915 137.387 223.225 138.787C223.356 139.45 223.334 140.134 223.161 140.788C222.987 141.441 222.665 142.046 222.221 142.556C221.739 143.055 221.181 143.474 220.567 143.797C219.874 144.141 219.237 144.587 218.675 145.119C218.203 145.79 217.964 146.598 217.997 147.417C217.95 148.163 217.943 148.882 217.868 149.587C217.846 150.273 217.688 150.947 217.404 151.572C217.12 152.197 216.716 152.76 216.214 153.228C215.71 153.67 215.073 153.933 214.404 153.974C213.709 153.984 213.019 153.862 212.37 153.614C211.692 153.391 211.014 153.099 210.336 152.835C209.672 152.501 208.922 152.378 208.187 152.482C208.903 152.475 209.608 152.667 210.221 153.038C210.899 153.357 211.516 153.716 212.2 154.001C212.898 154.31 213.648 154.48 214.411 154.503C215.212 154.496 215.987 154.221 216.614 153.723C217.923 152.78 218.431 151.113 218.587 149.655C218.675 148.909 218.696 148.17 218.757 147.465C218.736 146.82 218.924 146.185 219.292 145.655C220.14 144.739 221.747 144.299 222.777 143.051C223.296 142.458 223.664 141.748 223.85 140.982C224.035 140.216 224.032 139.416 223.842 138.651C223.454 137.207 222.838 135.833 222.018 134.583L220.858 132.725C220.451 132.136 220.176 131.465 220.052 130.759Z" fill="#263238"/>
<path d="M194.62 99.8627C192.491 101.415 190.749 103.402 188.85 105.178C187.901 106.066 186.979 106.988 185.975 107.788C185.497 108.186 184.979 108.534 184.43 108.826C184.308 108.898 184.175 108.948 184.036 108.975C183.907 109.025 183.769 109.053 183.63 109.056C183.318 109.09 182.999 109.097 182.68 109.104C181.36 109.103 180.041 109.169 178.728 109.3C177.345 109.427 176.037 109.981 174.985 110.887C174.461 111.361 174.067 111.961 173.839 112.629C173.652 113.29 173.593 113.98 173.663 114.663C173.878 115.949 173.795 117.267 173.419 118.514C174.097 117.348 174.097 115.938 174.097 114.65C174.067 114.026 174.159 113.402 174.368 112.812C174.594 112.248 174.963 111.753 175.439 111.375C176.422 110.625 177.598 110.168 178.829 110.06C180.119 109.958 181.414 109.922 182.708 109.951C183.04 109.951 183.386 109.951 183.711 109.877C184.083 109.837 184.445 109.727 184.775 109.551C185.375 109.222 185.938 108.831 186.457 108.385C187.462 107.527 188.413 106.608 189.304 105.632L191.942 102.731C192.779 101.725 193.674 100.767 194.62 99.8627Z" fill="#263238"/>
<path d="M170.924 129.017C171.04 129.939 170.968 130.875 170.714 131.769C170.551 132.685 170.388 133.614 170.273 134.556C170.135 135.505 170.098 136.467 170.164 137.424C170.219 138.428 170.514 139.405 171.025 140.272C172.253 142 174.26 142.665 176.077 143.045C177.005 143.234 177.934 143.377 178.836 143.58C179.753 143.721 180.622 144.079 181.372 144.624C180.706 143.936 179.868 143.44 178.945 143.187C178.036 142.895 177.121 142.685 176.233 142.421C174.483 141.919 172.687 141.221 171.724 139.81C171.276 139.062 171.011 138.219 170.951 137.349C170.864 136.448 170.85 135.541 170.91 134.637C170.91 133.708 171.039 132.78 171.12 131.844C171.12 131.376 171.168 130.902 171.175 130.434C171.217 129.948 171.13 129.459 170.924 129.017Z" fill="#263238"/>
<path d="M195.861 152.265C199.725 169.534 212.499 193.033 216.547 195.874C220.432 198.586 248.318 203.23 256.515 202.796C259.837 202.62 261.43 179.066 257.871 178.734C246.209 177.704 227.144 174.158 226.398 173.52C224.561 171.947 212.763 158.252 205.224 147.811C196.085 135.146 194.301 145.316 195.861 152.265Z" fill="#936F6A"/>
<path d="M195.861 152.265C199.725 169.534 212.499 193.033 216.547 195.874C220.432 198.586 248.318 203.23 256.515 202.796C259.837 202.62 261.43 179.066 257.871 178.734C246.209 177.704 227.144 174.158 226.398 173.52C224.561 171.947 212.763 158.252 205.224 147.811C196.085 135.146 194.301 145.316 195.861 152.265Z" fill="#936F6A"/>
<path d="M208.363 183.772C203.509 174.775 198.139 162.428 195.861 152.265C194.64 146.841 195.461 139.485 200.2 142.475L208.363 183.772Z" fill="#263238"/>
<path d="M93.8963 200.281L81.2245 225.774C81.2245 225.774 130.596 254.426 148.611 252.575C164.883 250.901 188.491 185.392 188.491 185.392L161.276 169.026C161.276 169.026 147.275 210.689 139.2 218.777C134.854 223.116 93.8963 200.281 93.8963 200.281Z" fill="#936F6A"/>
<path d="M50.7484 235.137C50.8365 233.517 68.6069 189.657 70.2205 188.484C70.8307 188.043 108.867 208.146 108.867 208.146L98.3101 234.9L72.6478 221.211C72.6478 221.211 59.0878 234.954 57.2029 236.053C55.3181 237.151 50.6535 236.764 50.7484 235.137Z" fill="#936F6A"/>
<path d="M65.1422 283.289C64.0371 282.089 45.9413 241.822 46.2192 239.849C46.3209 239.103 52.0297 236.12 59.0334 232.723C60.5454 231.984 62.1116 231.239 63.7116 230.486C70.9407 227.157 78.3361 224.201 85.8687 221.631L97.9981 248.962L75.5563 256.643L70.8103 258.677C70.8103 258.677 70.8103 277.193 70.3086 279.322C69.8069 281.451 66.2406 284.482 65.1422 283.289Z" fill="#936F6A"/>
<path d="M51.8671 236.303C52.7417 235.761 53.6434 235.259 54.5791 234.771C55.5147 234.283 56.4029 233.808 57.2911 233.354C58.1792 232.9 59.1352 232.452 60.0776 232.039C61.0201 231.625 61.9625 231.212 62.932 230.852C62.0506 231.401 61.1489 231.903 60.22 232.391C59.2912 232.879 58.403 233.347 57.508 233.808C56.6131 234.269 55.6639 234.703 54.7214 235.117C53.779 235.53 52.8366 235.944 51.8671 236.303Z" fill="#263238"/>
<path d="M70.7628 227.313L81.9837 254.433C81.9837 254.433 122.04 242.724 131.2 234.703C143.404 223.984 165.534 197.929 165.534 197.929L170.164 197.474C175.507 197.359 185.975 188.579 188.47 185.413L152.536 163.785C152.536 163.785 138.4 171.663 135.532 186.531C135.532 186.531 113.579 208.227 109.388 210.824C98.4523 217.55 70.7628 227.313 70.7628 227.313Z" fill="#936F6A"/>
<path d="M78.4377 224.31C81.2108 223.123 84.0041 221.991 86.7975 220.852C89.5908 219.713 92.3842 218.601 95.1572 217.421C97.9302 216.241 100.696 215.102 103.368 213.712C104.724 213.034 106.055 212.334 107.361 211.611C108.717 210.899 110.005 210.153 111.307 209.4C108.833 211.125 106.264 212.709 103.612 214.146C100.956 215.592 98.2188 216.885 95.4149 218.018C92.6147 219.15 89.8146 220.269 86.9805 221.306L82.7159 222.872C81.2989 223.354 79.8751 223.855 78.4377 224.31Z" fill="#263238"/>
<path d="M115.125 243.09C117.721 241.904 120.304 240.69 122.84 239.381C125.393 238.127 127.858 236.7 130.217 235.11C132.434 233.338 134.535 231.427 136.509 229.388C138.543 227.354 140.488 225.32 142.441 223.225C146.374 219.089 150.204 214.851 154.048 210.634L165.534 197.928C161.913 202.342 158.191 206.681 154.435 210.98C150.679 215.278 146.835 219.509 142.909 223.686C140.963 225.774 138.99 227.808 136.956 229.842L135.424 231.347L133.851 232.805C133.336 233.3 132.786 233.768 132.23 234.229L131.403 234.907L130.529 235.544C128.117 237.098 125.6 238.482 122.996 239.686C120.393 240.887 117.782 242.046 115.125 243.09Z" fill="#263238"/>
<path d="M137.044 181.453C139.038 178.646 147.316 178.321 153.398 182.294C159.479 186.267 165.534 197.929 165.534 197.929C165.534 197.929 170.117 199.251 174.199 197.718C184.714 193.759 188.491 185.413 188.491 185.413L152.557 163.785C152.557 163.785 147.648 164.951 142.116 171.988C139.892 174.827 138.177 178.03 137.044 181.453Z" fill="#FFC727"/>
<path d="M147.885 167.622C147.382 168.023 146.776 168.272 146.136 168.341C146.029 168.222 145.931 168.095 145.845 167.961C146.58 167.292 147.352 166.665 148.157 166.083C148.319 166.325 148.382 166.62 148.332 166.907C148.281 167.194 148.121 167.45 147.885 167.622ZM161.249 171.066C160.618 170.578 159.954 171.744 159.954 171.744C159.954 171.744 160.252 170.429 159.452 170.388C158.896 170.347 158.435 170.964 158.503 171.744C158.609 172.38 158.891 172.974 159.316 173.46C159.955 173.384 160.561 173.133 161.066 172.734C161.199 172.646 161.312 172.529 161.395 172.392C161.478 172.256 161.531 172.102 161.548 171.943C161.566 171.784 161.548 171.623 161.496 171.471C161.444 171.32 161.36 171.181 161.249 171.066ZM173.453 176.368C173.324 176.507 173.211 176.66 173.114 176.822C173.156 176.617 173.172 176.408 173.161 176.199L172.144 175.582C171.964 175.721 171.825 175.905 171.74 176.116C171.655 176.327 171.629 176.557 171.663 176.782C171.764 177.416 172.044 178.009 172.47 178.49C173.109 178.416 173.715 178.165 174.219 177.765C174.422 177.583 174.57 177.348 174.646 177.087L173.453 176.368ZM164.679 196.03C164.617 196.02 164.552 196.02 164.49 196.03C164.788 196.552 165.025 196.986 165.202 197.305C165.269 197.047 165.378 196.105 164.7 196.05L164.679 196.03ZM166.476 196.708C165.927 196.274 165.351 197.108 165.215 197.332C165.412 197.691 165.513 197.895 165.513 197.895C165.513 197.895 165.873 197.996 166.483 198.118C166.659 197.933 166.758 197.688 166.76 197.433C166.763 197.178 166.669 196.931 166.496 196.742L166.476 196.708ZM150.516 179.331C149.885 178.843 149.221 180.009 149.221 180.009C149.221 180.009 149.519 178.694 148.719 178.653C148.184 178.612 147.743 179.175 147.763 179.887C148.689 180.117 149.595 180.416 150.475 180.782C150.574 180.69 150.653 180.579 150.708 180.456C150.763 180.332 150.793 180.2 150.797 180.065C150.801 179.93 150.778 179.796 150.73 179.67C150.682 179.544 150.609 179.429 150.516 179.331ZM163.683 184.416C163.045 183.928 162.388 185.094 162.388 185.094C162.388 185.094 162.679 183.779 161.886 183.738C161.33 183.697 160.862 184.314 160.937 185.094C161.038 185.728 161.318 186.321 161.744 186.803C162.383 186.728 162.989 186.477 163.493 186.077C163.626 185.989 163.738 185.873 163.821 185.737C163.904 185.602 163.957 185.449 163.975 185.291C163.993 185.132 163.976 184.972 163.926 184.821C163.875 184.67 163.792 184.532 163.683 184.416ZM176.856 189.494C176.226 188.999 175.561 190.172 175.561 190.172C175.561 190.172 175.86 188.857 175.06 188.816C174.504 188.776 174.043 189.386 174.11 190.172C174.214 190.807 174.496 191.4 174.924 191.881C175.563 191.805 176.168 191.554 176.673 191.155C176.809 191.068 176.923 190.951 177.008 190.814C177.093 190.677 177.146 190.522 177.164 190.362C177.181 190.201 177.163 190.039 177.11 189.886C177.056 189.734 176.97 189.595 176.856 189.481V189.494Z" fill="white"/>
<path d="M152.55 163.785C152.55 163.846 188.484 185.413 188.484 185.413C188.708 185.413 202.756 159.506 202.885 148.238C202.919 145.37 198.024 137.756 190.993 138.59C176.158 140.346 152.55 163.473 152.55 163.785Z" fill="#936F6A"/>
<path d="M152.55 163.784L188.484 185.413C188.484 185.413 199.671 165.818 201.922 156.896C202.837 153.255 198.274 155.581 195.352 158.394C195.352 158.394 195.657 151.58 191.108 149.377C186.559 147.173 180.043 150.306 180.043 150.306L173.121 146.238C173.121 146.238 159.778 155.798 152.55 163.784Z" fill="#FFC727"/>
<path d="M168.998 152.096C168.494 152.495 167.888 152.746 167.249 152.821C166.865 152.382 166.592 151.856 166.456 151.289L167.873 150.177C167.948 150.498 167.948 150.832 167.873 151.153C167.873 151.153 168.551 149.98 169.168 150.475C169.271 150.589 169.35 150.724 169.398 150.87C169.446 151.016 169.462 151.171 169.446 151.324C169.43 151.477 169.382 151.624 169.305 151.758C169.228 151.891 169.123 152.006 168.998 152.096ZM182.355 155.54C181.724 155.052 181.067 156.218 181.067 156.218C181.067 156.218 181.358 154.903 180.565 154.862C180.009 154.815 179.541 155.432 179.609 156.218C179.716 156.852 179.998 157.444 180.423 157.927C181.062 157.852 181.668 157.601 182.172 157.201C182.307 157.116 182.422 157.001 182.508 156.866C182.594 156.731 182.649 156.579 182.669 156.42C182.689 156.261 182.674 156.1 182.624 155.948C182.574 155.796 182.492 155.657 182.382 155.54H182.355ZM195.535 160.618C194.905 160.123 194.24 161.296 194.24 161.296C194.24 161.296 194.539 159.988 193.739 159.94C193.183 159.9 192.722 160.51 192.789 161.296C192.891 161.931 193.171 162.523 193.596 163.005C194.235 162.93 194.841 162.679 195.345 162.279C195.48 162.193 195.594 162.078 195.679 161.942C195.764 161.806 195.817 161.653 195.835 161.494C195.853 161.335 195.836 161.174 195.784 161.022C195.732 160.871 195.647 160.733 195.535 160.618ZM191.115 149.377C190.752 149.201 190.372 149.06 189.982 148.957C190.088 149.578 190.365 150.158 190.782 150.631C191.308 150.567 191.815 150.392 192.267 150.116C191.916 149.822 191.529 149.574 191.115 149.377ZM172.632 175.453C172.466 175.441 172.301 175.486 172.165 175.582L173.182 176.199C173.168 175.853 173.046 175.487 172.632 175.453ZM174.429 176.131C174.077 175.86 173.751 176.09 173.473 176.355L174.666 177.08C174.724 176.918 174.732 176.743 174.69 176.576C174.648 176.41 174.557 176.259 174.429 176.144V176.131ZM187.603 181.202C186.972 180.714 186.308 181.88 186.308 181.88C186.308 181.88 186.606 180.572 185.806 180.524C185.25 180.484 184.789 181.094 184.857 181.88C184.96 182.516 185.242 183.108 185.67 183.589C186.311 183.518 186.917 183.267 187.42 182.863C187.551 182.776 187.661 182.66 187.743 182.525C187.825 182.39 187.876 182.239 187.894 182.082C187.911 181.925 187.894 181.767 187.844 181.617C187.794 181.467 187.711 181.33 187.603 181.216V181.202ZM158.449 158.72C157.818 158.232 157.154 159.398 157.154 159.398C157.154 159.398 157.154 159.296 157.154 159.147L155.954 160.286C156.098 160.566 156.276 160.828 156.482 161.066C157.123 160.995 157.729 160.743 158.232 160.34C158.358 160.254 158.464 160.141 158.544 160.011C158.623 159.88 158.674 159.734 158.694 159.582C158.713 159.431 158.7 159.277 158.655 159.13C158.611 158.984 158.536 158.849 158.435 158.733L158.449 158.72ZM171.622 163.791C170.992 163.303 170.334 164.469 170.334 164.469C170.334 164.469 170.626 163.154 169.832 163.113C169.276 163.073 168.808 163.683 168.876 164.469C168.983 165.106 169.265 165.7 169.69 166.185C170.329 166.11 170.935 165.859 171.439 165.459C171.57 165.37 171.681 165.254 171.762 165.118C171.843 164.982 171.894 164.829 171.91 164.672C171.926 164.514 171.907 164.355 171.855 164.205C171.803 164.055 171.719 163.919 171.609 163.805L171.622 163.791ZM184.803 168.87C184.172 168.375 183.508 169.548 183.508 169.548C183.508 169.548 183.806 168.232 183.006 168.192C182.45 168.151 181.989 168.761 182.057 169.548C182.158 170.182 182.438 170.775 182.863 171.256C183.503 171.182 184.108 170.931 184.613 170.531C184.744 170.443 184.855 170.327 184.937 170.192C185.019 170.057 185.07 169.905 185.087 169.748C185.104 169.591 185.086 169.432 185.034 169.282C184.983 169.133 184.899 168.997 184.789 168.883L184.803 168.87Z" fill="white"/>
<path d="M148.36 165.507C148.082 165.749 147.829 166.019 147.607 166.313C147.397 166.578 147.187 166.991 147.248 167.147C147.404 167.71 148.035 168.124 148.604 168.436C149.897 169.033 151.266 169.45 152.672 169.676C154.087 169.95 155.518 170.129 156.957 170.212C158.394 170.3 159.838 170.361 161.276 170.32C164.147 170.249 167.009 169.947 169.832 169.419C172.619 168.894 175.345 168.088 177.968 167.012C183.309 164.806 188.37 161.977 193.047 158.584C195.398 156.906 197.58 155.003 199.563 152.903C200.544 151.876 201.372 150.714 202.024 149.452C202.345 148.819 202.532 148.126 202.573 147.418C202.605 146.693 202.398 145.978 201.983 145.384C202.568 145.902 202.956 146.606 203.081 147.377C203.188 148.162 203.131 148.961 202.912 149.723C202.456 151.208 201.769 152.613 200.878 153.886C200.003 155.141 199.04 156.333 197.996 157.452C196.959 158.571 195.84 159.601 194.708 160.605C190.098 164.585 184.873 167.791 179.236 170.097C177.804 170.664 176.345 171.16 174.863 171.581C173.375 171.979 171.865 172.291 170.341 172.517C167.313 172.975 164.243 173.102 161.188 172.897C158.136 172.724 155.119 172.159 152.211 171.215C150.736 170.749 149.34 170.063 148.068 169.181C147.745 168.937 147.451 168.655 147.194 168.341C146.9 168.011 146.721 167.594 146.685 167.154C146.694 166.915 146.788 166.687 146.95 166.51C147.072 166.355 147.211 166.214 147.363 166.09C147.669 165.854 148.004 165.658 148.36 165.507Z" fill="#37474F"/>
<path d="M187.25 148.007C183.08 151.553 143.797 167.669 141.98 168.503C136.915 170.802 117.572 167.371 123.674 155.845C129.776 144.319 168.422 139.234 184.016 138.42C195.149 137.844 194.993 141.437 187.25 148.007Z" fill="#936F6A"/>
<path d="M205.766 101.51C205.375 102.199 205.028 102.912 204.729 103.646C204.037 105.294 203.492 107 203.102 108.745C201.264 116.704 201.78 125.423 201.78 125.423L194.274 118.84C194.443 117.104 194.809 115.394 195.366 113.741C196.951 109.247 199.475 105.143 202.77 101.7H203.4L205.766 101.51Z" fill="#FFC727"/>
<path d="M217.258 117.179L210.77 124.752C210.77 124.752 209.97 115.314 206.702 107.49C206.144 106.157 205.491 104.866 204.749 103.626C204.339 102.942 203.886 102.285 203.393 101.659L205.773 101.49L206.383 101.442C208.439 103.028 210.303 104.848 211.936 106.866C214.442 109.874 216.258 113.394 217.258 117.179Z" fill="#FFC727"/>
<path opacity="0.1" d="M211.929 106.921C210.16 106.851 208.391 107.05 206.681 107.511C206.124 106.177 205.471 104.886 204.729 103.646C204.037 105.294 203.492 107 203.102 108.745C202.749 108.9 202.424 109.063 202.057 109.233C199.592 110.354 197.331 111.878 195.366 113.741C196.95 109.247 199.474 105.143 202.769 101.7H203.4L205.78 101.531L206.39 101.483C208.442 103.074 210.301 104.899 211.929 106.921Z" fill="black"/>
<path d="M202.756 101.741C202.035 102.738 201.131 103.59 200.091 104.249C197.203 106.202 193.054 107.775 191.169 107.029C188.511 105.965 190.071 103.341 190.091 102.52C190.111 101.7 181.772 92.1606 187.094 89.8283C188.83 89.0689 191.081 89.7876 193.318 91.1029C193.739 91.3537 194.152 91.6114 194.573 91.8894C197.489 93.9818 200.169 96.3847 202.566 99.0558L202.756 101.741Z" fill="#FFC727"/>
<path opacity="0.1" d="M202.322 99.3677C201.007 98.3168 196.83 96.893 196.125 99.4219C195.854 100.405 196.579 101.49 197.366 102.005C197.927 102.334 198.563 102.513 199.214 102.526C199.864 102.539 200.507 102.385 201.081 102.08C201.312 101.978 201.197 101.619 200.952 101.707C200.451 101.929 199.901 102.017 199.355 101.962C198.81 101.907 198.288 101.712 197.84 101.395C197.162 100.859 196.573 99.9304 197.298 99.266C198.424 98.2557 200.939 99.1507 202.078 99.727C202.295 99.8287 202.519 99.5236 202.322 99.3677Z" fill="black"/>
<path opacity="0.1" d="M200.071 104.256C197.183 106.209 193.033 107.782 191.148 107.036C188.491 105.971 190.05 103.348 190.07 102.527C190.091 101.707 181.751 92.1674 187.074 89.8351C188.809 89.0757 191.06 89.7944 193.298 91.1097C191.772 90.7911 190.077 91.0487 190.009 93.3607C189.969 94.8523 193.081 98.3033 193.399 99.5169C193.786 100.948 192.999 101.775 192.965 103.137C192.857 107.666 197.766 105.341 200.071 104.256Z" fill="black"/>
<path d="M222.384 91.2657C222.045 94.9473 218.994 99.9034 219.075 100.446C219.224 101.239 221.143 103.612 218.662 105.043C217.475 105.721 215.082 105.517 212.675 104.819C210.092 104.066 207.509 102.785 206.424 101.476L206.22 98.7983C206.22 98.7983 214.614 85.9163 220.221 87.4418C222.052 87.9571 222.547 89.4487 222.384 91.2657Z" fill="#FFC727"/>
<path opacity="0.1" d="M206.173 99.1168C207.346 97.91 211.306 95.9641 212.323 98.3778C212.723 99.3202 212.14 100.486 211.428 101.09C210.911 101.487 210.302 101.746 209.658 101.842C209.014 101.938 208.356 101.868 207.746 101.639C207.509 101.564 207.577 101.192 207.828 101.253C208.354 101.407 208.912 101.423 209.447 101.298C209.981 101.174 210.475 100.913 210.879 100.541C211.468 99.9236 211.95 98.927 211.136 98.3643C209.889 97.5032 207.516 98.7168 206.458 99.4287C206.255 99.5779 205.997 99.2999 206.173 99.1168Z" fill="black"/>
<path opacity="0.1" d="M222.384 91.2657C222.322 91.1268 222.244 90.9949 222.154 90.8725C220.798 89.008 218.635 89.5707 217.035 90.5471C215.376 91.6282 213.985 93.0727 212.967 94.771C210.933 97.9779 210.112 102.039 212.662 104.819C210.078 104.066 207.495 102.785 206.41 101.476L206.207 98.7983C206.207 98.7983 214.601 85.9163 220.208 87.4418C222.052 87.9571 222.547 89.4487 222.384 91.2657Z" fill="black"/>
<path d="M207.129 103.015C206.915 103.177 206.669 103.292 206.407 103.352C206.145 103.411 205.873 103.415 205.61 103.361C205.308 103.281 204.999 103.225 204.688 103.192C204.139 103.239 203.488 103.971 202.247 103.368C201.007 102.764 199.617 97.1845 200.946 96.2217C202.275 95.259 203.603 95.8082 204.153 95.7743C204.383 95.7743 204.749 95.6115 205.204 95.5098C205.944 95.32 206.728 95.4093 207.407 95.7607C208.824 96.5201 208.282 102.236 207.129 103.015Z" fill="#FFC727"/>
<path opacity="0.1" d="M205.203 95.5099C205.214 95.539 205.216 95.5707 205.209 95.6009C205.202 95.6311 205.186 95.6584 205.163 95.6794C205.133 95.7525 205.079 95.8132 205.01 95.8515C204.941 95.8897 204.861 95.9031 204.783 95.8896C204.138 96.2442 203.619 96.79 203.298 97.4517C202.976 98.1134 202.867 98.8586 202.986 99.5847C203.042 100.183 203.176 100.771 203.386 101.334C203.881 102.466 204.58 102.358 205.42 103.192C205.479 103.254 205.545 103.309 205.617 103.354C205.314 103.275 205.006 103.218 204.695 103.185C204.146 103.232 203.495 103.965 202.254 103.361C201.013 102.758 199.623 97.1778 200.952 96.215C202.281 95.2523 203.61 95.8014 204.159 95.7675C204.383 95.7472 204.756 95.598 205.203 95.5099Z" fill="black"/>
<path d="M191.115 139.817C191.115 140.922 194.301 148.977 199.122 149.987C200.695 150.313 202.864 141.851 202.864 141.851L203.163 141.261L207.407 132.99L197.549 122.44C197.549 122.44 191.128 139.35 191.115 139.817Z" fill="#936F6A"/>
<path d="M207.4 132.969L203.163 141.227L202.858 141.824C202.858 141.824 202.464 143.363 201.895 145.099C195.657 142.455 193.949 136.807 193.528 133.105C195.352 128.203 197.549 122.413 197.549 122.413L207.4 132.969Z" fill="#263238"/>
<path d="M227.327 121.199C229.198 141.011 217.536 144.373 213.265 144.767C209.387 145.133 196.132 145.872 192.247 126.352C188.362 106.833 196.993 99.7 205.807 98.405C214.621 97.1101 225.455 101.381 227.327 121.199Z" fill="#936F6A"/>
<path d="M224.71 120.135C224.253 120.079 223.8 119.995 223.354 119.884C222.856 119.87 222.379 119.688 221.998 119.369C221.902 119.244 221.85 119.092 221.85 118.935C221.85 118.778 221.902 118.625 221.998 118.501C222.217 118.28 222.492 118.121 222.794 118.041C223.095 117.961 223.412 117.963 223.713 118.047C224.349 118.126 224.933 118.438 225.354 118.921C225.443 119.036 225.497 119.174 225.51 119.318C225.522 119.463 225.493 119.608 225.425 119.737C225.357 119.865 225.253 119.971 225.126 120.042C224.999 120.112 224.854 120.145 224.71 120.135Z" fill="#263238"/>
<path d="M211.536 122.087C211.985 122.167 212.437 122.224 212.892 122.257C213.363 122.385 213.864 122.354 214.316 122.169C214.452 122.087 214.555 121.96 214.607 121.81C214.659 121.66 214.656 121.497 214.6 121.348C214.457 121.07 214.242 120.834 213.978 120.666C213.713 120.498 213.408 120.404 213.095 120.392C212.467 120.275 211.818 120.393 211.271 120.725C211.151 120.809 211.057 120.926 211.002 121.062C210.947 121.198 210.933 121.348 210.961 121.492C210.989 121.636 211.058 121.769 211.16 121.875C211.262 121.981 211.393 122.054 211.536 122.087Z" fill="#263238"/>
<path d="M213.963 135.539C214.275 135.865 214.58 136.319 215.068 136.373C215.574 136.384 216.075 136.287 216.54 136.088C216.55 136.084 216.56 136.084 216.571 136.087C216.581 136.089 216.59 136.096 216.596 136.104C216.602 136.113 216.606 136.123 216.605 136.134C216.605 136.145 216.601 136.155 216.594 136.163C216.391 136.421 216.122 136.621 215.815 136.74C215.509 136.859 215.176 136.894 214.851 136.841C214.577 136.759 214.333 136.597 214.151 136.376C213.969 136.155 213.856 135.885 213.828 135.6C213.807 135.519 213.916 135.492 213.963 135.539Z" fill="#263238"/>
<path d="M219.523 130.528C219.523 130.528 219.848 132.562 219.869 133.498C219.869 133.586 219.638 133.634 219.313 133.661C219.313 133.661 219.313 133.661 219.279 133.661C218.462 133.827 217.616 133.766 216.832 133.482C216.049 133.199 215.359 132.704 214.838 132.054C214.77 131.966 214.885 131.864 214.974 131.918C216.206 132.731 217.67 133.119 219.143 133.024C219.204 132.759 218.465 129.552 218.628 129.573C219.265 129.667 220.391 129.925 220.804 130.02C220.628 128.705 219.937 124.996 219.618 122.562C219.618 122.413 219.828 122.359 219.862 122.494C220.692 125.21 221.34 127.978 221.801 130.779C221.835 131.037 219.909 130.678 219.523 130.528Z" fill="#263238"/>
<path d="M221.808 124.42C221.808 124.366 221.909 124.488 221.903 124.542C221.814 125.898 221.943 127.437 223.143 127.932C223.177 127.932 223.143 128.013 223.143 128.006C221.652 127.742 221.503 125.674 221.808 124.42Z" fill="#263238"/>
<path d="M223.062 123.057C225.225 122.969 225.245 127.308 223.238 127.39C221.232 127.471 221.238 123.132 223.062 123.057Z" fill="#263238"/>
<path d="M223.957 123.335C224.303 123.566 224.635 124.013 225.055 124.013C225.476 124.013 225.876 123.572 226.181 123.118C226.181 123.071 226.249 123.118 226.249 123.166C226.249 123.999 226.005 124.861 225.204 125.023C224.404 125.186 223.943 124.467 223.74 123.667C223.74 123.477 223.821 123.247 223.957 123.335Z" fill="#263238"/>
<path d="M210.485 123.966C210.901 123.873 211.328 123.841 211.753 123.871C212.191 123.897 212.623 123.989 213.034 124.142C213.461 124.312 213.854 124.558 214.194 124.867C214.536 125.2 214.798 125.605 214.96 126.054L215.251 126.867L214.411 126.65C213.816 126.493 213.207 126.398 212.594 126.366C211.955 126.325 211.317 126.443 210.736 126.711C211.183 126.152 211.829 125.787 212.539 125.694C213.243 125.579 213.962 125.607 214.655 125.776L214.106 126.366C213.826 125.714 213.334 125.176 212.709 124.84C212.008 124.456 211.26 124.162 210.485 123.966Z" fill="#263238"/>
<path d="M212.411 127.728C213.077 127.676 213.733 127.537 214.363 127.315C214.506 127.254 215.089 126.949 215.075 126.84C215.056 126.51 214.992 126.184 214.885 125.871C215.077 126.165 215.208 126.495 215.272 126.84C215.203 127.017 215.095 127.176 214.956 127.307C214.818 127.437 214.653 127.534 214.472 127.593C213.808 127.817 213.098 127.864 212.411 127.728Z" fill="#263238"/>
<path d="M193.23 130.746C197.576 128.461 197.576 123.667 197.576 123.667C201.035 121.962 203.97 119.355 206.071 116.121C205.949 116.548 205.109 119.66 204.627 121.227C217.265 118.426 220.791 108.263 220.791 108.263C225.096 112.399 226.032 115.097 226.689 116.44C226.689 116.44 226.445 108.378 222.208 103.09C217.021 96.6151 210.363 98.0525 210.363 98.0525C207.194 97.3513 203.891 97.547 200.827 98.6176C197.762 99.6882 195.057 101.591 193.013 104.114C185.094 113.64 193.23 130.746 193.23 130.746Z" fill="#263238"/>
<path d="M195.515 127.579C195.515 127.579 191.121 121.396 188.315 122.969C185.508 124.542 188.843 133.519 192.166 134.725C192.581 134.906 193.028 135.001 193.481 135.006C193.934 135.01 194.383 134.924 194.802 134.752C195.221 134.58 195.602 134.326 195.921 134.005C196.24 133.683 196.492 133.301 196.661 132.881L195.515 127.579Z" fill="#936F6A"/>
<path d="M189.338 125.518C189.33 125.522 189.322 125.528 189.317 125.536C189.311 125.543 189.309 125.553 189.309 125.562C189.309 125.572 189.311 125.581 189.317 125.589C189.322 125.597 189.33 125.603 189.338 125.606C191.671 126.528 192.905 128.671 193.779 130.895C193.101 130.04 192.139 129.579 190.993 130.413C190.932 130.454 190.993 130.549 191.061 130.535C191.465 130.399 191.901 130.391 192.31 130.512C192.72 130.633 193.081 130.878 193.345 131.213C193.776 131.783 194.144 132.396 194.444 133.044C194.559 133.254 194.932 133.139 194.851 132.901V132.847C194.844 129.918 192.552 125.789 189.338 125.518Z" fill="#263238"/>
<path d="M253.375 201.366C250.874 199.718 254.44 180.348 257.172 178.931C258.13 178.548 259.132 178.288 260.155 178.158C260.155 178.158 266.088 174.721 270 170.11C273.302 166.239 277.75 160.117 279.899 161.812C283.031 164.273 278.333 172.693 275.343 177.358C278.353 177.534 280.929 177.961 282.333 178.762C287.011 181.419 277.797 203.8 272.393 204.661C267.186 205.481 255.877 203.007 253.375 201.366Z" fill="#936F6A"/>
<path d="M183.856 157.967L183.767 158.714L286.861 170.989L286.95 170.242L183.856 157.967Z" fill="#263238"/>
<path d="M181.67 160.767L181.799 160.645L184.22 158.767L177.751 157.994L175.168 159.994L181.67 160.767Z" fill="#263238"/>
<path d="M175.792 154.787L177.826 157.255L184.294 158.028C183.524 157.286 182.842 156.458 182.26 155.56L175.792 154.787Z" fill="#263238"/>
<path d="M288.32 175.392C290.618 174.3 292.788 171.073 292.788 171.073C292.788 171.073 291.099 167.575 288.977 166.171C287.113 164.937 284.604 164.971 283.77 166.49C282.231 169.297 286.808 170.646 286.808 170.646C286.808 170.646 282.062 171.324 283.208 174.334C283.818 175.961 286.299 176.348 288.32 175.392Z" fill="#FFC727"/>
<path d="M268.244 93.6996L230.208 126.528L192.132 159.316L192.159 159.086L221.347 200.898L250.487 242.751L221.157 201.034L191.874 159.283L191.786 159.154L191.901 159.052L230.052 126.352L268.244 93.6996Z" fill="#263238"/>
<path d="M247.653 240.127C247.802 236.175 251.043 233.869 253.023 229.408C255.057 224.771 268.841 199.074 274.577 182.45C276.855 175.846 273.716 170.517 273.899 168.7C274.088 167.168 278.143 162.259 277.648 156.896C276.095 140.034 268.671 111.145 267.715 105.849C266.854 101.069 264.223 98.1202 265.003 94.2488C266.237 87.9502 272.644 88.079 271.688 96.1268C270.732 104.175 282.523 149.526 281.601 157.296C280.679 165.066 277.011 169.344 277.011 169.344C277.011 169.344 279.797 172.429 278.875 180.192C277.953 187.955 255.532 232.073 254.576 240.114C253.62 248.155 247.375 246.541 247.653 240.127Z" fill="#FFC727"/>
<path opacity="0.3" d="M247.653 240.127C247.802 236.175 251.043 233.869 253.023 229.408C255.057 224.771 268.841 199.074 274.577 182.45C276.855 175.846 273.716 170.517 273.899 168.7C274.088 167.168 278.143 162.259 277.648 156.896C276.095 140.034 268.671 111.145 267.715 105.849C266.854 101.069 264.223 98.1202 265.003 94.2488C266.237 87.9502 272.644 88.079 271.688 96.1268C270.732 104.175 282.523 149.526 281.601 157.296C280.679 165.066 277.011 169.344 277.011 169.344C277.011 169.344 279.797 172.429 278.875 180.192C277.953 187.955 255.532 232.073 254.576 240.114C253.62 248.155 247.375 246.541 247.653 240.127Z" fill="black"/>
<path d="M274.319 176.097C272.183 177.9 275.526 179.385 275.526 179.385C275.526 179.385 270.197 178.409 268.712 181.121C267.227 183.833 271.424 185.385 271.695 185.507C271.41 185.46 266.488 184.687 265.274 187.541C264.02 190.531 268.427 191.481 268.712 191.542C268.434 191.576 264.718 192.132 264.298 194.532C263.579 198.647 273.112 197.481 275.682 199.678C275.682 199.678 272.461 204.464 272.4 204.62C272.4 204.62 281.485 203.698 284.251 200.064C284.662 199.54 284.881 198.892 284.874 198.226C284.866 197.561 284.633 196.918 284.211 196.403C284.211 196.403 287.174 196.403 288.197 194.199C288.72 193.047 287.35 191.189 287.35 191.189C287.35 191.189 289.723 191.115 290.509 189.067C291.14 187.44 289.662 185.833 289.662 185.833C289.662 185.833 291.913 184.701 292.015 182.823C292.218 179.066 278.889 172.212 274.319 176.097Z" fill="#936F6A"/>
<path d="M289.506 185.569C289.514 185.572 289.523 185.572 289.531 185.569C289.539 185.567 289.547 185.562 289.552 185.555C289.557 185.549 289.56 185.54 289.56 185.532C289.561 185.523 289.558 185.515 289.554 185.508C285.575 182.041 280.634 179.87 275.39 179.284C275.221 179.284 275.126 179.534 275.309 179.582C280.306 180.88 285.088 182.896 289.506 185.569Z" fill="#263238"/>
<path d="M287.431 191.196C287.479 191.196 287.533 191.149 287.479 191.108C283.506 187.718 277.533 185.094 271.607 185.284C271.403 185.284 271.234 185.494 271.464 185.508C275.41 185.711 283.323 188.66 287.431 191.196Z" fill="#263238"/>
<path d="M268.305 191.725C273.993 191.759 279.092 193.623 284.055 196.281C284.123 196.315 284.163 196.22 284.116 196.179C282.041 194.213 278.692 192.85 276.014 192.003C273.53 191.174 270.873 191.008 268.305 191.521C268.203 191.542 268.183 191.725 268.305 191.725Z" fill="#263238"/>
<path d="M275.478 179.304C275.281 179.304 275.478 179.595 275.275 179.582C274.427 179.541 269.322 179.704 268.84 181.467C268.454 182.87 270.081 184.369 270.935 184.694L273.071 185.521L270.773 185.487C269.756 185.467 268.742 185.608 267.769 185.908C267.311 186.025 266.882 186.237 266.511 186.53C266.14 186.823 265.834 187.191 265.613 187.609C265.414 188.001 265.356 188.448 265.447 188.878C265.538 189.307 265.774 189.692 266.115 189.969C266.891 190.572 267.808 190.969 268.779 191.121L271.451 191.63L268.773 192.016C268.029 192.126 267.302 192.328 266.61 192.62C265.942 192.871 265.363 193.312 264.942 193.888C264.766 194.157 264.668 194.471 264.659 194.793C264.651 195.115 264.732 195.433 264.894 195.712C265.348 196.278 265.955 196.702 266.644 196.932C268.122 197.465 269.641 197.878 271.186 198.166C271.959 198.335 272.739 198.512 273.512 198.722C274.297 198.891 275.037 199.226 275.681 199.705C274.998 199.305 274.242 199.045 273.458 198.939C272.685 198.79 271.898 198.674 271.112 198.559C269.515 198.369 267.939 198.028 266.406 197.542C265.571 197.297 264.826 196.811 264.264 196.145C263.998 195.743 263.857 195.272 263.857 194.789C263.857 194.307 263.998 193.836 264.264 193.433C264.762 192.697 265.471 192.127 266.298 191.799C267.067 191.46 267.875 191.221 268.705 191.088V191.989C267.549 191.821 266.458 191.353 265.539 190.633C265.041 190.222 264.701 189.652 264.576 189.02C264.475 188.396 264.563 187.756 264.827 187.182C265.102 186.653 265.486 186.188 265.953 185.818C266.42 185.447 266.961 185.18 267.539 185.033C268.613 184.71 269.734 184.571 270.854 184.619L270.698 185.413C269.634 184.958 267.634 183.487 267.952 181.223C268.773 178.395 274.447 179.101 275.478 179.304Z" fill="#263238"/>
<path d="M275.526 179.385C275.059 179.052 274.643 178.652 274.292 178.199C274.147 178.018 274.052 177.803 274.018 177.574C273.983 177.346 274.01 177.112 274.095 176.897C274.351 176.453 274.73 176.093 275.187 175.86C275.675 175.582 276.204 175.31 276.76 175.053C276.138 175.01 275.515 175.098 274.929 175.31C274.267 175.513 273.711 175.968 273.383 176.578C273.237 176.93 273.204 177.319 273.288 177.69C273.382 178.035 273.57 178.347 273.831 178.592C274.298 179.029 274.891 179.307 275.526 179.385Z" fill="#263238"/>
<path d="M158.503 151.452C161.405 152.503 169.602 174.565 165.086 175.06C143.851 177.372 128.935 169.744 125.586 167.174C121.192 163.784 122.06 156.937 124.65 154.401C128.4 150.726 155.628 150.408 158.503 151.452Z" fill="#936F6A"/>
<path d="M190.572 152.143C191.501 154.591 189.372 156.266 189.372 156.266C190.402 157.058 191.121 158.185 191.406 159.452C191.813 161.71 188.45 163.337 188.45 163.337C189.352 164.38 189.919 165.67 190.077 167.039C190.254 169.242 187.094 171.371 187.094 171.371C187.392 172.789 187.171 174.266 186.47 175.534C184.47 178.843 178.558 178.924 174.802 179.019C171.046 179.114 160.306 175.853 158.198 175.439L157.398 151.343C157.398 151.343 174.124 146.136 178.558 146.658C182.307 147.126 189.528 149.404 190.572 152.143Z" fill="#936F6A"/>
<path d="M189.196 155.886C185.338 154.469 181.27 154.265 177.223 153.852C177.134 153.852 177.121 153.981 177.223 153.994C181.257 154.374 185.155 155.547 189.162 156.089C189.189 156.094 189.217 156.087 189.239 156.071C189.261 156.055 189.276 156.031 189.281 156.004C189.285 155.977 189.279 155.95 189.263 155.927C189.247 155.905 189.223 155.89 189.196 155.886Z" fill="#263238"/>
<path d="M188.382 163.025C187.475 162.788 186.54 162.671 185.602 162.679C184.613 162.618 183.623 162.584 182.626 162.564C180.642 162.514 178.655 162.514 176.666 162.564C176.578 162.564 176.558 162.707 176.666 162.707C178.646 162.754 180.626 162.835 182.599 162.964L185.569 163.188C186.496 163.324 187.434 163.358 188.369 163.29C188.396 163.28 188.419 163.263 188.437 163.241C188.454 163.218 188.464 163.191 188.465 163.162C188.467 163.133 188.46 163.105 188.445 163.081C188.43 163.056 188.408 163.037 188.382 163.025Z" fill="#263238"/>
<path d="M187.026 171.364C186.204 171.163 185.353 171.104 184.511 171.188C183.602 171.188 182.701 171.188 181.799 171.188C179.989 171.188 178.178 171.141 176.375 171.053C176.287 171.053 176.266 171.188 176.375 171.195C178.212 171.29 180.05 171.412 181.887 171.493L184.599 171.602C185.42 171.704 186.253 171.663 187.06 171.48C187.074 171.446 187.067 171.378 187.026 171.364Z" fill="#263238"/>
<path d="M131.939 152.109C134.041 151.757 136.156 151.506 138.278 151.275C140.4 151.045 142.522 150.903 144.651 150.787C146.78 150.672 148.916 150.631 151.052 150.658C153.187 150.686 155.323 150.814 157.459 151.018H157.296C159.703 150.286 162.116 149.621 164.544 148.984C166.971 148.346 169.405 147.736 171.873 147.221C173.1 146.97 174.341 146.74 175.588 146.577C175.9 146.529 176.219 146.509 176.538 146.475C176.855 146.439 177.174 146.423 177.494 146.428C178.129 146.423 178.765 146.473 179.392 146.577C181.882 146.98 184.291 147.783 186.524 148.957C184.249 147.917 181.827 147.232 179.344 146.923C178.731 146.837 178.112 146.805 177.494 146.828C177.187 146.833 176.881 146.858 176.578 146.902C176.266 146.936 175.961 146.963 175.656 147.024C174.429 147.221 173.202 147.479 171.988 147.763C167.113 148.869 162.293 150.258 157.486 151.655H157.425H157.357C155.255 151.438 153.133 151.296 151.011 151.248C148.889 151.201 146.767 151.208 144.644 151.248C140.423 151.388 136.188 151.675 131.939 152.109Z" fill="#263238"/>
<path d="M135.77 150.719C136.148 150.66 136.532 150.637 136.915 150.652C137.679 150.651 138.441 150.733 139.187 150.896C139.564 150.972 139.934 151.084 140.292 151.228C139.526 151.194 138.773 151.126 138.02 151.052C137.268 150.977 136.522 150.869 135.77 150.719Z" fill="#263238"/>
<path d="M123.525 185.63C121.165 193.006 113.687 198.308 113.687 198.308C113.687 198.308 104.975 195.467 100.541 189.121C96.832 183.826 97.6862 177.372 101.958 175.338C108.06 172.429 111.45 183.338 111.45 183.338C111.45 183.338 111.395 171.927 118.108 172.89C122.752 173.568 125.484 179.473 123.525 185.63Z" fill="#FFC727"/>
<path d="M110.514 157.974C105.449 160.598 98.7981 159.479 98.7981 159.479C98.7981 159.479 95.7336 153.472 96.7167 147.858C97.537 143.173 101.334 140.251 104.615 141.41C109.314 143.072 105.388 150.496 105.388 150.496C105.388 150.496 111.294 144.516 114.29 148.509C116.406 151.309 114.758 155.811 110.514 157.974Z" fill="#FFC727"/>
<path d="M69.1154 149.607C66.8373 150.543 64.0168 149.811 64.0168 149.811C64.0168 149.811 62.9252 147.099 63.5625 144.726C64.0914 142.746 65.8338 141.627 67.2034 142.251C69.1628 143.146 67.2034 146.19 67.2034 146.19C67.2034 146.19 69.9764 143.844 71.1155 145.675C71.868 146.95 71.0138 148.828 69.1154 149.607Z" fill="#FFC727"/>
<path d="M62.0439 128.528C62.1862 130.99 60.5726 133.417 60.5726 133.417C60.5726 133.417 57.664 133.566 55.5961 132.21C53.8943 131.057 53.4061 129.044 54.4435 127.952C55.9283 126.393 58.1657 129.254 58.1657 129.254C58.1657 129.254 56.8097 125.864 58.9454 125.389C60.4438 125.037 61.9286 126.481 62.0439 128.528Z" fill="#FFC727"/>
<path d="M63.6372 112.636C62.5774 113.029 61.4287 113.116 60.3218 112.887C59.8783 111.847 59.735 110.703 59.9082 109.585C60.2133 108.283 61.3253 107.551 62.227 107.89C63.522 108.426 62.3084 110.46 62.3084 110.46C62.3084 110.46 64.0576 108.866 64.8373 110.033C65.3865 110.839 64.8576 112.087 63.6372 112.636Z" fill="#FFC727"/>
<path d="M72.8375 118.284C72.2391 118.504 71.5911 118.554 70.9663 118.426C70.7171 117.841 70.635 117.198 70.729 116.568C70.8985 115.829 71.529 115.402 72.0375 115.613C72.7697 115.911 72.085 117.057 72.085 117.057C72.085 117.057 73.0681 116.162 73.5155 116.819C73.8206 117.294 73.5223 117.972 72.8375 118.284Z" fill="#FFC727"/>
<path d="M88.2891 156.862C87.6907 157.083 87.0427 157.132 86.4178 157.004C86.1681 156.419 86.0883 155.775 86.1873 155.147C86.3568 154.408 86.9874 153.981 87.4959 154.191C88.2281 154.489 87.5433 155.635 87.5433 155.635C87.5433 155.635 88.5264 154.74 88.9671 155.398C89.279 155.852 88.9807 156.55 88.2891 156.862Z" fill="#FFC727"/>
<path d="M70.5121 100.934C70.1523 101.459 69.6518 101.873 69.0679 102.127C68.5274 101.802 68.0883 101.332 67.8001 100.771C67.7223 100.639 67.6736 100.492 67.6573 100.339C67.6411 100.186 67.6575 100.032 67.7057 99.8864C67.7538 99.7407 67.8325 99.607 67.9365 99.4941C68.0404 99.3813 68.1673 99.2919 68.3086 99.232C69.0815 99.0558 69.19 100.385 69.19 100.385C69.19 100.385 69.4679 99.0829 70.2137 99.3609C70.3427 99.4393 70.4537 99.5439 70.5396 99.668C70.6256 99.792 70.6845 99.9327 70.7126 100.081C70.7408 100.229 70.7374 100.382 70.7029 100.529C70.6683 100.676 70.6033 100.814 70.5121 100.934Z" fill="#FFC727"/>
<path d="M73.3665 105.524C72.9918 105.655 72.5878 105.679 72.2004 105.592C72.0522 105.224 72.01 104.823 72.0783 104.432C72.1936 103.978 72.5868 103.72 72.8987 103.856C73.353 104.053 72.8987 104.758 72.8987 104.758C72.8987 104.758 73.5225 104.209 73.7869 104.622C73.9903 104.907 73.7937 105.341 73.3665 105.524Z" fill="#FFC727"/>
<path d="M81.3193 130.23C81.0753 130.541 80.7486 130.776 80.3769 130.908C80.0534 130.681 79.8017 130.366 79.6514 130C79.6106 129.915 79.5879 129.823 79.5847 129.729C79.5816 129.634 79.5981 129.541 79.6332 129.453C79.6682 129.366 79.7211 129.287 79.7885 129.221C79.8558 129.155 79.9361 129.104 80.0243 129.071C80.5125 128.99 80.526 129.824 80.526 129.824C80.526 129.824 80.7498 129.024 81.204 129.227C81.2818 129.282 81.3471 129.353 81.3957 129.435C81.4442 129.517 81.4749 129.608 81.4858 129.703C81.4967 129.798 81.4875 129.894 81.4588 129.984C81.4301 130.075 81.3826 130.159 81.3193 130.23Z" fill="#FFC727"/>
<path d="M110.446 166.449C110.201 166.758 109.874 166.992 109.504 167.127C109.179 166.899 108.926 166.584 108.771 166.219C108.622 165.778 108.812 165.344 109.151 165.29C109.639 165.208 109.646 166.042 109.646 166.042C109.646 166.042 109.877 165.242 110.324 165.446C110.402 165.5 110.468 165.571 110.517 165.652C110.567 165.734 110.598 165.825 110.609 165.92C110.621 166.015 110.612 166.111 110.584 166.202C110.556 166.293 110.509 166.377 110.446 166.449Z" fill="#FFC727"/>
<path d="M75.3868 93.4216C75.1991 93.7646 74.9198 94.0486 74.58 94.242C74.2225 94.0703 73.9197 93.8027 73.7054 93.4691C73.6505 93.3914 73.6127 93.3031 73.5942 93.2098C73.5757 93.1165 73.5771 93.0204 73.5982 92.9277C73.6193 92.835 73.6597 92.7477 73.7167 92.6716C73.7737 92.5955 73.8461 92.5323 73.9291 92.486C74.3901 92.33 74.5393 93.164 74.5393 93.164C74.5393 93.164 74.6342 92.3436 75.1088 92.486C75.1897 92.5279 75.2613 92.5857 75.3193 92.656C75.3773 92.7262 75.4206 92.8074 75.4466 92.8947C75.4725 92.9821 75.4806 93.0737 75.4703 93.1643C75.4601 93.2548 75.4317 93.3423 75.3868 93.4216Z" fill="#FFC727"/>
<path d="M68.6271 163.14C68.3296 163.706 67.8784 164.176 67.3253 164.496C66.7486 164.226 66.2599 163.798 65.9151 163.262C65.8233 163.14 65.7588 162.999 65.726 162.849C65.6932 162.7 65.6929 162.545 65.725 162.395C65.7571 162.246 65.821 162.105 65.9122 161.982C66.0035 161.859 66.1201 161.757 66.2541 161.683C66.9999 161.418 67.2507 162.727 67.2507 162.727C67.2507 162.727 67.3863 161.405 68.1592 161.601C68.6881 161.73 68.9322 162.449 68.6271 163.14Z" fill="#FFC727"/>
<path d="M73.1561 130.583C72.373 131.399 71.3772 131.979 70.2814 132.258C69.4384 131.521 68.8145 130.566 68.4779 129.498C68.1796 128.19 68.844 127.017 69.8339 126.962C71.2374 126.874 71.034 129.234 71.034 129.234C71.034 129.234 71.9086 127.037 73.1222 127.742C73.9494 128.21 74.0104 129.552 73.1561 130.583Z" fill="#FFC727"/>
<path d="M91.3266 189.501C90.5516 190.324 89.5598 190.912 88.4654 191.196C87.6085 190.463 86.9743 189.505 86.6348 188.43C86.323 187.128 86.9806 185.948 87.9569 185.88C89.3536 185.786 89.1706 188.138 89.1706 188.138C89.1706 188.138 90.0248 185.941 91.2452 186.633C92.0995 187.128 92.208 188.484 91.3266 189.501Z" fill="#FFC727"/>
<path d="M117.843 164.91C116.714 164.943 115.598 164.659 114.623 164.09C114.54 162.963 114.775 161.835 115.301 160.835C115.979 159.696 117.294 159.323 118.013 159.967C119.07 160.889 117.274 162.422 117.274 162.422C117.274 162.422 119.436 161.473 119.809 162.829C120.074 163.771 119.179 164.754 117.843 164.91Z" fill="#FFC727"/>
<path d="M89.6519 166.829C89.4011 170.592 86.4857 173.975 86.4857 173.975C86.4857 173.975 82.038 173.649 79.1972 171.168C76.8242 169.1 76.4852 165.947 78.2548 164.49C80.804 162.395 83.6788 167.161 83.6788 167.161C83.6788 167.161 82.3228 161.778 85.6043 161.445C87.8756 161.215 89.8553 163.689 89.6519 166.829Z" fill="#FFC727"/>
<path d="M90.8519 143.343C88.6213 146.38 84.3499 147.675 84.3499 147.675C84.3499 147.675 80.7701 145.011 79.6988 141.397C78.8106 138.38 80.2073 135.525 82.4922 135.254C85.7669 134.854 85.6178 140.407 85.6178 140.407C85.6178 140.407 87.3602 135.132 90.3095 136.617C92.3639 137.634 92.7164 140.8 90.8519 143.343Z" fill="#FFC727"/>
<path d="M90.8519 143.343C88.6213 146.38 84.3499 147.675 84.3499 147.675C84.3499 147.675 80.7701 145.011 79.6988 141.397C78.8106 138.38 80.2073 135.525 82.4922 135.254C85.7669 134.854 85.6178 140.407 85.6178 140.407C85.6178 140.407 87.3602 135.132 90.3095 136.617C92.3639 137.634 92.7164 140.8 90.8519 143.343Z" fill="#FFC727"/>
<path d="M120.006 143.343C117.775 146.38 113.504 147.675 113.504 147.675C113.504 147.675 109.917 145.011 108.853 141.397C107.965 138.38 109.355 135.525 111.639 135.254C114.914 134.854 114.765 140.407 114.765 140.407C114.765 140.407 116.514 135.132 119.464 136.617C121.511 137.634 121.857 140.8 120.006 143.343Z" fill="#FFC727"/>
</svg>
