<svg width="136" height="122" viewBox="0 0 136 122" fill="none" xmlns="http://www.w3.org/2000/svg">
<path d="M95.006 103.615C95.006 103.649 76.4411 103.678 53.5459 103.678C30.6508 103.678 12.0822 103.649 12.0822 103.615C12.0822 103.58 30.6417 103.551 53.5459 103.551C76.4501 103.551 95.006 103.578 95.006 103.615Z" fill="#344147"/>
<path d="M31.0624 59.2358H28.3569C27.5846 59.2388 26.8381 59.6102 26.2502 60.2839C25.6622 60.9576 25.2707 61.89 25.1455 62.9154L22.9695 80.9714C22.8619 81.8555 22.8985 82.7605 23.0769 83.6236C23.2552 84.4868 23.571 85.2874 24.0023 85.9699C24.4336 86.6524 24.9701 87.2004 25.5746 87.576C26.179 87.9516 26.837 88.1458 27.5028 88.145H84.0788C84.48 88.1437 84.8756 88.019 85.2354 87.7803C85.5953 87.5416 85.9097 87.1953 86.1547 86.7678C86.3998 86.3404 86.5689 85.8432 86.6491 85.3143C86.7293 84.7854 86.7185 84.2388 86.6175 83.7164C86.4714 82.9597 86.143 82.2895 85.6836 81.8109C85.2242 81.3323 84.6598 81.0722 84.0788 81.0714C83.2518 81.0712 82.4456 80.7216 81.7741 80.0719C81.1026 79.4222 80.5996 78.5053 80.3361 77.4504L76.8454 63.5156C76.5764 62.4405 76.0651 61.505 75.3826 60.839C74.7001 60.173 73.8804 59.8096 73.0374 59.7995L31.0624 59.2358Z" fill="#455A64"/>
<path d="M29.8311 93.1396L28.2028 103.612H29.7387L31.5901 93.1396H29.8311Z" fill="#344147"/>
<path d="M83.3408 93.1396L85.0326 103.612H83.4786L81.58 93.1396H83.3408Z" fill="#344147"/>
<path d="M76.8509 93.1396L78.3505 102.79H76.7983L75.0919 93.1396H76.8509Z" fill="#E0E0E0"/>
<path d="M24.1754 93.1396L22.5361 103.612H24.0901L25.9361 93.1396H24.1754Z" fill="#344147"/>
<path d="M19.3501 81.1007V91.9099C19.3508 92.3252 19.4124 92.7361 19.5313 93.1193C19.6502 93.5025 19.8241 93.8503 20.0431 94.143C20.2621 94.4356 20.5218 94.6672 20.8074 94.8245C21.093 94.9819 21.3988 95.0619 21.7074 95.0599H84.4161C84.7247 95.0619 85.0305 94.9819 85.3161 94.8245C85.6017 94.6672 85.8614 94.4356 86.0804 94.143C86.2994 93.8503 86.4733 93.5025 86.5922 93.1193C86.7111 92.7361 86.7727 92.3252 86.7734 91.9099L86.6773 83.0942L19.3501 81.1007Z" fill="#455A64"/>
<path d="M78.1782 68.808L78.0622 68.9275L77.7177 69.2691C77.569 69.4253 77.3749 69.5936 77.1428 69.7913C77.0268 69.8913 76.9035 70.0036 76.7675 70.1109L76.3268 70.4452C75.5666 71.0102 74.7697 71.4806 73.9459 71.8506C72.8547 72.3444 71.7258 72.6718 70.5804 72.8266C69.1884 73.0049 67.7849 72.9228 66.4097 72.5826C64.9264 72.2093 63.4141 71.4432 61.8673 70.5428C60.3205 69.6424 58.7085 68.6298 56.9423 67.971C53.2782 66.586 49.3973 66.6283 45.7504 68.093C43.9951 68.8031 42.3685 69.762 40.7819 70.533C39.1952 71.3041 37.6375 71.9043 36.1379 72.0946C35.414 72.1885 34.6848 72.1819 33.9619 72.0751C33.2959 71.9649 32.6421 71.7478 32.0144 71.4285C31.4456 71.1379 30.8919 70.7964 30.357 70.4062C29.8475 70.0475 29.3778 69.6742 28.9335 69.357C28.1844 68.7721 27.403 68.2656 26.5962 67.8417C26.0827 67.5886 25.5509 67.4087 25.0095 67.3049L24.5834 67.2586C24.4873 67.2586 24.4383 67.239 24.4383 67.239C24.4383 67.239 24.4873 67.239 24.5834 67.239C24.6795 67.239 24.8245 67.2537 25.0113 67.2708C25.5562 67.3646 26.0919 67.5381 26.6089 67.788C27.4222 68.2048 28.2103 68.7057 28.9662 69.2862C29.4105 69.6132 29.8837 69.9718 30.3933 70.3281C30.927 70.7127 31.4789 71.0502 32.0452 71.3382C32.6674 71.6533 33.315 71.8687 33.9746 71.98C34.692 72.0802 35.4151 72.0802 36.1325 71.98C37.6249 71.7872 39.1771 71.2016 40.7565 70.4135C42.3359 69.6254 43.9643 68.6762 45.7286 67.9613C49.3917 66.4862 53.291 66.4439 56.9713 67.8393C58.7484 68.503 60.3586 69.5302 61.9072 70.4208C63.4558 71.3114 64.9572 72.0922 66.4297 72.4655C67.7966 72.8024 69.1914 72.8845 70.5749 72.7095C71.7159 72.5588 72.8409 72.2388 73.9296 71.7555C74.7523 71.3909 75.5492 70.9279 76.3105 70.372L76.753 70.045C76.889 69.9377 77.0123 69.8279 77.1283 69.7303C77.3622 69.5375 77.5581 69.3692 77.7086 69.2179L78.0586 68.8885C78.1365 68.8446 78.1782 68.808 78.1782 68.808Z" fill="#E0E0E0"/>
<path d="M86.2875 78.058L86.1061 77.9897C85.9919 77.9506 85.8269 77.8603 85.602 77.7945C84.9497 77.5715 84.2803 77.4519 83.6074 77.4382C82.5418 77.4285 81.4794 77.5924 80.4431 77.9262C79.071 78.3779 77.7221 78.9484 76.4048 79.6342C74.9287 80.3467 73.3112 81.1739 71.4888 81.6326C70.5476 81.8749 69.5875 81.9569 68.631 81.8766C67.6182 81.7695 66.6179 81.5059 65.6499 81.0909C63.6552 80.2784 61.695 78.9559 59.5444 78.0433C58.4516 77.5774 57.3253 77.2674 56.1843 77.1186C55.0088 76.9687 53.826 76.9507 52.6483 77.0649C50.2602 77.2796 47.9608 77.9091 45.7576 78.546C44.6533 78.8632 43.5708 79.1926 42.5045 79.4878C41.4383 79.7831 40.3902 80.0344 39.362 80.232C38.3599 80.4305 37.351 80.5608 36.3392 80.6224C35.846 80.6615 35.3618 80.6541 34.8885 80.6566C34.4152 80.659 33.9402 80.6224 33.4796 80.5517C31.7637 80.3723 30.0839 79.7944 28.5147 78.8437C27.7984 78.4045 27.1528 77.8921 26.5345 77.4333C25.9573 76.9887 25.3602 76.5926 24.7466 76.2475C23.7673 75.6651 22.68 75.495 21.6276 75.7595C21.2466 75.8597 20.8796 76.0392 20.5396 76.2914C20.2922 76.4794 20.0657 76.7135 19.8669 76.9868C19.7444 77.1546 19.6356 77.3394 19.5423 77.5383C19.4788 77.6725 19.4444 77.7408 19.4444 77.7408C19.4444 77.7408 19.4734 77.6676 19.5332 77.5309C19.6242 77.3289 19.7312 77.1407 19.8524 76.9697C20.0504 76.6903 20.2777 76.4511 20.5269 76.2597C20.8657 76.0003 21.2329 75.815 21.6149 75.7107C22.6741 75.435 23.7705 75.5984 24.7592 76.1792C25.3766 76.5219 25.9774 76.9163 26.5581 77.3601C27.1782 77.8164 27.8274 78.3239 28.5382 78.7607C30.1019 79.6985 31.7742 80.2656 33.4814 80.437C33.9402 80.5053 34.408 80.5102 34.8849 80.537C35.3618 80.5639 35.8442 80.537 36.3356 80.5004C37.3442 80.4436 38.3501 80.3182 39.3493 80.1247C40.3757 79.927 41.422 79.6733 42.4864 79.3805C43.5508 79.0877 44.6334 78.7534 45.7377 78.4337C47.9463 77.7945 50.2493 77.1625 52.6465 76.9478C53.8291 76.8332 55.0167 76.852 56.197 77.0039C57.3443 77.1527 58.4767 77.4643 59.5752 77.9335C61.7367 78.8534 63.6951 80.1759 65.6789 80.9884C66.6402 81.4031 67.6338 81.6667 68.6401 81.7741C69.5899 81.8529 70.5433 81.7709 71.478 81.5301C73.2913 81.0763 74.9088 80.2564 76.3867 79.5513C77.7066 78.8682 79.0587 78.3033 80.434 77.8603C81.4754 77.5298 82.5429 77.3716 83.6128 77.3894C84.2865 77.4081 84.9561 77.5351 85.6075 77.7676C85.8341 77.8384 85.9973 77.9335 86.1116 77.9775L86.2875 78.058Z" fill="#E0E0E0"/>
<path d="M73.0211 59.5701L72.9323 59.6823L72.6621 60.0019C72.5406 60.1337 72.3828 60.2923 72.1961 60.4753C72.0093 60.6583 71.7826 60.8462 71.5161 61.0341C70.8732 61.5 70.1914 61.8612 69.4851 62.1101C68.5489 62.4361 67.5885 62.6202 66.6219 62.6591C65.4523 62.7005 64.2822 62.619 63.1221 62.4151C61.8691 62.2175 60.5418 61.9271 59.1328 61.7124C58.431 61.605 57.7075 61.5221 56.9695 61.4928C56.2315 61.4635 55.4735 61.4928 54.7065 61.5684C53.1247 61.7463 51.551 62.0355 49.9918 62.4346C48.3834 62.8201 46.813 63.2203 45.2771 63.5009C43.8073 63.7675 42.3266 63.9101 40.8435 63.9279C38.3306 63.9471 35.8235 63.6028 33.3653 62.9007C31.7086 62.4283 30.0801 61.7922 28.4929 60.9975C28.2137 60.8535 27.9634 60.7315 27.7494 60.6144L27.2054 60.3094L26.8754 60.1215L26.7648 60.0532C26.7648 60.0532 26.8047 60.0703 26.879 60.1093L27.2127 60.2874L27.7567 60.5802C27.9707 60.6925 28.2209 60.812 28.502 60.9511C30.0913 61.7262 31.7195 62.3484 33.3744 62.8128C35.8304 63.4981 38.3336 63.8294 40.8417 63.801C42.3217 63.7792 43.7994 63.635 45.2662 63.3691C46.7913 63.0861 48.3598 62.686 49.97 62.298C51.5343 61.9002 53.1128 61.6119 54.6992 61.4342C55.4699 61.3561 56.2278 61.3415 56.9713 61.361C57.7148 61.3805 58.4383 61.4781 59.1473 61.5855C60.5563 61.8027 61.8836 62.0979 63.1366 62.3004C64.2926 62.5119 65.4591 62.6016 66.6255 62.5688C67.5878 62.5351 68.5444 62.3583 69.4779 62.0418C70.1792 61.8019 70.8571 61.4522 71.4979 60.9999C71.7645 60.8169 71.9857 60.6193 72.1815 60.4533C72.3774 60.2874 72.5261 60.1215 72.6512 59.9922L72.925 59.6823C72.9885 59.6018 73.0211 59.5701 73.0211 59.5701Z" fill="#E0E0E0"/>
<path d="M86.5758 89.7383C86.5758 89.7383 86.5177 89.7115 86.4071 89.6529L85.9157 89.3967C85.6999 89.282 85.4225 89.1844 85.1015 89.0454C84.9383 88.9819 84.7588 88.9356 84.5702 88.8746L84.2765 88.7843C84.1749 88.7574 84.0679 88.7379 83.9591 88.716C82.9051 88.4851 81.8348 88.4188 80.7695 88.5183C79.358 88.6487 77.958 88.9484 76.5861 89.4138C75.0538 89.9018 73.4146 90.6094 71.643 91.3268C69.8713 92.0441 67.9601 92.7761 65.8893 93.1299C64.8299 93.3213 63.759 93.3703 62.6924 93.2763C61.5793 93.169 60.4818 92.8638 59.4284 92.3686C57.2759 91.3682 55.2776 89.6602 53.1488 88.1914C52.0984 87.452 50.9998 86.8444 49.8666 86.376C49.591 86.2516 49.3045 86.1759 49.0253 86.0783C48.746 85.9807 48.4613 85.9148 48.1766 85.866C47.6138 85.7505 47.0465 85.678 46.4775 85.6489C44.2163 85.5464 42.0439 86.0588 40.0384 86.7664C38.0328 87.474 36.1651 88.3792 34.3953 89.1137C32.7626 89.8359 31.0879 90.3729 29.3887 90.7192C27.9817 90.9834 26.5543 90.9834 25.1473 90.7192C24.0821 90.5213 23.0437 90.1169 22.0646 89.5187C21.4514 89.1327 20.8718 88.6564 20.3365 88.0986C19.9738 87.6985 19.8052 87.474 19.8052 87.474C19.8052 87.474 19.8524 87.5228 19.943 87.6253C20.0337 87.7278 20.1661 87.8864 20.3492 88.0767C20.8867 88.626 21.4674 89.094 22.0809 89.4724C23.0558 90.0611 24.0885 90.458 25.1473 90.6509C26.5492 90.9041 27.9704 90.8951 29.3705 90.624C31.0655 90.2721 32.7358 89.7318 34.3645 89.0088C36.1288 88.2768 37.9911 87.3691 40.0076 86.6493C42.024 85.9295 44.1982 85.4293 46.4721 85.5196C47.0442 85.5482 47.6145 85.6215 48.1802 85.7392C48.4686 85.7855 48.7496 85.8782 49.0361 85.949C49.3226 86.0198 49.6055 86.1247 49.8848 86.2491C51.0256 86.723 52.1316 87.3372 53.1887 88.084C55.3248 89.548 57.3176 91.256 59.4574 92.2588C60.5037 92.7513 61.5939 93.0549 62.6996 93.1616C63.76 93.2567 64.8248 93.2101 65.8784 93.0226C67.9401 92.6712 69.8478 91.9392 71.6194 91.234C73.391 90.5289 75.0357 89.8115 76.5698 89.3333C77.9464 88.8739 79.3506 88.5799 80.7658 88.4549C81.8354 88.3601 82.9095 88.4338 83.9664 88.6745C84.0752 88.6989 84.1804 88.7184 84.2819 88.7452L84.5775 88.8404C84.7588 88.9038 84.9401 88.9502 85.1088 89.0161C85.4297 89.16 85.7072 89.2601 85.923 89.3796L86.4108 89.6505L86.5758 89.7383Z" fill="#E0E0E0"/>
<path d="M82.144 72.3094H83.232C84.1469 72.3139 85.0232 72.8061 85.669 73.6782C86.3148 74.5504 86.6773 75.7313 86.6773 76.9624V84.6094C86.6773 85.0513 86.6127 85.4888 86.487 85.897C86.3613 86.3053 86.1771 86.6762 85.9449 86.9886C85.7127 87.3011 85.4371 87.5489 85.1337 87.718C84.8303 87.8871 84.5051 87.9742 84.1767 87.9742H83.0887C81.9177 87.9742 80.7946 87.3482 79.9665 86.234C79.1385 85.1197 78.6733 83.6085 78.6733 82.0328V76.9624C78.6733 76.3499 78.7631 75.7435 78.9377 75.1778C79.1123 74.6122 79.3681 74.0985 79.6906 73.6662C80.0131 73.2339 80.3958 72.8915 80.8168 72.6586C81.2378 72.4258 81.6888 72.3071 82.144 72.3094Z" fill="#455A64"/>
<path d="M22.8081 72.3093H23.8961C24.8132 72.3093 25.6928 72.7996 26.3413 73.6722C26.9898 74.5448 27.3541 75.7283 27.3541 76.9624V87.9741H23.7655C22.5945 87.9741 21.4714 87.3482 20.6433 86.2339C19.8153 85.1197 19.3501 83.6085 19.3501 82.0327V76.9624C19.3501 75.7283 19.7144 74.5448 20.3629 73.6722C21.0114 72.7996 21.891 72.3093 22.8081 72.3093Z" fill="#455A64"/>
<path d="M27.7929 81.1982H27.9289H28.3279L29.8601 81.186H35.5014C40.2632 81.186 46.8438 81.23 54.1098 81.2934L72.7201 81.4349L78.3614 81.4691L79.8936 81.4813H80.2926C80.3832 81.4813 80.4286 81.4813 80.4286 81.4813H80.2926H79.8936H78.3614L72.7146 81.4959C67.9528 81.4959 61.3722 81.452 54.1044 81.391L35.5014 81.2519L29.8601 81.2202L28.3279 81.2056H27.9289L27.7929 81.1982Z" fill="#344147"/>
<path d="M27.3505 95.0599C27.3483 95.0373 27.3483 95.0143 27.3505 94.9916C27.3505 94.9412 27.3505 94.8753 27.3505 94.794C27.3505 94.611 27.3414 94.3548 27.336 94.0327C27.3269 93.3617 27.3142 92.4052 27.2997 91.2316C27.2689 88.8672 27.2344 85.5976 27.1619 81.9913C27.1148 80.1906 27.1003 78.4655 26.9189 76.9258C26.8411 76.1971 26.6809 75.4886 26.4438 74.825C26.2325 74.2522 25.9215 73.7567 25.5372 73.3805C24.9948 72.8 24.3502 72.4176 23.6658 72.2703C23.5588 72.2517 23.4509 72.2443 23.343 72.2484C23.2506 72.2484 23.1617 72.2703 23.1073 72.2825L22.9659 72.3313L22.9169 72.3435C22.9169 72.3435 22.9314 72.3435 22.9622 72.3191L23.1037 72.2557C23.1671 72.241 23.2469 72.2215 23.3412 72.2093C23.4513 72.2017 23.5617 72.2057 23.6712 72.2215C24.3634 72.3543 25.0175 72.7296 25.568 73.3098C25.9646 73.6883 26.2869 74.1906 26.5073 74.7738C26.752 75.4445 26.9178 76.1623 26.9987 76.9015C27.18 78.4557 27.2036 80.1808 27.2508 81.984C27.3233 85.5927 27.3469 88.8599 27.3614 91.2242C27.3614 92.4003 27.3614 93.3544 27.3614 94.0254C27.3614 94.3499 27.3614 94.6036 27.3614 94.7891C27.3614 94.8696 27.3614 94.9355 27.3614 94.9867C27.3595 95.0115 27.3559 95.0361 27.3505 95.0599Z" fill="#344147"/>
<path d="M23.2669 76.4207C23.2669 76.4329 23.1835 76.4207 23.0438 76.4891C22.847 76.5759 22.6736 76.7388 22.5452 76.9575C22.4583 77.1063 22.3964 77.2786 22.3638 77.4626C22.327 77.6727 22.3345 77.8924 22.3856 78.097C22.4377 78.3358 22.5414 78.5484 22.6835 78.7078C22.8255 78.8672 22.9996 78.9663 23.1835 78.9924C23.3675 79.0186 23.553 78.9706 23.7167 78.8546C23.8804 78.7387 24.0148 78.5599 24.1028 78.341C24.1853 78.1553 24.2279 77.9425 24.2261 77.7261C24.223 77.5371 24.1889 77.3513 24.1264 77.182C24.0372 76.9309 23.8946 76.7211 23.7166 76.5793C23.5878 76.4817 23.5062 76.4573 23.5081 76.4451C23.5099 76.4329 23.5298 76.4451 23.5697 76.4451C23.6263 76.4629 23.6812 76.49 23.7329 76.5257C23.9275 76.6583 24.0861 76.87 24.1862 77.1308C24.2574 77.3109 24.2977 77.5101 24.3041 77.7139C24.31 77.9508 24.266 78.1851 24.1772 78.3898C24.0826 78.6305 23.9368 78.8277 23.7583 78.9561C23.5799 79.0845 23.377 79.1383 23.1758 79.1105C22.9745 79.0827 22.784 78.9746 22.6286 78.8002C22.4733 78.6257 22.3603 78.3927 22.304 78.1312C22.2496 77.9061 22.2446 77.6646 22.2895 77.4358C22.3292 77.2393 22.4003 77.0569 22.498 76.9014C22.6382 76.674 22.8289 76.5132 23.042 76.4427C23.1011 76.4215 23.1622 76.4116 23.2234 76.4134C23.2524 76.4134 23.2669 76.4159 23.2669 76.4207Z" fill="#344147"/>
<path d="M22.5488 81.2519C22.4993 81.1507 22.4705 81.0337 22.4654 80.9128C22.4334 80.6241 22.4477 80.3297 22.5071 80.049C22.5651 79.7681 22.6678 79.5075 22.8081 79.2853C22.9187 79.1194 23.0058 79.0413 23.0112 79.0559C22.8317 79.3649 22.692 79.7121 22.5978 80.0832C22.5324 80.4662 22.5158 80.8614 22.5488 81.2519Z" fill="#344147"/>
<path d="M21.9504 78.585C21.9268 78.5704 21.9504 78.4166 22.0646 78.2849C22.1789 78.1531 22.2859 78.1214 22.2949 78.1556C22.304 78.1897 22.2188 78.2654 22.1281 78.3776C22.0374 78.4898 21.974 78.5996 21.9504 78.585Z" fill="#344147"/>
<path d="M25.5444 78.4094C25.5317 78.4094 25.4737 78.3338 25.3631 78.2313C25.2177 78.1012 25.0521 78.0177 24.8789 77.9873C24.7047 77.956 24.5275 77.9777 24.3603 78.0507C24.2334 78.1093 24.159 78.1727 24.15 78.1557C24.1409 78.1386 24.2044 78.0532 24.3313 77.9678C24.5055 77.8634 24.6981 77.8271 24.8869 77.8629C25.0758 77.8987 25.2533 78.0052 25.3994 78.1703C25.5136 78.2899 25.5535 78.3997 25.5444 78.4094Z" fill="#344147"/>
<path d="M33.3653 59.2675C33.3129 59.2834 33.2595 59.2932 33.2058 59.2968C33.1006 59.3139 32.9464 59.3309 32.747 59.3431C32.348 59.3749 31.7696 59.3627 31.0588 59.37C30.2263 59.357 29.3976 59.5217 28.6035 59.858C28.1388 60.0577 27.7413 60.4716 27.4811 61.0267C27.2278 61.6448 27.0647 62.3222 27.0005 63.0227C26.6778 65.9141 26.3858 68.5297 26.1718 70.4378C26.063 71.3772 25.9742 72.1458 25.9107 72.6826C25.8781 72.9388 25.8527 73.1413 25.8346 73.2926C25.8285 73.3638 25.8175 73.434 25.8019 73.5025C25.8023 73.4305 25.8071 73.3586 25.8164 73.2877C25.8309 73.1365 25.8491 72.9339 25.8744 72.6753C25.9307 72.1312 26.0086 71.365 26.1047 70.4256C26.306 68.5249 26.5853 65.9019 26.908 63.0031C26.9729 62.2856 27.141 61.5919 27.4031 60.9609C27.5388 60.6625 27.7161 60.4023 27.9253 60.1947C28.1255 60.0025 28.3454 59.8504 28.5781 59.7433C29.379 59.4135 30.2143 59.261 31.0515 59.2919C31.766 59.2919 32.3426 59.3187 32.7397 59.2919L33.1985 59.2699C33.254 59.2628 33.3098 59.262 33.3653 59.2675Z" fill="#344147"/>
<path d="M80.4286 81.1007C80.4032 81.1007 80.1783 79.583 79.9281 77.6969C79.6778 75.8108 79.4947 74.2809 79.5201 74.2809C79.5455 74.2809 79.7703 75.7986 80.0206 77.6847C80.2708 79.5708 80.4539 81.0958 80.4286 81.1007Z" fill="#344147"/>
<path d="M80.7096 95.0599C80.7074 95.0372 80.7074 95.0143 80.7096 94.9916L80.7006 94.7939C80.7006 94.6109 80.6861 94.3572 80.6752 94.0351C80.6589 93.3665 80.6335 92.4174 80.6027 91.2486C80.5501 88.8843 80.4775 85.6366 80.3996 82.0474C80.3629 80.3561 80.4144 78.6635 80.5537 76.9819C80.5919 76.6034 80.6452 76.2279 80.7133 75.8571C80.7749 75.5051 80.8661 75.1637 80.9853 74.8396C81.0438 74.6856 81.1111 74.538 81.1866 74.398C81.2629 74.2667 81.3446 74.1412 81.4314 74.0222C81.5964 73.8011 81.7788 73.6048 81.9754 73.4366C82.5642 72.9132 83.2668 72.6717 83.97 72.751C84.1571 72.7811 84.3402 72.8459 84.514 72.9437L84.6464 73.0316L84.6899 73.0633C84.459 72.9284 84.2146 72.8396 83.9646 72.7998C83.2749 72.7438 82.5907 72.9941 82.0171 73.5123C81.8277 73.6796 81.6526 73.8743 81.4948 74.093C81.4102 74.2076 81.3314 74.3299 81.2591 74.459C81.1859 74.5944 81.1216 74.7381 81.0669 74.8884C80.8465 75.5572 80.7063 76.2687 80.6516 76.9966C80.5174 78.6737 80.4684 80.3613 80.5047 82.0474C80.5736 85.6366 80.6353 88.8794 80.6861 91.2486C80.7042 92.4174 80.7187 93.369 80.7278 94.0375C80.7278 94.3572 80.7278 94.6109 80.7278 94.7939V94.9916C80.7246 95.0156 80.7185 95.0386 80.7096 95.0599Z" fill="#344147"/>
<path d="M83.727 76.7916C83.727 76.7916 83.6436 76.7916 83.504 76.8623C83.3067 76.948 83.133 77.1111 83.0053 77.3308C82.9192 77.4792 82.8574 77.6506 82.824 77.8335C82.787 78.0435 82.7946 78.2633 82.8458 78.4679C82.8979 78.7067 83.0016 78.9192 83.1436 79.0787C83.2857 79.2381 83.4597 79.3371 83.6437 79.3633C83.8276 79.3894 84.0132 79.3414 84.1769 79.2255C84.3405 79.1095 84.4749 78.9307 84.563 78.7119C84.6464 78.5276 84.6892 78.3152 84.6863 78.0994C84.6832 77.9096 84.6491 77.723 84.5866 77.5529C84.4969 77.3022 84.3543 77.0926 84.1767 76.9502C84.0498 76.8526 83.9664 76.8306 83.97 76.8184C83.9737 76.8062 83.99 76.8184 84.0299 76.8184C84.0874 76.835 84.1429 76.8621 84.1949 76.8989C84.3588 77.0126 84.4976 77.1822 84.5975 77.3907C84.6974 77.5993 84.7549 77.8394 84.7643 78.0872C84.7714 78.3235 84.7273 78.5575 84.6373 78.7607C84.5424 79.0022 84.3957 79.1997 84.2163 79.3277C84.0369 79.4557 83.833 79.5083 83.6312 79.4785C83.4293 79.4488 83.2388 79.3382 83.0842 79.1611C82.9296 78.9839 82.8181 78.7484 82.7642 78.4849C82.7102 78.2598 82.7045 78.0188 82.7478 77.7895C82.7873 77.5917 82.8592 77.4083 82.9582 77.2527C83.0989 77.0263 83.2894 76.8657 83.5022 76.794C83.5613 76.7728 83.6224 76.7629 83.6835 76.7647C83.7125 76.7778 83.727 76.7867 83.727 76.7916Z" fill="#344147"/>
<path d="M83.009 81.6106C82.9594 81.5094 82.9307 81.3924 82.9255 81.2714C82.8935 80.9832 82.9076 80.689 82.967 80.4087C83.0265 80.1284 83.1298 79.8685 83.2701 79.6464C83.3789 79.478 83.4659 79.4024 83.4732 79.4146C83.2927 79.7239 83.1523 80.0721 83.0579 80.4443C82.9925 80.8265 82.976 81.2209 83.009 81.6106Z" fill="#344147"/>
<path d="M82.4105 78.9559C82.3888 78.9559 82.4214 78.7875 82.5248 78.6582C82.6281 78.5289 82.7478 78.4947 82.7551 78.5265C82.7623 78.5582 82.6789 78.6363 82.5901 78.7509C82.5012 78.8656 82.4359 78.973 82.4105 78.9559Z" fill="#344147"/>
<path d="M86.0046 78.7803C85.9937 78.7925 85.9357 78.7047 85.8232 78.6022C85.6779 78.4699 85.512 78.384 85.3382 78.351C85.1644 78.318 84.9873 78.3388 84.8205 78.4119C84.6917 78.4704 84.6192 78.5339 84.6101 78.5168C84.601 78.4997 84.6645 78.4143 84.7914 78.3289C84.9656 78.2243 85.1582 78.1878 85.3471 78.2236C85.536 78.2594 85.7136 78.3661 85.8595 78.5314C85.9737 78.6607 86.0136 78.773 86.0046 78.7803Z" fill="#344147"/>
<path d="M77.8405 33.8815C77.818 33.9588 77.8132 34.0434 77.8266 34.1244C77.84 34.2055 77.8711 34.2793 77.9159 34.3364C77.9607 34.3935 78.0171 34.4314 78.078 34.4451C78.1389 34.4588 78.2014 34.4478 78.2576 34.4134C78.4679 34.289 78.5078 33.9108 78.4806 33.6058C78.4534 33.3008 78.3881 32.9665 78.4951 32.6932C78.598 32.5031 78.7244 32.3381 78.8686 32.2052C78.9823 32.0661 79.0704 31.8935 79.1261 31.7009C79.1818 31.5082 79.2035 31.3009 79.1896 31.095C79.1715 30.8885 79.111 30.6928 79.015 30.5299C78.9189 30.367 78.791 30.2433 78.6456 30.1727C78.3482 30.0361 77.9729 30.1337 77.7607 29.8238C77.6066 29.5993 77.612 29.2504 77.4959 28.9893C77.3146 28.5818 76.9084 28.5013 76.5566 28.5257C76.2049 28.5501 75.8458 28.6892 75.5085 28.5501C75.2275 28.433 75.0044 28.1499 74.7451 27.9645C74.4615 27.7665 74.1392 27.6921 73.8227 27.7514C73.5062 27.8108 73.2113 28.001 72.9787 28.2957C72.7461 28.5905 72.5873 28.9752 72.5244 29.3967C72.4614 29.8182 72.4973 30.2557 72.6272 30.6485C72.7146 30.9364 72.8744 31.1739 73.0787 31.3195" fill="#344147"/>
<path d="M77.4923 41.9188L74.1757 41.5625C74.1558 41.0404 74.1757 39.0274 74.1757 39.0274C74.1757 39.0274 72.7976 38.737 72.7795 36.8826C72.7613 35.0282 73.0025 30.7655 73.0025 30.7655C73.7866 30.3129 74.6463 30.1498 75.4929 30.293C76.3394 30.4363 77.1423 30.8807 77.8187 31.5805L78.0218 31.7928L77.4923 41.9188Z" fill="#674C3F"/>
<path d="M72.9989 33.574C73.0206 33.6057 73.1567 33.4666 73.3471 33.4642C73.5375 33.4617 73.6753 33.5959 73.6952 33.5642C73.7152 33.5325 73.6843 33.491 73.6245 33.43C73.5442 33.35 73.447 33.3068 73.3471 33.3068C73.2471 33.3068 73.1499 33.35 73.0696 33.43C72.9989 33.5008 72.9826 33.5593 72.9989 33.574Z" fill="#344147"/>
<path d="M75.0552 33.7082C75.077 33.7399 75.213 33.6008 75.4015 33.5984C75.5901 33.5959 75.7298 33.7301 75.7515 33.6984C75.7733 33.6667 75.7406 33.6252 75.679 33.5642C75.5987 33.4845 75.5013 33.4425 75.4015 33.4447C75.3014 33.4466 75.2043 33.491 75.1241 33.5715C75.0661 33.635 75.0443 33.6935 75.0552 33.7082Z" fill="#344147"/>
<path d="M74.2936 35.8774C74.1958 35.8254 74.0922 35.7957 73.9871 35.7896C73.9364 35.7896 73.8983 35.7676 73.8947 35.731C73.8933 35.6646 73.9052 35.5988 73.9291 35.5407C73.9781 35.3699 74.0288 35.1991 74.0796 35.021C74.2223 34.5814 74.3316 34.1236 74.406 33.6546C74.377 33.6399 74.1866 34.2304 73.9799 34.9697C73.9291 35.1503 73.8838 35.3211 73.8366 35.4919C73.8048 35.5779 73.7952 35.6758 73.8094 35.77C73.8166 35.7955 73.828 35.8184 73.8428 35.837C73.8576 35.8557 73.8753 35.8695 73.8947 35.8774C73.9226 35.8863 73.9512 35.8912 73.9799 35.892C74.0843 35.9112 74.1904 35.9062 74.2936 35.8774Z" fill="#344147"/>
<path d="M74.1721 39.064C74.75 39.08 75.3183 38.8633 75.8041 38.4418C75.8041 38.4418 75.4197 39.6618 74.1721 39.5007V39.064Z" fill="#2C1D16"/>
<path d="M72.9807 31.2413C72.9807 31.2413 73.7877 31.8684 74.9174 31.2413C75.6572 30.8314 76.504 30.6802 76.6763 30.8924C76.8486 31.1047 76.8341 32.0978 77.5268 32.4589C77.5268 32.4589 77.3744 34.3426 77.9366 34.3328C78.4987 34.3231 78.3119 31.3585 78.3119 31.3585L76.9882 30.319L75.514 29.7896L74.0905 29.9164L72.9771 30.2092L72.9807 31.2413Z" fill="#344147"/>
<path d="M77.8604 33.7131C77.8822 33.7131 78.807 33.3374 78.7762 34.6062C78.7453 35.875 77.806 35.5822 77.806 35.5358C77.806 35.4894 77.8604 33.7131 77.8604 33.7131Z" fill="#674C3F"/>
<path d="M78.1052 35.0673C78.1052 35.0673 78.1215 35.0843 78.1487 35.1014C78.1884 35.1221 78.2324 35.1221 78.272 35.1014C78.3344 35.051 78.3856 34.9793 78.4207 34.8936C78.4557 34.8079 78.4733 34.7112 78.4715 34.6134C78.4765 34.5042 78.4629 34.3948 78.4316 34.2938C78.4244 34.2539 78.4098 34.2171 78.3892 34.1868C78.3686 34.1565 78.3426 34.1337 78.3138 34.1205C78.2949 34.1119 78.2744 34.1128 78.256 34.1232C78.2376 34.1335 78.2227 34.1525 78.214 34.1767C78.2013 34.2108 78.214 34.2377 78.2013 34.2377C78.1886 34.2377 78.1814 34.2157 78.1905 34.1645C78.1972 34.1334 78.2112 34.106 78.2303 34.0864C78.2566 34.0613 78.2891 34.0508 78.321 34.0571C78.3593 34.0699 78.3946 34.0954 78.4237 34.1312C78.4528 34.167 78.4749 34.2119 78.4878 34.2621C78.525 34.3739 78.5418 34.496 78.5368 34.6183C78.5385 34.7312 78.5155 34.8422 78.4707 34.9377C78.4259 35.0331 78.3612 35.1087 78.2847 35.1551C78.2591 35.1638 78.2323 35.1648 78.2063 35.158C78.1803 35.1513 78.1557 35.137 78.1342 35.1161C78.1052 35.099 78.1016 35.0697 78.1052 35.0673Z" fill="#2C1D16"/>
<path d="M78.4987 29.7774C78.4987 29.8164 78.3518 29.7993 78.1941 29.8676C78.0363 29.936 77.9293 30.0531 77.9058 30.0262C77.8822 29.9994 77.9729 29.8115 78.1633 29.7334C78.3537 29.6554 78.5096 29.7481 78.4987 29.7774Z" fill="#344147"/>
<path d="M77.9638 28.9819C78.0261 29.172 78.0358 29.3858 77.991 29.5846C77.942 29.9287 77.7807 30.1336 77.7625 30.1068C77.7444 30.0799 77.8459 29.8628 77.8876 29.5578C77.9293 29.2528 77.9312 28.9844 77.9638 28.9819Z" fill="#344147"/>
<path d="M73.969 32.5614C73.94 32.6321 73.7605 32.5614 73.5429 32.5614C73.3253 32.5614 73.1403 32.5882 73.1168 32.515C73.0932 32.4418 73.2799 32.271 73.5519 32.271C73.8239 32.271 73.9998 32.4979 73.969 32.5614Z" fill="#344147"/>
<path d="M75.9329 32.5614C75.9057 32.6321 75.7243 32.5614 75.5067 32.5614C75.2891 32.5614 75.106 32.5882 75.0806 32.515C75.0552 32.4418 75.2438 32.271 75.5158 32.271C75.7878 32.271 75.9637 32.4979 75.9329 32.5614Z" fill="#344147"/>
<path d="M75.2565 35.6333C75.193 35.6699 74.5112 36.0725 74.3806 36.1457C74.3806 36.1457 74.7016 37.0436 75.0697 36.8557C75.4813 36.6557 75.2565 35.6333 75.2565 35.6333Z" fill="#344147"/>
<path d="M75.3109 36.3507C75.2926 36.3093 75.2657 36.2761 75.2334 36.2552C75.2011 36.2344 75.165 36.2269 75.1295 36.2336C75.028 36.242 74.93 36.2876 74.8463 36.3654C74.7626 36.4432 74.6962 36.5504 74.6544 36.6752C74.7091 36.7765 74.7893 36.8476 74.88 36.8754C74.9707 36.9032 75.0658 36.8859 75.1477 36.8265C75.2067 36.7776 75.2536 36.7064 75.2827 36.6218C75.3117 36.5371 75.3215 36.4428 75.3109 36.3507Z" fill="#2C1D16"/>
<path d="M76.7289 34.0181C76.4962 34.1453 76.2525 34.2322 76.0036 34.2767C75.7608 34.362 75.511 34.4063 75.2601 34.4085C75.4934 34.2869 75.7371 34.205 75.9854 34.1645C76.2277 34.0736 76.4775 34.0244 76.7289 34.0181Z" fill="white"/>
<path d="M76.8069 34.4133C76.3322 34.6227 75.8401 34.7522 75.3417 34.7989C75.5745 34.6727 75.8182 34.5866 76.067 34.5426C76.3088 34.4588 76.5573 34.4154 76.8069 34.4133Z" fill="#028B42"/>
<path d="M61.3102 28.4378L62.7862 37.7293C62.8679 38.2487 63.0935 38.7068 63.4172 39.0103L68.3767 43.6634L69.9779 39.5154L65.5407 36.1214L63.6058 28.106L61.3102 28.4378Z" fill="#674C3F"/>
<path d="M61.6782 17.1162C61.6782 17.1162 60.3164 16.3061 59.6419 18.2191C59.6419 18.2191 58.0516 18.5948 57.9101 20.1711C57.9101 20.1711 56.8747 20.6347 56.4957 21.7229C55.9989 23.1503 56.726 25.6074 57.455 27.1397C58.1839 28.672 59.437 29.4992 59.4496 29.875C59.4678 31.7098 60.0462 31.7904 60.0462 31.7904L66.9967 29.6676C66.9967 29.6676 67.6659 28.8526 66.9967 27.84L66.9786 27.8132C66.8651 27.6456 66.7912 27.4365 66.7663 27.2122C66.7415 26.988 66.7667 26.7589 66.839 26.5541C67.2754 25.2843 67.3262 23.8353 66.9804 22.5159C66.6281 21.2827 66.2299 20.0742 65.7873 18.895L64.2405 10.0573C64.138 9.47308 63.869 8.96653 63.4914 8.64697C63.1138 8.32742 62.6579 8.22049 62.2222 8.34927C61.798 8.47621 61.426 8.8171 61.1828 9.30182C60.9396 9.78654 60.8437 10.3782 60.9148 10.9552L61.6782 17.1162Z" fill="#028B42"/>
<g opacity="0.3">
<path d="M61.6782 17.1162C61.6782 17.1162 60.3164 16.3061 59.6419 18.2191C59.6419 18.2191 58.0516 18.5948 57.9101 20.1711C57.9101 20.1711 56.8747 20.6347 56.4957 21.7229C55.9989 23.1503 56.726 25.6074 57.455 27.1397C58.1839 28.672 59.437 29.4992 59.4496 29.875C59.4678 31.7098 60.0462 31.7904 60.0462 31.7904L66.9967 29.6676C66.9967 29.6676 67.6659 28.8526 66.9967 27.84L66.9786 27.8132C66.8651 27.6456 66.7912 27.4365 66.7663 27.2122C66.7415 26.988 66.7667 26.7589 66.839 26.5541C67.2754 25.2843 67.3262 23.8353 66.9804 22.5159C66.6281 21.2827 66.2299 20.0742 65.7873 18.895L64.2405 10.0573C64.138 9.47308 63.869 8.96653 63.4914 8.64697C63.1138 8.32742 62.6579 8.22049 62.2222 8.34927C61.798 8.47621 61.426 8.8171 61.1828 9.30182C60.9396 9.78654 60.8437 10.3782 60.9148 10.9552L61.6782 17.1162Z" fill="black"/>
</g>
<path d="M61.0164 17.3114C61.0164 17.3114 59.6527 16.5014 58.9782 18.4143C58.9782 18.4143 57.3897 18.7901 57.2465 20.3541C57.2465 20.3541 56.211 20.8177 55.8321 21.906C55.337 23.3334 56.0623 25.7904 56.7913 27.3228C57.5203 28.8551 58.7751 29.6822 58.786 30.058C58.8041 31.8929 59.3844 31.9734 59.3844 31.9734L66.3349 29.8506C66.3349 29.8506 67.0022 29.0356 66.3349 28.023L66.3149 27.9962C66.2018 27.8289 66.1281 27.6202 66.1032 27.3964C66.0784 27.1727 66.1035 26.9441 66.1753 26.7396C66.6111 25.4694 66.6612 24.0205 66.3149 22.7014C65.9635 21.4677 65.5653 20.2591 65.1218 19.0804L63.5695 10.2574C63.4679 9.67306 63.1993 9.16612 62.8219 8.84642C62.4445 8.52672 61.9886 8.42001 61.5531 8.54939C61.1288 8.67524 60.7565 9.01552 60.5132 9.49999C60.2699 9.98447 60.1742 10.5761 60.2457 11.1529L61.0164 17.3114Z" fill="#028B42"/>
<path d="M62.1696 22.2134C62.1729 22.2838 62.1687 22.3545 62.1569 22.4232C62.1266 22.6217 62.0648 22.8089 61.9756 22.9722C61.9103 23.0913 61.8328 23.1972 61.7453 23.287C61.6412 23.4073 61.5166 23.4911 61.3827 23.531C61.2267 23.5561 61.0689 23.5124 60.9329 23.4065C60.7821 23.293 60.6452 23.1489 60.5268 22.9795C60.255 22.5872 60.0194 22.1521 59.825 21.6839C59.5799 21.1483 59.4177 20.5516 59.3481 19.9295C59.3124 19.5803 59.3521 19.2245 59.4623 18.9047C59.5205 18.7365 59.6045 18.5867 59.7089 18.4655C59.8236 18.3549 59.9538 18.2769 60.0916 18.2362C60.3697 18.1552 60.6561 18.1387 60.9384 18.1874C61.2312 18.2272 61.521 18.299 61.8052 18.4021L61.7489 18.4729C61.486 16.7868 61.2049 14.9422 60.8985 13.017C60.8133 12.4583 60.7172 11.9141 60.6464 11.3603C60.6185 11.0777 60.6446 10.7902 60.7224 10.525C60.8001 10.2598 60.9269 10.0258 61.0907 9.84501C61.247 9.66617 61.4359 9.54658 61.638 9.49855C61.84 9.45052 62.048 9.47578 62.2404 9.57173C62.5933 9.8001 62.8655 10.2058 62.9983 10.7015C63.1195 11.1573 63.2129 11.6257 63.2776 12.102C63.3538 12.5591 63.4275 13.0024 63.4988 13.4318C63.6403 14.2883 63.7726 15.0861 63.8941 15.8133C64.1317 17.2773 64.3257 18.4436 64.4599 19.2683C64.5233 19.6709 64.5741 19.9857 64.6086 20.2077C64.6249 20.3102 64.6358 20.3907 64.6448 20.4517C64.6498 20.479 64.6534 20.5067 64.6557 20.5347C64.6466 20.509 64.6399 20.482 64.6358 20.4541C64.6249 20.3931 64.6104 20.3126 64.5904 20.2101C64.5505 19.9905 64.4961 19.6758 64.4236 19.2756L63.8288 15.8303C63.7037 15.0983 63.5677 14.3053 63.4227 13.4513C63.3501 13.0219 63.2746 12.5794 63.196 12.124C63.1305 11.6554 63.0378 11.1944 62.9185 10.7454C62.7935 10.279 62.5377 9.89713 62.2059 9.68153C62.0287 9.59402 61.8373 9.57162 61.6515 9.61665C61.4657 9.66168 61.2921 9.77251 61.1487 9.93773C60.9978 10.1059 60.8811 10.3228 60.8094 10.5682C60.7378 10.8135 60.7135 11.0793 60.7389 11.3407C60.8151 11.8775 60.9076 12.4339 60.991 12.9902C61.2884 14.8934 61.5749 16.7453 61.836 18.4314L61.8505 18.5265L61.7798 18.4997C61.5016 18.398 61.2178 18.3262 60.9311 18.285C60.6581 18.2372 60.3811 18.2513 60.1115 18.3265C59.9852 18.3636 59.8656 18.4341 59.7597 18.5339C59.664 18.6446 59.5873 18.782 59.5349 18.9365C59.4275 19.2401 59.3884 19.5793 59.4224 19.9125C59.4902 20.5173 59.6468 21.0979 59.883 21.6205C60.0716 22.0847 60.3005 22.5172 60.5648 22.9088C60.806 23.2504 61.098 23.509 61.3754 23.4553C61.5009 23.4222 61.6185 23.3485 61.7181 23.2406C61.8051 23.1558 61.8827 23.0548 61.9484 22.9405C62.0391 22.7836 62.1052 22.6034 62.1424 22.411C62.1551 22.3461 62.1642 22.2801 62.1696 22.2134Z" fill="white"/>
<path d="M61.0472 23.4333C61.0472 23.4333 61.069 23.4651 61.0617 23.5334C61.0438 23.6289 61.0117 23.7185 60.9674 23.7969C60.8996 23.9204 60.8224 24.0341 60.7371 24.1361C60.6253 24.2793 60.4898 24.3846 60.3418 24.4435C59.9528 24.5499 59.5496 24.5111 59.1758 24.3313C59.0663 24.2853 58.9591 24.2299 58.8549 24.1653C58.7473 24.0908 58.6469 23.999 58.5557 23.8921C58.367 23.6711 58.2022 23.4157 58.0661 23.1332C57.7799 22.6014 57.6286 21.9598 57.6345 21.3032C57.6511 21.0098 57.748 20.735 57.9065 20.5322C58.0446 20.3649 58.2053 20.2348 58.3798 20.1491C58.6282 20.0295 58.8874 19.9548 59.1505 19.9271C59.2461 19.9101 59.3431 19.9101 59.4388 19.9271C59.4388 19.9271 59.3372 19.9441 59.1541 19.9807C58.8978 20.0262 58.6464 20.1122 58.4052 20.2369C58.2409 20.3238 58.0903 20.4512 57.9609 20.6127C57.8182 20.799 57.7328 21.0507 57.7215 21.3179C57.7224 21.9466 57.8709 22.559 58.1459 23.0673C58.277 23.3389 58.435 23.5851 58.6155 23.7993C58.7858 23.994 58.9848 24.1379 59.1994 24.2215C59.5578 24.4011 59.9452 24.4491 60.3219 24.3605C60.4614 24.3078 60.5903 24.2136 60.699 24.0848C60.785 23.9913 60.8634 23.8858 60.933 23.7701C60.9794 23.6987 61.0152 23.6158 61.0381 23.5261C61.0456 23.4962 61.0486 23.4647 61.0472 23.4333Z" fill="white"/>
<path d="M59.5639 24.4093C59.5687 24.4456 59.5687 24.4828 59.5639 24.5191C59.5548 24.5923 59.5421 24.6972 59.5204 24.8314C59.4681 25.2142 59.3765 25.5854 59.2484 25.9343C59.2254 25.9924 59.1981 26.0472 59.1668 26.0978C59.1319 26.1491 59.0923 26.1942 59.0489 26.232C58.9601 26.31 58.8645 26.3731 58.7642 26.4199C58.5436 26.5222 58.3098 26.5637 58.077 26.5419C57.8193 26.5247 57.5664 26.4419 57.3317 26.2979C57.0972 26.0949 56.9089 25.8086 56.7877 25.4707C56.5489 24.8404 56.3803 24.1662 56.2872 23.4699C56.2575 23.3105 56.2476 23.1456 56.2582 22.9819C56.274 22.8292 56.3064 22.6804 56.3543 22.5403C56.4404 22.2959 56.5482 22.0665 56.6753 21.8571C56.7333 21.7619 56.7859 21.6716 56.8475 21.5887C56.9051 21.5155 56.9698 21.4531 57.0397 21.4032C57.1509 21.3247 57.2692 21.2657 57.3915 21.2275C57.4674 21.2019 57.5443 21.1823 57.6218 21.169C57.6494 21.1621 57.6777 21.1621 57.7052 21.169C57.7052 21.169 57.5946 21.1983 57.4006 21.2763C57.1244 21.3675 56.8841 21.5959 56.7278 21.9156C56.6077 22.1221 56.5066 22.3474 56.4268 22.5866C56.3829 22.7167 56.3536 22.8549 56.3398 22.9965C56.3323 23.1484 56.3434 23.3009 56.3724 23.4479C56.4695 24.127 56.6374 24.7841 56.8711 25.3999C56.9859 25.7169 57.1619 25.9866 57.3806 26.1807C57.6027 26.3196 57.8418 26.4024 58.086 26.4247C58.3078 26.4484 58.5309 26.4127 58.7425 26.3198C58.9285 26.2588 59.0904 26.1054 59.1958 25.8904C59.3243 25.5499 59.4228 25.1904 59.4896 24.8192C59.5331 24.5484 59.5567 24.4093 59.5639 24.4093Z" fill="white"/>
<path d="M65.1653 24.6802C65.147 24.7026 65.1269 24.7222 65.1055 24.7388C65.0437 24.7887 64.9788 24.8312 64.9114 24.8657C64.6497 24.996 64.3727 25.0621 64.0936 25.0609C63.99 25.0547 63.8884 25.0204 63.7949 24.96C63.7014 24.8996 63.618 24.8144 63.5496 24.7095C63.3891 24.4686 63.262 24.1909 63.1743 23.8897C63.1215 23.7242 63.0779 23.5538 63.0437 23.3797C63.0036 23.2016 62.9457 23.0316 62.8714 22.8746C62.7944 22.7028 62.6924 22.5537 62.5715 22.4363C62.4506 22.3189 62.3133 22.2356 62.1679 22.1914L61.9376 22.1451C61.8527 22.121 61.7709 22.0808 61.6946 22.0255C61.5372 21.9068 61.4029 21.7396 61.3029 21.5375C61.1941 21.3326 61.1271 21.0928 61.1089 20.8421C61.0951 20.5755 61.1603 20.3123 61.2902 20.1101C61.4234 19.909 61.5935 19.7585 61.7834 19.6733C61.9746 19.5843 62.1731 19.5269 62.3746 19.5025C62.7936 19.4396 63.2178 19.4902 63.6222 19.6514C64.0455 19.8295 64.4336 20.1339 64.7573 20.542C65.0917 20.9633 65.3701 21.4585 65.5805 22.006C65.6904 22.2873 65.7843 22.5793 65.8616 22.8795C65.9373 23.1897 65.9747 23.5144 65.9722 23.8409C65.9718 24.1677 65.9524 24.4941 65.9142 24.8169C65.8961 24.9803 65.8779 25.1389 65.8544 25.3049C65.8267 25.47 65.7922 25.6329 65.751 25.7929C65.6803 26.0735 65.6077 26.3492 65.5479 26.6273C65.5185 26.7645 65.4949 26.9038 65.4772 27.0446C65.454 27.1683 65.4623 27.2989 65.5008 27.4155C65.6552 27.6261 65.7783 27.8746 65.8634 28.1475C65.9451 28.4251 65.9634 28.7292 65.916 29.021V29.0527H65.887L59.5548 30.951H59.5313L59.5186 30.9291C59.3969 30.7148 59.3165 30.4633 59.2847 30.1971C59.2746 30.0747 59.2588 29.9532 59.2375 29.8335C59.21 29.7213 59.1703 29.6152 59.1196 29.5187C58.9115 29.1667 58.6673 28.8562 58.3943 28.5964C58.1616 28.3456 57.9629 28.0427 57.8068 27.7009C57.6527 27.3984 57.5257 27.1105 57.4115 26.8494C57.1866 26.3272 57.0252 25.9124 56.9183 25.6294L56.7986 25.3049C56.7843 25.2676 56.7716 25.2293 56.7605 25.1902C56.7605 25.1902 56.7786 25.2268 56.8076 25.2975L56.9364 25.6147C57.0488 25.8953 57.2175 26.3053 57.4459 26.8347C57.562 27.0787 57.6925 27.3764 57.8467 27.6765C58.0028 28.0083 58.1996 28.302 58.4288 28.5452C58.7091 28.8081 58.9606 29.1227 59.1759 29.4797C59.2299 29.5841 59.2727 29.6983 59.3028 29.8189C59.3262 29.9415 59.3432 30.0663 59.3536 30.1922C59.3856 30.442 59.4614 30.6778 59.5748 30.8803L59.5403 30.8656L65.8689 28.9405L65.8344 28.9819C65.8762 28.7175 65.8585 28.4423 65.7836 28.1914C65.7035 27.9331 65.5864 27.6985 65.4391 27.5009C65.3811 27.3568 65.3656 27.1887 65.3956 27.0299C65.4133 26.8834 65.4375 26.7383 65.4681 26.5956C65.5298 26.3126 65.6023 26.0344 65.6712 25.7563C65.7112 25.6035 65.7451 25.4479 65.7728 25.2902C65.7945 25.1316 65.8127 24.9657 65.8308 24.8022C65.8689 24.486 65.8883 24.1661 65.8888 23.8457C65.8906 23.5321 65.8558 23.22 65.7855 22.921C65.7097 22.6274 65.6175 22.3419 65.5098 22.067C65.3056 21.5271 65.0339 21.0385 64.7065 20.6225C64.3857 20.2275 64.0016 19.937 63.5841 19.7734C63.1917 19.6156 62.7799 19.565 62.3728 19.6245C62.1782 19.6464 61.9863 19.7004 61.8016 19.7856C61.6242 19.8627 61.4649 20.0006 61.3392 20.1857C61.2238 20.3687 61.1665 20.6053 61.1796 20.8445C61.1965 21.0778 61.2591 21.3009 61.3609 21.4911C61.4547 21.6762 61.5788 21.8297 61.7236 21.9401C61.7938 21.991 61.8688 22.0287 61.9466 22.0523L62.1896 22.1011C62.3433 22.1494 62.4882 22.2392 62.6153 22.365C62.7425 22.4908 62.8494 22.6501 62.9295 22.8331C63.0087 22.996 63.0698 23.1735 63.1108 23.3602C63.1435 23.5265 63.1847 23.6895 63.2341 23.8482C63.3192 24.1437 63.4419 24.417 63.5968 24.6558C63.6596 24.7559 63.7368 24.838 63.8237 24.8971C63.9106 24.9562 64.0055 24.9912 64.1027 24.9999C64.3782 25.0064 64.6524 24.9486 64.9132 24.8291C64.9809 24.7986 65.0464 24.7602 65.1091 24.7144C65.1435 24.6973 65.1635 24.6778 65.1653 24.6802Z" fill="white"/>
<path d="M94.233 35.9481C94.0825 35.8115 92.7461 37.0778 92.7461 37.0778C93.0552 36.6146 93.3885 36.1816 93.7434 35.7822C94.1714 35.2942 94.0209 35.1405 94.0209 35.1405C93.7126 34.8818 92.3653 36.5166 92.3653 36.5166C92.5141 36.2377 92.679 35.975 92.8585 35.7309C93.0961 35.4308 93.2738 34.8745 93.145 34.8159C92.7969 34.6622 91.3643 37.0119 91.3643 37.0119C91.3643 37.0119 91.2265 37.2559 91.2447 36.3409C91.2628 35.4259 90.9563 35.504 90.9563 35.504C90.8305 36.137 90.6804 36.7609 90.5066 37.3731C90.445 37.5536 90.066 38.5931 89.9499 38.8907C89.2935 39.8228 86.1419 44.5296 86.1419 44.5296L85.0231 44.2563L83.431 48.5312L87.3623 49.6219C88.2853 49.5682 89.2337 48.3457 89.8701 46.1741L92.5394 39.5251C93.1541 38.332 93.961 37.5195 93.9393 37.2511C93.9121 36.9168 92.9057 37.9562 92.9057 37.9562C93.1269 37.4682 94.4833 36.175 94.233 35.9481Z" fill="#674C3F"/>
<path d="M90.9926 37.2339C90.9926 37.2193 91.1105 37.2632 91.2465 37.4365C91.4254 37.6654 91.5297 37.9803 91.5366 38.3124L91.4532 38.2709C91.6152 38.0221 91.835 37.8543 92.077 37.7951C92.1738 37.7549 92.2775 37.7549 92.3743 37.7951C92.3743 37.8171 92.2619 37.8122 92.0933 37.8732C91.8735 37.9537 91.6757 38.1181 91.5239 38.3466L91.4423 38.4661V38.3173C91.4344 38.0151 91.3485 37.7261 91.1993 37.4999C91.0851 37.3218 90.9853 37.251 90.9926 37.2339Z" fill="#2C1D16"/>
<path d="M81.9042 99.6809L82.392 101.269C82.392 101.269 84.8218 104.375 85.4239 104.073C85.8192 103.873 85.2117 103.058 84.131 100.537L83.8408 99.4637L81.9042 99.6809Z" fill="#028B42"/>
<path d="M85.4456 103.543C85.4447 103.562 85.4416 103.58 85.4365 103.597C85.4196 103.645 85.3948 103.688 85.364 103.722C85.3107 103.773 85.2481 103.804 85.1827 103.812C85.0994 103.818 85.0163 103.796 84.9415 103.746C84.5346 103.43 84.145 103.075 83.7755 102.685C83.4034 102.299 83.0468 101.887 82.7075 101.45C82.5769 101.282 82.4735 101.142 82.4046 101.045L82.3249 100.93C82.3152 100.918 82.3067 100.904 82.2995 100.889L82.3303 100.923L82.4155 101.03L82.7256 101.423C82.9904 101.752 83.3621 102.194 83.7991 102.643C84.1715 103.031 84.5615 103.387 84.9669 103.709C85.0265 103.758 85.0948 103.784 85.1645 103.784C85.2342 103.784 85.3026 103.758 85.3622 103.709C85.4017 103.666 85.4307 103.609 85.4456 103.543Z" fill="#344147"/>
<path d="M85.0285 102.47C85.0285 102.47 84.9633 102.47 84.8653 102.514C84.7392 102.569 84.6226 102.658 84.5226 102.775C84.4198 102.887 84.341 103.033 84.2941 103.199C84.2597 103.329 84.256 103.417 84.2506 103.414C84.243 103.338 84.2492 103.261 84.2687 103.19C84.3101 103.011 84.3903 102.853 84.499 102.736C84.6027 102.612 84.7272 102.524 84.8617 102.48C84.9156 102.456 84.9733 102.453 85.0285 102.47Z" fill="#344147"/>
<path d="M83.0194 102.043C83.0194 102.043 83.0194 101.918 83.0194 101.723C83.0126 101.468 82.9495 101.222 82.838 101.016C82.727 100.808 82.5703 100.653 82.3901 100.571C82.3139 100.544 82.2364 100.523 82.158 100.51C82.1796 100.506 82.2017 100.506 82.2233 100.51C82.2846 100.511 82.3456 100.522 82.4046 100.545C82.5945 100.62 82.7604 100.778 82.8761 100.994C82.9924 101.206 83.0559 101.462 83.0574 101.726C83.0581 101.807 83.0533 101.889 83.0429 101.97C83.038 101.996 83.03 102.02 83.0194 102.043Z" fill="#344147"/>
<path d="M82.0656 99.9347C82.141 100.084 82.1985 100.249 82.236 100.423C82.3085 100.711 82.3756 100.935 82.3684 100.94C82.2937 100.786 82.2374 100.617 82.2016 100.44C82.129 100.164 82.0656 99.942 82.0656 99.9347Z" fill="#344147"/>
<path d="M84.1944 100.781C84.1944 100.796 84.0802 100.816 83.9496 100.886C83.819 100.957 83.7266 101.05 83.7193 101.038C83.7809 100.954 83.8552 100.888 83.9372 100.846C84.0191 100.804 84.1068 100.786 84.1944 100.794V100.781Z" fill="#344147"/>
<path d="M84.2687 101.05C84.2687 101.064 84.1708 101.072 84.0638 101.133C83.9569 101.194 83.8825 101.279 83.8825 101.267C83.9283 101.187 83.9889 101.125 84.0584 101.087C84.1278 101.048 84.2035 101.036 84.2778 101.05H84.2687Z" fill="#344147"/>
<path d="M84.4718 101.374C84.3981 101.381 84.3251 101.399 84.2542 101.428C84.1898 101.473 84.1291 101.527 84.0729 101.589C84.062 101.589 84.1183 101.447 84.2434 101.382C84.2788 101.358 84.3176 101.346 84.357 101.344C84.3964 101.343 84.4356 101.353 84.4718 101.374Z" fill="#344147"/>
<path d="M84.0421 100.684C84.0194 100.69 83.9959 100.69 83.9732 100.684C83.9123 100.68 83.8517 100.67 83.7918 100.655C83.7003 100.634 83.6104 100.601 83.5235 100.557C83.4715 100.533 83.4206 100.504 83.3712 100.472C83.3408 100.456 83.3136 100.43 83.2919 100.398C83.2701 100.365 83.2544 100.326 83.246 100.284C83.2461 100.26 83.2499 100.237 83.2571 100.216C83.2643 100.195 83.2748 100.176 83.2879 100.161C83.3009 100.146 83.3162 100.135 83.3328 100.128C83.3493 100.121 83.3667 100.119 83.3838 100.123C83.4407 100.136 83.4938 100.17 83.538 100.22C83.6138 100.296 83.6864 100.378 83.7556 100.464C83.8154 100.535 83.8608 100.596 83.8898 100.637C83.9188 100.679 83.9351 100.708 83.9333 100.711C83.9315 100.713 83.8589 100.625 83.7393 100.491C83.6776 100.423 83.6033 100.347 83.518 100.269C83.4785 100.225 83.431 100.195 83.3802 100.184C83.3331 100.184 83.2769 100.223 83.2841 100.289C83.2914 100.354 83.3421 100.403 83.3875 100.435C83.4352 100.468 83.4842 100.497 83.5344 100.523C83.6199 100.567 83.7078 100.603 83.7973 100.63C83.9442 100.669 84.0421 100.676 84.0421 100.684Z" fill="#344147"/>
<path d="M83.9315 100.672C83.9315 100.672 83.9315 100.642 83.9188 100.589C83.9061 100.535 83.9079 100.459 83.9061 100.362C83.903 100.247 83.9115 100.132 83.9315 100.02C83.9452 99.9534 83.9653 99.8894 83.9913 99.8298C84.0045 99.7922 84.0267 99.7617 84.0543 99.7431C84.0819 99.7245 84.1134 99.7189 84.1436 99.7273C84.1702 99.7468 84.192 99.7764 84.2062 99.8124C84.2204 99.8484 84.2264 99.8892 84.2234 99.9298C84.2238 99.9992 84.2165 100.068 84.2017 100.135C84.1785 100.246 84.1411 100.351 84.091 100.445C84.0583 100.507 84.0212 100.565 83.9804 100.618C83.9514 100.657 83.9333 100.674 83.9315 100.672C83.9297 100.669 83.9913 100.584 84.0693 100.428C84.1131 100.334 84.1467 100.232 84.169 100.125C84.1807 100.063 84.1868 99.9989 84.1872 99.9347C84.1872 99.8713 84.1708 99.7981 84.1309 99.7785C84.091 99.759 84.0475 99.8054 84.0221 99.8591C83.9975 99.9139 83.9786 99.973 83.9659 100.035C83.9447 100.142 83.9337 100.253 83.9333 100.364C83.9315 100.552 83.9369 100.672 83.9315 100.672Z" fill="#344147"/>
<g opacity="0.4">
<path d="M82.392 101.269L82.1562 100.501C82.1562 100.501 82.6658 100.52 82.8525 100.989C82.9592 101.246 83.0259 101.53 83.0484 101.823L84.305 103.155C84.305 103.155 84.4864 102.389 85.0013 102.458C85.0013 102.458 85.5181 103.514 85.5453 103.802C85.5725 104.09 85.315 104.107 85.2208 104.073C84.8314 103.869 84.4652 103.593 84.1328 103.253C83.4709 102.587 82.7238 101.711 82.392 101.269Z" fill="black"/>
</g>
<path d="M73.0877 101.186L73.0787 98.9416L76.2012 98.8904L76.2411 102.172L76.0471 102.194C75.1858 102.272 71.6643 102.511 71.0858 102.284C70.4421 102.033 73.0877 101.186 73.0877 101.186Z" fill="#028B42"/>
<g opacity="0.4">
<path d="M75.1078 102.16C75.1513 101.804 75.2908 101.483 75.4995 101.257C75.7031 101.033 75.962 100.92 76.2248 100.94L76.2357 102.114L75.1078 102.16Z" fill="black"/>
</g>
<g opacity="0.4">
<path d="M71.7948 101.662C71.7948 101.662 70.8682 102.038 70.9861 102.243C71.1039 102.448 74.6708 102.384 76.2447 102.172V102.079L72.0849 102.199C72.0849 102.199 71.978 101.67 71.7948 101.662Z" fill="black"/>
</g>
<path d="M76.2847 102.077H76.2303L76.0761 102.092L75.5085 102.136C75.0298 102.167 74.368 102.199 73.6354 102.211C72.9028 102.223 72.2409 102.211 71.7604 102.211L71.1928 102.189H71.0387C71.0206 102.192 71.0023 102.192 70.9843 102.189H71.1856H71.7531C72.2337 102.189 72.8955 102.189 73.6281 102.189C74.3607 102.189 75.0208 102.15 75.5013 102.128L76.0689 102.101H76.223L76.2847 102.077Z" fill="#344147"/>
<path d="M72.0777 102.265C72.0525 102.138 72.016 102.016 71.9689 101.901C71.9112 101.796 71.8456 101.698 71.7731 101.611C71.8698 101.659 71.9504 101.753 71.9997 101.874C72.0609 101.987 72.0887 102.126 72.0777 102.265Z" fill="#344147"/>
<path d="M72.9989 101.618C72.9898 101.618 72.9463 101.555 72.8991 101.46C72.852 101.364 72.8175 101.269 72.8175 101.269C72.8175 101.269 72.8719 101.333 72.9173 101.428C72.9626 101.523 72.9989 101.611 72.9989 101.618Z" fill="#344147"/>
<path d="M73.2455 101.435C73.2455 101.435 73.1875 101.401 73.1331 101.338C73.0787 101.274 73.0406 101.213 73.0479 101.203C73.0551 101.194 73.1041 101.235 73.1585 101.299C73.2129 101.362 73.2509 101.423 73.2455 101.435Z" fill="#344147"/>
<path d="M73.4014 101.025C73.3494 101.052 73.2937 101.063 73.2382 101.057C73.1833 101.067 73.1274 101.06 73.075 101.035C73.1267 101.01 73.1817 101 73.2364 101.006C73.2918 100.996 73.3482 101.003 73.4014 101.025Z" fill="#344147"/>
<path d="M73.4522 100.755C73.3971 100.794 73.3365 100.819 73.2742 100.826C73.2119 100.834 73.1491 100.824 73.0895 100.798C73.1494 100.785 73.2101 100.778 73.2709 100.779C73.3306 100.763 73.3913 100.755 73.4522 100.755Z" fill="#344147"/>
<path d="M72.8846 101.255C72.818 101.27 72.75 101.27 72.6834 101.255C72.6108 101.245 72.5391 101.225 72.4694 101.196C72.4265 101.181 72.3851 101.159 72.3461 101.13C72.3221 101.112 72.304 101.082 72.2953 101.047C72.2919 101.028 72.2928 101.007 72.298 100.988C72.3031 100.969 72.3123 100.952 72.3243 100.94C72.4002 100.886 72.4877 100.871 72.5714 100.896C72.655 100.921 72.7294 100.985 72.7813 101.077C72.8129 101.129 72.8358 101.19 72.8484 101.255C72.8574 101.301 72.8574 101.328 72.8484 101.328C72.828 101.245 72.7967 101.167 72.7559 101.099C72.7094 101.03 72.6499 100.979 72.5836 100.952C72.5444 100.935 72.503 100.928 72.4619 100.933C72.4208 100.937 72.3808 100.953 72.3443 100.979C72.3116 101.011 72.3243 101.06 72.3606 101.089C72.3974 101.114 72.4356 101.135 72.4748 101.152C72.5424 101.182 72.6115 101.204 72.6815 101.221C72.8067 101.247 72.8846 101.245 72.8846 101.255Z" fill="#344147"/>
<path d="M72.8321 101.269C72.8078 101.213 72.7989 101.146 72.8067 101.081C72.8123 101.011 72.831 100.943 72.8611 100.884C72.8772 100.843 72.9009 100.809 72.9298 100.784C72.9587 100.759 72.9919 100.745 73.0261 100.742C73.0467 100.748 73.0649 100.764 73.0768 100.787C73.0887 100.81 73.0933 100.839 73.0896 100.867C73.0846 100.909 73.0735 100.95 73.0569 100.986C73.0304 101.046 72.9988 101.102 72.9626 101.152C72.932 101.202 72.8927 101.24 72.8484 101.264C72.8484 101.264 72.8883 101.216 72.9427 101.128C72.9742 101.077 73.0022 101.022 73.0261 100.964C73.0533 100.908 73.0714 100.803 73.0261 100.794C72.9808 100.784 72.9245 100.855 72.8937 100.911C72.8664 100.963 72.8478 101.023 72.8393 101.086C72.8331 101.147 72.8306 101.208 72.8321 101.269Z" fill="#344147"/>
<path d="M76.2103 100.928C76.2103 100.928 76.1196 100.928 75.98 100.942C75.7964 100.976 75.6229 101.075 75.4777 101.23C75.3361 101.39 75.2295 101.598 75.1694 101.833C75.1241 102.013 75.1205 102.135 75.1132 102.135C75.1102 102.107 75.1102 102.078 75.1132 102.05C75.1188 101.973 75.1297 101.897 75.1459 101.823C75.2005 101.576 75.3084 101.356 75.4559 101.191C75.6048 101.028 75.7868 100.928 75.9782 100.906C76.0355 100.899 76.0931 100.899 76.1504 100.906C76.1712 100.908 76.1914 100.916 76.2103 100.928Z" fill="#344147"/>
<path d="M75.8693 99.1831C75.8931 99.4707 75.9033 99.76 75.8999 100.049C75.9125 100.337 75.9125 100.625 75.8999 100.913C75.8652 100.339 75.8543 99.7617 75.8675 99.1855L75.8693 99.1831Z" fill="#344147"/>
<path d="M74.7125 101.757C74.5632 101.808 74.4095 101.832 74.2555 101.828C74.1025 101.84 73.949 101.826 73.7986 101.787C73.7986 101.772 74.0035 101.787 74.2555 101.787C74.5076 101.787 74.7107 101.74 74.7125 101.757Z" fill="#344147"/>
<path d="M75.3236 101.757C75.3236 101.757 75.3072 101.816 75.2873 101.877C75.2673 101.938 75.2565 101.996 75.2456 101.996C75.2347 101.996 75.2293 101.931 75.2456 101.857C75.2619 101.784 75.3163 101.733 75.3236 101.757Z" fill="#344147"/>
<path d="M75.5502 101.355C75.5502 101.355 75.5394 101.408 75.5067 101.452C75.4741 101.496 75.4433 101.526 75.436 101.516C75.4288 101.506 75.4469 101.462 75.4795 101.418C75.5122 101.374 75.5376 101.345 75.5502 101.355Z" fill="#344147"/>
<path d="M75.8784 101.172C75.8784 101.186 75.8349 101.186 75.7896 101.208C75.7443 101.23 75.7116 101.265 75.7026 101.255C75.6935 101.245 75.7207 101.186 75.7769 101.162C75.8331 101.138 75.8821 101.16 75.8784 101.172Z" fill="#344147"/>
<path d="M76.1142 101.084C76.1142 101.099 76.0997 101.121 76.0743 101.133C76.0489 101.145 76.0235 101.147 76.0199 101.133C76.0163 101.118 76.0344 101.099 76.0598 101.084C76.0852 101.069 76.1088 101.072 76.1142 101.084Z" fill="#344147"/>
<path d="M70.7939 61.0752L72.1248 100.635L77.0208 100.547L76.3082 68.3098L80.5732 100.354L85.3586 99.8492L80.2268 61.0752" fill="#344147"/>
<path d="M75.4977 61.6292C75.5152 61.716 75.5255 61.8052 75.5285 61.8951C75.5412 62.0659 75.5575 62.3172 75.5756 62.6271C75.6137 63.2444 75.6572 64.0911 75.7008 65.0378C75.7207 65.5063 75.7407 65.9528 75.7588 66.3652C75.7548 66.7223 75.7865 67.0785 75.8531 67.4242C75.879 67.5366 75.9214 67.641 75.9778 67.7311C76.0342 67.8211 76.1034 67.8952 76.1813 67.9487C76.2394 67.9825 76.3003 68.007 76.3626 68.0219C76.3626 68.0219 76.3445 68.0219 76.31 68.0219C76.2591 68.0211 76.2087 68.0079 76.1613 67.9829C76.0742 67.933 75.9957 67.8593 75.9308 67.7665C75.8659 67.6736 75.8159 67.5637 75.7842 67.4437C75.7066 67.092 75.6669 66.7271 75.6663 66.3603C75.6464 65.9479 75.6246 65.5014 75.601 65.0329C75.5575 64.0911 75.5249 63.2371 75.5049 62.6198C75.494 62.3123 75.4886 62.061 75.485 61.8878C75.4809 61.8012 75.4851 61.7143 75.4977 61.6292Z" fill="#455A64"/>
<path d="M75.9963 62.2074C75.9963 62.2244 75.9564 62.2659 75.951 62.3708C75.9496 62.3978 75.9523 62.4249 75.9588 62.4504C75.9654 62.476 75.9757 62.4995 75.9891 62.5197C76.0063 62.5397 76.0275 62.5524 76.0501 62.5563C76.0727 62.5602 76.0956 62.5551 76.116 62.5416C76.1377 62.5327 76.1567 62.515 76.1707 62.491C76.1846 62.467 76.1928 62.4379 76.194 62.4074C76.1937 62.3802 76.1893 62.3533 76.1808 62.3285C76.1724 62.3037 76.1602 62.2815 76.145 62.2635C76.0888 62.1952 76.0308 62.2098 76.0272 62.1903C76.0235 62.1708 76.0888 62.1171 76.1831 62.1903C76.2108 62.2126 76.2341 62.2436 76.2511 62.2805C76.2682 62.3174 76.2784 62.3592 76.281 62.4026C76.282 62.4597 76.2699 62.5159 76.2465 62.5635C76.2231 62.6112 76.1894 62.6481 76.15 62.6694C76.1106 62.6906 76.0672 62.6951 76.0258 62.6823C75.9845 62.6695 75.947 62.64 75.9184 62.5978C75.8976 62.5644 75.8832 62.5248 75.8763 62.4823C75.8693 62.4398 75.8701 62.3958 75.8785 62.3538C75.9147 62.2098 75.9963 62.1903 75.9963 62.2074Z" fill="#455A64"/>
<path d="M80.5732 63.242C80.4516 63.3505 80.3134 63.4206 80.1688 63.4469C79.82 63.5417 79.4579 63.4878 79.1329 63.2927C78.8079 63.0977 78.5362 62.7712 78.3555 62.3587C78.2733 62.1959 78.2205 62.0096 78.2013 61.8146C78.2176 61.8146 78.2666 62.0195 78.4135 62.3026C78.5999 62.6826 78.8631 62.9832 79.1721 63.1691C79.4811 63.3549 79.8231 63.4183 80.1579 63.3518C80.4154 63.3127 80.5677 63.22 80.5732 63.242Z" fill="#455A64"/>
<path d="M72.4857 61.6292C72.5095 61.7857 72.5033 61.9477 72.4676 62.1001C72.4028 62.4805 72.2505 62.8237 72.0324 63.0808C71.8143 63.338 71.5414 63.496 71.2527 63.5324C71.1355 63.5614 71.0147 63.5479 70.9027 63.4933C70.9027 63.4738 71.0369 63.4933 71.2436 63.4445C71.5126 63.3862 71.764 63.2271 71.9689 62.9854C72.1738 62.7438 72.324 62.4293 72.4023 62.0781C72.4658 61.8073 72.4694 61.6267 72.4857 61.6292Z" fill="#455A64"/>
<path d="M85.1156 44.0025L83.246 49.0216L79.8007 48.3165L79.6828 54.6995L80.6529 61.4827L70.3877 61.0752C70.3641 59.682 70.9788 46.3108 70.9788 46.3108L67.0656 43.6634L68.6469 38.2393L72.8683 40.6427C72.8683 40.6427 74.2483 40.8867 74.3734 40.9525C75.3723 41.4061 76.4532 41.4146 77.456 40.9769C77.9085 40.9961 78.3559 41.1114 78.7816 41.3185L85.1156 44.0025Z" fill="#028B42"/>
<path d="M75.3635 50.6589C76.411 50.6589 77.2602 49.5162 77.2602 48.1067C77.2602 46.6971 76.411 45.5544 75.3635 45.5544C74.3159 45.5544 73.4667 46.6971 73.4667 48.1067C73.4667 49.5162 74.3159 50.6589 75.3635 50.6589Z" fill="white"/>
<path d="M75.868 50.0504C76.6623 49.6499 77.065 48.4588 76.7673 47.39C76.4697 46.3211 75.5845 45.7793 74.7902 46.1798C73.9959 46.5803 73.5932 47.7714 73.8908 48.8402C74.1885 49.909 75.0737 50.4509 75.868 50.0504Z" fill="#028B42"/>
<path d="M77.8423 41.0185C77.8423 41.0185 77.8024 41.0795 77.719 41.1649C77.5997 41.2857 77.4722 41.3911 77.3382 41.4796C76.8837 41.7581 76.3862 41.8853 75.8875 41.8505C75.3938 41.805 74.9103 41.6397 74.4604 41.3625C74.3229 41.2801 74.1952 41.1707 74.0814 41.038C74.0375 40.99 74.0053 40.9254 73.989 40.8525C73.998 40.8525 74.0252 40.916 74.1068 40.9989C74.2243 41.114 74.3523 41.2083 74.4876 41.2795C74.9373 41.532 75.4143 41.6852 75.9002 41.7334C76.3826 41.7642 76.8641 41.6526 77.311 41.4064C77.6483 41.1966 77.8314 41.0014 77.8423 41.0185Z" fill="#344147"/>
<path d="M84.6731 43.7951C84.6985 43.8098 84.3485 44.9785 83.8952 46.4084C83.4419 47.8382 83.052 48.985 83.0284 48.9704C83.0048 48.9557 83.353 47.787 83.8081 46.3571C84.2633 44.9273 84.6495 43.7829 84.6731 43.7951Z" fill="white"/>
<path d="M70.948 47.4332C70.9317 47.4332 70.948 47.1892 70.9353 46.8207C70.9184 46.3344 70.8244 45.8585 70.6597 45.425C70.4846 44.9993 70.2507 44.6225 69.9706 44.3148C69.8487 44.1917 69.7319 44.0597 69.6206 43.9196C69.7627 44.0003 69.8948 44.1098 70.0123 44.2441C70.3121 44.5424 70.5597 44.9256 70.7377 45.3665C70.9115 45.8187 71.0006 46.3213 70.997 46.8305C70.9952 46.9816 70.9861 47.1324 70.9698 47.2819C70.9643 47.3746 70.9553 47.4332 70.948 47.4332Z" fill="#344147"/>
<path d="M80.9068 47.016C80.9177 47.0502 80.5985 47.238 80.283 47.6138C79.9675 47.9896 79.7844 48.3873 79.759 48.3678C79.8513 48.0323 80.0115 47.7382 80.2214 47.5186C80.4101 47.2676 80.6477 47.0933 80.9068 47.016Z" fill="#344147"/>
<path d="M68.8083 38.2758C68.8337 38.2758 68.5 39.5373 68.0666 41.0648C67.6332 42.5922 67.2597 43.822 67.2361 43.8098C67.2125 43.7976 67.5444 42.5483 67.9778 41.0208C68.4111 39.4934 68.7847 38.2636 68.8083 38.2758Z" fill="white"/>
<path d="M46.5664 46.8968C46.6616 46.612 46.672 46.2889 46.5954 45.994C46.4794 45.65 46.1947 45.4743 46.0151 45.1888C45.8861 44.948 45.7835 44.6834 45.7105 44.4032C45.6369 44.1221 45.4984 43.8801 45.3152 43.7126C45.235 43.6505 45.143 43.6217 45.0507 43.63C44.9584 43.6383 44.8699 43.6831 44.7966 43.759C44.811 43.4805 44.7639 43.2025 44.6613 42.9599C44.5587 42.7172 44.4052 42.5207 44.2199 42.395C43.7993 42.134 43.3024 42.2877 42.8781 42.539C42.4538 42.7903 42.0566 43.1344 41.6087 43.271C41.1609 43.4076 40.6676 43.3369 40.2959 43.6882C39.9767 43.9932 39.8371 44.5374 39.7791 45.0571C39.7211 45.5768 39.7229 46.116 39.5978 46.6162C39.4545 47.1994 39.1462 47.7289 39.1481 48.3413C39.1481 49.0538 39.5669 49.6199 39.8045 50.2616C39.6201 50.1428 39.4132 50.1024 39.2113 50.146C39.0094 50.1896 38.8223 50.3151 38.6748 50.5056C38.5149 50.7375 38.4005 51.0193 38.342 51.3256C38.2834 51.6319 38.2825 51.9531 38.3393 52.26C38.4155 52.7236 38.5914 53.1628 38.6004 53.6386C38.5925 53.931 38.5392 54.2179 38.4439 54.481C38.3487 54.744 38.2136 54.9774 38.0474 55.166C37.6218 55.6957 37.0751 56.0149 36.497 56.0712C36.234 56.0956 35.8986 56.1225 35.8097 56.4568C35.7873 56.5719 35.7929 56.6936 35.8255 56.8042C35.8581 56.9148 35.9161 57.0085 35.991 57.0716C36.1444 57.1905 36.3152 57.2629 36.4915 57.2839C36.1289 57.2498 35.846 57.8378 35.9475 58.3063C36.0154 58.5349 36.1376 58.7268 36.2951 58.8521C36.4525 58.9775 36.6363 59.0292 36.8179 58.9992C36.535 59.1774 36.5223 59.7654 36.7327 60.0753C36.8478 60.2175 36.9843 60.3246 37.1329 60.3895C37.2816 60.4543 37.4388 60.4753 37.594 60.451C38.809 60.3949 39.8698 59.1408 40.3376 57.628C40.8054 56.1152 40.7655 54.4023 40.5298 52.7968C40.5044 52.6162 40.4754 52.4381 40.45 52.2575C40.6689 52.4145 40.9025 52.5311 41.1445 52.604L44.7404 44.086L45.3333 49.981C45.5092 50.0826 45.7072 50.0902 45.8871 50.0022C46.067 49.9143 46.2153 49.7374 46.3017 49.5076C46.483 48.9757 46.2835 48.3486 46.3506 47.7728C46.4029 47.4727 46.4752 47.1796 46.5664 46.8968Z" fill="#344147"/>
<path d="M46.4213 65.3408L47.1466 60.9683L47.1593 61L49.5838 54.0436L47.1104 50.8887L45.103 55.371L43.899 55.1831C43.2216 55.0938 42.5391 55.0995 41.8626 55.2002C41.4999 55.3222 41.1137 55.4661 40.7129 55.6467C40.4953 55.2856 40.1037 55.2856 40.1037 55.6028L38.2613 51.7573L34.709 53.8704L38.4426 62.5177L38.9449 65.636C39.2496 66.7121 39.1263 68.1736 38.9449 69.296L38.1724 74.525L47.736 74.908C47.736 73.6124 46.2654 66.3339 46.4213 65.3408Z" fill="#028B42"/>
<path d="M40.6186 58.355C40.5995 57.7634 40.5283 57.177 40.4065 56.608C40.2543 56.0518 40.0514 55.5232 39.8026 55.0342C39.9067 55.1435 39.9957 55.2764 40.0656 55.427C40.2504 55.7758 40.3952 56.1599 40.4953 56.5665C40.5958 56.9737 40.6496 57.399 40.6549 57.828C40.6654 58.0052 40.6531 58.1834 40.6186 58.355Z" fill="#344147"/>
<path d="M40.1037 55.6027C40.1037 55.6027 40.1037 55.5564 40.1291 55.4929C40.1534 55.4509 40.1841 55.4164 40.2191 55.3916C40.2541 55.3667 40.2926 55.3522 40.3321 55.349C40.391 55.3458 40.4497 55.3594 40.5043 55.3888C40.559 55.4183 40.6085 55.4629 40.6495 55.5198C40.7445 55.6475 40.8279 55.79 40.8979 55.9443C41.0944 56.3248 41.2041 56.7743 41.2134 57.2375C41.1129 56.8138 40.9805 56.405 40.8181 56.0175C40.7522 55.8718 40.6757 55.7353 40.5896 55.61C40.5245 55.512 40.4333 55.4524 40.3358 55.4441C40.2692 55.4407 40.2042 55.4722 40.1544 55.532C40.1218 55.5686 40.1109 55.6052 40.1037 55.6027Z" fill="#344147"/>
<path d="M47.5383 57.8011C47.5655 57.8133 47.4168 58.5331 47.2881 59.4067C47.1593 60.2802 47.1068 61.0268 47.0705 61.0219C47.0531 60.8601 47.0531 60.6958 47.0705 60.5339C47.0955 60.1458 47.136 59.7597 47.192 59.3774C47.2472 58.9959 47.318 58.6187 47.4041 58.2477C47.4336 58.0913 47.4788 57.9411 47.5383 57.8011Z" fill="#344147"/>
<path d="M45.9426 57.7841C46.1366 58.9675 46.8982 59.8385 47.2119 60.9731C47.376 61.6141 47.3946 62.3062 47.2655 62.9614C47.1363 63.6167 46.8652 64.2054 46.4866 64.6527" fill="#028B42"/>
<path d="M43.7521 64.2697C43.7521 64.2697 43.7267 64.3233 43.6669 64.4014C43.581 64.5126 43.4868 64.6116 43.3858 64.6967C43.0517 64.9844 42.6662 65.1462 42.2697 65.1651C41.8733 65.184 41.4803 65.0593 41.1318 64.804C41.0271 64.7295 40.9281 64.6413 40.8363 64.5405C40.771 64.4673 40.7402 64.4209 40.7438 64.4136C40.7474 64.4063 40.8979 64.5551 41.1627 64.7259C41.5063 64.9497 41.8854 65.0569 42.2669 65.0382C42.6484 65.0195 43.0207 64.8754 43.3514 64.6186C43.607 64.4161 43.7412 64.2526 43.7521 64.2697Z" fill="#344147"/>
<path d="M47.1866 60.895C47.1055 60.754 47.0379 60.5999 46.9853 60.4363C46.8728 60.1411 46.7296 59.7287 46.59 59.2651C46.4503 58.8015 46.3397 58.3647 46.2726 58.0451C46.2282 57.8765 46.1996 57.7011 46.1874 57.5229C46.2503 57.6777 46.3002 57.8413 46.3361 58.0109C46.4195 58.3184 46.5374 58.7429 46.677 59.2065C46.9653 60.1435 47.2119 60.878 47.1866 60.895Z" fill="#344147"/>
<path d="M45.9698 65.8507C45.9698 65.8727 45.7069 65.9508 45.2916 66.146C44.7532 66.3996 44.2389 66.7379 43.7594 67.1537C43.2817 67.5718 42.8417 68.0631 42.4483 68.6177C42.1473 69.0471 41.9859 69.3497 41.9714 69.3302C41.9975 69.251 42.0317 69.177 42.073 69.1106C42.1736 68.9175 42.2826 68.7325 42.3994 68.5567C42.7824 67.974 43.2222 67.4635 43.7068 67.039C44.1923 66.6147 44.7189 66.2822 45.2717 66.0508C45.4383 65.9793 45.6078 65.9206 45.7794 65.8751C45.8416 65.8544 45.9058 65.8461 45.9698 65.8507Z" fill="#344147"/>
<path d="M44.8546 63.2789H42.1999V59.7068H44.8546V63.2789ZM42.3812 63.0349H44.6733V59.9508H42.3812V63.0349Z" fill="white"/>
<path d="M38.4844 52.2379C38.3284 52.3787 38.164 52.5019 37.9929 52.6064C37.6829 52.8186 37.2513 53.0944 36.7708 53.4042C36.2902 53.7141 35.8496 53.963 35.525 54.1362C35.3969 54.2044 35.2662 54.2631 35.1333 54.3119C35.0964 54.3278 35.0579 54.336 35.0191 54.3363C35.0092 54.3416 34.9981 54.3416 34.9883 54.3363C34.9883 54.3363 34.9883 54.3192 34.9883 54.3192C34.9883 54.3924 35.7771 53.8996 36.7327 53.3042L37.9657 52.5405C38.1316 52.419 38.3051 52.3177 38.4844 52.2379Z" fill="#FAFAFA"/>
<path d="M49.3734 54.656C49.2427 54.5071 49.1214 54.3439 49.0108 54.168L48.144 52.948L47.2609 51.7573C47.1302 51.6013 47.0089 51.4316 46.8982 51.2498C47.043 51.3785 47.1779 51.5265 47.3008 51.6914C47.5401 51.9793 47.8629 52.3892 48.2075 52.8602C48.552 53.3311 48.8476 53.7727 49.0579 54.0997C49.1759 54.2713 49.2815 54.4576 49.3734 54.656Z" fill="#FAFAFA"/>
<g opacity="0.1">
<path d="M45.7322 65.7458C45.8157 65.5531 45.6923 65.2944 45.5328 65.2285C45.3686 65.1859 45.1985 65.2167 45.0486 65.3164C44.2163 65.7458 43.442 66.4461 42.5553 66.5632C42.2688 66.5998 41.9786 66.5754 41.6903 66.5998C41.3999 66.6051 41.1163 66.7183 40.8707 66.9268C40.7496 67.0339 40.6529 67.1841 40.5914 67.3607C40.53 67.5373 40.5061 67.7334 40.5225 67.9272C40.5353 68.0218 40.5624 68.1119 40.602 68.1919C40.6416 68.2719 40.693 68.3402 40.7529 68.3926C40.8129 68.4449 40.8801 68.4802 40.9506 68.4962C41.0211 68.5123 41.0932 68.5088 41.1626 68.4859C41.2751 68.4323 41.402 68.3176 41.5017 68.4054C41.6522 68.5421 41.4872 68.8617 41.5344 69.0959C41.5497 69.1441 41.572 69.1877 41.6001 69.224C41.6282 69.2603 41.6614 69.2886 41.6978 69.3073C41.7341 69.3259 41.7729 69.3346 41.8119 69.3326C41.8508 69.3307 41.889 69.3182 41.9242 69.296C42.0651 69.1986 42.185 69.054 42.2724 68.8763C43.1682 67.3855 44.3396 66.4144 45.7322 65.7458Z" fill="black"/>
</g>
<g opacity="0.1">
<path d="M40.1417 55.632C40.3704 56.324 40.4052 57.1041 40.2397 57.828C40.1472 58.2208 39.9985 58.6258 40.0819 59.0187C40.1055 59.1334 40.1689 59.2627 40.2632 59.248C40.2956 59.2388 40.326 59.2197 40.3521 59.1922C40.3782 59.1647 40.3993 59.1295 40.4137 59.0894C40.6242 58.6035 40.6964 58.0312 40.6168 57.479C40.5354 56.9324 40.4057 56.4008 40.2306 55.8955" fill="black"/>
</g>
<g opacity="0.1">
<path d="M43.3387 57.3131C43.7295 57.1953 44.0993 56.9748 44.4267 56.6641C44.5884 56.516 44.7243 56.3224 44.8248 56.0965C44.9253 55.8707 44.9881 55.618 45.0087 55.3563L44.2743 55.2416L43.3387 57.3131Z" fill="black"/>
</g>
<path d="M38.1217 51.8988L37.2023 49.7321C37.0554 49.3829 36.9885 48.983 37.0101 48.5828L37.6176 37.4906L37.5614 37.5345C37.574 37.2275 37.5594 36.9195 37.5178 36.6171H37.4689C37.4751 36.5994 37.4787 36.5804 37.4798 36.5609C37.4798 36.3828 37.1534 34.9481 37.1534 34.9481C37.1534 34.9481 37.0935 34.7261 36.7907 34.7553C36.6094 34.7749 36.642 35.2433 36.642 35.2433C36.6398 35.2636 36.6398 35.2841 36.642 35.3043C36.642 35.3751 36.6656 35.4995 36.6892 35.6459C36.6511 35.4654 36.6221 35.3409 36.6221 35.3409C36.6221 35.3409 36.5622 35.1165 36.2594 35.1482C36.0781 35.1677 36.1125 35.6362 36.1125 35.6362C36.1125 35.6362 36.1125 35.6606 36.1125 35.6972C36.1259 35.8376 36.1453 35.9769 36.1705 36.1144C36.1252 35.9021 36.0908 35.7484 36.0908 35.7484C36.0908 35.7484 36.0291 35.5264 35.7281 35.5557C35.5468 35.5752 35.5794 36.0437 35.5794 36.0437C35.5794 36.0437 35.5794 36.0681 35.5794 36.1047C35.5936 36.2401 35.613 36.3745 35.6374 36.5073H35.6102C35.5957 36.4365 35.5848 36.3926 35.5848 36.3926C35.5848 36.3926 35.5232 36.1705 35.2222 36.1998C35.1243 36.1998 35.0898 36.3462 35.0771 36.4707C35.0728 36.5389 35.0728 36.6074 35.0771 36.6756C35.0771 36.6756 35.0771 36.7025 35.0771 36.7391C35.1202 37.0922 35.1808 37.4411 35.2584 37.7834C35.3219 38.2567 35.3944 38.7813 35.4525 39.2157L34.4025 48.8829C34.2502 50.2786 34.738 52.3795 35.2729 53.5946" fill="#A56959"/>
<path d="M35.8169 37.4686C35.7633 37.2917 35.7238 37.1077 35.6991 36.9196C35.6598 36.7384 35.6361 36.5517 35.6284 36.3633C35.6831 36.5388 35.7227 36.7222 35.7462 36.9098C35.7866 37.0915 35.8104 37.2792 35.8169 37.4686Z" fill="#7C4435"/>
<path d="M36.4371 37.4418C36.3494 37.1573 36.2814 36.8624 36.234 36.561C36.166 36.2665 36.118 35.9644 36.0908 35.6582C36.1772 35.9434 36.2452 36.2381 36.2939 36.539C36.3617 36.8336 36.4096 37.1357 36.4371 37.4418Z" fill="#7C4435"/>
<g opacity="0.78">
<path d="M37.0029 37.2027C36.9159 36.9186 36.8479 36.6246 36.7998 36.3243C36.7319 36.0298 36.684 35.7276 36.6565 35.4215C36.7433 35.7065 36.8113 36.0013 36.8596 36.3023C36.9274 36.5961 36.9753 36.8974 37.0029 37.2027Z" fill="#7C4435"/>
</g>
<path d="M35.7752 37.2905C35.7571 37.2905 35.7752 37.4222 35.7245 37.5857C35.7127 37.6288 35.6915 37.6662 35.6637 37.6927C35.6358 37.7193 35.6027 37.7339 35.5685 37.7345C35.5247 37.7199 35.4846 37.6895 35.4526 37.6465C35.4207 37.6035 35.3981 37.5496 35.3872 37.4905C35.3092 37.2197 35.2276 36.9684 35.1823 36.7903C35.1369 36.6121 35.1152 36.4901 35.1007 36.4926C35.0862 36.495 35.0862 36.6195 35.117 36.8147C35.1659 37.0636 35.2265 37.3081 35.2983 37.5467C35.3176 37.624 35.3524 37.6927 35.3987 37.7452C35.4451 37.7977 35.5014 37.832 35.5613 37.8444C35.6134 37.8433 35.6638 37.8187 35.7042 37.7744C35.7447 37.7301 35.7729 37.6688 35.7843 37.6004C35.8016 37.5212 35.8053 37.4377 35.7952 37.3564C35.7897 37.3173 35.7807 37.288 35.7752 37.2905Z" fill="#7C4435"/>
<path d="M38.1162 35.3165C38.5315 36.6585 39.1498 37.9176 40.0221 38.774C40.8943 39.6304 42.0439 40.0379 43.083 39.6451C43.743 39.4011 44.4248 38.8374 45.0667 39.1571C45.7087 39.4767 45.9317 40.4747 46.2454 41.2726C46.5281 42.0377 46.9839 42.6622 47.5474 43.0562C47.8293 43.2479 48.1416 43.3447 48.4574 43.3383C48.7732 43.3319 49.0832 43.2226 49.3607 43.0196C49.7977 42.6682 50.0861 42.0656 50.3599 41.4848C50.7588 40.6325 51.1583 39.7809 51.5585 38.9302C51.698 38.7336 51.787 38.482 51.8124 38.2124C51.8379 37.9428 51.7985 37.6693 51.6999 37.432C51.4678 36.674 51.2363 35.9151 51.0054 35.1555C50.757 34.343 50.4868 33.489 49.9591 32.9595C49.2737 32.2836 48.3271 32.3495 47.5039 32.6154C46.6806 32.8814 45.861 33.3157 45.0123 33.2816C44.328 33.2369 43.6734 32.8911 43.1493 32.2974C42.6251 31.7036 42.2604 30.8947 42.111 29.9949" fill="#028B42"/>
<path d="M47.27 34.1088C47.2204 34.2024 47.1639 34.2891 47.1013 34.3674C46.9398 34.5923 46.7697 34.8056 46.5918 35.0067C46.3299 35.3084 46.0544 35.5879 45.7667 35.8436C45.4132 36.1562 45.0449 36.4374 44.6642 36.6854C44.281 36.9259 43.8867 37.1329 43.4837 37.3052C43.1548 37.444 42.82 37.5557 42.4809 37.6394C42.2525 37.6983 42.0219 37.7407 41.7901 37.7663C41.7059 37.781 41.621 37.7859 41.5362 37.781C41.6177 37.7477 41.7016 37.7264 41.7864 37.7175C41.9478 37.6882 42.1817 37.6321 42.4682 37.5516C42.8026 37.4546 43.133 37.3348 43.4583 37.1929C43.8556 37.016 44.2449 36.8082 44.6243 36.5707C44.9986 36.3245 45.3619 36.0491 45.7123 35.746C45.9995 35.4965 46.2767 35.227 46.5428 34.9384C46.7695 34.6944 46.949 34.4821 47.0687 34.3308C47.1307 34.2488 47.1981 34.1745 47.27 34.1088Z" fill="#344147"/>
<path d="M45.4512 35.3043C45.3161 35.4097 45.1717 35.4917 45.0214 35.5483C44.3107 35.8663 43.5671 36.0311 42.8182 36.0363C42.6627 36.0498 42.5066 36.035 42.354 35.9924C42.5065 35.9621 42.6604 35.9466 42.8146 35.946C43.5552 35.8912 44.2891 35.7276 45.0033 35.458C45.1494 35.3915 45.2992 35.3401 45.4512 35.3043Z" fill="#344147"/>
<g opacity="0.1">
<path d="M47.27 34.1088C47.4839 33.6988 47.2536 33.5305 47.1448 33.5134C47.0357 33.507 46.9271 33.538 46.8293 33.6037C46.2636 33.9404 45.8719 34.6626 45.3315 35.0677C44.8747 35.3834 44.3624 35.5252 43.85 35.4776C43.341 35.4286 42.8358 35.3233 42.3395 35.1628C42.0807 35.0654 41.81 35.0388 41.5435 35.0848C41.4105 35.1091 41.2854 35.1836 41.1827 35.2998C41.08 35.416 41.0038 35.569 40.9632 35.7411C40.9015 36.0925 41.1173 36.5122 41.3839 36.4731C41.2377 36.4841 41.0941 36.5295 40.9596 36.6073C40.8932 36.6486 40.8359 36.7123 40.7933 36.7923C40.7507 36.8723 40.7243 36.9658 40.7166 37.0636C40.7166 37.3857 40.9686 37.5955 41.2007 37.676C41.8971 37.92 42.6315 37.6492 43.3151 37.354C44.1014 37.0041 44.86 36.5505 45.5799 35.9998C46.327 35.4459 46.7586 35.0238 47.27 34.1088Z" fill="black"/>
</g>
<path d="M34.0907 40.504C34.0725 40.5042 34.0548 40.497 34.0397 40.4834C34.0247 40.4699 34.013 40.4506 34.0061 40.428C33.9993 40.4054 33.9977 40.3806 34.0014 40.3567C34.0052 40.3329 34.0141 40.3111 34.0272 40.2942L42.9397 28.792C42.9481 28.7795 42.9582 28.7695 42.9696 28.7625C42.9809 28.7556 42.9932 28.7519 43.0057 28.7516C43.0182 28.7513 43.0306 28.7545 43.0421 28.761C43.0536 28.7675 43.064 28.7771 43.0726 28.7892C43.0812 28.8013 43.0879 28.8157 43.0922 28.8314C43.0965 28.8472 43.0984 28.864 43.0977 28.8807C43.0969 28.8975 43.0936 28.9138 43.088 28.9288C43.0824 28.9438 43.0745 28.957 43.0649 28.9677L34.1596 40.4796C34.15 40.4899 34.1389 40.4973 34.127 40.5015C34.1152 40.5057 34.1028 40.5066 34.0907 40.504Z" fill="#344147"/>
<path d="M37.1733 39.0741L37.5051 38.0713C37.6507 37.6325 37.6643 37.1349 37.5432 36.6829L37.4507 36.3389L35.5776 37.044C35.5776 37.044 35.8931 37.9029 36.3863 37.5759L35.9402 38.3982L37.1733 39.0741Z" fill="#A56959"/>
<path d="M36.0744 38.4227C36.0853 38.4227 36.0853 38.2983 36.1379 38.1006C36.2136 37.8285 36.3598 37.6024 36.5495 37.4638L36.7309 37.332L36.5187 37.3638L36.049 37.4394H36.0599C35.96 37.4361 35.8627 37.3947 35.7796 37.32C35.6964 37.2453 35.6308 37.1403 35.5903 37.0173C35.5849 36.9983 35.5806 36.9787 35.5776 36.9587L35.5431 37.0319C36.0781 36.8611 36.5604 36.6976 36.9031 36.5439C37.0908 36.4786 37.273 36.3878 37.4471 36.2731C37.2573 36.3207 37.0696 36.3826 36.885 36.4585C36.5405 36.5805 36.0581 36.7294 35.5214 36.8977L35.4778 36.9124V36.9685C35.4811 36.9968 35.4866 37.0246 35.4942 37.0514C35.5376 37.2067 35.6196 37.3369 35.7263 37.4199C35.8236 37.4941 35.932 37.5383 36.0436 37.5492H36.0545L36.5223 37.4589L36.4988 37.3613C36.2953 37.5143 36.1453 37.7697 36.0817 38.0714C36.0554 38.1854 36.0529 38.3069 36.0744 38.4227Z" fill="#7C4435"/>
<path d="M36.8904 81.6961L35.2439 82.2036C35.2439 82.2036 34.4007 84.5045 34.0798 84.18C33.7588 83.8555 34.8831 79.6953 34.8831 79.6953L36.4697 79.2073L36.8904 81.6961Z" fill="#028B42"/>
<path d="M47.6 73.6124L54.322 73.9784C55.0348 74.0673 55.6939 74.5255 56.1602 75.2563C56.6265 75.9871 56.8634 76.9332 56.8208 77.8946C56.7868 78.7007 56.5587 79.47 56.1711 80.0863C55.7834 80.7026 55.2572 81.1323 54.672 81.3106L36.3573 82.2134L35.9765 76.1744L47.4912 75.8841L39.0574 73.6027H47.6" fill="#344147"/>
<path d="M47.6 73.6123L48.2183 76.0914L36.2286 76.1304L49.5747 78.4435L48.9183 83.6749L31.9854 81.3008C31.4 81.1225 30.8735 80.6929 30.4856 80.0767C30.0976 79.4604 29.8692 78.6911 29.8348 77.8848C29.7931 76.9232 30.0306 75.9774 30.4971 75.2469C30.9636 74.5163 31.6226 74.058 32.3353 73.9685L38.1706 73.2365L38.3774 73.2L47.6 73.6123Z" fill="#344147"/>
<path d="M48.9183 83.675C48.9165 83.6425 48.9165 83.6099 48.9183 83.5774L48.9527 83.2943C48.9872 83.0381 49.0325 82.677 49.0924 82.2232C49.2193 81.2911 49.3988 79.9759 49.6128 78.3948L49.6472 78.4558L44.9162 77.6653L38.7817 76.6161L36.9231 76.2818L36.419 76.1842L36.2866 76.1549C36.2716 76.153 36.2569 76.1481 36.2431 76.1403H36.2884L36.4208 76.1549L36.9285 76.2305L38.7908 76.5258L44.9344 77.5457L49.6654 78.3582H49.7071L49.698 78.4143C49.4695 79.993 49.2791 81.3057 49.1449 82.2354C49.076 82.6868 49.0216 83.0455 48.9836 83.2992C48.9654 83.4163 48.9509 83.5066 48.9382 83.5798C48.9342 83.6124 48.9275 83.6443 48.9183 83.675Z" fill="#455A64"/>
<path d="M33.6736 74.9446C33.8031 74.873 33.9415 74.8349 34.0816 74.8324C34.761 74.763 35.4345 75.0439 35.9656 75.6181C36.0795 75.727 36.1772 75.8636 36.254 76.0207C36.2431 76.0353 36.1307 75.8865 35.9257 75.6888C35.3905 75.176 34.7476 74.9067 34.0907 74.9202C33.8332 74.9275 33.6772 74.9641 33.6736 74.9446Z" fill="#455A64"/>
<path d="M51.7072 74.8715C51.7072 74.8715 51.5404 74.9032 51.2484 75.0398C50.8329 75.2461 50.4534 75.565 50.1332 75.9768L50.1242 75.989H50.1133L44.0785 76.0915L38.5279 76.1451H36.8451H36.3882C36.3348 76.148 36.2814 76.1439 36.2286 76.1329C36.2815 76.1233 36.3348 76.1184 36.3882 76.1183L36.8451 76.1012L38.5279 76.0597L44.0767 75.967L50.1115 75.9109H50.0915C50.4199 75.4964 50.8108 75.1819 51.2375 74.9886C51.3897 74.9223 51.5475 74.8829 51.7072 74.8715Z" fill="#455A64"/>
<path d="M49.1939 81.7205L50.7588 82.2085C50.7588 82.2085 51.602 84.5094 51.923 84.1849C52.2439 83.8604 51.1197 79.7002 51.1197 79.7002L49.533 79.2122L49.1939 81.7205Z" fill="#028B42"/>
<path d="M45.8157 48.6829C46.6498 46.0843 45.5056 44.5031 44.7603 43.9346C44.3 43.6311 43.7911 43.4852 43.2788 43.5101C42.775 43.4766 42.2703 43.5382 41.7792 43.6931C41.2867 43.8475 40.8367 44.1858 40.4808 44.6691C39.8697 45.5499 39.7301 46.8504 39.7881 48.0533C39.8539 49.4732 40.1576 50.8546 40.6767 52.094C40.7345 52.2593 40.8248 52.4002 40.9378 52.5015C40.9955 52.5502 41.0647 52.5682 41.1318 52.5519C41.1988 52.5357 41.259 52.4864 41.3005 52.4136" fill="#344147"/>
<path d="M44.3813 55.144L44.3523 53.8069C44.3523 53.8069 45.54 53.5409 45.7866 51.4572C45.9081 50.4202 45.8701 48.7195 45.8048 47.3311C45.7467 46.0794 45.3532 44.5471 44.4284 44.6788L41.3131 45.6548C41.1788 45.6736 41.0545 45.759 40.9643 45.8943C40.8742 46.0295 40.8246 46.2051 40.8254 46.3868L41.0683 55.2733C41.0839 55.8334 41.2556 56.365 41.5493 56.7625C41.843 57.1599 42.2371 57.394 42.6532 57.4181C42.8796 57.4315 43.1056 57.3823 43.3172 57.2734C43.5289 57.1646 43.7217 56.9984 43.8837 56.7852C44.0457 56.572 44.1734 56.3164 44.259 56.0341C44.3446 55.7518 44.3862 55.4488 44.3813 55.144Z" fill="#A56959"/>
<path d="M45.4022 48.6267C45.4029 48.6941 45.3845 48.7592 45.3508 48.809C45.3172 48.8588 45.2708 48.8896 45.2209 48.8951C45.1952 48.8997 45.1691 48.8967 45.1443 48.8865C45.1195 48.8763 45.0966 48.8591 45.0772 48.8359C45.0577 48.8128 45.0422 48.7843 45.0317 48.7525C45.0211 48.7206 45.0158 48.686 45.016 48.6511C45.015 48.5814 45.0344 48.514 45.07 48.4633C45.1056 48.4127 45.1546 48.3828 45.2064 48.3803C45.2316 48.3776 45.2569 48.382 45.2807 48.3932C45.3045 48.4043 45.3263 48.4221 45.3448 48.4453C45.3632 48.4685 45.3778 48.4966 45.3877 48.5279C45.3976 48.5591 45.4026 48.5928 45.4022 48.6267Z" fill="#344147"/>
<path d="M45.531 48.2022C45.5056 48.2388 45.3496 48.0876 45.1429 48.0876C44.9362 48.0876 44.7802 48.234 44.7476 48.1974C44.715 48.1608 44.7621 48.1193 44.831 48.0534C44.9224 47.9673 45.0313 47.9211 45.1429 47.9211C45.2545 47.9211 45.3634 47.9673 45.4548 48.0534C45.5146 48.1242 45.5437 48.1876 45.531 48.2022Z" fill="#344147"/>
<path d="M43.3133 48.6267C43.3138 48.6964 43.2939 48.7636 43.2579 48.8138C43.222 48.864 43.1728 48.8932 43.1211 48.8951C43.0953 48.8997 43.0692 48.8967 43.0444 48.8865C43.0196 48.8763 42.9967 48.859 42.9773 48.8359C42.9579 48.8128 42.9424 48.7843 42.9318 48.7524C42.9213 48.7206 42.9159 48.686 42.9161 48.6511C42.9156 48.5812 42.9354 48.5137 42.9714 48.4631C43.0073 48.4125 43.0564 48.3828 43.1084 48.3803C43.134 48.3776 43.1597 48.382 43.184 48.393C43.2083 48.4041 43.2307 48.4217 43.2499 48.4447C43.269 48.4677 43.2845 48.4957 43.2954 48.527C43.3063 48.5583 43.3124 48.5922 43.3133 48.6267Z" fill="#344147"/>
<path d="M43.4293 48.2558C43.4058 48.2924 43.248 48.1411 43.0413 48.1436C42.8346 48.146 42.6695 48.2875 42.6478 48.2509C42.626 48.2143 42.6605 48.1729 42.7294 48.107C42.8208 48.0209 42.9297 47.9747 43.0413 47.9747C43.1529 47.9747 43.2617 48.0209 43.3532 48.107C43.4184 48.1777 43.442 48.2412 43.4293 48.2558Z" fill="#344147"/>
<path d="M44.2054 50.3908C44.3182 50.3417 44.4352 50.313 44.5536 50.3054C44.608 50.3054 44.6588 50.2835 44.6678 50.2347C44.6729 50.1582 44.6603 50.0815 44.6316 50.0151L44.4702 49.4563C44.32 48.9823 44.1987 48.4927 44.1075 47.9923C44.2851 48.4497 44.4355 48.9254 44.5572 49.4148C44.6116 49.61 44.6624 49.7979 44.7114 49.976C44.7462 50.0643 44.7565 50.1664 44.7404 50.2639C44.7327 50.2902 44.7204 50.3137 44.7047 50.3324C44.6889 50.351 44.6701 50.3644 44.6497 50.3713C44.6197 50.3835 44.5885 50.3893 44.5572 50.3884C44.4405 50.4084 44.3223 50.4092 44.2054 50.3908Z" fill="#344147"/>
<path d="M44.3523 53.7947C43.623 53.8094 42.9049 53.5518 42.2779 53.0505C42.2779 53.0505 42.782 54.4828 44.3324 54.2876L44.3523 53.7947Z" fill="#7C4435"/>
<path d="M43.52 47.7532C43.5 47.8313 43.286 47.7947 43.0358 47.8338C42.7856 47.8728 42.5807 47.968 42.548 47.8972C42.5154 47.8264 42.568 47.7898 42.6496 47.7142C42.7587 47.6207 42.8823 47.5622 43.0109 47.5432C43.1395 47.5242 43.2696 47.5451 43.3912 47.6044C43.4891 47.6532 43.5345 47.7166 43.52 47.7532Z" fill="#344147"/>
<path d="M45.453 47.3701C45.4149 47.436 45.2717 47.3701 45.0903 47.3701C44.909 47.3701 44.7639 47.414 44.7277 47.3457C44.6914 47.2774 44.7277 47.2457 44.802 47.1847C44.8893 47.1087 44.9919 47.0712 45.0958 47.0773C45.1998 47.079 45.3008 47.1252 45.3841 47.2091C45.4494 47.2701 45.4693 47.3359 45.453 47.3701Z" fill="#344147"/>
<path d="M45.8048 47.3189C45.5346 45.5401 45.1665 45.8842 44.7494 45.0351C44.1474 45.8573 42.7548 47.1652 41.9134 47.3506C41.8256 47.3587 41.7404 47.3946 41.665 47.4555C41.6078 47.5359 41.5654 47.6331 41.5411 47.7395C41.5169 47.8458 41.5115 47.9583 41.5253 48.068C41.5416 48.6859 41.5039 49.3042 41.4129 49.9102C41.3189 50.5186 41.0877 51.0733 40.751 51.4986C40.2397 50.0517 40.1889 48.3657 40.4174 46.7919C40.5099 46.1477 40.6676 45.4743 41.0484 45.0668C41.337 44.8007 41.6693 44.6333 42.0167 44.5788C42.8636 44.3689 43.841 43.6906 44.6479 44.0908C45.4548 44.4909 45.997 45.628 46.0986 46.7748" fill="#344147"/>
<path d="M43.4892 50.547C43.5454 50.5812 44.1637 50.9447 44.2816 51.0106C44.2816 51.0106 43.9897 51.8256 43.656 51.6548C43.2843 51.4644 43.4892 50.547 43.4892 50.547Z" fill="#344147"/>
<path d="M43.4384 51.1887C43.455 51.1515 43.4792 51.1216 43.5082 51.1025C43.5371 51.0835 43.5696 51.0761 43.6016 51.0814C43.6937 51.0892 43.7825 51.1306 43.8585 51.201C43.9345 51.2715 43.9949 51.3685 44.0332 51.4815C43.9838 51.5734 43.9114 51.6379 43.8293 51.663C43.7472 51.6882 43.6611 51.6722 43.5871 51.6182C43.5337 51.5741 43.4912 51.5099 43.4647 51.4335C43.4383 51.3572 43.4291 51.272 43.4384 51.1887Z" fill="#7C4435"/>
<path d="M43.1066 49.7174C42.9354 49.8618 42.7489 49.9704 42.5535 50.0395C42.3685 50.1471 42.1721 50.2146 41.9714 50.2396C42.3269 49.9859 42.71 49.8097 43.1066 49.7174Z" fill="#455A64"/>
<path d="M43.1464 49.9956C42.9781 50.1389 42.7947 50.2475 42.6024 50.3177C42.4174 50.4251 42.221 50.4926 42.0204 50.5178C42.1883 50.3734 42.3718 50.2648 42.5644 50.1957C42.7493 50.0878 42.9457 50.0203 43.1464 49.9956Z" fill="#FAFAFA"/>
<path d="M50.4107 48.8L48.5973 38.5276C48.5121 38.0957 48.338 37.2295 48.1875 36.4878C48.1487 36.1332 48.0917 35.7826 48.0171 35.4386C48.008 35.4044 48.0007 35.3825 47.9971 35.3825C47.9787 35.3186 47.9556 35.2573 47.9282 35.1995C47.8774 35.0945 47.8013 34.9921 47.7106 35.0409C47.4332 35.1848 47.4495 35.4215 47.4495 35.4215L47.464 35.5386L47.4404 35.5557C47.4195 35.4214 47.3935 35.2887 47.3624 35.158C47.3587 35.1377 47.3519 35.1186 47.3425 35.1019C47.3425 35.1019 47.2264 34.6627 47.0542 34.7529C46.7659 34.892 46.784 35.136 46.784 35.136C46.784 35.136 46.8021 35.2946 46.8293 35.5142C46.7985 35.3337 46.7695 35.1824 46.7495 35.1043C46.746 35.0831 46.7392 35.0632 46.7296 35.0457C46.7296 35.0457 46.6135 34.609 46.4413 34.6968C46.1638 34.8432 46.1802 35.0799 46.1802 35.0799C46.1802 35.0799 46.1947 35.2092 46.2182 35.3922C46.1928 35.2458 46.1675 35.1263 46.1511 35.0579C46.1474 35.0376 46.1406 35.0185 46.1312 35.0018C46.1312 35.0018 46.0133 34.5651 45.8429 34.6529C45.5654 34.7969 45.5818 35.0335 45.5818 35.0335C45.5818 35.0335 45.754 36.5146 45.8048 36.6781C45.8113 36.6953 45.8206 36.7104 45.832 36.722L45.7903 36.7537C45.7903 36.9343 46.1729 37.9737 46.3542 38.4398L47.6762 48.5194C47.7167 48.8344 47.6954 49.1582 47.6145 49.4588L47.2518 51.0546L49.446 53.8655C49.446 53.8655 50.0317 51.7597 50.3526 50.4958C50.4918 49.9496 50.512 49.3612 50.4107 48.8Z" fill="#A56959"/>
<path d="M47.5093 36.6C47.509 36.3834 47.4883 36.1678 47.4477 35.9583C47.4274 35.7454 47.3865 35.5371 47.3262 35.3385C47.3265 35.556 47.3479 35.7725 47.3896 35.9827C47.4108 36.1942 47.4509 36.4015 47.5093 36.6Z" fill="#7C4435"/>
<path d="M46.9381 36.7684C46.9254 36.4608 46.892 36.1553 46.8384 35.8558C46.8056 35.5514 46.7522 35.2516 46.6788 34.9603C46.6935 35.2665 46.7287 35.5703 46.784 35.868C46.8151 36.1738 46.8667 36.4751 46.9381 36.7684Z" fill="#7C4435"/>
<g opacity="0.78">
<path d="M46.3506 36.883C46.3391 36.5754 46.3063 36.2699 46.2527 35.9704C46.2198 35.6658 46.1658 35.366 46.0913 35.075C46.1051 35.3816 46.1385 35.6861 46.191 35.9851C46.2249 36.29 46.2783 36.5904 46.3506 36.883Z" fill="#7C4435"/>
</g>
<path d="M46.7713 38.5764L46.1511 37.8639C45.881 37.5551 45.7096 37.1182 45.6724 36.6439L45.6452 36.2779L47.5601 35.829C47.5601 35.829 47.5601 36.7855 47.0016 36.7781L47.6671 37.2661L46.7713 38.5764Z" fill="#A56959"/>
<path d="M47.58 37.4418C47.5692 37.4418 47.5311 37.3369 47.4186 37.1978C47.2641 36.9947 47.0596 36.8749 46.8438 36.8611H46.6298L46.8329 36.7683L47.2808 36.5634H47.2718C47.3608 36.5028 47.4352 36.4093 47.4863 36.294C47.5373 36.1786 47.5629 36.0461 47.5601 35.9119C47.5615 35.8916 47.5615 35.8712 47.5601 35.8509L47.6163 35.8948C47.0723 36.0534 46.5918 36.1876 46.2345 36.2559C46.0446 36.3059 45.8514 36.3296 45.6579 36.3267C45.8442 36.2599 46.0331 36.2069 46.2237 36.1681C46.5754 36.0778 47.0578 35.9241 47.5964 35.7704L47.6399 35.7582L47.6508 35.8143C47.6569 35.8421 47.6605 35.8708 47.6616 35.8997C47.6733 36.0646 47.6412 36.2297 47.571 36.3657C47.5071 36.4898 47.4235 36.5932 47.3262 36.6683H47.3171L46.8656 36.8586L46.8547 36.7561C47.088 36.7764 47.3058 36.9203 47.4604 37.1563C47.5179 37.2359 47.5592 37.3343 47.58 37.4418Z" fill="#7C4435"/>
<path d="M47.4876 36.2462C47.5021 36.234 47.5329 36.3633 47.6272 36.4902C47.651 36.5204 47.6808 36.5407 47.713 36.5485C47.7452 36.5563 47.7784 36.5513 47.8085 36.5341C47.8426 36.4968 47.8687 36.448 47.8843 36.3928C47.8999 36.3375 47.9044 36.2777 47.8974 36.2194C47.8811 35.929 47.8756 35.6557 47.8575 35.4679C47.8394 35.28 47.823 35.158 47.8375 35.1531C47.8521 35.1482 47.8901 35.258 47.9246 35.4532C47.9607 35.7053 47.9831 35.9605 47.9917 36.2169C47.9996 36.2973 47.9905 36.3791 47.9655 36.4529C47.9405 36.5267 47.9006 36.5895 47.8502 36.6342C47.804 36.6634 47.7519 36.6716 47.7018 36.6575C47.6518 36.6434 47.6065 36.6078 47.5728 36.5561C47.5324 36.4944 47.5032 36.4209 47.4876 36.3414C47.4821 36.2828 47.4803 36.2511 47.4876 36.2462Z" fill="#7C4435"/>
<path d="M121.345 93.9791H83.1667H80.6389V87.7498H121.345V93.9791Z" fill="#344147"/>
<path d="M118.166 52.9114H82.6409V83.7286H118.166V52.9114Z" fill="#344147"/>
<path d="M104.223 83.7285H96.8864V87.7496H104.223V83.7285Z" fill="#344147"/>
<path d="M82.1694 113.311H83.1087L86.632 93.979H85.6456L82.1694 113.311Z" fill="#344147"/>
<path d="M119.256 113.311H118.316L114.793 93.979H115.78L119.256 113.311Z" fill="#344147"/>
<path d="M118.166 97.4365H83.1178V98.2344H118.166V97.4365Z" fill="#344147"/>
<path d="M126.944 113.704C126.944 113.704 126.725 113.726 126.306 113.726C125.887 113.726 125.271 113.711 124.478 113.658L121.588 113.448C121.024 113.411 120.422 113.379 119.783 113.365C119.145 113.35 118.469 113.348 117.762 113.411C116.345 113.519 114.804 113.882 113.127 113.838C112.26 113.827 111.397 113.671 110.559 113.372C109.672 113.047 108.833 112.524 108.075 111.825C107.268 111.093 106.61 110.1 106.163 108.936C106.105 108.79 106.064 108.631 106.013 108.477C105.962 108.323 105.918 108.165 105.881 108.004C105.805 107.681 105.75 107.349 105.717 107.013C105.644 106.327 105.686 105.628 105.839 104.966C105.918 104.63 106.034 104.312 106.183 104.022C106.334 103.733 106.517 103.479 106.727 103.268C107.157 102.827 107.69 102.608 108.229 102.651C108.364 102.664 108.498 102.698 108.628 102.753C108.757 102.814 108.882 102.889 109.001 102.978C109.233 103.177 109.427 103.447 109.567 103.766C109.705 104.085 109.795 104.439 109.832 104.805C109.854 104.988 109.864 105.172 109.864 105.357C109.864 105.449 109.855 105.542 109.852 105.635C109.849 105.727 109.84 105.818 109.826 105.908L109.788 106.181C109.772 106.272 109.75 106.36 109.73 106.447C109.689 106.624 109.638 106.796 109.578 106.962C109.545 107.043 109.509 107.123 109.475 107.206C109.441 107.287 109.403 107.364 109.36 107.436L109.233 107.653L109.085 107.846L109.01 107.941C108.984 107.969 108.956 107.996 108.927 108.021L108.76 108.18L108.579 108.307C108.521 108.351 108.46 108.388 108.397 108.416C108.147 108.552 107.884 108.639 107.616 108.675C106.552 108.754 105.508 108.26 104.715 107.304C103.935 106.379 103.445 105.144 103.095 103.907C102.782 102.681 102.54 101.424 102.37 100.147C101.672 95.7666 101.26 91.3121 101.139 86.8347C101.099 84.9242 101.11 83.1918 101.171 81.6765C101.193 80.9177 101.242 80.2125 101.271 79.5635C101.3 78.9144 101.358 78.3264 101.396 77.7921C101.434 77.2577 101.485 76.7917 101.519 76.3817C101.554 75.9718 101.599 75.6302 101.628 75.3521C101.657 75.0739 101.681 74.8641 101.697 74.7177C101.714 74.5713 101.724 74.5029 101.724 74.5029C101.724 74.5029 101.724 74.5786 101.706 74.7201C101.688 74.8616 101.674 75.0788 101.646 75.3545C101.619 75.6302 101.583 75.9791 101.548 76.3866C101.514 76.7941 101.476 77.2675 101.432 77.7994C101.389 78.3313 101.358 78.9218 101.316 79.5684C101.275 80.215 101.244 80.9201 101.224 81.679C101.168 83.1942 101.16 84.9242 101.206 86.8322C101.335 91.302 101.752 95.7481 102.453 100.12C102.624 101.39 102.866 102.639 103.179 103.859C103.52 105.079 104.011 106.299 104.774 107.206C105.549 108.138 106.566 108.619 107.603 108.543C107.863 108.51 108.117 108.428 108.359 108.299C108.422 108.271 108.483 108.235 108.541 108.192L108.722 108.07L108.882 107.919C108.909 107.894 108.936 107.87 108.961 107.843L109.032 107.753C109.079 107.692 109.128 107.631 109.174 107.567L109.295 107.36C109.338 107.292 109.375 107.219 109.406 107.14C109.438 107.065 109.473 106.989 109.504 106.911C109.561 106.753 109.61 106.59 109.65 106.423C109.67 106.335 109.69 106.252 109.708 106.164L109.745 105.901C109.758 105.813 109.766 105.724 109.768 105.635C109.768 105.547 109.779 105.457 109.781 105.369C109.781 105.191 109.771 105.013 109.75 104.837C109.715 104.486 109.629 104.148 109.496 103.841C109.363 103.545 109.181 103.294 108.963 103.109C108.848 103.023 108.726 102.952 108.601 102.897C108.478 102.844 108.352 102.811 108.223 102.797C107.706 102.759 107.196 102.969 106.784 103.39C106.373 103.797 106.071 104.371 105.92 105.027C105.772 105.671 105.732 106.351 105.803 107.018C105.833 107.35 105.887 107.676 105.962 107.994C105.997 108.153 106.04 108.307 106.091 108.458C106.142 108.609 106.182 108.765 106.24 108.909C106.679 110.055 107.325 111.034 108.118 111.757C108.872 112.448 109.705 112.966 110.584 113.289C111.413 113.586 112.266 113.743 113.123 113.758C114.789 113.806 116.333 113.448 117.751 113.348C118.461 113.287 119.14 113.292 119.778 113.309C120.416 113.326 121.022 113.36 121.591 113.399L124.482 113.631C125.274 113.692 125.891 113.719 126.308 113.726C126.516 113.726 126.67 113.726 126.783 113.726L126.944 113.704Z" fill="#455A64"/>
<path d="M115.203 80.5199C115.203 80.5199 115.203 80.3784 115.203 80.1051C115.203 79.8318 115.203 79.4292 115.203 78.9022C115.203 77.8457 115.203 76.2938 115.203 74.3028C115.203 70.3207 115.192 64.5794 115.185 57.5351L115.221 57.5839L86.0264 57.5986L86.0735 57.5351C86.0735 65.6725 86.0735 73.4439 86.0735 80.5199L86.0282 80.4614L107.034 80.4906L113.063 80.5053H114.668H115.083H115.226H115.089H114.679H113.081L107.063 80.5224L86.0282 80.5492H85.9846V80.5199C85.9846 73.4439 85.9846 65.6725 85.9846 57.5351V57.4717H86.0354L115.23 57.4839H115.266V57.5351C115.266 64.5916 115.252 70.3427 115.246 74.3321C115.246 76.3207 115.246 77.8676 115.246 78.9217C115.246 79.4439 115.246 79.844 115.246 80.1173C115.246 80.3906 115.203 80.5199 115.203 80.5199Z" fill="#455A64"/>
<path d="M105.355 74.4981C105.354 74.4827 105.354 74.4672 105.355 74.4517C105.355 74.4176 105.355 74.3761 105.355 74.3224C105.355 74.2028 105.355 74.0369 105.355 73.8222C105.355 73.3806 105.355 72.7462 105.344 71.941C105.344 70.3257 105.331 68.037 105.322 65.2895L105.364 65.3456H99.037C99.0243 65.3603 99.1259 65.2261 99.0824 65.2846V67.7734C99.0824 68.5868 99.0824 69.3814 99.0824 70.1573C99.0824 71.7043 99.0824 73.1585 99.0824 74.4883L99.0425 74.4346L103.621 74.4615L104.909 74.4761H105.251H105.371C105.371 74.4761 105.335 74.4761 105.26 74.4761H104.925L103.656 74.4908L99.0515 74.52H99.0116V74.4639C99.0116 73.1341 99.0116 71.6799 99.0116 70.1329C99.0116 69.3586 99.0116 68.564 99.0116 67.749V65.2944C98.9699 65.3505 99.0697 65.2139 99.0606 65.2285H105.387H105.429V65.2846C105.42 68.0418 105.413 70.3476 105.407 71.9727C105.407 72.7706 105.407 73.4025 105.396 73.8417C105.396 74.0491 105.396 74.2126 105.396 74.3297V74.4542C105.385 74.4722 105.37 74.4871 105.355 74.4981Z" fill="#455A64"/>
<path d="M99.0642 74.4981C99.0642 74.4981 99.0642 74.4322 99.0642 74.3126C99.0642 74.1931 99.0642 74.0076 99.0642 73.7856C99.0642 73.322 99.0642 72.6656 99.0515 71.8482C99.0515 70.1988 99.0388 67.9101 99.0298 65.2895L99.0751 65.353H97.1947C97.289 65.2261 97.2219 65.3188 97.2418 65.292V66.6754C97.2418 67.1293 97.2418 67.5782 97.2418 68.015C97.2418 68.8885 97.2418 69.723 97.2418 70.5111C97.2418 72.0752 97.2418 73.4391 97.2291 74.4956L97.2001 74.4566L98.5656 74.4786H98.9282H99.0588C99.0189 74.4817 98.979 74.4817 98.9391 74.4786H98.5764L97.1929 74.5005H97.1639V74.4615C97.1639 73.4025 97.1639 72.041 97.1512 70.477C97.1512 69.6913 97.1512 68.8544 97.1512 67.9808C97.1512 67.5441 97.1512 67.0951 97.1512 66.6413V65.2944C97.1729 65.2651 97.104 65.3554 97.1983 65.2285H99.1096V65.2895C99.1005 67.9272 99.0932 70.233 99.0878 71.8922C99.0878 72.7022 99.0787 73.3562 99.0751 73.8149C99.0751 74.0296 99.0751 74.2004 99.0751 74.3273C99.0761 74.3846 99.0724 74.4418 99.0642 74.4981Z" fill="#455A64"/>
<path d="M105.259 69.7279C105.259 69.762 103.884 69.7913 102.189 69.7913C100.493 69.7913 99.1186 69.762 99.1186 69.7279C99.1186 69.6937 100.493 69.6644 102.189 69.6644C103.884 69.6644 105.259 69.6913 105.259 69.7279Z" fill="#455A64"/>
<path d="M104.336 74.2931C104.338 74.3239 104.338 74.355 104.336 74.3858C104.336 74.4541 104.345 74.5468 104.35 74.6615C104.35 74.9055 104.375 75.2691 104.394 75.7229C104.428 76.6501 104.475 77.9824 104.537 79.6269C104.564 80.4492 104.597 81.352 104.629 82.3109C104.644 82.7989 104.673 83.2869 104.671 83.814C104.692 84.3591 104.595 84.9006 104.392 85.3731C104.271 85.6111 104.102 85.7981 103.906 85.9124C103.706 86.0207 103.492 86.0794 103.277 86.0856C103.059 86.1024 102.84 86.0852 102.626 86.0344C102.397 85.9919 102.186 85.8496 102.024 85.6293C101.946 85.5058 101.896 85.3552 101.879 85.195C101.865 85.0333 101.884 84.8696 101.935 84.7216C101.984 84.5736 102.057 84.4426 102.149 84.339C102.242 84.2353 102.351 84.1617 102.468 84.1238C102.704 84.0631 102.948 84.0891 103.174 84.199C103.401 84.3089 103.601 84.4987 103.754 84.7485C104.06 85.238 104.241 85.8471 104.27 86.4858C104.303 87.1007 104.224 87.717 104.04 88.2816C103.727 89.3158 103.123 90.1411 102.359 90.5765C101.594 91.0119 100.733 91.022 99.9636 90.6045C99.3282 90.274 98.7898 89.6745 98.4296 88.8965C98.1351 88.2619 97.9264 87.5622 97.813 86.8298C97.7262 86.28 97.6704 85.722 97.6462 85.1608C97.6263 84.6997 97.6208 84.341 97.619 84.0995V83.8237C97.6162 83.7921 97.6162 83.7602 97.619 83.7286C97.6213 83.7594 97.6213 83.7905 97.619 83.8213C97.619 83.8896 97.619 83.9823 97.6299 84.097C97.6299 84.341 97.648 84.6973 97.6752 85.1584C97.7049 85.7152 97.7655 86.2682 97.8566 86.8127C97.9745 87.5345 98.1849 88.2231 98.4785 88.8477C98.8337 89.6058 99.3617 90.1888 99.9836 90.5093C100.734 90.9126 101.572 90.8998 102.315 90.4736C103.057 90.0474 103.645 89.2426 103.948 88.2352C104.124 87.6894 104.201 87.0944 104.171 86.5004C104.141 85.8894 103.969 85.3068 103.677 84.8363C103.535 84.6043 103.35 84.4274 103.14 84.3241C102.93 84.2207 102.704 84.1945 102.484 84.2483C102.381 84.2817 102.285 84.3467 102.203 84.438C102.121 84.5294 102.056 84.6448 102.013 84.7753C101.969 84.9017 101.952 85.0419 101.964 85.1804C101.977 85.3167 102.02 85.4447 102.087 85.5488C102.234 85.747 102.425 85.8762 102.631 85.9172C102.839 85.9647 103.05 85.9819 103.26 85.9685C103.465 85.9633 103.667 85.9079 103.857 85.805C104.039 85.7029 104.195 85.5337 104.308 85.317C104.501 84.8633 104.594 84.3456 104.577 83.8237C104.577 83.3113 104.551 82.8087 104.539 82.3256C104.51 81.3496 104.482 80.4541 104.457 79.6294C104.41 77.9872 104.37 76.655 104.345 75.7254C104.332 75.2691 104.325 74.9128 104.317 74.664C104.317 74.5468 104.317 74.4566 104.317 74.3882C104.321 74.3559 104.327 74.324 104.336 74.2931Z" fill="#455A64"/>
</svg>
