<svg width="38" height="94" viewBox="0 0 38 94" fill="none" xmlns="http://www.w3.org/2000/svg">
<path d="M18.5995 82.5109C18.7191 83.0136 18.5149 85.7393 18.2669 86.2053C17.9794 86.6511 17.7438 87.1223 17.5639 87.6114C17.4768 87.8569 17.4626 88.1186 17.5224 88.3707C17.5823 88.6227 17.7142 88.8564 17.9052 89.0488C18.5091 89.5725 19.4776 89.3892 20.3178 89.3944C22.5117 89.4101 24.5334 90.8921 26.701 90.5779C27.1519 90.53 27.5744 90.356 27.9088 90.0804C28.0711 89.9426 28.1873 89.767 28.2445 89.5732C28.3017 89.3794 28.2976 89.1752 28.2327 88.9834C27.9701 88.3497 27.0657 88.1979 26.3043 88.0486C24.761 87.7213 23.0427 86.4357 22.1441 85.2837L22.7889 83.2649L18.5995 82.5109Z" fill="#AE7461"/>
<path d="M19.6994 84.5295C19.6994 84.5295 19.2122 87.3076 19.5856 88.3183C19.959 89.3289 20.7525 90.8737 20.9714 91.4602C21.1902 92.0467 22.3075 93.5418 20.7059 93.9031C19.3493 94.2095 15.7143 93.8665 15.1891 91.7509C14.664 89.6353 15.2475 89.4415 14.6057 88.5277C13.9639 87.6139 13.9026 87.6611 14.6057 86.4566C14.9782 85.8386 15.3028 85.1982 15.5771 84.54L19.6994 84.5295Z" fill="#AE7461"/>
<path d="M14.2877 17.9562C14.2877 17.9562 12.3826 17.4875 9.60237 20.3441C6.06069 23.9784 -0.590911 29.4768 0.0421573 31.294C0.675226 33.1111 9.21435 38.0702 9.21435 38.0702L10.5564 35.698L6.81921 30.2623L14.5415 25.2247L14.2877 17.9562Z" fill="#AE7461"/>
<path d="M34.0587 52.7796C34.0587 52.7796 33.7669 49.5826 33.9711 48.1111C34.1754 46.6396 34.4963 47.2602 34.893 45.8594C35.1399 44.9517 35.2903 44.025 35.3423 43.0918L37.7375 44.1156L38 47.4225V52.5125C38 52.5125 35.7712 54.6805 35.4007 54.6622C35.3509 54.6595 35.3023 54.648 35.2576 54.6284C35.2128 54.6087 35.1729 54.5813 35.1401 54.5477C35.1072 54.5141 35.0822 54.4749 35.0663 54.4326C35.0504 54.3902 35.0441 54.3454 35.0477 54.3008C35.0477 54.3008 33.904 54.4213 33.8807 54.039C33.8574 53.6567 35.0477 53.1435 35.0477 53.1435L36.0629 52.0019L35.494 48.86C35.494 48.86 35.1381 50.8132 35.106 50.986C35.0739 51.1588 35.4123 52.9917 34.0587 52.7796Z" fill="#AE7461"/>
<path d="M30.1525 17.9169C31.7395 18.1578 33.4578 18.5453 34.2834 20.4514C34.9078 21.8941 35.4066 24.4627 35.4883 25.6357C35.6429 27.8822 35.3833 31.1132 36.0076 32.6345C36.6319 34.1557 37.6909 42.0918 37.8631 46.0089L35.0011 45.4302L29.3123 32.3072L29.7819 25.6357L30.0737 18.4013L30.1525 17.9169Z" fill="#AE7461"/>
<path d="M13.5204 17.9562C13.5204 17.9562 12.5985 20.8704 13.8617 31.2128C13.9726 32.1345 8.98101 37.9681 8.98976 44.7862C8.98976 49.0593 14.5328 63.3553 14.5328 65.8454C14.5328 68.3354 12.7561 70.4117 14.3169 77.311C15.8776 84.2103 15.4838 85.6006 15.4838 85.6006H19.5448C19.5448 85.6006 19.3872 84.0296 20.4025 79.911C21.4177 75.7924 23.6116 67.7463 24.0725 63.9785C24.5335 60.2107 23.6028 52.6673 23.6028 52.6673L23.2148 46.0535L23.5503 17.0555H18.5208L13.5204 17.9562Z" fill="#AE7461"/>
<path d="M32.3201 34.9333C32.3201 34.9333 34.7765 39.3164 34.7736 44.0974C34.7736 48.4517 26.8967 62.4414 26.7421 63.6746C26.5875 64.9079 26.9755 70.697 26.2754 73.3808C25.5752 76.0645 22.2144 86.5954 22.2144 86.5954H19.5596V63.5909C19.5596 63.5909 21.0416 36.465 21.0416 36.321C21.0416 36.177 21.593 17.0502 21.593 17.0502L25.511 17.3644L30.7243 18.1158C30.7243 18.1158 32.5214 24.426 32.5973 26.2326C32.6731 28.0393 30.8031 31.9641 31.0365 33.632C31.2699 35.2999 32.3201 34.9333 32.3201 34.9333Z" fill="#AE7461"/>
<path d="M20.8546 91.18C20.8337 91.1506 20.817 91.119 20.805 91.0858L20.6708 90.803C20.5571 90.5412 20.3791 90.1798 20.1836 89.6928C19.9882 89.2058 19.7256 88.6141 19.4922 87.9019C19.2527 87.0754 19.2587 86.2069 19.5097 85.3831C20.3849 81.4242 21.6219 75.7241 23.0106 69.3956C23.1769 68.6415 23.3431 67.8927 23.5036 67.1569C23.6641 66.4212 23.8216 65.6959 23.9091 64.9759C24.0536 63.5886 24.0536 62.1922 23.9091 60.8049C23.8012 59.4748 23.7107 58.2049 23.6816 57.0162C23.6524 55.8274 23.5999 54.7251 23.5357 53.7171C23.4132 51.7036 23.2644 50.075 23.1593 48.9491C23.1068 48.3914 23.066 47.9568 23.0368 47.653C23.0368 47.509 23.0135 47.3912 23.0047 47.3153C22.996 47.2393 23.0047 47.2001 23.0047 47.2001C23.0149 47.2381 23.0227 47.2765 23.0281 47.3153C23.0281 47.3964 23.0514 47.5064 23.0718 47.6504C23.1068 47.9515 23.1564 48.3862 23.2235 48.9439C23.3431 50.0671 23.5153 51.6957 23.6465 53.7118C23.7166 54.7199 23.772 55.8274 23.807 57.0135C23.842 58.1996 23.9383 59.4643 24.0491 60.797C24.1963 62.1903 24.1963 63.593 24.0491 64.9863C23.9645 65.7116 23.8128 66.4421 23.6465 67.1779C23.4803 67.9136 23.3198 68.6598 23.1535 69.4165C21.7503 75.7398 20.487 81.4399 19.6089 85.3883C19.3565 86.1969 19.3434 87.0507 19.571 87.8652C19.7956 88.5748 20.0436 89.1744 20.2391 89.6588L20.7 90.7742C20.7525 90.8973 20.7904 90.9915 20.8196 91.0622C20.8347 91.1006 20.8464 91.14 20.8546 91.18Z" fill="#6F4439"/>
<path d="M29.9277 12.8817C29.8927 12.2088 30.1728 11.5726 30.4091 10.9206C30.6454 10.2686 30.8408 9.59049 30.6395 8.94114C30.3887 8.12685 29.5689 7.55867 29.1313 6.80983C28.6937 6.06099 28.6587 5.17076 28.5799 4.32242C28.5011 3.47408 28.3407 2.57862 27.7047 1.93975C26.9112 1.13069 24.8369 0.98406 23.8596 1.60722C23.7079 6.43017 22.4359 11.3107 23.5854 16.0237C26.2224 16.1198 28.8377 15.5589 31.1413 14.403C30.4178 14.2694 29.9627 13.5546 29.9277 12.8817Z" fill="#263238"/>
<path d="M18.477 17.545L17.739 4.23349C17.7247 3.97522 17.819 3.72155 18.0033 3.52273C18.1875 3.32392 18.4482 3.19445 18.7338 3.15999L24.7902 1.62041C26.739 1.38738 28.1044 3.51084 28.2911 5.26773C28.4894 7.21838 28.647 9.60891 28.434 11.0726C28.0081 14.0182 25.5166 14.4554 25.5166 14.4554C25.5166 17.3565 25.5837 17.5712 25.5837 17.5712L22.293 18.7966L18.477 17.545Z" fill="#AE7461"/>
<path d="M27.1241 7.70242C27.1281 7.80064 27.0892 7.89638 27.0156 7.96922C26.942 8.04205 26.8396 8.08622 26.7302 8.0923C26.6773 8.09698 26.6239 8.09222 26.573 8.07828C26.5222 8.06435 26.4749 8.04152 26.434 8.01111C26.393 7.98069 26.3592 7.94331 26.3344 7.90111C26.3097 7.8589 26.2945 7.81272 26.2897 7.76522C26.2849 7.66725 26.3232 7.5715 26.3963 7.49859C26.4694 7.42567 26.5715 7.38141 26.6806 7.37533C26.7338 7.36992 26.7877 7.37415 26.8391 7.38777C26.8904 7.4014 26.9382 7.42414 26.9796 7.45465C27.0209 7.48516 27.0551 7.52281 27.0799 7.56538C27.1047 7.60794 27.1197 7.65454 27.1241 7.70242Z" fill="#263238"/>
<path d="M27.7425 6.5268C27.6929 6.57652 27.3691 6.37503 26.9169 6.3855C26.4647 6.39597 26.1438 6.61053 26.0913 6.56082C26.0388 6.5111 26.1176 6.45091 26.2576 6.35148C26.4497 6.22662 26.6797 6.15725 26.9169 6.15262C27.1518 6.14426 27.3833 6.2049 27.5762 6.32532C27.7075 6.4169 27.7688 6.50325 27.7425 6.5268Z" fill="#263238"/>
<path d="M23.1185 7.81506C23.1233 7.91303 23.085 8.00877 23.0119 8.08168C22.9388 8.1546 22.8367 8.19886 22.7275 8.20494C22.6743 8.21035 22.6205 8.20613 22.5691 8.1925C22.5177 8.17888 22.47 8.15613 22.4286 8.12562C22.3872 8.09511 22.3531 8.05746 22.3283 8.01489C22.3035 7.97233 22.2884 7.92573 22.2841 7.87785C22.2793 7.77988 22.3176 7.68414 22.3907 7.61122C22.4638 7.53831 22.5659 7.49405 22.675 7.48797C22.7282 7.48292 22.7819 7.48741 22.8331 7.50118C22.8843 7.51494 22.9319 7.53771 22.9732 7.56816C23.0145 7.5986 23.0486 7.63611 23.0735 7.6785C23.0984 7.72089 23.1137 7.76731 23.1185 7.81506Z" fill="#263238"/>
<path d="M23.314 6.71549C23.2614 6.76521 22.9376 6.56372 22.4883 6.57419C22.0391 6.58466 21.7123 6.79922 21.6627 6.7495C21.6131 6.69979 21.6861 6.6396 21.829 6.54017C22.0203 6.41377 22.2508 6.34423 22.4883 6.34131C22.7231 6.33389 22.9543 6.39445 23.1477 6.51401C23.2877 6.60559 23.3315 6.69717 23.314 6.71549Z" fill="#263238"/>
<path d="M25.0442 9.67425C25.2799 9.60138 25.525 9.55563 25.7735 9.5381C25.8873 9.52239 25.9952 9.50144 26.0128 9.42812C26.0197 9.32151 25.9902 9.21553 25.9282 9.1244L25.5606 8.33891C25.0529 7.23135 24.6853 6.31756 24.732 6.29923C24.7787 6.2809 25.2338 7.1659 25.7414 8.27345C25.864 8.53528 25.9836 8.79711 26.0944 9.05894C26.1699 9.18272 26.1956 9.326 26.1674 9.46478C26.1512 9.5015 26.1261 9.53446 26.0937 9.56121C26.0614 9.58796 26.0227 9.60781 25.9807 9.61926C25.9183 9.63724 25.8535 9.6478 25.7881 9.65068C25.5422 9.68624 25.2923 9.69415 25.0442 9.67425Z" fill="#263238"/>
<path d="M25.5078 14.4553C23.9703 14.5157 22.4443 14.1921 21.0996 13.5205C21.0996 13.5205 22.2666 15.5811 25.5253 15.225L25.5078 14.4553Z" fill="#6F4439"/>
<path d="M25.009 10.6375C24.9029 10.5069 24.7631 10.4013 24.6015 10.3297C24.4399 10.2582 24.2614 10.2228 24.0813 10.2267C23.9634 10.2306 23.8485 10.2606 23.7467 10.314C23.6448 10.3675 23.5594 10.4426 23.4978 10.5329C23.4277 10.6363 23.3947 10.7564 23.4032 10.8772C23.4116 10.9979 23.4612 11.1135 23.5451 11.2082C23.6291 11.3029 23.7434 11.3722 23.8727 11.4068C24.0019 11.4414 24.1399 11.4396 24.268 11.4016C24.517 11.3236 24.7405 11.1914 24.9186 11.017C24.9776 10.9756 25.0254 10.9228 25.0586 10.8626C25.0747 10.8295 25.0808 10.7932 25.0762 10.7574C25.0716 10.7215 25.0565 10.6874 25.0323 10.6585" fill="#6F4439"/>
<path d="M23.7254 9.98857C23.7983 9.98857 23.8158 10.4229 24.2447 10.7239C24.6735 11.0248 25.1928 10.962 25.1986 11.0221C25.2045 11.0823 25.0849 11.1111 24.8631 11.1216C24.5764 11.133 24.2944 11.0533 24.0667 10.8965C23.8492 10.745 23.7059 10.5236 23.667 10.279C23.6408 10.1011 23.6933 9.98595 23.7254 9.98857Z" fill="#263238"/>
<path d="M23.4599 5.04239C23.419 5.15491 22.9668 5.11305 22.4388 5.18369C21.9108 5.25434 21.4877 5.39565 21.4148 5.29883C21.3827 5.25173 21.4527 5.14706 21.6219 5.03716C21.8465 4.89636 22.1058 4.80657 22.3775 4.7755C22.6467 4.73893 22.9217 4.76046 23.1798 4.83829C23.3753 4.90633 23.4774 4.99006 23.4599 5.04239Z" fill="#E0E0E0"/>
<path d="M27.5412 5.12613C27.4625 5.22033 27.1503 5.12613 26.7769 5.13922C26.4035 5.1523 26.0884 5.21772 26.0125 5.12352C25.9804 5.07642 26.0125 4.98483 26.1613 4.89325C26.3438 4.78478 26.5579 4.72693 26.7769 4.72693C26.9958 4.72693 27.2099 4.78478 27.3924 4.89325C27.5266 4.99792 27.5733 5.09211 27.5412 5.12613Z" fill="#263238"/>
<path d="M25.5108 1.54445C24.9507 0.264091 23.7341 0.151501 22.433 0.0205851C21.1318 -0.110331 19.2005 0.400242 18.127 1.06791C17.2232 1.59333 16.4178 2.24373 15.7405 2.995C15.1571 3.70456 14.9062 4.51625 14.5503 5.33578C13.9931 6.6109 14.0281 8.01956 13.9493 9.38633C13.8452 11.1056 13.552 12.8114 13.0741 14.479C12.902 15.0759 12.7298 15.7881 13.6167 16.1337C13.7814 16.1961 13.9554 16.2367 14.1331 16.2542C15.5101 16.4139 16.8404 16.8381 18.372 16.9323H19.3172C20.5134 16.9323 21.126 16.1992 21.0852 15.2671C20.9597 12.4524 19.5215 7.82842 19.3639 6.94081C19.3785 6.94081 18.8796 0.711824 25.5108 1.54445Z" fill="#263238"/>
<path d="M25.082 1.57349C24.8822 1.72353 24.7182 1.90825 24.5999 2.11657C24.4816 2.32489 24.4114 2.55251 24.3935 2.78578C24.3264 3.2466 24.3556 3.7179 24.2593 4.1761C24.1573 4.63412 23.9342 5.06345 23.6087 5.42796C23.2833 5.79247 22.8651 6.08151 22.3893 6.27076C22.0976 6.38859 21.6687 6.43834 21.4791 6.19222C21.4913 6.51697 21.3936 6.83741 21.1988 7.11132C21.004 7.38522 20.7213 7.59972 20.388 7.72655C19.9037 7.90198 19.3611 7.87318 18.8505 7.98838C18.34 8.10359 17.809 8.4047 17.7828 8.87338L17.5669 5.61618L18.588 2.73603L21.7241 1.0603L25.082 1.57349Z" fill="#263238"/>
<path d="M19.5212 6.9408C19.7237 6.82155 19.8979 6.66768 20.0341 6.48798C20.1702 6.30827 20.2656 6.10626 20.3148 5.89348C20.4389 5.43859 20.5122 4.97372 20.5336 4.50577C20.5571 3.92976 20.6312 3.35631 20.7553 2.79077C20.8814 2.21891 21.1767 1.68804 21.6101 1.25381C21.802 1.06641 22.0342 0.915882 22.2927 0.811315C22.5184 0.720537 22.7606 0.667305 23.0075 0.654214C23.3658 0.62769 23.7243 0.703773 24.0315 0.871536C24.078 0.898071 24.1228 0.926918 24.1657 0.957941C24.1984 0.980612 24.2287 1.00604 24.2561 1.03387L24.3232 1.09933C24.2317 1.02332 24.1342 0.953317 24.0315 0.889866C23.7269 0.732126 23.3751 0.663487 23.025 0.693492C22.5038 0.728179 22.0172 0.940894 21.6655 1.28785C21.2427 1.7183 20.9539 2.24123 20.8282 2.80386C20.7073 3.36638 20.6322 3.93606 20.6036 4.50838C20.5821 4.97976 20.5038 5.44767 20.3702 5.90395C20.2761 6.21333 20.0977 6.49679 19.8509 6.72872C19.7557 6.81615 19.6441 6.88792 19.5212 6.9408Z" fill="#455A64"/>
<path d="M16.7966 6.54811C16.9608 6.5322 17.1218 6.49608 17.2751 6.44076C17.6821 6.26555 18.0281 5.99396 18.2757 5.65527C18.4557 5.42686 18.6101 5.18305 18.7367 4.92737C18.8709 4.63094 18.9574 4.31883 18.9934 4.00048C19.0372 3.66272 19.0518 3.30663 19.0955 2.93483C19.1172 2.74641 19.1513 2.55931 19.1976 2.37451C19.2458 2.18406 19.3142 1.99818 19.4019 1.81942C19.7535 1.13535 20.378 0.594431 21.1523 0.303415C21.7846 0.0713454 22.4836 0.0290943 23.1448 0.182972C23.5882 0.279853 24.0044 0.458156 24.3672 0.706635C24.499 0.797515 24.6202 0.900154 24.7289 1.01298L24.7056 0.994652L24.6356 0.937048C24.6035 0.910865 24.5656 0.876827 24.5189 0.842789C24.4722 0.80875 24.4168 0.76424 24.3526 0.724965C23.9896 0.482925 23.5758 0.309254 23.1361 0.214391C22.4837 0.0696269 21.7969 0.115491 21.1756 0.345307C20.4154 0.632895 19.8024 1.16524 19.4573 1.83775C19.3705 2.01322 19.3022 2.19554 19.2531 2.38236C19.2089 2.56565 19.1758 2.75095 19.1539 2.93745C19.1101 3.30401 19.0926 3.6601 19.0459 4.00048C19.0095 4.32383 18.92 4.64057 18.7805 4.94046C18.6507 5.19763 18.4924 5.44238 18.3078 5.67098C18.0538 6.01361 17.6981 6.28568 17.2809 6.45647C17.1658 6.49754 17.0452 6.52483 16.9221 6.53764H16.8258L16.7966 6.54811Z" fill="#455A64"/>
<path d="M21.4732 6.19706C21.4732 6.19706 21.4732 6.19706 21.4732 6.22586C21.4732 6.25467 21.4732 6.27299 21.4732 6.30703C21.4732 6.34107 21.4732 6.38558 21.4557 6.43795L21.4149 6.616C21.3676 6.77847 21.2981 6.93503 21.2077 7.08206C21.0816 7.27631 20.9129 7.44556 20.7118 7.57954C20.1554 7.90626 19.4921 8.05395 18.8301 7.99847C18.4358 7.9811 18.0447 7.92669 17.6631 7.83613C17.2474 7.74212 16.8479 7.59765 16.4758 7.40673L16.3999 7.36745H16.4874C16.9615 7.30456 17.422 7.17651 17.8527 6.9878H17.8761L17.8936 7.04016C16.921 7.17994 15.9243 7.01932 15.0667 6.58458L15.0112 6.55577L15.0725 6.53744C15.6771 6.37366 16.2449 6.11575 16.75 5.77551C17.1442 5.5059 17.4472 5.14331 17.6252 4.72818C17.7284 4.45521 17.7768 4.16799 17.7681 3.87985C17.7681 3.78035 17.7681 3.70442 17.7477 3.64944V3.55518C17.7485 3.56127 17.7485 3.56742 17.7477 3.57351C17.7456 3.59353 17.7456 3.6137 17.7477 3.63373L17.774 3.86414C17.7901 4.15504 17.7466 4.44614 17.6456 4.72295C17.4703 5.14518 17.1672 5.51513 16.7704 5.79122C16.2645 6.14199 15.6923 6.40808 15.0812 6.57672V6.52959C15.9285 6.95563 16.9113 7.11247 17.8703 6.9747L18.0803 6.94329L17.8878 7.02707H17.8644C17.4289 7.21928 16.9622 7.34831 16.4816 7.40935V7.3596C16.8481 7.54697 17.2405 7.69046 17.6485 7.78639C18.0299 7.87783 18.4212 7.93226 18.8155 7.94872C19.4663 8.00787 20.1202 7.8676 20.6709 7.55073C20.8704 7.42193 21.0374 7.25689 21.161 7.06635C21.2539 6.92318 21.3265 6.77012 21.3769 6.61076C21.3944 6.5453 21.409 6.4877 21.4207 6.43533C21.4324 6.38296 21.4382 6.34107 21.444 6.30441L21.4586 6.22325L21.4732 6.19706Z" fill="#455A64"/>
<path d="M14.7662 15.1021C14.7487 15.1021 14.9471 13.4342 15.2096 11.3815C15.4722 9.32872 15.6969 7.66609 15.7144 7.6687C15.7319 7.67132 15.5335 9.33395 15.2709 11.3893C15.0083 13.4447 14.7837 15.1047 14.7662 15.1021Z" fill="#455A64"/>
<path d="M16.6215 15.5081C16.6187 15.4846 16.6187 15.461 16.6215 15.4375C16.6215 15.3851 16.6215 15.3196 16.601 15.2358C16.601 15.0604 16.566 14.8064 16.5485 14.4922C16.5106 13.8665 16.4785 12.9998 16.4785 12.0415C16.4785 11.0832 16.5223 10.2087 16.5631 9.58812C16.5835 9.27392 16.604 9.01994 16.6215 8.84452C16.6215 8.76335 16.6215 8.69527 16.6419 8.6429C16.6389 8.62029 16.6389 8.59744 16.6419 8.57483C16.6458 8.59827 16.6458 8.62209 16.6419 8.64552C16.6419 8.69789 16.6419 8.76335 16.6419 8.84714C16.6419 9.0278 16.6185 9.28177 16.604 9.58812C16.5748 10.2165 16.5427 11.0832 16.5398 12.0415C16.5369 12.9998 16.5631 13.8743 16.5894 14.4922C16.5894 14.8012 16.6156 15.0526 16.6215 15.2332C16.6215 15.317 16.6215 15.3851 16.6215 15.4375V15.5081Z" fill="#455A64"/>
<path d="M2.19238 30.2381C2.19238 30.2381 2.23031 30.1779 2.32367 30.0942C2.45782 29.9744 2.60545 29.8674 2.76419 29.775C3.29107 29.4621 3.91045 29.2981 4.54232 29.3041C5.17419 29.3102 5.78951 29.486 6.3088 29.809C6.46568 29.9035 6.61047 30.0132 6.74056 30.1361C6.83392 30.2224 6.87476 30.2774 6.86893 30.2826C6.86309 30.2878 6.65013 30.1047 6.25337 29.8875C5.74001 29.5975 5.14706 29.4408 4.5404 29.4348C3.93373 29.4287 3.33707 29.5737 2.8167 29.8535C2.41411 30.0654 2.20989 30.2617 2.19238 30.2381Z" fill="#6F4439"/>
<path d="M11.8107 23.4547C11.8107 23.4547 11.7816 23.4416 11.7378 23.3997L11.7786 23.3735C12.0992 23.6772 12.3965 24 12.6684 24.3397C12.982 24.6861 13.2668 25.0528 13.5203 25.4368C13.1534 25.1331 12.8283 24.7911 12.5517 24.4182C12.1666 23.9548 11.8457 23.5568 11.7407 23.4023L11.7786 23.3762C11.8078 23.4207 11.8195 23.4547 11.8107 23.4547Z" fill="#6F4439"/>
<path d="M34.3562 39.4108C34.3817 39.4816 34.4002 39.5543 34.4116 39.6281L34.5429 40.2539C34.5692 40.39 34.6042 40.5419 34.6304 40.7095C34.6567 40.877 34.6654 41.0603 34.6829 41.2567C34.7004 41.4531 34.7209 41.6625 34.7442 41.8851C34.7676 42.1076 34.7442 42.3459 34.7442 42.592C34.7413 43.7549 34.6143 44.9149 34.365 46.0561C34.0605 47.452 33.6422 48.8259 33.1134 50.1668C32.5708 51.5991 31.9465 52.9292 31.3776 54.1336C30.8087 55.338 30.2486 56.4063 29.7905 57.307L28.6936 59.4331C28.5682 59.674 28.466 59.8677 28.4019 60.0091C28.3709 60.0776 28.3328 60.1434 28.2881 60.2055C28.3128 60.1351 28.342 60.066 28.3756 59.9986C28.4456 59.8546 28.5361 59.6582 28.6673 59.4121C28.9124 58.9042 29.2742 58.171 29.7234 57.2677C30.1727 56.3644 30.7124 55.2909 31.2813 54.0865C31.8502 52.882 32.4628 51.5519 33.0026 50.1249C33.5285 48.7891 33.9487 47.4215 34.2599 46.0325C34.5139 44.8995 34.6496 43.7477 34.6654 42.592C34.6654 42.3459 34.68 42.1103 34.6654 41.8877C34.6509 41.6651 34.6334 41.4583 34.6159 41.2619L34.575 40.7173C34.5546 40.5497 34.5225 40.3979 34.5021 40.2617C34.4593 39.9981 34.4243 39.7887 34.397 39.6333C34.3775 39.5601 34.3639 39.4857 34.3562 39.4108Z" fill="#6F4439"/>
<path d="M32.4543 20.9515C32.498 20.9515 32.2705 21.6742 32.0867 22.5697C31.9029 23.4651 31.8416 24.2009 31.7949 24.1983C31.7686 24.0368 31.7686 23.8727 31.7949 23.7112C31.8201 23.3204 31.8718 22.9313 31.9495 22.5461C32.0289 22.1605 32.1331 21.7793 32.2617 21.4045C32.3023 21.2463 32.3671 21.0938 32.4543 20.9515Z" fill="#6F4439"/>
<path d="M9.65186 40.5523C9.65186 40.5523 19.11 40.259 22.993 47.8024C22.993 47.8024 27.9875 41.7803 34.4728 41.4346C34.4728 41.4346 35.5056 39.1122 30.8524 30.8723C30.8524 30.8723 33.1337 28.254 32.1068 25.1434C31.2725 22.6299 30.2193 17.854 30.2193 17.854L29.0202 17.6943C29.0202 17.6943 26.2488 21.9962 23.6231 21.97C19.568 21.9281 17.6134 17.1183 17.6134 17.1183L15.5362 17.5398L13.3598 26.0939L13.6691 31.9642C12.5692 33.1424 10.425 35.7607 9.65186 40.5523Z" fill="#E93E25"/>
<path d="M23.769 27.7985C23.769 27.7985 23.769 27.8325 23.769 27.898C23.769 27.9634 23.7428 28.0629 23.7019 28.1834C23.5926 28.5284 23.4243 28.856 23.2031 29.1548C22.8335 29.6488 22.3448 30.0619 21.7731 30.3633C21.2014 30.6648 20.5614 30.8468 19.9006 30.8959C19.1711 30.9301 18.4429 30.8109 17.7738 30.5477C17.2289 30.3379 16.7269 30.0477 16.2889 29.6889C15.9923 29.4547 15.7261 29.1912 15.4954 28.9034C15.4311 28.8258 15.3726 28.7444 15.3203 28.6599C15.2979 28.6328 15.2802 28.6027 15.2678 28.5709C15.5945 28.9528 15.9587 29.3077 16.356 29.6313C16.791 29.9712 17.2833 30.2469 17.8147 30.4482C18.4664 30.6972 19.1729 30.8092 19.8802 30.7755C20.5851 30.7258 21.2656 30.5208 21.8611 30.1785C22.3508 29.9008 22.7742 29.5386 23.1068 29.1129C23.4057 28.71 23.6294 28.266 23.769 27.7985Z" fill="#263238"/>
<path d="M29.0584 32.0424C28.9063 32.0451 28.7541 32.0373 28.6033 32.0188C28.3116 32.0005 27.8856 31.9717 27.3605 31.9534C26.3103 31.9089 24.8603 31.9011 23.2587 31.9351C21.6571 31.9691 20.2042 32.0476 19.1569 32.1157L17.9141 32.202C17.7632 32.219 17.6111 32.226 17.459 32.2229C17.606 32.1864 17.7563 32.1619 17.9083 32.1497C18.2 32.1157 18.623 32.0686 19.1481 32.0241C20.1955 31.9299 21.6483 31.8435 23.2529 31.8043C24.8574 31.765 26.3161 31.8043 27.3664 31.8618C27.8915 31.8906 28.3174 31.9325 28.6092 31.9691C28.7611 31.9813 28.9115 32.0058 29.0584 32.0424Z" fill="#263238"/>
<g opacity="0.3">
<path d="M15.79 29.393C16.0075 29.933 16.4178 30.3932 16.957 30.7022C17.8091 31.2374 18.8338 31.5062 19.873 31.4669C20.9122 31.4276 21.9081 31.0825 22.7071 30.4848C23.094 30.2123 23.4022 29.8603 23.6057 29.4585C23.7071 29.2581 23.7625 29.0415 23.7685 28.8215C23.7745 28.6015 23.731 28.3827 23.6407 28.1781C23.2585 29.1364 22.6838 29.9167 21.403 30.4089C20.5248 30.7909 19.5378 30.9242 18.5732 30.7912C17.614 30.6027 16.7322 30.1784 16.0263 29.5658" fill="black"/>
</g>
<path d="M14.635 31.917C14.635 31.917 12.3419 31.6814 12.0093 31.9013C11.6768 32.1213 10.0109 34.8757 10.0109 34.8757L9.34577 35.0983L8.38013 37.4548C8.38013 37.4548 9.99051 38.7352 10.078 38.4864C10.1656 38.2377 10.7344 36.6143 10.7344 36.6143C10.7344 36.6143 13.0917 36.2216 13.3338 35.8838C13.5759 35.546 13.2113 34.991 13.2113 34.991H11.3996C11.3996 34.991 14.0952 34.682 14.4191 34.483C14.8684 34.2055 14.7342 33.8939 14.7342 33.8939C14.7342 33.8939 15.3176 33.687 15.3876 33.4147C15.4868 33.0874 15.0726 32.9356 15.0726 32.9356L12.6074 32.7994C12.6074 32.7994 15.3614 33.0403 14.635 31.917Z" fill="#AE7461"/>
<path d="M9.91162 36.2834C9.92683 36.1013 9.98132 35.9236 10.0721 35.7601C10.1522 35.5718 10.2754 35.4006 10.4338 35.2577C10.5469 35.1898 10.6723 35.1402 10.8043 35.1111C10.9356 35.0771 11.0698 35.051 11.2099 35.0274C11.6832 34.9479 12.1636 34.9076 12.6452 34.907C12.8446 34.8853 13.0468 34.9143 13.2287 34.9908C13.2287 35.0039 13.0069 34.9725 12.6452 34.9908C12.1716 35.0192 11.7002 35.0716 11.2332 35.1478C11.0961 35.1713 10.9648 35.1975 10.8423 35.2263C10.7273 35.2505 10.6172 35.2902 10.5155 35.344C10.3673 35.4717 10.2474 35.6236 10.1625 35.7915C10.0887 35.9593 10.005 36.1236 9.91162 36.2834Z" fill="#6F4439"/>
<path d="M11.4841 33.6999C12.0215 33.5784 12.5789 33.5447 13.1295 33.6005C13.6833 33.612 14.2305 33.7112 14.7457 33.8935C14.7457 33.9302 14.0193 33.781 13.1178 33.7287C12.2164 33.6764 11.487 33.7365 11.4841 33.6999Z" fill="#6F4439"/>
</svg>
