<svg width="47" height="94" viewBox="0 0 47 94" fill="none" xmlns="http://www.w3.org/2000/svg">
<path d="M26.1944 83.5C26.3218 83.9877 26.1021 86.6435 25.8314 87.0962C25.5173 87.5314 25.2601 87.9906 25.0639 88.4666C24.969 88.7056 24.9535 88.9597 25.0187 89.2048C25.0839 89.4499 25.2277 89.6778 25.4365 89.8671C26.0957 90.3672 27.153 90.1972 28.0702 90.2047C30.4651 90.2197 32.6721 91.6626 35.0352 91.3575C35.5299 91.3078 35.9923 91.1372 36.3568 90.8699C36.5349 90.7345 36.662 90.5632 36.7244 90.3749C36.7867 90.1865 36.7819 89.9884 36.7103 89.802C36.4237 89.1843 35.4205 89.0518 34.6052 88.8942C32.9205 88.5716 30.8186 87.2912 29.8632 86.1709L30.8186 84.4978L26.1944 83.5Z" fill="#644637"/>
<path d="M38.7962 19.4919C39.207 19.617 40.8726 21.0474 41.7516 23.5933C42.6306 26.1391 41.8503 32.096 42.828 34.3767C44.1455 37.5936 45 40.9162 45.3758 44.2824L45.9649 47.466H42.7325C42.7325 47.466 38.3917 35.5646 36.8408 32.006C35.2898 28.4473 38.7962 19.4919 38.7962 19.4919Z" fill="#644637"/>
<path d="M42.8057 48.1611C42.8057 48.2587 41.9204 49.6616 42 50.9445C42.0796 52.2275 42.2006 54.2231 42.2006 54.2231C42.2006 54.2231 42.8853 54.3856 43.1274 53.6329C43.2815 53.0398 43.3499 52.435 43.3312 51.8298L43.8535 52.1249V53.8305C43.8535 53.8305 42.2006 54.3556 42.3216 55.1084L43.8535 54.9783L45.1051 54.6832L46.1974 53.7329L47 50.687C46.6705 49.9138 46.4025 49.1254 46.1974 48.3262C45.7675 46.4106 45.5923 45.4678 45.5923 45.4678L42.3853 46.5206L42.8057 48.1611Z" fill="#644637"/>
<path d="M38.1434 11.8293C37.904 11.8427 37.6644 11.8048 37.4502 11.7199C37.236 11.6349 37.0551 11.5059 36.9268 11.3466C37.2378 11.4234 37.5712 11.4234 37.8822 11.3466C38.1752 11.2416 38.3599 10.914 38.1434 10.7239C37.9746 10.5739 37.6848 10.5889 37.4332 10.5639C37.1407 10.532 36.8658 10.4357 36.6404 10.2861C36.4149 10.1365 36.2481 9.93968 36.1593 9.7186C35.9746 9.21843 36.2007 8.71827 36.309 8.21811C36.456 7.48131 36.3493 6.72702 35.9998 6.03354C35.6504 5.34005 35.071 4.73264 34.3217 4.27434L30.3918 2.2937C28.8408 3.71166 28.2644 5.67979 28.4587 7.54539C28.6529 9.411 29.551 11.1866 30.6561 12.8446C30.959 13.3352 31.3423 13.7925 31.7962 14.205C32.2561 14.6192 32.8796 14.9001 33.5669 15.0028C33.6695 14.7823 33.703 14.5456 33.6648 14.3128C33.6265 14.08 33.5176 13.8578 33.3472 13.6649C33.8931 13.7101 34.445 13.6683 34.9698 13.542C35.4946 13.4156 35.9815 13.2073 36.4013 12.9296L35.5669 12.377C36.0213 12.4375 36.4869 12.4199 36.9317 12.3253C37.3765 12.2307 37.7899 12.0615 38.1434 11.8293Z" fill="#263238"/>
<path d="M22.8949 6.08505C22.9488 5.44997 23.2606 4.8452 23.7845 4.35953C24.3084 3.87387 25.0168 3.5329 25.8057 3.38668L30.9363 2.43638C33.1496 2.28133 34.5732 4.43702 34.6783 6.18759C34.7929 8.12321 34.8439 10.1639 34.5254 11.6018C33.8885 14.4953 31.0414 14.8279 31.0414 14.8279C31.0414 14.8279 30.9808 17.4537 30.9586 18.3015L28.1305 22.4353L23.4618 16.831L22.8822 6.12006C22.8822 6.06505 22.8885 6.15257 22.8949 6.08505Z" fill="#644637"/>
<path d="M33.2484 8.46321C33.246 8.55993 33.1965 8.65224 33.11 8.72111C33.0234 8.78998 32.9066 8.83015 32.7834 8.83333C32.723 8.83637 32.6624 8.82985 32.6052 8.81415C32.5481 8.79845 32.4955 8.77389 32.4507 8.74194C32.4058 8.70999 32.3696 8.67128 32.3441 8.62813C32.3187 8.58498 32.3046 8.53825 32.3026 8.49072C32.3025 8.39384 32.3509 8.30082 32.4372 8.23162C32.5235 8.16242 32.641 8.12256 32.7643 8.1206C32.8249 8.11756 32.8857 8.12407 32.943 8.13974C33.0004 8.15541 33.0532 8.17993 33.0983 8.21185C33.1434 8.24377 33.1799 8.28245 33.2057 8.32562C33.2314 8.36879 33.246 8.41557 33.2484 8.46321Z" fill="#263238"/>
<path d="M34.0957 7.31545C34.0383 7.36297 33.6816 7.1504 33.1721 7.1454C32.6625 7.1404 32.2867 7.33546 32.2326 7.28544C32.1785 7.23543 32.2676 7.17791 32.43 7.08538C32.6533 6.96864 32.9167 6.90842 33.1848 6.91282C33.4503 6.91687 33.7075 6.98594 33.9205 7.11039C34.0765 7.19291 34.1275 7.28294 34.0957 7.31545Z" fill="#263238"/>
<path d="M28.7835 8.3633C28.7827 8.46041 28.7337 8.55343 28.6468 8.62256C28.56 8.69169 28.4422 8.73147 28.3185 8.73342C28.2584 8.73646 28.198 8.73002 28.1411 8.71448C28.0841 8.69893 28.0317 8.6746 27.9869 8.64291C27.9421 8.61122 27.9058 8.57281 27.8802 8.52994C27.8545 8.48708 27.8401 8.44063 27.8377 8.39331C27.8377 8.29601 27.8864 8.20262 27.9735 8.13335C28.0605 8.06408 28.1787 8.02451 28.3026 8.02319C28.3628 8.02015 28.4231 8.02659 28.4801 8.04214C28.5371 8.05768 28.5895 8.08202 28.6343 8.11371C28.6791 8.1454 28.7154 8.18381 28.741 8.22667C28.7666 8.26953 28.7811 8.31599 28.7835 8.3633Z" fill="#263238"/>
<path d="M29.2579 7.23542C29.1974 7.28294 28.8439 7.07037 28.3343 7.06537C27.8248 7.06037 27.4458 7.25543 27.3789 7.20541C27.3121 7.1554 27.414 7.09538 27.5796 7.00535C27.8025 6.88816 28.0661 6.8279 28.3343 6.8328C28.5986 6.83529 28.8551 6.90359 29.0668 7.02786C29.2261 7.12539 29.2866 7.21291 29.2579 7.23542Z" fill="#263238"/>
<path d="M30.7773 10.4015C31.0476 10.3386 31.3268 10.3025 31.6085 10.294C31.7391 10.294 31.8633 10.2665 31.8856 10.1964C31.8989 10.0908 31.8712 9.98438 31.806 9.89134C31.6881 9.64126 31.5639 9.39118 31.4365 9.10859C30.9238 7.99573 30.5544 7.07794 30.6117 7.06293C30.669 7.04793 31.1308 7.93821 31.6435 9.06358C31.7677 9.33867 31.8856 9.59875 31.997 9.85133C32.0766 9.97499 32.097 10.117 32.0544 10.2515C32.0355 10.2876 32.006 10.3198 31.9684 10.3454C31.9308 10.3711 31.8861 10.3894 31.8378 10.399C31.7664 10.4147 31.6922 10.4214 31.6181 10.419C31.338 10.4415 31.0554 10.4356 30.7773 10.4015Z" fill="#263238"/>
<path d="M26.1687 13.7151C26.1687 13.7151 27.3248 15.7157 31.0254 15.4982V14.8154C29.3083 14.807 27.6276 14.4262 26.1687 13.7151Z" fill="#422E24"/>
<path d="M29.121 5.93759C29.07 6.04513 28.5605 5.98761 27.9617 6.03762C27.363 6.08764 26.8758 6.20768 26.7993 6.11015C26.7643 6.06263 26.8503 5.9626 27.0477 5.86007C27.3111 5.73456 27.6073 5.65764 27.914 5.63512C28.2208 5.61259 28.53 5.64504 28.8184 5.73003C29.035 5.80005 29.1433 5.88757 29.121 5.93759Z" fill="#263238"/>
<path d="M33.9586 6.07753C33.8663 6.16756 33.5191 6.07753 33.0956 6.05753C32.672 6.03752 32.3153 6.11004 32.2357 6.01501C32.2007 5.9675 32.258 5.87747 32.4172 5.79244C32.628 5.69029 32.8737 5.64141 33.121 5.6524C33.3693 5.65896 33.6087 5.72628 33.8058 5.84496C33.9523 5.93999 34.0032 6.03252 33.9586 6.07753Z" fill="#263238"/>
<path d="M28.8219 11.1116C28.8623 10.9932 28.9541 10.8897 29.0815 10.8189C29.2089 10.7481 29.3638 10.7145 29.5194 10.724C29.6324 10.7373 29.7396 10.772 29.8317 10.8252C29.9238 10.8783 29.9981 10.9483 30.048 11.0291C30.0929 11.1121 30.116 11.2014 30.116 11.2917C30.116 11.3819 30.0929 11.4712 30.048 11.5542V11.5892C29.94 11.678 29.7998 11.7384 29.6464 11.7621C29.4931 11.7858 29.3341 11.7718 29.1913 11.7218C29.0532 11.6658 28.9423 11.5758 28.8755 11.4656C28.8088 11.3554 28.79 11.231 28.8219 11.1116Z" fill="#422E24"/>
<path d="M30.4237 11.6044C30.4237 11.5444 29.9078 11.5544 29.5288 11.2168C29.1499 10.8792 29.1881 10.4465 29.1148 10.4465C29.0416 10.4465 29.0193 10.5441 29.0193 10.7266C29.027 10.9642 29.1396 11.1922 29.3378 11.3718C29.53 11.5435 29.7993 11.6501 30.0893 11.6694C30.2995 11.6794 30.4269 11.6319 30.4237 11.6044Z" fill="#263238"/>
<path d="M24.8694 1.53608C25.6262 0.76162 26.7145 0.228587 27.9331 0.0355979C29.1433 -0.0869416 29.8599 0.100619 30.6146 0.695811C30.9327 0.971468 31.3302 1.18328 31.7739 1.31351C32.3471 1.42355 32.8312 1.36603 33.5031 1.66612C34.4172 2.07876 34.777 3.07908 35.1592 3.84933C35.6465 4.80464 36.363 5.69492 36.656 6.70025C36.949 7.70557 36.691 8.91346 35.5923 9.47364C35.8184 8.7234 36.0222 7.89313 35.6656 7.19041C35.7012 7.46712 35.6621 7.74662 35.5509 8.01067C35.4183 7.54789 35.1645 7.11184 34.8057 6.73026C34.4363 6.39265 33.9076 6.18008 33.5318 5.84997C32.9713 5.34981 32.742 4.64708 32.0446 4.28447C31.3471 3.92185 30.3726 4.04689 29.4968 4.01938C28.7672 3.99047 28.055 3.83375 27.4125 3.56071C26.7699 3.28767 26.2133 2.90522 25.7834 2.44137H26C25.5732 2.18076 25.1929 1.87627 24.8694 1.53608Z" fill="#263238"/>
<path d="M19.0352 8.42081C19.4174 7.58054 20.0448 6.82279 20.4588 5.99252C20.8728 5.16226 21.0607 4.31198 21.5766 3.54423C22.274 2.5114 23.5352 1.18597 25.3759 1.33102L25.4938 1.42105C26.1261 1.3865 26.7598 1.47229 27.3409 1.67113L27.3027 2.79899L27.6403 3.04908L27.1785 3.68678C27.0454 4.10673 26.8631 4.5161 26.6339 4.90967C26.4044 5.29747 26.0797 5.6459 25.6785 5.93501C22.1498 11.7844 25.0065 12.267 23.3728 15.6331L22.5893 13.6325C21.8385 13.2552 21.2502 12.7087 20.9014 12.0645C20.8346 12.267 20.7709 12.4721 20.7072 12.6772C20.0129 12.0454 19.621 11.2432 19.5989 10.4089L19.1499 10.9891C18.5416 10.2489 18.6435 9.26108 19.0352 8.42081Z" fill="#263238"/>
<path d="M24.4491 8.40074C24.4045 8.30321 22.1466 7.62549 22.0733 9.5236C22.0001 11.3667 24.3791 11.0241 24.3822 10.9841C24.3854 10.9441 24.4491 8.40074 24.4491 8.40074Z" fill="#644637"/>
<path d="M23.6913 10.269C23.6913 10.269 23.6499 10.2915 23.5798 10.314C23.5295 10.3311 23.4753 10.3399 23.4206 10.3399C23.3658 10.3399 23.3116 10.3311 23.2613 10.314C23.1118 10.2356 22.9916 10.1273 22.9132 10.0003C22.8348 9.87321 22.8011 9.73202 22.8155 9.59129C22.8154 9.43304 22.86 9.27673 22.946 9.13364C22.9681 9.07429 23.0088 9.02026 23.0645 8.97655C23.1201 8.93284 23.1889 8.90086 23.2645 8.88356C23.3114 8.87459 23.3608 8.87896 23.4039 8.8959C23.4471 8.91284 23.4812 8.94126 23.5002 8.97609C23.532 9.02861 23.5161 9.06612 23.5288 9.06862C23.5416 9.07112 23.5798 9.03861 23.5639 8.96358C23.5524 8.91747 23.5209 8.87592 23.4747 8.84605C23.4107 8.80647 23.3297 8.78767 23.2486 8.79353C23.152 8.80629 23.0612 8.83828 22.9848 8.88643C22.9084 8.93459 22.849 8.99731 22.8123 9.06862C22.7093 9.22301 22.6547 9.39448 22.653 9.56878C22.653 9.9389 22.8855 10.2915 23.2231 10.3765C23.2855 10.3925 23.3518 10.3972 23.4168 10.3903C23.4819 10.3833 23.5441 10.365 23.5989 10.3365C23.6849 10.3165 23.6976 10.274 23.6913 10.269Z" fill="#422E24"/>
<path d="M23.4173 10.5916C23.3009 10.5715 23.1791 10.587 23.0768 10.635C22.9744 10.683 22.8993 10.7598 22.8666 10.8498C22.8339 10.9398 22.8462 11.0362 22.9009 11.1194C22.9556 11.2025 23.0486 11.2661 23.161 11.2973C23.2734 11.3284 23.3966 11.3248 23.5057 11.287C23.6147 11.2492 23.7013 11.1802 23.7478 11.094C23.7943 11.0079 23.7972 10.911 23.7559 10.8232C23.7146 10.7354 23.6322 10.6633 23.5256 10.6216" fill="white"/>
<path d="M23.5255 10.6216C23.6241 10.6868 23.6952 10.7741 23.7293 10.8717C23.7452 10.9223 23.7445 10.9752 23.7272 11.0255C23.71 11.0758 23.6767 11.1218 23.6306 11.1593C23.577 11.2066 23.5068 11.2405 23.4289 11.2567C23.3509 11.2729 23.2686 11.2707 23.1922 11.2505C23.1158 11.2302 23.0487 11.1927 22.9992 11.1427C22.9498 11.0927 22.9201 11.0324 22.914 10.9692C22.9073 10.9177 22.9168 10.8656 22.9418 10.8176C22.9668 10.7696 23.0065 10.7272 23.0574 10.6941C23.1611 10.6318 23.2867 10.596 23.4172 10.5916C23.4172 10.5916 23.379 10.5716 23.3058 10.5691C23.2001 10.5698 23.0974 10.597 23.0128 10.6466C22.9464 10.6836 22.8933 10.7334 22.8587 10.7912C22.8241 10.8491 22.8091 10.913 22.8153 10.9767C22.8201 11.0562 22.8552 11.1327 22.9163 11.1962C22.9773 11.2597 23.0613 11.3073 23.1573 11.3327C23.2533 11.3581 23.3568 11.3601 23.4544 11.3386C23.5519 11.317 23.6388 11.2728 23.7038 11.2118C23.7589 11.1648 23.7971 11.1071 23.8144 11.0447C23.8318 10.9823 23.8277 10.9174 23.8026 10.8567C23.775 10.7763 23.7132 10.7057 23.6274 10.6566C23.5669 10.6216 23.5255 10.6166 23.5255 10.6216Z" fill="#263238"/>
<path d="M27.4171 3.50415C27.2043 3.06958 26.9207 2.65852 26.5732 2.28126C26.1827 1.93045 25.7376 1.61958 25.2484 1.35596C25.4227 1.38891 25.5872 1.44839 25.7324 1.53101C26.0972 1.71212 26.4202 1.94042 26.6878 2.20623C26.9577 2.47186 27.1667 2.77225 27.3057 3.09402C27.3801 3.22282 27.4181 3.36273 27.4171 3.50415Z" fill="#455A64"/>
<path d="M36.4588 30.1452C36.9242 29.7816 37.3249 29.3702 37.6499 28.9223C38.3772 27.8135 38.6719 26.5608 38.497 25.3211C38.3009 24.0843 37.8872 22.8749 37.2677 21.7274C37.0448 21.2973 36.8632 20.9422 36.7263 20.6721C36.6529 20.5457 36.5911 20.4153 36.5416 20.282C36.6354 20.4007 36.7163 20.5253 36.7836 20.6546C36.9269 20.9047 37.1339 21.2498 37.3728 21.6924C38.023 22.8425 38.4523 24.062 38.6467 25.3111C38.8249 26.5748 38.5083 27.8511 37.739 28.9698C37.4978 29.3019 37.2011 29.6072 36.8569 29.8776C36.7628 29.9508 36.664 30.0201 36.5607 30.0851C36.5304 30.1088 36.4961 30.1289 36.4588 30.1452Z" fill="#FF9A6C"/>
<path d="M16.395 16.0081L13.9492 23.3605L16.0957 28.9248L18.1848 38.1653L30.6497 38.6929L38.7962 36.2446L36.8408 32.0058L38.7962 19.4917L30.4523 16.6158L18.1848 15.4504L16.395 16.0081Z" fill="#644637"/>
<path d="M16.5573 37.8379C16.379 38.273 15.8344 45.2078 16.6529 49.4091C17.4713 53.6105 20.3917 62.9835 20.2134 65.0842C20.035 67.1849 19.3216 73.9245 19.6783 76.5329C20.035 79.1412 21.6401 85.5908 21.6401 85.5908L26.5414 85.3007C26.5414 85.3007 28.414 70.6635 28.5031 69.2155C28.5923 67.7675 29.8407 64.9391 29.484 61.7131C29.1273 58.487 29.5477 46.2406 29.5477 46.2406V38.3456L16.5573 37.8379Z" fill="#644637"/>
<path d="M39.2549 35.7146C39.2549 35.7146 41.118 39.5908 41.7581 43.317C42.3982 47.0433 41.6753 50.8195 40.5065 53.7804C39.3377 56.7414 37.1594 62.6208 36.8154 65.0115C36.4715 67.4023 35.9779 71.181 35.0543 74.4421C34.1307 77.7031 30.4492 85.0905 30.4492 85.0905L26.9046 84.8129L28.1339 44.9476L29.2263 38.3254L39.2549 35.7146Z" fill="#644637"/>
<path d="M41.6752 49.1765C41.6758 49.1085 41.6844 49.0407 41.7007 48.974C41.7198 48.8439 41.7708 48.6514 41.7994 48.4013C41.8938 47.6943 41.9395 46.9839 41.9364 46.2731C41.9226 43.9272 41.5657 41.5903 40.8727 39.3083C40.6769 38.6595 40.428 38.0213 40.1274 37.3977C39.809 36.795 39.5415 36.2048 39.293 35.6472L38.5861 34.0491C38.3631 33.549 38.1211 33.0938 37.9491 32.6587C37.6668 31.9775 37.5165 31.2668 37.5032 30.5505C37.5028 30.3567 37.5166 30.1629 37.5446 29.9703C37.5526 29.9026 37.5686 29.8356 37.5924 29.7703C37.5974 29.8377 37.5974 29.9054 37.5924 29.9728C37.574 30.165 37.5686 30.3579 37.5765 30.5505C37.6139 31.2596 37.779 31.961 38.0669 32.6337C38.2389 33.0613 38.4873 33.514 38.7039 34.0141L39.4268 35.6096C39.6784 36.1723 39.9587 36.7525 40.2676 37.3602C40.5723 37.9885 40.8244 38.6317 41.0223 39.2858C41.7201 41.5792 42.0623 43.9303 42.0414 46.2881C42.0357 47.0015 41.9729 47.714 41.8535 48.4213C41.8153 48.6714 41.7548 48.8639 41.7262 48.994C41.7157 49.0558 41.6986 49.1169 41.6752 49.1765Z" fill="#422E24"/>
<path d="M17.1242 36.9524C16.4734 38.7928 16.1803 40.7 16.2548 42.6092L31.0222 46.8405L41.3757 40.351C41.3757 40.351 40.1942 36.2846 38.8088 34.4666L17.1242 36.9524Z" fill="#E93E25"/>
<path d="M28.7582 93.2983C28.7353 93.2625 28.7151 93.2258 28.6976 93.1882C28.6562 93.1082 28.6053 92.9982 28.5352 92.8556C28.3951 92.563 28.1945 92.1279 27.9492 91.5677C27.704 91.0075 27.4047 90.3173 27.0989 89.5095C26.9333 89.0771 26.7972 88.638 26.6913 88.1941C26.5849 87.6981 26.5253 87.1965 26.5129 86.6936C26.4461 85.6233 26.7327 84.4704 26.9301 83.2375C27.1276 82.0046 27.376 80.6792 27.618 79.2887C28.1085 76.5103 28.618 73.4494 29.2104 70.2483C30.1962 64.7753 30.7281 59.2577 30.8027 53.7305C30.8346 51.6098 30.8027 49.8918 30.7581 48.7064C30.739 48.1187 30.7199 47.6585 30.7104 47.3409C30.7104 47.1884 30.7104 47.0708 30.7104 46.9858C30.7104 46.9008 30.7104 46.8633 30.7104 46.8633C30.7183 46.9039 30.7236 46.9448 30.7263 46.9858C30.7263 47.0708 30.7263 47.1884 30.7518 47.3384C30.7709 47.651 30.8059 48.1112 30.8314 48.7039C30.8887 49.8918 30.9429 51.6073 30.9269 53.7305C30.88 59.2634 30.3597 64.7877 29.3696 70.2658C28.7709 73.4694 28.2582 76.5178 27.7582 79.3037C27.5129 80.6917 27.2773 82.0121 27.0575 83.2475C26.8378 84.4829 26.5607 85.6308 26.6212 86.6911C26.6305 87.1938 26.6858 87.6952 26.7868 88.1916C26.8898 88.6326 27.0216 89.0692 27.1817 89.4995C27.4779 90.3098 27.7645 91 28.0034 91.5627L28.5639 92.8556L28.7072 93.1932C28.7454 93.2582 28.7582 93.2983 28.7582 93.2983Z" fill="#422E24"/>
<path d="M26.6019 84.7854C26.6019 84.7854 26.0701 87.4913 26.4777 88.4741C26.8854 89.4569 27.7357 90.9749 27.9905 91.5276C28.2452 92.0803 29.4491 93.5532 27.7007 93.9058C26.2198 94.2034 22.2516 93.8708 21.6784 91.8077C21.1051 89.7445 21.7421 89.5569 21.0414 88.6692C20.3408 87.7814 20.2739 87.8264 21.0414 86.6535C21.4488 86.0505 21.8031 85.4264 22.1019 84.7854H26.6019Z" fill="#644637"/>
<path d="M0.00019149 27.3896C0.00019149 27.3896 0.997006 24.5661 4.00973 22.638C7.02246 20.7099 11.9938 17.0087 14.0288 16.1359C15.3099 15.6154 16.7443 15.372 18.1848 15.4307L17.2899 20.5073L14.6243 24.4136L7.89825 27.1645L17.5001 34.4668L14.5033 36.0924C14.5033 36.0924 4.2454 30.9607 2.86961 30.178C1.39509 29.3527 -0.0189167 28.2848 0.00019149 27.3896Z" fill="#644637"/>
<path d="M17.1244 34.1741C17.1244 34.1741 18.6881 35.2594 18.7518 36.2422C18.8155 37.2251 18.6913 39.0807 18.9429 39.5883C19.1945 40.096 19.8569 41.1763 18.9429 41.2439C18.0289 41.3114 17.5289 39.5533 17.5289 39.5533L16.962 38.8431C16.962 38.8431 16.6435 40.7012 16.5257 41.2063C16.4079 41.7115 16.2454 43.1195 16.2454 43.1195C15.7262 42.6033 15.3812 41.9926 15.2423 41.3439C15.1159 40.6961 15.087 40.0389 15.1563 39.3858C14.9976 39.0588 14.8906 38.7178 14.8378 38.3704C14.7964 37.9303 14.5193 36.0022 14.5193 36.0022" fill="#644637"/>
<path d="M14.5034 36.0022C14.5034 36.0022 14.5034 36.0197 14.5034 36.0597C14.5034 36.0997 14.5225 36.1648 14.5353 36.2373C14.5607 36.4023 14.5958 36.6274 14.6372 36.9125C14.6786 37.1976 14.7327 37.5727 14.79 37.9878C14.8283 38.1979 14.8378 38.423 14.9015 38.6531C14.9713 38.8968 15.065 39.1359 15.1818 39.3683V39.3908C15.1226 39.9912 15.1461 40.5949 15.2518 41.1914C15.3661 41.8815 15.7173 42.5341 16.2677 43.0795L16.1372 43.1145C16.2072 42.5218 16.2741 41.9016 16.4015 41.2589C16.5289 40.6162 16.6435 39.966 16.7677 39.2933C16.7964 39.1407 16.8251 38.9857 16.8537 38.8356L16.8824 38.6656L16.997 38.8106L17.5639 39.5208V39.5333C17.6621 39.8635 17.8018 40.1852 17.9811 40.4937C18.0664 40.6428 18.1732 40.7838 18.2996 40.9138C18.4131 41.0346 18.5744 41.1225 18.7582 41.1639C18.8435 41.1802 18.9331 41.176 19.0154 41.152C19.0977 41.1279 19.169 41.085 19.22 41.0288C19.2971 40.8964 19.314 40.7472 19.2677 40.6062C19.1855 40.3117 19.066 40.0243 18.911 39.7484C18.8316 39.61 18.7769 39.4635 18.7486 39.3133C18.7231 39.1682 18.7072 39.0257 18.6977 38.8831C18.6786 38.6006 18.6722 38.328 18.669 38.0654V36.6049C18.6784 36.3963 18.6592 36.1876 18.6117 35.9822C18.5581 35.8027 18.4745 35.6294 18.3633 35.467C18.1825 35.2013 17.9692 34.9501 17.7263 34.7168C17.5289 34.5267 17.3633 34.3892 17.2486 34.2967C17.134 34.2041 17.0735 34.1541 17.0767 34.1516C17.0798 34.1491 17.0958 34.1516 17.1308 34.1816C17.1658 34.2116 17.2104 34.2341 17.2709 34.2792C17.4463 34.4092 17.6131 34.5461 17.7709 34.6893C18.0228 34.917 18.2448 35.1642 18.4333 35.427C18.5521 35.5945 18.642 35.7736 18.7009 35.9597C18.7533 36.1697 18.7779 36.3834 18.7741 36.5974C18.7741 37.0425 18.7741 37.5302 18.7932 38.0554C18.7932 38.318 18.7932 38.5905 18.8282 38.8706C18.83 39.1546 18.9013 39.4356 19.0384 39.6984C19.199 39.9813 19.3228 40.2762 19.4079 40.5787C19.4615 40.7459 19.4401 40.9225 19.3473 41.0788C19.2832 41.1598 19.1852 41.2207 19.0703 41.2514L18.9015 41.2789H18.7263C18.5053 41.2311 18.312 41.1252 18.1786 40.9788C18.0413 40.8429 17.9258 40.6942 17.8346 40.5362C17.6643 40.2269 17.5331 39.9053 17.4429 39.5759V39.5934C17.2582 39.3658 17.0703 39.1282 16.876 38.8856L17.0225 38.8606L16.9365 39.3183C16.8123 39.991 16.6881 40.6512 16.5703 41.2889C16.4525 41.9266 16.3728 42.5393 16.2996 43.132L16.2805 43.2771L16.169 43.1645C15.6035 42.6006 15.2445 41.9261 15.1308 41.2139C15.0308 40.6085 15.0137 39.9965 15.0798 39.3883V39.4083C14.9635 39.1701 14.8708 38.9251 14.8028 38.6756C14.7423 38.4255 14.7359 38.2079 14.7041 38.0004C14.6563 37.5852 14.6149 37.2251 14.5798 36.925C14.5448 36.6249 14.5225 36.4123 14.5066 36.2473C14.5066 36.1748 14.5066 36.1172 14.5066 36.0697C14.5002 36.0476 14.4991 36.0247 14.5034 36.0022Z" fill="#422E24"/>
<path d="M16.8505 23.4583C16.7522 23.5199 16.6453 23.5728 16.5321 23.6158L15.6085 23.9984L12.5289 25.2288L9.45565 26.4617L8.52572 26.8393C8.41515 26.891 8.29767 26.9329 8.1754 26.9644C8.27402 26.9002 8.38073 26.844 8.49387 26.7968C8.70724 26.6943 9.01616 26.5467 9.40151 26.3842C10.1722 26.0441 11.2518 25.5939 12.4588 25.1163C13.6658 24.6386 14.7582 24.2185 15.5575 23.9209L16.5129 23.5708C16.6202 23.5242 16.7333 23.4865 16.8505 23.4583Z" fill="#422E24"/>
<path d="M3.44595 26.1566C3.66428 26.0757 3.89952 26.0265 4.14022 26.0116C5.30906 25.8894 6.49195 26.1358 7.43001 26.6968C7.62873 26.8054 7.80127 26.9409 7.93957 27.0969C7.92046 27.1119 7.72301 26.9619 7.36314 26.7693C6.42139 26.2656 5.28897 26.0291 4.15296 26.0991C3.71984 26.1241 3.45232 26.1766 3.44595 26.1566Z" fill="#422E24"/>
<path d="M16.9493 32.7737L15.357 26.9794L19.4111 19.4919C19.4111 19.4919 25.1881 24.291 29.3633 24.9487C33.5384 25.6064 35.5384 20.4247 35.5384 20.4247L35.5958 20.4698C37.2483 21.8648 38.3434 23.6099 38.7454 25.4889C39.0431 26.828 38.8555 28.2058 38.204 29.4652L37.5671 30.7631L37.7263 31.6909L16.9493 32.7737Z" fill="#E93E25"/>
<path d="M18.4618 15.478C18.5651 15.7002 18.6408 15.9296 18.6879 16.1632C18.8025 16.5884 18.9427 17.1836 19.0796 17.8388C19.2165 18.494 19.3312 19.0517 19.4267 19.5193C19.4891 19.7508 19.5274 19.9858 19.5414 20.2221C19.4404 19.9993 19.3647 19.77 19.3153 19.5368C19.2006 19.1092 19.0605 18.5165 18.9235 17.8588C18.7866 17.2011 18.6751 16.6484 18.5764 16.1783C18.5143 15.9476 18.476 15.7135 18.4618 15.478Z" fill="#E93E25"/>
<path d="M34.6784 18.0688C34.9172 18.5345 35.1078 19.0146 35.2485 19.5043C35.441 19.9842 35.5806 20.4761 35.6657 20.9748C35.4273 20.5081 35.2366 20.0273 35.0956 19.5368C34.9037 19.0577 34.7641 18.5666 34.6784 18.0688Z" fill="#E93E25"/>
<path d="M28.4776 28.5849C28.3805 28.6651 28.2738 28.738 28.1592 28.8024C28.0305 28.8859 27.8942 28.962 27.7515 29.03C27.5694 29.1278 27.3801 29.2171 27.1846 29.2976C26.9521 29.4015 26.7118 29.4942 26.4649 29.5752C26.1832 29.6708 25.8951 29.7543 25.6019 29.8253C24.2522 30.1634 22.8225 30.2566 21.4203 30.0978C21.1019 30.0528 20.7834 30.0178 20.5159 29.9553C20.2545 29.9077 19.9972 29.8476 19.7452 29.7752C19.5355 29.721 19.3302 29.6567 19.1305 29.5827C18.9762 29.5339 18.8262 29.4771 18.6815 29.4126C18.5531 29.3638 18.4305 29.3061 18.3153 29.2401C18.3312 29.2151 18.8567 29.4576 19.7802 29.6927C20.0312 29.7574 20.2863 29.8117 20.5446 29.8553C20.8216 29.9128 21.1242 29.9428 21.4395 29.9828C22.8206 30.1263 24.2249 30.0351 25.5573 29.7152C25.8757 29.6352 26.1528 29.5677 26.414 29.4651C26.6597 29.3925 26.9 29.309 27.1337 29.2151C27.9872 28.8699 28.4553 28.5723 28.4776 28.5849Z" fill="#263238"/>
<g opacity="0.3">
<path d="M19.0352 29.5028C19.3021 29.8752 19.6676 30.1983 20.1072 30.4502C20.5467 30.7022 21.05 30.8771 21.583 30.9632C22.6559 31.1259 23.7641 31.0673 24.7995 30.7932C25.9843 30.5081 27.1817 29.9654 27.6148 29.0576C25.1021 30.1905 21.825 30.198 19.0512 29.5353" fill="black"/>
</g>
<path d="M37.5384 30.763C37.4689 30.7732 37.3987 30.7799 37.3282 30.783L36.7231 30.818L34.4938 30.9355L27.169 31.3282C24.3027 31.4782 21.7072 31.6058 19.8282 31.6833C18.8887 31.7208 18.1276 31.7483 17.5989 31.7608L16.9907 31.7733C16.9207 31.7777 16.8504 31.7777 16.7805 31.7733C16.8493 31.7597 16.9198 31.7522 16.9907 31.7508L17.5958 31.7158L19.825 31.5982L27.1499 31.2056C30.0161 31.0556 32.6116 30.928 34.4906 30.8505C35.4301 30.813 36.1912 30.7855 36.7199 30.773H37.325C37.3953 30.7626 37.467 30.7592 37.5384 30.763Z" fill="#263238"/>
</svg>
