<svg width="28" height="88" viewBox="0 0 28 88" fill="none" xmlns="http://www.w3.org/2000/svg">
<path d="M26.8415 27.7183C26.796 27.7931 26.7467 27.8655 26.6938 27.9352C26.7997 27.9352 26.8513 27.8205 26.8415 27.7183Z" fill="#263238"/>
<path d="M26.8565 23.7169C26.2635 22.3682 25.2768 21.2438 24.4721 20.0122C23.3482 18.2608 22.5455 16.3183 22.1024 14.2781L22.0138 13.4728C21.9105 8.7709 21.8687 4.67726 21.2756 3.15149C20.1708 0.334314 16.337 0.0301593 16.337 0.0301593C11.2482 -0.393664 9.73237 3.72989 9.18117 7.33738C8.83913 9.58115 7.42175 18.5363 7.42175 18.5363L9.02368 17.7884L23.2245 27.4067L23.5272 30.5031C24.4131 30.0383 25.1358 29.3078 25.5967 28.4114C25.5967 28.5684 25.6188 28.7255 25.6286 28.8826L26.7286 27.5737C26.7612 27.5801 26.7905 27.5978 26.8116 27.6237C26.8327 27.6496 26.8443 27.6822 26.8442 27.7158C27.5628 26.559 27.4176 24.9859 26.8565 23.7169Z" fill="#263238"/>
<path d="M17.2401 79.1056C17.1244 79.1056 17.117 79.8211 17.4615 80.4344C17.806 81.0477 20.0133 83.6106 20.8721 83.8574C21.7309 84.1043 23.3328 85.104 23.2049 85.5876C23.174 85.7212 23.1108 85.8449 23.021 85.9476C22.9313 86.0503 22.8177 86.1288 22.6906 86.176L17.0998 86.1187C17.0998 86.1187 13.8197 84.3386 12.7271 83.9696C11.6345 83.6007 11.4967 82.5685 11.7428 81.6187C11.9889 80.6688 13.7508 79.0682 13.7508 79.0682L17.2401 79.1056Z" fill="#78433C"/>
<path d="M23.3646 38.7352L23.5615 42.9086C23.5615 42.9086 26.1231 56.299 26.7112 60.0211C27.2993 63.7433 27.5478 65.2566 25.973 67.1489C24.3981 69.0411 17.0282 80.1353 17.0282 80.1353L13.7407 79.0683C13.7407 79.0683 16.8043 72.9079 17.6065 70.6641C18.4087 68.4203 20.4683 64.4314 20.4683 64.4314L17.4761 55.0599L15.1458 46.5136L16.322 43.1779L23.3646 38.7352Z" fill="#78433C"/>
<path d="M24.9592 23.5174C24.9592 23.5174 24.467 19.9773 23.7288 18.631C22.9906 17.2847 20.9556 16.7163 20.9556 16.7163L22.3311 31.9017L24.9715 46.192L26.9007 45.5064C26.9007 45.5064 25.9582 35.6537 25.5571 31.9864C25.156 28.3191 24.9592 23.5174 24.9592 23.5174Z" fill="#78433C"/>
<path d="M26.7359 44.6763C26.7359 44.6763 27.634 47.2217 27.8924 47.643C28.1508 48.0644 27.8629 50.5674 27.8629 50.5674C27.8629 50.5674 26.0961 52.8311 25.7737 52.7962C25.4514 52.7613 25.5941 52.0708 25.786 51.6544C26.0124 51.2609 26.2788 50.8924 26.5808 50.555L26.3126 47.7777L24.8362 45.135L26.7359 44.6763Z" fill="#78433C"/>
<path d="M25.1461 47.9547C25.0108 47.7591 24.9015 47.5461 24.8213 47.3215C24.7228 46.778 24.8213 45.9977 24.8754 45.3021C24.9591 44.3398 25.8129 45.3021 25.8129 45.3021L26.6127 47.5035C26.6127 47.5035 26.6668 50.0888 26.2436 50.545C25.936 50.8791 25.6062 50.8816 25.5053 50.0464C25.4045 49.2112 25.6481 49.3409 25.6161 48.7999C25.5761 48.4662 25.407 48.1623 25.1461 47.9547Z" fill="#78433C"/>
<path d="M26.4207 46.9125C26.49 47.1018 26.5338 47.2997 26.5511 47.5008C26.6222 47.9827 26.6535 48.4697 26.6446 48.9568C26.6446 49.241 26.62 49.5128 26.593 49.7596C26.5848 49.9847 26.5276 50.2051 26.4256 50.4053C26.3853 50.4712 26.3315 50.5276 26.2679 50.5706C26.2042 50.6136 26.1321 50.6423 26.0565 50.6546C25.9458 50.6695 25.8917 50.6346 25.8941 50.6297C25.8966 50.6247 25.9532 50.6297 26.0467 50.6072C26.1759 50.5674 26.2845 50.4779 26.3494 50.3579C26.4347 50.165 26.4791 49.956 26.4798 49.7446C26.4995 49.4953 26.5142 49.2335 26.5216 48.9518C26.5289 48.47 26.51 47.9881 26.465 47.5083C26.4348 47.3112 26.42 47.112 26.4207 46.9125Z" fill="#54302B"/>
<path d="M7.34766 17.3546C7.45347 17.7909 10.3301 32.1137 10.3301 32.1137V36.1777L8.29996 40.4705L17.5227 46.1173L23.3645 38.7353L22 36.1777L21.5 34.7111L21.346 33.2444L21.5 32.2666L22 30.8L22.6976 27.8281C23.2629 26.5136 23.3991 25.0506 23.0864 23.6522C22.3236 20.6006 20.9555 16.7189 20.9555 16.7189L17.7221 15.7616L12.3946 15.7042L7.34766 17.3546Z" fill="#78433C"/>
<path d="M21.0516 19.7081C21.0516 19.7081 21.1107 19.743 21.2042 19.8228C21.3362 19.9352 21.4612 20.0559 21.5782 20.1843C21.9688 20.6066 22.306 21.0764 22.5822 21.5829C22.8576 22.0893 23.0693 22.6287 23.2121 23.1885C23.2638 23.4029 23.2982 23.5799 23.3155 23.702C23.3327 23.8242 23.3376 23.894 23.3278 23.894C23.3179 23.894 23.2539 23.6322 23.1284 23.2134C22.9637 22.6686 22.7444 22.1423 22.4739 21.6428C22.2011 21.1451 21.8796 20.6766 21.5142 20.2441C21.2288 19.9026 21.0344 19.7081 21.0516 19.7081Z" fill="#54302B"/>
<path d="M16.686 21.6775C16.7996 21.7866 16.8937 21.9148 16.9641 22.0564C17.3424 22.7205 17.5284 23.4791 17.5005 24.2454C17.5045 24.4038 17.4803 24.5618 17.4292 24.7116C17.4254 24.1848 17.371 23.6596 17.2668 23.1434C17.1197 22.6372 16.9252 22.1463 16.686 21.6775Z" fill="#54302B"/>
<path d="M17.87 36.691C17.8355 36.691 17.8208 36.5713 17.8355 36.4417C17.8503 36.3121 17.8897 36.1924 17.9241 36.1924C17.9586 36.1924 17.9733 36.3121 17.9586 36.4417C17.9438 36.5713 17.9044 36.696 17.87 36.691Z" fill="#54302B"/>
<path d="M23.3819 40.3482C23.3724 40.3066 23.3683 40.2638 23.3696 40.2211C23.3696 40.1214 23.3696 39.9992 23.3548 39.8521C23.3548 39.513 23.3302 39.0543 23.3154 38.4959C23.2785 37.349 23.2121 35.7684 23.089 34.0258C22.966 32.2831 22.8061 30.7075 22.6806 29.5681C22.6166 29.0122 22.5649 28.556 22.528 28.2194C22.5132 28.0723 22.4985 27.9501 22.4886 27.8529C22.4843 27.8098 22.4843 27.7664 22.4886 27.7233C22.5045 27.764 22.5145 27.8068 22.5182 27.8504C22.5354 27.9476 22.5551 28.0673 22.5797 28.2144C22.6313 28.531 22.6978 28.9898 22.7716 29.5582C22.9193 30.695 23.0915 32.2706 23.217 34.0158C23.3425 35.761 23.3942 37.3466 23.4065 38.5033C23.4065 39.0768 23.4065 39.5405 23.4065 39.8621C23.4065 40.0092 23.4065 40.1313 23.4065 40.2311C23.4029 40.271 23.3947 40.3103 23.3819 40.3482Z" fill="#54302B"/>
<path d="M7.54465 41.4827C6.73262 44.0106 6.09283 46.419 7.1411 50.7594C8.52894 56.5159 9.49355 59.6772 9.13428 62.3772C8.77502 65.0772 8.74795 67.3259 9.60428 70.6018C10.4606 73.8777 13.0493 80.4345 13.0493 80.4345L15.8078 80.1603L14.8235 64.1248C14.8235 64.1248 15.4879 61.8237 15.7684 57.9819C15.9825 55.06 16.9446 44.6439 16.9446 44.6439L8.74795 38.7328L7.54465 41.4827Z" fill="#78433C"/>
<path d="M16.9593 46.5311C16.9631 46.5801 16.9631 46.6293 16.9593 46.6782C16.9593 46.7879 16.9421 46.9275 16.9322 47.0995C16.9002 47.481 16.856 48.007 16.8043 48.6478C16.6886 49.9566 16.509 51.7591 16.2974 53.7511C16.0857 55.7431 15.884 57.5281 15.7536 58.8494C15.6847 59.4902 15.6281 60.0137 15.5862 60.3952C15.5665 60.5647 15.5493 60.7043 15.537 60.814C15.5345 60.8632 15.5254 60.9119 15.5099 60.9586C15.5061 60.9096 15.5061 60.8604 15.5099 60.8115C15.5099 60.7018 15.5247 60.5622 15.537 60.3902C15.569 60.0087 15.6108 59.4827 15.665 58.842C15.7806 57.5331 15.9603 55.7306 16.1719 53.7386C16.3835 51.7467 16.573 49.9616 16.7132 48.6428C16.7821 48.002 16.8387 47.4785 16.8781 47.0971L16.9298 46.6782C16.9328 46.628 16.9428 46.5785 16.9593 46.5311Z" fill="#54302B"/>
<path d="M19.821 85.8321C19.2756 85.0468 18.6648 84.3103 17.9952 83.6307C16.9543 82.3492 16.2185 79.9709 15.5664 78.4501L12.6382 79.4174C13.0836 80.9506 13.1648 81.4243 12.9901 82.4515C12.8154 83.4786 12.4266 84.1069 13.1205 84.8722C13.4625 85.2512 14.218 85.498 14.6166 85.8096C15.1703 86.241 15.4582 87.3803 16.0684 87.7193C16.9838 88.218 18.1108 87.9562 19.1148 87.672C19.5381 87.5523 20.0204 87.3778 20.1582 86.954C20.2837 86.57 20.0671 86.1662 19.821 85.8321Z" fill="#78433C"/>
<path d="M20.1582 86.9539C20.1582 86.9539 20.1582 86.9339 20.1755 86.894C20.198 86.8386 20.2105 86.7795 20.2124 86.7195C20.2153 86.4858 20.1512 86.2563 20.0278 86.0588C19.7375 85.5203 19.1272 84.8746 18.3718 84.0918C18.1847 83.8948 17.9854 83.6904 17.791 83.4586C17.5949 83.2195 17.4117 82.9698 17.2423 82.7106C16.8665 82.137 16.5373 81.5333 16.258 80.9056C16.0943 80.5666 15.9791 80.2056 15.916 79.8336C15.8692 79.4522 15.8397 79.0682 15.8077 78.6743C15.7462 77.8865 15.6846 77.0713 15.6207 76.2361C15.3746 72.8954 15.1802 69.8713 15.0424 67.6799C14.9784 66.5929 14.9243 65.7078 14.8874 65.0846C14.8726 64.7854 14.8603 64.551 14.8529 64.379C14.8529 64.3042 14.8529 64.2444 14.8529 64.197C14.8501 64.1755 14.8501 64.1537 14.8529 64.1322C14.8568 64.1528 14.8568 64.1739 14.8529 64.1945L14.8726 64.379C14.8874 64.5452 14.9071 64.7796 14.9317 65.0821C14.976 65.7053 15.0424 66.5779 15.1236 67.6749C15.2811 69.8713 15.4976 72.8904 15.7388 76.2286C15.8003 77.0613 15.8618 77.8766 15.9233 78.6644C15.9553 79.0558 15.9849 79.4447 16.0267 79.8162C16.0879 80.1775 16.1989 80.5283 16.3564 80.8583C16.6376 81.4818 16.9667 82.082 17.3407 82.6533C17.507 82.9122 17.6869 83.1619 17.8796 83.4012C18.0642 83.6281 18.2635 83.835 18.4505 84.0345C19.1887 84.8248 19.8014 85.4829 20.0844 86.0289C20.2081 86.2357 20.2664 86.4757 20.2517 86.717C20.2463 86.7789 20.2287 86.8391 20.2001 86.894C20.1705 86.9364 20.1607 86.9564 20.1582 86.9539Z" fill="#54302B"/>
<path d="M14.6168 85.8096C14.6168 85.8096 14.4962 85.7448 14.2772 85.6251C14.0582 85.5054 13.7383 85.3459 13.3643 85.0941C13.1527 84.958 12.973 84.7768 12.8377 84.5631C12.7035 84.3054 12.6318 84.0191 12.6285 83.7279C12.6285 83.4237 12.6507 83.1171 12.6654 82.7905C12.706 82.4541 12.7693 82.1209 12.8549 81.7932C12.9416 81.477 12.979 81.1489 12.9656 80.8209C12.9342 80.5164 12.8732 80.2158 12.7836 79.9234C12.6138 79.3575 12.4144 78.8614 12.2545 78.4425C12.0946 78.0237 11.9641 77.6821 11.8829 77.4453C11.8436 77.3256 11.814 77.2309 11.7968 77.1686C11.7858 77.1363 11.7784 77.1028 11.7747 77.0688C11.8345 77.1847 11.8863 77.3047 11.9297 77.4279C12.033 77.6772 12.1758 78.0087 12.3357 78.4101C12.4956 78.8115 12.7122 79.3176 12.8918 79.8885C12.9881 80.1892 13.0532 80.4992 13.0862 80.8135C13.1019 81.1538 13.0646 81.4946 12.9755 81.8232C12.891 82.1427 12.8269 82.4675 12.7836 82.7955C12.7688 83.1146 12.7368 83.4287 12.7417 83.7204C12.7412 83.9943 12.8053 84.2645 12.9287 84.5082C13.0555 84.7083 13.2233 84.8784 13.4209 85.0068C13.7801 85.2561 14.1 85.4331 14.3092 85.5703C14.415 85.6351 14.4962 85.6899 14.5553 85.7298C14.6143 85.7697 14.6193 85.8071 14.6168 85.8096Z" fill="#54302B"/>
<path d="M9.36293 37.1555C11.1888 38.3672 13.1896 39.2233 15.278 39.6866C17.1734 40.1074 19.133 40.014 20.9886 39.4144L23.3398 38.6714L23.5 42.8245C23.5 42.8245 19.8228 43.7743 16.9318 47.9111C15.8394 45.6599 14.1376 43.8417 12.0642 42.7102C8.74924 40.9466 7.5 41.5555 7.5 41.5555L8 40.0888L9.36293 37.1555Z" fill="#E93E25"/>
<path d="M8.76758 24.3502C9.587 22.8768 11.3932 22.1488 13.0542 22.3184C14.7151 22.4879 16.2236 23.4253 17.4146 24.6095C18.891 23.2832 20.4412 21.7125 22.3901 21.4233C22.3901 21.4233 24.467 23.8965 23.0053 26.953L22.4812 27.9353L22.7445 29.7378L9.94872 30.2364L8.76758 24.3502Z" fill="#E93E25"/>
<path d="M16.1301 27.5987C16.0662 27.6502 15.9959 27.6929 15.9209 27.7258C15.8376 27.7731 15.7513 27.8148 15.6625 27.8505C15.547 27.9027 15.4287 27.9484 15.3082 27.9876C14.9946 28.0939 14.6716 28.1691 14.3436 28.212C13.941 28.2615 13.5344 28.2682 13.1305 28.2319C12.7277 28.1902 12.3303 28.1067 11.9444 27.9826C11.6303 27.876 11.3271 27.739 11.0388 27.5737C10.9275 27.5121 10.8199 27.4438 10.7165 27.3693C10.6309 27.3137 10.5488 27.2529 10.4704 27.1873C10.4035 27.1391 10.3423 27.083 10.2883 27.0203C10.3031 27.0003 10.5713 27.2247 11.0635 27.4865C11.3516 27.6378 11.6521 27.7638 11.9616 27.8629C12.7207 28.1039 13.5209 28.1828 14.3116 28.0948C14.634 28.0579 14.9526 27.9928 15.2639 27.9003C15.8053 27.7433 16.1129 27.5762 16.1301 27.5987Z" fill="#263238"/>
<path d="M22.5426 27.7458C22.124 27.9357 21.6723 28.0391 21.2138 28.0499C20.7567 28.0986 20.2946 28.0528 19.8555 27.9153C19.8555 27.8779 20.4633 27.9751 21.2039 27.9153C21.9446 27.8554 22.5278 27.7084 22.5426 27.7458Z" fill="#263238"/>
<g opacity="0.3">
<path d="M14.8234 28.2719C14.4723 26.2727 14.0139 24.2944 13.4503 22.3458C13.1116 23.587 13.0494 24.8888 13.2681 26.1573C13.4869 27.4258 13.9811 28.6292 14.7151 29.6805L15.0719 30.1666C15.0458 29.5287 14.9626 28.8945 14.8234 28.2719Z" fill="black"/>
</g>
<path d="M16.9961 1.4912L16.6812 1.17957L13.2362 2.55076C12.9958 2.56176 12.7682 2.6636 12.5983 2.8362C12.4284 3.0088 12.3285 3.23963 12.3183 3.48317L12.2347 14.8491C12.1893 15.5835 12.3963 16.3111 12.8203 16.9084L13.2977 17.5591C13.5465 17.9046 13.8764 18.1816 14.2576 18.3653C14.6388 18.5489 15.0592 18.6333 15.4807 18.6108C15.9022 18.5882 16.3115 18.4595 16.6715 18.2363C17.0315 18.013 17.3309 17.7023 17.5424 17.3322C17.597 17.2411 17.6392 17.143 17.6679 17.0405C17.6902 16.9584 17.7082 16.8752 17.7221 16.7912C17.8328 15.8788 17.8476 15.086 17.8476 15.086C17.9189 14.0887 17.9435 13.6699 17.9435 13.6799C17.9435 13.6898 20.0548 13.4555 20.6503 10.7206C20.9481 9.35936 20.9136 7.47958 20.8521 5.6347C20.7586 3.07181 19.0238 1.50865 16.9961 1.4912Z" fill="#78433C"/>
<path d="M16.3761 7.40712C16.3704 7.49926 16.3299 7.58564 16.263 7.64832C16.1961 7.71099 16.108 7.74515 16.0169 7.74369C15.9721 7.74469 15.9276 7.73658 15.8859 7.71983C15.8443 7.70308 15.8064 7.67804 15.7745 7.64619C15.7426 7.61434 15.7174 7.57633 15.7003 7.53441C15.6831 7.49249 15.6745 7.44751 15.6748 7.40213C15.6793 7.30933 15.7193 7.22196 15.7864 7.15863C15.8535 7.0953 15.9424 7.06102 16.0341 7.06308C16.0789 7.06275 16.1233 7.0714 16.1648 7.08854C16.2063 7.10569 16.244 7.13098 16.2758 7.16296C16.3076 7.19494 16.3328 7.23298 16.35 7.27488C16.3673 7.31679 16.3761 7.36173 16.3761 7.40712Z" fill="#263238"/>
<path d="M19.8778 7.4421C19.874 7.53447 19.8344 7.62157 19.7676 7.68457C19.7008 7.74756 19.6122 7.78137 19.521 7.77866C19.4762 7.78002 19.4315 7.77215 19.3897 7.75552C19.3479 7.7389 19.3099 7.71388 19.278 7.68196C19.246 7.65004 19.2207 7.61188 19.2037 7.5698C19.1867 7.52772 19.1783 7.48258 19.179 7.43711C19.1841 7.34519 19.224 7.25882 19.2905 7.19609C19.3571 7.13335 19.4449 7.09912 19.5358 7.10055C19.5806 7.09954 19.6251 7.10766 19.6667 7.12441C19.7083 7.14115 19.7462 7.16619 19.7781 7.19804C19.81 7.22989 19.8353 7.26791 19.8524 7.30983C19.8695 7.35175 19.8782 7.39673 19.8778 7.4421Z" fill="#263238"/>
<path d="M20.4758 6.35519C20.429 6.40007 20.1756 6.18566 19.7991 6.16323C19.4226 6.14079 19.1371 6.3153 19.0978 6.26544C19.0584 6.21558 19.1297 6.16323 19.2552 6.08095C19.4246 5.97724 19.6212 5.92852 19.8187 5.94134C20.0143 5.95324 20.2012 6.0274 20.3527 6.15326C20.4635 6.2455 20.4979 6.33774 20.4758 6.35519Z" fill="#263238"/>
<path d="M16.6543 6.35499C16.6026 6.39487 16.3737 6.15305 16.0022 6.09321C15.6306 6.03338 15.3255 6.17548 15.2935 6.12064C15.2615 6.06579 15.3329 6.02341 15.4657 5.9536C15.6454 5.86889 15.8461 5.84109 16.0415 5.87382C16.2355 5.90633 16.4145 5.99962 16.5534 6.14058C16.6518 6.24529 16.6789 6.33753 16.6543 6.35499Z" fill="#263238"/>
<path d="M17.9414 9.14732C18.1432 9.09528 18.3508 9.07014 18.559 9.07252C18.655 9.07252 18.7485 9.05507 18.7682 8.98776C18.7821 8.88798 18.7658 8.78628 18.7215 8.69607L18.4754 7.94814C18.1456 6.86864 17.9119 5.9811 17.9537 5.96864C17.9955 5.95617 18.3007 6.82127 18.6329 7.90078C18.7116 8.16504 18.7879 8.41934 18.8593 8.66366C18.9131 8.78429 18.9227 8.92043 18.8863 9.04759C18.8702 9.08059 18.847 9.10955 18.8185 9.13239C18.79 9.15524 18.7569 9.17141 18.7215 9.17973C18.6673 9.19138 18.6119 9.19641 18.5566 9.19468C18.3504 9.20426 18.1438 9.18835 17.9414 9.14732Z" fill="#263238"/>
<path d="M17.9315 13.6749C16.6463 13.6159 15.4026 13.1964 14.3389 12.4633C14.3389 12.4633 15.1411 14.4328 17.8872 14.343L17.9315 13.6749Z" fill="#54302B"/>
<path d="M17.7271 10.0548C17.6605 9.9595 17.5712 9.88279 17.4675 9.8318C17.3638 9.7808 17.2491 9.75717 17.134 9.7631C17.0505 9.76522 16.9684 9.78468 16.8926 9.82027C16.8168 9.85587 16.7491 9.90684 16.6936 9.97003C16.6392 10.03 16.6043 10.1055 16.5937 10.1862C16.5832 10.2669 16.5974 10.349 16.6345 10.4213C16.6914 10.4946 16.7688 10.5487 16.8566 10.5768C16.9444 10.6048 17.0385 10.6053 17.1266 10.5783C17.3056 10.5297 17.473 10.4449 17.6188 10.329C17.6633 10.3016 17.7025 10.2661 17.7344 10.2243C17.7481 10.2032 17.7554 10.1785 17.7554 10.1533C17.7554 10.128 17.7481 10.1033 17.7344 10.0822" fill="#54302B"/>
<path d="M16.8168 9.34184C16.8783 9.34184 16.8562 9.7557 17.1884 10.0723C17.5206 10.3889 17.9561 10.369 17.9561 10.4263C17.9561 10.4837 17.8553 10.5011 17.6707 10.4936C17.4318 10.4823 17.2044 10.3861 17.0284 10.2219C16.8584 10.0638 16.756 9.8446 16.743 9.6111C16.7381 9.43907 16.7898 9.33935 16.8168 9.34184Z" fill="#263238"/>
<path d="M17.0284 4.87168C16.9767 4.96891 16.6125 4.85922 16.1671 4.83927C15.7217 4.81933 15.3501 4.88165 15.3059 4.77944C15.2886 4.73207 15.3649 4.64481 15.5224 4.57002C15.7318 4.4787 15.9592 4.43774 16.1868 4.45035C16.4151 4.46046 16.6378 4.52541 16.8364 4.63982C16.9865 4.73207 17.053 4.82681 17.0284 4.87168Z" fill="#263238"/>
<path d="M20.4387 4.71707C20.3673 4.79934 20.1139 4.69214 19.8014 4.6697C19.4889 4.64727 19.2231 4.69214 19.1665 4.59741C19.1419 4.55253 19.1887 4.46777 19.3092 4.39297C19.47 4.30445 19.653 4.2662 19.8352 4.28306C20.0174 4.29992 20.1906 4.37114 20.3329 4.48771C20.4387 4.58494 20.4707 4.67469 20.4387 4.71707Z" fill="#263238"/>
<path d="M12.3259 8.33462C12.3259 8.33462 14.2502 8.96288 15.392 4.15124C15.7832 2.5058 17.3039 1.18696 17.3039 1.18696L16.6937 0.994995C16.6937 0.994995 12.8796 2.0396 12.8156 2.08697C12.7516 2.13433 11.8313 4.08143 11.8313 4.08143L12.3259 8.33462Z" fill="#263238"/>
<path d="M13.6204 21.7797C13.9821 20.3911 14.5407 19.0224 14.5112 17.5864C14.4841 16.2102 13.9206 14.9113 13.4875 13.5975C13.0544 12.2836 12.7493 10.8551 13.2415 9.55617C13.5048 8.85811 13.9797 8.26476 14.3389 7.60908C14.6982 6.9534 17.3459 1.87499 17.0826 1.17444L10.104 4.38552C9.29692 8.8232 9.5799 16.2227 9.96131 20.7202C10.0647 21.9518 10.9628 27.2795 11.5854 28.3415C11.7975 28.6861 12.0644 28.9927 12.3753 29.249C13.1553 29.9097 14.2331 30.3809 15.0821 30.2462C14.3119 29.0271 13.2562 23.1659 13.6204 21.7797Z" fill="#263238"/>
<path d="M25.973 25.9408C26.2181 25.7061 26.4271 25.4355 26.5931 25.138C26.781 24.7856 26.9099 24.4039 26.9745 24.0087C27.0574 23.4851 27.0474 22.9506 26.945 22.4306C26.8106 21.8021 26.5815 21.1984 26.2658 20.6405C25.9013 20.0003 25.4901 19.3886 25.0354 18.8106C24.5655 18.1898 24.0512 17.5491 23.5836 16.8336C23.0886 16.0996 22.7215 15.285 22.4984 14.4253C22.3846 13.9899 22.3023 13.5466 22.2524 13.099C22.2007 12.6577 22.1785 12.2239 22.1687 11.7951C22.149 10.94 22.1859 10.1147 22.2155 9.33192C22.245 8.54909 22.2647 7.80616 22.2376 7.11059C22.2163 6.46635 22.1472 5.82465 22.0309 5.19092C21.8758 4.2706 21.5412 3.39084 21.0466 2.6031C20.9707 2.48005 20.8886 2.36105 20.8005 2.24659C20.7387 2.15916 20.6713 2.07589 20.5988 1.99728L20.4708 1.84769C20.4413 1.81279 20.4265 1.79534 20.429 1.79285L20.4782 1.83772L20.616 1.97983C20.6933 2.05749 20.7649 2.14081 20.8301 2.22914C20.924 2.34146 21.0119 2.4588 21.0934 2.58066C21.6111 3.36595 21.963 4.25126 22.1269 5.18094C22.2514 5.81727 22.3271 6.46241 22.3533 7.11059C22.3852 7.81114 22.368 8.55657 22.341 9.34189C22.3139 10.1272 22.2794 10.9474 22.3016 11.7976C22.3016 12.2214 22.336 12.6552 22.3877 13.089C22.436 13.5311 22.5183 13.9687 22.6338 14.3979C22.8528 15.2448 23.2131 16.0475 23.6993 16.7713C24.1594 17.4818 24.6713 18.12 25.1413 18.7458C25.598 19.3301 26.0094 19.9494 26.3716 20.5982C26.6892 21.1661 26.9167 21.7811 27.0459 22.4206C27.1482 22.9504 27.1524 23.4948 27.0582 24.0261C26.9881 24.4266 26.8508 24.812 26.6521 25.1655C26.5259 25.3879 26.3712 25.5925 26.192 25.7738C26.128 25.8336 26.0763 25.876 26.0443 25.9059C26.0124 25.9358 25.973 25.9408 25.973 25.9408Z" fill="#263238"/>
<path d="M7.02542 26.7685C7.68489 25.6865 8.34191 24.4674 9.24007 23.697L7.97526 17.1377C7.97526 17.1377 6.35856 17.3696 5.06914 19.8552C4.48841 20.9795 0.755497 27.8604 0.440524 28.6682C0.125551 29.4759 -0.349368 31.2435 0.401152 32.6347C1.15167 34.0258 7.68489 39.4258 7.68489 39.4258L9.11211 37.8751L4.19067 30.9593C4.19067 30.9593 5.99438 28.4588 7.02542 26.7685Z" fill="#78433C"/>
<path d="M7.70703 20.613C7.81826 20.8431 7.90965 21.0825 7.98017 21.3285C8.13274 21.7773 8.32467 22.4031 8.51415 23.0986C8.70363 23.7942 8.85127 24.4324 8.94724 24.8961C9.00968 25.1415 9.05166 25.3916 9.07273 25.6441C8.98393 25.4049 8.91399 25.159 8.86357 24.9086C8.74546 24.4499 8.58551 23.8166 8.39603 23.1211C8.20656 22.4255 8.02939 21.7997 7.90389 21.346C7.81966 21.1072 7.75385 20.8621 7.70703 20.613Z" fill="#54302B"/>
<path d="M7.02563 38.8849L7.55961 39.3411C7.63524 39.4079 7.72586 39.455 7.82357 39.4782C7.92127 39.5014 8.0231 39.5 8.12016 39.4742C8.21723 39.4484 8.30659 39.3989 8.38044 39.3301C8.4543 39.2612 8.51042 39.1752 8.5439 39.0793L9.03605 37.7979C9.03605 37.7979 10.702 37.5685 11.0046 37.4189C11.386 37.2294 11.044 36.9502 11.044 36.9502L9.39777 36.8305C9.39777 36.8305 11.4845 36.5812 11.7404 36.4242C12.1193 36.1749 11.952 35.9056 11.952 35.9056C11.952 35.9056 12.609 35.8607 12.6385 35.4843C12.6779 34.9857 12.3137 35.0106 12.3137 35.0106L10.3451 34.9907C10.3451 34.9907 12.3482 35.1078 11.797 34.1555C11.797 34.1555 10.0745 33.9461 9.8284 34.1281C9.58233 34.31 8.32982 36.7209 8.32982 36.7209L7.62359 35.761" fill="#78433C"/>
<path d="M7.60116 35.7611C7.62014 35.7794 7.63744 35.7994 7.65284 35.8209L7.79556 36.0004L8.32954 36.7035H8.28278C8.52885 36.2298 8.84875 35.599 9.26707 34.8586C9.37288 34.6741 9.48362 34.4821 9.61157 34.2902C9.64356 34.2428 9.68047 34.1954 9.71738 34.1481C9.73956 34.1223 9.7643 34.0989 9.7912 34.0783C9.82118 34.0616 9.85357 34.0498 9.88717 34.0434C10.0067 34.0159 10.1288 34.0017 10.2514 34.001C10.767 34.0017 11.2822 34.0334 11.7942 34.0957C11.8023 34.0963 11.8101 34.0988 11.817 34.1032C11.8239 34.1075 11.8296 34.1135 11.8336 34.1206C11.8805 34.1973 11.9138 34.2817 11.932 34.37C11.9493 34.4679 11.9309 34.5689 11.8804 34.6542C11.7664 34.8053 11.6019 34.909 11.4177 34.9459C11.0617 35.0312 10.6954 35.0639 10.3301 35.0431C10.3162 35.0402 10.3037 35.0326 10.2947 35.0215C10.2857 35.0103 10.2808 34.9964 10.2808 34.982C10.2808 34.9676 10.2857 34.9537 10.2947 34.9426C10.3037 34.9314 10.3162 34.9238 10.3301 34.9209L11.7229 34.9359H12.2667C12.3385 34.9333 12.4097 34.9496 12.4734 34.9833C12.5354 35.0198 12.5869 35.0722 12.6227 35.1352C12.6586 35.1982 12.6775 35.2696 12.6776 35.3423C12.6885 35.4116 12.6885 35.4823 12.6776 35.5517C12.6541 35.6228 12.6125 35.6864 12.5571 35.7362C12.3793 35.8685 12.1671 35.9448 11.9468 35.9556L11.9936 35.8608C12.0298 35.9308 12.0447 36.0101 12.0363 36.0886C12.028 36.1672 11.9969 36.2415 11.9468 36.3021C11.9023 36.3578 11.8491 36.4058 11.7893 36.4442C11.7296 36.4832 11.6639 36.5119 11.5949 36.529C11.3488 36.5963 11.1028 36.6362 10.8444 36.6785C10.3522 36.7583 9.86011 36.8206 9.39503 36.8755V36.7583L11.0413 36.883C11.0515 36.8834 11.0613 36.8879 11.0683 36.8954C11.1199 36.939 11.1626 36.9923 11.1938 37.0525C11.2127 37.085 11.224 37.1214 11.227 37.159C11.23 37.1965 11.2245 37.2343 11.211 37.2694C11.1787 37.3273 11.1345 37.3774 11.0815 37.4166C11.0284 37.4557 10.9677 37.4829 10.9035 37.4963C10.6863 37.5563 10.4662 37.6045 10.244 37.6409C9.81581 37.7182 9.41226 37.778 9.0333 37.8279L9.06775 37.8004L8.57561 39.0769C8.54514 39.1621 8.49744 39.2399 8.43557 39.3053C8.3737 39.3707 8.29902 39.4224 8.21633 39.4569C8.13363 39.4914 8.04473 39.508 7.95532 39.5057C7.86592 39.5033 7.77798 39.4821 7.69713 39.4434C7.58807 39.38 7.48792 39.302 7.39938 39.2115L7.19514 39.0295L7.06965 38.9148L7.03027 38.8725C7.03027 38.8725 7.0475 38.8725 7.07949 38.9049L7.20991 39.0096L7.42153 39.1841C7.51087 39.2683 7.61004 39.3411 7.71682 39.401C7.79131 39.4338 7.87165 39.4507 7.95287 39.4508C8.03409 39.4508 8.11445 39.4339 8.18897 39.4012C8.26349 39.3685 8.33058 39.3206 8.38609 39.2605C8.44159 39.2004 8.48432 39.1295 8.51163 39.052L8.98655 37.7705C8.98931 37.763 8.99392 37.7563 8.99995 37.751C9.00598 37.7458 9.01322 37.7422 9.021 37.7406C9.39749 37.6857 9.80105 37.6234 10.2268 37.5436C10.4414 37.5101 10.6541 37.4652 10.8641 37.409C10.9141 37.3995 10.9617 37.3798 11.004 37.3511C11.0463 37.3223 11.0824 37.2852 11.1102 37.242C11.1421 37.1672 11.0757 37.06 10.997 36.9927L11.0289 37.0051L9.38273 36.888C9.37507 36.8877 9.36755 36.8858 9.36064 36.8824C9.35372 36.8791 9.34754 36.8744 9.34248 36.8686C9.33742 36.8627 9.33358 36.8559 9.33119 36.8485C9.3288 36.8412 9.32792 36.8334 9.32859 36.8256C9.33005 36.812 9.33591 36.7993 9.34525 36.7893C9.35459 36.7794 9.3669 36.7729 9.38026 36.7708C9.8478 36.7135 10.3301 36.6511 10.8222 36.5689C11.0706 36.5323 11.317 36.4832 11.5605 36.4218C11.7795 36.3794 11.996 36.1351 11.8877 35.9381C11.8834 35.9311 11.8805 35.9234 11.8793 35.9152C11.8781 35.9071 11.8785 35.8988 11.8806 35.8908C11.8827 35.8829 11.8863 35.8754 11.8914 35.869C11.8964 35.8625 11.9027 35.8572 11.9099 35.8533H11.9345C12.1279 35.8434 12.3146 35.7786 12.4734 35.6664C12.5103 35.6309 12.5389 35.5874 12.5571 35.5392C12.5647 35.4846 12.5647 35.4292 12.5571 35.3747C12.5561 35.3242 12.5426 35.2749 12.5176 35.2313C12.4926 35.1877 12.4571 35.1512 12.4143 35.1254C12.37 35.1006 12.3196 35.0894 12.2692 35.0929H12.0871H11.7253L10.3301 35.078V34.9558C10.6819 34.9791 11.0351 34.9497 11.3784 34.8686C11.5367 34.8353 11.6785 34.7472 11.7795 34.6193C11.8097 34.5517 11.8213 34.4771 11.8131 34.4033C11.8048 34.3296 11.7771 34.2595 11.7327 34.2004L11.7745 34.2278C11.2678 34.1613 10.7574 34.1263 10.2464 34.1231C10.1316 34.1221 10.017 34.133 9.9044 34.1556C9.80351 34.168 9.75183 34.2752 9.68047 34.365C9.55498 34.552 9.4344 34.7414 9.33597 34.9234C8.91027 35.6564 8.57561 36.2821 8.32461 36.7508C8.31938 36.7551 8.31287 36.7574 8.30616 36.7574C8.29945 36.7574 8.29294 36.7551 8.2877 36.7508C8.0687 36.4467 7.89891 36.2049 7.77587 36.0328L7.64545 35.8434C7.62761 35.8178 7.61274 35.7902 7.60116 35.7611Z" fill="#54302B"/>
<path d="M8.8833 36.5587C8.8833 36.5587 8.8833 36.5063 8.91283 36.4166C8.95034 36.2903 9.00065 36.1683 9.06293 36.0526C9.15828 35.8723 9.30604 35.7261 9.48618 35.6337C9.71786 35.5563 9.96538 35.5408 10.2047 35.5889C10.626 35.6284 11.045 35.6908 11.4597 35.7759C11.6348 35.798 11.8062 35.8441 11.969 35.913C11.793 35.9147 11.6173 35.8971 11.4449 35.8606C11.125 35.8182 10.6821 35.7609 10.1924 35.7135C9.97381 35.6679 9.74756 35.6764 9.53293 35.7385C9.36938 35.817 9.2324 35.9428 9.13921 36.1C8.97189 36.3717 8.90545 36.5687 8.8833 36.5587Z" fill="#54302B"/>
<path d="M1.87012 30.0767C1.99176 30.0301 2.12167 30.0098 2.25153 30.0169C2.56397 30.0147 2.87446 30.0669 3.16938 30.1715C3.46413 30.2776 3.73817 30.4354 3.97896 30.6377C4.16105 30.7947 4.24718 30.9169 4.23733 30.9269C3.89631 30.6662 3.52325 30.4517 3.12755 30.2886C2.71887 30.1647 2.29639 30.0935 1.87012 30.0767Z" fill="#54302B"/>
</svg>
