<svg width="36" height="94" viewBox="0 0 36 94" fill="none" xmlns="http://www.w3.org/2000/svg">
<path d="M23.9971 20.6864C23.9971 20.6864 25.9128 20.5994 26.8914 21.6113C27.8701 22.6231 34.3934 30.1536 35.5993 32.3662C36.8053 34.5788 34.9035 36.2271 34.9035 36.2271L25.156 43.494L23.2153 41.3982L30.9779 33.8852L24.4823 27.839L23.9971 20.6864Z" fill="#B8776E"/>
<path d="M34.036 33.9372C33.4845 33.8663 32.9293 33.8206 32.3726 33.8005C31.8156 33.825 31.2604 33.8757 30.7092 33.9521C30.8553 33.8804 31.0136 33.8309 31.1778 33.8055C31.5672 33.721 31.9664 33.6776 32.3671 33.6762C32.7682 33.6748 33.1682 33.7149 33.5592 33.7955C33.7264 33.8163 33.888 33.8643 34.036 33.9372Z" fill="#7A4A45"/>
<path d="M3.88121 26.7699C3.36555 28.8433 3.04951 32.2244 2.49504 35.5434C1.84077 39.4814 0.959165 45.279 0.532227 49.1499L3.13822 48.3344L7.10819 35.8293L8.2698 27.0334C8.2698 27.0334 8.65516 24.6244 8.94903 23.5529C9.26919 22.4437 9.47246 21.31 9.55617 20.1668C8.77478 20.1336 7.9963 20.2734 7.28943 20.5739C6.58257 20.8743 5.96904 21.3262 5.50302 21.8896C4.66855 22.8717 4.39409 24.7139 3.88121 26.7699Z" fill="#B8776E"/>
<path d="M24.8012 28.0526L25.1672 20.7882L18.5857 20.2189L9.56174 20.1716L7.34388 24.9922C7.48804 26.827 8.88252 36.8758 8.88252 36.5477C8.88252 36.3612 5.7886 40.3589 4.64917 43.9041L12.4949 47.5512L23.465 44.9805C23.465 44.9805 22.417 41.5174 20.7481 37.1518L24.8012 28.0526Z" fill="#B8776E"/>
<path d="M24.0085 20.6863L22.37 20.5471L15.7109 28.5076L12.5782 20.1617H10.3076L7.98718 30.1758L8.51392 33.6216L21.9154 34.5439L24.0085 29.8377V20.6863Z" fill="#E93E25"/>
<path d="M25.9378 25.1365C25.6886 25.9293 25.3943 26.7102 25.0562 27.476C24.5322 28.7563 24.0803 29.7856 24.0443 29.7731C24.0082 29.7607 24.4047 28.7141 24.9259 27.4337C25.4471 26.1534 25.8934 25.1266 25.9378 25.1365Z" fill="#7A4A45"/>
<path d="M7.32726 24.714C7.34667 24.714 7.39103 25.0571 7.47697 25.614C7.56291 26.1709 7.69321 26.9565 7.82629 27.7893C7.95936 28.6222 8.05084 29.4152 8.08134 29.9771C8.09797 30.2605 8.10351 30.4892 8.09797 30.6459C8.10281 30.729 8.09723 30.8124 8.08134 30.8945C8.05916 30.8945 8.03975 30.5464 7.9843 29.987C7.92886 29.4277 7.82351 28.657 7.69044 27.8092C7.55736 26.9614 7.43816 26.1883 7.37994 25.6264C7.34944 25.3455 7.33003 25.1292 7.32449 24.9601C7.31318 24.8783 7.31411 24.7956 7.32726 24.714Z" fill="#7A4A45"/>
<path d="M13.8033 31.7075C13.7489 31.7563 13.685 31.7959 13.6148 31.8243C13.4381 31.9155 13.2525 31.9921 13.0603 32.0531C12.4063 32.2581 11.7038 32.3058 11.0228 32.1916C10.3418 32.0773 9.70614 31.8049 9.17907 31.4017C9.01977 31.2823 8.87314 31.15 8.74105 31.0064C8.68828 30.9569 8.64517 30.8997 8.61353 30.8374C8.63293 30.8224 8.83253 31.0512 9.24007 31.3346C9.76685 31.7055 10.3858 31.9569 11.0441 32.0673C11.7025 32.1776 12.3809 32.1438 13.0215 31.9685C13.5122 31.8368 13.7922 31.6876 13.8033 31.7075Z" fill="#263238"/>
<path d="M22.0567 32.3065C22.0567 32.3065 21.9957 32.3562 21.871 32.4233C21.6895 32.514 21.4993 32.5897 21.3027 32.6495C20.649 32.8559 19.9464 32.9046 19.2652 32.7907C18.584 32.6768 17.9482 32.4044 17.4214 32.0007C17.2628 31.8814 17.1171 31.7491 16.9861 31.6054C16.9323 31.5551 16.8882 31.4972 16.8558 31.4338C16.8752 31.4214 17.0776 31.6501 17.4824 31.9311C18.0089 32.3024 18.6277 32.5542 19.2861 32.665C19.9445 32.7758 20.623 32.7424 21.2638 32.5675C21.7573 32.4357 22.0373 32.2866 22.0567 32.3065Z" fill="#263238"/>
<g opacity="0.3">
<path d="M10.8592 32.11C11.9028 32.2875 12.9827 32.129 13.9088 31.6625C14.6324 31.3468 15.4363 31.031 16.2154 31.215C16.8447 31.3642 17.3243 31.8117 17.8566 32.1448C18.6699 32.644 19.645 32.8871 20.6289 32.8359C20.2363 33.0719 19.7924 33.2304 19.3265 33.3011C18.8605 33.3719 18.3832 33.3531 17.9259 33.2462C16.9306 32.9975 16.0629 32.3536 15.0344 32.3163C14.2221 32.2865 13.4569 32.6495 12.6557 32.7713C11.9158 32.8718 11.1594 32.7705 10.4846 32.4805C9.80975 32.1906 9.24773 31.7254 8.87146 31.1454C8.87146 31.1454 10.1717 31.9956 10.8592 32.11Z" fill="black"/>
</g>
<path d="M3.75928 55.497C3.75928 55.497 4.27216 52.6951 4.18899 51.3825C4.10582 50.0698 3.75928 50.5944 3.48205 49.3264C3.31169 48.5069 3.23644 47.6738 3.25749 46.8403L0.817841 47.5862L0.318816 50.4875L0 54.9625C0 54.9625 1.97667 57.0334 2.3343 57.0458C2.38025 57.0496 2.42658 57.0448 2.47034 57.0317C2.5141 57.0185 2.55434 56.9974 2.58849 56.9696C2.62265 56.9417 2.64998 56.9079 2.66874 56.8701C2.6875 56.8322 2.69729 56.7914 2.69748 56.75C2.69748 56.75 3.787 56.9389 3.84522 56.6033C3.90344 56.2677 2.78342 55.7282 2.78342 55.7282L1.8935 54.6492L2.6753 51.9145C2.6753 51.9145 2.86936 53.6548 2.886 53.8189C2.90263 53.9829 2.43965 55.584 3.75928 55.497Z" fill="#B8776E"/>
<path d="M20.2463 0.964034C20.4124 0.807264 20.6167 0.687252 20.8434 0.613472C21.07 0.539692 21.3126 0.514166 21.5521 0.538909C21.7408 0.587512 21.942 0.58054 22.126 0.519019C22.2356 0.439256 22.3293 0.34343 22.4032 0.235602C22.4743 0.164494 22.5607 0.107005 22.6571 0.0665885C22.7536 0.0261717 22.8582 0.00366173 22.9646 0.000410736C23.0711 -0.00284025 23.1771 0.0132346 23.2765 0.0476702C23.3758 0.0821059 23.4663 0.134191 23.5426 0.200797C23.6046 0.277879 23.6805 0.345105 23.7672 0.399685C24.147 0.573713 24.5601 -0.0652166 24.9371 0.113783C24.767 0.174025 24.6211 0.278861 24.5185 0.414603C24.4695 0.483367 24.4478 0.564927 24.4568 0.646119C24.4659 0.727311 24.5052 0.803397 24.5684 0.862102C24.9233 1.13806 25.4999 0.511561 25.8963 0.74277C26.1098 0.864589 26.1403 1.19027 26.387 1.23999C26.4855 1.2491 26.5851 1.24237 26.6809 1.2201C26.8453 1.20849 27.0084 1.25343 27.1371 1.34579C27.2659 1.43814 27.3506 1.57099 27.374 1.71733C27.4045 1.96594 27.2659 2.2767 27.4766 2.44327C27.5507 2.48453 27.6337 2.51138 27.7201 2.52208C27.8065 2.53279 27.8945 2.52711 27.9784 2.50542C27.9756 2.73692 27.914 2.96479 27.7982 3.1717C28.0263 3.29658 28.1909 3.49657 28.2567 3.72889C28.3225 3.9612 28.2843 4.20738 28.1503 4.41476C28.3843 4.55748 28.5849 4.73991 28.7408 4.95176C28.8154 5.05962 28.855 5.18405 28.855 5.311C28.855 5.43795 28.8154 5.56238 28.7408 5.67024C28.6972 5.71345 28.6608 5.76201 28.6326 5.81444C28.6146 5.8747 28.6146 5.93815 28.6326 5.99841C28.7181 6.22629 28.773 6.46247 28.7962 6.70198C28.7962 6.95059 28.5938 7.1992 28.3249 7.18677C28.2639 7.18677 28.1946 7.1644 28.1419 7.18677C28.1237 7.20028 28.1087 7.21691 28.0977 7.2357C28.0868 7.25448 28.0801 7.27504 28.0782 7.29616C28.0631 7.4686 28.0771 7.64209 28.1198 7.81079C28.164 7.97996 28.1343 8.15793 28.0366 8.30801C28.0107 8.34353 27.9766 8.3736 27.9366 8.39615C27.8965 8.4187 27.8515 8.43319 27.8046 8.43863C27.7576 8.44406 27.71 8.44031 27.6648 8.42763C27.6197 8.41496 27.5782 8.39365 27.5431 8.36519L27.776 9.16572C27.8125 9.24121 27.8276 9.32366 27.8199 9.40567C27.8121 9.48768 27.7818 9.56669 27.7316 9.6356C27.5625 9.78725 27.2576 9.6704 27.1273 9.48891C26.997 9.30743 26.9609 9.08119 26.8278 8.90219C26.7642 8.83506 26.7094 8.76167 26.6643 8.68341C26.6338 8.62126 26.6227 8.54419 26.5645 8.49944C26.4425 8.40994 26.2595 8.56159 26.2872 8.70082C26.3281 8.83626 26.4107 8.95862 26.5257 9.05384C26.5829 9.1015 26.6232 9.16326 26.6415 9.23137C26.6597 9.29949 26.6551 9.37093 26.6282 9.43671C26.5894 9.49389 26.5201 9.53118 26.4841 9.59084C26.3593 9.79471 26.692 9.9936 26.7336 10.2223C26.7342 10.3087 26.7125 10.3941 26.6702 10.4718C26.6279 10.5494 26.5661 10.6172 26.4896 10.6698C26.3261 10.819 26.0045 10.9408 25.8991 10.7543C25.8763 10.6842 25.8587 10.6128 25.8464 10.5405C25.8018 10.4648 25.7382 10.3993 25.6607 10.3491C25.4829 10.2059 25.3557 10.0193 25.2947 9.81211C25.4944 10.0309 25.7051 10.3093 25.572 10.5729C25.5006 10.6713 25.4138 10.7601 25.3142 10.8364C25.134 11.0054 25.0369 11.2217 24.8512 11.3933C24.7719 11.4846 24.6621 11.5507 24.5379 11.582C24.4137 11.6133 24.2816 11.6082 24.1609 11.5673C24.1998 11.6791 24.1956 11.7993 24.1492 11.9087C24.1027 12.0181 24.0166 12.1103 23.9046 12.1705C23.7927 12.2307 23.6614 12.2555 23.5319 12.2408C23.4024 12.2261 23.2822 12.1727 23.1906 12.0894C23.1484 12.0377 23.0945 11.9945 23.0325 11.9626C22.9582 11.944 22.8796 11.944 22.8052 11.9626C22.5779 11.9978 22.3441 11.9763 22.1295 11.9005C21.9148 11.8246 21.7276 11.6973 21.5881 11.5325L21.8183 11.4579C21.3607 11.4388 20.9144 11.3239 20.5153 11.1223C20.1382 10.8911 19.8915 10.4336 20.0855 10.0607C20.1687 9.90161 20.3295 9.73504 20.2547 9.5635C20.2198 9.51134 20.1732 9.46628 20.1178 9.43118C20.0624 9.39608 19.9995 9.37171 19.9331 9.35964L18.314 8.86241C18.0433 8.80357 17.7965 8.67782 17.6015 8.49944C17.5554 8.45394 17.5197 8.40073 17.4965 8.34283C17.4733 8.28494 17.4631 8.22352 17.4665 8.16208C17.4698 8.10064 17.4867 8.0404 17.516 7.98481C17.5454 7.92922 17.5867 7.87938 17.6376 7.83813C17.5126 7.6154 17.3205 7.42851 17.0831 7.29865C16.8059 7.15694 16.5009 7.0923 16.2237 6.96054C16.0799 6.90479 15.9561 6.81442 15.8661 6.69945C15.776 6.58448 15.7232 6.4494 15.7136 6.30918C15.733 6.02824 16.1599 5.81195 16.3789 6.01333C16.3318 5.59069 15.4946 5.56831 15.4197 5.15065C15.3587 4.81005 15.8411 4.63105 16.0906 4.36752C16.0379 4.25068 15.9049 4.17609 15.8494 4.05924C15.7302 3.81063 16.013 3.56202 16.2791 3.45263C16.5453 3.34324 16.8724 3.21894 16.9362 2.95541C16.9999 2.69188 16.7449 2.39106 16.9001 2.15737C16.9463 2.09423 17.017 2.0488 17.0985 2.02995C17.1801 2.0111 17.2665 2.02019 17.3409 2.05544C17.5544 1.55821 18.5774 1.92865 18.8713 1.47866C18.8979 1.44363 18.9106 1.4016 18.9073 1.35932C18.8994 1.32419 18.8812 1.29158 18.8546 1.26485C18.7181 1.14721 18.5664 1.04456 18.4027 0.95906C18.3215 0.914621 18.2576 0.848678 18.2198 0.770314C18.1821 0.691951 18.1724 0.605024 18.192 0.521506C18.2586 0.362395 18.594 0.367366 18.5913 0.536422C18.6408 0.501155 18.6988 0.476505 18.7606 0.464351C18.8224 0.452197 18.8865 0.452858 18.948 0.466286C19.0095 0.479713 19.0668 0.505552 19.1155 0.541833C19.1641 0.578115 19.2029 0.62388 19.2289 0.675644C19.3021 0.613366 19.3966 0.574878 19.497 0.566317C19.5975 0.557755 19.6983 0.579615 19.7834 0.628409C19.9529 0.734167 20.0917 0.874832 20.1881 1.03862" fill="#263238"/>
<path d="M22.8495 6.31658C22.661 5.62296 22.0677 5.07353 21.419 4.65586C21.1584 4.46715 20.8498 4.33906 20.5208 4.28294C20.3559 4.25736 20.1863 4.27577 20.033 4.33588C19.8798 4.39599 19.7495 4.49515 19.6586 4.62106L19.7196 5.11828C19.6752 5.91383 20.3794 6.56271 20.7287 7.29363C20.8812 7.61185 21.0059 7.9972 21.3691 8.12399C21.5628 8.18304 21.7741 8.17596 21.9624 8.1041C22.7054 7.86046 23.0408 7.01767 22.8495 6.31658Z" fill="#E93E25"/>
<path d="M23.0518 9.99104C23.2811 9.67843 23.3806 9.30353 23.333 8.93183C23.2853 8.56012 23.0936 8.21523 22.7912 7.9574C23.099 7.57703 22.9548 7.01765 22.6055 6.66711C22.2272 6.34098 21.7712 6.09616 21.272 5.95111C21.0934 5.42514 20.6963 4.98074 20.1629 4.70964C19.6295 4.43855 19.0004 4.36144 18.4054 4.49425C17.7456 3.70118 16.4176 3.62659 15.3752 3.94233C15.1271 4.03819 14.8646 4.10101 14.5962 4.12879C14.4021 4.123 14.2086 4.1064 14.0168 4.07907C12.9328 3.99205 11.8987 4.71303 11.5217 5.62791C11.4725 5.77766 11.4027 5.92131 11.3138 6.05552C11.1621 6.20757 10.9898 6.34203 10.8009 6.45579C10.6129 6.5998 10.4618 6.77854 10.3579 6.97979C10.2541 7.18104 10.2 7.40003 10.1993 7.62178C10.1993 7.99718 10.3518 8.38998 10.1993 8.73555C10.0922 8.89681 9.99412 9.06275 9.90544 9.23278C9.73356 9.75486 10.3961 10.2571 10.3019 10.7941C10.2853 10.9059 10.2354 11.0079 10.2076 11.1172C10.1487 11.3409 10.1832 11.5762 10.3047 11.7786C10.4229 11.9188 10.5096 12.0784 10.5597 12.2484C10.5566 12.3814 10.5342 12.5134 10.4932 12.6412C10.435 12.9619 11.2639 14.1627 11.5799 14.3243L20.7702 14.0335C21.1138 13.9496 21.4199 13.772 21.6459 13.5252C21.8719 13.2784 22.0067 12.9747 22.0316 12.6562C22.0221 12.5501 22.0472 12.4439 22.1037 12.3504C22.1717 12.2832 22.2549 12.2298 22.3477 12.1937C22.9243 11.8855 22.9603 11.1545 22.8689 10.5579C22.8526 10.4756 22.8526 10.3915 22.8689 10.3093C22.9045 10.1929 22.9668 10.0846 23.0518 9.99104Z" fill="#263238"/>
<path d="M20.4208 10.1081C20.3719 9.31605 20.0861 8.55044 19.5934 7.89164C19.1007 7.23284 18.4193 6.70515 17.6208 6.36398C16.8686 6.08496 16.0617 5.94379 15.2477 5.9488C14.4927 5.91521 13.7442 6.08865 13.1019 6.44602C12.6001 6.57033 10.8202 8.1689 10.8064 9.82465C10.7898 11.6669 10.848 13.9143 11.1751 15.2717C11.8321 18.0065 14.2053 18.2327 14.2053 18.2327V20.3036L15.7051 23.3218L19.7416 20.9848L20.6149 20.4876L20.4208 10.1081Z" fill="#B8776E"/>
<path d="M15.5141 14.6229C15.4929 14.4927 15.4188 14.3741 15.3061 14.2898C15.2035 14.2105 15.0746 14.1637 14.9394 14.1565C14.8041 14.1493 14.67 14.1822 14.5576 14.25C14.4561 14.3276 14.3821 14.4301 14.3446 14.545C14.3072 14.6598 14.308 14.7819 14.3469 14.8964C14.4744 15.053 14.5659 15.2071 14.7822 15.2245H14.882C15.051 15.2249 15.2138 15.167 15.3366 15.0629C15.4017 15.0066 15.4514 14.9376 15.4822 14.8614C15.5129 14.7851 15.5238 14.7035 15.5141 14.6229Z" fill="#7A4A45"/>
<path d="M12.2427 12.0148C12.2477 12.1069 12.2924 12.1936 12.3674 12.2567C12.4424 12.3198 12.5418 12.3543 12.6447 12.3529C12.6949 12.3539 12.7448 12.3459 12.7915 12.3293C12.8382 12.3128 12.8808 12.288 12.9167 12.2565C12.9526 12.225 12.9811 12.1874 13.0005 12.1459C13.02 12.1044 13.03 12.0598 13.03 12.0148C13.0257 11.9229 12.9816 11.8361 12.907 11.773C12.8324 11.7098 12.7333 11.6753 12.6308 11.6767C12.5804 11.6753 12.5301 11.6831 12.4831 11.6995C12.4361 11.7159 12.3932 11.7406 12.357 11.7721C12.3208 11.8036 12.292 11.8414 12.2724 11.883C12.2528 11.9247 12.2427 11.9695 12.2427 12.0148Z" fill="#263238"/>
<path d="M11.5772 10.8439C11.6299 10.8887 11.9155 10.6749 12.3396 10.655C12.7638 10.6351 13.0854 10.8116 13.127 10.7619C13.1685 10.7122 13.0937 10.66 12.9523 10.5779C12.7624 10.4724 12.5404 10.4229 12.3174 10.4362C12.0977 10.4467 11.8873 10.5188 11.7158 10.6426C11.5911 10.7395 11.5523 10.8241 11.5772 10.8439Z" fill="#263238"/>
<path d="M14.2386 13.7227C14.0122 13.6704 13.7792 13.6445 13.5455 13.6456C13.4346 13.6456 13.332 13.6257 13.3098 13.5611C13.2936 13.4613 13.313 13.3595 13.3653 13.2702C13.4512 13.0216 13.5427 12.773 13.6425 12.5244C14.0223 11.4504 14.2912 10.5703 14.2413 10.5579C14.1914 10.5454 13.8477 11.4032 13.4679 12.4772L13.2045 13.223C13.1438 13.3433 13.133 13.479 13.174 13.6058C13.1919 13.6392 13.2178 13.6686 13.2499 13.6918C13.2821 13.715 13.3196 13.7315 13.3597 13.7401C13.4214 13.7471 13.4838 13.7471 13.5455 13.7401C13.7764 13.7593 14.0092 13.7535 14.2386 13.7227Z" fill="#263238"/>
<path d="M14.2083 18.2303C15.6591 18.181 17.0661 17.7713 18.2725 17.0469C18.2725 17.0469 17.2966 19.0358 14.2083 18.9338V18.2303Z" fill="#7A4A45"/>
<path d="M11.4634 10.0183C11.5411 10.1078 11.8627 10.0307 12.2425 10.0382C12.6223 10.0457 12.9411 10.1227 13.0215 10.0382C13.0548 9.99594 13.0076 9.90644 12.8718 9.81943C12.6838 9.71437 12.4673 9.65765 12.2458 9.65546C12.0243 9.65327 11.8064 9.70569 11.6159 9.807C11.4801 9.88655 11.4302 9.97605 11.4634 10.0183Z" fill="#263238"/>
<path d="M16.8253 11.9899C16.8283 12.0819 16.7912 12.1713 16.7218 12.2391C16.6524 12.3069 16.5562 12.3477 16.4538 12.3528C16.4032 12.3569 16.3523 12.3519 16.3039 12.338C16.2556 12.3241 16.2108 12.3016 16.1723 12.272C16.1338 12.2423 16.1023 12.206 16.0797 12.1652C16.0571 12.1245 16.0438 12.0801 16.0407 12.0346C16.0377 11.9426 16.0748 11.8532 16.1442 11.7854C16.2136 11.7176 16.3097 11.6768 16.4122 11.6716C16.4628 11.6672 16.514 11.672 16.5625 11.6858C16.611 11.6995 16.6559 11.722 16.6945 11.7517C16.7331 11.7814 16.7646 11.8178 16.787 11.8588C16.8095 11.8997 16.8225 11.9443 16.8253 11.9899Z" fill="#263238"/>
<path d="M17.3824 10.7072C17.3325 10.7544 17.0303 10.563 16.6061 10.5704C16.182 10.5779 15.877 10.7718 15.8299 10.7271C15.7828 10.6823 15.8548 10.6226 15.9879 10.5307C16.1692 10.4143 16.386 10.351 16.6089 10.3492C16.8299 10.3441 17.0469 10.4034 17.2271 10.5182C17.3602 10.6052 17.4046 10.6873 17.3824 10.7072Z" fill="#263238"/>
<path d="M17.3077 9.21778C17.2273 9.3048 16.8974 9.21778 16.5037 9.21778C16.11 9.21778 15.7801 9.28739 15.6997 9.19789C15.6664 9.15563 15.7163 9.06861 15.8605 8.98409C16.0585 8.88261 16.2831 8.83028 16.5111 8.83246C16.7392 8.83465 16.9624 8.89127 17.158 8.99652C17.2966 9.0885 17.3437 9.17552 17.3077 9.21778Z" fill="#263238"/>
<path d="M20.0853 12.7409C20.0853 12.5345 20.3071 12.0398 20.5317 11.9951C21.1277 11.8832 22.2172 11.8708 22.3115 13.2381C22.4418 15.1151 20.3154 14.8441 20.3071 14.7894C20.2988 14.7348 20.1158 13.4469 20.0853 12.7409Z" fill="#B8776E"/>
<path d="M20.8367 14.0783C20.8367 14.0783 20.8755 14.0982 20.9392 14.1206C20.9831 14.1371 21.0303 14.1456 21.0779 14.1456C21.1255 14.1456 21.1726 14.1371 21.2165 14.1206C21.4327 14.036 21.5963 13.7104 21.5852 13.3747C21.5784 13.2135 21.532 13.0556 21.4493 12.9123C21.4261 12.8546 21.3873 12.8029 21.3366 12.7617C21.2858 12.7206 21.2246 12.6912 21.1583 12.6761C21.1158 12.6692 21.072 12.6756 21.0342 12.6942C20.9964 12.7127 20.9668 12.7423 20.9503 12.7781C20.9254 12.8328 20.9503 12.8701 20.9309 12.8725C20.9115 12.875 20.8838 12.8427 20.8949 12.7656C20.9029 12.7184 20.9294 12.6752 20.9697 12.6438C21.0242 12.6018 21.0948 12.5804 21.1666 12.5842C21.2537 12.595 21.3363 12.6256 21.4067 12.673C21.477 12.7204 21.5327 12.7831 21.5686 12.8551C21.6681 13.0124 21.7233 13.189 21.7294 13.3698C21.7432 13.7501 21.5519 14.1156 21.2553 14.2101C21.1999 14.2281 21.1406 14.2345 21.082 14.2289C21.0234 14.2233 20.967 14.2058 20.9171 14.1778C20.845 14.1231 20.8311 14.0808 20.8367 14.0783Z" fill="#7A4A45"/>
<path d="M10.3464 9.8717C10.5464 9.7675 10.7094 9.61455 10.8164 9.43059C10.9234 9.24664 10.97 9.03925 10.9507 8.8325C11.228 8.89465 11.5052 8.55654 11.6521 8.33528C11.7991 8.11401 11.9959 7.99219 11.9682 7.72866C11.9529 7.67903 11.9529 7.62664 11.9682 7.57701C12.007 7.50243 12.104 7.47508 12.19 7.44525C12.4088 7.36945 12.603 7.24583 12.755 7.08562C12.9071 6.92542 13.012 6.7337 13.0605 6.52787C13.5221 6.68268 14.0196 6.7314 14.5076 6.66958C14.6251 6.80598 14.7793 6.91337 14.9557 6.98166C15.1321 7.04996 15.325 7.07693 15.5163 7.06002C15.7075 7.04312 15.8908 6.98291 16.049 6.88504C16.2072 6.78717 16.335 6.65486 16.4205 6.50053C16.498 6.61157 16.6013 6.70636 16.7233 6.77843C16.8452 6.8505 16.9831 6.89817 17.1275 6.91819C17.4162 6.95552 17.7093 6.95552 17.998 6.91819C17.959 7.17515 18.0247 7.43609 18.1831 7.65305C18.3415 7.87001 18.582 8.0284 18.8602 8.0991C18.9378 8.1165 19.0238 8.13142 19.0626 8.19357C19.0751 8.22777 19.0799 8.26388 19.0765 8.29975C19.0732 8.33563 19.0618 8.37054 19.0432 8.4024C19.0097 8.51248 19.0013 8.62748 19.0185 8.74053C19.0357 8.85358 19.0783 8.96234 19.1435 9.0603C19.2087 9.15827 19.2953 9.24341 19.3981 9.31064C19.5009 9.37786 19.6178 9.42579 19.7418 9.45154C19.6641 9.51855 19.6046 9.60065 19.5679 9.69152C19.5312 9.78239 19.5182 9.8796 19.53 9.97567C19.5418 10.0717 19.578 10.1641 19.6359 10.2456C19.6938 10.3272 19.7717 10.3957 19.8638 10.446C19.9414 10.4833 20.044 10.528 20.0384 10.6076C20.0327 10.6377 20.0184 10.666 19.9968 10.6896C19.834 10.8727 19.7321 11.0933 19.703 11.3261C19.6949 11.4423 19.7366 11.5569 19.8196 11.6465C19.9025 11.7362 20.0204 11.794 20.1493 11.8084C20.0792 11.8605 20.0217 11.9248 19.9803 11.9975C19.9388 12.0701 19.9143 12.1496 19.9081 12.231C19.9081 12.3951 20.1077 12.5517 20.2741 12.4796C20.6616 12.3903 21.0437 12.2832 21.419 12.1589C21.9735 11.4131 21.1751 10.6498 21.0614 9.75733C20.9275 8.86675 20.566 8.01593 20.0052 7.27122C19.7826 6.95185 19.5142 6.66013 19.2067 6.40357C18.8382 6.12947 18.4365 5.89346 18.0091 5.7C17.4772 5.40604 16.8958 5.19112 16.2875 5.06355C15.1453 4.87958 13.992 5.31216 12.9607 5.79198C12.5601 5.96559 12.1872 6.18631 11.8517 6.44832C11.4796 6.78698 11.1782 7.18273 10.9618 7.61679C10.5995 8.22306 10.3815 8.89014 10.3214 9.57585" fill="#263238"/>
<path d="M9.89441 9.23517C9.91584 9.16184 9.95049 9.09214 9.99698 9.02883C10.0358 8.96419 10.094 8.88712 10.1495 8.79264C10.2095 8.68076 10.2426 8.55877 10.2465 8.43464C10.2489 8.27978 10.2359 8.12502 10.2077 7.97223C10.1753 7.78719 10.1697 7.59917 10.1911 7.41285C10.2246 7.19883 10.3067 6.99323 10.4322 6.80873C10.5004 6.70865 10.5814 6.61604 10.6734 6.53277C10.7716 6.44191 10.8783 6.35874 10.9922 6.28416C11.1063 6.21536 11.2082 6.13155 11.2944 6.03554C11.3707 5.92189 11.4304 5.7999 11.4719 5.67257C11.5779 5.40171 11.7355 5.14937 11.9376 4.92674C12.1526 4.68526 12.417 4.48276 12.7166 4.33007C12.8724 4.24888 13.038 4.18383 13.2101 4.13615C13.39 4.0867 13.5765 4.0591 13.7646 4.05411C13.8588 4.05411 13.9531 4.05411 14.0418 4.05411L14.319 4.08643C14.5038 4.11268 14.6926 4.10421 14.8735 4.06157C15.0593 4.01931 15.2395 3.94969 15.428 3.89749C15.8159 3.78669 16.2214 3.73378 16.6284 3.74086C16.8374 3.74756 17.0453 3.7717 17.2494 3.81296C17.6698 3.8993 18.0503 4.09985 18.3389 4.38725L18.4221 4.47675H18.3888C18.9918 4.34298 19.6291 4.42152 20.1695 4.6962C20.7099 4.97089 21.1124 5.42083 21.2942 5.9535L21.2776 5.9361C21.5362 6.02583 21.7881 6.13047 22.0317 6.24935C22.2701 6.36395 22.4825 6.51739 22.6582 6.70182C22.8231 6.88441 22.9304 7.10335 22.9687 7.33578C23.0074 7.56126 22.949 7.79149 22.8052 7.97969V7.94736C23.1004 8.19633 23.2904 8.52926 23.343 8.8896C23.397 9.21129 23.3399 9.54009 23.1794 9.83184C23.1429 9.89951 23.1003 9.96436 23.0519 10.0258C23.0032 10.0816 22.9578 10.1396 22.916 10.1998C22.8787 10.2566 22.8568 10.3204 22.8523 10.3862C22.8518 10.4513 22.8583 10.5162 22.8717 10.5802C22.9067 10.815 22.9123 11.0527 22.8883 11.2887C22.8705 11.4811 22.8112 11.6685 22.7137 11.8406C22.6401 11.9674 22.5348 12.0772 22.4059 12.1613C22.3006 12.2309 22.2063 12.2583 22.1564 12.2956C22.1287 12.3125 22.1043 12.3335 22.0843 12.3577C22.1004 12.331 22.1232 12.3081 22.1509 12.2906C22.2008 12.2508 22.295 12.2185 22.3976 12.1489C22.5214 12.0637 22.6227 11.955 22.6943 11.8307C22.7869 11.6602 22.8424 11.4754 22.8578 11.2862C22.8793 11.0508 22.8709 10.8139 22.8329 10.5802C22.8193 10.5146 22.8128 10.448 22.8135 10.3813C22.8159 10.3093 22.8388 10.2392 22.88 10.1774C22.9211 10.1153 22.9665 10.0555 23.0158 9.99841C23.062 9.93839 23.1028 9.87522 23.1378 9.80946C23.293 9.52421 23.3471 9.20325 23.2931 8.8896C23.2411 8.54053 23.0548 8.2187 22.7663 7.97969L22.7497 7.96477L22.7636 7.94736C22.899 7.76918 22.9526 7.55101 22.9133 7.33827C22.8771 7.1146 22.7736 6.90402 22.6139 6.72917C22.4417 6.54979 22.234 6.40058 22.0012 6.28913C21.7591 6.17251 21.5091 6.06955 21.2526 5.98085H21.2388C21.0604 5.46277 20.6679 5.02541 20.1417 4.75829C19.6155 4.49116 18.9954 4.41446 18.4082 4.54388H18.3888L18.375 4.52647C18.3472 4.49913 18.3195 4.47178 18.2946 4.44195C18.0145 4.16233 17.6444 3.96772 17.2355 3.88506C17.0361 3.84448 16.8328 3.82116 16.6284 3.81545C16.229 3.80671 15.8307 3.85797 15.4502 3.9671C15.2616 4.01931 15.0814 4.08892 14.8957 4.13118C14.8004 4.15372 14.7029 4.16787 14.6046 4.17344C14.5073 4.17482 14.41 4.16983 14.3135 4.15853C14.2192 4.15853 14.125 4.13367 14.0363 4.12621C13.7649 4.10312 13.491 4.12675 13.2295 4.19582C13.0618 4.24349 12.9001 4.30682 12.7471 4.38477C12.1773 4.67967 11.7429 5.14671 11.5218 5.7024C11.4776 5.83322 11.4152 5.95851 11.336 6.07532C11.2484 6.18021 11.1415 6.271 11.02 6.34382C10.9091 6.41354 10.8043 6.49084 10.7067 6.57503C10.6171 6.65777 10.5372 6.74858 10.4683 6.84602C10.3451 7.02589 10.2639 7.22636 10.2299 7.43523C10.2019 7.61834 10.2019 7.80403 10.2299 7.98714C10.2557 8.1418 10.2659 8.29823 10.2604 8.45453C10.2561 8.58079 10.2211 8.70468 10.1578 8.8175C10.0996 8.91446 10.0413 8.98905 9.99976 9.0512C9.96567 9.09865 9.93599 9.14854 9.91104 9.20037C9.90618 9.21222 9.90063 9.22384 9.89441 9.23517Z" fill="#455A64"/>
<path d="M17.3993 4.12635C17.3445 4.10731 17.2908 4.08573 17.2385 4.06171C17.0904 4.00561 16.933 3.972 16.7727 3.96227C16.5105 3.9458 16.2487 3.99995 16.021 4.11777C15.7933 4.23559 15.61 4.41172 15.4947 4.62358C15.4553 4.69241 15.4246 4.76495 15.4032 4.83987C15.3911 4.87238 15.3873 4.9069 15.3921 4.9409C15.3969 4.97489 15.4102 5.00749 15.4309 5.03627L15.4836 5.09842L15.4032 5.07356C15.1825 5.03065 14.9519 5.06631 14.76 5.17301C14.6094 5.25975 14.4931 5.38672 14.4273 5.53598C14.3827 5.63548 14.3611 5.74203 14.3636 5.84923C14.3636 5.9263 14.3636 5.96608 14.3636 5.96608C14.3636 5.96608 14.3636 5.96608 14.3636 5.93873C14.355 5.91025 14.3494 5.88112 14.3469 5.85171C14.3335 5.71145 14.3628 5.57054 14.4316 5.44402C14.5005 5.31749 14.6063 5.21008 14.7378 5.13323C14.8379 5.07462 14.9499 5.03435 15.0675 5.01472C15.185 4.99509 15.3057 4.9965 15.4226 5.01887L15.3921 5.06362C15.3653 5.02741 15.348 4.98628 15.3412 4.94326C15.3345 4.90024 15.3386 4.85642 15.3533 4.81501C15.3761 4.73579 15.4087 4.65909 15.4503 4.58628C15.5855 4.3435 15.8055 4.14704 16.0769 4.02691C16.2976 3.92926 16.5444 3.88879 16.7893 3.91006C16.9526 3.92272 17.1116 3.96323 17.2579 4.0294C17.2989 4.04567 17.3379 4.06566 17.3743 4.08906L17.3993 4.12635Z" fill="#455A64"/>
<path d="M20.9201 6.12284C20.9014 6.15002 20.878 6.17436 20.8508 6.19494C20.7798 6.25362 20.7028 6.30606 20.6207 6.35156C20.4971 6.42329 20.3566 6.46839 20.2104 6.48333C20.0246 6.50557 19.8364 6.46382 19.6836 6.36648H19.728L19.6725 6.44603L19.606 6.5231C19.4803 6.64989 19.3256 6.75084 19.1524 6.81907C18.9791 6.88729 18.7916 6.92117 18.6024 6.9184C18.4892 6.91633 18.377 6.89872 18.2697 6.86619C18.1949 6.84133 18.1561 6.82392 18.1588 6.81895C18.3039 6.85693 18.4541 6.877 18.6052 6.87862C18.7671 6.87713 18.9271 6.84758 19.0765 6.79161C19.2617 6.72612 19.4263 6.62117 19.5561 6.48581C19.5783 6.46095 19.6004 6.43858 19.6198 6.41371L19.6753 6.33913L19.6947 6.31179L19.7197 6.32919C19.8599 6.41986 20.0332 6.45981 20.2048 6.44106C20.3445 6.42837 20.4795 6.3894 20.6013 6.3267C20.8092 6.21234 20.9118 6.11538 20.9201 6.12284Z" fill="#455A64"/>
<path d="M22.126 7.80832C22.126 7.80832 22.126 7.80832 22.126 7.84312C22.1174 7.87547 22.1034 7.90648 22.0845 7.93511C22.0105 8.04124 21.8947 8.11847 21.7601 8.1514C21.5606 8.19405 21.3515 8.18368 21.1585 8.12157C21.0438 8.09319 20.9308 8.05917 20.8203 8.01964C20.6941 7.97942 20.5873 7.90123 20.5181 7.79837L20.5042 7.76854H20.5541C20.3756 7.91654 20.1727 8.03897 19.9525 8.13151C19.7702 8.20818 19.5673 8.23664 19.3676 8.21355C19.2333 8.20007 19.1053 8.15552 18.9961 8.08428C18.9676 8.06442 18.9416 8.04192 18.9185 8.01715C18.9018 7.99975 18.8935 7.9898 18.8963 7.9898C18.899 7.9898 18.9351 8.01964 19.0099 8.06439C19.1199 8.1257 19.2442 8.16315 19.3731 8.17378C19.5636 8.19015 19.7554 8.15918 19.9276 8.08428C20.141 7.99109 20.338 7.87049 20.5125 7.72627L20.543 7.70142L20.5624 7.73622V7.76108C20.6262 7.85429 20.7243 7.92462 20.8397 7.95997C20.9506 7.99975 21.0642 8.03207 21.1696 8.0619C21.3518 8.12343 21.5496 8.13807 21.7407 8.10417C21.869 8.07641 21.982 8.00853 22.0595 7.91273C22.0853 7.8799 22.1076 7.84493 22.126 7.80832Z" fill="#455A64"/>
<path d="M23.9779 1.0063C23.9779 1.0063 23.9419 1.0063 23.8781 1.02619C23.7885 1.05373 23.7103 1.10485 23.6535 1.17287C23.5639 1.27759 23.516 1.4063 23.5177 1.53832C23.5242 1.70815 23.5607 1.87597 23.6258 2.03555V2.06538H23.5925C23.333 2.07144 23.0827 2.15352 22.8801 2.29907C22.7654 2.37869 22.6733 2.48139 22.6112 2.59888C22.549 2.71636 22.5186 2.84532 22.5224 2.9753C22.5223 3.094 22.5531 3.21108 22.6123 3.31725C22.6715 3.42342 22.7575 3.51574 22.8634 3.58688L22.9355 3.63163H22.8468C22.6975 3.63811 22.5514 3.67241 22.4178 3.73234C22.2841 3.79226 22.1659 3.8765 22.0705 3.97969C21.919 4.1459 21.8367 4.35421 21.8377 4.5689C21.8353 4.71017 21.8675 4.85019 21.9319 4.97911C21.9763 5.07109 22.0123 5.11584 22.0068 5.11833L21.9791 5.08849C21.9544 5.05673 21.9322 5.02351 21.9125 4.98905C21.8398 4.85849 21.8009 4.71484 21.7989 4.5689C21.7921 4.34472 21.8736 4.12556 22.029 3.94985C22.1286 3.84044 22.2525 3.75079 22.3928 3.6866C22.5331 3.6224 22.6868 3.58506 22.844 3.57694L22.8274 3.62666C22.7136 3.55023 22.621 3.4512 22.5571 3.33732C22.4931 3.22345 22.4594 3.09783 22.4587 2.97033C22.4536 2.8283 22.4879 2.68736 22.5585 2.56012C22.6252 2.44074 22.7197 2.33561 22.8357 2.25184C23.0483 2.09801 23.3112 2.01071 23.5842 2.00323L23.5593 2.03555C23.4962 1.86631 23.4626 1.68939 23.4595 1.51098C23.4614 1.3716 23.5173 1.23715 23.6175 1.1306C23.6799 1.0607 23.7652 1.01024 23.8615 0.986407C23.8863 0.983372 23.9115 0.983372 23.9363 0.986407C23.9696 1.00381 23.9779 1.00381 23.9779 1.0063Z" fill="#455A64"/>
<path d="M27.9507 4.89704L27.9174 4.91693C27.8842 4.9343 27.85 4.95007 27.8148 4.96416C27.6823 5.0166 27.5424 5.05257 27.399 5.07106C27.1773 5.09586 26.9524 5.08236 26.7364 5.03129C26.4597 4.96423 26.2079 4.83205 26.0073 4.64842H26.0544C25.9637 4.80626 25.8351 4.94409 25.6779 5.05199C25.5207 5.15989 25.3387 5.23518 25.1451 5.27244C24.9366 5.30785 24.721 5.28342 24.5289 5.20264C24.3368 5.12186 24.1779 4.98882 24.075 4.82245H24.1277C24.0835 4.94898 24.0032 5.06297 23.8948 5.15311C23.7973 5.23338 23.6847 5.29737 23.5621 5.34205C23.3608 5.41164 23.1454 5.44215 22.93 5.43155C22.7905 5.4275 22.6515 5.4142 22.5142 5.39177C22.4653 5.3865 22.4171 5.37735 22.37 5.36442C22.4188 5.35891 22.4681 5.35891 22.5169 5.36442C22.6539 5.38022 22.7919 5.38852 22.93 5.38929C23.1395 5.39507 23.3481 5.36206 23.5427 5.29233C23.666 5.24903 23.7773 5.18209 23.8687 5.09621C23.9602 5.01032 24.0296 4.90756 24.0722 4.7951L24.0944 4.73047L24.1277 4.79013C24.226 4.94494 24.376 5.06824 24.5565 5.1427C24.737 5.21717 24.9389 5.23906 25.134 5.20531C25.3183 5.17 25.4916 5.09866 25.6416 4.99638C25.7916 4.89411 25.9146 4.76341 26.0017 4.61362L26.0211 4.5813L26.0489 4.60865C26.2417 4.78649 26.4838 4.91519 26.7503 4.98156C26.9589 5.0361 27.1773 5.05383 27.3935 5.03377C27.5858 5.01338 27.7736 4.96729 27.9507 4.89704Z" fill="#455A64"/>
<path d="M25.9157 7.74611C25.9118 7.75922 25.9042 7.7712 25.8936 7.78092C25.8617 7.80863 25.821 7.82686 25.7771 7.83313C25.6199 7.85248 25.4598 7.83624 25.3114 7.78589C25.0879 7.71623 24.8941 7.58589 24.7569 7.41297C24.5882 7.19572 24.5179 6.92914 24.5601 6.66714L24.6072 6.69697C24.354 6.82278 24.0625 6.87245 23.7755 6.83868C23.5427 6.8125 23.3197 6.73848 23.124 6.62239C22.9929 6.54649 22.8744 6.45443 22.7719 6.34892C22.7317 6.31235 22.698 6.27042 22.6721 6.22461C22.8137 6.36352 22.9739 6.48627 23.149 6.59007C23.3406 6.69714 23.5566 6.76426 23.7811 6.78647C24.056 6.81523 24.334 6.76658 24.5767 6.64725L24.6322 6.6199V6.67708C24.5934 6.92307 24.6586 7.17317 24.8151 7.37817C24.9434 7.54471 25.1252 7.6722 25.3363 7.74363C25.4788 7.79487 25.6324 7.81613 25.7854 7.80578C25.8352 7.79987 25.8812 7.77881 25.9157 7.74611Z" fill="#455A64"/>
<path d="M19.4064 1.28986C19.3465 1.47794 19.3258 1.67432 19.3454 1.86913C19.3708 2.1037 19.469 2.32721 19.6287 2.51437C19.7884 2.70153 20.0033 2.84489 20.2492 2.92821C20.4042 2.98188 20.5683 3.01131 20.7343 3.01523H20.7731V3.04755C20.6717 3.40758 20.7088 3.78777 20.8785 4.12652C20.9045 4.18405 20.937 4.23904 20.9755 4.2906C20.9865 4.30998 21.0026 4.32666 21.0224 4.33922C21.0422 4.35178 21.0651 4.35984 21.0892 4.3627C21.1045 4.36419 21.1199 4.3625 21.1343 4.35776C21.1488 4.35301 21.1618 4.34534 21.1724 4.33535C21.1862 4.32044 21.189 4.31049 21.1918 4.31049C21.1958 4.32011 21.1958 4.33071 21.1918 4.34033C21.1813 4.35333 21.1676 4.36393 21.1517 4.37127C21.1358 4.37862 21.1182 4.38249 21.1003 4.38259C21.0723 4.3807 21.0452 4.37297 21.0211 4.36002C20.997 4.34707 20.9767 4.32926 20.9617 4.30801C20.921 4.25587 20.8848 4.20102 20.8535 4.14392C20.7717 3.99251 20.7166 3.83065 20.69 3.6641C20.6561 3.45446 20.6674 3.24094 20.7232 3.03512L20.7537 3.06744C20.5164 3.06366 20.2836 3.00858 20.0751 2.90687C19.8666 2.80515 19.6886 2.65982 19.5561 2.4832C19.4216 2.30026 19.3406 2.08996 19.3204 1.87162C19.3075 1.72553 19.3216 1.57853 19.362 1.43655C19.3737 1.3975 19.3885 1.35928 19.4064 1.32219C19.3981 1.29981 19.4064 1.28738 19.4064 1.28986Z" fill="#455A64"/>
<path d="M15.4806 14.0957C15.4224 14.0957 15.3614 14.4438 14.9788 14.6526C14.5962 14.8614 14.1748 14.7645 14.1637 14.8142C14.1526 14.8639 14.2469 14.8962 14.441 14.9261C14.6747 14.9595 14.9142 14.9181 15.1174 14.8092C15.3116 14.7048 15.4535 14.5375 15.5138 14.3418C15.5388 14.1927 15.5083 14.0982 15.4806 14.0957Z" fill="#263238"/>
<path d="M19.24 85.9892C19.24 85.9892 19.9164 87.5007 19.3481 88.8631C18.9184 89.8899 17.9453 91.4213 17.7235 92.023C17.5017 92.6246 17.0859 93.6762 18.3972 93.8279C19.7085 93.9796 22.6915 94.529 23.1878 92.3238C23.684 90.1186 23.1323 89.9148 23.7422 88.9626C24.3521 88.0104 24.3549 87.2944 23.465 86.3223C23.0999 85.884 22.8188 85.3942 22.6333 84.8729L19.24 85.9892Z" fill="#B8776E"/>
<path d="M18.2753 86.9115C18.3535 87.6294 18.54 88.3344 18.8297 89.0073C19.1009 89.4759 19.3228 89.9661 19.4923 90.4716C19.6254 90.9912 19.5644 91.6003 19.168 91.9633C18.5996 92.4978 17.6848 92.3163 16.8919 92.3238C14.8182 92.3412 12.9053 93.8851 10.8593 93.5668C10.4251 93.5114 10.0235 93.3287 9.7171 93.0472C9.56142 92.8959 9.45163 92.7113 9.39824 92.5111C9.34485 92.3109 9.34964 92.1017 9.41215 91.9036C9.65889 91.2423 10.5211 91.0956 11.2336 90.9316C12.734 90.5555 14.0234 89.6901 14.8487 88.5051L14.5105 86.2253L18.2753 86.9115Z" fill="#B8776E"/>
<path d="M4.76268 43.6083C4.76268 43.6083 1.86837 50.5943 5.03991 58.0576C8.21146 65.5209 11.0004 70.3439 11.1196 71.9525C11.2388 73.561 11.7295 75.97 13.0603 81.1362C14.391 86.3023 15.1257 88.0177 15.1257 88.0177H18.4081C18.4081 88.0177 18.8932 77.576 17.0718 71.5969C15.2504 65.6178 13.9973 56.2974 14.6211 52.9237C15.2449 49.5501 13.8947 47.6333 13.8947 47.6333L4.76268 43.6083Z" fill="#B8776E"/>
<path d="M24.8013 52.0313C26.0155 46.7782 22.2784 41.4106 22.2784 41.4106L12.5587 48.511C12.5587 48.511 10.5016 69.7598 11.727 72.5169C12.9523 75.274 19.3869 86.2949 19.3869 86.2949L22.7303 85.1463C22.7303 85.1463 21.5909 76.3803 20.263 74.0558C19.3065 72.3801 17.7429 71.5846 18.472 69.4043C19.2012 67.224 23.8088 56.3273 24.8013 52.0313Z" fill="#B8776E"/>
<path d="M4.84058 43.2379C4.80454 43.2255 12.4728 48.8341 12.4728 48.8341L22.7665 43.6083L22.0013 41.3112C22.0013 41.3112 15.7442 44.1652 12.9746 43.6506C10.205 43.136 6.20457 40.5977 6.20457 40.5977L4.84058 43.2379Z" fill="#E93E25"/>
<path d="M24.8012 52.0312C24.7993 52.0607 24.7938 52.0899 24.7845 52.1183C24.7845 52.1829 24.7513 52.2699 24.7263 52.3669C24.6709 52.5931 24.596 52.9287 24.4685 53.3613C24.2301 54.2165 23.8309 55.4397 23.2986 56.9388C22.7663 58.438 22.1009 60.213 21.3413 62.1796C20.5817 64.1461 19.7278 66.2991 18.8462 68.5639C18.601 69.1091 18.437 69.6808 18.3583 70.2644C18.3375 70.5474 18.3646 70.8315 18.4387 71.1072C18.5197 71.3783 18.637 71.6395 18.788 71.8853C19.0929 72.3826 19.4783 72.8102 19.8137 73.2676C19.9822 73.4932 20.1376 73.7264 20.2795 73.9662C20.3516 74.0831 20.4015 74.2148 20.4625 74.3317C20.5246 74.4515 20.5792 74.5743 20.626 74.6996C20.9708 75.6375 21.2486 76.5941 21.4577 77.5636C21.6601 78.4711 21.832 79.3188 21.9706 80.097C22.2479 81.6508 22.4419 82.9113 22.5611 83.7864C22.6193 84.2165 22.6609 84.5546 22.6942 84.7808C22.6942 84.8927 22.7136 84.9797 22.7219 85.0443C22.7302 85.109 22.7219 85.1338 22.7219 85.1338C22.7108 85.105 22.7043 85.0748 22.7025 85.0443C22.7025 84.9797 22.6776 84.8952 22.6609 84.7957C22.6221 84.5471 22.5694 84.2214 22.5029 83.8013C22.3643 82.9311 22.1647 81.6707 21.868 80.1218C21.7239 79.3462 21.5465 78.4984 21.3385 77.5935C21.1278 76.6308 20.85 75.6809 20.5068 74.7493C20.4623 74.6256 20.4096 74.5044 20.3488 74.3864C20.2878 74.2695 20.2379 74.1378 20.1658 74.0309C20.0262 73.7949 19.8726 73.5659 19.7056 73.3447C19.3729 72.8922 18.9876 72.4547 18.6715 71.9525C18.5156 71.6977 18.3937 71.4273 18.3084 71.147C18.2307 70.8583 18.2026 70.5607 18.2252 70.2644C18.3017 69.667 18.4677 69.0817 18.7187 68.5241C19.5892 66.2518 20.4625 64.1038 21.2138 62.1398C21.9651 60.1758 22.6582 58.4106 23.2015 56.9189C23.7449 55.4273 24.1552 54.2066 24.4103 53.3563C24.5461 52.9337 24.6293 52.6105 24.6875 52.3768C24.718 52.2699 24.7429 52.1854 24.7596 52.1282C24.7693 52.0946 24.7833 52.0621 24.8012 52.0312Z" fill="#7A4A45"/>
<path d="M17.5184 93.2139C17.5184 93.2139 17.5184 93.1716 17.5045 93.0846C17.4972 92.9582 17.5055 92.8315 17.5295 92.7067C17.6389 92.2297 17.8101 91.7658 18.0396 91.3244C18.3168 90.7402 18.7161 90.054 19.1485 89.251C19.3846 88.8251 19.5169 88.359 19.5367 87.8837C19.5696 87.3517 19.4964 86.8188 19.3204 86.31C18.2669 84.515 17.036 82.3968 15.6998 80.0474C15.0289 78.8723 14.3386 77.6417 13.6288 76.3556C13.2767 75.7141 12.9191 75.0603 12.5698 74.394C12.3924 74.0609 12.2177 73.7228 12.0486 73.3822C11.9599 73.2131 11.8767 73.0416 11.7963 72.865C11.7062 72.6923 11.6312 72.5136 11.5718 72.3305C11.4616 71.9459 11.3902 71.5532 11.3583 71.1571C11.3167 70.7668 11.2945 70.3765 11.2751 69.9911C11.2446 69.2154 11.2446 68.4696 11.2446 67.7238C11.2446 66.2321 11.3112 64.7902 11.3749 63.4203C11.5052 60.6856 11.6827 58.2144 11.8435 56.1459C12.0042 54.0775 12.1567 52.4043 12.2676 51.2483C12.3258 50.674 12.373 50.2265 12.4035 49.9182C12.4201 49.7691 12.434 49.6547 12.4423 49.5727C12.4506 49.4906 12.4617 49.4558 12.4617 49.4558C12.4617 49.4558 12.4617 49.4956 12.4617 49.5727C12.4617 49.6497 12.4478 49.7716 12.4367 49.9207C12.4118 50.229 12.3757 50.6665 12.3286 51.2508C12.2371 52.4143 12.1068 54.0874 11.946 56.1509C11.7852 58.2144 11.63 60.6856 11.508 63.4253C11.447 64.7951 11.3971 66.2321 11.386 67.7238C11.386 68.4696 11.386 69.2154 11.4221 69.9961C11.4415 70.3814 11.4636 70.7668 11.5052 71.1546C11.5371 71.5428 11.6057 71.9279 11.7104 72.3057C11.7712 72.484 11.8453 72.6584 11.9322 72.8278C12.0126 73.0018 12.093 73.1733 12.1817 73.3424C12.3508 73.683 12.5254 74.0186 12.7029 74.3517C13.0522 75.018 13.407 75.6719 13.7591 76.3108C14.4633 77.5936 15.1453 78.8267 15.8217 80.0052C17.1525 82.357 18.3751 84.4802 19.4258 86.2776C19.6035 86.7981 19.6758 87.3428 19.6392 87.8861C19.615 88.3709 19.4761 88.8455 19.2317 89.2784C18.7798 90.0814 18.3723 90.77 18.0923 91.3418C17.8583 91.7783 17.6797 92.237 17.56 92.7092C17.5274 92.8758 17.5135 93.0448 17.5184 93.2139Z" fill="#7A4A45"/>
<path d="M4.7212 56.3819C4.69189 56.3341 4.66953 56.2831 4.65466 56.2302C4.61585 56.1159 4.56318 55.9816 4.49664 55.7852C4.4301 55.5888 4.34693 55.3526 4.27208 55.0717C4.19723 54.7908 4.09465 54.475 4.02534 54.117L3.90336 53.5552C3.86177 53.3613 3.83682 53.1549 3.80078 52.9436C3.72316 52.521 3.68158 52.066 3.63167 51.5862C3.45478 49.5023 3.63333 47.4065 4.16119 45.3709C4.29149 44.906 4.40792 44.4585 4.55486 44.0533C4.62694 43.8494 4.68793 43.648 4.76278 43.4616C4.83763 43.2751 4.90695 43.0961 4.97626 42.9246C5.10656 42.579 5.25349 42.2807 5.38101 42.0122C5.50854 41.7437 5.6222 41.5149 5.72478 41.3384C5.82736 41.1619 5.89666 41.0277 5.95766 40.9208C5.98035 40.8703 6.01017 40.8227 6.04637 40.7791C6.02935 40.831 6.00803 40.8816 5.9826 40.9307C5.92716 41.0401 5.85786 41.1793 5.77191 41.3583C5.68597 41.5373 5.56675 41.771 5.45309 42.0395C5.33942 42.308 5.1925 42.6088 5.07051 42.9544L4.86259 43.4914C4.79328 43.6779 4.73506 43.8792 4.66575 44.0806C4.52159 44.4883 4.4107 44.9309 4.28594 45.3958C4.03486 46.4085 3.8589 47.435 3.7592 48.4686C3.68174 49.5041 3.68174 50.5432 3.7592 51.5787C3.80633 52.0561 3.84237 52.5085 3.91445 52.9312C3.94772 53.14 3.96989 53.3464 4.00871 53.5403C4.04752 53.7342 4.08633 53.9206 4.12237 54.0996C4.18614 54.4576 4.27762 54.7734 4.34693 55.0543C4.41624 55.3352 4.48555 55.5764 4.54931 55.7703L4.68238 56.2228C4.69849 56.2752 4.71145 56.3283 4.7212 56.3819Z" fill="#7A4A45"/>
<path d="M25.4832 43.2603C25.4832 43.2603 24.2911 44.2548 23.3319 44.0335C22.3727 43.8123 20.482 42.2684 20.482 42.2684L19.3148 42.072L17.3437 42.5021C17.3053 42.464 17.2759 42.4193 17.2574 42.3707C17.2389 42.3221 17.2317 42.2707 17.2361 42.2195C17.2405 42.1683 17.2565 42.1185 17.2831 42.073C17.3097 42.0276 17.3463 41.9875 17.3908 41.9551C17.7179 41.6792 19.0265 41.4828 19.0265 41.4828L20.0079 41.3261L19.0736 41.0651C19.0736 41.0651 17.4379 41.6021 16.828 41.2491C16.6583 41.157 16.5158 41.0296 16.4126 40.8777C16.3093 40.7258 16.2483 40.5539 16.2347 40.3764L18.3389 39.5113L19.4146 39.3944C19.4146 39.3944 18.6661 38.8972 18.1061 38.8052C17.5461 38.7132 16.889 39.1583 16.8419 38.2583C16.8419 38.2583 18.4332 37.7859 19.2732 38.2583C20.1132 38.7306 22.564 41.085 23.4622 41.2764" fill="#B8776E"/>
<path d="M23.4566 41.2862C23.4093 41.277 23.363 41.2645 23.3179 41.2489C23.2613 41.232 23.2065 41.2103 23.1544 41.1842C23.0802 41.1527 23.0089 41.1161 22.9409 41.0749C22.4964 40.8083 22.0739 40.5133 21.6767 40.1923C21.1528 39.787 20.5428 39.2699 19.8165 38.7006C19.6332 38.5543 19.4387 38.4197 19.2343 38.2979C19.0116 38.1857 18.763 38.1211 18.508 38.1089C17.9444 38.0845 17.3807 38.1527 16.8446 38.3103L16.8861 38.2581C16.9 38.4595 16.9444 38.7106 17.1634 38.7677C17.4159 38.7859 17.6699 38.7776 17.9202 38.7429C18.2018 38.7535 18.4765 38.8243 18.7214 38.9492C18.972 39.0657 19.2121 39.1995 19.4395 39.3495L19.5725 39.4365L19.4062 39.4564L18.3333 39.5757H18.3527L16.2513 40.4384L16.2901 40.3837C16.3111 40.5594 16.3804 40.7276 16.4917 40.8733C16.6029 41.0191 16.7527 41.1379 16.9277 41.2191C17.2729 41.3199 17.6427 41.332 17.9951 41.2539C18.3532 41.1968 18.7055 41.1136 19.0486 41.0052H19.0707H19.0929L20.0272 41.2688L20.285 41.3409L20.0078 41.3856C19.4173 41.4851 18.8379 41.5572 18.2917 41.684C18.0232 41.7371 17.7633 41.8206 17.5182 41.9326C17.4642 41.9585 17.4165 41.9939 17.378 42.0366C17.3394 42.0792 17.3108 42.1284 17.2937 42.1812C17.282 42.2315 17.2837 42.2836 17.2986 42.3333C17.3136 42.383 17.3413 42.4288 17.3796 42.4671L17.3158 42.4497L19.2814 42.0245H19.3064L20.4735 42.2259H20.4874C21.0871 42.7165 21.7255 43.1676 22.3975 43.5759C22.67 43.7453 22.9653 43.8831 23.2764 43.9861C23.5449 44.0496 23.8283 44.041 24.0914 43.9612C24.4618 43.851 24.81 43.6882 25.1227 43.4789C25.2336 43.4068 25.314 43.3521 25.3695 43.3124L25.4526 43.2552C25.4311 43.2812 25.406 43.3045 25.3778 43.3248C25.3279 43.367 25.2503 43.4267 25.1421 43.5013C24.8332 43.7232 24.4845 43.8964 24.1108 44.0134C23.8366 44.102 23.539 44.1142 23.2569 44.0482C22.9356 43.9498 22.6306 43.8126 22.3504 43.6405C21.6669 43.2373 21.0182 42.7885 20.4098 42.298L20.4375 42.3105L19.2676 42.1165H19.2925L17.3297 42.5516H17.2937L17.2687 42.5267C17.2163 42.4745 17.1785 42.412 17.1583 42.3441C17.138 42.2763 17.136 42.2051 17.1523 42.1364C17.1959 42.0031 17.2952 41.89 17.4295 41.8207C17.6843 41.7007 17.9555 41.6113 18.2363 41.5547C18.7907 41.4229 19.3757 41.3508 19.9607 41.2514V41.3682L19.0596 41.1221H19.104C18.7524 41.2305 18.3918 41.3136 18.0256 41.3707C17.6441 41.4537 17.2443 41.4382 16.8723 41.326C16.6748 41.2339 16.5062 41.099 16.3817 40.9336C16.2573 40.7681 16.181 40.5774 16.1598 40.3787V40.339L16.2041 40.3216L18.3083 39.4589H18.3277L19.4034 39.342L19.3701 39.4489C19.1497 39.3017 18.916 39.1712 18.6715 39.0586C18.4457 38.9413 18.1919 38.874 17.9313 38.8622C17.668 38.8982 17.4006 38.904 17.1356 38.8796C17.069 38.8571 17.0092 38.8208 16.961 38.7737C16.9129 38.7267 16.8777 38.6701 16.8584 38.6086C16.8178 38.4986 16.7953 38.3839 16.7919 38.268V38.2258L16.8362 38.2133C17.3837 38.0556 17.9587 37.989 18.5329 38.0169C18.8053 38.0299 19.0704 38.1006 19.3064 38.2233C19.5142 38.3496 19.7125 38.4884 19.8997 38.6385C20.6232 39.2103 21.2221 39.7324 21.7405 40.1301C22.1307 40.4543 22.5437 40.7558 22.9769 41.0326C23.0438 41.0742 23.1132 41.1124 23.1849 41.147C23.2343 41.1748 23.2862 41.1989 23.3401 41.2191C23.3805 41.2391 23.4194 41.2615 23.4566 41.2862Z" fill="#7A4A45"/>
<path d="M20.6205 40.3913C20.4061 40.3952 20.1931 40.3606 19.9939 40.2893C19.7811 40.2281 19.5619 40.1865 19.3397 40.165C19.0672 40.1631 18.7957 40.1949 18.5329 40.2595C18.0465 40.3798 17.5687 40.5267 17.1024 40.6995C16.9116 40.7803 16.7118 40.8428 16.5063 40.886C16.679 40.7776 16.865 40.6875 17.0608 40.6175C17.5222 40.4192 18.0029 40.2594 18.4969 40.1402C18.7737 40.071 19.0608 40.0408 19.348 40.0507C19.5791 40.0768 19.8055 40.1295 20.0217 40.2073C20.3932 40.3316 20.6205 40.3763 20.6205 40.3913Z" fill="#7A4A45"/>
</svg>
